<!--

Built on 2024-03-28T23:31:47.560Z



## Param string


## Generated From
n/a

-->

<svg version="1.1" xmlns="http://www.w3.org/2000/svg" xmlns:xlink="http://www.w3.org/1999/xlink" width="13in" height="13in" viewBox="-5 -5 13.05 13.05"><g fill="none" fill-rule="none" stroke="none" stroke-width="none" stroke-linecap="butt" stroke-linejoin="miter" stroke-miterlimit="10" stroke-dasharray="" stroke-dashoffset="0" font-family="none" font-weight="none" font-size="none" text-anchor="none" style="mix-blend-mode: normal"><path d="M-5,1.5c0,-1.43579 1.00227,-3.69466 1.90381,-4.59619c0.90153,-0.90153 3.16041,-1.90381 4.59619,-1.90381c1.43579,0 3.69466,1.00227 4.59619,1.90381c0.90153,0.90153 1.90381,3.16041 1.90381,4.59619c0,1.43579 -1.00227,3.69466 -1.90381,4.59619c-0.90153,0.90153 -3.16041,1.90381 -4.59619,1.90381c-1.43579,0 -3.69466,-1.00227 -4.59619,-1.90381c-0.90153,-0.90153 -1.90381,-3.16041 -1.90381,-4.59619z" fill="none" fill-rule="nonzero" stroke="none" stroke-width="1"></path><path d="" fill="none" fill-rule="nonzero" stroke="none" stroke-width="1"></path><path d="M0,1.5c0,-0.82843 0.67157,-1.5 1.5,-1.5c0.82843,0 1.5,0.67157 1.5,1.5c0,0.82843 -0.67157,1.5 -1.5,1.5c-0.82843,0 -1.5,-0.67157 -1.5,-1.5z" fill="#d3d3d3" fill-rule="evenodd" stroke="#ff0000" stroke-width="0.005"></path></g></svg>