<svg version="1.1" xmlns="http://www.w3.org/2000/svg" xmlns:xlink="http://www.w3.org/1999/xlink" width="3in" height="3in" viewBox="0 0 3.05 3.05"><g fill="#d3d3d3" fill-rule="evenodd" stroke="#ff0000" stroke-width="0.005" stroke-linecap="butt" stroke-linejoin="miter" stroke-miterlimit="10" stroke-dasharray="" stroke-dashoffset="0" font-family="none" font-weight="none" font-size="none" text-anchor="none" style="mix-blend-mode: normal"><path d="M0,3v-3h3v3zM1.1304,1.2c-0.19027,0.07641 -0.40937,0.15606 -0.6504,0.2377l0,-0.08748c0.1446,-0.05118 0.27873,-0.10136 0.4004,-0.15022c0.70991,-0.28507 0.99617,-0.52516 1.08777,-0.72l0.28525,0c-0.10451,0.19484 -0.41319,0.43493 -1.12302,0.72zM1.11565,1.5c-0.1918,0.07868 -0.40562,0.15735 -0.63565,0.23534l0,-0.08808c0.13676,-0.04897 0.26583,-0.09812 0.38565,-0.14726c0.88237,-0.36191 1.26257,-0.72398 1.4495,-1.02h0.21485l0,0.10723c-0.22025,0.27407 -0.63598,0.59348 -1.41435,0.91277zM1.15136,1.8c-0.20848,0.08771 -0.43419,0.17114 -0.67136,0.2503l0,-0.08751c0.14718,-0.05252 0.28822,-0.10678 0.42136,-0.16279c0.76863,-0.32333 1.27418,-0.70479 1.62864,-1.05036l0,0.251c-0.3427,0.27246 -0.7926,0.55281 -1.37864,0.79936zM1.23855,2.1c-0.24386,0.10554 -0.49881,0.1987 -0.75855,0.28111l0,-0.0846c0.17431,-0.06025 0.34463,-0.12559 0.50855,-0.19652c0.59698,-0.25832 1.10907,-0.5908 1.54145,-0.92558l0,0.20284c-0.38198,0.26377 -0.81562,0.51681 -1.29145,0.72274zM2.47205,1.8c0.01951,-0.00871 0.03883,-0.01746 0.05795,-0.02625v0.10835c-0.59673,0.24474 -1.32597,0.45403 -2.05,0.62787l0,-0.06903c0.72239,-0.17953 1.43679,-0.39317 1.99205,-0.64095zM2.53,2.09208c-0.51631,0.15566 -1.06621,0.30371 -1.59785,0.43792l-0.29359,0c0.62801,-0.1577 1.2899,-0.3345 1.89145,-0.52031zM2.53,2.26549c-0.31168,0.09137 -0.62347,0.18013 -0.92631,0.26451l-0.29433,0c0.39524,-0.11038 0.80951,-0.22824 1.22063,-0.34965zM2.53,2.48371c-0.05038,0.01555 -0.10049,0.03099 -0.15031,0.04629l-0.29262,0c0.14491,-0.04485 0.2929,-0.09081 0.44293,-0.13765z"></path></g></svg>