<svg version="1.1" xmlns="http://www.w3.org/2000/svg" xmlns:xlink="http://www.w3.org/1999/xlink" width="3in" height="3in" viewBox="0 0 3.05 3.05"><g fill="none" fill-rule="none" stroke="none" stroke-width="none" stroke-linecap="butt" stroke-linejoin="miter" stroke-miterlimit="10" stroke-dasharray="" stroke-dashoffset="0" font-family="none" font-weight="none" font-size="none" text-anchor="none" style="mix-blend-mode: normal"><path d="M0.25,2.75l0,-2.5l2.5,0v2.5z" fill="none" fill-rule="nonzero" stroke="none" stroke-width="1"></path><path d="M0,3v-3h3v3zM0.96371,1.29111c0.04815,0.01944 0.11029,0.08889 0.12429,0.13889l0.02357,0.08418c0.00921,0.03291 0.00643,0.09782 -0.00557,0.12982l-0.012,0.032c-0.012,0.032 -0.05517,0.07802 -0.08633,0.09205l-0.09124,0.04106c-0.02321,0.01045 -0.06443,0.00289 -0.08243,-0.01511l-0.018,-0.018c-0.018,-0.018 -0.04836,-0.05825 -0.06072,-0.0805l-0.2439,-0.43903c-0.01069,-0.01923 -0.01137,-0.05807 -0.00137,-0.07766l0.01,-0.0196c0.01,-0.0196 0.0404,-0.03096 0.0608,-0.02272zM0.33559,0.90559c0.0272,0.0272 0.03641,0.08841 0.01841,0.12241l-0.04392,0.08296c-0.00504,0.00952 -0.02008,0.02304 -0.03008,0.02704l-0.01,0.004c-0.01,0.004 -0.02,-0.00277 -0.02,-0.01354v-0.22926c0,-0.0396 0.028,-0.0512 0.056,-0.0232zM2.65,1.00912c0,0.08544 -0.082,0.19488 -0.164,0.21888l-0.082,0.024c-0.082,0.024 -0.13989,-0.03397 -0.11578,-0.11594l0.18286,-0.62174c0.00946,-0.03216 0.05092,-0.07433 0.08292,-0.08433l0.032,-0.01c0.032,-0.01 0.064,0.01353 0.064,0.04705zM2.058,1.402c0.006,0.004 0.016,0.014 0.02,0.02l0.004,0.006c0.004,0.006 0.00673,0.0191 0.00546,0.0262l-0.03351,0.18764c-0.00698,0.03908 -0.03996,0.10816 -0.06596,0.13816l-0.06389,0.07372c-0.00705,0.00814 -0.02411,0.02028 -0.03411,0.02428l-0.01,0.004c-0.01,0.004 -0.03049,0.01042 -0.04099,0.01284l-0.05701,0.01316c-0.026,0.006 -0.07696,0.00257 -0.10192,-0.00686l-0.35275,-0.13326c-0.02367,-0.00894 -0.03933,-0.04188 -0.03133,-0.06588l0.008,-0.024c0.008,-0.024 0.03686,-0.06231 0.05773,-0.07661l0.20516,-0.14068c0.05156,-0.03535 0.16511,-0.07871 0.22711,-0.08671l0.14309,-0.01846c0.02146,-0.00277 0.06091,0.00646 0.07891,0.01846zM2.14551,0.90549c-0.03776,0.12226 -0.12951,0.12851 -0.18351,0.01251l-0.15961,-0.34287c-0.00119,-0.00256 -0.00039,-0.00713 0.00161,-0.00913l0.002,-0.002c0.002,-0.002 0.00653,-0.00526 0.00906,-0.00653l0.10294,-0.05147c0.036,-0.018 0.11225,-0.036 0.1525,-0.036h0.0935c0.058,0 0.09889,0.05542 0.08177,0.11084zM1.526,0.316c0.012,0.022 0.00139,0.03319 -0.02121,0.02238l-0.12344,-0.05904c-0.03067,-0.01467 -0.02735,-0.02934 0.00665,-0.02934l0.05188,0c0.02506,0 0.06212,0.022 0.07412,0.044zM0.722,2.506c0.014,0.072 -0.04535,0.144 -0.1187,0.144h-0.3333c-0.01,0 -0.02,-0.01 -0.02,-0.02l0,-0.01c0,-0.01 0.00524,-0.02852 0.01048,-0.03703l0.03752,-0.06097c0.016,-0.026 0.05915,-0.06596 0.0863,-0.07992l0.16525,-0.08498c0.06523,-0.03355 0.14446,0.00491 0.15846,0.07691zM1.098,0.304c0.006,0.008 0.00834,0.02531 0.00469,0.03462l-0.0892,0.22706c-0.00674,0.01716 -0.03148,0.03032 -0.04948,0.02632l-0.018,-0.004c-0.018,-0.004 -0.036,-0.02644 -0.036,-0.04488v-0.18523c0,-0.00894 0.004,-0.02589 0.008,-0.03389l0.004,-0.008c0.004,-0.008 0.01687,-0.01718 0.02573,-0.01836l0.11244,-0.01499c0.00991,-0.00132 0.02582,0.00536 0.03182,0.01336zM1.86,0.286c0,0.012 -0.01073,0.02937 -0.02147,0.03473l-0.02653,0.01327c-0.016,0.008 -0.0412,0.00066 -0.05041,-0.01468l-0.01759,-0.02932c-0.012,-0.02 -0.00068,-0.04 0.02265,-0.04l0.06935,0c0.012,0 0.024,0.012 0.024,0.024zM1.84114,2.53033c0.00443,0.05984 -0.05114,0.11967 -0.11114,0.11967h-0.06c-0.06,0 -0.09563,-0.05483 -0.07126,-0.10966l0.18801,-0.42303c0.00162,-0.00366 0.00725,-0.00731 0.01125,-0.00731h0.004c0.004,0 0.0083,0.00399 0.00859,0.00798zM2.65,2.054c0,0.018 -0.00998,0.02102 -0.01997,0.00605l-0.02672,-0.04008c-0.00666,-0.00998 -0.00131,-0.01997 0.01069,-0.01997h0.012c0.012,0 0.024,0.012 0.024,0.024zM1.42,1.216c0.03,0.032 0.0238,0.08877 -0.0124,0.11354l-0.06789,0.04645c-0.02486,0.01701 -0.05571,0.0045 -0.06171,-0.02501l-0.006,-0.02951c-0.006,-0.02951 0.00128,-0.08606 0.01457,-0.11309l0.01543,-0.0314c0.014,-0.02849 0.04971,-0.03382 0.07142,-0.01066zM0.48143,1.61617c0.02929,0.05192 0.00057,0.11758 -0.05743,0.13133l-0.058,0.01375c-0.058,0.01375 -0.116,-0.03211 -0.116,-0.09172l0,-0.27907c0,-0.01523 0.014,-0.03646 0.028,-0.04246l0.014,-0.006c0.014,-0.006 0.03548,0.00127 0.04297,0.01453zM2.65,1.70791c0,0.04604 -0.046,0.09409 -0.092,0.09609l-0.05758,0.0025c-0.04021,0.00175 -0.11642,-0.0145 -0.15242,-0.0325l-0.036,-0.018c-0.036,-0.018 -0.0651,-0.07565 -0.05821,-0.11531l0.01021,-0.05869c0.008,-0.046 0.06107,-0.10418 0.10615,-0.11636l0.13185,-0.03564c0.074,-0.02 0.148,0.03666 0.148,0.11331zM2.43,0.262c-0.01,0.004 -0.03077,0.008 -0.04154,0.008h-0.32046c-0.004,0 -0.008,-0.004 -0.008,-0.008v-0.004c0,-0.004 0.004,-0.008 0.008,-0.008l0.37046,0c0.01077,0 0.01154,0.004 0.00154,0.008zM2.30046,2.54466c0.03977,0.05267 0.01354,0.10534 -0.05246,0.10534h-0.066c-0.066,0 -0.13737,-0.06578 -0.14274,-0.13156l-0.01326,-0.16244c-0.008,-0.098 0.04325,-0.11753 0.1025,-0.03906zM2.264,1.948c0.038,0.016 0.09939,0.06595 0.12278,0.09991l0.2133,0.30962c0.02496,0.03623 0.04992,0.11647 0.04992,0.16047v0.124c0,0.004 -0.004,0.008 -0.008,0.008h-0.004c-0.004,0 -0.01039,-0.00321 -0.01277,-0.00642l-0.49996,-0.67302c-0.00764,-0.01028 -0.00727,-0.03056 0.00073,-0.04056l0.008,-0.01c0.008,-0.01 0.0278,-0.01503 0.03961,-0.01006zM0.62052,0.3686c0.04474,0.0107 0.08948,0.0674 0.08948,0.1134v0.046c0,0.046 -0.03493,0.12194 -0.06985,0.15187l-0.05615,0.04813c-0.042,0.036 -0.12158,0.03141 -0.15917,-0.00918l-0.10689,-0.11544c-0.03397,-0.03669 -0.06794,-0.12338 -0.06794,-0.17338v-0.05c0,-0.05 0.04863,-0.08837 0.09726,-0.07674zM1.21305,2.54028c0.04348,0.05486 0.01695,0.10972 -0.05305,0.10972h-0.07c-0.07,0 -0.15265,-0.06885 -0.16529,-0.1377l-0.06148,-0.33471c-0.00162,-0.0088 0.00077,-0.02559 0.00477,-0.03359l0.004,-0.008c0.004,-0.008 0.01356,-0.00899 0.01911,-0.00198zM1.422,0.516c0.044,0.022 0.044,0.066 0,0.088l-0.09806,0.04903c-0.01697,0.00849 -0.05194,0.01097 -0.06994,0.00497l-0.018,-0.006c-0.018,-0.006 -0.02973,-0.02991 -0.02346,-0.04782l0.02946,-0.08418c0.014,-0.04 0.06591,-0.06105 0.10381,-0.04209zM0.702,1.942c0.014,0.014 0.01781,0.04498 0.00763,0.06195l-0.01563,0.02605c-0.012,0.02 -0.04473,0.05068 -0.06547,0.06136l-0.1958,0.10087c-0.04636,0.02388 -0.09673,-0.00423 -0.10073,-0.05623l-0.004,-0.052c-0.004,-0.052 0.04277,-0.11595 0.09353,-0.12789l0.19992,-0.04704c0.01927,-0.00453 0.05255,0.00493 0.06655,0.01893zM1.82991,1.1041c0.01504,0.03295 -0.00591,0.0699 -0.04191,0.0739l-0.036,0.004c-0.036,0.004 -0.09716,-0.01806 -0.12232,-0.04412l-0.21301,-0.22062c-0.00834,-0.00863 -0.01667,-0.02927 -0.01667,-0.04127v-0.012c0,-0.012 0.01065,-0.02954 0.02129,-0.03507l0.12871,-0.06693c0.05,-0.026 0.1234,-0.00073 0.14681,0.05053zM1.42434,2.01221c0.08283,0.02889 0.12966,0.13779 0.09366,0.21779l-0.036,0.08c-0.036,0.08 -0.12748,0.09204 -0.18295,0.02408l-0.24818,-0.30402c-0.02043,-0.02503 -0.01087,-0.06206 0.01913,-0.07406l0.03,-0.012c0.03,-0.012 0.09051,-0.01336 0.12102,-0.00272zM1.04604,0.80945c0.00198,0.00028 0.00396,-0.00145 0.00396,-0.00345v-0.002c0,-0.002 0.00186,-0.00326 0.00371,-0.00251l0.11286,0.04514c0.01671,0.00669 0.03343,0.03137 0.03343,0.04937v0.018c0,0.018 -0.00874,0.05173 -0.01748,0.06747l-0.04252,0.07653c-0.02,0.036 -0.07806,0.05628 -0.11613,0.04056l-0.29191,-0.12057c-0.04598,-0.01899 -0.05397,-0.0701 -0.01597,-0.10221l0.04614,-0.03899c0.03393,-0.02867 0.11186,-0.05123 0.15586,-0.04512z" fill="#000000" fill-rule="evenodd" stroke="#000000" stroke-width="0.005"></path></g></svg>