<svg version="1.1" xmlns="http://www.w3.org/2000/svg" xmlns:xlink="http://www.w3.org/1999/xlink" width="3in" height="3in" viewBox="0 0 3.05 3.05"><g fill="none" fill-rule="none" stroke="none" stroke-width="none" stroke-linecap="butt" stroke-linejoin="miter" stroke-miterlimit="10" stroke-dasharray="" stroke-dashoffset="0" font-family="none" font-weight="none" font-size="none" text-anchor="none" style="mix-blend-mode: normal"><path d="M0.25,2.75l0,-2.5l2.5,0v2.5z" fill="none" fill-rule="nonzero" stroke="none" stroke-width="1"></path><path d="M0,3v-3h3v3zM2.54218,2.7049c0.06329,0.02896 0.13367,0.0451 0.20782,0.0451l-0.21,0c0,-0.01522 0.00074,-0.03026 0.00218,-0.0451zM2.50413,2.68547c-0.00272,0.02113 -0.00413,0.04266 -0.00413,0.06453c0,-0.02187 -0.0014,-0.04341 -0.00413,-0.06453c0.00138,-0.00078 0.00275,-0.00157 0.00413,-0.00236c0.00137,0.00079 0.00275,0.00158 0.00413,0.00236zM2.45782,2.7049c0.00144,0.01484 0.00218,0.02988 0.00218,0.0451l-0.42,0c0,-0.01522 0.00074,-0.03026 0.00218,-0.0451c0.06329,0.02896 0.13367,0.0451 0.20782,0.0451c0.07415,0 0.14453,-0.01614 0.20782,-0.0451zM2.00413,2.68547c-0.00272,0.02113 -0.00413,0.04266 -0.00413,0.06453c0,-0.02187 -0.0014,-0.04341 -0.00413,-0.06453c0.00138,-0.00078 0.00275,-0.00157 0.00413,-0.00236c0.00137,0.00079 0.00275,0.00158 0.00413,0.00236zM1.95782,2.7049c0.00144,0.01484 0.00218,0.02988 0.00218,0.0451l-0.42,0c0,-0.01522 0.00074,-0.03026 0.00218,-0.0451c0.06329,0.02896 0.13367,0.0451 0.20782,0.0451c0.07415,0 0.14453,-0.01614 0.20782,-0.0451zM1.50413,2.68547c-0.00272,0.02113 -0.00413,0.04266 -0.00413,0.06453c0,-0.02187 -0.0014,-0.04341 -0.00413,-0.06453c0.00138,-0.00078 0.00275,-0.00157 0.00413,-0.00236c0.00137,0.00079 0.00275,0.00158 0.00413,0.00236zM1.45782,2.7049c0.00144,0.01484 0.00218,0.02988 0.00218,0.0451l-0.42,0c0,-0.01522 0.00074,-0.03026 0.00218,-0.0451c0.06329,0.02896 0.13367,0.0451 0.20782,0.0451c0.07415,0 0.14453,-0.01614 0.20782,-0.0451zM1.00413,2.68547c-0.00272,0.02113 -0.00413,0.04266 -0.00413,0.06453c0,-0.02187 -0.0014,-0.04341 -0.00413,-0.06453c0.00138,-0.00078 0.00275,-0.00157 0.00413,-0.00236c0.00137,0.00079 0.00275,0.00158 0.00413,0.00236zM0.95782,2.7049c0.00144,0.01484 0.00218,0.02988 0.00218,0.0451l-0.42,0c0,-0.01522 0.00074,-0.03026 0.00218,-0.0451c0.06329,0.02896 0.13367,0.0451 0.20782,0.0451c0.07415,0 0.14453,-0.01614 0.20782,-0.0451zM2.74587,2.31453c0.00272,-0.02113 0.00413,-0.04266 0.00413,-0.06453c0,-0.02187 -0.0014,-0.04341 -0.00413,-0.06453c0.00138,-0.00078 0.00275,-0.00157 0.00413,-0.00236l0,0.13378c-0.00137,-0.00079 -0.00275,-0.00158 -0.00413,-0.00236zM2.54813,2.66345c0.00091,-0.00477 0.00189,-0.00951 0.00294,-0.01422c0.08902,-0.06724 0.15485,-0.16357 0.18334,-0.27486c0.00512,-0.00363 0.01032,-0.00715 0.01559,-0.01057v0.3462c-0.07242,0 -0.14093,-0.01673 -0.20187,-0.04655zM2.70782,2.2049c0.00144,0.01484 0.00218,0.02988 0.00218,0.0451c0,0.01522 -0.00074,0.03026 -0.00218,0.0451c-0.06329,-0.02896 -0.13367,-0.0451 -0.20782,-0.0451c-0.07415,0 -0.14453,0.01614 -0.20782,0.0451c-0.00144,-0.01484 -0.00218,-0.02988 -0.00218,-0.0451c0,-0.01522 0.00074,-0.03026 0.00218,-0.0451c0.06329,0.02896 0.13367,0.0451 0.20782,0.0451c0.07415,0 0.14453,-0.01614 0.20782,-0.0451zM2.29813,2.33655c0.06094,-0.02981 0.12945,-0.04655 0.20187,-0.04655c0.07242,0 0.14093,0.01673 0.20187,0.04655c-0.00091,0.00477 -0.00189,0.00951 -0.00294,0.01422c-0.08902,0.06724 -0.15485,0.16357 -0.18334,0.27486c-0.00512,0.00363 -0.01032,0.00715 -0.01559,0.01057c-0.00527,-0.00342 -0.01047,-0.00695 -0.01559,-0.01057c-0.02849,-0.11128 -0.09431,-0.20761 -0.18334,-0.27486c-0.00105,-0.00471 -0.00203,-0.00946 -0.00294,-0.01422zM2.25413,2.18547c-0.00272,0.02113 -0.00413,0.04266 -0.00413,0.06453c0,0.02187 0.0014,0.04341 0.00413,0.06453c-0.00138,0.00078 -0.00275,0.00157 -0.00413,0.00236c-0.00137,-0.00079 -0.00275,-0.00158 -0.00413,-0.00236c0.00272,-0.02113 0.00413,-0.04266 0.00413,-0.06453c0,-0.02187 -0.0014,-0.04341 -0.00413,-0.06453c0.00138,-0.00078 0.00275,-0.00157 0.00413,-0.00236c0.00137,0.00079 0.00275,0.00158 0.00413,0.00236zM2.04813,2.66345c0.00091,-0.00477 0.00189,-0.00951 0.00294,-0.01422c0.08902,-0.06724 0.15485,-0.16357 0.18334,-0.27486c0.00512,-0.00363 0.01032,-0.00715 0.01559,-0.01057c0.00527,0.00342 0.01047,0.00695 0.01559,0.01057c0.02849,0.11128 0.09431,0.20761 0.18334,0.27486c0.00105,0.00471 0.00203,0.00946 0.00294,0.01422c-0.06094,0.02981 -0.12945,0.04655 -0.20187,0.04655c-0.07242,0 -0.14093,-0.01673 -0.20187,-0.04655zM2.20782,2.2049c0.00144,0.01484 0.00218,0.02988 0.00218,0.0451c0,0.01522 -0.00074,0.03026 -0.00218,0.0451c-0.06329,-0.02896 -0.13367,-0.0451 -0.20782,-0.0451c-0.07415,0 -0.14453,0.01614 -0.20782,0.0451c-0.00144,-0.01484 -0.00218,-0.02988 -0.00218,-0.0451c0,-0.01522 0.00074,-0.03026 0.00218,-0.0451c0.06329,0.02896 0.13367,0.0451 0.20782,0.0451c0.07415,0 0.14453,-0.01614 0.20782,-0.0451zM1.79813,2.33655c0.06094,-0.02981 0.12945,-0.04655 0.20187,-0.04655c0.07242,0 0.14093,0.01673 0.20187,0.04655c-0.00091,0.00477 -0.00189,0.00951 -0.00294,0.01422c-0.08902,0.06724 -0.15485,0.16357 -0.18334,0.27486c-0.00512,0.00363 -0.01032,0.00715 -0.01559,0.01057c-0.00527,-0.00342 -0.01047,-0.00695 -0.01559,-0.01057c-0.02849,-0.11128 -0.09431,-0.20761 -0.18334,-0.27486c-0.00105,-0.00471 -0.00203,-0.00946 -0.00294,-0.01422zM1.75413,2.18547c-0.00272,0.02113 -0.00413,0.04266 -0.00413,0.06453c0,0.02187 0.0014,0.04341 0.00413,0.06453c-0.00138,0.00078 -0.00275,0.00157 -0.00413,0.00236c-0.00137,-0.00079 -0.00275,-0.00158 -0.00413,-0.00236c0.00272,-0.02113 0.00413,-0.04266 0.00413,-0.06453c0,-0.02187 -0.0014,-0.04341 -0.00413,-0.06453c0.00138,-0.00078 0.00275,-0.00157 0.00413,-0.00236c0.00137,0.00079 0.00275,0.00158 0.00413,0.00236zM1.54813,2.66345c0.00091,-0.00477 0.00189,-0.00951 0.00294,-0.01422c0.08902,-0.06724 0.15485,-0.16357 0.18334,-0.27486c0.00512,-0.00363 0.01032,-0.00715 0.01559,-0.01057c0.00527,0.00342 0.01047,0.00695 0.01559,0.01057c0.02849,0.11128 0.09431,0.20761 0.18334,0.27486c0.00105,0.00471 0.00203,0.00946 0.00294,0.01422c-0.06094,0.02981 -0.12945,0.04655 -0.20187,0.04655c-0.07242,0 -0.14093,-0.01673 -0.20187,-0.04655zM1.70782,2.2049c0.00144,0.01484 0.00218,0.02988 0.00218,0.0451c0,0.01522 -0.00074,0.03026 -0.00218,0.0451c-0.06329,-0.02896 -0.13367,-0.0451 -0.20782,-0.0451c-0.07415,0 -0.14453,0.01614 -0.20782,0.0451c-0.00144,-0.01484 -0.00218,-0.02988 -0.00218,-0.0451c0,-0.01522 0.00074,-0.03026 0.00218,-0.0451c0.06329,0.02896 0.13367,0.0451 0.20782,0.0451c0.07415,0 0.14453,-0.01614 0.20782,-0.0451zM1.29813,2.33655c0.06094,-0.02981 0.12945,-0.04655 0.20187,-0.04655c0.07242,0 0.14093,0.01673 0.20187,0.04655c-0.00091,0.00477 -0.00189,0.00951 -0.00294,0.01422c-0.08902,0.06724 -0.15485,0.16357 -0.18334,0.27486c-0.00512,0.00363 -0.01032,0.00715 -0.01559,0.01057c-0.00527,-0.00342 -0.01047,-0.00695 -0.01559,-0.01057c-0.02849,-0.11128 -0.09431,-0.20761 -0.18334,-0.27486c-0.00105,-0.00471 -0.00203,-0.00946 -0.00294,-0.01422zM1.25413,2.18547c-0.00272,0.02113 -0.00413,0.04266 -0.00413,0.06453c0,0.02187 0.0014,0.04341 0.00413,0.06453c-0.00138,0.00078 -0.00275,0.00157 -0.00413,0.00236c-0.00137,-0.00079 -0.00275,-0.00158 -0.00413,-0.00236c0.00272,-0.02113 0.00413,-0.04266 0.00413,-0.06453c0,-0.02187 -0.0014,-0.04341 -0.00413,-0.06453c0.00138,-0.00078 0.00275,-0.00157 0.00413,-0.00236c0.00137,0.00079 0.00275,0.00158 0.00413,0.00236zM1.04813,2.66345c0.00091,-0.00477 0.00189,-0.00951 0.00294,-0.01422c0.08902,-0.06724 0.15485,-0.16357 0.18334,-0.27486c0.00512,-0.00363 0.01032,-0.00715 0.01559,-0.01057c0.00527,0.00342 0.01047,0.00695 0.01559,0.01057c0.02849,0.11128 0.09431,0.20761 0.18334,0.27486c0.00105,0.00471 0.00203,0.00946 0.00294,0.01422c-0.06094,0.02981 -0.12945,0.04655 -0.20187,0.04655c-0.07242,0 -0.14093,-0.01673 -0.20187,-0.04655zM1,2.25c-0.07415,0 -0.14453,0.01614 -0.20782,0.0451c-0.00144,-0.01484 -0.00218,-0.02988 -0.00218,-0.0451c0,-0.01522 0.00074,-0.03026 0.00218,-0.0451c0.06329,0.02896 0.13367,0.0451 0.20782,0.0451c0,0 0,0 0,0c0.07415,0 0.14453,-0.01614 0.20782,-0.0451c0.00144,0.01484 0.00218,0.02988 0.00218,0.0451c0,0.01522 -0.00074,0.03026 -0.00218,0.0451c-0.06329,-0.02896 -0.13367,-0.0451 -0.20782,-0.0451c0,0 0,0 0,0zM0.79813,2.33655c0.06094,-0.02981 0.12945,-0.04655 0.20187,-0.04655c0.07242,0 0.14093,0.01673 0.20187,0.04655c-0.00091,0.00477 -0.00189,0.00951 -0.00294,0.01422c-0.08902,0.06724 -0.15485,0.16357 -0.18334,0.27486c-0.00512,0.00363 -0.01032,0.00715 -0.01559,0.01057c-0.00527,-0.00342 -0.01047,-0.00695 -0.01559,-0.01057c-0.02849,-0.11128 -0.09431,-0.20761 -0.18334,-0.27486c-0.00105,-0.00471 -0.00203,-0.00946 -0.00294,-0.01422zM0.75413,2.18547c-0.00272,0.02113 -0.00413,0.04266 -0.00413,0.06453c0,0.02187 0.0014,0.04341 0.00413,0.06453c-0.00138,0.00078 -0.00275,0.00157 -0.00413,0.00236c-0.00137,-0.00079 -0.00275,-0.00158 -0.00413,-0.00236c0.00272,-0.02113 0.00413,-0.04266 0.00413,-0.06453c0,-0.02187 -0.0014,-0.04341 -0.00413,-0.06453c0.00138,-0.00078 0.00275,-0.00157 0.00413,-0.00236c0.00137,0.00079 0.00275,0.00158 0.00413,0.00236zM0.54813,2.66345c0.00091,-0.00477 0.00189,-0.00951 0.00294,-0.01422c0.08902,-0.06724 0.15485,-0.16357 0.18334,-0.27486c0.00512,-0.00363 0.01032,-0.00715 0.01559,-0.01057c0.00527,0.00342 0.01047,0.00695 0.01559,0.01057c0.02849,0.11128 0.09431,0.20761 0.18334,0.27486c0.00105,0.00471 0.00203,0.00946 0.00294,0.01422c-0.06094,0.02981 -0.12945,0.04655 -0.20187,0.04655c-0.07242,0 -0.14093,-0.01673 -0.20187,-0.04655zM0.70782,2.2049c0.00144,0.01484 0.00218,0.02988 0.00218,0.0451c0,0.01522 -0.00074,0.03026 -0.00218,0.0451c-0.06329,-0.02896 -0.13367,-0.0451 -0.20782,-0.0451c-0.07415,0 -0.14453,0.01614 -0.20782,0.0451c-0.00144,-0.01484 -0.00218,-0.02988 -0.00218,-0.0451c0,-0.01522 0.00074,-0.03026 0.00218,-0.0451c0.06329,0.02896 0.13367,0.0451 0.20782,0.0451c0.07415,0 0.14453,-0.01614 0.20782,-0.0451zM0.29813,2.33655c0.06094,-0.02981 0.12945,-0.04655 0.20187,-0.04655c0.07242,0 0.14093,0.01673 0.20187,0.04655c-0.00091,0.00477 -0.00189,0.00951 -0.00294,0.01422c-0.08902,0.06724 -0.15485,0.16357 -0.18334,0.27486c-0.00512,0.00363 -0.01032,0.00715 -0.01559,0.01057c-0.10329,-0.067 -0.17801,-0.17431 -0.20187,-0.29965zM0.25413,2.18547c-0.00272,0.02113 -0.00413,0.04266 -0.00413,0.06453l0,-0.06689c0.00137,0.00079 0.00275,0.00158 0.00413,0.00236zM0.25413,2.31453c-0.00138,0.00078 -0.00275,0.00157 -0.00413,0.00236l0,-0.06689c0,0.02187 0.0014,0.04341 0.00413,0.06453zM0.2614,2.35664c0.02696,0.12408 0.09997,0.23098 0.20025,0.30188c-0.06336,0.03289 -0.13533,0.05147 -0.21165,0.05147v-0.3462c0.00376,-0.00244 0.00756,-0.00483 0.0114,-0.00716zM2.54218,1.7951c-0.00144,-0.01484 -0.00218,-0.02988 -0.00218,-0.0451c0,-0.01522 0.00074,-0.03026 0.00218,-0.0451c0.06329,0.02896 0.13367,0.0451 0.20782,0.0451c-0.07415,0 -0.14453,0.01614 -0.20782,0.0451zM2.54813,1.83655c0.06094,-0.02981 0.12945,-0.04655 0.20187,-0.04655l0,0.3462c-0.00527,-0.00342 -0.01047,-0.00695 -0.01559,-0.01057c-0.02849,-0.11128 -0.09431,-0.20761 -0.18334,-0.27486c-0.00105,-0.00471 -0.00203,-0.00946 -0.00294,-0.01422zM2.50413,1.68547c-0.00272,0.02113 -0.00413,0.04266 -0.00413,0.06453c0,0.02187 0.0014,0.04341 0.00413,0.06453c-0.00138,0.00078 -0.00275,0.00157 -0.00413,0.00236c-0.00137,-0.00079 -0.00275,-0.00158 -0.00413,-0.00236c0.00272,-0.02113 0.00413,-0.04266 0.00413,-0.06453c0,-0.02187 -0.0014,-0.04341 -0.00413,-0.06453c0.00138,-0.00078 0.00275,-0.00157 0.00413,-0.00236c0.00137,0.00079 0.00275,0.00158 0.00413,0.00236zM2.29813,2.16345c0.00091,-0.00477 0.00189,-0.00951 0.00294,-0.01422c0.08902,-0.06724 0.15485,-0.16357 0.18334,-0.27486c0.00512,-0.00363 0.01032,-0.00715 0.01559,-0.01057c0.00527,0.00342 0.01047,0.00695 0.01559,0.01057c0.02849,0.11128 0.09431,0.20761 0.18334,0.27486c0.00105,0.00471 0.00203,0.00946 0.00294,0.01422c-0.06094,0.02981 -0.12945,0.04655 -0.20187,0.04655c-0.07242,0 -0.14093,-0.01673 -0.20187,-0.04655zM2.45782,1.7049c0.00144,0.01484 0.00218,0.02988 0.00218,0.0451c0,0.01522 -0.00074,0.03026 -0.00218,0.0451c-0.06329,-0.02896 -0.13367,-0.0451 -0.20782,-0.0451c-0.07415,0 -0.14453,0.01614 -0.20782,0.0451c-0.00144,-0.01484 -0.00218,-0.02988 -0.00218,-0.0451c0,-0.01522 0.00074,-0.03026 0.00218,-0.0451c0.06329,0.02896 0.13367,0.0451 0.20782,0.0451c0.07415,0 0.14453,-0.01614 0.20782,-0.0451zM2.04813,1.83655c0.06094,-0.02981 0.12945,-0.04655 0.20187,-0.04655c0.07242,0 0.14093,0.01673 0.20187,0.04655c-0.00091,0.00477 -0.00189,0.00951 -0.00294,0.01422c-0.08902,0.06724 -0.15485,0.16357 -0.18334,0.27486c-0.00512,0.00363 -0.01032,0.00715 -0.01559,0.01057c-0.00527,-0.00342 -0.01047,-0.00695 -0.01559,-0.01057c-0.02849,-0.11128 -0.09431,-0.20761 -0.18334,-0.27486c-0.00105,-0.00471 -0.00203,-0.00946 -0.00294,-0.01422zM2.00413,1.68547c-0.00272,0.02113 -0.00413,0.04266 -0.00413,0.06453c0,0.02187 0.0014,0.04341 0.00413,0.06453c-0.00138,0.00078 -0.00275,0.00157 -0.00413,0.00236c-0.00137,-0.00079 -0.00275,-0.00158 -0.00413,-0.00236c0.00272,-0.02113 0.00413,-0.04266 0.00413,-0.06453c0,-0.02187 -0.0014,-0.04341 -0.00413,-0.06453c0.00138,-0.00078 0.00275,-0.00157 0.00413,-0.00236c0.00137,0.00079 0.00275,0.00158 0.00413,0.00236zM1.79813,2.16345c0.00091,-0.00477 0.00189,-0.00951 0.00294,-0.01422c0.08902,-0.06724 0.15485,-0.16357 0.18334,-0.27486c0.00512,-0.00363 0.01032,-0.00715 0.01559,-0.01057c0.00527,0.00342 0.01047,0.00695 0.01559,0.01057c0.02849,0.11128 0.09431,0.20761 0.18334,0.27486c0.00105,0.00471 0.00203,0.00946 0.00294,0.01422c-0.06094,0.02981 -0.12945,0.04655 -0.20187,0.04655c-0.07242,0 -0.14093,-0.01673 -0.20187,-0.04655zM1.95782,1.7049c0.00144,0.01484 0.00218,0.02988 0.00218,0.0451c0,0.01522 -0.00074,0.03026 -0.00218,0.0451c-0.06329,-0.02896 -0.13367,-0.0451 -0.20782,-0.0451c-0.07415,0 -0.14453,0.01614 -0.20782,0.0451c-0.00144,-0.01484 -0.00218,-0.02988 -0.00218,-0.0451c0,-0.01522 0.00074,-0.03026 0.00218,-0.0451c0.06329,0.02896 0.13367,0.0451 0.20782,0.0451c0.07415,0 0.14453,-0.01614 0.20782,-0.0451zM1.54813,1.83655c0.06094,-0.02981 0.12945,-0.04655 0.20187,-0.04655c0.07242,0 0.14093,0.01673 0.20187,0.04655c-0.00091,0.00477 -0.00189,0.00951 -0.00294,0.01422c-0.08902,0.06724 -0.15485,0.16357 -0.18334,0.27486c-0.00512,0.00363 -0.01032,0.00715 -0.01559,0.01057c-0.00527,-0.00342 -0.01047,-0.00695 -0.01559,-0.01057c-0.02849,-0.11128 -0.09431,-0.20761 -0.18334,-0.27486c-0.00105,-0.00471 -0.00203,-0.00946 -0.00294,-0.01422zM1.50413,1.68547c-0.00272,0.02113 -0.00413,0.04266 -0.00413,0.06453c0,0.02187 0.0014,0.04341 0.00413,0.06453c-0.00138,0.00078 -0.00275,0.00157 -0.00413,0.00236c-0.00137,-0.00079 -0.00275,-0.00158 -0.00413,-0.00236c0.00272,-0.02113 0.00413,-0.04266 0.00413,-0.06453c0,-0.02187 -0.0014,-0.04341 -0.00413,-0.06453c0.00138,-0.00078 0.00275,-0.00157 0.00413,-0.00236c0.00137,0.00079 0.00275,0.00158 0.00413,0.00236zM1.29813,2.16345c0.00091,-0.00477 0.00189,-0.00951 0.00294,-0.01422c0.08902,-0.06724 0.15485,-0.16357 0.18334,-0.27486c0.00512,-0.00363 0.01032,-0.00715 0.01559,-0.01057c0.00527,0.00342 0.01047,0.00695 0.01559,0.01057c0.02849,0.11128 0.09431,0.20761 0.18334,0.27486c0.00105,0.00471 0.00203,0.00946 0.00294,0.01422c-0.06094,0.02981 -0.12945,0.04655 -0.20187,0.04655c-0.07242,0 -0.14093,-0.01673 -0.20187,-0.04655zM1.45782,1.7049c0.00144,0.01484 0.00218,0.02988 0.00218,0.0451c0,0.01522 -0.00074,0.03026 -0.00218,0.0451c-0.06329,-0.02896 -0.13367,-0.0451 -0.20782,-0.0451c-0.07415,0 -0.14453,0.01614 -0.20782,0.0451c-0.00144,-0.01484 -0.00218,-0.02988 -0.00218,-0.0451c0,-0.01522 0.00074,-0.03026 0.00218,-0.0451c0.06329,0.02896 0.13367,0.0451 0.20782,0.0451c0.07415,0 0.14453,-0.01614 0.20782,-0.0451zM1.04813,1.83655c0.06094,-0.02981 0.12945,-0.04655 0.20187,-0.04655c0.07242,0 0.14093,0.01673 0.20187,0.04655c-0.00091,0.00477 -0.00189,0.00951 -0.00294,0.01422c-0.08902,0.06724 -0.15485,0.16357 -0.18334,0.27486c-0.00512,0.00363 -0.01032,0.00715 -0.01559,0.01057c-0.00527,-0.00342 -0.01047,-0.00695 -0.01559,-0.01057c-0.02849,-0.11128 -0.09431,-0.20761 -0.18334,-0.27486c-0.00105,-0.00471 -0.00203,-0.00946 -0.00294,-0.01422zM1.00413,1.68547c-0.00272,0.02113 -0.00413,0.04266 -0.00413,0.06453c0,0.02187 0.0014,0.04341 0.00413,0.06453c-0.00138,0.00078 -0.00275,0.00157 -0.00413,0.00236c-0.00137,-0.00079 -0.00275,-0.00158 -0.00413,-0.00236c0.00272,-0.02113 0.00413,-0.04266 0.00413,-0.06453c0,-0.02187 -0.0014,-0.04341 -0.00413,-0.06453c0.00138,-0.00078 0.00275,-0.00157 0.00413,-0.00236c0.00137,0.00079 0.00275,0.00158 0.00413,0.00236zM0.79813,2.16345c0.00091,-0.00477 0.00189,-0.00951 0.00294,-0.01422c0.08902,-0.06724 0.15485,-0.16357 0.18334,-0.27486c0.00512,-0.00363 0.01032,-0.00715 0.01559,-0.01057c0.00527,0.00342 0.01047,0.00695 0.01559,0.01057c0.02849,0.11128 0.09431,0.20761 0.18334,0.27486c0.00105,0.00471 0.00203,0.00946 0.00294,0.01422c-0.06094,0.02981 -0.12945,0.04655 -0.20187,0.04655c-0.07242,0 -0.14093,-0.01673 -0.20187,-0.04655zM0.95782,1.7049c0.00144,0.01484 0.00218,0.02988 0.00218,0.0451c0,0.01522 -0.00074,0.03026 -0.00218,0.0451c-0.06329,-0.02896 -0.13367,-0.0451 -0.20782,-0.0451c-0.07415,0 -0.14453,0.01614 -0.20782,0.0451c-0.00144,-0.01484 -0.00218,-0.02988 -0.00218,-0.0451c0,-0.01522 0.00074,-0.03026 0.00218,-0.0451c0.06329,0.02896 0.13367,0.0451 0.20782,0.0451c0.07415,0 0.14453,-0.01614 0.20782,-0.0451zM0.54813,1.83655c0.06094,-0.02981 0.12945,-0.04655 0.20187,-0.04655c0.07242,0 0.14093,0.01673 0.20187,0.04655c-0.00091,0.00477 -0.00189,0.00951 -0.00294,0.01422c-0.08902,0.06724 -0.15485,0.16357 -0.18334,0.27486c-0.00512,0.00363 -0.01032,0.00715 -0.01559,0.01057c-0.00527,-0.00342 -0.01047,-0.00695 -0.01559,-0.01057c-0.02849,-0.11128 -0.09431,-0.20761 -0.18334,-0.27486c-0.00105,-0.00471 -0.00203,-0.00946 -0.00294,-0.01422zM0.50413,1.68547c-0.00272,0.02113 -0.00413,0.04266 -0.00413,0.06453c0,0.02187 0.0014,0.04341 0.00413,0.06453c-0.00138,0.00078 -0.00275,0.00157 -0.00413,0.00236c-0.07354,-0.04254 -0.15893,-0.06689 -0.25,-0.06689c0.09107,0 0.17646,-0.02435 0.25,-0.06689c0.00137,0.00079 0.00275,0.00158 0.00413,0.00236zM0.29813,2.16345c0.02386,-0.12534 0.09858,-0.23265 0.20187,-0.29965c0.00527,0.00342 0.01047,0.00695 0.01559,0.01057c0.02849,0.11128 0.09431,0.20761 0.18334,0.27486c0.00105,0.00471 0.00203,0.00946 0.00294,0.01422c-0.06094,0.02981 -0.12945,0.04655 -0.20187,0.04655c-0.07242,0 -0.14093,-0.01673 -0.20187,-0.04655zM0.46165,1.84147c-0.10028,0.07091 -0.17329,0.1778 -0.20025,0.30188c-0.00384,-0.00233 -0.00764,-0.00472 -0.0114,-0.00716l0,-0.3462c0.07632,0 0.14829,0.01858 0.21165,0.05147zM2.74587,1.31453c0.00272,-0.02113 0.00413,-0.04266 0.00413,-0.06453c0,-0.02187 -0.0014,-0.04341 -0.00413,-0.06453c0.00138,-0.00078 0.00275,-0.00157 0.00413,-0.00236l0,0.13378c-0.00137,-0.00079 -0.00275,-0.00158 -0.00413,-0.00236zM2.54813,1.66345c0.00091,-0.00477 0.00189,-0.00951 0.00294,-0.01422c0.08902,-0.06724 0.15485,-0.16357 0.18334,-0.27486c0.00512,-0.00363 0.01032,-0.00715 0.01559,-0.01057v0.3462c-0.07242,0 -0.14093,-0.01673 -0.20187,-0.04655zM2.70782,1.2049c0.00144,0.01484 0.00218,0.02988 0.00218,0.0451c0,0.01522 -0.00074,0.03026 -0.00218,0.0451c-0.06329,-0.02896 -0.13367,-0.0451 -0.20782,-0.0451c-0.07415,0 -0.14453,0.01614 -0.20782,0.0451c-0.00144,-0.01484 -0.00218,-0.02988 -0.00218,-0.0451c0,-0.01522 0.00074,-0.03026 0.00218,-0.0451c0.06329,0.02896 0.13367,0.0451 0.20782,0.0451c0.07415,0 0.14453,-0.01614 0.20782,-0.0451zM2.29813,1.33655c0.06094,-0.02981 0.12945,-0.04655 0.20187,-0.04655c0.07242,0 0.14093,0.01673 0.20187,0.04655c-0.00091,0.00477 -0.00189,0.00951 -0.00294,0.01422c-0.08902,0.06724 -0.15485,0.16357 -0.18334,0.27486c-0.00512,0.00363 -0.01032,0.00715 -0.01559,0.01057c-0.00527,-0.00342 -0.01047,-0.00695 -0.01559,-0.01057c-0.02849,-0.11128 -0.09431,-0.20761 -0.18334,-0.27486c-0.00105,-0.00471 -0.00203,-0.00946 -0.00294,-0.01422zM2.25413,1.18547c-0.00272,0.02113 -0.00413,0.04266 -0.00413,0.06453c0,0.02187 0.0014,0.04341 0.00413,0.06453c-0.00138,0.00078 -0.00275,0.00157 -0.00413,0.00236c-0.00137,-0.00079 -0.00275,-0.00158 -0.00413,-0.00236c0.00272,-0.02113 0.00413,-0.04266 0.00413,-0.06453c0,-0.02187 -0.0014,-0.04341 -0.00413,-0.06453c0.00138,-0.00078 0.00275,-0.00157 0.00413,-0.00236c0.00137,0.00079 0.00275,0.00158 0.00413,0.00236zM2.04813,1.66345c0.00091,-0.00477 0.00189,-0.00951 0.00294,-0.01422c0.08902,-0.06724 0.15485,-0.16357 0.18334,-0.27486c0.00512,-0.00363 0.01032,-0.00715 0.01559,-0.01057c0.00527,0.00342 0.01047,0.00695 0.01559,0.01057c0.02849,0.11128 0.09431,0.20761 0.18334,0.27486c0.00105,0.00471 0.00203,0.00946 0.00294,0.01422c-0.06094,0.02981 -0.12945,0.04655 -0.20187,0.04655c-0.07242,0 -0.14093,-0.01673 -0.20187,-0.04655zM2.20782,1.2049c0.00144,0.01484 0.00218,0.02988 0.00218,0.0451c0,0.01522 -0.00074,0.03026 -0.00218,0.0451c-0.06329,-0.02896 -0.13367,-0.0451 -0.20782,-0.0451c-0.07415,0 -0.14453,0.01614 -0.20782,0.0451c-0.00144,-0.01484 -0.00218,-0.02988 -0.00218,-0.0451c0,-0.01522 0.00074,-0.03026 0.00218,-0.0451c0.06329,0.02896 0.13367,0.0451 0.20782,0.0451c0.07415,0 0.14453,-0.01614 0.20782,-0.0451zM1.79813,1.33655c0.06094,-0.02981 0.12945,-0.04655 0.20187,-0.04655c0.07242,0 0.14093,0.01673 0.20187,0.04655c-0.00091,0.00477 -0.00189,0.00951 -0.00294,0.01422c-0.08902,0.06724 -0.15485,0.16357 -0.18334,0.27486c-0.00512,0.00363 -0.01032,0.00715 -0.01559,0.01057c-0.00527,-0.00342 -0.01047,-0.00695 -0.01559,-0.01057c-0.02849,-0.11128 -0.09431,-0.20761 -0.18334,-0.27486c-0.00105,-0.00471 -0.00203,-0.00946 -0.00294,-0.01422zM1.75413,1.18547c-0.00272,0.02113 -0.00413,0.04266 -0.00413,0.06453c0,0.02187 0.0014,0.04341 0.00413,0.06453c-0.00138,0.00078 -0.00275,0.00157 -0.00413,0.00236c-0.00137,-0.00079 -0.00275,-0.00158 -0.00413,-0.00236c0.00272,-0.02113 0.00413,-0.04266 0.00413,-0.06453c0,-0.02187 -0.0014,-0.04341 -0.00413,-0.06453c0.00138,-0.00078 0.00275,-0.00157 0.00413,-0.00236c0.00137,0.00079 0.00275,0.00158 0.00413,0.00236zM1.54813,1.66345c0.00091,-0.00477 0.00189,-0.00951 0.00294,-0.01422c0.08902,-0.06724 0.15485,-0.16357 0.18334,-0.27486c0.00512,-0.00363 0.01032,-0.00715 0.01559,-0.01057c0.00527,0.00342 0.01047,0.00695 0.01559,0.01057c0.02849,0.11128 0.09431,0.20761 0.18334,0.27486c0.00105,0.00471 0.00203,0.00946 0.00294,0.01422c-0.06094,0.02981 -0.12945,0.04655 -0.20187,0.04655c-0.07242,0 -0.14093,-0.01673 -0.20187,-0.04655zM1.70782,1.2049c0.00144,0.01484 0.00218,0.02988 0.00218,0.0451c0,0.01522 -0.00074,0.03026 -0.00218,0.0451c-0.06329,-0.02896 -0.13367,-0.0451 -0.20782,-0.0451c-0.07415,0 -0.14453,0.01614 -0.20782,0.0451c-0.00144,-0.01484 -0.00218,-0.02988 -0.00218,-0.0451c0,-0.01522 0.00074,-0.03026 0.00218,-0.0451c0.06329,0.02896 0.13367,0.0451 0.20782,0.0451c0.07415,0 0.14453,-0.01614 0.20782,-0.0451zM1.29813,1.33655c0.06094,-0.02981 0.12945,-0.04655 0.20187,-0.04655c0.07242,0 0.14093,0.01673 0.20187,0.04655c-0.00091,0.00477 -0.00189,0.00951 -0.00294,0.01422c-0.08902,0.06724 -0.15485,0.16357 -0.18334,0.27486c-0.00512,0.00363 -0.01032,0.00715 -0.01559,0.01057c-0.00527,-0.00342 -0.01047,-0.00695 -0.01559,-0.01057c-0.02849,-0.11128 -0.09431,-0.20761 -0.18334,-0.27486c-0.00105,-0.00471 -0.00203,-0.00946 -0.00294,-0.01422zM1.25413,1.18547c-0.00272,0.02113 -0.00413,0.04266 -0.00413,0.06453c0,0.02187 0.0014,0.04341 0.00413,0.06453c-0.00138,0.00078 -0.00275,0.00157 -0.00413,0.00236c-0.00137,-0.00079 -0.00275,-0.00158 -0.00413,-0.00236c0.00272,-0.02113 0.00413,-0.04266 0.00413,-0.06453c0,-0.02187 -0.0014,-0.04341 -0.00413,-0.06453c0.00138,-0.00078 0.00275,-0.00157 0.00413,-0.00236c0.00137,0.00079 0.00275,0.00158 0.00413,0.00236zM1.04813,1.66345c0.00091,-0.00477 0.00189,-0.00951 0.00294,-0.01422c0.08902,-0.06724 0.15485,-0.16357 0.18334,-0.27486c0.00512,-0.00363 0.01032,-0.00715 0.01559,-0.01057c0.00527,0.00342 0.01047,0.00695 0.01559,0.01057c0.02849,0.11128 0.09431,0.20761 0.18334,0.27486c0.00105,0.00471 0.00203,0.00946 0.00294,0.01422c-0.06094,0.02981 -0.12945,0.04655 -0.20187,0.04655c-0.07242,0 -0.14093,-0.01673 -0.20187,-0.04655zM1.20782,1.2049c0.00144,0.01484 0.00218,0.02988 0.00218,0.0451c0,0.01522 -0.00074,0.03026 -0.00218,0.0451c-0.06329,-0.02896 -0.13367,-0.0451 -0.20782,-0.0451c-0.07415,0 -0.14453,0.01614 -0.20782,0.0451c-0.00144,-0.01484 -0.00218,-0.02988 -0.00218,-0.0451c0,-0.01522 0.00074,-0.03026 0.00218,-0.0451c0.06329,0.02896 0.13367,0.0451 0.20782,0.0451c0.07415,0 0.14453,-0.01614 0.20782,-0.0451zM0.79813,1.33655c0.06094,-0.02981 0.12945,-0.04655 0.20187,-0.04655c0.07242,0 0.14093,0.01673 0.20187,0.04655c-0.00091,0.00477 -0.00189,0.00951 -0.00294,0.01422c-0.08902,0.06724 -0.15485,0.16357 -0.18334,0.27486c-0.00512,0.00363 -0.01032,0.00715 -0.01559,0.01057c-0.00527,-0.00342 -0.01047,-0.00695 -0.01559,-0.01057c-0.02849,-0.11128 -0.09431,-0.20761 -0.18334,-0.27486c-0.00105,-0.00471 -0.00203,-0.00946 -0.00294,-0.01422zM0.75413,1.18547c-0.00272,0.02113 -0.00413,0.04266 -0.00413,0.06453c0,0.02187 0.0014,0.04341 0.00413,0.06453c-0.00138,0.00078 -0.00275,0.00157 -0.00413,0.00236c-0.00137,-0.00079 -0.00275,-0.00158 -0.00413,-0.00236c0.00272,-0.02113 0.00413,-0.04266 0.00413,-0.06453c0,-0.02187 -0.0014,-0.04341 -0.00413,-0.06453c0.00138,-0.00078 0.00275,-0.00157 0.00413,-0.00236c0.00137,0.00079 0.00275,0.00158 0.00413,0.00236zM0.54813,1.66345c0.00091,-0.00477 0.00189,-0.00951 0.00294,-0.01422c0.08902,-0.06724 0.15485,-0.16357 0.18334,-0.27486c0.00512,-0.00363 0.01032,-0.00715 0.01559,-0.01057c0.00527,0.00342 0.01047,0.00695 0.01559,0.01057c0.02849,0.11128 0.09431,0.20761 0.18334,0.27486c0.00105,0.00471 0.00203,0.00946 0.00294,0.01422c-0.06094,0.02981 -0.12945,0.04655 -0.20187,0.04655c-0.07242,0 -0.14093,-0.01673 -0.20187,-0.04655zM0.70782,1.2049c0.00144,0.01484 0.00218,0.02988 0.00218,0.0451c0,0.01522 -0.00074,0.03026 -0.00218,0.0451c-0.06329,-0.02896 -0.13367,-0.0451 -0.20782,-0.0451c-0.07415,0 -0.14453,0.01614 -0.20782,0.0451c-0.00144,-0.01484 -0.00218,-0.02988 -0.00218,-0.0451c0,-0.01522 0.00074,-0.03026 0.00218,-0.0451c0.06329,0.02896 0.13367,0.0451 0.20782,0.0451c0.07415,0 0.14453,-0.01614 0.20782,-0.0451zM0.29813,1.33655c0.06094,-0.02981 0.12945,-0.04655 0.20187,-0.04655c0.07242,0 0.14093,0.01673 0.20187,0.04655c-0.00091,0.00477 -0.00189,0.00951 -0.00294,0.01422c-0.08902,0.06724 -0.15485,0.16357 -0.18334,0.27486c-0.00512,0.00363 -0.01032,0.00715 -0.01559,0.01057c-0.10329,-0.067 -0.17801,-0.17431 -0.20187,-0.29965zM0.25413,1.18547c-0.00272,0.02113 -0.00413,0.04266 -0.00413,0.06453c0,0.02187 0.0014,0.04341 0.00413,0.06453c-0.00138,0.00078 -0.00275,0.00157 -0.00413,0.00236l0,-0.13378c0.00137,0.00079 0.00275,0.00158 0.00413,0.00236zM0.2614,1.35664c0.02696,0.12408 0.09997,0.23098 0.20025,0.30188c-0.06336,0.03289 -0.13533,0.05147 -0.21165,0.05147l0,-0.3462c0.00376,-0.00244 0.00756,-0.00483 0.0114,-0.00716zM2.54218,0.7951c-0.00144,-0.01484 -0.00218,-0.02988 -0.00218,-0.0451c0,-0.01522 0.00074,-0.03026 0.00218,-0.0451c0.06329,0.02896 0.13367,0.0451 0.20782,0.0451c-0.07415,0 -0.14453,0.01614 -0.20782,0.0451zM2.54813,0.83655c0.06094,-0.02981 0.12945,-0.04655 0.20187,-0.04655l0,0.3462c-0.00527,-0.00342 -0.01047,-0.00695 -0.01559,-0.01057c-0.02849,-0.11128 -0.09431,-0.20761 -0.18334,-0.27486c-0.00105,-0.00471 -0.00203,-0.00946 -0.00294,-0.01422zM2.50413,0.68547c-0.00272,0.02113 -0.00413,0.04266 -0.00413,0.06453c0,0.02187 0.0014,0.04341 0.00413,0.06453c-0.00138,0.00078 -0.00275,0.00157 -0.00413,0.00236c-0.00137,-0.00079 -0.00275,-0.00158 -0.00413,-0.00236c0.00272,-0.02113 0.00413,-0.04266 0.00413,-0.06453c0,-0.02187 -0.0014,-0.04341 -0.00413,-0.06453c0.00138,-0.00078 0.00275,-0.00157 0.00413,-0.00236c0.00137,0.00079 0.00275,0.00158 0.00413,0.00236zM2.29813,1.16345c0.00091,-0.00477 0.00189,-0.00951 0.00294,-0.01422c0.08902,-0.06724 0.15485,-0.16357 0.18334,-0.27486c0.00512,-0.00363 0.01032,-0.00715 0.01559,-0.01057c0.00527,0.00342 0.01047,0.00695 0.01559,0.01057c0.02849,0.11128 0.09431,0.20761 0.18334,0.27486c0.00105,0.00471 0.00203,0.00946 0.00294,0.01422c-0.06094,0.02981 -0.12945,0.04655 -0.20187,0.04655c-0.07242,0 -0.14093,-0.01673 -0.20187,-0.04655zM2.45782,0.7049c0.00144,0.01484 0.00218,0.02988 0.00218,0.0451c0,0.01522 -0.00074,0.03026 -0.00218,0.0451c-0.06329,-0.02896 -0.13367,-0.0451 -0.20782,-0.0451c-0.07415,0 -0.14453,0.01614 -0.20782,0.0451c-0.00144,-0.01484 -0.00218,-0.02988 -0.00218,-0.0451c0,-0.01522 0.00074,-0.03026 0.00218,-0.0451c0.06329,0.02896 0.13367,0.0451 0.20782,0.0451c0.07415,0 0.14453,-0.01614 0.20782,-0.0451zM2.04813,0.83655c0.06094,-0.02981 0.12945,-0.04655 0.20187,-0.04655c0.07242,0 0.14093,0.01673 0.20187,0.04655c-0.00091,0.00477 -0.00189,0.00951 -0.00294,0.01422c-0.08902,0.06724 -0.15485,0.16357 -0.18334,0.27486c-0.00512,0.00363 -0.01032,0.00715 -0.01559,0.01057c-0.00527,-0.00342 -0.01047,-0.00695 -0.01559,-0.01057c-0.02849,-0.11128 -0.09431,-0.20761 -0.18334,-0.27486c-0.00105,-0.00471 -0.00203,-0.00946 -0.00294,-0.01422zM2.00413,0.68547c-0.00272,0.02113 -0.00413,0.04266 -0.00413,0.06453c0,0.02187 0.0014,0.04341 0.00413,0.06453c-0.00138,0.00078 -0.00275,0.00157 -0.00413,0.00236c-0.00137,-0.00079 -0.00275,-0.00158 -0.00413,-0.00236c0.00272,-0.02113 0.00413,-0.04266 0.00413,-0.06453c0,-0.02187 -0.0014,-0.04341 -0.00413,-0.06453c0.00138,-0.00078 0.00275,-0.00157 0.00413,-0.00236c0.00137,0.00079 0.00275,0.00158 0.00413,0.00236zM1.79813,1.16345c0.00091,-0.00477 0.00189,-0.00951 0.00294,-0.01422c0.08902,-0.06724 0.15485,-0.16357 0.18334,-0.27486c0.00512,-0.00363 0.01032,-0.00715 0.01559,-0.01057c0.00527,0.00342 0.01047,0.00695 0.01559,0.01057c0.02849,0.11128 0.09431,0.20761 0.18334,0.27486c0.00105,0.00471 0.00203,0.00946 0.00294,0.01422c-0.06094,0.02981 -0.12945,0.04655 -0.20187,0.04655c-0.07242,0 -0.14093,-0.01673 -0.20187,-0.04655zM1.95782,0.7049c0.00144,0.01484 0.00218,0.02988 0.00218,0.0451c0,0.01522 -0.00074,0.03026 -0.00218,0.0451c-0.06329,-0.02896 -0.13367,-0.0451 -0.20782,-0.0451c-0.07415,0 -0.14453,0.01614 -0.20782,0.0451c-0.00144,-0.01484 -0.00218,-0.02988 -0.00218,-0.0451c0,-0.01522 0.00074,-0.03026 0.00218,-0.0451c0.06329,0.02896 0.13367,0.0451 0.20782,0.0451c0.07415,0 0.14453,-0.01614 0.20782,-0.0451zM1.54813,0.83655c0.06094,-0.02981 0.12945,-0.04655 0.20187,-0.04655c0.07242,0 0.14093,0.01673 0.20187,0.04655c-0.00091,0.00477 -0.00189,0.00951 -0.00294,0.01422c-0.08902,0.06724 -0.15485,0.16357 -0.18334,0.27486c-0.00512,0.00363 -0.01032,0.00715 -0.01559,0.01057c-0.00527,-0.00342 -0.01047,-0.00695 -0.01559,-0.01057c-0.02849,-0.11128 -0.09431,-0.20761 -0.18334,-0.27486c-0.00105,-0.00471 -0.00203,-0.00946 -0.00294,-0.01422zM1.50413,0.68547c-0.00272,0.02113 -0.00413,0.04266 -0.00413,0.06453c0,0.02187 0.0014,0.04341 0.00413,0.06453c-0.00138,0.00078 -0.00275,0.00157 -0.00413,0.00236c-0.00137,-0.00079 -0.00275,-0.00158 -0.00413,-0.00236c0.00272,-0.02113 0.00413,-0.04266 0.00413,-0.06453c0,-0.02187 -0.0014,-0.04341 -0.00413,-0.06453c0.00138,-0.00078 0.00275,-0.00157 0.00413,-0.00236c0.00137,0.00079 0.00275,0.00158 0.00413,0.00236zM1.29813,1.16345c0.00091,-0.00477 0.00189,-0.00951 0.00294,-0.01422c0.08902,-0.06724 0.15485,-0.16357 0.18334,-0.27486c0.00512,-0.00363 0.01032,-0.00715 0.01559,-0.01057c0.00527,0.00342 0.01047,0.00695 0.01559,0.01057c0.02849,0.11128 0.09431,0.20761 0.18334,0.27486c0.00105,0.00471 0.00203,0.00946 0.00294,0.01422c-0.06094,0.02981 -0.12945,0.04655 -0.20187,0.04655c-0.07242,0 -0.14093,-0.01673 -0.20187,-0.04655zM1.45782,0.7049c0.00144,0.01484 0.00218,0.02988 0.00218,0.0451c0,0.01522 -0.00074,0.03026 -0.00218,0.0451c-0.06329,-0.02896 -0.13367,-0.0451 -0.20782,-0.0451c-0.07415,0 -0.14453,0.01614 -0.20782,0.0451c-0.00144,-0.01484 -0.00218,-0.02988 -0.00218,-0.0451c0,-0.01522 0.00074,-0.03026 0.00218,-0.0451c0.06329,0.02896 0.13367,0.0451 0.20782,0.0451c0.07415,0 0.14453,-0.01614 0.20782,-0.0451zM1.04813,0.83655c0.06094,-0.02981 0.12945,-0.04655 0.20187,-0.04655c0.07242,0 0.14093,0.01673 0.20187,0.04655c-0.00091,0.00477 -0.00189,0.00951 -0.00294,0.01422c-0.08902,0.06724 -0.15485,0.16357 -0.18334,0.27486c-0.00512,0.00363 -0.01032,0.00715 -0.01559,0.01057c-0.00527,-0.00342 -0.01047,-0.00695 -0.01559,-0.01057c-0.02849,-0.11128 -0.09431,-0.20761 -0.18334,-0.27486c-0.00105,-0.00471 -0.00203,-0.00946 -0.00294,-0.01422zM1.00413,0.68547c-0.00272,0.02113 -0.00413,0.04266 -0.00413,0.06453c0,0.02187 0.0014,0.04341 0.00413,0.06453c-0.00138,0.00078 -0.00275,0.00157 -0.00413,0.00236c-0.00137,-0.00079 -0.00275,-0.00158 -0.00413,-0.00236c0.00272,-0.02113 0.00413,-0.04266 0.00413,-0.06453c0,-0.02187 -0.0014,-0.04341 -0.00413,-0.06453c0.00138,-0.00078 0.00275,-0.00157 0.00413,-0.00236c0.00137,0.00079 0.00275,0.00158 0.00413,0.00236zM0.79813,1.16345c0.00091,-0.00477 0.00189,-0.00951 0.00294,-0.01422c0.08902,-0.06724 0.15485,-0.16357 0.18334,-0.27486c0.00512,-0.00363 0.01032,-0.00715 0.01559,-0.01057c0.00527,0.00342 0.01047,0.00695 0.01559,0.01057c0.02849,0.11128 0.09431,0.20761 0.18334,0.27486c0.00105,0.00471 0.00203,0.00946 0.00294,0.01422c-0.06094,0.02981 -0.12945,0.04655 -0.20187,0.04655c-0.07242,0 -0.14093,-0.01673 -0.20187,-0.04655zM0.95782,0.7049c0.00144,0.01484 0.00218,0.02988 0.00218,0.0451c0,0.01522 -0.00074,0.03026 -0.00218,0.0451c-0.06329,-0.02896 -0.13367,-0.0451 -0.20782,-0.0451c0,0 0,0 0,0c0.07415,0 0.14453,-0.01614 0.20782,-0.0451zM0.75,0.75c-0.07415,0 -0.14453,0.01614 -0.20782,0.0451c-0.00144,-0.01484 -0.00218,-0.02988 -0.00218,-0.0451c0,-0.01522 0.00074,-0.03026 0.00218,-0.0451c0.06329,0.02896 0.13367,0.0451 0.20782,0.0451c0,0 0,0 0,0c0,0 0,0 0,0zM0.54813,0.83655c0.06094,-0.02981 0.12945,-0.04655 0.20187,-0.04655c0.07242,0 0.14093,0.01673 0.20187,0.04655c-0.00091,0.00477 -0.00189,0.00951 -0.00294,0.01422c-0.08902,0.06724 -0.15485,0.16357 -0.18334,0.27486c-0.00512,0.00363 -0.01032,0.00715 -0.01559,0.01057c-0.00527,-0.00342 -0.01047,-0.00695 -0.01559,-0.01057c-0.02849,-0.11128 -0.09431,-0.20761 -0.18334,-0.27486c-0.00105,-0.00471 -0.00203,-0.00946 -0.00294,-0.01422zM0.50413,0.68547c-0.00272,0.02113 -0.00413,0.04266 -0.00413,0.06453c0,0.02187 0.0014,0.04341 0.00413,0.06453c-0.00138,0.00078 -0.00275,0.00157 -0.00413,0.00236c-0.07354,-0.04254 -0.15893,-0.06689 -0.25,-0.06689c0.09107,0 0.17646,-0.02435 0.25,-0.06689c0.00137,0.00079 0.00275,0.00158 0.00413,0.00236zM0.29813,1.16345c0.02386,-0.12534 0.09858,-0.23265 0.20187,-0.29965c0.00527,0.00342 0.01047,0.00695 0.01559,0.01057c0.02849,0.11128 0.09431,0.20761 0.18334,0.27486c0.00105,0.00471 0.00203,0.00946 0.00294,0.01422c-0.06094,0.02981 -0.12945,0.04655 -0.20187,0.04655c-0.07242,0 -0.14093,-0.01673 -0.20187,-0.04655zM0.46165,0.84147c-0.10028,0.07091 -0.17329,0.1778 -0.20025,0.30188c-0.00384,-0.00233 -0.00764,-0.00472 -0.0114,-0.00716v-0.3462c0.07632,0 0.14829,0.01858 0.21165,0.05147zM2.74587,0.31453c0.00272,-0.02113 0.00413,-0.04266 0.00413,-0.06453l0,0.06689c-0.00137,-0.00079 -0.00275,-0.00158 -0.00413,-0.00236zM2.54813,0.66345c0.00091,-0.00477 0.00189,-0.00951 0.00294,-0.01422c0.08902,-0.06724 0.15485,-0.16357 0.18334,-0.27486c0.00512,-0.00363 0.01032,-0.00715 0.01559,-0.01057v0.3462c-0.07242,0 -0.14093,-0.01673 -0.20187,-0.04655zM2.25413,0.31453c-0.00138,0.00078 -0.00275,0.00157 -0.00413,0.00236c-0.00137,-0.00079 -0.00275,-0.00158 -0.00413,-0.00236c0.00272,-0.02113 0.00413,-0.04266 0.00413,-0.06453c0,0.02187 0.0014,0.04341 0.00413,0.06453zM2.04813,0.66345c0.00091,-0.00477 0.00189,-0.00951 0.00294,-0.01422c0.08902,-0.06724 0.15485,-0.16357 0.18334,-0.27486c0.00512,-0.00363 0.01032,-0.00715 0.01559,-0.01057c0.00527,0.00342 0.01047,0.00695 0.01559,0.01057c0.02849,0.11128 0.09431,0.20761 0.18334,0.27486c0.00105,0.00471 0.00203,0.00946 0.00294,0.01422c-0.06094,0.02981 -0.12945,0.04655 -0.20187,0.04655c-0.07242,0 -0.14093,-0.01673 -0.20187,-0.04655zM2.70782,0.2951c-0.06329,-0.02896 -0.13367,-0.0451 -0.20782,-0.0451l0.21,0c0,0.01522 -0.00074,0.03026 -0.00218,0.0451zM2.29218,0.2951c-0.00144,-0.01484 -0.00218,-0.02988 -0.00218,-0.0451l0.21,0c-0.07415,0 -0.14453,0.01614 -0.20782,0.0451zM2.29813,0.33655c0.06094,-0.02981 0.12945,-0.04655 0.20187,-0.04655c0.07242,0 0.14093,0.01673 0.20187,0.04655c-0.00091,0.00477 -0.00189,0.00951 -0.00294,0.01422c-0.08902,0.06724 -0.15485,0.16357 -0.18334,0.27486c-0.00512,0.00363 -0.01032,0.00715 -0.01559,0.01057c-0.00527,-0.00342 -0.01047,-0.00695 -0.01559,-0.01057c-0.02849,-0.11128 -0.09431,-0.20761 -0.18334,-0.27486c-0.00105,-0.00471 -0.00203,-0.00946 -0.00294,-0.01422zM1.75413,0.31453c-0.00138,0.00078 -0.00275,0.00157 -0.00413,0.00236c-0.00137,-0.00079 -0.00275,-0.00158 -0.00413,-0.00236c0.00272,-0.02113 0.00413,-0.04266 0.00413,-0.06453c0,0.02187 0.0014,0.04341 0.00413,0.06453zM1.54813,0.66345c0.00091,-0.00477 0.00189,-0.00951 0.00294,-0.01422c0.08902,-0.06724 0.15485,-0.16357 0.18334,-0.27486c0.00512,-0.00363 0.01032,-0.00715 0.01559,-0.01057c0.00527,0.00342 0.01047,0.00695 0.01559,0.01057c0.02849,0.11128 0.09431,0.20761 0.18334,0.27486c0.00105,0.00471 0.00203,0.00946 0.00294,0.01422c-0.06094,0.02981 -0.12945,0.04655 -0.20187,0.04655c-0.07242,0 -0.14093,-0.01673 -0.20187,-0.04655zM2.20782,0.2951c-0.06329,-0.02896 -0.13367,-0.0451 -0.20782,-0.0451l0.21,0c0,0.01522 -0.00074,0.03026 -0.00218,0.0451zM1.79218,0.2951c-0.00144,-0.01484 -0.00218,-0.02988 -0.00218,-0.0451l0.21,0c-0.07415,0 -0.14453,0.01614 -0.20782,0.0451zM1.79813,0.33655c0.06094,-0.02981 0.12945,-0.04655 0.20187,-0.04655c0.07242,0 0.14093,0.01673 0.20187,0.04655c-0.00091,0.00477 -0.00189,0.00951 -0.00294,0.01422c-0.08902,0.06724 -0.15485,0.16357 -0.18334,0.27486c-0.00512,0.00363 -0.01032,0.00715 -0.01559,0.01057c-0.00527,-0.00342 -0.01047,-0.00695 -0.01559,-0.01057c-0.02849,-0.11128 -0.09431,-0.20761 -0.18334,-0.27486c-0.00105,-0.00471 -0.00203,-0.00946 -0.00294,-0.01422zM1.25413,0.31453c-0.00138,0.00078 -0.00275,0.00157 -0.00413,0.00236c-0.00137,-0.00079 -0.00275,-0.00158 -0.00413,-0.00236c0.00272,-0.02113 0.00413,-0.04266 0.00413,-0.06453c0,0.02187 0.0014,0.04341 0.00413,0.06453zM1.04813,0.66345c0.00091,-0.00477 0.00189,-0.00951 0.00294,-0.01422c0.08902,-0.06724 0.15485,-0.16357 0.18334,-0.27486c0.00512,-0.00363 0.01032,-0.00715 0.01559,-0.01057c0.00527,0.00342 0.01047,0.00695 0.01559,0.01057c0.02849,0.11128 0.09431,0.20761 0.18334,0.27486c0.00105,0.00471 0.00203,0.00946 0.00294,0.01422c-0.06094,0.02981 -0.12945,0.04655 -0.20187,0.04655c-0.07242,0 -0.14093,-0.01673 -0.20187,-0.04655zM1.70782,0.2951c-0.06329,-0.02896 -0.13367,-0.0451 -0.20782,-0.0451l0.21,0c0,0.01522 -0.00074,0.03026 -0.00218,0.0451zM1.29218,0.2951c-0.00144,-0.01484 -0.00218,-0.02988 -0.00218,-0.0451l0.21,0c-0.07415,0 -0.14453,0.01614 -0.20782,0.0451zM1.29813,0.33655c0.06094,-0.02981 0.12945,-0.04655 0.20187,-0.04655c0.07242,0 0.14093,0.01673 0.20187,0.04655c-0.00091,0.00477 -0.00189,0.00951 -0.00294,0.01422c-0.08902,0.06724 -0.15485,0.16357 -0.18334,0.27486c-0.00512,0.00363 -0.01032,0.00715 -0.01559,0.01057c-0.00527,-0.00342 -0.01047,-0.00695 -0.01559,-0.01057c-0.02849,-0.11128 -0.09431,-0.20761 -0.18334,-0.27486c-0.00105,-0.00471 -0.00203,-0.00946 -0.00294,-0.01422zM0.75413,0.31453c-0.00138,0.00078 -0.00275,0.00157 -0.00413,0.00236c-0.00137,-0.00079 -0.00275,-0.00158 -0.00413,-0.00236c0.00272,-0.02113 0.00413,-0.04266 0.00413,-0.06453c0,0.02187 0.0014,0.04341 0.00413,0.06453zM0.54813,0.66345c0.00091,-0.00477 0.00189,-0.00951 0.00294,-0.01422c0.08902,-0.06724 0.15485,-0.16357 0.18334,-0.27486c0.00512,-0.00363 0.01032,-0.00715 0.01559,-0.01057c0.00527,0.00342 0.01047,0.00695 0.01559,0.01057c0.02849,0.11128 0.09431,0.20761 0.18334,0.27486c0.00105,0.00471 0.00203,0.00946 0.00294,0.01422c-0.06094,0.02981 -0.12945,0.04655 -0.20187,0.04655c-0.07242,0 -0.14093,-0.01673 -0.20187,-0.04655zM1.20782,0.2951c-0.06329,-0.02896 -0.13367,-0.0451 -0.20782,-0.0451c-0.07415,0 -0.14453,0.01614 -0.20782,0.0451c-0.00144,-0.01484 -0.00218,-0.02988 -0.00218,-0.0451l0.42,0c0,0.01522 -0.00074,0.03026 -0.00218,0.0451zM0.79813,0.33655c0.06094,-0.02981 0.12945,-0.04655 0.20187,-0.04655c0.07242,0 0.14093,0.01673 0.20187,0.04655c-0.00091,0.00477 -0.00189,0.00951 -0.00294,0.01422c-0.08902,0.06724 -0.15485,0.16357 -0.18334,0.27486c-0.00512,0.00363 -0.01032,0.00715 -0.01559,0.01057c-0.00527,-0.00342 -0.01047,-0.00695 -0.01559,-0.01057c-0.02849,-0.11128 -0.09431,-0.20761 -0.18334,-0.27486c-0.00105,-0.00471 -0.00203,-0.00946 -0.00294,-0.01422zM0.2614,0.35664c0.02696,0.12408 0.09997,0.23098 0.20025,0.30188c-0.06336,0.03289 -0.13533,0.05147 -0.21165,0.05147l0,-0.3462c0.00376,-0.00244 0.00756,-0.00483 0.0114,-0.00716zM0.25413,0.31453c-0.00138,0.00078 -0.00275,0.00157 -0.00413,0.00236v-0.06689c0,0.02187 0.0014,0.04341 0.00413,0.06453zM0.70782,0.2951c-0.06329,-0.02896 -0.13367,-0.0451 -0.20782,-0.0451c-0.07415,0 -0.14453,0.01614 -0.20782,0.0451c-0.00144,-0.01484 -0.00218,-0.02988 -0.00218,-0.0451l0.42,0c0,0.01522 -0.00074,0.03026 -0.00218,0.0451zM0.29813,0.33655c0.06094,-0.02981 0.12945,-0.04655 0.20187,-0.04655c0.07242,0 0.14093,0.01673 0.20187,0.04655c-0.00091,0.00477 -0.00189,0.00951 -0.00294,0.01422c-0.08902,0.06724 -0.15485,0.16357 -0.18334,0.27486c-0.00512,0.00363 -0.01032,0.00715 -0.01559,0.01057c-0.10329,-0.067 -0.17801,-0.17431 -0.20187,-0.29965zM0.92629,0.57682c-0.04382,-0.04341 -0.07896,-0.09556 -0.10257,-0.15363c0.04382,0.04341 0.07896,0.09556 0.10257,0.15363zM1.42629,0.57682c-0.04382,-0.04341 -0.07896,-0.09556 -0.10257,-0.15363c0.04382,0.04341 0.07896,0.09556 0.10257,0.15363zM0.67629,0.42318c-0.02362,0.05807 -0.05875,0.11023 -0.10257,0.15363c0.02362,-0.05807 0.05875,-0.11023 0.10257,-0.15363zM1.92629,0.57682c-0.04382,-0.04341 -0.07896,-0.09556 -0.10257,-0.15363c0.04382,0.04341 0.07896,0.09556 0.10257,0.15363zM1.17629,0.42318c-0.02362,0.05807 -0.05875,0.11023 -0.10257,0.15363c0.02362,-0.05807 0.05875,-0.11023 0.10257,-0.15363zM2.42629,0.57682c-0.04382,-0.04341 -0.07896,-0.09556 -0.10257,-0.15363c0.04382,0.04341 0.07896,0.09556 0.10257,0.15363zM1.67629,0.42318c-0.02362,0.05807 -0.05875,0.11023 -0.10257,0.15363c0.02362,-0.05807 0.05875,-0.11023 0.10257,-0.15363zM2.17629,0.42318c-0.02362,0.05807 -0.05875,0.11023 -0.10257,0.15363c0.02362,-0.05807 0.05875,-0.11023 0.10257,-0.15363zM2.67629,0.42318c-0.02362,0.05807 -0.05875,0.11023 -0.10257,0.15363c0.02362,-0.05807 0.05875,-0.11023 0.10257,-0.15363zM0.67629,1.07682c-0.04382,-0.04341 -0.07896,-0.09556 -0.10257,-0.15363c0.04382,0.04341 0.07896,0.09556 0.10257,0.15363zM1.17629,1.07682c-0.04382,-0.04341 -0.07896,-0.09556 -0.10257,-0.15363c0.04382,0.04341 0.07896,0.09556 0.10257,0.15363zM1.67629,1.07682c-0.04382,-0.04341 -0.07896,-0.09556 -0.10257,-0.15363c0.04382,0.04341 0.07896,0.09556 0.10257,0.15363zM0.92629,0.92318c-0.02362,0.05807 -0.05875,0.11023 -0.10257,0.15363c0.02362,-0.05807 0.05875,-0.11023 0.10257,-0.15363zM2.17629,1.07682c-0.04382,-0.04341 -0.07896,-0.09556 -0.10257,-0.15363c0.04382,0.04341 0.07896,0.09556 0.10257,0.15363zM1.42629,0.92318c-0.02362,0.05807 -0.05875,0.11023 -0.10257,0.15363c0.02362,-0.05807 0.05875,-0.11023 0.10257,-0.15363zM2.67629,1.07682c-0.04382,-0.04341 -0.07896,-0.09556 -0.10257,-0.15363c0.04382,0.04341 0.07896,0.09556 0.10257,0.15363zM1.92629,0.92318c-0.02362,0.05807 -0.05875,0.11023 -0.10257,0.15363c0.02362,-0.05807 0.05875,-0.11023 0.10257,-0.15363zM2.42629,0.92318c-0.02362,0.05807 -0.05875,0.11023 -0.10257,0.15363c0.02362,-0.05807 0.05875,-0.11023 0.10257,-0.15363zM0.92629,1.57682c-0.04382,-0.04341 -0.07896,-0.09556 -0.10257,-0.15363c0.04382,0.04341 0.07896,0.09556 0.10257,0.15363zM1.42629,1.57682c-0.04382,-0.04341 -0.07896,-0.09556 -0.10257,-0.15363c0.04382,0.04341 0.07896,0.09556 0.10257,0.15363zM0.67629,1.42318c-0.02362,0.05807 -0.05875,0.11023 -0.10257,0.15363c0.02362,-0.05807 0.05875,-0.11023 0.10257,-0.15363zM1.92629,1.57682c-0.04382,-0.04341 -0.07896,-0.09556 -0.10257,-0.15363c0.04382,0.04341 0.07896,0.09556 0.10257,0.15363zM1.17629,1.42318c-0.02362,0.05807 -0.05875,0.11023 -0.10257,0.15363c0.02362,-0.05807 0.05875,-0.11023 0.10257,-0.15363zM2.42629,1.57682c-0.04382,-0.04341 -0.07896,-0.09556 -0.10257,-0.15363c0.04382,0.04341 0.07896,0.09556 0.10257,0.15363zM1.67629,1.42318c-0.02362,0.05807 -0.05875,0.11023 -0.10257,0.15363c0.02362,-0.05807 0.05875,-0.11023 0.10257,-0.15363zM2.17629,1.42318c-0.02362,0.05807 -0.05875,0.11023 -0.10257,0.15363c0.02362,-0.05807 0.05875,-0.11023 0.10257,-0.15363zM2.67629,1.42318c-0.02362,0.05807 -0.05875,0.11023 -0.10257,0.15363c0.02362,-0.05807 0.05875,-0.11023 0.10257,-0.15363zM0.67629,2.07682c-0.04382,-0.04341 -0.07896,-0.09556 -0.10257,-0.15363c0.04382,0.04341 0.07896,0.09556 0.10257,0.15363zM1.17629,2.07682c-0.04382,-0.04341 -0.07896,-0.09556 -0.10257,-0.15363c0.04382,0.04341 0.07896,0.09556 0.10257,0.15363zM1.67629,2.07682c-0.04382,-0.04341 -0.07896,-0.09556 -0.10257,-0.15363c0.04382,0.04341 0.07896,0.09556 0.10257,0.15363zM0.92629,1.92318c-0.02362,0.05807 -0.05875,0.11023 -0.10257,0.15363c0.02362,-0.05807 0.05875,-0.11023 0.10257,-0.15363zM2.17629,2.07682c-0.04382,-0.04341 -0.07896,-0.09556 -0.10257,-0.15363c0.04382,0.04341 0.07896,0.09556 0.10257,0.15363zM1.42629,1.92318c-0.02362,0.05807 -0.05875,0.11023 -0.10257,0.15363c0.02362,-0.05807 0.05875,-0.11023 0.10257,-0.15363zM2.67629,2.07682c-0.04382,-0.04341 -0.07896,-0.09556 -0.10257,-0.15363c0.04382,0.04341 0.07896,0.09556 0.10257,0.15363zM1.92629,1.92318c-0.02362,0.05807 -0.05875,0.11023 -0.10257,0.15363c0.02362,-0.05807 0.05875,-0.11023 0.10257,-0.15363zM2.42629,1.92318c-0.02362,0.05807 -0.05875,0.11023 -0.10257,0.15363c0.02362,-0.05807 0.05875,-0.11023 0.10257,-0.15363zM0.92629,2.57682c-0.04382,-0.04341 -0.07896,-0.09556 -0.10257,-0.15363c0.04382,0.04341 0.07896,0.09556 0.10257,0.15363zM1.42629,2.57682c-0.04382,-0.04341 -0.07896,-0.09556 -0.10257,-0.15363c0.04382,0.04341 0.07896,0.09556 0.10257,0.15363zM0.67629,2.42318c-0.02362,0.05807 -0.05875,0.11023 -0.10257,0.15363c0.02362,-0.05807 0.05875,-0.11023 0.10257,-0.15363zM1.92629,2.57682c-0.04382,-0.04341 -0.07896,-0.09556 -0.10257,-0.15363c0.04382,0.04341 0.07896,0.09556 0.10257,0.15363zM1.17629,2.42318c-0.02362,0.05807 -0.05875,0.11023 -0.10257,0.15363c0.02362,-0.05807 0.05875,-0.11023 0.10257,-0.15363zM2.42629,2.57682c-0.04382,-0.04341 -0.07896,-0.09556 -0.10257,-0.15363c0.04382,0.04341 0.07896,0.09556 0.10257,0.15363zM1.67629,2.42318c-0.02362,0.05807 -0.05875,0.11023 -0.10257,0.15363c0.02362,-0.05807 0.05875,-0.11023 0.10257,-0.15363zM2.17629,2.42318c-0.02362,0.05807 -0.05875,0.11023 -0.10257,0.15363c0.02362,-0.05807 0.05875,-0.11023 0.10257,-0.15363zM2.67629,2.42318c-0.02362,0.05807 -0.05875,0.11023 -0.10257,0.15363c0.02362,-0.05807 0.05875,-0.11023 0.10257,-0.15363z" fill="#000000" fill-rule="evenodd" stroke="#000000" stroke-width="0.005"></path></g></svg>