<!--

Built on 2024-03-26T17:17:44.284Z



## Param string


-->

<svg version="1.1" xmlns="http://www.w3.org/2000/svg" xmlns:xlink="http://www.w3.org/1999/xlink" width="3in" height="5.000000000000002in" viewBox="0 -1.7500000000000009 3.05 5.050000000000002"><defs><clipPath id="clip-1"><rect x="58.24" y="-145.6" transform="scale(0.00601,0.01202)" width="416" height="416" fill="none" fill-rule="nonzero"></rect></clipPath></defs><g fill="none" fill-rule="none" stroke="none" stroke-width="none" stroke-linecap="butt" stroke-linejoin="miter" stroke-miterlimit="10" stroke-dasharray="" stroke-dashoffset="0" font-family="none" font-weight="none" font-size="none" text-anchor="none" style="mix-blend-mode: normal"><g clip-path="url(#clip-1)" stroke="none" stroke-width="1"><path d="M1.51119,-0.80048c-0.00257,0 -0.02489,0.01952 -0.04958,0.04337c-0.0247,0.02385 -0.13144,0.1246 -0.23721,0.22389c-0.16088,0.15103 -0.19651,0.18026 -0.21802,0.17888c-0.01813,-0.00117 -0.02675,0.00379 -0.02925,0.01679c-0.00244,0.01273 -0.00576,0.01476 -0.01069,0.00657c-0.00511,-0.00849 -0.02312,0.0202 -0.06315,0.10058c-0.03198,0.06423 -0.05423,0.11816 -0.05189,0.12576c0.00226,0.00731 0.00031,0.01329 -0.00433,0.01329c-0.00546,0 -0.04686,0.18569 -0.11723,0.52584c-0.05984,0.28922 -0.11058,0.5353 -0.11275,0.54688c-0.00275,0.01459 -0.001,0.02103 0.0057,0.02103c0.00531,0 0.00966,0.00508 0.00966,0.01131c0,0.00623 -0.00281,0.01478 -0.00626,0.01904c-0.00344,0.00425 -0.00472,0.01738 -0.00285,0.02917c0.00187,0.01179 0.00056,0.03635 -0.0029,0.05456c-0.00511,0.02691 -0.00441,0.03589 0.00376,0.04784c0.00733,0.01072 0.00811,0.01712 0.0029,0.02357c-0.00394,0.00487 -0.00564,0.0185 -0.00376,0.03029c0.00187,0.01179 0.00047,0.03686 -0.00312,0.05572c-0.00519,0.0273 -0.00472,0.03691 0.00229,0.04716c0.00576,0.00841 0.00703,0.01922 0.00368,0.03118c-0.0039,0.01394 0.0206,0.06969 0.10273,0.23375l0.10785,0.21544v0.30963c0,0.30257 0.00028,0.30962 0.01213,0.30962c0.00977,0 0.01144,0.00556 0.00856,0.02851c-0.00293,0.02334 -0.0008,0.02992 0.01173,0.0362c0.00842,0.00423 0.01819,0.01844 0.0217,0.03159c0.00352,0.01314 0.01054,0.02389 0.01561,0.02389c0.00633,0 0.00806,0.00718 0.00556,0.02296c-0.0029,0.01828 0.00068,0.02581 0.01762,0.03698c0.0117,0.00773 0.02127,0.02173 0.02127,0.03114c0,0.0094 0.00495,0.01709 0.01099,0.01709c0.00723,0 0.01084,0.00843 0.01052,0.0246c-0.00041,0.0213 0.03571,0.0546 0.26906,0.24815c0.21275,0.17647 0.27061,0.2201 0.27462,0.20712c0.00413,-0.01338 0.0058,-0.01272 0.00892,0.00356c0.00311,0.01621 0.00684,0.01773 0.01962,0.008c0.00868,-0.0066 0.02223,-0.00876 0.03011,-0.0048c0.00788,0.00395 0.01813,0.00089 0.02277,-0.00681c0.00464,-0.0077 0.00844,-0.00885 0.00844,-0.00252c0,0.00632 0.01623,0.01149 0.03606,0.01149c0.01983,0 0.03606,-0.00456 0.03606,-0.01012c0,-0.00556 0.00473,-0.00458 0.01052,0.0022c0.00829,0.00971 0.06705,-0.03468 0.27794,-0.21001c0.19659,-0.16343 0.2672,-0.22727 0.26656,-0.24099c-0.00059,-0.01272 0.00254,-0.0165 0.00982,-0.01188c0.00785,0.00498 0.01172,-0.00139 0.01456,-0.02404c0.00213,-0.01696 0.01055,-0.03692 0.01873,-0.04438c0.00817,-0.00744 0.01486,-0.02078 0.01486,-0.02964c0,-0.00885 0.00431,-0.01609 0.00958,-0.01609c0.00526,0 0.01102,-0.01103 0.01278,-0.02452c0.00176,-0.01349 0.01119,-0.03278 0.02096,-0.04288c0.01191,-0.01231 0.01658,-0.02447 0.01419,-0.03691c-0.00252,-0.01315 -0.00087,-0.01648 0.0057,-0.01144c0.00598,0.00459 0.01128,-0.00239 0.01494,-0.0197c0.00312,-0.01474 0.052,-0.25126 0.10861,-0.5256c0.05662,-0.27434 0.10538,-0.50797 0.10837,-0.51919c0.00387,-0.01453 0.00264,-0.02351 -0.00428,-0.03126c-0.00876,-0.00981 -0.00879,-0.01157 -0.00026,-0.01813c0.00772,-0.00593 0.00831,-0.01382 0.00323,-0.043c-0.00449,-0.02576 -0.00425,-0.04314 0.00084,-0.06216c0.0056,-0.02094 0.00538,-0.02861 -0.00106,-0.03691c-0.00663,-0.00856 -0.00669,-0.01236 -0.00031,-0.0206c0.00612,-0.00791 0.00632,-0.01671 0.00088,-0.04054c-0.00531,-0.02333 -0.0052,-0.0369 0.00046,-0.05805c0.00619,-0.02314 0.00578,-0.02998 -0.00257,-0.04218c-0.00901,-0.01319 -0.00905,-0.01524 -0.00038,-0.0219c0.00559,-0.00429 0.00772,-0.01335 0.00511,-0.02179c-0.00246,-0.00794 -0.05388,-0.25273 -0.11428,-0.54395c-0.08245,-0.39752 -0.11211,-0.52864 -0.11901,-0.52602c-0.00597,0.00226 -0.008,-0.00274 -0.00581,-0.01421c0.00219,-0.01141 -0.00292,-0.02423 -0.01436,-0.03606c-0.00977,-0.01011 -0.01928,-0.0301 -0.02116,-0.04445c-0.00229,-0.0175 -0.00649,-0.02371 -0.01278,-0.01888c-0.00647,0.00496 -0.00937,0.0001 -0.00937,-0.01566c0,-0.01257 -0.00544,-0.0263 -0.01209,-0.03052c-0.00665,-0.00423 -0.01614,-0.02333 -0.02108,-0.04246c-0.00547,-0.02119 -0.01227,-0.03228 -0.01736,-0.02838c-0.00517,0.00397 -0.00802,-0.00095 -0.00746,-0.01288c0.00062,-0.01341 -0.01287,-0.03044 -0.04417,-0.05575c-0.02479,-0.02002 -0.14629,-0.12053 -0.26999,-0.22333c-0.20341,-0.16905 -0.22561,-0.185 -0.23227,-0.16681c-0.00508,0.01389 -0.0081,0.01559 -0.00978,0.00549c-0.00144,-0.00865 -0.01579,-0.0156 -0.03516,-0.01704c-0.01872,-0.00139 -0.03466,0.00331 -0.03724,0.01097c-0.00295,0.00877 -0.00606,0.00925 -0.00901,0.00138c-0.00248,-0.00661 -0.01803,-0.01202 -0.03456,-0.01202c-0.01653,0 -0.03343,0.00438 -0.03756,0.00972c-0.00434,0.00562 -0.00751,0.00435 -0.00751,-0.003c0,-0.007 -0.0021,-0.01273 -0.00468,-0.01273M1.2934,-0.37876c-0.00159,0.00058 -0.01776,0.01361 -0.03594,0.02895c-0.03222,0.02721 -0.03262,0.02814 -0.01594,0.03661c0.01426,0.00725 0.02025,0.00243 0.03594,-0.02895c0.01035,-0.02071 0.01752,-0.03719 0.01594,-0.03661M1.90696,-0.37981c-0.00175,0 0.01832,0.04327 0.0446,0.09615c0.02629,0.05288 0.05237,0.09615 0.05796,0.09615c0.00558,0 0.02293,-0.01095 0.03855,-0.02434c0.01561,-0.01339 0.02722,-0.02667 0.0258,-0.02953c-0.00143,-0.00285 -0.03885,-0.03517 -0.08316,-0.07181c-0.04431,-0.03663 -0.082,-0.06662 -0.08376,-0.06662M1.17031,-0.22305l-0.02404,0.00012l0.02404,0.02206c0.01692,0.01552 0.02635,0.01841 0.03183,0.00976c0.00639,-0.01007 0.00639,-0.01407 0,-0.02218c-0.00428,-0.00544 -0.01861,-0.00983 -0.03183,-0.00976M2.36923,0.52163c-0.0032,-0.00992 -0.00582,-0.01262 -0.00582,-0.00601c0,0.00661 0.00262,0.02013 0.00582,0.03005c0.0032,0.00992 0.00582,0.01262 0.00582,0.00601c0,-0.00661 -0.00262,-0.02013 -0.00582,-0.03005M0.83562,0.52733c-0.00185,-0.0037 -0.00521,0.00297 -0.00747,0.01482c-0.00326,0.01713 -0.00257,0.01851 0.00337,0.00673c0.00411,-0.00816 0.00596,-0.01786 0.0041,-0.02155M2.3724,1.79567c-0.00136,0 -0.00425,0.00577 -0.00642,0.01282c-0.00218,0.00704 -0.00267,0.0154 -0.0011,0.01855c0.00157,0.00315 0.00447,-0.00262 0.00642,-0.01282c0.00196,-0.0102 0.00245,-0.01855 0.0011,-0.01855M1.27813,2.69712c-0.00477,0 -0.00866,0.00208 -0.00866,0.0046c0,0.00254 0.00541,0.00744 0.01203,0.0109c0.00662,0.00346 0.01052,0.00138 0.00866,-0.0046c-0.00185,-0.006 -0.00726,-0.0109 -0.01203,-0.0109M1.92487,2.69712c-0.00311,0 -0.00731,0.00535 -0.00933,0.01189c-0.0021,0.0068 0.00031,0.00882 0.00566,0.00472c0.00513,-0.00394 0.00933,-0.00929 0.00933,-0.01189c0,-0.0026 -0.00254,-0.00472 -0.00566,-0.00472" fill="#000000" fill-rule="evenodd"></path></g><path d="M0,1.5v-1.5h3v1.5zM2.37505,0.55168c0,0.00661 -0.00262,0.00391 -0.00582,-0.00601c-0.0032,-0.00992 -0.00582,-0.02344 -0.00582,-0.03005c0,-0.00661 0.00262,-0.00391 0.00582,0.00601zM0.83151,0.54888c-0.00594,0.01178 -0.00662,0.0104 -0.00337,-0.00673c0.00226,-0.01185 0.00562,-0.01852 0.00747,-0.01482z" fill="#d3d3d3" fill-rule="evenodd" stroke="#ff0000" stroke-width="0.005"></path></g></svg>