<svg version="1.1" xmlns="http://www.w3.org/2000/svg" xmlns:xlink="http://www.w3.org/1999/xlink" width="3in" height="1.5in" viewBox="0 0 3.05 1.55"><g fill="none" fill-rule="none" stroke="none" stroke-width="none" stroke-linecap="butt" stroke-linejoin="miter" stroke-miterlimit="10" stroke-dasharray="" stroke-dashoffset="0" font-family="none" font-weight="none" font-size="none" text-anchor="none" style="mix-blend-mode: normal"><path d="M0.25,1.25l0,-1l2.5,0v1z" fill="none" fill-rule="nonzero" stroke="none" stroke-width="1"></path><path d="M0,1.5v-1.5h3v1.5zM1.7316,1.095c0,-0.41421 0.33579,-0.75 0.75,-0.75c0.09458,0 0.18507,0.01751 0.2684,0.04946v0.85554h-1.00237c-0.01051,-0.05001 -0.01603,-0.10186 -0.01603,-0.155zM0.25,0.25l0.54669,0c-0.00579,0.33803 -0.23522,0.62158 -0.54669,0.70904zM0.25,1.25v-0.02388c0.04235,0.0045 0.08363,0.01256 0.12355,0.02388zM1.62237,0.44223c-0.1478,0 -0.27772,-0.07658 -0.35223,-0.19223l0.70445,0c-0.07451,0.11565 -0.20443,0.19223 -0.35223,0.19223zM1.17582,1.22699c0,-0.1278 0.10361,-0.23141 0.23141,-0.23141c0.1278,0 0.23141,0.10361 0.23141,0.23141c0,0.00777 -0.00038,0.01544 -0.00113,0.02301h-0.46056c-0.00075,-0.00757 -0.00113,-0.01525 -0.00113,-0.02301zM0.57996,1.06102c0,-0.11912 0.09657,-0.21569 0.21569,-0.21569c0.11912,0 0.21569,0.09657 0.21569,0.21569c0,0.08139 -0.04509,0.15226 -0.11164,0.18898l-0.20809,0c-0.06656,-0.03672 -0.11164,-0.10759 -0.11164,-0.18898zM1.26754,0.70084c0,-0.09549 0.07741,-0.1729 0.1729,-0.1729c0.09549,0 0.1729,0.07741 0.1729,0.1729c0,0.09549 -0.07741,0.1729 -0.1729,0.1729c-0.09549,0 -0.1729,-0.07741 -0.1729,-0.1729zM0.81768,0.63874c0,-0.05954 0.04827,-0.10781 0.10781,-0.10781c0.05954,0 0.10781,0.04827 0.10781,0.10781c0,0.05954 -0.04827,0.10781 -0.10781,0.10781c-0.05954,0 -0.10781,-0.04827 -0.10781,-0.10781zM0.90992,0.26983c0,-0.00679 0.00067,-0.01342 0.00194,-0.01983l0.19913,0c0.00127,0.00641 0.00194,0.01304 0.00194,0.01983c0,0.05606 -0.04544,0.1015 -0.1015,0.1015c-0.05606,0 -0.1015,-0.04544 -0.1015,-0.1015zM0.36678,1.0641c0,-0.03037 0.02462,-0.05498 0.05498,-0.05498c0.03037,0 0.05498,0.02462 0.05498,0.05498c0,0.03037 -0.02462,0.05498 -0.05498,0.05498c-0.03037,0 -0.05498,-0.02462 -0.05498,-0.05498zM1.14625,0.47855c0,-0.02052 0.01663,-0.03715 0.03715,-0.03715c0.02052,0 0.03715,0.01663 0.03715,0.03715c0,0.02052 -0.01663,0.03715 -0.03715,0.03715c-0.02052,0 -0.03715,-0.01663 -0.03715,-0.03715z" fill="#000000" fill-rule="evenodd" stroke="#000000" stroke-width="0.005"></path></g></svg>