<svg version="1.1" xmlns="http://www.w3.org/2000/svg" xmlns:xlink="http://www.w3.org/1999/xlink" width="3in" height="1.5in" viewBox="0 0 3.05 1.55"><g fill="none" fill-rule="none" stroke="none" stroke-width="none" stroke-linecap="butt" stroke-linejoin="miter" stroke-miterlimit="10" stroke-dasharray="" stroke-dashoffset="0" font-family="none" font-weight="none" font-size="none" text-anchor="none" style="mix-blend-mode: normal"><path d="M0.25,1.25l0,-1l2.5,0v1z" fill="none" fill-rule="nonzero" stroke="none" stroke-width="1"></path><path d="M0,1.5v-1.5h3v1.5zM2.72,0.46h-0.14c-0.015,0 -0.03,-0.015 -0.03,-0.03v-0.09c0,-0.015 0.015,-0.03 0.03,-0.03h0.14c0.015,0 0.03,0.015 0.03,0.03v0.09c0,0.015 -0.015,0.03 -0.03,0.03zM0.51,0.43c0,0.015 -0.015,0.03 -0.03,0.03h-0.14c-0.015,0 -0.03,-0.015 -0.03,-0.03v-0.09c0,-0.015 0.015,-0.03 0.03,-0.03h0.14c0.015,0 0.03,0.015 0.03,0.03zM2.43,0.638c0,0.041 -0.041,0.082 -0.082,0.082h-0.41c-0.014,0 -0.028,-0.014 -0.028,-0.028v-0.084c0,-0.014 0.014,-0.028 0.028,-0.028h0.238c0.027,0 0.054,-0.027 0.054,-0.054v-0.176c0,-0.02 0.02,-0.04 0.04,-0.04h0.12c0.02,0 0.04,0.02 0.04,0.04zM0.83,0.526c0,0.027 0.027,0.054 0.054,0.054h0.238c0.014,0 0.028,0.014 0.028,0.028v0.084c0,0.014 -0.014,0.028 -0.028,0.028h-0.41c-0.041,0 -0.082,-0.041 -0.082,-0.082v-0.288c0,-0.02 0.02,-0.04 0.04,-0.04h0.12c0.02,0 0.04,0.02 0.04,0.04zM2.722,0.72h-0.144c-0.014,0 -0.028,-0.014 -0.028,-0.028v-0.084c0,-0.014 0.014,-0.028 0.028,-0.028h0.144c0.014,0 0.028,0.014 0.028,0.028v0.084c0,0.014 -0.014,0.028 -0.028,0.028zM2.11,0.43c0,0.015 -0.015,0.03 -0.03,0.03h-0.238c-0.026,0 -0.052,0.026 -0.052,0.052v0.156c0,0.026 -0.026,0.052 -0.052,0.052h-0.416c-0.026,0 -0.052,-0.026 -0.052,-0.052v-0.156c0,-0.026 -0.026,-0.052 -0.052,-0.052h-0.238c-0.015,0 -0.03,-0.015 -0.03,-0.03v-0.09c0,-0.015 0.015,-0.03 0.03,-0.03h1.1c0.015,0 0.03,0.015 0.03,0.03zM0.51,0.692c0,0.014 -0.014,0.028 -0.028,0.028h-0.144c-0.014,0 -0.028,-0.014 -0.028,-0.028v-0.084c0,-0.014 0.014,-0.028 0.028,-0.028h0.144c0.014,0 0.028,0.014 0.028,0.028zM1.79,1.056c0,0.027 0.027,0.054 0.054,0.054h0.238c0.014,0 0.028,0.014 0.028,0.028v0.084c0,0.014 -0.014,0.028 -0.028,0.028h-1.104c-0.014,0 -0.028,-0.014 -0.028,-0.028v-0.084c0,-0.014 0.014,-0.028 0.028,-0.028h0.238c0.027,0 0.054,-0.027 0.054,-0.054v-0.162c0,-0.027 0.027,-0.054 0.054,-0.054h0.412c0.027,0 0.054,0.027 0.054,0.054zM2.72,0.99h-0.14c-0.015,0 -0.03,-0.015 -0.03,-0.03v-0.09c0,-0.015 0.015,-0.03 0.03,-0.03h0.14c0.015,0 0.03,0.015 0.03,0.03v0.09c0,0.015 -0.015,0.03 -0.03,0.03zM0.51,0.96c0,0.015 -0.015,0.03 -0.03,0.03h-0.14c-0.015,0 -0.03,-0.015 -0.03,-0.03v-0.09c0,-0.015 0.015,-0.03 0.03,-0.03h0.14c0.015,0 0.03,0.015 0.03,0.03zM2.43,1.21c0,0.02 -0.02,0.04 -0.04,0.04h-0.12c-0.02,0 -0.04,-0.02 -0.04,-0.04v-0.168c0,-0.026 -0.026,-0.052 -0.052,-0.052h-0.238c-0.015,0 -0.03,-0.015 -0.03,-0.03v-0.09c0,-0.015 0.015,-0.03 0.03,-0.03h0.408c0.041,0 0.082,0.041 0.082,0.082zM1.15,0.96c0,0.015 -0.015,0.03 -0.03,0.03h-0.238c-0.026,0 -0.052,0.026 -0.052,0.052v0.168c0,0.02 -0.02,0.04 -0.04,0.04h-0.12c-0.02,0 -0.04,-0.02 -0.04,-0.04v-0.288c0,-0.041 0.041,-0.082 0.082,-0.082h0.408c0.015,0 0.03,0.015 0.03,0.03zM2.55,1.222v-0.084c0,-0.014 0.014,-0.028 0.028,-0.028h0.144c0.014,0 0.028,0.014 0.028,0.028v0.084c0,0.014 -0.014,0.028 -0.028,0.028h-0.144c-0.014,0 -0.028,-0.014 -0.028,-0.028zM0.51,1.222c0,0.014 -0.014,0.028 -0.028,0.028h-0.144c-0.014,0 -0.028,-0.014 -0.028,-0.028v-0.084c0,-0.014 0.014,-0.028 0.028,-0.028h0.144c0.014,0 0.028,0.014 0.028,0.028z" fill="#000000" fill-rule="evenodd" stroke="#000000" stroke-width="0.005"></path></g></svg>