<svg version="1.1" xmlns="http://www.w3.org/2000/svg" xmlns:xlink="http://www.w3.org/1999/xlink" width="3in" height="1.5in" viewBox="0 0 3.05 1.55"><g fill="none" fill-rule="none" stroke="none" stroke-width="none" stroke-linecap="butt" stroke-linejoin="miter" stroke-miterlimit="10" stroke-dasharray="" stroke-dashoffset="0" font-family="none" font-weight="none" font-size="none" text-anchor="none" style="mix-blend-mode: normal"><path d="M0.25,1.25l0,-1l2.5,0v1z" fill="none" fill-rule="nonzero" stroke="none" stroke-width="1"></path><path d="M0,1.5v-1.5h3v1.5zM0.34286,0.25357c0,0.01711 -0.05301,0.01711 -0.09286,0v-0.00357l0.09089,0c0.00128,0.00113 0.00197,0.00233 0.00197,0.00357zM0.91487,0.30714c0.00063,0.07157 0.04946,0.19057 0.08237,0.20073c0.0191,0.0059 0.13133,-0.10181 0.13133,-0.12604c0,-0.00736 -0.02571,-0.02651 -0.05714,-0.04254c-0.03143,-0.01603 -0.05714,-0.03493 -0.05714,-0.04199c0,-0.00704 -0.00404,-0.02336 -0.00899,-0.03623c-0.00174,-0.00454 -0.00262,-0.00818 -0.0022,-0.01107l0.13058,0c0.01475,0.00537 0.01937,0.01457 0.02344,0.03214c0.00627,0.02706 0.01883,0.03676 0.05183,0.04001c0.05803,0.00574 0.17603,0.12441 0.18947,0.19056c0.00973,0.04783 0.01011,0.04803 0.1062,0.05514c0.10443,0.00773 0.12989,0.02599 0.11634,0.08343c-0.00613,0.02603 0.00607,0.04737 0.05513,0.09643c0.03464,0.03464 0.07134,0.063 0.08154,0.063c0.0102,0 0.06017,-0.04163 0.11106,-0.09251c0.07709,-0.07709 0.08957,-0.09604 0.0749,-0.11373c-0.03229,-0.0389 -0.06926,-0.03963 -0.12399,-0.00243c-0.07659,0.05203 -0.10533,0.03263 -0.10533,-0.07111c0,-0.04333 -0.00879,-0.09613 -0.01951,-0.11736c-0.01073,-0.02121 -0.0228,-0.0691 -0.02681,-0.10643l-0.00615,-0.05714l0.15248,0v0.0523c0,0.05307 0.00706,0.06896 0.04476,0.10069c0.03761,0.03164 0.05626,0.03699 0.11664,0.03341c0.06814,-0.00404 0.07271,-0.00684 0.08826,-0.05426c0.00903,-0.0275 0.02544,-0.07089 0.0365,-0.09643l0.01546,-0.03571l0.44783,0c0.00763,0.00472 0.00887,0.01151 0.01026,0.02129c0.00653,0.04576 0.04366,0.04677 0.09613,0.00261c0.0124,-0.01043 0.0248,-0.0188 0.03483,-0.0239l0.02233,0c0.01575,0.06302 0.01866,0.77141 0.00214,0.78161c-0.0083,0.00513 -0.0542,-0.00069 -0.10199,-0.01293c-0.0478,-0.01224 -0.11594,-0.02226 -0.15146,-0.02226c-0.05381,0 -0.07226,-0.00771 -0.11081,-0.04643c-0.04237,-0.04251 -0.04701,-0.05624 -0.05516,-0.16274c-0.00583,-0.0763 -0.01989,-0.13896 -0.04089,-0.18217l-0.032,-0.06587l0.05576,-0.05711c0.05913,-0.06054 0.08329,-0.06734 0.14281,-0.04023c0.03274,0.01493 0.04134,0.01259 0.0741,-0.02019c0.0601,-0.0601 0.03803,-0.0821 -0.08436,-0.08409c-0.14477,-0.00236 -0.14023,-0.00379 -0.20619,0.06436l-0.0593,0.06126l0.00423,0.13001l0.00423,0.13l-0.05909,0.01874c-0.08367,0.02654 -0.08364,0.05773 0.0001,0.13483c0.08416,0.07746 0.07583,0.06913 0.15141,0.15134c0.05666,0.06161 0.06633,0.06671 0.11226,0.05926c0.03387,-0.00549 0.08951,0.00429 0.17071,0.03c0.0727,0.02301 0.1364,0.03499 0.16064,0.0302c0.03804,-0.00753 0.03994,-0.00549 0.03571,0.0383l-0.00446,0.04624h-0.55344l-0.0237,-0.06063c-0.01303,-0.03334 -0.03446,-0.07137 -0.04759,-0.08451c-0.02233,-0.02233 -0.0278,-0.01997 -0.08369,0.03591c-0.05811,0.05811 -0.05907,0.06059 -0.03419,0.08809c0.02517,0.02781 0.02447,0.02829 -0.0414,0.02829c-0.06346,0 -0.06616,-0.00157 -0.05109,-0.02974c0.01311,-0.02451 0.00921,-0.03986 -0.02227,-0.08743c-0.03554,-0.0537 -0.03981,-0.05606 -0.06184,-0.03404c-0.01496,0.01496 -0.02366,0.04713 -0.02366,0.08744v0.06377h-0.06821c-0.05887,0 -0.06999,-0.0047 -0.08126,-0.03433c-0.00719,-0.01887 -0.0193,-0.03819 -0.02693,-0.0429c-0.02566,-0.01586 -0.05931,0.00856 -0.05931,0.04304c0,0.03297 -0.00374,0.03419 -0.10547,0.03419c-0.09133,0 -0.10643,-0.00361 -0.11253,-0.02694c-0.00527,-0.02014 -0.03396,-0.03327 -0.11377,-0.05209c-0.11149,-0.02629 -0.17374,-0.02157 -0.18747,0.0142c-0.00447,0.01163 0.00171,0.03097 0.01373,0.04299c0.0196,0.0196 0.0111,0.02183 -0.08276,0.02174l-0.10459,-0.0001l-0.00391,-0.07971c-0.00351,-0.07126 0.00003,-0.08283 0.03334,-0.10903c0.03436,-0.02701 0.03689,-0.03646 0.03254,-0.12104c-0.0042,-0.08164 -0.00116,-0.09441 0.02774,-0.11621c0.0385,-0.02904 0.05451,-0.10764 0.03323,-0.16309c-0.01119,-0.0291 -0.02486,-0.03929 -0.05273,-0.03929c-0.04459,0 -0.16534,-0.09967 -0.2646,-0.2184c-0.05869,-0.0702 -0.09357,-0.08917 -0.12144,-0.06603c-0.01476,0.01224 -0.0183,0.03093 -0.01173,0.0617c0.01341,0.0628 0.03164,0.07987 0.08529,0.07987c0.07753,0 0.09227,0.01166 0.09227,0.07296c0,0.06367 0.0387,0.11263 0.08929,0.11297c0.01767,0.00013 0.03931,0.00494 0.04807,0.01071c0.02301,0.01517 0.03746,0.0702 0.02703,0.10303c-0.00809,0.02549 -0.02041,0.02793 -0.12596,0.025l-0.117,-0.00324l-0.00773,-0.07706c-0.00659,-0.06564 -0.01499,-0.08311 -0.05661,-0.11786c-0.02687,-0.02244 -0.05586,-0.0408 -0.0644,-0.0408c-0.02764,0 -0.04983,0.03329 -0.04983,0.07473c0,0.04769 -0.00624,0.05039 -0.13214,0.05716l-0.075,0.00403l0,-0.32522c0.00202,0.00089 0.00423,0.00203 0.00664,0.00332c0.01543,0.00826 0.03564,0.0403 0.04489,0.07119c0.01853,0.06183 0.04787,0.08187 0.08037,0.0549c0.01577,-0.01309 0.01936,-0.03766 0.01411,-0.09669c-0.00634,-0.07126 -0.00329,-0.08289 0.03061,-0.11687c0.01545,-0.01548 0.02485,-0.02462 0.04634,-0.03011l0.44141,0zM1.35357,0.27149c-0.05109,0.00757 -0.08214,0.00021 -0.08214,-0.01944c0,-0.00069 0.00028,-0.00138 0.00083,-0.00204l0.12473,0c0.00708,0.00707 -0.00641,0.01601 -0.04341,0.02149zM1.41223,0.26786h0.04086c0.04997,0 0.18116,0.12463 0.17329,0.16464c-0.00751,0.0382 -0.04481,0.05473 -0.10013,0.04434c-0.0757,-0.0142 -0.0937,-0.03609 -0.10437,-0.12684zM2.70174,0.41071c0.02414,0 0.02683,0.01216 0.02683,0.12143c0,0.09393 -0.00449,0.12143 -0.01979,0.12143c-0.01089,0 -0.03084,0.01689 -0.04437,0.03753c-0.02349,0.03584 -0.02883,0.03717 -0.1195,0.0296c-0.12817,-0.01069 -0.20206,-0.03396 -0.20206,-0.06363c0,-0.02764 0.09753,-0.13207 0.12336,-0.13207c0.00966,0 0.03153,0.01963 0.04861,0.04363c0.02637,0.03703 0.03894,0.04297 0.08313,0.03929l0.05204,-0.00434l-0.00491,-0.07549c-0.00296,-0.04533 0.00201,-0.08384 0.01246,-0.09643c0.00956,-0.01151 0.02946,-0.02094 0.0442,-0.02094zM1.39663,0.69283c0.15361,0.04746 0.15321,0.1217 -0.00063,0.11614c-0.07081,-0.00256 -0.08901,0.00183 -0.10841,0.02611c-0.02817,0.0353 -0.08356,0.05 -0.14333,0.03806c-0.05097,-0.0102 -0.0558,-0.03434 -0.01777,-0.0888c0.01457,-0.02086 0.03064,-0.05513 0.03573,-0.07616c0.00507,-0.02103 0.02049,-0.04137 0.03423,-0.0452c0.03386,-0.00943 0.10959,0.00186 0.20019,0.02984zM0.63571,0.81834c0.00786,0.00096 0.01624,0.03339 0.01863,0.07206c0.00381,0.0615 0.01247,0.0786 0.06914,0.1364l0.0648,0.06607l-0.02314,0.04477c-0.01751,0.03386 -0.01944,0.05169 -0.00793,0.0732c0.01403,0.02623 0.0107,0.02844 -0.0427,0.02844c-0.05353,0 -0.05729,-0.00253 -0.04956,-0.0333c0.0066,-0.0263 -0.0021,-0.04127 -0.04141,-0.07126c-0.02959,-0.02257 -0.05369,-0.0558 -0.05943,-0.08196c-0.01126,-0.05124 -0.0406,-0.0675 -0.07313,-0.04051c-0.01894,0.01573 -0.02129,0.03711 -0.0135,0.12303l0.00941,0.104h-0.12201c-0.07456,0 -0.1036,-0.00036 -0.11489,-0.00876l0,-0.05156c0.00541,-0.00354 0.01465,-0.00298 0.03009,-0.00003c0.04473,0.00854 0.06507,-0.01757 0.05307,-0.06811c-0.01166,-0.04901 -0.03164,-0.07154 -0.06347,-0.07154c-0.00947,0 -0.01567,-0.00187 -0.01969,-0.00958v-0.17496l0.04899,0.04784c0.03641,0.03554 0.06414,0.05174 0.0789,0.04609c0.0235,-0.00901 0.02811,-0.01813 0.04246,-0.08373c0.00803,-0.0367 0.01329,-0.03889 0.10477,-0.04349c0.05297,-0.00267 0.10274,-0.00407 0.1106,-0.00311zM1.94934,0.91591c0.01167,0.04726 0.00973,0.05806 -0.01344,0.075c-0.01489,0.01089 -0.0387,0.0198 -0.05291,0.0198c-0.02137,0 -0.02584,-0.01196 -0.02584,-0.06904c0,-0.03799 0.00456,-0.07361 0.01013,-0.07919c0.02707,-0.02707 0.06891,0.00016 0.08207,0.05343zM1.69507,0.9146c0.01554,0.01613 0.02467,0.06307 0.0208,0.10683c-0.00263,0.02963 -0.05383,0.02014 -0.09973,-0.01849c-0.05167,-0.04349 -0.07011,-0.09044 -0.04267,-0.10869c0.02391,-0.0159 0.09876,-0.00339 0.1216,0.02034zM1.45664,1.00977c0.00813,0.0152 0.01479,0.04749 0.01479,0.07174c0,0.0335 -0.00883,0.04811 -0.03674,0.06084c-0.02974,0.01354 -0.03921,0.0128 -0.04977,-0.00389c-0.01491,-0.02357 -0.01767,-0.10021 -0.00481,-0.13373c0.01204,-0.03137 0.0587,-0.0283 0.07654,0.00503z" fill="#000000" fill-rule="evenodd" stroke="#000000" stroke-width="0.005"></path></g></svg>