<svg version="1.1" xmlns="http://www.w3.org/2000/svg" xmlns:xlink="http://www.w3.org/1999/xlink" width="3in" height="3in" viewBox="0 0 3.05 3.05"><g fill="none" fill-rule="none" stroke="none" stroke-width="none" stroke-linecap="butt" stroke-linejoin="miter" stroke-miterlimit="10" stroke-dasharray="" stroke-dashoffset="0" font-family="none" font-weight="none" font-size="none" text-anchor="none" style="mix-blend-mode: normal"><path d="M0.25,2.75l0,-2.5l2.5,0v2.5z" fill="none" fill-rule="nonzero" stroke="none" stroke-width="1"></path><path d="M0,3v-3h3v3zM2.65041,1.00944c0,0.08561 -0.08216,0.19527 -0.16433,0.21932l-0.08216,0.02405c-0.08216,0.02405 -0.14017,-0.03404 -0.11602,-0.11617l0.18323,-0.62298c0.00948,-0.03223 0.05102,-0.07448 0.08309,-0.0845l0.03206,-0.01002c0.03206,-0.01002 0.06413,0.01355 0.06413,0.04715zM2.05882,1.40153c0.00601,0.00401 0.01603,0.01403 0.02004,0.02004l0.00401,0.00601c0.00401,0.00601 0.00675,0.01914 0.00548,0.02625l-0.03357,0.18802c-0.00699,0.03916 -0.04004,0.10838 -0.06609,0.13844l-0.06402,0.07387c-0.00707,0.00816 -0.02416,0.02032 -0.03418,0.02433l-0.01002,0.00401c-0.01002,0.00401 -0.03056,0.01044 -0.04107,0.01287l-0.05713,0.01318c-0.02605,0.00601 -0.07712,0.00258 -0.10213,-0.00687l-0.08808,-0.03327c-0.04603,-0.01739 -0.1381,-0.01739 -0.18413,0l-0.08808,0.03327c-0.02501,0.00945 -0.07607,0.01289 -0.10213,0.00687l-0.05713,-0.01318c-0.01052,-0.00243 -0.03105,-0.00886 -0.04107,-0.01287l-0.01002,-0.00401c-0.01002,-0.00401 -0.02711,-0.01617 -0.03418,-0.02433l-0.06402,-0.07387c-0.02605,-0.03006 -0.0591,-0.09928 -0.06609,-0.13844l-0.03357,-0.18802c-0.00127,-0.00711 0.00147,-0.02024 0.00548,-0.02625l0.00401,-0.00601c0.00401,-0.00601 0.01403,-0.01603 0.02004,-0.02004l0.04208,-0.02806c0.01804,-0.01202 0.05757,-0.02127 0.07907,-0.0185l0.18583,0.02398c0.0409,0.00528 0.1158,0.03387 0.14981,0.0572l0.03401,0.02332c0.03401,0.02332 0.10203,0.02332 0.13604,0l0.03401,-0.02332c0.03401,-0.02332 0.10892,-0.05192 0.14981,-0.0572l0.18583,-0.02398c0.0215,-0.00277 0.06103,0.00648 0.07907,0.0185zM2.14572,0.90568c-0.03783,0.1225 -0.12977,0.12877 -0.18388,0.01254l-0.15993,-0.34356c-0.0012,-0.00257 -0.00039,-0.00714 0.00162,-0.00915l0.002,-0.002c0.002,-0.002 0.00654,-0.00528 0.00908,-0.00654l0.10315,-0.05157c0.03607,-0.01804 0.11247,-0.03607 0.1528,-0.03607h0.09369c0.05812,0 0.09908,0.05553 0.08194,0.11106zM1.53944,0.3406c0.00532,0.00975 0.00062,0.0147 -0.0094,0.00991l-0.01002,-0.00479c-0.01002,-0.00479 -0.03005,-0.00479 -0.04006,0l-0.01002,0.00479c-0.01002,0.00479 -0.01471,-0.00017 -0.0094,-0.00991l0.0394,-0.07223c0.00001,-0.00002 0.00002,-0.00005 0.00002,-0.00007v-0.00003c0,-0.00001 0.00001,-0.00001 0.00001,0l0.00001,0.00001c0.00001,0.00001 0.00002,0.00001 0.00002,0l0.00001,-0.00001c0.00001,-0.00001 0.00001,-0.00001 0.00001,0l0,0.00003c0,0.00002 0.00001,0.00005 0.00002,0.00007zM1.86014,0.28597c0,0.01202 -0.01075,0.02943 -0.02151,0.0348l-0.02659,0.01329c-0.01603,0.00802 -0.04129,0.00066 -0.05051,-0.01471l-0.01763,-0.02938c-0.01153,-0.01922 -0.00157,-0.03843 0.01987,-0.03998l0.07422,0c0.01135,0.00118 0.02213,0.01256 0.02213,0.02395zM1.84142,2.53063c0.00444,0.05996 -0.05124,0.11991 -0.11136,0.11991h-0.06012c-0.06012,0 -0.09582,-0.05494 -0.07141,-0.10988l0.18839,-0.42388c0.00163,-0.00366 0.00726,-0.00733 0.01127,-0.00733h0.00401c0.00401,0 0.00831,0.004 0.00861,0.00799zM2.65006,2.05402c0,0.01804 -0.01,0.02107 -0.02001,0.00606l-0.02677,-0.04016c-0.00667,-0.01 -0.00132,-0.02001 0.01071,-0.02001h0.01202c0.01202,0 0.02405,0.01202 0.02405,0.02405zM2.65041,1.70813c0,0.04614 -0.04609,0.09428 -0.09218,0.09628l-0.05769,0.00251c-0.04029,0.00175 -0.11666,-0.01453 -0.15273,-0.03257l-0.03607,-0.01804c-0.03607,-0.01804 -0.06523,-0.07581 -0.05832,-0.11554l0.01023,-0.05881c0.00802,-0.04609 0.0612,-0.10439 0.10636,-0.1166l0.13212,-0.03571c0.07415,-0.02004 0.1483,0.03673 0.1483,0.11354zM2.43034,0.262c-0.01002,0.00401 -0.03083,0.00802 -0.04162,0.00802h-0.3211c-0.00401,0 -0.00802,-0.00401 -0.00802,-0.00802l0,-0.00401c0,-0.00384 0.00369,-0.00769 0.00752,-0.008l0.37297,0c0.00956,0.00031 0.00987,0.00415 0.00026,0.008zM2.30067,2.54494c0.03985,0.05278 0.01357,0.10555 -0.05256,0.10555h-0.06613c-0.06613,0 -0.13764,-0.06591 -0.14303,-0.13183l-0.01329,-0.16276c-0.00802,-0.0982 0.04334,-0.11777 0.10271,-0.03914zM2.26377,1.94735c0.03808,0.01603 0.09959,0.06609 0.12303,0.10011l0.21372,0.31024c0.02501,0.03631 0.05002,0.1167 0.05002,0.16079v0.12425c0,0.00401 -0.00401,0.00802 -0.00802,0.00802h-0.00401c-0.00401,0 -0.01041,-0.00322 -0.0128,-0.00643l-0.50096,-0.67436c-0.00765,-0.0103 -0.00729,-0.03062 0.00073,-0.04064l0.00802,-0.01002c0.00802,-0.01002 0.02786,-0.01506 0.03968,-0.01008zM1.50601,0.558c0.002,0.001 0.002,0.003 0,0.004l-0.006,0.003c0,0 0,0 0,0v0c0,0 0,0 0,0l0,0c0,0 0,0 0,0l0,0c0,0 0,0 0,0l0,0c0,0 0,0 0,0l-0.006,-0.003c-0.002,-0.001 -0.002,-0.003 0,-0.004l0.006,-0.003c0,0 0,0 0,0v0c0,0 0,0 0,0l0,0c0,0 0,0 0,0l0,0c0,0 0,0 0,0v0c0,0 0,0 0,0zM1.83039,1.10441c0.01507,0.03302 -0.00593,0.07004 -0.042,0.07405l-0.03607,0.00401c-0.03607,0.00401 -0.09735,-0.01809 -0.12256,-0.0442l-0.05769,-0.05975c-0.03604,-0.03732 -0.10811,-0.03732 -0.14414,0l-0.05769,0.05975c-0.02521,0.02611 -0.08649,0.04821 -0.12256,0.0442l-0.03607,-0.00401c-0.03607,-0.00401 -0.05707,-0.04103 -0.042,-0.07405l0.15217,-0.33332c0.01405,-0.03078 0.05813,-0.04596 0.08816,-0.03034l0.03002,0.01561c0.03002,0.01561 0.09007,0.01561 0.1201,0l0.03002,-0.01561c0.03002,-0.01561 0.0741,-0.00044 0.08816,0.03034zM1.5541,2.05726c0.01802,0.00629 0.02821,0.02997 0.02037,0.04737l-0.0744,0.16532c-0.00002,0.00004 -0.00003,0.00011 -0.00003,0.00015v0.00008c0,0.00002 -0.00001,0.00002 -0.00002,0l-0.00001,-0.00002c-0.00001,-0.00002 -0.00003,-0.00002 -0.00004,0l-0.00001,0.00002c-0.00001,0.00002 -0.00002,0.00002 -0.00002,0l0,-0.00008c0,-0.00004 -0.00002,-0.00012 -0.00003,-0.00015l-0.0744,-0.16532c-0.00783,-0.0174 0.00236,-0.04109 0.02037,-0.04737l0.05404,-0.01885c0.00001,0 0.00001,-0.00001 0.00001,-0.00002v-0.00001c0,-0.00001 0.00001,-0.00001 0.00001,-0.00001l0.00002,0.00001c0.00001,0 0.00003,0 0.00004,0l0.00002,-0.00001c0.00001,0 0.00001,0 0.00001,0.00001v0.00001c0,0.00001 0.00001,0.00001 0.00001,0.00002zM0.34959,0.46629c0,-0.03359 0.03206,-0.05717 0.06413,-0.04715l0.03206,0.01002c0.03206,0.01002 0.07361,0.05227 0.08309,0.0845l0.18323,0.62298c0.02416,0.08213 -0.03385,0.14022 -0.11602,0.11617l-0.08216,-0.02405c-0.08216,-0.02405 -0.16433,-0.13371 -0.16433,-0.21932zM0.75382,0.58038c-0.01715,-0.05553 0.02382,-0.11106 0.08194,-0.11106h0.09369c0.04033,0 0.11673,0.01804 0.1528,0.03607l0.10315,0.05157c0.00253,0.00127 0.00707,0.00454 0.00908,0.00654l0.002,0.002c0.002,0.002 0.00281,0.00658 0.00162,0.00915l-0.15993,0.34356c-0.05411,0.11623 -0.14605,0.10996 -0.18388,-0.01254zM1.13986,0.27395c0,-0.01139 0.01078,-0.02277 0.02213,-0.02395l0.07422,0c0.02144,0.00155 0.0314,0.02076 0.01987,0.03998l-0.01763,0.02938c-0.00922,0.01537 -0.03448,0.02272 -0.05051,0.01471l-0.02659,-0.01329c-0.01075,-0.00538 -0.02151,-0.02278 -0.02151,-0.0348zM1.18919,2.11745c0.0003,-0.004 0.0046,-0.00799 0.00861,-0.00799h0.00401c0.00401,0 0.00964,0.00366 0.01127,0.00733l0.18839,0.42388c0.02442,0.05494 -0.01129,0.10988 -0.07141,0.10988l-0.06012,0c-0.06012,0 -0.1158,-0.05996 -0.11136,-0.11991zM0.34994,2.02396c0,-0.01202 0.01202,-0.02405 0.02405,-0.02405h0.01202c0.01202,0 0.01738,0.01 0.01071,0.02001l-0.02677,0.04016c-0.01,0.01501 -0.02001,0.01198 -0.02001,-0.00606zM0.34959,1.5432c0,-0.07681 0.07415,-0.13358 0.1483,-0.11354l0.13212,0.03571c0.04516,0.01221 0.09834,0.0705 0.10636,0.1166l0.01023,0.05881c0.00691,0.03973 -0.02225,0.0975 -0.05832,0.11554l-0.03607,0.01804c-0.03607,0.01804 -0.11244,0.03432 -0.15273,0.03257l-0.05769,-0.00251c-0.04609,-0.002 -0.09218,-0.05014 -0.09218,-0.09628zM0.55964,0.258c-0.00961,-0.00384 -0.00929,-0.00769 0.00026,-0.008l0.37297,0c0.00384,0.00031 0.00752,0.00415 0.00752,0.008v0.00401c0,0.00401 -0.00401,0.00802 -0.00802,0.00802h-0.3211c-0.01079,0 -0.0316,-0.00401 -0.04162,-0.00802zM0.87163,2.31676c0.05937,-0.07863 0.11072,-0.05905 0.10271,0.03914l-0.01329,0.16276c-0.00538,0.06591 -0.07689,0.13183 -0.14303,0.13183h-0.06613c-0.06613,0 -0.09241,-0.05278 -0.05256,-0.10555zM0.82681,1.90921c0.01183,-0.00498 0.03167,0.00006 0.03968,0.01008l0.00802,0.01002c0.00802,0.01002 0.00838,0.03034 0.00073,0.04064l-0.50096,0.67436c-0.00239,0.00322 -0.00879,0.00643 -0.0128,0.00643h-0.00401c-0.00401,0 -0.00802,-0.00401 -0.00802,-0.00802v-0.12425c0,-0.04409 0.02501,-0.12448 0.05002,-0.16079l0.21372,-0.31024c0.02344,-0.03402 0.08495,-0.08408 0.12303,-0.10011z" fill="#000000" fill-rule="evenodd" stroke="#000000" stroke-width="0.005"></path></g></svg>