<!--

Built on 2024-03-28T23:31:49.702Z



## Param string


## Generated From
n/a

-->

<svg version="1.1" xmlns="http://www.w3.org/2000/svg" xmlns:xlink="http://www.w3.org/1999/xlink" width="3in" height="1.5in" viewBox="0 0 3.05 1.55"><g fill="none" fill-rule="none" stroke="none" stroke-width="none" stroke-linecap="butt" stroke-linejoin="miter" stroke-miterlimit="10" stroke-dasharray="" stroke-dashoffset="0" font-family="none" font-weight="none" font-size="none" text-anchor="none" style="mix-blend-mode: normal"><path d="M0.2,1.3l0,-1.1l2.6,0l0,1.1z" fill="none" fill-rule="nonzero" stroke="none" stroke-width="1"></path><path d="M0,1.5v-1.5h3v1.5zM1.82241,0.7063c0.00987,0.00535 0.02195,0.02171 0.02415,0.03272l0.01414,0.07068c0.00174,0.0087 -0.00423,0.02181 -0.01193,0.02622l-0.05593,0.03196c-0.00287,0.00164 -0.00904,0.00328 -0.01234,0.00328h-0.01982c-0.0033,0 -0.00889,-0.00239 -0.01117,-0.00477l-0.2267,-0.237c-0.00549,-0.00574 -0.00437,-0.01588 0.00224,-0.02028l0.03964,-0.02643c0.00661,-0.0044 0.02019,-0.00503 0.02718,-0.00125zM2.44011,0.75565c0.00352,0.00264 0.00705,0.00969 0.00705,0.01409v0.02643c0,0.0044 -0.00256,0.01239 -0.00512,0.01598l-0.04707,0.0659c-0.00143,0.002 -0.00506,0.00511 -0.00727,0.00621l-0.01321,0.00661c-0.0022,0.0011 -0.00681,0.00274 -0.00921,0.00327l-0.07447,0.01655c-0.00991,0.0022 -0.02904,0.00015 -0.03825,-0.0041l-0.09608,-0.04434c-0.01431,-0.00661 -0.01602,-0.02267 -0.0034,-0.03213l0.08374,-0.0628c0.01159,-0.00869 0.03749,-0.01958 0.0518,-0.02178l0.10363,-0.01594c0.00544,-0.00084 0.01529,0.00163 0.01969,0.00493zM1.40815,0.58142c0.00698,-0.00378 0.02057,-0.00316 0.02718,0.00125l0.03964,0.02643c0.00661,0.0044 0.00772,0.01455 0.00224,0.02028l-0.2267,0.237c-0.00228,0.00239 -0.00787,0.00477 -0.01117,0.00477h-0.01982c-0.0033,0 -0.00947,-0.00164 -0.01234,-0.00328l-0.05593,-0.03196c-0.00771,-0.0044 -0.01367,-0.01751 -0.01193,-0.02622l0.01414,-0.07068c0.0022,-0.01101 0.01428,-0.02737 0.02415,-0.03272zM0.58808,0.73451c0.0044,-0.0033 0.01425,-0.00577 0.01969,-0.00493l0.10363,0.01594c0.01431,0.0022 0.04021,0.01309 0.0518,0.02178l0.08374,0.0628c0.01261,0.00946 0.01091,0.02553 -0.0034,0.03213l-0.09608,0.04434c-0.00922,0.00425 -0.02834,0.00631 -0.03825,0.0041l-0.07447,-0.01655c-0.0024,-0.00053 -0.00701,-0.00217 -0.00921,-0.00327l-0.01321,-0.00661c-0.0022,-0.0011 -0.00584,-0.00421 -0.00727,-0.00621l-0.04707,-0.0659c-0.00256,-0.00358 -0.00512,-0.01157 -0.00512,-0.01598v-0.02643c0,-0.0044 0.00352,-0.01145 0.00705,-0.01409z" fill="#d3d3d3" fill-rule="evenodd" stroke="#ff0000" stroke-width="0.005"></path></g></svg>