<svg version="1.1" xmlns="http://www.w3.org/2000/svg" xmlns:xlink="http://www.w3.org/1999/xlink" width="3in" height="3in" viewBox="0 0 3.05 3.05"><g fill="none" fill-rule="none" stroke="none" stroke-width="none" stroke-linecap="butt" stroke-linejoin="miter" stroke-miterlimit="10" stroke-dasharray="" stroke-dashoffset="0" font-family="none" font-weight="none" font-size="none" text-anchor="none" style="mix-blend-mode: normal"><path d="M0.25,2.75l0,-2.5l2.5,0v2.5z" fill="none" fill-rule="nonzero" stroke="none" stroke-width="1"></path><path d="M0,3v-3h3v3zM0.25,2.48021c0.23017,0.0972 0.4254,0.18786 0.59025,0.26979l-0.29089,0c-0.09195,-0.04444 -0.19138,-0.09144 -0.29936,-0.14066zM0.25,2.13044c0.83051,0.254 1.24822,0.46051 1.4669,0.61956l-0.2944,0c-0.19566,-0.14121 -0.52855,-0.31982 -1.17249,-0.53587zM0.87314,2.1c1.2252,0.29941 1.72339,0.49921 1.87686,0.63668v0.01332l-0.27468,0c-0.12354,-0.13779 -0.58689,-0.34077 -1.85218,-0.65c-0.11766,-0.02876 -0.24225,-0.05843 -0.37314,-0.08892l0,-0.05789c0.22363,0.05107 0.43221,0.10015 0.62314,0.14681zM2.75,2.75h-0.12836c-0.28927,-0.21155 -0.885,-0.50704 -2.37164,-0.88657l0,-0.06253c1.41852,0.34778 2.13171,0.62826 2.5,0.84152zM0.25,1.66231c1.11936,0.30188 1.92565,0.59677 2.5,0.84606l0,0.13291c-0.54669,-0.25589 -1.32591,-0.57632 -2.5,-0.90899zM0.25,1.53643c0.95087,0.27549 1.79891,0.56752 2.5,0.83093v0.11222c-0.69146,-0.26742 -1.53316,-0.57371 -2.5,-0.86633zM0.25,1.41537c0.87328,0.2608 1.73242,0.54281 2.5,0.80738v0.10216c-0.76161,-0.26652 -1.61828,-0.55675 -2.5,-0.82878zM0.25,1.21531c0.91055,0.22613 1.75415,0.47953 2.5,0.72871l0,0.0955c-0.73423,-0.25643 -1.57315,-0.52172 -2.5,-0.76088zM2.01533,1.5c0.25903,0.06353 0.50367,0.12705 0.73467,0.19022v0.07127c-0.30074,-0.08653 -0.62801,-0.17401 -0.98467,-0.26148c-0.46317,-0.1136 -0.9759,-0.22722 -1.51533,-0.3388l0,-0.05345c0.62864,0.12864 1.22794,0.26046 1.76533,0.39225zM0.25,1.03551c0.88418,0.17015 1.74165,0.34267 2.5,0.50747l0,0.05554c-0.74614,-0.16437 -1.60597,-0.33775 -2.5,-0.50978zM0.25,0.95822c0.85155,0.16234 1.70221,0.32783 2.5,0.48809l0,0.05398c-0.79226,-0.15902 -1.64386,-0.32421 -2.5,-0.48719zM0.25,0.80004c0.84587,0.15308 1.69858,0.3122 2.5,0.46941v0.05208c-0.79503,-0.15636 -1.64892,-0.3155 -2.5,-0.46952zM0.25,0.64175c0.83295,0.14082 1.68651,0.29237 2.5,0.44886l0,0.05037c-0.80628,-0.15642 -1.66131,-0.30859 -2.5,-0.45082zM0.25,0.48433c0.80535,0.12499 1.65601,0.26846 2.5,0.43036l0,0.04949c-0.83574,-0.16309 -1.68828,-0.30832 -2.5,-0.43562zM0.25,0.32707c0.75052,0.10594 1.58974,0.24294 2.5,0.42239v0.05019c-0.89868,-0.18166 -1.74087,-0.3224 -2.5,-0.43262z" fill="#000000" fill-rule="evenodd" stroke="#000000" stroke-width="0.005"></path></g></svg>