<!--

Built on 2024-03-28T23:31:51.756Z



## Param string


## Generated From
n/a

-->

<svg version="1.1" xmlns="http://www.w3.org/2000/svg" xmlns:xlink="http://www.w3.org/1999/xlink" width="3in" height="5.500000000000002in" viewBox="0 -2.000000000000001 3.05 5.550000000000002"><defs><clipPath id="clip-1"><rect x="48" y="-151.27273" transform="scale(0.00625,0.01322)" width="416" height="416" fill="none" fill-rule="nonzero"></rect></clipPath></defs><g fill="none" fill-rule="none" stroke="none" stroke-width="none" stroke-linecap="butt" stroke-linejoin="miter" stroke-miterlimit="10" stroke-dasharray="" stroke-dashoffset="0" font-family="none" font-weight="none" font-size="none" text-anchor="none" style="mix-blend-mode: normal"><g clip-path="url(#clip-1)" stroke="none" stroke-width="1"><path d="M1.54172,-1.03397c-0.01377,-0.01108 -0.01788,-0.00985 -0.02079,0.00621c-0.00278,0.0153 -0.00565,0.01649 -0.01216,0.00504c-0.00666,-0.01169 -0.06066,0.04173 -0.24644,0.2438l-0.23791,0.25876l-0.04971,-0.0081c-0.04429,-0.00723 -0.04971,-0.00563 -0.04971,0.01457c0,0.01571 -0.00341,0.0204 -0.01109,0.01524c-0.00806,-0.00541 -0.02706,0.0265 -0.06953,0.11669c-0.03292,0.06994 -0.05659,0.13047 -0.05421,0.13861c0.00257,0.00878 0.00074,0.01165 -0.00465,0.00727c-0.00526,-0.00427 -0.01011,0.00272 -0.01189,0.01721c-0.00166,0.01345 -0.05593,0.29425 -0.12061,0.62404c-0.10636,0.54238 -0.11658,0.60114 -0.10711,0.6158c0.00934,0.01445 0.00944,0.01802 0.00096,0.03292c-0.00664,0.01165 -0.00761,0.0216 -0.0032,0.03284c0.00429,0.01093 0.00401,0.03014 -0.00087,0.05976c-0.00613,0.0372 -0.00561,0.04608 0.00351,0.06018c0.00733,0.01133 0.00848,0.01944 0.00364,0.02575c-0.00388,0.00508 -0.00556,0.01744 -0.00374,0.02749c0.00182,0.01003 -0.00058,0.04158 -0.00534,0.0701c-0.00819,0.04913 -0.00796,0.05222 0.00439,0.05906c0.01122,0.00621 0.01187,0.01019 0.00466,0.02857c-0.00736,0.01876 0.00576,0.0513 0.10834,0.26852l0.11672,0.24717v0.352c0,0.33695 0.00052,0.35228 0.01209,0.35869c0.00823,0.00455 0.01111,0.01472 0.009,0.03176c-0.00233,0.01877 0.00249,0.03071 0.01915,0.04753c0.01224,0.01235 0.02226,0.02849 0.02226,0.03588c0,0.00739 0.00536,0.01343 0.01191,0.01343c0.00877,0 0.01107,0.00686 0.00871,0.02598c-0.00246,0.01991 0.00206,0.03129 0.01934,0.04872c0.0124,0.01251 0.02254,0.03057 0.02254,0.04013c0,0.00956 0.00514,0.01739 0.01143,0.01739c0.00751,0 0.01126,0.00927 0.01094,0.02694c-0.00043,0.0233 0.03901,0.0617 0.29013,0.2826c0.25659,0.2257 0.29154,0.25322 0.29844,0.23494c0.00702,-0.01862 0.00781,-0.01844 0.00781,0.00167c0,0.0123 0.00263,0.02236 0.00584,0.02236c0.00321,0 0.01324,-0.00595 0.02228,-0.01322c0.01141,-0.00918 0.02047,-0.00866 0.0296,0.00167c0.01075,0.01218 0.01468,0.0105 0.02147,-0.00914c0.00749,-0.02166 0.00831,-0.02183 0.00831,-0.00167c0,0.0123 0.00123,0.02236 0.00272,0.02236c0.00149,0 0.00993,-0.0058 0.01875,-0.01289c0.01061,-0.00854 0.02178,-0.00828 0.03303,0.00078c0.01389,0.01116 0.01847,0.00943 0.025,-0.00947c0.00759,-0.02195 0.008,-0.02192 0.008,0.00063c0,0.01372 0.00331,0.02098 0.00781,0.01717c0.0043,-0.00362 0.13297,-0.11629 0.28594,-0.25037c0.15297,-0.13409 0.28305,-0.24758 0.28906,-0.25222c0.00601,-0.00464 0.01094,-0.01736 0.01094,-0.02827c0,-0.01128 0.00366,-0.01686 0.00848,-0.01294c0.00519,0.00422 0.01141,-0.00809 0.01605,-0.03176c0.00416,-0.02125 0.01468,-0.04549 0.02338,-0.05389c0.01068,-0.01029 0.01458,-0.02207 0.01201,-0.03624c-0.00271,-0.01489 -0.00108,-0.01877 0.00559,-0.01337c0.00616,0.00501 0.01268,-0.00579 0.01893,-0.03139c0.00525,-0.02146 0.01661,-0.04277 0.02524,-0.04736c0.01234,-0.00654 0.01484,-0.01409 0.01166,-0.03523c-0.00318,-0.02122 -0.00186,-0.02515 0.00625,-0.01856c0.00698,0.00567 0.01219,-0.00112 0.01621,-0.02114c0.00325,-0.01621 0.04703,-0.24069 0.09728,-0.49883c0.05024,-0.25814 0.10257,-0.52522 0.11627,-0.59351c0.01977,-0.09848 0.0232,-0.1265 0.0166,-0.13552c-0.00541,-0.00738 -0.00609,-0.01483 -0.00196,-0.02127c0.00351,-0.00545 0.00637,-0.04264 0.00637,-0.08263c0,-0.03999 -0.00286,-0.07719 -0.00637,-0.08263c-0.00409,-0.00637 -0.00315,-0.01429 0.00262,-0.02213c0.0069,-0.0094 0.00747,-0.01933 0.00246,-0.04297c-0.00447,-0.02109 -0.00451,-0.04298 -0.00012,-0.06969c0.00472,-0.0288 0.00442,-0.04031 -0.00116,-0.04425c-0.00528,-0.00372 -0.00561,-0.01026 -0.00111,-0.02174c0.00464,-0.01183 -0.02748,-0.18946 -0.11512,-0.63664c-0.09103,-0.46447 -0.12395,-0.61925 -0.13108,-0.61638c-0.00627,0.00253 -0.00828,-0.00301 -0.00588,-0.01622c0.00239,-0.01319 -0.00208,-0.02556 -0.01307,-0.03615c-0.00919,-0.00886 -0.02074,-0.03259 -0.02566,-0.05274c-0.00581,-0.02376 -0.01226,-0.03395 -0.01835,-0.02901c-0.00667,0.00541 -0.00829,0.00152 -0.00559,-0.01337c0.00256,-0.01413 -0.00128,-0.02591 -0.01174,-0.03599c-0.00855,-0.00824 -0.01875,-0.02985 -0.02266,-0.04802c-0.00489,-0.02271 -0.01073,-0.03106 -0.01865,-0.02667c-0.00849,0.00469 -0.01079,0.00045 -0.00875,-0.0161c0.00229,-0.0185 -0.04361,-0.0631 -0.25861,-0.25133c-0.14376,-0.12588 -0.27628,-0.24271 -0.29448,-0.25964c-0.02809,-0.02611 -0.03363,-0.02779 -0.03667,-0.01107c-0.00261,0.01442 -0.00572,0.01592 -0.01162,0.00557c-0.00443,-0.00776 -0.01476,-0.01056 -0.02295,-0.00621c-0.0082,0.00436 -0.02263,0.00171 -0.03207,-0.00588c-0.01377,-0.01108 -0.01788,-0.00985 -0.02079,0.00621c-0.00266,0.01468 -0.00578,0.01625 -0.01168,0.00588c-0.00443,-0.00776 -0.01476,-0.01056 -0.02295,-0.00621c-0.0082,0.00436 -0.02263,0.00171 -0.03207,-0.00588M1.26503,-0.55792c-0.00311,0.00054 -0.01691,0.012 -0.03066,0.02546l-0.025,0.02449l0.01934,0.00098c0.01186,0.00059 0.02372,-0.00924 0.03066,-0.02546c0.00622,-0.01454 0.00877,-0.02601 0.00566,-0.02546M1.93464,-0.559c-0.00329,0.00007 0.00633,0.02667 0.02139,0.05914c0.0206,0.0444 0.03371,0.06103 0.05287,0.0671c0.01401,0.00444 0.03673,0.00615 0.05048,0.00378c0.02413,-0.00416 0.02249,-0.0065 -0.04687,-0.06722c-0.03953,-0.0346 -0.07457,-0.06285 -0.07786,-0.0628M1.12031,-0.38625c-0.00774,-0.00042 -0.01406,0.0014 -0.01406,0.00405c0,0.00264 0.01275,0.01511 0.02833,0.0277c0.02389,0.0193 0.02991,0.02011 0.03845,0.00512c0.00892,-0.01565 0.00723,-0.01885 -0.01427,-0.02693c-0.01341,-0.00505 -0.03071,-0.00952 -0.03845,-0.00993M2.43438,0.47236c-0.00572,-0.02118 -0.00901,-0.02565 -0.00916,-0.01244c-0.00012,0.01133 0.00391,0.03215 0.00896,0.04627c0.00505,0.01411 0.00917,0.01971 0.00916,0.01244c-0.00001,-0.00727 -0.00404,-0.02809 -0.00896,-0.04627M0.77342,0.46461c-0.00172,-0.00364 -0.00494,0.00342 -0.00717,0.01568c-0.00222,0.01226 -0.00264,0.02527 -0.00092,0.0289c0.00172,0.00364 0.00494,-0.00342 0.00717,-0.01568c0.00223,-0.01226 0.00264,-0.02527 0.00092,-0.0289M2.44126,1.91346c-0.00123,0 -0.00565,0.00873 -0.00983,0.01938c-0.00418,0.01067 -0.00653,0.02622 -0.00522,0.03456c0.00132,0.00834 0.00574,-0.00038 0.00983,-0.0194c0.00409,-0.019 0.00644,-0.03455 0.00522,-0.03455M1.24768,2.95898c-0.00913,0.00071 -0.01036,0.00334 -0.00392,0.0084c0.00516,0.00405 0.015,0.01347 0.02187,0.02096c0.01118,0.01215 0.01159,0.01126 0.00392,-0.0084c-0.00472,-0.0121 -0.01456,-0.02152 -0.02187,-0.02096M1.95493,2.95793c-0.00531,0 -0.01351,0.0099 -0.01823,0.022c-0.00784,0.02012 -0.00724,0.02053 0.00705,0.00481c0.00859,-0.00944 0.0168,-0.01934 0.01823,-0.02199c0.00143,-0.00266 -0.00174,-0.00483 -0.00705,-0.00483" fill="#000000" fill-rule="evenodd"></path></g><path d="M0,1.5v-1.5h3v1.5z" fill="#d3d3d3" fill-rule="evenodd" stroke="#ff0000" stroke-width="0.005"></path></g></svg>