<svg version="1.1" xmlns="http://www.w3.org/2000/svg" xmlns:xlink="http://www.w3.org/1999/xlink" width="3in" height="1.5in" viewBox="0 0 3.05 1.55"><g fill="none" fill-rule="none" stroke="none" stroke-width="none" stroke-linecap="butt" stroke-linejoin="miter" stroke-miterlimit="10" stroke-dasharray="" stroke-dashoffset="0" font-family="none" font-weight="none" font-size="none" text-anchor="none" style="mix-blend-mode: normal"><path d="M0.25,1.25l0,-1l2.5,0v1z" fill="none" fill-rule="nonzero" stroke="none" stroke-width="1"></path><path d="M0,1.5v-1.5h3v1.5zM0.96169,0.75169c0.02915,0.02915 0.02031,0.07431 -0.01769,0.09031l-0.04027,0.01696c-0.03687,0.01552 -0.10573,0.00704 -0.13773,-0.01696l-0.0727,-0.05453c-0.01165,-0.00874 -0.0273,-0.03147 -0.0313,-0.04547l-0.004,-0.014c-0.004,-0.014 0.00148,-0.03905 0.01095,-0.05011l0.05305,-0.06189c0.024,-0.028 0.07408,-0.02992 0.10015,-0.00385zM2.638,0.382c0.006,0.004 0.012,0.01521 0.012,0.02242v0.04558c0,0.02 -0.01623,0.05169 -0.03246,0.06337l-0.20131,0.14494c-0.00812,0.00584 -0.02623,0.01169 -0.03623,0.01169h-0.01c-0.01,0 -0.01868,-0.00991 -0.01736,-0.01982l0.0252,-0.18898c0.00608,-0.0456 0.05816,-0.09119 0.10416,-0.09119h0.12358c0.00721,0 0.02042,0.004 0.02642,0.008zM1.844,0.762c0.008,0.014 0.00088,0.0336 -0.01424,0.0392l-0.21323,0.07898c-0.01326,0.00491 -0.03652,-0.00018 -0.04652,-0.01018l-0.01,-0.01c-0.01,-0.01 -0.01298,-0.03228 -0.00597,-0.04456l0.00997,-0.01744c0.008,-0.014 0.03179,-0.03129 0.04757,-0.03458l0.17686,-0.03685c0.01579,-0.00329 0.03957,0.00742 0.04757,0.02142zM2.15582,0.65639c-0.00291,0.02181 -0.02782,0.04361 -0.04982,0.04361h-0.022c-0.022,0 -0.05532,-0.01886 -0.06664,-0.03773l-0.04873,-0.08121c-0.00932,-0.01553 -0.02064,-0.04906 -0.02264,-0.06706l-0.00255,-0.02295c-0.00172,-0.01552 0.00655,-0.04305 0.01655,-0.05505l0.01,-0.012c0.01,-0.012 0.03562,-0.024 0.05124,-0.024h0.08876c0.04,0 0.07471,0.03965 0.06943,0.0793zM1.43151,0.28717c0.00424,0.00141 0.00449,0.00483 0.00049,0.00683l-0.004,0.002c-0.004,0.002 -0.01,0 -0.012,-0.004l-0.002,-0.004c-0.002,-0.004 0.00024,-0.00659 0.00449,-0.00517zM0.74,0.268c0,0.006 -0.0048,0.0084 -0.0096,0.0048l-0.0176,-0.0132c-0.0064,-0.0048 -0.0048,-0.0096 0.0032,-0.0096l0.012,0c0.006,0 0.012,0.006 0.012,0.012zM0.68749,1.02636c0.01626,0.01182 0.03451,0.04364 0.03651,0.06364l0.002,0.02c0.002,0.02 -0.0161,0.04 -0.0362,0.04h-0.12859c-0.04561,0 -0.06321,-0.036 -0.03521,-0.072l0.0506,-0.06505c0.0167,-0.02147 0.0554,-0.02695 0.0774,-0.01095zM1.82,0.286c-0.01,0.012 -0.03418,0.01745 -0.04837,0.01091l-0.04963,-0.02291c-0.026,-0.012 -0.02336,-0.024 0.00527,-0.024l0.09149,0c0.01562,0 0.02124,0.012 0.01124,0.024zM1.836,1.094c0.002,0.028 -0.02407,0.056 -0.05214,0.056h-0.11474c-0.01456,0 -0.02512,-0.014 -0.02112,-0.028l0.004,-0.014c0.004,-0.014 0.02146,-0.03354 0.03493,-0.03909l0.09116,-0.03754c0.02596,-0.01069 0.05391,0.00662 0.05591,0.03462zM1.38777,0.63638c0.00611,0.01681 0.00423,0.04962 -0.00377,0.06562l-0.01148,0.02296c-0.00626,0.01252 -0.02652,0.02504 -0.04052,0.02504h-0.014c-0.014,0 -0.02557,-0.01379 -0.02313,-0.02757l0.02203,-0.12481c0.00155,-0.00881 0.01111,-0.02162 0.01911,-0.02562l0.008,-0.004c0.008,-0.004 0.01906,0.00041 0.02211,0.00881zM0.33,0.686c0.02,0.012 0.01985,0.03575 -0.00029,0.0475l-0.03825,0.02231c-0.02073,0.01209 -0.04146,0.00019 -0.04146,-0.02381l0,-0.06306c0,-0.00447 0.004,-0.01094 0.008,-0.01294l0.004,-0.002c0.004,-0.002 0.01183,-0.0017 0.01567,0.0006zM2.65,0.78567c0,0.01217 -0.012,0.02633 -0.024,0.02833l-0.01926,0.00321c-0.00837,0.00139 -0.02274,-0.00321 -0.02874,-0.00921l-0.006,-0.006c-0.006,-0.006 -0.00494,-0.01671 0.00212,-0.02141l0.04925,-0.03284c0.01331,-0.00888 0.02663,-0.00175 0.02663,0.01425zM2.17382,1.09222c0.00809,0.02889 -0.01382,0.05778 -0.04382,0.05778h-0.03c-0.03,0 -0.0612,-0.02998 -0.0624,-0.05995l-0.00616,-0.15408c-0.00072,-0.01799 0.01656,-0.03597 0.03456,-0.03597h0.018c0.018,0 0.04085,0.01733 0.04571,0.03467zM2.428,0.936c0.016,0.022 0.03823,0.07048 0.04446,0.09696l0.01838,0.0781c0.00458,0.01947 -0.01084,0.03894 -0.03084,0.03894h-0.02c-0.02,0 -0.04549,-0.01923 -0.05099,-0.03846l-0.06242,-0.21846c-0.0033,-0.01154 0.00541,-0.02308 0.01741,-0.02308h0.012c0.012,0 0.03106,0.0097 0.03812,0.01941zM0.56646,0.40294c0.02677,0.01853 0.03154,0.06106 0.00954,0.08506l-0.022,0.024c-0.022,0.024 -0.07277,0.03277 -0.10155,0.01753l-0.05204,-0.02755c-0.0302,-0.01599 -0.07241,-0.06398 -0.08441,-0.09598l-0.0346,-0.09225c-0.0007,-0.00187 0.0006,-0.00375 0.0026,-0.00375h0.002c0.002,0 0.00563,-0.00116 0.00725,-0.00232l0.03875,-0.02768c0.014,-0.01 0.04215,-0.01021 0.05629,-0.00041zM1.114,1.08988c0.008,0.03006 -0.0151,0.06012 -0.04621,0.06012h-0.10179c-0.018,0 -0.036,-0.018 -0.036,-0.036v-0.018c0,-0.018 0.01684,-0.04235 0.03369,-0.04869l0.0681,-0.02566c0.02911,-0.01097 0.06621,0.00812 0.07421,0.03818zM0.33499,1.00126c-0.0075,0.00937 -0.01499,0.00674 -0.01499,-0.00526v-0.012c0,-0.012 0.01073,-0.02937 0.02147,-0.03473l0.02653,-0.01327c0.016,-0.008 0.02083,-0.00203 0.00965,0.01194zM1.73267,0.49679c0.00366,0.0016 0.00733,0.00721 0.00733,0.01121v0.004c0,0.004 -0.00384,0.00913 -0.00767,0.01026l-0.12099,0.03559c-0.02067,0.00608 -0.04933,-0.00784 -0.05733,-0.02784l-0.01449,-0.03622c-0.00476,-0.01189 0.00049,-0.03178 0.01049,-0.03978l0.01,-0.008c0.01,-0.008 0.03173,-0.01087 0.04347,-0.00573zM1.328,0.946c0.016,0.002 0.0434,0.0154 0.0548,0.0268l0.04835,0.04835c0.01442,0.01442 0.02484,0.04884 0.02084,0.06884l-0.00494,0.0247c-0.00353,0.01765 -0.02506,0.0353 -0.04306,0.0353h-0.018c-0.018,0 -0.04169,-0.01708 -0.04738,-0.03415l-0.04842,-0.14525c-0.0051,-0.0153 0.0058,-0.02859 0.0218,-0.02659zM1.08927,0.53642c0.00537,0.00179 0.01473,0.00758 0.01873,0.01158l0.004,0.004c0.004,0.004 0.00707,0.01358 0.00614,0.01916l-0.00414,0.02484c-0.002,0.012 -0.01218,0.015 -0.02037,0.006l-0.05811,-0.06392c-0.01276,-0.01404 -0.00753,-0.02208 0.01047,-0.01608z" fill="#000000" fill-rule="evenodd" stroke="#000000" stroke-width="0.005"></path></g></svg>