<svg version="1.1" xmlns="http://www.w3.org/2000/svg" xmlns:xlink="http://www.w3.org/1999/xlink" width="3in" height="1.5in" viewBox="0 0 3.05 1.55"><g fill="none" fill-rule="none" stroke="none" stroke-width="none" stroke-linecap="butt" stroke-linejoin="miter" stroke-miterlimit="10" stroke-dasharray="" stroke-dashoffset="0" font-family="none" font-weight="none" font-size="none" text-anchor="none" style="mix-blend-mode: normal"><path d="M0.25,1.25l0,-1l2.5,0v1z" fill="none" fill-rule="nonzero" stroke="none" stroke-width="1"></path><path d="M0,1.5v-1.5h3v1.5zM0.25,1.25v-0.0099c0.0157,0.00331 0.03123,0.00661 0.0466,0.0099zM0.25,1.06522c0.44796,0.0685 0.77582,0.13009 1.01713,0.18478l-0.28428,0c-0.18518,-0.04331 -0.42301,-0.09096 -0.73286,-0.14293zM0.87314,1.05c0.65402,0.07991 1.10087,0.14564 1.39872,0.2h-0.26569c-0.28932,-0.05436 -0.72906,-0.12009 -1.38304,-0.2c-0.11766,-0.01438 -0.24225,-0.02921 -0.37314,-0.04446v-0.02894c0.22363,0.02554 0.43221,0.05007 0.62314,0.0734zM0.25,0.90045c1.12225,0.13757 1.80304,0.25408 2.22083,0.34955h-0.28428c-0.37367,-0.08815 -0.96477,-0.19424 -1.93655,-0.31829zM0.25,0.83115c1.10685,0.14925 1.90759,0.29509 2.48066,0.41885h-0.29286c-0.52195,-0.11407 -1.221,-0.24689 -2.1878,-0.38386zM0.25,0.76821c0.95087,0.13775 1.79891,0.28376 2.5,0.41547l0,0.05611c-0.69146,-0.13371 -1.53316,-0.28686 -2.5,-0.43317zM0.25,0.70769c0.87328,0.1304 1.73242,0.27141 2.5,0.40369l0,0.05108c-0.76161,-0.13326 -1.61828,-0.27838 -2.5,-0.41439zM0.25,0.60765c0.91055,0.11306 1.75415,0.23977 2.5,0.36436l0,0.04775c-0.73423,-0.12821 -1.57315,-0.26086 -2.5,-0.38044zM2.01533,0.75c0.25903,0.03176 0.50367,0.06353 0.73467,0.09511v0.03563c-0.30074,-0.04327 -0.62801,-0.087 -0.98467,-0.13074c-0.46317,-0.0568 -0.9759,-0.11361 -1.51533,-0.1694v-0.02673c0.62864,0.06432 1.22794,0.13023 1.76533,0.19613zM0.25,0.51776c0.88418,0.08507 1.74165,0.17133 2.5,0.25374v0.02777c-0.74614,-0.08219 -1.60597,-0.16887 -2.5,-0.25489zM0.25,0.47911c0.85155,0.08117 1.70221,0.16391 2.5,0.24405l0,0.02699c-0.79226,-0.07951 -1.64386,-0.16211 -2.5,-0.2436zM0.25,0.40002c0.84587,0.07654 1.69858,0.1561 2.5,0.23471v0.02604c-0.79503,-0.07818 -1.64892,-0.15775 -2.5,-0.23476zM0.25,0.32087c0.83295,0.07041 1.68651,0.14619 2.5,0.22443v0.02518c-0.80628,-0.07821 -1.66131,-0.1543 -2.5,-0.22541zM0.25,0.25l0.10059,0c0.77542,0.06063 1.59048,0.12976 2.39941,0.20735v0.02474c-0.83574,-0.08154 -1.68828,-0.15416 -2.5,-0.21781zM1.37597,0.25c0.43667,0.03626 0.89553,0.07756 1.37403,0.12473l0,0.0251c-0.57162,-0.05777 -1.12038,-0.10727 -1.63945,-0.14983z" fill="#000000" fill-rule="evenodd" stroke="#000000" stroke-width="0.005"></path></g></svg>