<svg version="1.1" xmlns="http://www.w3.org/2000/svg" xmlns:xlink="http://www.w3.org/1999/xlink" width="3in" height="3in" viewBox="0 0 3.05 3.05"><g fill="none" fill-rule="none" stroke="none" stroke-width="none" stroke-linecap="butt" stroke-linejoin="miter" stroke-miterlimit="10" stroke-dasharray="" stroke-dashoffset="0" font-family="none" font-weight="none" font-size="none" text-anchor="none" style="mix-blend-mode: normal"><path d="M0.25,2.75l0,-2.5l2.5,0v2.5z" fill="none" fill-rule="nonzero" stroke="none" stroke-width="1"></path><path d="M0,3v-3h3v3zM1.38647,1.56782c0,-0.02211 0.01793,-0.04004 0.04004,-0.04004c0.02211,0 0.04004,0.01793 0.04004,0.04004c0,0.02211 -0.01793,0.04004 -0.04004,0.04004c-0.02211,0 -0.04004,-0.01793 -0.04004,-0.04004zM1.4713,1.35903c0,-0.02211 0.01793,-0.04004 0.04004,-0.04004c0.02211,0 0.04004,0.01793 0.04004,0.04004c0,0.02211 -0.01793,0.04004 -0.04004,0.04004c-0.02211,0 -0.04004,-0.01793 -0.04004,-0.04004zM1.56683,1.6363c0,-0.02211 0.01793,-0.04004 0.04004,-0.04004c0.02211,0 0.04004,0.01793 0.04004,0.04004c0,0.02211 -0.01793,0.04004 -0.04004,0.04004c-0.02211,0 -0.04004,-0.01793 -0.04004,-0.04004zM1.26253,1.46802c0,-0.02211 0.01793,-0.04004 0.04004,-0.04004c0.02211,0 0.04004,0.01793 0.04004,0.04004c0,0.02211 -0.01793,0.04004 -0.04004,0.04004c-0.02211,0 -0.04004,-0.01793 -0.04004,-0.04004zM1.64642,1.37658c0,-0.02211 0.01793,-0.04004 0.04004,-0.04004c0.02211,0 0.04004,0.01793 0.04004,0.04004c0,0.02211 -0.01793,0.04004 -0.04004,0.04004c-0.02211,0 -0.04004,-0.01793 -0.04004,-0.04004zM1.40153,1.73788c0,-0.02211 0.01793,-0.04004 0.04004,-0.04004c0.02211,0 0.04004,0.01793 0.04004,0.04004c0,0.02211 -0.01793,0.04004 -0.04004,0.04004c-0.02211,0 -0.04004,-0.01793 -0.04004,-0.04004zM1.3321,1.26837c0,-0.02211 0.01793,-0.04004 0.04004,-0.04004c0.02211,0 0.04004,0.01793 0.04004,0.04004c0,0.02211 -0.01793,0.04004 -0.04004,0.04004c-0.02211,0 -0.04004,-0.01793 -0.04004,-0.04004zM1.72834,1.58928c0,-0.02211 0.01793,-0.04004 0.04004,-0.04004c0.02211,0 0.04004,0.01793 0.04004,0.04004c0,0.02211 -0.01793,0.04004 -0.04004,0.04004c-0.02211,0 -0.04004,-0.01793 -0.04004,-0.04004zM1.18654,1.62345c0,-0.02211 0.01793,-0.04004 0.04004,-0.04004c0.02211,0 0.04004,0.01793 0.04004,0.04004c0,0.02211 -0.01793,0.04004 -0.04004,0.04004c-0.02211,0 -0.04004,-0.01793 -0.04004,-0.04004zM1.58352,1.20891c0,-0.02211 0.01793,-0.04004 0.04004,-0.04004c0.02211,0 0.04004,0.01793 0.04004,0.04004c0,0.02211 -0.01793,0.04004 -0.04004,0.04004c-0.02211,0 -0.04004,-0.01793 -0.04004,-0.04004zM1.57176,1.81225c0,-0.02211 0.01793,-0.04004 0.04004,-0.04004c0.02211,0 0.04004,0.01793 0.04004,0.04004c0,0.02211 -0.01793,0.04004 -0.04004,0.04004c-0.02211,0 -0.04004,-0.01793 -0.04004,-0.04004zM1.15297,1.33951c0,-0.02211 0.01793,-0.04004 0.04004,-0.04004c0.02211,0 0.04004,0.01793 0.04004,0.04004c0,0.02211 -0.01793,0.04004 -0.04004,0.04004c-0.02211,0 -0.04004,-0.01793 -0.04004,-0.04004zM1.80807,1.40607c0,-0.02211 0.01793,-0.04004 0.04004,-0.04004c0.02211,0 0.04004,0.01793 0.04004,0.04004c0,0.02211 -0.01793,0.04004 -0.04004,0.04004c-0.02211,0 -0.04004,-0.01793 -0.04004,-0.04004zM1.26058,1.81662c0,-0.02211 0.01793,-0.04004 0.04004,-0.04004c0.02211,0 0.04004,0.01793 0.04004,0.04004c0,0.02211 -0.01793,0.04004 -0.04004,0.04004c-0.02211,0 -0.04004,-0.01793 -0.04004,-0.04004zM1.38938,1.11919c0,-0.02211 0.01793,-0.04004 0.04004,-0.04004c0.02211,0 0.04004,0.01793 0.04004,0.04004c0,0.02211 -0.01793,0.04004 -0.04004,0.04004c-0.02211,0 -0.04004,-0.01793 -0.04004,-0.04004zM1.78025,1.73961c0,-0.02211 0.01793,-0.04004 0.04004,-0.04004c0.02211,0 0.04004,0.01793 0.04004,0.04004c0,0.02211 -0.01793,0.04004 -0.04004,0.04004c-0.02211,0 -0.04004,-0.01793 -0.04004,-0.04004zM1.04983,1.54238c0,-0.02211 0.01793,-0.04004 0.04004,-0.04004c0.02211,0 0.04004,0.01793 0.04004,0.04004c0,0.02211 -0.01793,0.04004 -0.04004,0.04004c-0.02211,0 -0.04004,-0.01793 -0.04004,-0.04004zM1.74053,1.18175c0,-0.02211 0.01793,-0.04004 0.04004,-0.04004c0.02211,0 0.04004,0.01793 0.04004,0.04004c0,0.02211 -0.01793,0.04004 -0.04004,0.04004c-0.02211,0 -0.04004,-0.01793 -0.04004,-0.04004zM1.46985,1.93578c0,-0.02211 0.01793,-0.04004 0.04004,-0.04004c0.02211,0 0.04004,0.01793 0.04004,0.04004c0,0.02211 -0.01793,0.04004 -0.04004,0.04004c-0.02211,0 -0.04004,-0.01793 -0.04004,-0.04004zM1.1493,1.1783c0,-0.02211 0.01793,-0.04004 0.04004,-0.04004c0.02211,0 0.04004,0.01793 0.04004,0.04004c0,0.02211 -0.01793,0.04004 -0.04004,0.04004c-0.02211,0 -0.04004,-0.01793 -0.04004,-0.04004zM1.91746,1.52638c0,-0.02211 0.01793,-0.04004 0.04004,-0.04004c0.02211,0 0.04004,0.01793 0.04004,0.04004c0,0.02211 -0.01793,0.04004 -0.04004,0.04004c-0.02211,0 -0.04004,-0.01793 -0.04004,-0.04004zM1.09752,1.79772c0,-0.02211 0.01793,-0.04004 0.04004,-0.04004c0.02211,0 0.04004,0.01793 0.04004,0.04004c0,0.02211 -0.01793,0.04004 -0.04004,0.04004c-0.02211,0 -0.04004,-0.01793 -0.04004,-0.04004zM1.52588,1.02497c0,-0.02211 0.01793,-0.04004 0.04004,-0.04004c0.02211,0 0.04004,0.01793 0.04004,0.04004c0,0.02211 -0.01793,0.04004 -0.04004,0.04004c-0.02211,0 -0.04004,-0.01793 -0.04004,-0.04004zM1.73955,1.90228c0,-0.02211 0.01793,-0.04004 0.04004,-0.04004c0.02211,0 0.04004,0.01793 0.04004,0.04004c0,0.02211 -0.01793,0.04004 -0.04004,0.04004c-0.02211,0 -0.04004,-0.01793 -0.04004,-0.04004zM0.97181,1.39178c0,-0.02211 0.01793,-0.04004 0.04004,-0.04004c0.02211,0 0.04004,0.01793 0.04004,0.04004c0,0.02211 -0.01793,0.04004 -0.04004,0.04004c-0.02211,0 -0.04004,-0.01793 -0.04004,-0.04004zM1.90066,1.24351c0,-0.02211 0.01793,-0.04004 0.04004,-0.04004c0.02211,0 0.04004,0.01793 0.04004,0.04004c0,0.02211 -0.01793,0.04004 -0.04004,0.04004c-0.02211,0 -0.04004,-0.01793 -0.04004,-0.04004zM1.30717,1.99664c0,-0.02211 0.01793,-0.04004 0.04004,-0.04004c0.02211,0 0.04004,0.01793 0.04004,0.04004c0,0.02211 -0.01793,0.04004 -0.04004,0.04004c-0.02211,0 -0.04004,-0.01793 -0.04004,-0.04004zM1.23132,1.0228c0,-0.02211 0.01793,-0.04004 0.04004,-0.04004c0.02211,0 0.04004,0.01793 0.04004,0.04004c0,0.02211 -0.01793,0.04004 -0.04004,0.04004c-0.02211,0 -0.04004,-0.01793 -0.04004,-0.04004zM1.96031,1.69911c0,-0.02211 0.01793,-0.04004 0.04004,-0.04004c0.02211,0 0.04004,0.01793 0.04004,0.04004c0,0.02211 -0.01793,0.04004 -0.04004,0.04004c-0.02211,0 -0.04004,-0.01793 -0.04004,-0.04004zM0.94862,1.69629c0,-0.02211 0.01793,-0.04004 0.04004,-0.04004c0.02211,0 0.04004,0.01793 0.04004,0.04004c0,0.02211 -0.01793,0.04004 -0.04004,0.04004c-0.02211,0 -0.04004,-0.01793 -0.04004,-0.04004zM1.70665,1.00086c0,-0.02211 0.01793,-0.04004 0.04004,-0.04004c0.02211,0 0.04004,0.01793 0.04004,0.04004c0,0.02211 -0.01793,0.04004 -0.04004,0.04004c-0.02211,0 -0.04004,-0.01793 -0.04004,-0.04004zM1.61968,2.04267c0,-0.02211 0.01793,-0.04004 0.04004,-0.04004c0.02211,0 0.04004,0.01793 0.04004,0.04004c0,0.02211 -0.01793,0.04004 -0.04004,0.04004c-0.02211,0 -0.04004,-0.01793 -0.04004,-0.04004zM0.96704,1.20499c0,-0.02211 0.01793,-0.04004 0.04004,-0.04004c0.02211,0 0.04004,0.01793 0.04004,0.04004c0,0.02211 -0.01793,0.04004 -0.04004,0.04004c-0.02211,0 -0.04004,-0.01793 -0.04004,-0.04004zM2.03073,1.38076c0,-0.02211 0.01793,-0.04004 0.04004,-0.04004c0.02211,0 0.04004,0.01793 0.04004,0.04004c0,0.02211 -0.01793,0.04004 -0.04004,0.04004c-0.02211,0 -0.04004,-0.01793 -0.04004,-0.04004zM1.11641,1.98164c0,-0.02211 0.01793,-0.04004 0.04004,-0.04004c0.02211,0 0.04004,0.01793 0.04004,0.04004c0,0.02211 -0.01793,0.04004 -0.04004,0.04004c-0.02211,0 -0.04004,-0.01793 -0.04004,-0.04004zM1.38476,0.90473c0,-0.02211 0.01793,-0.04004 0.04004,-0.04004c0.02211,0 0.04004,0.01793 0.04004,0.04004c0,0.02211 -0.01793,0.04004 -0.04004,0.04004c-0.02211,0 -0.04004,-0.01793 -0.04004,-0.04004zM1.92524,1.89181c0,-0.02211 0.01793,-0.04004 0.04004,-0.04004c0.02211,0 0.04004,0.01793 0.04004,0.04004c0,0.02211 -0.01793,0.04004 -0.04004,0.04004c-0.02211,0 -0.04004,-0.01793 -0.04004,-0.04004zM0.84415,1.52796c0,-0.02211 0.01793,-0.04004 0.04004,-0.04004c0.02211,0 0.04004,0.01793 0.04004,0.04004c0,0.02211 -0.01793,0.04004 -0.04004,0.04004c-0.02211,0 -0.04004,-0.01793 -0.04004,-0.04004zM1.89923,1.05611c0,-0.02211 0.01793,-0.04004 0.04004,-0.04004c0.02211,0 0.04004,0.01793 0.04004,0.04004c0,0.02211 -0.01793,0.04004 -0.04004,0.04004c-0.02211,0 -0.04004,-0.01793 -0.04004,-0.04004zM1.43789,2.13207c0,-0.02211 0.01793,-0.04004 0.04004,-0.04004c0.02211,0 0.04004,0.01793 0.04004,0.04004c0,0.02211 -0.01793,0.04004 -0.04004,0.04004c-0.02211,0 -0.04004,-0.01793 -0.04004,-0.04004zM1.04241,1.01456c0,-0.02211 0.01793,-0.04004 0.04004,-0.04004c0.02211,0 0.04004,0.01793 0.04004,0.04004c0,0.02211 -0.01793,0.04004 -0.04004,0.04004c-0.02211,0 -0.04004,-0.01793 -0.04004,-0.04004zM2.10374,1.57449c0,-0.02211 0.01793,-0.04004 0.04004,-0.04004c0.02211,0 0.04004,0.01793 0.04004,0.04004c0,0.02211 -0.01793,0.04004 -0.04004,0.04004c-0.02211,0 -0.04004,-0.01793 -0.04004,-0.04004zM0.93013,1.88636c0,-0.02211 0.01793,-0.04004 0.04004,-0.04004c0.02211,0 0.04004,0.01793 0.04004,0.04004c0,0.02211 -0.01793,0.04004 -0.04004,0.04004c-0.02211,0 -0.04004,-0.01793 -0.04004,-0.04004zM1.5888,0.84931c0,-0.02211 0.01793,-0.04004 0.04004,-0.04004c0.02211,0 0.04004,0.01793 0.04004,0.04004c0,0.02211 -0.01793,0.04004 -0.04004,0.04004c-0.02211,0 -0.04004,-0.01793 -0.04004,-0.04004zM1.81046,2.07197c0,-0.02211 0.01793,-0.04004 0.04004,-0.04004c0.02211,0 0.04004,0.01793 0.04004,0.04004c0,0.02211 -0.01793,0.04004 -0.04004,0.04004c-0.02211,0 -0.04004,-0.01793 -0.04004,-0.04004zM0.80735,1.31533c0,-0.02211 0.01793,-0.04004 0.04004,-0.04004c0.02211,0 0.04004,0.01793 0.04004,0.04004c0,0.02211 -0.01793,0.04004 -0.04004,0.04004c-0.02211,0 -0.04004,-0.01793 -0.04004,-0.04004zM2.07135,1.18983c0,-0.02211 0.01793,-0.04004 0.04004,-0.04004c0.02211,0 0.04004,0.01793 0.04004,0.04004c0,0.02211 -0.01793,0.04004 -0.04004,0.04004c-0.02211,0 -0.04004,-0.01793 -0.04004,-0.04004zM1.21846,2.14937c0,-0.02211 0.01793,-0.04004 0.04004,-0.04004c0.02211,0 0.04004,0.01793 0.04004,0.04004c0,0.02211 -0.01793,0.04004 -0.04004,0.04004c-0.02211,0 -0.04004,-0.01793 -0.04004,-0.04004zM1.19434,0.85235c0,-0.02211 0.01793,-0.04004 0.04004,-0.04004c0.02211,0 0.04004,0.01793 0.04004,0.04004c0,0.02211 -0.01793,0.04004 -0.04004,0.04004c-0.02211,0 -0.04004,-0.01793 -0.04004,-0.04004zM2.10082,1.79884c0,-0.02211 0.01793,-0.04004 0.04004,-0.04004c0.02211,0 0.04004,0.01793 0.04004,0.04004c0,0.02211 -0.01793,0.04004 -0.04004,0.04004c-0.02211,0 -0.04004,-0.01793 -0.04004,-0.04004zM0.77962,1.71712c0,-0.02211 0.01793,-0.04004 0.04004,-0.04004c0.02211,0 0.04004,0.01793 0.04004,0.04004c0,0.02211 -0.01793,0.04004 -0.04004,0.04004c-0.02211,0 -0.04004,-0.01793 -0.04004,-0.04004zM1.81615,0.873c0,-0.02211 0.01793,-0.04004 0.04004,-0.04004c0.02211,0 0.04004,0.01793 0.04004,0.04004c0,0.02211 -0.01793,0.04004 -0.04004,0.04004c-0.02211,0 -0.04004,-0.01793 -0.04004,-0.04004zM1.62496,2.20907c0,-0.02211 0.01793,-0.04004 0.04004,-0.04004c0.02211,0 0.04004,0.01793 0.04004,0.04004c0,0.02211 -0.01793,0.04004 -0.04004,0.04004c-0.02211,0 -0.04004,-0.01793 -0.04004,-0.04004zM0.85218,1.08695c0,-0.02211 0.01793,-0.04004 0.04004,-0.04004c0.02211,0 0.04004,0.01793 0.04004,0.04004c0,0.02211 -0.01793,0.04004 -0.04004,0.04004c-0.02211,0 -0.04004,-0.01793 -0.04004,-0.04004zM2.19343,1.39038c0,-0.02211 0.01793,-0.04004 0.04004,-0.04004c0.02211,0 0.04004,0.01793 0.04004,0.04004c0,0.02211 -0.01793,0.04004 -0.04004,0.04004c-0.02211,0 -0.04004,-0.01793 -0.04004,-0.04004zM0.99105,2.0832c0,-0.02211 0.01793,-0.04004 0.04004,-0.04004c0.02211,0 0.04004,0.01793 0.04004,0.04004c0,0.02211 -0.01793,0.04004 -0.04004,0.04004c-0.02211,0 -0.04004,-0.01793 -0.04004,-0.04004zM1.40861,0.74676c0,-0.02211 0.01793,-0.04004 0.04004,-0.04004c0.02211,0 0.04004,0.01793 0.04004,0.04004c0,0.02211 -0.01793,0.04004 -0.04004,0.04004c-0.02211,0 -0.04004,-0.01793 -0.04004,-0.04004zM2.0133,2.02327c0,-0.02211 0.01793,-0.04004 0.04004,-0.04004c0.02211,0 0.04004,0.01793 0.04004,0.04004c0,0.02211 -0.01793,0.04004 -0.04004,0.04004c-0.02211,0 -0.04004,-0.01793 -0.04004,-0.04004zM0.6919,1.49062c0,-0.02211 0.01793,-0.04004 0.04004,-0.04004c0.02211,0 0.04004,0.01793 0.04004,0.04004c0,0.02211 -0.01793,0.04004 -0.04004,0.04004c-0.02211,0 -0.04004,-0.01793 -0.04004,-0.04004zM2.0356,0.98169c0,-0.02211 0.01793,-0.04004 0.04004,-0.04004c0.02211,0 0.04004,0.01793 0.04004,0.04004c0,0.02211 -0.01793,0.04004 -0.04004,0.04004c-0.02211,0 -0.04004,-0.01793 -0.04004,-0.04004zM1.38782,2.27769c0,-0.02211 0.01793,-0.04004 0.04004,-0.04004c0.02211,0 0.04004,0.01793 0.04004,0.04004c0,0.02211 -0.01793,0.04004 -0.04004,0.04004c-0.02211,0 -0.04004,-0.01793 -0.04004,-0.04004zM0.98171,0.87448c0,-0.02211 0.01793,-0.04004 0.04004,-0.04004c0.02211,0 0.04004,0.01793 0.04004,0.04004c0,0.02211 -0.01793,0.04004 -0.04004,0.04004c-0.02211,0 -0.04004,-0.01793 -0.04004,-0.04004zM2.24187,1.63646c0,-0.02211 0.01793,-0.04004 0.04004,-0.04004c0.02211,0 0.04004,0.01793 0.04004,0.04004c0,0.02211 -0.01793,0.04004 -0.04004,0.04004c-0.02211,0 -0.04004,-0.01793 -0.04004,-0.04004zM0.78751,1.93337c0,-0.02211 0.01793,-0.04004 0.04004,-0.04004c0.02211,0 0.04004,0.01793 0.04004,0.04004c0,0.02211 -0.01793,0.04004 -0.04004,0.04004c-0.02211,0 -0.04004,-0.01793 -0.04004,-0.04004zM1.66182,0.71945c0,-0.02211 0.01793,-0.04004 0.04004,-0.04004c0.02211,0 0.04004,0.01793 0.04004,0.04004c0,0.02211 -0.01793,0.04004 -0.04004,0.04004c-0.02211,0 -0.04004,-0.01793 -0.04004,-0.04004zM1.84386,2.21597c0,-0.02211 0.01793,-0.04004 0.04004,-0.04004c0.02211,0 0.04004,0.01793 0.04004,0.04004c0,0.02211 -0.01793,0.04004 -0.04004,0.04004c-0.02211,0 -0.04004,-0.01793 -0.04004,-0.04004zM0.68649,1.23216c0,-0.02211 0.01793,-0.04004 0.04004,-0.04004c0.02211,0 0.04004,0.01793 0.04004,0.04004c0,0.02211 -0.01793,0.04004 -0.04004,0.04004c-0.02211,0 -0.04004,-0.01793 -0.04004,-0.04004zM2.21561,1.16986c0,-0.02211 0.01793,-0.04004 0.04004,-0.04004c0.02211,0 0.04004,0.01793 0.04004,0.04004c0,0.02211 -0.01793,0.04004 -0.04004,0.04004c-0.02211,0 -0.04004,-0.01793 -0.04004,-0.04004zM1.12608,2.26061c0,-0.02211 0.01793,-0.04004 0.04004,-0.04004c0.02211,0 0.04004,0.01793 0.04004,0.04004c0,0.02211 -0.01793,0.04004 -0.04004,0.04004c-0.02211,0 -0.04004,-0.01793 -0.04004,-0.04004zM1.18757,0.70892c0,-0.02211 0.01793,-0.04004 0.04004,-0.04004c0.02211,0 0.04004,0.01793 0.04004,0.04004c0,0.02211 -0.01793,0.04004 -0.04004,0.04004c-0.02211,0 -0.04004,-0.01793 -0.04004,-0.04004zM2.20186,1.89947c0,-0.02211 0.01793,-0.04004 0.04004,-0.04004c0.02211,0 0.04004,0.01793 0.04004,0.04004c0,0.02211 -0.01793,0.04004 -0.04004,0.04004c-0.02211,0 -0.04004,-0.01793 -0.04004,-0.04004zM0.63809,1.71102c0,-0.02211 0.01793,-0.04004 0.04004,-0.04004c0.02211,0 0.04004,0.01793 0.04004,0.04004c0,0.02211 -0.01793,0.04004 -0.04004,0.04004c-0.02211,0 -0.04004,-0.01793 -0.04004,-0.04004zM1.92405,0.78263c0,-0.02211 0.01793,-0.04004 0.04004,-0.04004c0.02211,0 0.04004,0.01793 0.04004,0.04004c0,0.02211 -0.01793,0.04004 -0.04004,0.04004c-0.02211,0 -0.04004,-0.01793 -0.04004,-0.04004zM1.60638,2.34768c0,-0.02211 0.01793,-0.04004 0.04004,-0.04004c0.02211,0 0.04004,0.01793 0.04004,0.04004c0,0.02211 -0.01793,0.04004 -0.04004,0.04004c-0.02211,0 -0.04004,-0.01793 -0.04004,-0.04004zM0.7729,0.9728c0,-0.02211 0.01793,-0.04004 0.04004,-0.04004c0.02211,0 0.04004,0.01793 0.04004,0.04004c0,0.02211 -0.01793,0.04004 -0.04004,0.04004c-0.02211,0 -0.04004,-0.01793 -0.04004,-0.04004zM2.32815,1.42099c0,-0.02211 0.01793,-0.04004 0.04004,-0.04004c0.02211,0 0.04004,0.01793 0.04004,0.04004c0,0.02211 -0.01793,0.04004 -0.04004,0.04004c-0.02211,0 -0.04004,-0.01793 -0.04004,-0.04004zM0.87166,2.15108c0,-0.02211 0.01793,-0.04004 0.04004,-0.04004c0.02211,0 0.04004,0.01793 0.04004,0.04004c0,0.02211 -0.01793,0.04004 -0.04004,0.04004c-0.02211,0 -0.04004,-0.01793 -0.04004,-0.04004zM1.45071,0.61687c0,-0.02211 0.01793,-0.04004 0.04004,-0.04004c0.02211,0 0.04004,0.01793 0.04004,0.04004c0,0.02211 -0.01793,0.04004 -0.04004,0.04004c-0.02211,0 -0.04004,-0.01793 -0.04004,-0.04004zM2.06953,2.14686c0,-0.02211 0.01793,-0.04004 0.04004,-0.04004c0.02211,0 0.04004,0.01793 0.04004,0.04004c0,0.02211 -0.01793,0.04004 -0.04004,0.04004c-0.02211,0 -0.04004,-0.01793 -0.04004,-0.04004zM0.56771,1.43761c0,-0.02211 0.01793,-0.04004 0.04004,-0.04004c0.02211,0 0.04004,0.01793 0.04004,0.04004c0,0.02211 -0.01793,0.04004 -0.04004,0.04004c-0.02211,0 -0.04004,-0.01793 -0.04004,-0.04004zM2.16235,0.93728c0,-0.02211 0.01793,-0.04004 0.04004,-0.04004c0.02211,0 0.04004,0.01793 0.04004,0.04004c0,0.02211 -0.01793,0.04004 -0.04004,0.04004c-0.02211,0 -0.04004,-0.01793 -0.04004,-0.04004zM1.32455,2.39536c0,-0.02211 0.01793,-0.04004 0.04004,-0.04004c0.02211,0 0.04004,0.01793 0.04004,0.04004c0,0.02211 -0.01793,0.04004 -0.04004,0.04004c-0.02211,0 -0.04004,-0.01793 -0.04004,-0.04004zM0.94919,0.7456c0,-0.02211 0.01793,-0.04004 0.04004,-0.04004c0.02211,0 0.04004,0.01793 0.04004,0.04004c0,0.02211 -0.01793,0.04004 -0.04004,0.04004c-0.02211,0 -0.04004,-0.01793 -0.04004,-0.04004zM2.35226,1.70929c0,-0.02211 0.01793,-0.04004 0.04004,-0.04004c0.02211,0 0.04004,0.01793 0.04004,0.04004c0,0.02211 -0.01793,0.04004 -0.04004,0.04004c-0.02211,0 -0.04004,-0.01793 -0.04004,-0.04004zM0.65753,1.95399c0,-0.02211 0.01793,-0.04004 0.04004,-0.04004c0.02211,0 0.04004,0.01793 0.04004,0.04004c0,0.02211 -0.01793,0.04004 -0.04004,0.04004c-0.02211,0 -0.04004,-0.01793 -0.04004,-0.04004zM1.74345,0.61703c0,-0.02211 0.01793,-0.04004 0.04004,-0.04004c0.02211,0 0.04004,0.01793 0.04004,0.04004c0,0.02211 -0.01793,0.04004 -0.04004,0.04004c-0.02211,0 -0.04004,-0.01793 -0.04004,-0.04004zM1.85268,2.34603c0,-0.02211 0.01793,-0.04004 0.04004,-0.04004c0.02211,0 0.04004,0.01793 0.04004,0.04004c0,0.02211 -0.01793,0.04004 -0.04004,0.04004c-0.02211,0 -0.04004,-0.01793 -0.04004,-0.04004zM0.59266,1.14252c0,-0.02211 0.01793,-0.04004 0.04004,-0.04004c0.02211,0 0.04004,0.01793 0.04004,0.04004c0,0.02211 -0.01793,0.04004 -0.04004,0.04004c-0.02211,0 -0.04004,-0.01793 -0.04004,-0.04004zM2.34476,1.1727c0,-0.02211 0.01793,-0.04004 0.04004,-0.04004c0.02211,0 0.04004,0.01793 0.04004,0.04004c0,0.02211 -0.01793,0.04004 -0.04004,0.04004c-0.02211,0 -0.04004,-0.01793 -0.04004,-0.04004zM1.02927,2.34528c0,-0.02211 0.01793,-0.04004 0.04004,-0.04004c0.02211,0 0.04004,0.01793 0.04004,0.04004c0,0.02211 -0.01793,0.04004 -0.04004,0.04004c-0.02211,0 -0.04004,-0.01793 -0.04004,-0.04004zM1.20182,0.58165c0,-0.02211 0.01793,-0.04004 0.04004,-0.04004c0.02211,0 0.04004,0.01793 0.04004,0.04004c0,0.02211 -0.01793,0.04004 -0.04004,0.04004c-0.02211,0 -0.04004,-0.01793 -0.04004,-0.04004zM2.27691,2.00259c0,-0.02211 0.01793,-0.04004 0.04004,-0.04004c0.02211,0 0.04004,0.01793 0.04004,0.04004c0,0.02211 -0.01793,0.04004 -0.04004,0.04004c-0.02211,0 -0.04004,-0.01793 -0.04004,-0.04004zM0.51364,1.68566c0,-0.02211 0.01793,-0.04004 0.04004,-0.04004c0.02211,0 0.04004,0.01793 0.04004,0.04004c0,0.02211 -0.01793,0.04004 -0.04004,0.04004c-0.02211,0 -0.04004,-0.01793 -0.04004,-0.04004zM2.03257,0.71762c0,-0.02211 0.01793,-0.04004 0.04004,-0.04004c0.02211,0 0.04004,0.01793 0.04004,0.04004c0,0.02211 -0.01793,0.04004 -0.04004,0.04004c-0.02211,0 -0.04004,-0.01793 -0.04004,-0.04004zM1.5703,2.46841c0,-0.02211 0.01793,-0.04004 0.04004,-0.04004c0.02211,0 0.04004,0.01793 0.04004,0.04004c0,0.02211 -0.01793,0.04004 -0.04004,0.04004c-0.02211,0 -0.04004,-0.01793 -0.04004,-0.04004zM0.71826,0.85978c0,-0.02211 0.01793,-0.04004 0.04004,-0.04004c0.02211,0 0.04004,0.01793 0.04004,0.04004c0,0.02211 -0.01793,0.04004 -0.04004,0.04004c-0.02211,0 -0.04004,-0.01793 -0.04004,-0.04004zM2.4443,1.46735c0,-0.02211 0.01793,-0.04004 0.04004,-0.04004c0.02211,0 0.04004,0.01793 0.04004,0.04004c0,0.02211 -0.01793,0.04004 -0.04004,0.04004c-0.02211,0 -0.04004,-0.01793 -0.04004,-0.04004zM0.75509,2.1951c0,-0.02211 0.01793,-0.04004 0.04004,-0.04004c0.02211,0 0.04004,0.01793 0.04004,0.04004c0,0.02211 -0.01793,0.04004 -0.04004,0.04004c-0.02211,0 -0.04004,-0.01793 -0.04004,-0.04004zM1.50683,0.50612c0,-0.02211 0.01793,-0.04004 0.04004,-0.04004c0.02211,0 0.04004,0.01793 0.04004,0.04004c0,0.02211 -0.01793,0.04004 -0.04004,0.04004c-0.02211,0 -0.04004,-0.01793 -0.04004,-0.04004zM2.10275,2.26604c0,-0.02211 0.01793,-0.04004 0.04004,-0.04004c0.02211,0 0.04004,0.01793 0.04004,0.04004c0,0.02211 -0.01793,0.04004 -0.04004,0.04004c-0.02211,0 -0.04004,-0.01793 -0.04004,-0.04004zM0.46312,1.3723c0,-0.02211 0.01793,-0.04004 0.04004,-0.04004c0.02211,0 0.04004,0.01793 0.04004,0.04004c0,0.02211 -0.01793,0.04004 -0.04004,0.04004c-0.02211,0 -0.04004,-0.01793 -0.04004,-0.04004zM2.2832,0.91495c0,-0.02211 0.01793,-0.04004 0.04004,-0.04004c0.02211,0 0.04004,0.01793 0.04004,0.04004c0,0.02211 -0.01793,0.04004 -0.04004,0.04004c-0.02211,0 -0.04004,-0.01793 -0.04004,-0.04004zM1.25069,2.49308c0,-0.02211 0.01793,-0.04004 0.04004,-0.04004c0.02211,0 0.04004,0.01793 0.04004,0.04004c0,0.02211 -0.01793,0.04004 -0.04004,0.04004c-0.02211,0 -0.04004,-0.01793 -0.04004,-0.04004zM0.93778,0.62403c0,-0.02211 0.01793,-0.04004 0.04004,-0.04004c0.02211,0 0.04004,0.01793 0.04004,0.04004c0,0.02211 -0.01793,0.04004 -0.04004,0.04004c-0.02211,0 -0.04004,-0.01793 -0.04004,-0.04004zM2.44246,1.79103c0,-0.02211 0.01793,-0.04004 0.04004,-0.04004c0.02211,0 0.04004,0.01793 0.04004,0.04004c0,0.02211 -0.01793,0.04004 -0.04004,0.04004c-0.02211,0 -0.04004,-0.01793 -0.04004,-0.04004zM0.53618,1.95456c0,-0.02211 0.01793,-0.04004 0.04004,-0.04004c0.02211,0 0.04004,0.01793 0.04004,0.04004c0,0.02211 -0.01793,0.04004 -0.04004,0.04004c-0.02211,0 -0.04004,-0.01793 -0.04004,-0.04004zM1.83234,0.53495c0,-0.02211 0.01793,-0.04004 0.04004,-0.04004c0.02211,0 0.04004,0.01793 0.04004,0.04004c0,0.02211 -0.01793,0.04004 -0.04004,0.04004c-0.02211,0 -0.04004,-0.01793 -0.04004,-0.04004zM1.84253,2.46625c0,-0.02211 0.01793,-0.04004 0.04004,-0.04004c0.02211,0 0.04004,0.01793 0.04004,0.04004c0,0.02211 -0.01793,0.04004 -0.04004,0.04004c-0.02211,0 -0.04004,-0.01793 -0.04004,-0.04004zM0.51921,1.04725c0,-0.02211 0.01793,-0.04004 0.04004,-0.04004c0.02211,0 0.04004,0.01793 0.04004,0.04004c0,0.02211 -0.01793,0.04004 -0.04004,0.04004c-0.02211,0 -0.04004,-0.01793 -0.04004,-0.04004zM2.46294,1.19336c0,-0.02211 0.01793,-0.04004 0.04004,-0.04004c0.02211,0 0.04004,0.01793 0.04004,0.04004c0,0.02211 -0.01793,0.04004 -0.04004,0.04004c-0.02211,0 -0.04004,-0.01793 -0.04004,-0.04004zM0.92841,2.40964c0,-0.02211 0.01793,-0.04004 0.04004,-0.04004c0.02211,0 0.04004,0.01793 0.04004,0.04004c0,0.02211 -0.01793,0.04004 -0.04004,0.04004c-0.02211,0 -0.04004,-0.01793 -0.04004,-0.04004zM1.23271,0.46639c0,-0.02211 0.01793,-0.04004 0.04004,-0.04004c0.02211,0 0.04004,0.01793 0.04004,0.04004c0,0.02211 -0.01793,0.04004 -0.04004,0.04004c-0.02211,0 -0.04004,-0.01793 -0.04004,-0.04004zM2.33179,2.1082c0,-0.02211 0.01793,-0.04004 0.04004,-0.04004c0.02211,0 0.04004,0.01793 0.04004,0.04004c0,0.02211 -0.01793,0.04004 -0.04004,0.04004c-0.02211,0 -0.04004,-0.01793 -0.04004,-0.04004zM0.40213,1.6449c0,-0.02211 0.01793,-0.04004 0.04004,-0.04004c0.02211,0 0.04004,0.01793 0.04004,0.04004c0,0.02211 -0.01793,0.04004 -0.04004,0.04004c-0.02211,0 -0.04004,-0.01793 -0.04004,-0.04004zM2.14208,0.67252c0,-0.02211 0.01793,-0.04004 0.04004,-0.04004c0.02211,0 0.04004,0.01793 0.04004,0.04004c0,0.02211 -0.01793,0.04004 -0.04004,0.04004c-0.02211,0 -0.04004,-0.01793 -0.04004,-0.04004zM1.52008,2.57535c0,-0.02211 0.01793,-0.04004 0.04004,-0.04004c0.02211,0 0.04004,0.01793 0.04004,0.04004c0,0.02211 -0.01793,0.04004 -0.04004,0.04004c-0.02211,0 -0.04004,-0.01793 -0.04004,-0.04004zM0.68319,0.74726c0,-0.02211 0.01793,-0.04004 0.04004,-0.04004c0.02211,0 0.04004,0.01793 0.04004,0.04004c0,0.02211 -0.01793,0.04004 -0.04004,0.04004c-0.02211,0 -0.04004,-0.01793 -0.04004,-0.04004zM2.54591,1.52654c0,-0.02211 0.01793,-0.04004 0.04004,-0.04004c0.02211,0 0.04004,0.01793 0.04004,0.04004c0,0.02211 -0.01793,0.04004 -0.04004,0.04004c-0.02211,0 -0.04004,-0.01793 -0.04004,-0.04004zM0.64043,2.21998c0,-0.02211 0.01793,-0.04004 0.04004,-0.04004c0.02211,0 0.04004,0.01793 0.04004,0.04004c0,0.02211 -0.01793,0.04004 -0.04004,0.04004c-0.02211,0 -0.04004,-0.01793 -0.04004,-0.04004zM1.57447,0.41056c0,-0.02211 0.01793,-0.04004 0.04004,-0.04004c0.02211,0 0.04004,0.01793 0.04004,0.04004c0,0.02211 -0.01793,0.04004 -0.04004,0.04004c-0.02211,0 -0.04004,-0.01793 -0.04004,-0.04004zM2.11735,2.38195c0,-0.02211 0.01793,-0.04004 0.04004,-0.04004c0.02211,0 0.04004,0.01793 0.04004,0.04004c0,0.02211 -0.01793,0.04004 -0.04004,0.04004c-0.02211,0 -0.04004,-0.01793 -0.04004,-0.04004zM0.37427,1.29682c0,-0.02211 0.01793,-0.04004 0.04004,-0.04004c0.02211,0 0.04004,0.01793 0.04004,0.04004c0,0.02211 -0.01793,0.04004 -0.04004,0.04004c-0.02211,0 -0.04004,-0.01793 -0.04004,-0.04004zM2.39946,0.91065c0,-0.02211 0.01793,-0.04004 0.04004,-0.04004c0.02211,0 0.04004,0.01793 0.04004,0.04004c0,0.02211 -0.01793,0.04004 -0.04004,0.04004c-0.02211,0 -0.04004,-0.01793 -0.04004,-0.04004zM1.168,2.5746c0,-0.02211 0.01793,-0.04004 0.04004,-0.04004c0.02211,0 0.04004,0.01793 0.04004,0.04004c0,0.02211 -0.01793,0.04004 -0.04004,0.04004c-0.02211,0 -0.04004,-0.01793 -0.04004,-0.04004zM0.94371,0.50829c0,-0.02211 0.01793,-0.04004 0.04004,-0.04004c0.02211,0 0.04004,0.01793 0.04004,0.04004c0,0.02211 -0.01793,0.04004 -0.04004,0.04004c-0.02211,0 -0.04004,-0.01793 -0.04004,-0.04004zM2.5161,1.88023c0,-0.02211 0.01793,-0.04004 0.04004,-0.04004c0.02211,0 0.04004,0.01793 0.04004,0.04004c0,0.02211 -0.01793,0.04004 -0.04004,0.04004c-0.02211,0 -0.04004,-0.01793 -0.04004,-0.04004zM0.42184,1.93852c0,-0.02211 0.01793,-0.04004 0.04004,-0.04004c0.02211,0 0.04004,0.01793 0.04004,0.04004c0,0.02211 -0.01793,0.04004 -0.04004,0.04004c-0.02211,0 -0.04004,-0.01793 -0.04004,-0.04004zM1.92733,0.46968c0,-0.02211 0.01793,-0.04004 0.04004,-0.04004c0.02211,0 0.04004,0.01793 0.04004,0.04004c0,0.02211 -0.01793,0.04004 -0.04004,0.04004c-0.02211,0 -0.04004,-0.01793 -0.04004,-0.04004zM1.81659,2.57834c0,-0.02211 0.01793,-0.04004 0.04004,-0.04004c0.02211,0 0.04004,0.01793 0.04004,0.04004c0,0.02211 -0.01793,0.04004 -0.04004,0.04004c-0.02211,0 -0.04004,-0.01793 -0.04004,-0.04004zM0.46274,0.94723c0,-0.02211 0.01793,-0.04004 0.04004,-0.04004c0.02211,0 0.04004,0.01793 0.04004,0.04004c0,0.02211 -0.01793,0.04004 -0.04004,0.04004c-0.02211,0 -0.04004,-0.01793 -0.04004,-0.04004zM2.57195,1.22893c0,-0.02211 0.01793,-0.04004 0.04004,-0.04004c0.02211,0 0.04004,0.01793 0.04004,0.04004c0,0.02211 -0.01793,0.04004 -0.04004,0.04004c-0.02211,0 -0.04004,-0.01793 -0.04004,-0.04004zM0.82416,2.45695c0,-0.02211 0.01793,-0.04004 0.04004,-0.04004c0.02211,0 0.04004,0.01793 0.04004,0.04004c0,0.02211 -0.01793,0.04004 -0.04004,0.04004c-0.02211,0 -0.04004,-0.01793 -0.04004,-0.04004zM1.27756,0.36126c0,-0.02211 0.01793,-0.04004 0.04004,-0.04004c0.02211,0 0.04004,0.01793 0.04004,0.04004c0,0.02211 -0.01793,0.04004 -0.04004,0.04004c-0.02211,0 -0.04004,-0.01793 -0.04004,-0.04004zM2.36966,2.21586c0,-0.02211 0.01793,-0.04004 0.04004,-0.04004c0.02211,0 0.04004,0.01793 0.04004,0.04004c0,0.02211 -0.01793,0.04004 -0.04004,0.04004c-0.02211,0 -0.04004,-0.01793 -0.04004,-0.04004zM0.30165,1.59116c0,-0.02211 0.01793,-0.04004 0.04004,-0.04004c0.02211,0 0.04004,0.01793 0.04004,0.04004c0,0.02211 -0.01793,0.04004 -0.04004,0.04004c-0.02211,0 -0.04004,-0.01793 -0.04004,-0.04004zM2.25232,0.64433c0,-0.02211 0.01793,-0.04004 0.04004,-0.04004c0.02211,0 0.04004,0.01793 0.04004,0.04004c0,0.02211 -0.01793,0.04004 -0.04004,0.04004c-0.02211,0 -0.04004,-0.01793 -0.04004,-0.04004zM1.45792,2.67047c0,-0.02211 0.01793,-0.04004 0.04004,-0.04004c0.02211,0 0.04004,0.01793 0.04004,0.04004c0,0.02211 -0.01793,0.04004 -0.04004,0.04004c-0.02211,0 -0.04004,-0.01793 -0.04004,-0.04004zM0.66481,0.63528c0,-0.02211 0.01793,-0.04004 0.04004,-0.04004c0.02211,0 0.04004,0.01793 0.04004,0.04004c0,0.02211 -0.01793,0.04004 -0.04004,0.04004c-0.02211,0 -0.04004,-0.01793 -0.04004,-0.04004zM2.63498,1.5966c0,-0.02211 0.01793,-0.04004 0.04004,-0.04004c0.02211,0 0.04004,0.01793 0.04004,0.04004c0,0.02211 -0.01793,0.04004 -0.04004,0.04004c-0.02211,0 -0.04004,-0.01793 -0.04004,-0.04004zM0.52757,2.22846c0,-0.02211 0.01793,-0.04004 0.04004,-0.04004c0.02211,0 0.04004,0.01793 0.04004,0.04004c0,0.02211 -0.01793,0.04004 -0.04004,0.04004c-0.02211,0 -0.04004,-0.01793 -0.04004,-0.04004zM1.65185,0.32817c0,-0.02211 0.01793,-0.04004 0.04004,-0.04004c0.02211,0 0.04004,0.01793 0.04004,0.04004c0,0.02211 -0.01793,0.04004 -0.04004,0.04004c-0.02211,0 -0.04004,-0.01793 -0.04004,-0.04004zM2.11593,2.49484c0,-0.02211 0.01793,-0.04004 0.04004,-0.04004c0.02211,0 0.04004,0.01793 0.04004,0.04004c0,0.02211 -0.01793,0.04004 -0.04004,0.04004c-0.02211,0 -0.04004,-0.01793 -0.04004,-0.04004zM0.29915,1.21273c0,-0.02211 0.01793,-0.04004 0.04004,-0.04004c0.02211,0 0.04004,0.01793 0.04004,0.04004c0,0.02211 -0.01793,0.04004 -0.04004,0.04004c-0.02211,0 -0.04004,-0.01793 -0.04004,-0.04004zM2.51153,0.9219c0,-0.02211 0.01793,-0.04004 0.04004,-0.04004c0.02211,0 0.04004,0.01793 0.04004,0.04004c0,0.02211 -0.01793,0.04004 -0.04004,0.04004c-0.02211,0 -0.04004,-0.01793 -0.04004,-0.04004zM1.07787,2.64193c0,-0.02211 0.01793,-0.04004 0.04004,-0.04004c0.02211,0 0.04004,0.01793 0.04004,0.04004c0,0.02211 -0.01793,0.04004 -0.04004,0.04004c-0.02211,0 -0.04004,-0.01793 -0.04004,-0.04004zM0.96465,0.39788c0,-0.02211 0.01793,-0.04004 0.04004,-0.04004c0.02211,0 0.04004,0.01793 0.04004,0.04004c0,0.02211 -0.01793,0.04004 -0.04004,0.04004c-0.02211,0 -0.04004,-0.01793 -0.04004,-0.04004zM2.57518,1.97568c0,-0.02211 0.01793,-0.04004 0.04004,-0.04004c0.02211,0 0.04004,0.01793 0.04004,0.04004c0,0.02211 -0.01793,0.04004 -0.04004,0.04004c-0.02211,0 -0.04004,-0.01793 -0.04004,-0.04004zM0.3139,1.90809c0,-0.02211 0.01793,-0.04004 0.04004,-0.04004c0.02211,0 0.04004,0.01793 0.04004,0.04004c0,0.02211 -0.01793,0.04004 -0.04004,0.04004c-0.02211,0 -0.04004,-0.01793 -0.04004,-0.04004zM2.02737,0.41924c0,-0.02211 0.01793,-0.04004 0.04004,-0.04004c0.02211,0 0.04004,0.01793 0.04004,0.04004c0,0.02211 -0.01793,0.04004 -0.04004,0.04004c-0.02211,0 -0.04004,-0.01793 -0.04004,-0.04004zM1.77695,2.68301c0,-0.02211 0.01793,-0.04004 0.04004,-0.04004c0.02211,0 0.04004,0.01793 0.04004,0.04004c0,0.02211 -0.01793,0.04004 -0.04004,0.04004c-0.02211,0 -0.04004,-0.01793 -0.04004,-0.04004zM0.42128,0.84338c0,-0.02211 0.01793,-0.04004 0.04004,-0.04004c0.02211,0 0.04004,0.01793 0.04004,0.04004c0,0.02211 -0.01793,0.04004 -0.04004,0.04004c-0.02211,0 -0.04004,-0.01793 -0.04004,-0.04004zM2.67259,1.27744c0,-0.02211 0.01793,-0.04004 0.04004,-0.04004c0.01704,0 0.03159,0.01064 0.03737,0.02564l0,0.0288c-0.00578,0.015 -0.02034,0.02564 -0.03737,0.02564c-0.02211,0 -0.04004,-0.01793 -0.04004,-0.04004zM0.71728,2.48916c0,-0.02211 0.01793,-0.04004 0.04004,-0.04004c0.02211,0 0.04004,0.01793 0.04004,0.04004c0,0.02211 -0.01793,0.04004 -0.04004,0.04004c-0.02211,0 -0.04004,-0.01793 -0.04004,-0.04004zM1.33455,0.26539c0,-0.00545 0.00109,-0.01065 0.00306,-0.01539l0.07395,0c0.00197,0.00474 0.00306,0.00993 0.00306,0.01539c0,0.02211 -0.01793,0.04004 -0.04004,0.04004c-0.02211,0 -0.04004,-0.01793 -0.04004,-0.04004zM2.3924,2.32496c0,-0.02211 0.01793,-0.04004 0.04004,-0.04004c0.02211,0 0.04004,0.01793 0.04004,0.04004c0,0.02211 -0.01793,0.04004 -0.04004,0.04004c-0.02211,0 -0.04004,-0.01793 -0.04004,-0.04004zM0.25127,1.48612c0.02211,0 0.04004,0.01793 0.04004,0.04004c0,0.02211 -0.01793,0.04004 -0.04004,0.04004c-0.00043,0 -0.00085,-0.00001 -0.00127,-0.00002l0,-0.08004c0.00042,-0.00001 0.00085,-0.00002 0.00127,-0.00002zM2.36281,0.63117c0,-0.02211 0.01793,-0.04004 0.04004,-0.04004c0.02211,0 0.04004,0.01793 0.04004,0.04004c0,0.02211 -0.01793,0.04004 -0.04004,0.04004c-0.02211,0 -0.04004,-0.01793 -0.04004,-0.04004zM1.42545,2.71473c0.0205,0 0.0374,0.01541 0.03976,0.03527l-0.07952,0c0.00236,-0.01987 0.01926,-0.03527 0.03976,-0.03527zM0.6613,0.52422c0,-0.02211 0.01793,-0.04004 0.04004,-0.04004c0.02211,0 0.04004,0.01793 0.04004,0.04004c0,0.02211 -0.01793,0.04004 -0.04004,0.04004c-0.02211,0 -0.04004,-0.01793 -0.04004,-0.04004zM2.71256,1.67604c0,-0.02124 0.01654,-0.03862 0.03744,-0.03996v0.07991c-0.0209,-0.00134 -0.03744,-0.01872 -0.03744,-0.03996zM0.41678,2.22233c0,-0.02211 0.01793,-0.04004 0.04004,-0.04004c0.02211,0 0.04004,0.01793 0.04004,0.04004c0,0.02211 -0.01793,0.04004 -0.04004,0.04004c-0.02211,0 -0.04004,-0.01793 -0.04004,-0.04004zM1.73761,0.25786c0,-0.00269 0.00027,-0.00532 0.00077,-0.00786h0.07854c0.00051,0.00254 0.00077,0.00517 0.00077,0.00786c0,0.02211 -0.01793,0.04004 -0.04004,0.04004c-0.02211,0 -0.04004,-0.01793 -0.04004,-0.04004zM2.10025,2.60455c0,-0.02211 0.01793,-0.04004 0.04004,-0.04004c0.02211,0 0.04004,0.01793 0.04004,0.04004c0,0.02211 -0.01793,0.04004 -0.04004,0.04004c-0.02211,0 -0.04004,-0.01793 -0.04004,-0.04004zM0.27665,1.08127c0.02211,0 0.04004,0.01793 0.04004,0.04004c0,0.02211 -0.01793,0.04004 -0.04004,0.04004c-0.01023,0 -0.01957,-0.00384 -0.02665,-0.01015l0,-0.05977c0.00708,-0.00632 0.01641,-0.01015 0.02665,-0.01015zM2.61935,0.947c0,-0.02211 0.01793,-0.04004 0.04004,-0.04004c0.02211,0 0.04004,0.01793 0.04004,0.04004c0,0.02211 -0.01793,0.04004 -0.04004,0.04004c-0.02211,0 -0.04004,-0.01793 -0.04004,-0.04004zM0.98149,2.69627c0,-0.02211 0.01793,-0.04004 0.04004,-0.04004c0.02211,0 0.04004,0.01793 0.04004,0.04004c0,0.02211 -0.01793,0.04004 -0.04004,0.04004c-0.02211,0 -0.04004,-0.01793 -0.04004,-0.04004zM0.99895,0.29274c0,-0.02211 0.01793,-0.04004 0.04004,-0.04004c0.02211,0 0.04004,0.01793 0.04004,0.04004c0,0.02211 -0.01793,0.04004 -0.04004,0.04004c-0.02211,0 -0.04004,-0.01793 -0.04004,-0.04004zM2.62094,2.07631c0,-0.02211 0.01793,-0.04004 0.04004,-0.04004c0.02211,0 0.04004,0.01793 0.04004,0.04004c0,0.02211 -0.01793,0.04004 -0.04004,0.04004c-0.02211,0 -0.04004,-0.01793 -0.04004,-0.04004zM0.25225,1.82483c0.02211,0 0.04004,0.01793 0.04004,0.04004c0,0.02211 -0.01793,0.04004 -0.04004,0.04004c-0.00076,0 -0.00151,-0.00002 -0.00225,-0.00006l0,-0.07996c0.00075,-0.00004 0.0015,-0.00006 0.00225,-0.00006zM2.13149,0.38239c0,-0.02211 0.01793,-0.04004 0.04004,-0.04004c0.02211,0 0.04004,0.01793 0.04004,0.04004c0,0.02211 -0.01793,0.04004 -0.04004,0.04004c-0.02211,0 -0.04004,-0.01793 -0.04004,-0.04004zM1.76518,2.74046c0.0099,0 0.01895,0.00359 0.02594,0.00954h-0.05189c0.00699,-0.00595 0.01605,-0.00954 0.02594,-0.00954zM0.39359,0.73655c0,-0.02211 0.01793,-0.04004 0.04004,-0.04004c0.02211,0 0.04004,0.01793 0.04004,0.04004c0,0.02211 -0.01793,0.04004 -0.04004,0.04004c-0.02211,0 -0.04004,-0.01793 -0.04004,-0.04004zM0.60854,2.50752c0,-0.02211 0.01793,-0.04004 0.04004,-0.04004c0.02211,0 0.04004,0.01793 0.04004,0.04004c0,0.02211 -0.01793,0.04004 -0.04004,0.04004c-0.02211,0 -0.04004,-0.01793 -0.04004,-0.04004zM2.40131,2.4348c0,-0.02211 0.01793,-0.04004 0.04004,-0.04004c0.02211,0 0.04004,0.01793 0.04004,0.04004c0,0.02211 -0.01793,0.04004 -0.04004,0.04004c-0.02211,0 -0.04004,-0.01793 -0.04004,-0.04004zM2.47295,0.63176c0,-0.02211 0.01793,-0.04004 0.04004,-0.04004c0.02211,0 0.04004,0.01793 0.04004,0.04004c0,0.02211 -0.01793,0.04004 -0.04004,0.04004c-0.02211,0 -0.04004,-0.01793 -0.04004,-0.04004zM0.67136,0.41459c0,-0.02211 0.01793,-0.04004 0.04004,-0.04004c0.02211,0 0.04004,0.01793 0.04004,0.04004c0,0.02211 -0.01793,0.04004 -0.04004,0.04004c-0.02211,0 -0.04004,-0.01793 -0.04004,-0.04004zM0.30846,2.20288c0,-0.02211 0.01793,-0.04004 0.04004,-0.04004c0.02211,0 0.04004,0.01793 0.04004,0.04004c0,0.02211 -0.01793,0.04004 -0.04004,0.04004c-0.02211,0 -0.04004,-0.01793 -0.04004,-0.04004zM2.07156,2.71076c0,-0.02211 0.01793,-0.04004 0.04004,-0.04004c0.02211,0 0.04004,0.01793 0.04004,0.04004c0,0.01937 -0.01375,0.03553 -0.03203,0.03924h-0.01603c-0.01827,-0.00371 -0.03203,-0.01987 -0.03203,-0.03924zM0.26603,1.02367c0,0.01311 -0.0063,0.02474 -0.01603,0.03204l0,-0.06409c0.00973,0.0073 0.01603,0.01894 0.01603,0.03204zM2.72268,0.98469c0,-0.01767 0.01144,-0.03266 0.02732,-0.03798v0.07596c-0.01588,-0.00532 -0.02732,-0.02031 -0.02732,-0.03798zM0.87988,2.73835c0,-0.02211 0.01793,-0.04004 0.04004,-0.04004c0.02211,0 0.04004,0.01793 0.04004,0.04004c0,0.00405 -0.0006,0.00797 -0.00172,0.01165l-0.07664,0c-0.00112,-0.00369 -0.00172,-0.0076 -0.00172,-0.01165zM2.65413,2.18114c0,-0.02211 0.01793,-0.04004 0.04004,-0.04004c0.02211,0 0.04004,0.01793 0.04004,0.04004c0,0.02211 -0.01793,0.04004 -0.04004,0.04004c-0.02211,0 -0.04004,-0.01793 -0.04004,-0.04004zM2.23877,0.35831c0,-0.02211 0.01793,-0.04004 0.04004,-0.04004c0.02211,0 0.04004,0.01793 0.04004,0.04004c0,0.02211 -0.01793,0.04004 -0.04004,0.04004c-0.02211,0 -0.04004,-0.01793 -0.04004,-0.04004zM0.37879,0.62761c0,-0.02211 0.01793,-0.04004 0.04004,-0.04004c0.02211,0 0.04004,0.01793 0.04004,0.04004c0,0.02211 -0.01793,0.04004 -0.04004,0.04004c-0.02211,0 -0.04004,-0.01793 -0.04004,-0.04004zM0.49873,2.51293c0,-0.02211 0.01793,-0.04004 0.04004,-0.04004c0.02211,0 0.04004,0.01793 0.04004,0.04004c0,0.02211 -0.01793,0.04004 -0.04004,0.04004c-0.02211,0 -0.04004,-0.01793 -0.04004,-0.04004zM2.39731,2.54469c0,-0.02211 0.01793,-0.04004 0.04004,-0.04004c0.02211,0 0.04004,0.01793 0.04004,0.04004c0,0.02211 -0.01793,0.04004 -0.04004,0.04004c-0.02211,0 -0.04004,-0.01793 -0.04004,-0.04004zM2.58211,0.64515c0,-0.02211 0.01793,-0.04004 0.04004,-0.04004c0.02211,0 0.04004,0.01793 0.04004,0.04004c0,0.02211 -0.01793,0.04004 -0.04004,0.04004c-0.02211,0 -0.04004,-0.01793 -0.04004,-0.04004zM0.69404,0.30695c0,-0.02211 0.01793,-0.04004 0.04004,-0.04004c0.02211,0 0.04004,0.01793 0.04004,0.04004c0,0.02211 -0.01793,0.04004 -0.04004,0.04004c-0.02211,0 -0.04004,-0.01793 -0.04004,-0.04004zM0.2832,2.17109c0,0.01978 -0.01435,0.03621 -0.0332,0.03946l0,-0.07892c0.01886,0.00324 0.0332,0.01968 0.0332,0.03946zM0.81405,2.72861c0.01538,0 0.02874,0.00867 0.03544,0.02139l-0.07088,0c0.00671,-0.01272 0.02006,-0.02139 0.03544,-0.02139zM2.67531,2.28926c0,-0.02211 0.01793,-0.04004 0.04004,-0.04004c0.0148,0 0.02772,0.00803 0.03465,0.01996v0.04015c-0.00693,0.01194 -0.01985,0.01996 -0.03465,0.01996c-0.02211,0 -0.04004,-0.01793 -0.04004,-0.04004zM2.34834,0.34641c0,-0.02211 0.01793,-0.04004 0.04004,-0.04004c0.02211,0 0.04004,0.01793 0.04004,0.04004c0,0.02211 -0.01793,0.04004 -0.04004,0.04004c-0.02211,0 -0.04004,-0.01793 -0.04004,-0.04004zM0.37626,0.51736c0,-0.02211 0.01793,-0.04004 0.04004,-0.04004c0.02211,0 0.04004,0.01793 0.04004,0.04004c0,0.02211 -0.01793,0.04004 -0.04004,0.04004c-0.02211,0 -0.04004,-0.01793 -0.04004,-0.04004zM0.3886,2.50607c0,-0.02211 0.01793,-0.04004 0.04004,-0.04004c0.02211,0 0.04004,0.01793 0.04004,0.04004c0,0.02211 -0.01793,0.04004 -0.04004,0.04004c-0.02211,0 -0.04004,-0.01793 -0.04004,-0.04004zM2.38111,2.6539c0,-0.02211 0.01793,-0.04004 0.04004,-0.04004c0.02211,0 0.04004,0.01793 0.04004,0.04004c0,0.02211 -0.01793,0.04004 -0.04004,0.04004c-0.02211,0 -0.04004,-0.01793 -0.04004,-0.04004zM2.68962,0.67058c0,-0.02211 0.01793,-0.04004 0.04004,-0.04004c0.00742,0 0.01438,0.00202 0.02034,0.00554v0.06899c-0.00596,0.00352 -0.01291,0.00554 -0.02034,0.00554c-0.02211,0 -0.04004,-0.01793 -0.04004,-0.04004zM0.70482,2.74747c0.00494,0 0.00967,0.00089 0.01404,0.00253h-0.02807c0.00437,-0.00164 0.0091,-0.00253 0.01404,-0.00253zM2.68486,2.39978c0,-0.02211 0.01793,-0.04004 0.04004,-0.04004c0.0095,0 0.01823,0.00331 0.0251,0.00884v0.0624c-0.00687,0.00553 -0.01559,0.00884 -0.0251,0.00884c-0.02211,0 -0.04004,-0.01793 -0.04004,-0.04004zM2.45938,0.34624c0,-0.02211 0.01793,-0.04004 0.04004,-0.04004c0.02211,0 0.04004,0.01793 0.04004,0.04004c0,0.02211 -0.01793,0.04004 -0.04004,0.04004c-0.02211,0 -0.04004,-0.01793 -0.04004,-0.04004zM0.38549,0.40661c0,-0.02211 0.01793,-0.04004 0.04004,-0.04004c0.02211,0 0.04004,0.01793 0.04004,0.04004c0,0.02211 -0.01793,0.04004 -0.04004,0.04004c-0.02211,0 -0.04004,-0.01793 -0.04004,-0.04004zM0.27892,2.4875c0,-0.02211 0.01793,-0.04004 0.04004,-0.04004c0.02211,0 0.04004,0.01793 0.04004,0.04004c0,0.02211 -0.01793,0.04004 -0.04004,0.04004c-0.02211,0 -0.04004,-0.01793 -0.04004,-0.04004zM2.39335,2.72168c0.01804,0 0.03329,0.01193 0.0383,0.02832h-0.0766c0.00501,-0.0164 0.02026,-0.02832 0.0383,-0.02832zM2.68311,2.51188c0,-0.02211 0.01793,-0.04004 0.04004,-0.04004c0.01033,0 0.01975,0.00391 0.02685,0.01033v0.05941c-0.0071,0.00642 -0.01652,0.01033 -0.02685,0.01033c-0.02211,0 -0.04004,-0.01793 -0.04004,-0.04004zM2.57106,0.35743c0,-0.02211 0.01793,-0.04004 0.04004,-0.04004c0.02211,0 0.04004,0.01793 0.04004,0.04004c0,0.02211 -0.01793,0.04004 -0.04004,0.04004c-0.02211,0 -0.04004,-0.01793 -0.04004,-0.04004zM0.40606,0.29614c0,-0.02211 0.01793,-0.04004 0.04004,-0.04004c0.02211,0 0.04004,0.01793 0.04004,0.04004c0,0.02211 -0.01793,0.04004 -0.04004,0.04004c-0.02211,0 -0.04004,-0.01793 -0.04004,-0.04004zM0.25052,2.45768c0,0.00221 -0.00018,0.00438 -0.00052,0.0065l0,-0.01299c0.00034,0.00211 0.00052,0.00428 0.00052,0.0065zM2.67032,2.62474c0,-0.02211 0.01793,-0.04004 0.04004,-0.04004c0.02019,0 0.03688,0.01494 0.03964,0.03436l0,0.01136c-0.00276,0.01942 -0.01945,0.03436 -0.03964,0.03436c-0.02211,0 -0.04004,-0.01793 -0.04004,-0.04004zM2.6826,0.37966c0,-0.02211 0.01793,-0.04004 0.04004,-0.04004c0.01058,0 0.02021,0.0041 0.02736,0.01081v0.05846c-0.00716,0.0067 -0.01678,0.01081 -0.02736,0.01081c-0.02211,0 -0.04004,-0.01793 -0.04004,-0.04004zM0.36548,2.7378c0.0113,0 0.0215,0.00468 0.02878,0.0122l-0.05756,0c0.00728,-0.00752 0.01748,-0.0122 0.02878,-0.0122zM2.64674,2.73756c0,-0.02211 0.01793,-0.04004 0.04004,-0.04004c0.02211,0 0.04004,0.01793 0.04004,0.04004c0,0.00434 -0.00069,0.00852 -0.00197,0.01244h-0.07614c-0.00128,-0.00392 -0.00197,-0.0081 -0.00197,-0.01244zM0.25119,2.71314c0.02104,0 0.03829,0.01623 0.03992,0.03686h-0.0411v-0.03684c0.00039,-0.00001 0.00079,-0.00002 0.00119,-0.00002z" fill="#000000" fill-rule="evenodd" stroke="#000000" stroke-width="0.005"></path></g></svg>