<!--

Built on 2024-03-28T23:31:49.311Z



## Param string


## Generated From
n/a

-->

<svg version="1.1" xmlns="http://www.w3.org/2000/svg" xmlns:xlink="http://www.w3.org/1999/xlink" width="3in" height="1.5in" viewBox="0 0 3.05 1.55"><g fill="none" fill-rule="none" stroke="none" stroke-width="none" stroke-linecap="butt" stroke-linejoin="miter" stroke-miterlimit="10" stroke-dasharray="" stroke-dashoffset="0" font-family="none" font-weight="none" font-size="none" text-anchor="none" style="mix-blend-mode: normal"><path d="M0.2,1.3l0,-1.1l2.6,0l0,1.1z" fill="none" fill-rule="nonzero" stroke="none" stroke-width="1"></path><path d="M0,1.5v-1.5h3v1.5zM0.93765,0.78578c0.02267,0.02061 0.01675,0.05222 -0.01185,0.06322l-0.18893,0.07267c-0.01993,0.00767 -0.05747,0.00323 -0.07507,-0.00887l-0.11484,-0.07895c-0.01298,-0.00892 -0.03256,-0.03215 -0.03916,-0.04645l-0.0396,-0.0858c-0.0066,-0.0143 -0.00243,-0.04009 0.00834,-0.05158l0.11046,-0.11782c0.0165,-0.0176 0.05085,-0.01897 0.0687,-0.00274zM2.53955,0.65842c-0.00277,0.00179 -0.00885,0.00358 -0.01215,0.00358h-0.0198c-0.0033,0 -0.00613,-0.00327 -0.00567,-0.00653l0.05636,-0.39449c0.00436,-0.03049 0.03951,-0.06098 0.07031,-0.06098h0.1714v0.29039zM1.96845,0.7985c0.00227,0.00325 0.00235,0.0098 0.00015,0.0131l-0.0132,0.0198c-0.0022,0.0033 -0.00817,0.00782 -0.01195,0.00904l-0.30958,0.09986c-0.01194,0.00385 -0.03377,0 -0.04367,-0.0077l-0.0594,-0.0462c-0.0099,-0.0077 -0.01335,-0.02615 -0.00689,-0.03691l0.03989,-0.06649c0.0066,-0.011 0.02576,-0.0246 0.03832,-0.0272l0.26758,-0.05536c0.01315,-0.00272 0.034,0.00556 0.0417,0.01656zM2.27285,0.68418c-0.00142,0.01091 -0.01385,0.02182 -0.02485,0.02182h-0.066c-0.011,0 -0.0281,-0.00915 -0.0342,-0.01831l-0.0758,-0.11369c-0.011,-0.0165 -0.02637,-0.05234 -0.03074,-0.07169l-0.05286,-0.23411c-0.0077,-0.0341 0.01956,-0.0682 0.05452,-0.0682l0.22048,0c0.0363,0 0.0679,0.036 0.06321,0.07199zM0.5606,1.1174c0.0132,0.0088 0.02746,0.03343 0.02851,0.04926l0.00669,0.10034c0.0011,0.0165 -0.01434,0.033 -0.03087,0.033l-0.25329,0c-0.03282,0 -0.04473,-0.0253 -0.02383,-0.0506l0.14699,-0.17794c0.0101,-0.01223 0.03341,-0.01566 0.04661,-0.00686zM1.9158,1.256c0.0011,0.022 -0.01983,0.044 -0.04185,0.044l-0.19059,0c-0.01468,0 -0.02605,-0.0143 -0.02275,-0.0286l0.0198,-0.0858c0.0033,-0.0143 0.02045,-0.03345 0.0343,-0.0383l0.15071,-0.05275c0.02079,-0.00728 0.04268,0.00745 0.04378,0.02945zM1.38758,0.62225c0.00671,0.01438 0.00462,0.04195 -0.00418,0.05515l-0.06056,0.09084c-0.00492,0.00738 -0.01864,0.01366 -0.02744,0.01256l-0.0528,-0.0066c-0.0088,-0.0011 -0.01545,-0.0108 -0.0133,-0.01941l0.05977,-0.2391c0.00096,-0.00385 0.00522,-0.0099 0.00852,-0.0121l0.0198,-0.0132c0.0033,-0.0022 0.00828,-0.00081 0.00995,0.00279zM2.33309,1.26058c0.00696,0.01971 -0.00699,0.03942 -0.02789,0.03942l-0.1254,0c-0.0209,0 -0.04319,-0.02085 -0.04458,-0.04171l-0.01839,-0.27588c-0.00041,-0.00621 0.00357,-0.01682 0.00797,-0.02122l0.02742,-0.02742c0.00389,-0.00389 0.01328,-0.00778 0.01878,-0.00778h0.033c0.0055,0 0.01283,0.00519 0.01466,0.01037zM2.6088,1.0052c0.0121,0.0154 0.03039,0.04938 0.03659,0.06796l0.06657,0.19971c0.00452,0.01357 -0.00526,0.02713 -0.01956,0.02713l-0.0858,0c-0.0143,0 -0.03334,-0.01349 -0.03808,-0.02698l-0.12836,-0.36534c-0.00258,-0.00734 0.00254,-0.01578 0.01024,-0.01688l0.0462,-0.0066c0.0077,-0.0011 0.02021,0.00392 0.02501,0.01003zM0.5474,0.244c-0.0022,0.0055 -0.0085,0.01528 -0.0126,0.01955l-0.22117,0.23079c-0.01182,0.01233 -0.04013,0.02026 -0.05663,0.01586l-0.057,-0.0152l0,-0.295l0.35315,0c0.00592,0 0.00965,0.0055 0.00745,0.011zM1.0644,1.2538c0.0088,0.0231 -0.00712,0.0462 -0.03184,0.0462l-0.18149,0c-0.01654,0 -0.03417,-0.0165 -0.03527,-0.033l-0.0066,-0.099c-0.0011,-0.0165 0.01339,-0.0385 0.02899,-0.04401l0.11841,-0.04179c0.0187,-0.0066 0.04446,0.00533 0.05152,0.02386zM0.2218,0.7324c0.0121,0.0033 0.02946,0.01799 0.03471,0.02938l0.04229,0.09162c0.0066,0.0143 0.0027,0.04034 -0.0078,0.05207l-0.091,0.1017l0,-0.28072zM1.79953,0.44194c0.00424,0.02203 -0.01353,0.04846 -0.03553,0.05286l-0.14115,0.02823c-0.01743,0.00349 -0.04145,-0.00953 -0.04805,-0.02603l-0.0396,-0.099c-0.0066,-0.0165 0.00102,-0.04366 0.01523,-0.05433l0.18981,-0.14235c0.00088,-0.00066 0.00286,-0.00132 0.00396,-0.00132l0.0066,0c0.0011,0 0.00241,0.00108 0.00262,0.00216zM1.2998,1.0008c0.0121,0.0011 0.03383,0.00961 0.04346,0.01702l0.09514,0.07318c0.0143,0.011 0.02546,0.03977 0.02233,0.05753l-0.02291,0.1298c-0.00191,0.01083 -0.01482,0.02167 -0.02582,0.02167l-0.066,0c-0.011,0 -0.02602,-0.01024 -0.03004,-0.02048l-0.10407,-0.26491c-0.00444,-0.01131 0.00321,-0.02152 0.01531,-0.02042z" fill="#d3d3d3" fill-rule="evenodd" stroke="#ff0000" stroke-width="0.005"></path></g></svg>