<!--

Built on 2024-03-26T17:17:44.166Z



## Param string


-->

<svg version="1.1" xmlns="http://www.w3.org/2000/svg" xmlns:xlink="http://www.w3.org/1999/xlink" width="3in" height="1.5in" viewBox="0 0 3.05 1.55"><g fill="none" fill-rule="none" stroke="none" stroke-width="none" stroke-linecap="butt" stroke-linejoin="miter" stroke-miterlimit="10" stroke-dasharray="" stroke-dashoffset="0" font-family="none" font-weight="none" font-size="none" text-anchor="none" style="mix-blend-mode: normal"><path d="M0.25,1.25l0,-1l2.5,0v1z" fill="none" fill-rule="nonzero" stroke="none" stroke-width="1"></path><path d="M0,1.5v-1.5h3v1.5zM1.38647,0.81782c0,-0.02211 0.01793,-0.04004 0.04004,-0.04004c0.02211,0 0.04004,0.01793 0.04004,0.04004c0,0.02211 -0.01793,0.04004 -0.04004,0.04004c-0.02211,0 -0.04004,-0.01793 -0.04004,-0.04004zM1.4713,0.60903c0,-0.02211 0.01793,-0.04004 0.04004,-0.04004c0.02211,0 0.04004,0.01793 0.04004,0.04004c0,0.02211 -0.01793,0.04004 -0.04004,0.04004c-0.02211,0 -0.04004,-0.01793 -0.04004,-0.04004zM1.56683,0.8863c0,-0.02211 0.01793,-0.04004 0.04004,-0.04004c0.02211,0 0.04004,0.01793 0.04004,0.04004c0,0.02211 -0.01793,0.04004 -0.04004,0.04004c-0.02211,0 -0.04004,-0.01793 -0.04004,-0.04004zM1.26253,0.71802c0,-0.02211 0.01793,-0.04004 0.04004,-0.04004c0.02211,0 0.04004,0.01793 0.04004,0.04004c0,0.02211 -0.01793,0.04004 -0.04004,0.04004c-0.02211,0 -0.04004,-0.01793 -0.04004,-0.04004zM1.64642,0.62658c0,-0.02211 0.01793,-0.04004 0.04004,-0.04004c0.02211,0 0.04004,0.01793 0.04004,0.04004c0,0.02211 -0.01793,0.04004 -0.04004,0.04004c-0.02211,0 -0.04004,-0.01793 -0.04004,-0.04004zM1.40153,0.98788c0,-0.02211 0.01793,-0.04004 0.04004,-0.04004c0.02211,0 0.04004,0.01793 0.04004,0.04004c0,0.02211 -0.01793,0.04004 -0.04004,0.04004c-0.02211,0 -0.04004,-0.01793 -0.04004,-0.04004zM1.3321,0.51837c0,-0.02211 0.01793,-0.04004 0.04004,-0.04004c0.02211,0 0.04004,0.01793 0.04004,0.04004c0,0.02211 -0.01793,0.04004 -0.04004,0.04004c-0.02211,0 -0.04004,-0.01793 -0.04004,-0.04004zM1.72834,0.83928c0,-0.02211 0.01793,-0.04004 0.04004,-0.04004c0.02211,0 0.04004,0.01793 0.04004,0.04004c0,0.02211 -0.01793,0.04004 -0.04004,0.04004c-0.02211,0 -0.04004,-0.01793 -0.04004,-0.04004zM1.18654,0.87345c0,-0.02211 0.01793,-0.04004 0.04004,-0.04004c0.02211,0 0.04004,0.01793 0.04004,0.04004c0,0.02211 -0.01793,0.04004 -0.04004,0.04004c-0.02211,0 -0.04004,-0.01793 -0.04004,-0.04004zM1.58352,0.45891c0,-0.02211 0.01793,-0.04004 0.04004,-0.04004c0.02211,0 0.04004,0.01793 0.04004,0.04004c0,0.02211 -0.01793,0.04004 -0.04004,0.04004c-0.02211,0 -0.04004,-0.01793 -0.04004,-0.04004zM1.57176,1.06225c0,-0.02211 0.01793,-0.04004 0.04004,-0.04004c0.02211,0 0.04004,0.01793 0.04004,0.04004c0,0.02211 -0.01793,0.04004 -0.04004,0.04004c-0.02211,0 -0.04004,-0.01793 -0.04004,-0.04004zM1.15297,0.58951c0,-0.02211 0.01793,-0.04004 0.04004,-0.04004c0.02211,0 0.04004,0.01793 0.04004,0.04004c0,0.02211 -0.01793,0.04004 -0.04004,0.04004c-0.02211,0 -0.04004,-0.01793 -0.04004,-0.04004zM1.80807,0.65607c0,-0.02211 0.01793,-0.04004 0.04004,-0.04004c0.02211,0 0.04004,0.01793 0.04004,0.04004c0,0.02211 -0.01793,0.04004 -0.04004,0.04004c-0.02211,0 -0.04004,-0.01793 -0.04004,-0.04004zM1.26058,1.06662c0,-0.02211 0.01793,-0.04004 0.04004,-0.04004c0.02211,0 0.04004,0.01793 0.04004,0.04004c0,0.02211 -0.01793,0.04004 -0.04004,0.04004c-0.02211,0 -0.04004,-0.01793 -0.04004,-0.04004zM1.38938,0.36919c0,-0.02211 0.01793,-0.04004 0.04004,-0.04004c0.02211,0 0.04004,0.01793 0.04004,0.04004c0,0.02211 -0.01793,0.04004 -0.04004,0.04004c-0.02211,0 -0.04004,-0.01793 -0.04004,-0.04004zM1.78025,0.98961c0,-0.02211 0.01793,-0.04004 0.04004,-0.04004c0.02211,0 0.04004,0.01793 0.04004,0.04004c0,0.02211 -0.01793,0.04004 -0.04004,0.04004c-0.02211,0 -0.04004,-0.01793 -0.04004,-0.04004zM1.04983,0.79238c0,-0.02211 0.01793,-0.04004 0.04004,-0.04004c0.02211,0 0.04004,0.01793 0.04004,0.04004c0,0.02211 -0.01793,0.04004 -0.04004,0.04004c-0.02211,0 -0.04004,-0.01793 -0.04004,-0.04004zM1.74053,0.43175c0,-0.02211 0.01793,-0.04004 0.04004,-0.04004c0.02211,0 0.04004,0.01793 0.04004,0.04004c0,0.02211 -0.01793,0.04004 -0.04004,0.04004c-0.02211,0 -0.04004,-0.01793 -0.04004,-0.04004zM1.46985,1.18578c0,-0.02211 0.01793,-0.04004 0.04004,-0.04004c0.02211,0 0.04004,0.01793 0.04004,0.04004c0,0.02211 -0.01793,0.04004 -0.04004,0.04004c-0.02211,0 -0.04004,-0.01793 -0.04004,-0.04004zM1.1493,0.4283c0,-0.02211 0.01793,-0.04004 0.04004,-0.04004c0.02211,0 0.04004,0.01793 0.04004,0.04004c0,0.02211 -0.01793,0.04004 -0.04004,0.04004c-0.02211,0 -0.04004,-0.01793 -0.04004,-0.04004zM1.91746,0.77638c0,-0.02211 0.01793,-0.04004 0.04004,-0.04004c0.02211,0 0.04004,0.01793 0.04004,0.04004c0,0.02211 -0.01793,0.04004 -0.04004,0.04004c-0.02211,0 -0.04004,-0.01793 -0.04004,-0.04004zM1.09752,1.04772c0,-0.02211 0.01793,-0.04004 0.04004,-0.04004c0.02211,0 0.04004,0.01793 0.04004,0.04004c0,0.02211 -0.01793,0.04004 -0.04004,0.04004c-0.02211,0 -0.04004,-0.01793 -0.04004,-0.04004zM1.52588,0.27497c0,-0.00944 0.00327,-0.01812 0.00874,-0.02497h0.06261c0.00547,0.00685 0.00874,0.01553 0.00874,0.02497c0,0.02211 -0.01793,0.04004 -0.04004,0.04004c-0.02211,0 -0.04004,-0.01793 -0.04004,-0.04004zM1.73955,1.15228c0,-0.02211 0.01793,-0.04004 0.04004,-0.04004c0.02211,0 0.04004,0.01793 0.04004,0.04004c0,0.02211 -0.01793,0.04004 -0.04004,0.04004c-0.02211,0 -0.04004,-0.01793 -0.04004,-0.04004zM0.97181,0.64178c0,-0.02211 0.01793,-0.04004 0.04004,-0.04004c0.02211,0 0.04004,0.01793 0.04004,0.04004c0,0.02211 -0.01793,0.04004 -0.04004,0.04004c-0.02211,0 -0.04004,-0.01793 -0.04004,-0.04004zM1.90066,0.49351c0,-0.02211 0.01793,-0.04004 0.04004,-0.04004c0.02211,0 0.04004,0.01793 0.04004,0.04004c0,0.02211 -0.01793,0.04004 -0.04004,0.04004c-0.02211,0 -0.04004,-0.01793 -0.04004,-0.04004zM1.30717,1.24664c0,-0.02211 0.01793,-0.04004 0.04004,-0.04004c0.02211,0 0.04004,0.01793 0.04004,0.04004c0,0.00113 -0.00005,0.00225 -0.00014,0.00336h-0.0798c-0.00009,-0.00111 -0.00014,-0.00223 -0.00014,-0.00336zM1.23132,0.2728c0,-0.00847 0.00263,-0.01633 0.00712,-0.0228l0.06584,0c0.00449,0.00647 0.00712,0.01433 0.00712,0.0228c0,0.02211 -0.01793,0.04004 -0.04004,0.04004c-0.02211,0 -0.04004,-0.01793 -0.04004,-0.04004zM1.96031,0.94911c0,-0.02211 0.01793,-0.04004 0.04004,-0.04004c0.02211,0 0.04004,0.01793 0.04004,0.04004c0,0.02211 -0.01793,0.04004 -0.04004,0.04004c-0.02211,0 -0.04004,-0.01793 -0.04004,-0.04004zM0.94862,0.94629c0,-0.02211 0.01793,-0.04004 0.04004,-0.04004c0.02211,0 0.04004,0.01793 0.04004,0.04004c0,0.02211 -0.01793,0.04004 -0.04004,0.04004c-0.02211,0 -0.04004,-0.01793 -0.04004,-0.04004zM1.70665,0.25086c0,-0.00029 0,-0.00057 0.00001,-0.00086l0.08006,0c0.00001,0.00029 0.00001,0.00057 0.00001,0.00086c0,0.02211 -0.01793,0.04004 -0.04004,0.04004c-0.02211,0 -0.04004,-0.01793 -0.04004,-0.04004zM0.96704,0.45499c0,-0.02211 0.01793,-0.04004 0.04004,-0.04004c0.02211,0 0.04004,0.01793 0.04004,0.04004c0,0.02211 -0.01793,0.04004 -0.04004,0.04004c-0.02211,0 -0.04004,-0.01793 -0.04004,-0.04004zM2.03073,0.63076c0,-0.02211 0.01793,-0.04004 0.04004,-0.04004c0.02211,0 0.04004,0.01793 0.04004,0.04004c0,0.02211 -0.01793,0.04004 -0.04004,0.04004c-0.02211,0 -0.04004,-0.01793 -0.04004,-0.04004zM1.11641,1.23164c0,-0.02211 0.01793,-0.04004 0.04004,-0.04004c0.02211,0 0.04004,0.01793 0.04004,0.04004c0,0.00662 -0.00161,0.01286 -0.00445,0.01836h-0.07118c-0.00284,-0.0055 -0.00445,-0.01174 -0.00445,-0.01836zM1.92524,1.14181c0,-0.02211 0.01793,-0.04004 0.04004,-0.04004c0.02211,0 0.04004,0.01793 0.04004,0.04004c0,0.02211 -0.01793,0.04004 -0.04004,0.04004c-0.02211,0 -0.04004,-0.01793 -0.04004,-0.04004zM0.84415,0.77796c0,-0.02211 0.01793,-0.04004 0.04004,-0.04004c0.02211,0 0.04004,0.01793 0.04004,0.04004c0,0.02211 -0.01793,0.04004 -0.04004,0.04004c-0.02211,0 -0.04004,-0.01793 -0.04004,-0.04004zM1.89923,0.30611c0,-0.02211 0.01793,-0.04004 0.04004,-0.04004c0.02211,0 0.04004,0.01793 0.04004,0.04004c0,0.02211 -0.01793,0.04004 -0.04004,0.04004c-0.02211,0 -0.04004,-0.01793 -0.04004,-0.04004zM1.04241,0.26456c0,-0.00514 0.00097,-0.01005 0.00273,-0.01456h0.07462c0.00176,0.00451 0.00273,0.00942 0.00273,0.01456c0,0.02211 -0.01793,0.04004 -0.04004,0.04004c-0.02211,0 -0.04004,-0.01793 -0.04004,-0.04004zM2.10374,0.82449c0,-0.02211 0.01793,-0.04004 0.04004,-0.04004c0.02211,0 0.04004,0.01793 0.04004,0.04004c0,0.02211 -0.01793,0.04004 -0.04004,0.04004c-0.02211,0 -0.04004,-0.01793 -0.04004,-0.04004zM0.93013,1.13636c0,-0.02211 0.01793,-0.04004 0.04004,-0.04004c0.02211,0 0.04004,0.01793 0.04004,0.04004c0,0.02211 -0.01793,0.04004 -0.04004,0.04004c-0.02211,0 -0.04004,-0.01793 -0.04004,-0.04004zM0.80735,0.56533c0,-0.02211 0.01793,-0.04004 0.04004,-0.04004c0.02211,0 0.04004,0.01793 0.04004,0.04004c0,0.02211 -0.01793,0.04004 -0.04004,0.04004c-0.02211,0 -0.04004,-0.01793 -0.04004,-0.04004zM2.07135,0.43983c0,-0.02211 0.01793,-0.04004 0.04004,-0.04004c0.02211,0 0.04004,0.01793 0.04004,0.04004c0,0.02211 -0.01793,0.04004 -0.04004,0.04004c-0.02211,0 -0.04004,-0.01793 -0.04004,-0.04004zM2.10082,1.04884c0,-0.02211 0.01793,-0.04004 0.04004,-0.04004c0.02211,0 0.04004,0.01793 0.04004,0.04004c0,0.02211 -0.01793,0.04004 -0.04004,0.04004c-0.02211,0 -0.04004,-0.01793 -0.04004,-0.04004zM0.77962,0.96712c0,-0.02211 0.01793,-0.04004 0.04004,-0.04004c0.02211,0 0.04004,0.01793 0.04004,0.04004c0,0.02211 -0.01793,0.04004 -0.04004,0.04004c-0.02211,0 -0.04004,-0.01793 -0.04004,-0.04004zM0.85218,0.33695c0,-0.02211 0.01793,-0.04004 0.04004,-0.04004c0.02211,0 0.04004,0.01793 0.04004,0.04004c0,0.02211 -0.01793,0.04004 -0.04004,0.04004c-0.02211,0 -0.04004,-0.01793 -0.04004,-0.04004zM2.19343,0.64038c0,-0.02211 0.01793,-0.04004 0.04004,-0.04004c0.02211,0 0.04004,0.01793 0.04004,0.04004c0,0.02211 -0.01793,0.04004 -0.04004,0.04004c-0.02211,0 -0.04004,-0.01793 -0.04004,-0.04004zM2.05334,1.23323c0.01344,0 0.02532,0.00662 0.03259,0.01677h-0.06517c0.00726,-0.01015 0.01915,-0.01677 0.03259,-0.01677zM0.6919,0.74062c0,-0.02211 0.01793,-0.04004 0.04004,-0.04004c0.02211,0 0.04004,0.01793 0.04004,0.04004c0,0.02211 -0.01793,0.04004 -0.04004,0.04004c-0.02211,0 -0.04004,-0.01793 -0.04004,-0.04004zM2.07564,0.27173c-0.01552,0 -0.02897,-0.00883 -0.03562,-0.02173l0.07124,0c-0.00665,0.01291 -0.0201,0.02173 -0.03562,0.02173zM2.24187,0.88646c0,-0.02211 0.01793,-0.04004 0.04004,-0.04004c0.02211,0 0.04004,0.01793 0.04004,0.04004c0,0.02211 -0.01793,0.04004 -0.04004,0.04004c-0.02211,0 -0.04004,-0.01793 -0.04004,-0.04004zM0.78751,1.18337c0,-0.02211 0.01793,-0.04004 0.04004,-0.04004c0.02211,0 0.04004,0.01793 0.04004,0.04004c0,0.02211 -0.01793,0.04004 -0.04004,0.04004c-0.02211,0 -0.04004,-0.01793 -0.04004,-0.04004zM0.68649,0.48216c0,-0.02211 0.01793,-0.04004 0.04004,-0.04004c0.02211,0 0.04004,0.01793 0.04004,0.04004c0,0.02211 -0.01793,0.04004 -0.04004,0.04004c-0.02211,0 -0.04004,-0.01793 -0.04004,-0.04004zM2.21561,0.41986c0,-0.02211 0.01793,-0.04004 0.04004,-0.04004c0.02211,0 0.04004,0.01793 0.04004,0.04004c0,0.02211 -0.01793,0.04004 -0.04004,0.04004c-0.02211,0 -0.04004,-0.01793 -0.04004,-0.04004zM2.20186,1.14947c0,-0.02211 0.01793,-0.04004 0.04004,-0.04004c0.02211,0 0.04004,0.01793 0.04004,0.04004c0,0.02211 -0.01793,0.04004 -0.04004,0.04004c-0.02211,0 -0.04004,-0.01793 -0.04004,-0.04004zM0.63809,0.96102c0,-0.02211 0.01793,-0.04004 0.04004,-0.04004c0.02211,0 0.04004,0.01793 0.04004,0.04004c0,0.02211 -0.01793,0.04004 -0.04004,0.04004c-0.02211,0 -0.04004,-0.01793 -0.04004,-0.04004zM0.81294,0.26284c-0.01161,0 -0.02207,-0.00494 -0.02938,-0.01284l0.05876,0c-0.00731,0.0079 -0.01777,0.01284 -0.02938,0.01284zM2.32815,0.67099c0,-0.02211 0.01793,-0.04004 0.04004,-0.04004c0.02211,0 0.04004,0.01793 0.04004,0.04004c0,0.02211 -0.01793,0.04004 -0.04004,0.04004c-0.02211,0 -0.04004,-0.01793 -0.04004,-0.04004zM0.56771,0.68761c0,-0.02211 0.01793,-0.04004 0.04004,-0.04004c0.02211,0 0.04004,0.01793 0.04004,0.04004c0,0.02211 -0.01793,0.04004 -0.04004,0.04004c-0.02211,0 -0.04004,-0.01793 -0.04004,-0.04004zM2.35226,0.95929c0,-0.02211 0.01793,-0.04004 0.04004,-0.04004c0.02211,0 0.04004,0.01793 0.04004,0.04004c0,0.02211 -0.01793,0.04004 -0.04004,0.04004c-0.02211,0 -0.04004,-0.01793 -0.04004,-0.04004zM0.65753,1.20399c0,-0.02211 0.01793,-0.04004 0.04004,-0.04004c0.02211,0 0.04004,0.01793 0.04004,0.04004c0,0.02211 -0.01793,0.04004 -0.04004,0.04004c-0.02211,0 -0.04004,-0.01793 -0.04004,-0.04004zM0.59266,0.39252c0,-0.02211 0.01793,-0.04004 0.04004,-0.04004c0.02211,0 0.04004,0.01793 0.04004,0.04004c0,0.02211 -0.01793,0.04004 -0.04004,0.04004c-0.02211,0 -0.04004,-0.01793 -0.04004,-0.04004zM2.34476,0.4227c0,-0.02211 0.01793,-0.04004 0.04004,-0.04004c0.02211,0 0.04004,0.01793 0.04004,0.04004c0,0.02211 -0.01793,0.04004 -0.04004,0.04004c-0.02211,0 -0.04004,-0.01793 -0.04004,-0.04004zM2.31695,1.21255c0.02124,0 0.03862,0.01654 0.03996,0.03745l-0.07992,0c0.00133,-0.02091 0.01871,-0.03745 0.03996,-0.03745zM0.51364,0.93566c0,-0.02211 0.01793,-0.04004 0.04004,-0.04004c0.02211,0 0.04004,0.01793 0.04004,0.04004c0,0.02211 -0.01793,0.04004 -0.04004,0.04004c-0.02211,0 -0.04004,-0.01793 -0.04004,-0.04004zM2.4443,0.71735c0,-0.02211 0.01793,-0.04004 0.04004,-0.04004c0.02211,0 0.04004,0.01793 0.04004,0.04004c0,0.02211 -0.01793,0.04004 -0.04004,0.04004c-0.02211,0 -0.04004,-0.01793 -0.04004,-0.04004zM0.46312,0.6223c0,-0.02211 0.01793,-0.04004 0.04004,-0.04004c0.02211,0 0.04004,0.01793 0.04004,0.04004c0,0.02211 -0.01793,0.04004 -0.04004,0.04004c-0.02211,0 -0.04004,-0.01793 -0.04004,-0.04004zM2.44246,1.04103c0,-0.02211 0.01793,-0.04004 0.04004,-0.04004c0.02211,0 0.04004,0.01793 0.04004,0.04004c0,0.02211 -0.01793,0.04004 -0.04004,0.04004c-0.02211,0 -0.04004,-0.01793 -0.04004,-0.04004zM0.53618,1.20456c0,-0.02211 0.01793,-0.04004 0.04004,-0.04004c0.02211,0 0.04004,0.01793 0.04004,0.04004c0,0.02211 -0.01793,0.04004 -0.04004,0.04004c-0.02211,0 -0.04004,-0.01793 -0.04004,-0.04004zM0.51921,0.29725c0,-0.02211 0.01793,-0.04004 0.04004,-0.04004c0.02211,0 0.04004,0.01793 0.04004,0.04004c0,0.02211 -0.01793,0.04004 -0.04004,0.04004c-0.02211,0 -0.04004,-0.01793 -0.04004,-0.04004zM2.46294,0.44336c0,-0.02211 0.01793,-0.04004 0.04004,-0.04004c0.02211,0 0.04004,0.01793 0.04004,0.04004c0,0.02211 -0.01793,0.04004 -0.04004,0.04004c-0.02211,0 -0.04004,-0.01793 -0.04004,-0.04004zM0.40213,0.8949c0,-0.02211 0.01793,-0.04004 0.04004,-0.04004c0.02211,0 0.04004,0.01793 0.04004,0.04004c0,0.02211 -0.01793,0.04004 -0.04004,0.04004c-0.02211,0 -0.04004,-0.01793 -0.04004,-0.04004zM2.54591,0.77654c0,-0.02211 0.01793,-0.04004 0.04004,-0.04004c0.02211,0 0.04004,0.01793 0.04004,0.04004c0,0.02211 -0.01793,0.04004 -0.04004,0.04004c-0.02211,0 -0.04004,-0.01793 -0.04004,-0.04004zM0.37427,0.54682c0,-0.02211 0.01793,-0.04004 0.04004,-0.04004c0.02211,0 0.04004,0.01793 0.04004,0.04004c0,0.02211 -0.01793,0.04004 -0.04004,0.04004c-0.02211,0 -0.04004,-0.01793 -0.04004,-0.04004zM2.5161,1.13023c0,-0.02211 0.01793,-0.04004 0.04004,-0.04004c0.02211,0 0.04004,0.01793 0.04004,0.04004c0,0.02211 -0.01793,0.04004 -0.04004,0.04004c-0.02211,0 -0.04004,-0.01793 -0.04004,-0.04004zM0.42184,1.18852c0,-0.02211 0.01793,-0.04004 0.04004,-0.04004c0.02211,0 0.04004,0.01793 0.04004,0.04004c0,0.02211 -0.01793,0.04004 -0.04004,0.04004c-0.02211,0 -0.04004,-0.01793 -0.04004,-0.04004zM2.57195,0.47893c0,-0.02211 0.01793,-0.04004 0.04004,-0.04004c0.02211,0 0.04004,0.01793 0.04004,0.04004c0,0.02211 -0.01793,0.04004 -0.04004,0.04004c-0.02211,0 -0.04004,-0.01793 -0.04004,-0.04004zM0.30165,0.84116c0,-0.02211 0.01793,-0.04004 0.04004,-0.04004c0.02211,0 0.04004,0.01793 0.04004,0.04004c0,0.02211 -0.01793,0.04004 -0.04004,0.04004c-0.02211,0 -0.04004,-0.01793 -0.04004,-0.04004zM2.63498,0.8466c0,-0.02211 0.01793,-0.04004 0.04004,-0.04004c0.02211,0 0.04004,0.01793 0.04004,0.04004c0,0.02211 -0.01793,0.04004 -0.04004,0.04004c-0.02211,0 -0.04004,-0.01793 -0.04004,-0.04004zM0.29915,0.46273c0,-0.02211 0.01793,-0.04004 0.04004,-0.04004c0.02211,0 0.04004,0.01793 0.04004,0.04004c0,0.02211 -0.01793,0.04004 -0.04004,0.04004c-0.02211,0 -0.04004,-0.01793 -0.04004,-0.04004zM2.57518,1.22568c0,-0.02211 0.01793,-0.04004 0.04004,-0.04004c0.02211,0 0.04004,0.01793 0.04004,0.04004c0,0.00915 -0.00307,0.01758 -0.00823,0.02432h-0.06363c-0.00516,-0.00674 -0.00823,-0.01517 -0.00823,-0.02432zM0.3139,1.15809c0,-0.02211 0.01793,-0.04004 0.04004,-0.04004c0.02211,0 0.04004,0.01793 0.04004,0.04004c0,0.02211 -0.01793,0.04004 -0.04004,0.04004c-0.02211,0 -0.04004,-0.01793 -0.04004,-0.04004zM2.67259,0.52744c0,-0.02211 0.01793,-0.04004 0.04004,-0.04004c0.01704,0 0.03159,0.01064 0.03737,0.02564v0.0288c-0.00578,0.015 -0.02034,0.02564 -0.03737,0.02564c-0.02211,0 -0.04004,-0.01793 -0.04004,-0.04004zM0.25127,0.73612c0.02211,0 0.04004,0.01793 0.04004,0.04004c0,0.02211 -0.01793,0.04004 -0.04004,0.04004c-0.00043,0 -0.00085,-0.00001 -0.00127,-0.00002v-0.08004c0.00042,-0.00001 0.00085,-0.00002 0.00127,-0.00002zM2.71256,0.92604c0,-0.02124 0.01654,-0.03862 0.03744,-0.03996l0,0.07991c-0.0209,-0.00134 -0.03744,-0.01872 -0.03744,-0.03996zM0.27665,0.33127c0.02211,0 0.04004,0.01793 0.04004,0.04004c0,0.02211 -0.01793,0.04004 -0.04004,0.04004c-0.01023,0 -0.01957,-0.00384 -0.02665,-0.01015l0,-0.05977c0.00708,-0.00632 0.01641,-0.01015 0.02665,-0.01015zM0.25225,1.07483c0.02211,0 0.04004,0.01793 0.04004,0.04004c0,0.02211 -0.01793,0.04004 -0.04004,0.04004c-0.00076,0 -0.00151,-0.00002 -0.00225,-0.00006v-0.07996c0.00075,-0.00004 0.0015,-0.00006 0.00225,-0.00006zM0.26603,0.27367c0,0.01311 -0.0063,0.02474 -0.01603,0.03204v-0.05571h0.00829c0.00487,0.00663 0.00774,0.01481 0.00774,0.02367zM2.75,0.25l0,0.02267c-0.01101,-0.00368 -0.01988,-0.01202 -0.02429,-0.02267z" fill="#d3d3d3" fill-rule="evenodd" stroke="#ff0000" stroke-width="0.005"></path></g></svg>