<svg version="1.1" xmlns="http://www.w3.org/2000/svg" xmlns:xlink="http://www.w3.org/1999/xlink" width="3in" height="1.5in" viewBox="0 0 3.05 1.55"><g fill="none" fill-rule="none" stroke="none" stroke-width="none" stroke-linecap="butt" stroke-linejoin="miter" stroke-miterlimit="10" stroke-dasharray="" stroke-dashoffset="0" font-family="none" font-weight="none" font-size="none" text-anchor="none" style="mix-blend-mode: normal"><path d="M0.25,1.25l0,-1l2.5,0v1z" fill="none" fill-rule="nonzero" stroke="none" stroke-width="1"></path><path d="M0,1.5v-1.5h3v1.5zM2.69,0.46h-0.08c-0.03,0 -0.06,-0.03 -0.06,-0.06v-0.03c0,-0.03 0.03,-0.06 0.06,-0.06h0.08c0.03,0 0.06,0.03 0.06,0.06v0.03c0,0.03 -0.03,0.06 -0.06,0.06zM0.51,0.4c0,0.03 -0.03,0.06 -0.06,0.06h-0.08c-0.03,0 -0.06,-0.03 -0.06,-0.06v-0.03c0,-0.03 0.03,-0.06 0.06,-0.06h0.08c0.03,0 0.06,0.03 0.06,0.06zM2.43,0.556c0,0.082 -0.082,0.164 -0.164,0.164h-0.3c-0.028,0 -0.056,-0.028 -0.056,-0.056v-0.028c0,-0.028 0.028,-0.056 0.056,-0.056h0.156c0.054,0 0.108,-0.054 0.108,-0.108v-0.082c0,-0.04 0.04,-0.08 0.08,-0.08h0.04c0.04,0 0.08,0.04 0.08,0.08zM0.83,0.472c0,0.054 0.054,0.108 0.108,0.108h0.156c0.028,0 0.056,0.028 0.056,0.056v0.028c0,0.028 -0.028,0.056 -0.056,0.056h-0.3c-0.082,0 -0.164,-0.082 -0.164,-0.164v-0.166c0,-0.04 0.04,-0.08 0.08,-0.08h0.04c0.04,0 0.08,0.04 0.08,0.08zM2.694,0.72h-0.088c-0.028,0 -0.056,-0.028 -0.056,-0.056v-0.028c0,-0.028 0.028,-0.056 0.056,-0.056h0.088c0.028,0 0.056,0.028 0.056,0.056v0.028c0,0.028 -0.028,0.056 -0.056,0.056zM2.11,0.4c0,0.03 -0.03,0.06 -0.06,0.06h-0.156c-0.052,0 -0.104,0.052 -0.104,0.104v0.052c0,0.052 -0.052,0.104 -0.104,0.104h-0.312c-0.052,0 -0.104,-0.052 -0.104,-0.104v-0.052c0,-0.052 -0.052,-0.104 -0.104,-0.104h-0.156c-0.03,0 -0.06,-0.03 -0.06,-0.06v-0.03c0,-0.03 0.03,-0.06 0.06,-0.06h1.04c0.03,0 0.06,0.03 0.06,0.06zM0.51,0.664c0,0.028 -0.028,0.056 -0.056,0.056h-0.088c-0.028,0 -0.056,-0.028 -0.056,-0.056v-0.028c0,-0.028 0.028,-0.056 0.056,-0.056h0.088c0.028,0 0.056,0.028 0.056,0.056zM1.79,1.002c0,0.054 0.054,0.108 0.108,0.108h0.156c0.028,0 0.056,0.028 0.056,0.056v0.028c0,0.028 -0.028,0.056 -0.056,0.056h-1.048c-0.028,0 -0.056,-0.028 -0.056,-0.056v-0.028c0,-0.028 0.028,-0.056 0.056,-0.056h0.156c0.054,0 0.108,-0.054 0.108,-0.108v-0.054c0,-0.054 0.054,-0.108 0.108,-0.108h0.304c0.054,0 0.108,0.054 0.108,0.108zM2.69,0.99h-0.08c-0.03,0 -0.06,-0.03 -0.06,-0.06v-0.03c0,-0.03 0.03,-0.06 0.06,-0.06h0.08c0.03,0 0.06,0.03 0.06,0.06v0.03c0,0.03 -0.03,0.06 -0.06,0.06zM0.51,0.93c0,0.03 -0.03,0.06 -0.06,0.06h-0.08c-0.03,0 -0.06,-0.03 -0.06,-0.06v-0.03c0,-0.03 0.03,-0.06 0.06,-0.06h0.08c0.03,0 0.06,0.03 0.06,0.06zM2.43,1.17c0,0.04 -0.04,0.08 -0.08,0.08h-0.04c-0.04,0 -0.08,-0.04 -0.08,-0.08v-0.076c0,-0.052 -0.052,-0.104 -0.104,-0.104h-0.156c-0.03,0 -0.06,-0.03 -0.06,-0.06v-0.03c0,-0.03 0.03,-0.06 0.06,-0.06h0.296c0.082,0 0.164,0.082 0.164,0.164zM1.15,0.93c0,0.03 -0.03,0.06 -0.06,0.06h-0.156c-0.052,0 -0.104,0.052 -0.104,0.104v0.076c0,0.04 -0.04,0.08 -0.08,0.08h-0.04c-0.04,0 -0.08,-0.04 -0.08,-0.08v-0.166c0,-0.082 0.082,-0.164 0.164,-0.164h0.296c0.03,0 0.06,0.03 0.06,0.06zM2.55,1.194v-0.028c0,-0.028 0.028,-0.056 0.056,-0.056h0.088c0.028,0 0.056,0.028 0.056,0.056v0.028c0,0.028 -0.028,0.056 -0.056,0.056h-0.088c-0.028,0 -0.056,-0.028 -0.056,-0.056zM0.51,1.194c0,0.028 -0.028,0.056 -0.056,0.056h-0.088c-0.028,0 -0.056,-0.028 -0.056,-0.056v-0.028c0,-0.028 0.028,-0.056 0.056,-0.056h0.088c0.028,0 0.056,0.028 0.056,0.056z" fill="#000000" fill-rule="evenodd" stroke="#000000" stroke-width="0.005"></path></g></svg>