<svg version="1.1" xmlns="http://www.w3.org/2000/svg" xmlns:xlink="http://www.w3.org/1999/xlink" width="3in" height="1.5in" viewBox="0 0 3.05 1.55"><g fill="#000000" fill-rule="evenodd" stroke="#000000" stroke-width="0.005" stroke-linecap="butt" stroke-linejoin="miter" stroke-miterlimit="10" stroke-dasharray="" stroke-dashoffset="0" font-family="none" font-weight="none" font-size="none" text-anchor="none" style="mix-blend-mode: normal"><path d="M0,1.5v-1.5h3v1.5zM0.99085,0.78085c0.01458,0.01458 0.01015,0.03715 -0.00885,0.04515l-0.11513,0.04848c-0.01843,0.00776 -0.05287,0.00352 -0.06887,-0.00848l-0.11635,-0.08726c-0.00582,-0.00437 -0.01365,-0.01574 -0.01565,-0.02274l-0.012,-0.042c-0.002,-0.007 0.00074,-0.01953 0.00548,-0.02505l0.08652,-0.10095c0.012,-0.014 0.03704,-0.01496 0.05008,-0.00192zM2.644,0.386c0.003,0.002 0.006,0.00761 0.006,0.01121v0.07279c0,0.01 -0.00812,0.02584 -0.01623,0.03169l-0.22565,0.16247c-0.00406,0.00292 -0.01312,0.00584 -0.01812,0.00584h-0.03c-0.005,0 -0.00934,-0.00496 -0.00868,-0.00991l0.0326,-0.24449c0.00304,-0.0228 0.02908,-0.0456 0.05208,-0.0456h0.17679c0.00361,0 0.01021,0.002 0.01321,0.004zM1.852,0.776c0.004,0.007 0.00044,0.0168 -0.00712,0.0196l-0.24162,0.08949c-0.00663,0.00246 -0.01826,-0.00009 -0.02326,-0.00509l-0.03,-0.03c-0.005,-0.005 -0.00649,-0.01614 -0.00298,-0.02228l0.02498,-0.04372c0.004,-0.007 0.01589,-0.01564 0.02379,-0.01729l0.20843,-0.04342c0.00789,-0.00164 0.01979,0.00371 0.02379,0.01071zM2.15291,0.67819c-0.00145,0.0109 -0.01391,0.02181 -0.02491,0.02181h-0.066c-0.011,0 -0.02766,-0.00943 -0.03332,-0.01886l-0.06936,-0.11561c-0.00466,-0.00776 -0.01032,-0.02453 -0.01132,-0.03353l-0.00628,-0.05648c-0.00086,-0.00776 0.00328,-0.02152 0.00828,-0.02752l0.03,-0.036c0.005,-0.006 0.01781,-0.012 0.02562,-0.012h0.14438c0.02,0 0.03736,0.01982 0.03471,0.03965zM0.70374,1.03818c0.00813,0.00591 0.01726,0.02182 0.01826,0.03182l0.006,0.06c0.001,0.01 -0.00805,0.02 -0.0181,0.02h-0.19429c-0.0228,0 -0.03161,-0.018 -0.01761,-0.036l0.0953,-0.12253c0.00835,-0.01074 0.0277,-0.01347 0.0387,-0.00547zM1.838,1.122c0.001,0.014 -0.01204,0.028 -0.02607,0.028h-0.15737c-0.00728,0 -0.01256,-0.007 -0.01056,-0.014l0.012,-0.042c0.002,-0.007 0.01073,-0.01677 0.01746,-0.01954l0.13058,-0.05377c0.01298,-0.00534 0.02696,0.00331 0.02796,0.01731zM1.39389,0.65319c0.00306,0.00841 0.00211,0.02481 -0.00189,0.03281l-0.02574,0.05148c-0.00313,0.00626 -0.01326,0.01252 -0.02026,0.01252h-0.042c-0.007,0 -0.01278,-0.00689 -0.01157,-0.01379l0.02601,-0.1474c0.00078,-0.0044 0.00555,-0.01081 0.00955,-0.01281l0.024,-0.012c0.004,-0.002 0.00953,0.0002 0.01106,0.00441zM0.366,0.708c0.002,0.001 0.002,0.003 0,0.004l-0.01242,0.00621c-0.00179,0.00089 -0.00358,-0.00021 -0.00358,-0.00221v-0.012c0,-0.002 0.00179,-0.00311 0.00358,-0.00221zM2.65,0.79783c0,0.00608 -0.006,0.01317 -0.012,0.01417l-0.03963,0.00661c-0.00418,0.0007 -0.01137,-0.00161 -0.01437,-0.00461l-0.018,-0.018c-0.003,-0.003 -0.00247,-0.00835 0.00106,-0.01071l0.06963,-0.04642c0.00666,-0.00444 0.01331,-0.00088 0.01331,0.00712zM2.18191,1.12111c0.00404,0.01444 -0.00691,0.02889 -0.02191,0.02889h-0.09c-0.015,0 -0.0306,-0.01499 -0.0312,-0.02998l-0.00808,-0.20204c-0.00036,-0.00899 0.00828,-0.01799 0.01728,-0.01799h0.054c0.009,0 0.02043,0.00867 0.02285,0.01733zM2.444,0.958c0.008,0.011 0.01912,0.03524 0.02223,0.04848l0.02919,0.12405c0.00229,0.00973 -0.00542,0.01947 -0.01542,0.01947h-0.06c-0.01,0 -0.02275,-0.00962 -0.02549,-0.01923l-0.07121,-0.24923c-0.00165,-0.00577 0.0027,-0.01154 0.0087,-0.01154h0.036c0.006,0 0.01553,0.00485 0.01906,0.0097zM0.594,0.422c0.013,0.009 0.01532,0.02966 0.00463,0.04131l-0.06663,0.07269c-0.011,0.012 -0.03656,0.01672 -0.05112,0.00944l-0.10762,-0.05381c-0.01163,-0.00581 -0.02326,-0.02463 -0.02326,-0.03763v-0.078c0,-0.013 0.013,-0.026 0.026,-0.026h0.086c0.014,0 0.03951,0.00797 0.05102,0.01594zM1.122,1.11994c0.004,0.01503 -0.00755,0.03006 -0.0231,0.03006h-0.1509c-0.009,0 -0.018,-0.009 -0.018,-0.018v-0.054c0,-0.009 0.00842,-0.02117 0.01684,-0.02435l0.11405,-0.04298c0.01455,-0.00548 0.03311,0.00406 0.03711,0.01909zM0.35375,0.97531c-0.00187,0.00234 -0.00375,0.00169 -0.00375,-0.00131v-0.018c0,-0.003 0.00268,-0.00734 0.00537,-0.00868l0.02663,-0.01332c0.004,-0.002 0.00521,-0.00051 0.00241,0.00298zM1.73634,0.4984c0.00183,0.0008 0.00366,0.0036 0.00366,0.0056v0.012c0,0.002 -0.00192,0.00456 -0.00384,0.00513l-0.1455,0.04279c-0.01033,0.00304 -0.02467,-0.00392 -0.02867,-0.01392l-0.02724,-0.06811c-0.00238,-0.00595 0.00024,-0.01589 0.00524,-0.01989l0.03,-0.024c0.005,-0.004 0.01587,-0.00543 0.02173,-0.00287zM1.344,0.948c0.008,0.001 0.0217,0.0077 0.0274,0.0134l0.07418,0.07418c0.00721,0.00721 0.01242,0.02442 0.01042,0.03442l-0.01247,0.06235c-0.00177,0.00883 -0.01253,0.01765 -0.02153,0.01765h-0.054c-0.009,0 -0.02085,-0.00854 -0.02369,-0.01708l-0.05921,-0.17763c-0.00255,-0.00765 0.0029,-0.0143 0.0109,-0.0133zM1.09463,0.53821c0.00268,0.00089 0.00737,0.00379 0.00937,0.00579l0.012,0.012c0.002,0.002 0.00354,0.00679 0.00307,0.00958l-0.00707,0.04242c-0.001,0.006 -0.00609,0.0075 -0.01018,0.003l-0.07905,-0.08696c-0.00638,-0.00702 -0.00376,-0.01104 0.00524,-0.00804z"></path></g></svg>