<svg version="1.1" xmlns="http://www.w3.org/2000/svg" xmlns:xlink="http://www.w3.org/1999/xlink" width="3in" height="3in" viewBox="0 0 3.05 3.05"><g fill="#d3d3d3" fill-rule="evenodd" stroke="#ff0000" stroke-width="0.005" stroke-linecap="butt" stroke-linejoin="miter" stroke-miterlimit="10" stroke-dasharray="" stroke-dashoffset="0" font-family="none" font-weight="none" font-size="none" text-anchor="none" style="mix-blend-mode: normal"><path d="M0,3v-3h3v3zM2.47,0.874c0,0.028 -0.028,0.056 -0.056,0.056h-0.028c-0.028,0 -0.056,-0.028 -0.056,-0.056v-0.278c0,-0.028 0.028,-0.056 0.056,-0.056h0.028c0.028,0 0.056,0.028 0.056,0.056zM0.68,0.874c0,0.028 -0.028,0.056 -0.056,0.056h-0.028c-0.028,0 -0.056,-0.028 -0.056,-0.056v-0.278c0,-0.028 0.028,-0.056 0.056,-0.056h0.028c0.028,0 0.056,0.028 0.056,0.056zM2.21,1.294c0,0.078 -0.078,0.156 -0.156,0.156h-0.078c-0.078,0 -0.156,-0.078 -0.156,-0.156v-0.14c0,-0.052 0.052,-0.104 0.104,-0.104h0.052c0.052,0 0.104,-0.052 0.104,-0.104v-0.354c0,-0.026 0.026,-0.052 0.052,-0.052h0.026c0.026,0 0.052,0.026 0.052,0.052zM0.93,0.946c0,0.052 0.052,0.104 0.104,0.104h0.052c0.052,0 0.104,0.052 0.104,0.104v0.14c0,0.078 -0.078,0.156 -0.156,0.156h-0.078c-0.078,0 -0.156,-0.078 -0.156,-0.156v-0.702c0,-0.026 0.026,-0.052 0.052,-0.052h0.026c0.026,0 0.052,0.026 0.052,0.052zM2.47,1.394c0,0.028 -0.028,0.056 -0.056,0.056h-0.028c-0.028,0 -0.056,-0.028 -0.056,-0.056v-0.288c0,-0.028 0.028,-0.056 0.056,-0.056h0.028c0.028,0 0.056,0.028 0.056,0.056zM1.96,0.826c0,0.052 -0.052,0.104 -0.104,0.104h-0.052c-0.052,0 -0.104,0.052 -0.104,0.104v0.26c0,0.078 -0.078,0.156 -0.156,0.156h-0.078c-0.078,0 -0.156,-0.078 -0.156,-0.156v-0.26c0,-0.052 -0.052,-0.104 -0.104,-0.104h-0.052c-0.052,0 -0.104,-0.052 -0.104,-0.104v-0.13c0,-0.078 0.078,-0.156 0.156,-0.156h0.598c0.078,0 0.156,0.078 0.156,0.156zM0.68,1.394c0,0.028 -0.028,0.056 -0.056,0.056h-0.028c-0.028,0 -0.056,-0.028 -0.056,-0.056v-0.288c0,-0.028 0.028,-0.056 0.056,-0.056h0.028c0.028,0 0.056,0.028 0.056,0.056zM1.7,1.976c0,0.052 0.052,0.104 0.104,0.104h0.052c0.052,0 0.104,0.052 0.104,0.104v0.13c0,0.078 -0.078,0.156 -0.156,0.156h-0.598c-0.078,0 -0.156,-0.078 -0.156,-0.156v-0.13c0,-0.052 0.052,-0.104 0.104,-0.104h0.052c0.052,0 0.104,-0.052 0.104,-0.104v-0.25c0,-0.078 0.078,-0.156 0.156,-0.156h0.078c0.078,0 0.156,0.078 0.156,0.156zM2.47,1.904c0,0.028 -0.028,0.056 -0.056,0.056h-0.028c-0.028,0 -0.056,-0.028 -0.056,-0.056v-0.278c0,-0.028 0.028,-0.056 0.056,-0.056h0.028c0.028,0 0.056,0.028 0.056,0.056zM0.68,1.904c0,0.028 -0.028,0.056 -0.056,0.056h-0.028c-0.028,0 -0.056,-0.028 -0.056,-0.056v-0.278c0,-0.028 0.028,-0.056 0.056,-0.056h0.028c0.028,0 0.056,0.028 0.056,0.056zM2.21,2.418c0,0.026 -0.026,0.052 -0.052,0.052h-0.026c-0.026,0 -0.052,-0.026 -0.052,-0.052v-0.354c0,-0.052 -0.052,-0.104 -0.104,-0.104h-0.052c-0.052,0 -0.104,-0.052 -0.104,-0.104v-0.13c0,-0.078 0.078,-0.156 0.156,-0.156h0.078c0.078,0 0.156,0.078 0.156,0.156zM1.19,1.856c0,0.052 -0.052,0.104 -0.104,0.104h-0.052c-0.052,0 -0.104,0.052 -0.104,0.104v0.354c0,0.026 -0.026,0.052 -0.052,0.052h-0.026c-0.026,0 -0.052,-0.026 -0.052,-0.052v-0.692c0,-0.078 0.078,-0.156 0.156,-0.156h0.078c0.078,0 0.156,0.078 0.156,0.156zM2.47,2.414c0,0.028 -0.028,0.056 -0.056,0.056h-0.028c-0.028,0 -0.056,-0.028 -0.056,-0.056v-0.278c0,-0.028 0.028,-0.056 0.056,-0.056h0.028c0.028,0 0.056,0.028 0.056,0.056zM0.68,2.414c0,0.028 -0.028,0.056 -0.056,0.056h-0.028c-0.028,0 -0.056,-0.028 -0.056,-0.056v-0.278c0,-0.028 0.028,-0.056 0.056,-0.056h0.028c0.028,0 0.056,0.028 0.056,0.056z"></path></g></svg>