<svg version="1.1" xmlns="http://www.w3.org/2000/svg" xmlns:xlink="http://www.w3.org/1999/xlink" width="3in" height="3in" viewBox="0 0 3.05 3.05"><g fill="#d3d3d3" fill-rule="evenodd" stroke="#ff0000" stroke-width="0.005" stroke-linecap="butt" stroke-linejoin="miter" stroke-miterlimit="10" stroke-dasharray="" stroke-dashoffset="0" font-family="none" font-weight="none" font-size="none" text-anchor="none" style="mix-blend-mode: normal"><path d="M0,3v-3h3v3zM2.27592,0.48846l-0.0116,-0.00846l0.01764,0zM1.78381,0.56476l-0.0361,-0.08476l0.34696,0l0.12314,0.08985l-0.03499,0.049zM1.62564,0.54332l-0.22592,-0.03063l-0.02081,-0.03132l0.00142,-0.00138l0.25634,0zM2.50928,0.65872l-0.15257,-0.11132l0.04813,-0.06741l0.07186,0l0.0533,0.10733l0,0.04231zM0.7189,0.95871l-0.10747,0.11796l-0.13143,-0.23058v-0.23378zM0.82272,0.84476l-0.03467,0.03806l-0.2679,-0.38844l0.31661,0.04292zM1.07359,0.5694l-0.14549,0.15969l0.00814,-0.17831zM0.91904,0.92762l0.34285,-0.33269l0.07958,0.01079l0.2166,0.32589l-0.12938,0.74338l-0.04797,0.06718l-0.4679,-0.67842zM2.29485,0.63403l0.00374,-0.00524l0.00968,0.00706zM1.60849,0.64191l-0.0255,0.14652l-0.10955,-0.16483zM1.71407,0.65622l0.16516,0.3878l-0.06545,0.09166l-0.15035,-0.22622l0.04422,-0.25411zM1.94731,0.94867l-0.11789,-0.27681l0.2877,0.039zM2.44086,0.75474l-0.3606,0.5061l-0.08704,-0.20438l0.23593,-0.33042zM2.30865,1.7971l-0.18245,-0.4284l0.4038,-0.56673l0,0.57406zM1.75159,1.22277l-0.18868,0.26425l0.0756,-0.43439zM0.66628,1.17289l0.12002,-0.11646l0.0251,0.03639l-0.01414,0.30985zM1.92514,1.15181l0.0871,0.20451l-0.0268,0.03762l-0.11242,-0.16914zM1.31893,1.8287l-0.15505,0.21714l-0.27394,-0.48059l0.01535,-0.33631zM1.92331,1.48113l-0.36719,0.51535l-0.06538,-0.09479l0.03257,-0.18713l0.28752,-0.40267zM2.05817,1.46418l0.04648,0.10913l-0.05996,-0.09021zM1.61651,2.08405l0.36606,-0.51376l0.22289,0.33536l-0.44665,0.38472zM0.8478,2.4885l0.0336,-0.73628l0.21847,0.38326zM1.31731,2.31501l-0.09888,-0.17347l0.16087,-0.2253l0.00591,0.00857zM1.49439,2.08312l-0.04661,0.06542l0.01848,-0.1062zM2.16297,2.07423l-0.23929,0.4552l-0.10777,-0.15626zM2.33083,2.10439l0.17327,0.40683l-0.21898,0.01878h-0.15923zM1.4081,2.37656l0.14669,-0.20588l0.12782,0.18533l-0.202,0.17399l-0.04075,0l-0.04479,-0.07857zM1.15442,2.23118l0.10421,0.18283l-0.08265,0.11599l-0.23494,0zM1.73971,2.43881l0.06289,0.09119l-0.16877,0z"></path></g></svg>