<!--

Built on 2024-03-26T15:30:23.045Z



## Param string


-->

<svg version="1.1" xmlns="http://www.w3.org/2000/svg" xmlns:xlink="http://www.w3.org/1999/xlink" width="3in" height="1.5in" viewBox="0 0 3.05 1.55"><g fill="none" fill-rule="none" stroke="none" stroke-width="none" stroke-linecap="butt" stroke-linejoin="miter" stroke-miterlimit="10" stroke-dasharray="" stroke-dashoffset="0" font-family="none" font-weight="none" font-size="none" text-anchor="none" style="mix-blend-mode: normal"><path d="M0.25,1.25l0,-1l2.5,0v1z" fill="none" fill-rule="nonzero" stroke="none" stroke-width="1"></path><path d="M0,1.5v-1.5h3v1.5zM0.58262,0.45692c0.00369,0.00154 0.00738,0.00708 0.00738,0.01108v0.024c0,0.004 -0.00369,0.00954 -0.00738,0.01108l-0.08862,0.03692c-0.012,0.005 -0.03613,0.00533 -0.04827,0.00067l-0.09827,-0.03779c-0.00373,-0.00144 -0.00747,-0.00687 -0.00747,-0.01087v-0.024c0,-0.004 0.00373,-0.00944 0.00747,-0.01087l0.09827,-0.03779c0.01213,-0.00467 0.03627,-0.00433 0.04827,0.00067zM0.52,0.762c0,0.004 -0.004,0.008 -0.008,0.008h-0.094c-0.004,0 -0.008,-0.004 -0.008,-0.008v-0.024c0,-0.004 0.004,-0.008 0.008,-0.008h0.094c0.004,0 0.008,0.004 0.008,0.008zM0.38988,0.60494c0.00506,0.00253 0.00612,0.00906 0.00212,0.01306l-0.024,0.024c-0.004,0.004 -0.0133,0.00601 -0.01859,0.00403l-0.05742,-0.02153c-0.006,-0.00225 -0.00799,-0.0095 -0.00399,-0.0145l0.024,-0.03c0.004,-0.005 0.01373,-0.00714 0.01945,-0.00427zM0.652,0.61c0.004,0.005 0.00193,0.01202 -0.00415,0.01405l-0.06712,0.02237c-0.00537,0.00179 -0.01473,-0.00042 -0.01873,-0.00442l-0.024,-0.024c-0.004,-0.004 -0.00283,-0.0103 0.00234,-0.01259l0.06796,-0.0302c0.00585,-0.0026 0.0157,-0.0002 0.0197,0.0048zM0.64785,0.33595c0.00607,0.00202 0.00815,0.00905 0.00415,0.01405l-0.024,0.03c-0.004,0.005 -0.01385,0.0074 -0.0197,0.0048l-0.06796,-0.0302c-0.00517,-0.0023 -0.00634,-0.00859 -0.00234,-0.01259l0.024,-0.024c0.004,-0.004 0.01337,-0.00621 0.01873,-0.00442zM0.392,0.342c0.004,0.004 0.00294,0.01053 -0.00212,0.01306l-0.05843,0.02921c-0.00573,0.00286 -0.01545,0.00073 -0.01945,-0.00427l-0.024,-0.03c-0.004,-0.005 -0.002,-0.01225 0.00399,-0.0145l0.05742,-0.02153c0.0053,-0.00199 0.01459,0.00003 0.01859,0.00403zM0.58262,0.99692c0.00369,0.00154 0.00738,0.00708 0.00738,0.01108v0.024c0,0.004 -0.00369,0.00954 -0.00738,0.01108l-0.08862,0.03692c-0.012,0.005 -0.03613,0.00533 -0.04827,0.00067l-0.09827,-0.03779c-0.00373,-0.00144 -0.00747,-0.00687 -0.00747,-0.01087v-0.024c0,-0.004 0.00373,-0.00944 0.00747,-0.01087l0.09827,-0.03779c0.01213,-0.00467 0.03627,-0.00433 0.04827,0.00067zM0.38988,1.14494c0.00506,0.00253 0.00612,0.00906 0.00212,0.01306l-0.024,0.024c-0.004,0.004 -0.0133,0.00601 -0.01859,0.00403l-0.05742,-0.02153c-0.006,-0.00225 -0.00799,-0.0095 -0.00399,-0.0145l0.024,-0.03c0.004,-0.005 0.01373,-0.00714 0.01945,-0.00427zM0.652,1.15c0.004,0.005 0.00193,0.01202 -0.00415,0.01405l-0.06712,0.02237c-0.00537,0.00179 -0.01473,-0.00042 -0.01873,-0.00442l-0.024,-0.024c-0.004,-0.004 -0.00283,-0.0103 0.00234,-0.01259l0.06796,-0.0302c0.00585,-0.0026 0.0157,-0.0002 0.0197,0.0048zM0.64785,0.87595c0.00607,0.00202 0.00815,0.00905 0.00415,0.01405l-0.024,0.03c-0.004,0.005 -0.01385,0.0074 -0.0197,0.0048l-0.06796,-0.0302c-0.00517,-0.0023 -0.00634,-0.00859 -0.00234,-0.01259l0.024,-0.024c0.004,-0.004 0.01337,-0.00621 0.01873,-0.00442zM0.392,0.882c0.004,0.004 0.00294,0.01053 -0.00212,0.01306l-0.05843,0.02921c-0.00573,0.00286 -0.01545,0.00073 -0.01945,-0.00427l-0.024,-0.03c-0.004,-0.005 -0.002,-0.01225 0.00399,-0.0145l0.05742,-0.02153c0.0053,-0.00199 0.01459,0.00003 0.01859,0.00403zM1.10262,0.45692c0.00369,0.00154 0.00738,0.00708 0.00738,0.01108v0.024c0,0.004 -0.00369,0.00954 -0.00738,0.01108l-0.08862,0.03692c-0.012,0.005 -0.03613,0.00533 -0.04827,0.00067l-0.09827,-0.03779c-0.00373,-0.00144 -0.00747,-0.00687 -0.00747,-0.01087v-0.024c0,-0.004 0.00373,-0.00944 0.00747,-0.01087l0.09827,-0.03779c0.01213,-0.00467 0.03627,-0.00433 0.04827,0.00067zM1.04,0.762c0,0.004 -0.004,0.008 -0.008,0.008h-0.094c-0.004,0 -0.008,-0.004 -0.008,-0.008v-0.024c0,-0.004 0.004,-0.008 0.008,-0.008h0.094c0.004,0 0.008,0.004 0.008,0.008zM0.90966,0.60541c0.00517,0.0023 0.00634,0.00859 0.00234,0.01259l-0.024,0.024c-0.004,0.004 -0.01337,0.00621 -0.01873,0.00442l-0.06712,-0.02237c-0.00607,-0.00202 -0.00815,-0.00905 -0.00415,-0.01405l0.024,-0.03c0.004,-0.005 0.01385,-0.0074 0.0197,-0.0048zM1.172,0.61c0.004,0.005 0.00193,0.01202 -0.00415,0.01405l-0.06712,0.02237c-0.00537,0.00179 -0.01473,-0.00042 -0.01873,-0.00442l-0.024,-0.024c-0.004,-0.004 -0.00283,-0.0103 0.00234,-0.01259l0.06796,-0.0302c0.00585,-0.0026 0.0157,-0.0002 0.0197,0.0048zM1.16785,0.33595c0.00607,0.00202 0.00815,0.00905 0.00415,0.01405l-0.024,0.03c-0.004,0.005 -0.01385,0.0074 -0.0197,0.0048l-0.06796,-0.0302c-0.00517,-0.0023 -0.00634,-0.00859 -0.00234,-0.01259l0.024,-0.024c0.004,-0.004 0.01337,-0.00621 0.01873,-0.00442zM0.912,0.342c0.004,0.004 0.00283,0.0103 -0.00234,0.01259l-0.06796,0.0302c-0.00585,0.0026 -0.0157,0.0002 -0.0197,-0.0048l-0.024,-0.03c-0.004,-0.005 -0.00193,-0.01202 0.00415,-0.01405l0.06712,-0.02237c0.00537,-0.00179 0.01473,0.00042 0.01873,0.00442zM0.732,0.576c-0.001,0.002 -0.00358,0.00242 -0.00516,0.00084l-0.01284,-0.01284c-0.002,-0.002 -0.00117,-0.004 0.00166,-0.004h0.01987c0.00224,0 0.00347,0.002 0.00247,0.004zM1.24316,0.57684c-0.00158,0.00158 -0.00416,0.00116 -0.00516,-0.00084l-0.006,-0.012c-0.001,-0.002 0.00024,-0.004 0.00247,-0.004h0.01987c0.00283,0 0.00366,0.002 0.00166,0.004zM1.256,0.396c0.002,0.002 0.00117,0.004 -0.00166,0.004h-0.01987c-0.00224,0 -0.00347,-0.002 -0.00247,-0.004l0.006,-0.012c0.001,-0.002 0.00358,-0.00242 0.00516,-0.00084zM0.738,0.396c0.001,0.002 -0.00024,0.004 -0.00247,0.004h-0.01987c-0.00283,0 -0.00366,-0.002 -0.00166,-0.004l0.01284,-0.01284c0.00158,-0.00158 0.00416,-0.00116 0.00516,0.00084zM0.83862,0.71621c0.00569,0.0019 0.01138,0.00979 0.01138,0.01579v0.036c0,0.006 -0.00569,0.0139 -0.01138,0.01579l-0.08462,0.02821c-0.012,0.004 -0.03609,0.00428 -0.04818,0.00056l-0.09435,-0.02903c-0.00573,-0.00176 -0.01147,-0.00953 -0.01147,-0.01553v-0.036c0,-0.006 0.00573,-0.01376 0.01147,-0.01553l0.09435,-0.02903c0.01209,-0.00372 0.03618,-0.00344 0.04818,0.00056zM1.35853,0.71647c0.00573,0.00176 0.01147,0.00953 0.01147,0.01553v0.036c0,0.006 -0.00573,0.01376 -0.01147,0.01553l-0.09435,0.02903c-0.01209,0.00372 -0.03618,0.00344 -0.04818,-0.00056l-0.08462,-0.02821c-0.00569,-0.0019 -0.01138,-0.00979 -0.01138,-0.01579v-0.036c0,-0.006 0.00569,-0.0139 0.01138,-0.01579l0.08462,-0.02821c0.012,-0.004 0.03609,-0.00428 0.04818,-0.00056zM1.10262,0.99692c0.00369,0.00154 0.00738,0.00708 0.00738,0.01108v0.024c0,0.004 -0.00369,0.00954 -0.00738,0.01108l-0.08862,0.03692c-0.012,0.005 -0.03613,0.00533 -0.04827,0.00067l-0.09827,-0.03779c-0.00373,-0.00144 -0.00747,-0.00687 -0.00747,-0.01087v-0.024c0,-0.004 0.00373,-0.00944 0.00747,-0.01087l0.09827,-0.03779c0.01213,-0.00467 0.03627,-0.00433 0.04827,0.00067zM0.90966,1.14541c0.00517,0.0023 0.00634,0.00859 0.00234,0.01259l-0.024,0.024c-0.004,0.004 -0.01337,0.00621 -0.01873,0.00442l-0.06712,-0.02237c-0.00607,-0.00202 -0.00815,-0.00905 -0.00415,-0.01405l0.024,-0.03c0.004,-0.005 0.01385,-0.0074 0.0197,-0.0048zM1.172,1.15c0.004,0.005 0.00193,0.01202 -0.00415,0.01405l-0.06712,0.02237c-0.00537,0.00179 -0.01473,-0.00042 -0.01873,-0.00442l-0.024,-0.024c-0.004,-0.004 -0.00283,-0.0103 0.00234,-0.01259l0.06796,-0.0302c0.00585,-0.0026 0.0157,-0.0002 0.0197,0.0048zM1.16785,0.87595c0.00607,0.00202 0.00815,0.00905 0.00415,0.01405l-0.024,0.03c-0.004,0.005 -0.01385,0.0074 -0.0197,0.0048l-0.06796,-0.0302c-0.00517,-0.0023 -0.00634,-0.00859 -0.00234,-0.01259l0.024,-0.024c0.004,-0.004 0.01337,-0.00621 0.01873,-0.00442zM0.912,0.882c0.004,0.004 0.00283,0.0103 -0.00234,0.01259l-0.06796,0.0302c-0.00585,0.0026 -0.0157,0.0002 -0.0197,-0.0048l-0.024,-0.03c-0.004,-0.005 -0.00193,-0.01202 0.00415,-0.01405l0.06712,-0.02237c0.00537,-0.00179 0.01473,0.00042 0.01873,0.00442zM0.732,1.116c-0.001,0.002 -0.00358,0.00242 -0.00516,0.00084l-0.01284,-0.01284c-0.002,-0.002 -0.00117,-0.004 0.00166,-0.004h0.01987c0.00224,0 0.00347,0.002 0.00247,0.004zM1.24316,1.11684c-0.00158,0.00158 -0.00416,0.00116 -0.00516,-0.00084l-0.006,-0.012c-0.001,-0.002 0.00024,-0.004 0.00247,-0.004h0.01987c0.00283,0 0.00366,0.002 0.00166,0.004zM1.256,0.936c0.002,0.002 0.00117,0.004 -0.00166,0.004h-0.01987c-0.00224,0 -0.00347,-0.002 -0.00247,-0.004l0.006,-0.012c0.001,-0.002 0.00358,-0.00242 0.00516,-0.00084zM0.738,0.936c0.001,0.002 -0.00024,0.004 -0.00247,0.004h-0.01987c-0.00283,0 -0.00366,-0.002 -0.00166,-0.004l0.01284,-0.01284c0.00158,-0.00158 0.00416,-0.00116 0.00516,0.00084zM1.61262,0.45692c0.00369,0.00154 0.00738,0.00708 0.00738,0.01108v0.024c0,0.004 -0.00369,0.00954 -0.00738,0.01108l-0.08862,0.03692c-0.012,0.005 -0.036,0.005 -0.048,0l-0.08862,-0.03692c-0.00369,-0.00154 -0.00738,-0.00708 -0.00738,-0.01108v-0.024c0,-0.004 0.00369,-0.00954 0.00738,-0.01108l0.08862,-0.03692c0.012,-0.005 0.036,-0.005 0.048,0zM1.55,0.762c0,0.004 -0.004,0.008 -0.008,0.008h-0.084c-0.004,0 -0.008,-0.004 -0.008,-0.008v-0.024c0,-0.004 0.004,-0.008 0.008,-0.008h0.084c0.004,0 0.008,0.004 0.008,0.008zM1.42106,0.60553c0.00447,0.00224 0.00594,0.00847 0.00294,0.01247l-0.018,0.024c-0.003,0.004 -0.01074,0.00642 -0.01549,0.00484l-0.06836,-0.02279c-0.00607,-0.00202 -0.00815,-0.00905 -0.00415,-0.01405l0.024,-0.03c0.004,-0.005 0.01373,-0.00714 0.01945,-0.00427zM1.682,0.61c0.004,0.005 0.00193,0.01202 -0.00415,0.01405l-0.06836,0.02279c-0.00474,0.00158 -0.01249,-0.00084 -0.01549,-0.00484l-0.018,-0.024c-0.003,-0.004 -0.00153,-0.01024 0.00294,-0.01247l0.0596,-0.0298c0.00573,-0.00286 0.01545,-0.00073 0.01945,0.00427zM1.67785,0.33595c0.00607,0.00202 0.00815,0.00905 0.00415,0.01405l-0.024,0.03c-0.004,0.005 -0.01373,0.00714 -0.01945,0.00427l-0.0596,-0.0298c-0.00447,-0.00224 -0.00594,-0.00847 -0.00294,-0.01247l0.018,-0.024c0.003,-0.004 0.01074,-0.00642 0.01549,-0.00484zM1.424,0.342c0.003,0.004 0.00153,0.01024 -0.00294,0.01247l-0.0596,0.0298c-0.00573,0.00286 -0.01545,0.00073 -0.01945,-0.00427l-0.024,-0.03c-0.004,-0.005 -0.00193,-0.01202 0.00415,-0.01405l0.06836,-0.02279c0.00474,-0.00158 0.01249,0.00084 0.01549,0.00484zM1.61262,0.99692c0.00369,0.00154 0.00738,0.00708 0.00738,0.01108v0.024c0,0.004 -0.00369,0.00954 -0.00738,0.01108l-0.08862,0.03692c-0.012,0.005 -0.036,0.005 -0.048,0l-0.08862,-0.03692c-0.00369,-0.00154 -0.00738,-0.00708 -0.00738,-0.01108v-0.024c0,-0.004 0.00369,-0.00954 0.00738,-0.01108l0.08862,-0.03692c0.012,-0.005 0.036,-0.005 0.048,0zM1.42106,1.14553c0.00447,0.00224 0.00594,0.00847 0.00294,0.01247l-0.018,0.024c-0.003,0.004 -0.01074,0.00642 -0.01549,0.00484l-0.06836,-0.02279c-0.00607,-0.00202 -0.00815,-0.00905 -0.00415,-0.01405l0.024,-0.03c0.004,-0.005 0.01373,-0.00714 0.01945,-0.00427zM1.682,1.15c0.004,0.005 0.00193,0.01202 -0.00415,0.01405l-0.06836,0.02279c-0.00474,0.00158 -0.01249,-0.00084 -0.01549,-0.00484l-0.018,-0.024c-0.003,-0.004 -0.00153,-0.01024 0.00294,-0.01247l0.0596,-0.0298c0.00573,-0.00286 0.01545,-0.00073 0.01945,0.00427zM1.67785,0.87595c0.00607,0.00202 0.00815,0.00905 0.00415,0.01405l-0.024,0.03c-0.004,0.005 -0.01373,0.00714 -0.01945,0.00427l-0.0596,-0.0298c-0.00447,-0.00224 -0.00594,-0.00847 -0.00294,-0.01247l0.018,-0.024c0.003,-0.004 0.01074,-0.00642 0.01549,-0.00484zM1.424,0.882c0.003,0.004 0.00153,0.01024 -0.00294,0.01247l-0.0596,0.0298c-0.00573,0.00286 -0.01545,0.00073 -0.01945,-0.00427l-0.024,-0.03c-0.004,-0.005 -0.00193,-0.01202 0.00415,-0.01405l0.06836,-0.02279c0.00474,-0.00158 0.01249,0.00084 0.01549,0.00484zM2.13262,0.45692c0.00369,0.00154 0.00738,0.00708 0.00738,0.01108v0.024c0,0.004 -0.00369,0.00954 -0.00738,0.01108l-0.08862,0.03692c-0.012,0.005 -0.03613,0.00533 -0.04827,0.00067l-0.09827,-0.03779c-0.00373,-0.00144 -0.00747,-0.00687 -0.00747,-0.01087v-0.024c0,-0.004 0.00373,-0.00944 0.00747,-0.01087l0.09827,-0.03779c0.01213,-0.00467 0.03627,-0.00433 0.04827,0.00067zM2.07,0.762c0,0.004 -0.004,0.008 -0.008,0.008h-0.094c-0.004,0 -0.008,-0.004 -0.008,-0.008v-0.024c0,-0.004 0.004,-0.008 0.008,-0.008h0.094c0.004,0 0.008,0.004 0.008,0.008zM1.93966,0.60541c0.00517,0.0023 0.00634,0.00859 0.00234,0.01259l-0.024,0.024c-0.004,0.004 -0.01337,0.00621 -0.01873,0.00442l-0.06712,-0.02237c-0.00607,-0.00202 -0.00815,-0.00905 -0.00415,-0.01405l0.024,-0.03c0.004,-0.005 0.01385,-0.0074 0.0197,-0.0048zM2.202,0.61c0.004,0.005 0.00193,0.01202 -0.00415,0.01405l-0.06712,0.02237c-0.00537,0.00179 -0.01473,-0.00042 -0.01873,-0.00442l-0.024,-0.024c-0.004,-0.004 -0.00283,-0.0103 0.00234,-0.01259l0.06796,-0.0302c0.00585,-0.0026 0.0157,-0.0002 0.0197,0.0048zM2.19785,0.33595c0.00607,0.00202 0.00815,0.00905 0.00415,0.01405l-0.024,0.03c-0.004,0.005 -0.01385,0.0074 -0.0197,0.0048l-0.06796,-0.0302c-0.00517,-0.0023 -0.00634,-0.00859 -0.00234,-0.01259l0.024,-0.024c0.004,-0.004 0.01337,-0.00621 0.01873,-0.00442zM1.942,0.342c0.004,0.004 0.00283,0.0103 -0.00234,0.01259l-0.06796,0.0302c-0.00585,0.0026 -0.0157,0.0002 -0.0197,-0.0048l-0.024,-0.03c-0.004,-0.005 -0.00193,-0.01202 0.00415,-0.01405l0.06712,-0.02237c0.00537,-0.00179 0.01473,0.00042 0.01873,0.00442zM1.762,0.576c-0.001,0.002 -0.00358,0.00242 -0.00516,0.00084l-0.01284,-0.01284c-0.002,-0.002 -0.00117,-0.004 0.00166,-0.004h0.01987c0.00224,0 0.00347,0.002 0.00247,0.004zM2.27316,0.57684c-0.00158,0.00158 -0.00416,0.00116 -0.00516,-0.00084l-0.006,-0.012c-0.001,-0.002 0.00024,-0.004 0.00247,-0.004h0.01987c0.00283,0 0.00366,0.002 0.00166,0.004zM2.286,0.396c0.002,0.002 0.00117,0.004 -0.00166,0.004h-0.01987c-0.00224,0 -0.00347,-0.002 -0.00247,-0.004l0.006,-0.012c0.001,-0.002 0.00358,-0.00242 0.00516,-0.00084zM1.768,0.396c0.001,0.002 -0.00024,0.004 -0.00247,0.004h-0.01987c-0.00283,0 -0.00366,-0.002 -0.00166,-0.004l0.01284,-0.01284c0.00158,-0.00158 0.00416,-0.00116 0.00516,0.00084zM1.86862,0.71621c0.00569,0.0019 0.01138,0.00979 0.01138,0.01579v0.036c0,0.006 -0.00569,0.0139 -0.01138,0.01579l-0.08462,0.02821c-0.012,0.004 -0.03609,0.00428 -0.04818,0.00056l-0.09435,-0.02903c-0.00573,-0.00176 -0.01147,-0.00953 -0.01147,-0.01553v-0.036c0,-0.006 0.00573,-0.01376 0.01147,-0.01553l0.09435,-0.02903c0.01209,-0.00372 0.03618,-0.00344 0.04818,0.00056zM2.38853,0.71647c0.00573,0.00176 0.01147,0.00953 0.01147,0.01553v0.036c0,0.006 -0.00573,0.01376 -0.01147,0.01553l-0.09435,0.02903c-0.01209,0.00372 -0.03618,0.00344 -0.04818,-0.00056l-0.08462,-0.02821c-0.00569,-0.0019 -0.01138,-0.00979 -0.01138,-0.01579v-0.036c0,-0.006 0.00569,-0.0139 0.01138,-0.01579l0.08462,-0.02821c0.012,-0.004 0.03609,-0.00428 0.04818,-0.00056zM2.13262,0.99692c0.00369,0.00154 0.00738,0.00708 0.00738,0.01108v0.024c0,0.004 -0.00369,0.00954 -0.00738,0.01108l-0.08862,0.03692c-0.012,0.005 -0.03613,0.00533 -0.04827,0.00067l-0.09827,-0.03779c-0.00373,-0.00144 -0.00747,-0.00687 -0.00747,-0.01087v-0.024c0,-0.004 0.00373,-0.00944 0.00747,-0.01087l0.09827,-0.03779c0.01213,-0.00467 0.03627,-0.00433 0.04827,0.00067zM1.93966,1.14541c0.00517,0.0023 0.00634,0.00859 0.00234,0.01259l-0.024,0.024c-0.004,0.004 -0.01337,0.00621 -0.01873,0.00442l-0.06712,-0.02237c-0.00607,-0.00202 -0.00815,-0.00905 -0.00415,-0.01405l0.024,-0.03c0.004,-0.005 0.01385,-0.0074 0.0197,-0.0048zM2.202,1.15c0.004,0.005 0.00193,0.01202 -0.00415,0.01405l-0.06712,0.02237c-0.00537,0.00179 -0.01473,-0.00042 -0.01873,-0.00442l-0.024,-0.024c-0.004,-0.004 -0.00283,-0.0103 0.00234,-0.01259l0.06796,-0.0302c0.00585,-0.0026 0.0157,-0.0002 0.0197,0.0048zM2.19785,0.87595c0.00607,0.00202 0.00815,0.00905 0.00415,0.01405l-0.024,0.03c-0.004,0.005 -0.01385,0.0074 -0.0197,0.0048l-0.06796,-0.0302c-0.00517,-0.0023 -0.00634,-0.00859 -0.00234,-0.01259l0.024,-0.024c0.004,-0.004 0.01337,-0.00621 0.01873,-0.00442zM1.942,0.882c0.004,0.004 0.00283,0.0103 -0.00234,0.01259l-0.06796,0.0302c-0.00585,0.0026 -0.0157,0.0002 -0.0197,-0.0048l-0.024,-0.03c-0.004,-0.005 -0.00193,-0.01202 0.00415,-0.01405l0.06712,-0.02237c0.00537,-0.00179 0.01473,0.00042 0.01873,0.00442zM1.762,1.116c-0.001,0.002 -0.00358,0.00242 -0.00516,0.00084l-0.01284,-0.01284c-0.002,-0.002 -0.00117,-0.004 0.00166,-0.004h0.01987c0.00224,0 0.00347,0.002 0.00247,0.004zM2.27316,1.11684c-0.00158,0.00158 -0.00416,0.00116 -0.00516,-0.00084l-0.006,-0.012c-0.001,-0.002 0.00024,-0.004 0.00247,-0.004h0.01987c0.00283,0 0.00366,0.002 0.00166,0.004zM2.286,0.936c0.002,0.002 0.00117,0.004 -0.00166,0.004h-0.01987c-0.00224,0 -0.00347,-0.002 -0.00247,-0.004l0.006,-0.012c0.001,-0.002 0.00358,-0.00242 0.00516,-0.00084zM1.768,0.936c0.001,0.002 -0.00024,0.004 -0.00247,0.004h-0.01987c-0.00283,0 -0.00366,-0.002 -0.00166,-0.004l0.01284,-0.01284c0.00158,-0.00158 0.00416,-0.00116 0.00516,0.00084zM2.65253,0.45713c0.00373,0.00144 0.00747,0.00687 0.00747,0.01087v0.024c0,0.004 -0.00373,0.00944 -0.00747,0.01087l-0.09827,0.03779c-0.01213,0.00467 -0.03627,0.00433 -0.04827,-0.00067l-0.08862,-0.03692c-0.00369,-0.00154 -0.00738,-0.00708 -0.00738,-0.01108v-0.024c0,-0.004 0.00369,-0.00954 0.00738,-0.01108l0.08862,-0.03692c0.012,-0.005 0.03613,-0.00533 0.04827,-0.00067zM2.59,0.762c0,0.004 -0.004,0.008 -0.008,0.008h-0.094c-0.004,0 -0.008,-0.004 -0.008,-0.008v-0.024c0,-0.004 0.004,-0.008 0.008,-0.008h0.094c0.004,0 0.008,0.004 0.008,0.008zM2.45966,0.60541c0.00517,0.0023 0.00634,0.00859 0.00234,0.01259l-0.024,0.024c-0.004,0.004 -0.01337,0.00621 -0.01873,0.00442l-0.06712,-0.02237c-0.00607,-0.00202 -0.00815,-0.00905 -0.00415,-0.01405l0.024,-0.03c0.004,-0.005 0.01385,-0.0074 0.0197,-0.0048zM2.712,0.61c0.004,0.005 0.002,0.01225 -0.00399,0.0145l-0.05742,0.02153c-0.0053,0.00199 -0.01459,-0.00003 -0.01859,-0.00403l-0.024,-0.024c-0.004,-0.004 -0.00294,-0.01053 0.00212,-0.01306l0.05843,-0.02921c0.00573,-0.00286 0.01545,-0.00073 0.01945,0.00427zM2.70801,0.3355c0.006,0.00225 0.00799,0.0095 0.00399,0.0145l-0.024,0.03c-0.004,0.005 -0.01373,0.00714 -0.01945,0.00427l-0.05843,-0.02921c-0.00506,-0.00253 -0.00612,-0.00906 -0.00212,-0.01306l0.024,-0.024c0.004,-0.004 0.0133,-0.00601 0.01859,-0.00403zM2.462,0.342c0.004,0.004 0.00283,0.0103 -0.00234,0.01259l-0.06796,0.0302c-0.00585,0.0026 -0.0157,0.0002 -0.0197,-0.0048l-0.024,-0.03c-0.004,-0.005 -0.00193,-0.01202 0.00415,-0.01405l0.06712,-0.02237c0.00537,-0.00179 0.01473,0.00042 0.01873,0.00442zM2.65253,0.99713c0.00373,0.00144 0.00747,0.00687 0.00747,0.01087v0.024c0,0.004 -0.00373,0.00944 -0.00747,0.01087l-0.09827,0.03779c-0.01213,0.00467 -0.03627,0.00433 -0.04827,-0.00067l-0.08862,-0.03692c-0.00369,-0.00154 -0.00738,-0.00708 -0.00738,-0.01108v-0.024c0,-0.004 0.00369,-0.00954 0.00738,-0.01108l0.08862,-0.03692c0.012,-0.005 0.03613,-0.00533 0.04827,-0.00067zM2.45966,1.14541c0.00517,0.0023 0.00634,0.00859 0.00234,0.01259l-0.024,0.024c-0.004,0.004 -0.01337,0.00621 -0.01873,0.00442l-0.06712,-0.02237c-0.00607,-0.00202 -0.00815,-0.00905 -0.00415,-0.01405l0.024,-0.03c0.004,-0.005 0.01385,-0.0074 0.0197,-0.0048zM2.712,1.15c0.004,0.005 0.002,0.01225 -0.00399,0.0145l-0.05742,0.02153c-0.0053,0.00199 -0.01459,-0.00003 -0.01859,-0.00403l-0.024,-0.024c-0.004,-0.004 -0.00294,-0.01053 0.00212,-0.01306l0.05843,-0.02921c0.00573,-0.00286 0.01545,-0.00073 0.01945,0.00427zM2.70801,0.8755c0.006,0.00225 0.00799,0.0095 0.00399,0.0145l-0.024,0.03c-0.004,0.005 -0.01373,0.00714 -0.01945,0.00427l-0.05843,-0.02921c-0.00506,-0.00253 -0.00612,-0.00906 -0.00212,-0.01306l0.024,-0.024c0.004,-0.004 0.0133,-0.00601 0.01859,-0.00403zM2.462,0.882c0.004,0.004 0.00283,0.0103 -0.00234,0.01259l-0.06796,0.0302c-0.00585,0.0026 -0.0157,0.0002 -0.0197,-0.0048l-0.024,-0.03c-0.004,-0.005 -0.00193,-0.01202 0.00415,-0.01405l0.06712,-0.02237c0.00537,-0.00179 0.01473,0.00042 0.01873,0.00442z" fill="#000000" fill-rule="evenodd" stroke="#000000" stroke-width="0.005"></path></g></svg>