<!--

Built on 2024-03-26T15:30:23.172Z



## Param string


-->

<svg version="1.1" xmlns="http://www.w3.org/2000/svg" xmlns:xlink="http://www.w3.org/1999/xlink" width="3in" height="1.5in" viewBox="0 0 3.05 1.55"><g fill="none" fill-rule="none" stroke="none" stroke-width="none" stroke-linecap="butt" stroke-linejoin="miter" stroke-miterlimit="10" stroke-dasharray="" stroke-dashoffset="0" font-family="none" font-weight="none" font-size="none" text-anchor="none" style="mix-blend-mode: normal"><path d="M0.25,1.25l0,-1l2.5,0v1z" fill="none" fill-rule="nonzero" stroke="none" stroke-width="1"></path><path d="M0,1.5v-1.5h3v1.5zM1.8293,1.09438c0.01041,0.0028 0.02482,0.01562 0.02883,0.02563l0.02402,0.06006c0.004,0.01001 -0.00277,0.02002 -0.01355,0.02002h-0.16456c-0.01705,0 -0.0451,-0.01301 -0.05611,-0.02603l-0.08162,-0.09646c-0.00323,-0.00382 -0.00346,-0.01165 -0.00046,-0.01565l0.01802,-0.02402c0.003,-0.004 0.01084,-0.00671 0.01567,-0.00541zM2.70008,0.96584c0,0.01218 -0.01201,0.02636 -0.02402,0.02836l-0.09168,0.01528c-0.00221,0.00037 -0.00642,-0.00027 -0.00842,-0.00127l-0.01201,-0.00601c-0.002,-0.001 -0.00453,-0.00418 -0.00505,-0.00636l-0.01497,-0.06253c-0.002,-0.00836 -0.00031,-0.02448 0.00338,-0.03225l0.12074,-0.25393c0.01602,-0.03368 0.03203,-0.03007 0.03203,0.00723zM2.42407,1.19201c-0.002,0.004 -0.00848,0.00801 -0.01296,0.00801h-0.13596c-0.00762,0 -0.00824,-0.003 -0.00123,-0.00601l0.04204,-0.01802c0.00701,-0.003 0.02161,-0.0067 0.0292,-0.00739l0.08601,-0.00782c0.00446,-0.00041 0.00691,0.00319 0.00491,0.0072zM2.42631,0.68534c-0.00816,0.01741 -0.02833,0.01981 -0.04035,0.00479l-0.07355,-0.09194c-0.01127,-0.01409 -0.01254,-0.0432 -0.00253,-0.05821l0.07897,-0.11845c0.00056,-0.00083 0.00111,-0.00267 0.00111,-0.00367v-0.00601c0,-0.001 0.00097,-0.00224 0.00194,-0.00249l0.03009,-0.00752c0.004,-0.001 0.01214,-0.002 0.01626,-0.002h0.09585c0.01301,0 0.0205,0.01178 0.01498,0.02357zM2.09887,1.04256c0.00559,0.00372 0.00517,0.01045 -0.00084,0.01346l-0.03841,0.0192c-0.00482,0.00241 -0.01164,-0.00018 -0.01365,-0.00519l-0.01391,-0.03478c-0.00105,-0.00263 -0.0001,-0.00726 0.0019,-0.00926l0.01201,-0.01201c0.002,-0.002 0.00636,-0.00243 0.00872,-0.00086zM2.70004,1.198c0,0.001 -0.001,0.002 -0.002,0.002h-0.05405c-0.00701,0 -0.00708,-0.00099 -0.00014,-0.00198l0.05421,-0.00774c0.00099,-0.00014 0.00198,0.00072 0.00198,0.00172zM1.65005,0.51563c0,0.00224 -0.002,0.00548 -0.004,0.00648l-0.01201,0.00601c-0.002,0.001 -0.0059,0.00082 -0.0078,-0.00037l-0.06027,-0.03767c-0.00801,-0.005 -0.01602,-0.01945 -0.01602,-0.0289v-0.14127c0,-0.01001 0.01001,-0.02002 0.02002,-0.02002h0.06006c0.01001,0 0.02002,0.01001 0.02002,0.02002zM2.1364,0.41541c0.00685,0.00228 0.00969,0.01057 0.00569,0.01658l-0.02402,0.03604c-0.004,0.00601 -0.01497,0.01391 -0.02194,0.01581l-0.08846,0.02412c-0.00386,0.00105 -0.01173,0.00211 -0.01573,0.00211h-0.02402c-0.004,0 -0.00611,-0.00353 -0.00421,-0.00705l0.05427,-0.10078c0.006,-0.01115 0.02402,-0.01829 0.03603,-0.01429zM2.30003,0.90953c0.01504,0.0203 0.00905,0.02659 -0.01197,0.01257l-0.14811,-0.09874c-0.01003,-0.00669 -0.02106,-0.02538 -0.02206,-0.0374l-0.00764,-0.09163c-0.00019,-0.00223 0.00163,-0.00546 0.00363,-0.00646l0.01201,-0.00601c0.002,-0.001 0.00534,-0.0002 0.00667,0.0016zM1.77798,0.67989c0.001,0 0.00298,0.00023 0.00395,0.00045l0.10215,0.02357c0.01301,0.003 0.02698,0.01933 0.02793,0.03265l0.00719,0.10071c0.00046,0.00639 -0.00309,0.01779 -0.00709,0.0228l-0.02402,0.03003c-0.004,0.00501 -0.01417,0.00825 -0.02033,0.00649l-0.1722,-0.0492c-0.01284,-0.00367 -0.02268,-0.02035 -0.01968,-0.03336l0.0206,-0.08925c0.00171,-0.00743 0.01044,-0.01786 0.01744,-0.02086l0.05422,-0.02324c0.00092,-0.00039 0.00284,-0.00079 0.00384,-0.00079zM1.40047,1.03252c0.00483,-0.0013 0.01267,0.0014 0.01567,0.00541l0.01802,0.02402c0.003,0.004 0.00277,0.01183 -0.00046,0.01565l-0.08162,0.09646c-0.01101,0.01301 -0.03907,0.02603 -0.05611,0.02603h-0.16456c-0.01078,0 -0.01756,-0.01001 -0.01355,-0.02002l0.02402,-0.06006c0.004,-0.01001 0.01842,-0.02282 0.02883,-0.02563zM0.29992,0.65438c0,-0.0373 0.01602,-0.04091 0.03203,-0.00723l0.12074,0.25393c0.00369,0.00776 0.00538,0.02389 0.00338,0.03225l-0.01497,0.06253c-0.00052,0.00218 -0.00304,0.00535 -0.00505,0.00636l-0.01201,0.00601c-0.002,0.001 -0.00621,0.00163 -0.00842,0.00127l-0.09168,-0.01528c-0.01201,-0.002 -0.02402,-0.01618 -0.02402,-0.02836zM0.56391,1.16799c-0.002,-0.004 0.00045,-0.0076 0.00491,-0.0072l0.08601,0.00782c0.00759,0.00069 0.02219,0.00438 0.0292,0.00739l0.04204,0.01802c0.00701,0.003 0.00639,0.00601 -0.00123,0.00601h-0.13596c-0.00448,0 -0.01096,-0.004 -0.01296,-0.00801zM0.45091,0.42341c-0.00552,-0.01178 0.00197,-0.02357 0.01498,-0.02357h0.09585c0.00413,0 0.01226,0.001 0.01626,0.002l0.03009,0.00752c0.00097,0.00024 0.00194,0.00149 0.00194,0.00249v0.00601c0,0.001 0.00056,0.00283 0.00111,0.00367l0.07897,0.11845c0.01001,0.01502 0.00875,0.04412 -0.00253,0.05821l-0.07355,0.09194c-0.01201,0.01502 -0.03219,0.01262 -0.04035,-0.00479zM0.94531,1.01311c0.00236,-0.00157 0.00671,-0.00114 0.00872,0.00086l0.01201,0.01201c0.002,0.002 0.00295,0.00663 0.0019,0.00926l-0.01391,0.03478c-0.002,0.005 -0.00883,0.0076 -0.01365,0.00519l-0.03841,-0.0192c-0.00601,-0.003 -0.00642,-0.00973 -0.00084,-0.01346zM0.29996,1.192c0,-0.001 0.00099,-0.00186 0.00198,-0.00172l0.05421,0.00774c0.00694,0.00099 0.00687,0.00198 -0.00014,0.00198h-0.05405c-0.001,0 -0.002,-0.001 -0.002,-0.002zM1.34995,0.31991c0,-0.01001 0.01001,-0.02002 0.02002,-0.02002h0.06006c0.01001,0 0.02002,0.01001 0.02002,0.02002v0.14127c0,0.00944 -0.00801,0.02389 -0.01602,0.0289l-0.06027,0.03767c-0.0019,0.00119 -0.0058,0.00137 -0.0078,0.00037l-0.01201,-0.00601c-0.002,-0.001 -0.004,-0.00424 -0.004,-0.00648zM0.946,0.38794c0.01201,-0.004 0.03003,0.00314 0.03603,0.01429l0.05427,0.10078c0.0019,0.00353 -0.00021,0.00705 -0.00421,0.00705h-0.02402c-0.004,0 -0.01187,-0.00105 -0.01573,-0.00211l-0.08846,-0.02412c-0.00696,-0.0019 -0.01793,-0.0098 -0.02194,-0.01581l-0.02402,-0.03604c-0.004,-0.00601 -0.00116,-0.01429 0.00569,-0.01658zM0.86743,0.68346c0.00133,-0.0018 0.00467,-0.0026 0.00667,-0.0016l0.01201,0.00601c0.002,0.001 0.00382,0.00423 0.00363,0.00646l-0.00764,0.09163c-0.001,0.01201 -0.01203,0.03071 -0.02206,0.0374l-0.14811,0.09874c-0.02102,0.01401 -0.027,0.00773 -0.01197,-0.01257zM1.22802,0.67989c0.001,0 0.00292,0.00039 0.00384,0.00079l0.05422,0.02324c0.00701,0.003 0.01573,0.01343 0.01744,0.02086l0.0206,0.08925c0.003,0.01301 -0.00684,0.02969 -0.01968,0.03336l-0.1722,0.0492c-0.00616,0.00176 -0.01633,-0.00148 -0.02033,-0.00649l-0.02402,-0.03003c-0.004,-0.00501 -0.00755,-0.0164 -0.00709,-0.0228l0.00719,-0.10071c0.00095,-0.01332 0.01492,-0.02965 0.02793,-0.03265l0.10215,-0.02357c0.00098,-0.00023 0.00295,-0.00045 0.00395,-0.00045z" fill="#000000" fill-rule="evenodd" stroke="#000000" stroke-width="0.005"></path></g></svg>