<svg version="1.1" xmlns="http://www.w3.org/2000/svg" xmlns:xlink="http://www.w3.org/1999/xlink" width="3in" height="3in" viewBox="0 0 3.05 3.05"><g fill="none" fill-rule="none" stroke="none" stroke-width="none" stroke-linecap="butt" stroke-linejoin="miter" stroke-miterlimit="10" stroke-dasharray="" stroke-dashoffset="0" font-family="none" font-weight="none" font-size="none" text-anchor="none" style="mix-blend-mode: normal"><path d="M0.25,2.75l0,-2.5l2.5,0v2.5z" fill="none" fill-rule="nonzero" stroke="none" stroke-width="1"></path><path d="M0,3v-3h3v3zM2.67,0.83h-0.04c-0.04,0 -0.08,-0.04 -0.08,-0.08v-0.36c0,-0.04 0.04,-0.08 0.08,-0.08h0.04c0.04,0 0.08,0.04 0.08,0.08v0.36c0,0.04 -0.04,0.08 -0.08,0.08zM0.51,0.75c0,0.04 -0.04,0.08 -0.08,0.08h-0.04c-0.04,0 -0.08,-0.04 -0.08,-0.08v-0.36c0,-0.04 0.04,-0.08 0.08,-0.08h0.04c0.04,0 0.08,0.04 0.08,0.08zM2.43,1.262c0,0.104 -0.104,0.208 -0.208,0.208h-0.104c-0.104,0 -0.208,-0.104 -0.208,-0.208v-0.184c0,-0.064 0.064,-0.128 0.128,-0.128h0.064c0.064,0 0.128,-0.064 0.128,-0.128v-0.432c0,-0.04 0.04,-0.08 0.08,-0.08h0.04c0.04,0 0.08,0.04 0.08,0.08zM0.83,0.822c0,0.064 0.064,0.128 0.128,0.128h0.064c0.064,0 0.128,0.064 0.128,0.128v0.184c0,0.104 -0.104,0.208 -0.208,0.208h-0.104c-0.104,0 -0.208,-0.104 -0.208,-0.208v-0.872c0,-0.04 0.04,-0.08 0.08,-0.08h0.04c0.04,0 0.08,0.04 0.08,0.08zM2.67,1.47h-0.04c-0.04,0 -0.08,-0.04 -0.08,-0.08v-0.36c0,-0.04 0.04,-0.08 0.08,-0.08h0.04c0.04,0 0.08,0.04 0.08,0.08v0.36c0,0.04 -0.04,0.08 -0.08,0.08zM2.11,0.702c0,0.064 -0.064,0.128 -0.128,0.128h-0.064c-0.064,0 -0.128,0.064 -0.128,0.128v0.304c0,0.104 -0.104,0.208 -0.208,0.208h-0.104c-0.104,0 -0.208,-0.104 -0.208,-0.208v-0.304c0,-0.064 -0.064,-0.128 -0.128,-0.128h-0.064c-0.064,0 -0.128,-0.064 -0.128,-0.128v-0.184c0,-0.104 0.104,-0.208 0.208,-0.208h0.744c0.104,0 0.208,0.104 0.208,0.208zM0.51,1.39c0,0.04 -0.04,0.08 -0.08,0.08h-0.04c-0.04,0 -0.08,-0.04 -0.08,-0.08v-0.36c0,-0.04 0.04,-0.08 0.08,-0.08h0.04c0.04,0 0.08,0.04 0.08,0.08zM1.79,2.102c0,0.064 0.064,0.128 0.128,0.128h0.064c0.064,0 0.128,0.064 0.128,0.128v0.184c0,0.104 -0.104,0.208 -0.208,0.208h-0.744c-0.104,0 -0.208,-0.104 -0.208,-0.208v-0.184c0,-0.064 0.064,-0.128 0.128,-0.128h0.064c0.064,0 0.128,-0.064 0.128,-0.128v-0.304c0,-0.104 0.104,-0.208 0.208,-0.208h0.104c0.104,0 0.208,0.104 0.208,0.208zM2.67,2.11h-0.04c-0.04,0 -0.08,-0.04 -0.08,-0.08v-0.36c0,-0.04 0.04,-0.08 0.08,-0.08h0.04c0.04,0 0.08,0.04 0.08,0.08v0.36c0,0.04 -0.04,0.08 -0.08,0.08zM0.51,2.03c0,0.04 -0.04,0.08 -0.08,0.08h-0.04c-0.04,0 -0.08,-0.04 -0.08,-0.08v-0.36c0,-0.04 0.04,-0.08 0.08,-0.08h0.04c0.04,0 0.08,0.04 0.08,0.08zM2.43,2.67c0,0.04 -0.04,0.08 -0.08,0.08h-0.04c-0.04,0 -0.08,-0.04 -0.08,-0.08v-0.432c0,-0.064 -0.064,-0.128 -0.128,-0.128h-0.064c-0.064,0 -0.128,-0.064 -0.128,-0.128v-0.184c0,-0.104 0.104,-0.208 0.208,-0.208h0.104c0.104,0 0.208,0.104 0.208,0.208zM1.15,1.982c0,0.064 -0.064,0.128 -0.128,0.128h-0.064c-0.064,0 -0.128,0.064 -0.128,0.128v0.432c0,0.04 -0.04,0.08 -0.08,0.08h-0.04c-0.04,0 -0.08,-0.04 -0.08,-0.08v-0.872c0,-0.104 0.104,-0.208 0.208,-0.208h0.104c0.104,0 0.208,0.104 0.208,0.208zM2.55,2.67v-0.36c0,-0.04 0.04,-0.08 0.08,-0.08h0.04c0.04,0 0.08,0.04 0.08,0.08v0.36c0,0.04 -0.04,0.08 -0.08,0.08h-0.04c-0.04,0 -0.08,-0.04 -0.08,-0.08zM0.51,2.67c0,0.04 -0.04,0.08 -0.08,0.08h-0.04c-0.04,0 -0.08,-0.04 -0.08,-0.08v-0.36c0,-0.04 0.04,-0.08 0.08,-0.08h0.04c0.04,0 0.08,0.04 0.08,0.08z" fill="#000000" fill-rule="evenodd" stroke="#000000" stroke-width="0.005"></path></g></svg>