<svg version="1.1" xmlns="http://www.w3.org/2000/svg" xmlns:xlink="http://www.w3.org/1999/xlink" width="3in" height="3in" viewBox="0 0 3.05 3.05"><g fill="none" fill-rule="none" stroke="none" stroke-width="none" stroke-linecap="butt" stroke-linejoin="miter" stroke-miterlimit="10" stroke-dasharray="" stroke-dashoffset="0" font-family="none" font-weight="none" font-size="none" text-anchor="none" style="mix-blend-mode: normal"><path d="M0.25,2.75l0,-2.5l2.5,0v2.5z" fill="none" fill-rule="nonzero" stroke="none" stroke-width="1"></path><path d="M0,3v-3h3v3zM1.7316,1.095c0,-0.41421 0.33579,-0.75 0.75,-0.75c0.09458,0 0.18507,0.01751 0.2684,0.04946l0,1.40109c-0.08334,0.03195 -0.17383,0.04946 -0.2684,0.04946c-0.41421,0 -0.75,-0.33579 -0.75,-0.75zM0.91312,1.96443c0,0.38326 -0.29037,0.69869 -0.66312,0.73831l0,-1.47661c0.37275,0.03962 0.66312,0.35505 0.66312,0.73831zM1.32825,0.72513c-0.30125,0 -0.55571,-0.20038 -0.63734,-0.47513l1.27468,0c-0.08164,0.27475 -0.33609,0.47513 -0.63734,0.47513zM0.51488,0.63999c0,0.17167 -0.11085,0.31746 -0.26488,0.36968l0,-0.73936c0.15403,0.05222 0.26488,0.19801 0.26488,0.36968zM0.89454,1.23279c0,-0.18537 0.15027,-0.33564 0.33564,-0.33564c0.18537,0 0.33564,0.15027 0.33564,0.33564c0,0.18537 -0.15027,0.33564 -0.33564,0.33564c-0.18537,0 -0.33564,-0.15027 -0.33564,-0.33564zM1.23402,1.95842c0,-0.17278 0.14006,-0.31284 0.31284,-0.31284c0.17278,0 0.31284,0.14006 0.31284,0.31284c0,0.17278 -0.14006,0.31284 -0.31284,0.31284c-0.17278,0 -0.31284,-0.14006 -0.31284,-0.31284zM0.57003,1.12958c0,-0.0507 0.0411,-0.09179 0.09179,-0.09179c0.0507,0 0.09179,0.0411 0.09179,0.09179c0,0.0507 -0.0411,0.09179 -0.09179,0.09179c-0.0507,0 -0.09179,-0.0411 -0.09179,-0.09179zM2.00671,1.99867c0,-0.0487 0.03948,-0.08818 0.08818,-0.08818c0.0487,0 0.08818,0.03948 0.08818,0.08818c0,0.0487 -0.03948,0.08818 -0.08818,0.08818c-0.0487,0 -0.08818,-0.03948 -0.08818,-0.08818zM0.6498,0.71041c0,-0.04273 0.03464,-0.07738 0.07738,-0.07738c0.04273,0 0.07738,0.03464 0.07738,0.07738c0,0.04273 -0.03464,0.07738 -0.07738,0.07738c-0.04273,0 -0.07738,-0.03464 -0.07738,-0.07738zM0.52147,0.27793c-0.02053,0 -0.03843,-0.01125 -0.04788,-0.02793l0.09575,0c-0.00944,0.01668 -0.02735,0.02793 -0.04788,0.02793zM0.8153,0.91606c0,-0.02509 0.02034,-0.04542 0.04542,-0.04542c0.02509,0 0.04542,0.02034 0.04542,0.04542c0,0.02509 -0.02034,0.04542 -0.04542,0.04542c-0.02509,0 -0.04542,-0.02034 -0.04542,-0.04542zM0.38183,1.11011c0,-0.02201 0.01785,-0.03986 0.03986,-0.03986c0.02201,0 0.03986,0.01785 0.03986,0.03986c0,0.02201 -0.01785,0.03986 -0.03986,0.03986c-0.02201,0 -0.03986,-0.01785 -0.03986,-0.03986zM2.52349,1.98162c0,-0.02179 0.01767,-0.03946 0.03946,-0.03946c0.02179,0 0.03946,0.01767 0.03946,0.03946c0,0.02179 -0.01767,0.03946 -0.03946,0.03946c-0.02179,0 -0.03946,-0.01767 -0.03946,-0.03946zM2.29676,1.99133c0,-0.01837 0.01489,-0.03326 0.03326,-0.03326c0.01837,0 0.03326,0.01489 0.03326,0.03326c0,0.01837 -0.01489,0.03326 -0.03326,0.03326c-0.01837,0 -0.03326,-0.01489 -0.03326,-0.03326zM1.55187,0.82013c0,-0.01837 0.01489,-0.03326 0.03326,-0.03326c0.01837,0 0.03326,0.01489 0.03326,0.03326c0,0.01837 -0.01489,0.03326 -0.03326,0.03326c-0.01837,0 -0.03326,-0.01489 -0.03326,-0.03326zM1.62249,1.47328c0,-0.01661 0.01347,-0.03008 0.03008,-0.03008c0.01661,0 0.03008,0.01347 0.03008,0.03008c0,0.01661 -0.01347,0.03008 -0.03008,0.03008c-0.01661,0 -0.03008,-0.01347 -0.03008,-0.03008zM1.06556,1.95443c0,-0.01279 0.01037,-0.02317 0.02317,-0.02317c0.01279,0 0.02317,0.01037 0.02317,0.02317c0,0.01279 -0.01037,0.02317 -0.02317,0.02317c-0.01279,0 -0.02317,-0.01037 -0.02317,-0.02317zM1.00735,0.81345c0,-0.01241 0.01006,-0.02248 0.02248,-0.02248c0.01241,0 0.02248,0.01006 0.02248,0.02248c0,0.01241 -0.01006,0.02248 -0.02248,0.02248c-0.01241,0 -0.02248,-0.01006 -0.02248,-0.02248zM0.74764,1.32788c0,-0.01145 0.00929,-0.02074 0.02074,-0.02074c0.01145,0 0.02074,0.00929 0.02074,0.02074c0,0.01145 -0.00929,0.02074 -0.02074,0.02074c-0.01145,0 -0.02074,-0.00929 -0.02074,-0.02074z" fill="#000000" fill-rule="evenodd" stroke="#000000" stroke-width="0.005"></path></g></svg>