<svg version="1.1" xmlns="http://www.w3.org/2000/svg" xmlns:xlink="http://www.w3.org/1999/xlink" width="3in" height="3in" viewBox="0 0 3.05 3.05"><g fill="none" fill-rule="none" stroke="none" stroke-width="none" stroke-linecap="butt" stroke-linejoin="miter" stroke-miterlimit="10" stroke-dasharray="" stroke-dashoffset="0" font-family="none" font-weight="none" font-size="none" text-anchor="none" style="mix-blend-mode: normal"><path d="M0.25,2.75l0,-2.5l2.5,0v2.5z" fill="none" fill-rule="nonzero" stroke="none" stroke-width="1"></path><path d="M0,3v-3h3v3zM0.54388,0.72003c0.02306,0.02498 0.04612,0.08397 0.04612,0.11797v0.034c0,0.034 -0.02306,0.09298 -0.04612,0.11797l-0.02588,0.02803c-0.024,0.026 -0.07302,0.02698 -0.09804,0.00196l-0.03188,-0.03188c-0.02404,-0.02404 -0.04808,-0.08208 -0.04808,-0.11608v-0.034c0,-0.034 0.02404,-0.09204 0.04808,-0.11608l0.03188,-0.03188c0.02502,-0.02502 0.07404,-0.02404 0.09804,0.00196zM0.52,1.556c0,0.022 -0.022,0.044 -0.044,0.044h-0.022c-0.022,0 -0.044,-0.022 -0.044,-0.044v-0.112c0,-0.022 0.022,-0.044 0.044,-0.044h0.022c0.022,0 0.044,0.022 0.044,0.044zM0.38,1.096c0.02,0.022 0.02956,0.07184 0.01912,0.09968l-0.02023,0.05393c-0.00945,0.02519 -0.0389,0.03239 -0.0589,0.01439l-0.02,-0.018c-0.02,-0.018 -0.03149,-0.06153 -0.02298,-0.08705l0.02418,-0.07253c0.0094,-0.02821 0.0388,-0.03441 0.0588,-0.01241zM0.66229,1.17193c0.00885,0.02403 -0.00229,0.06407 -0.02229,0.08007l-0.02,0.016c-0.02,0.016 -0.04899,0.00802 -0.05799,-0.01596l-0.02205,-0.05881c-0.00998,-0.02662 -0.00196,-0.07523 0.01604,-0.09723l0.018,-0.022c0.018,-0.022 0.04583,-0.01733 0.05565,0.00935zM0.64,0.458c0.02,0.016 0.03115,0.05603 0.02229,0.08007l-0.03264,0.08859c-0.00983,0.02667 -0.03765,0.03135 -0.05565,0.00935l-0.018,-0.022c-0.018,-0.022 -0.02602,-0.07062 -0.01604,-0.09723l0.02205,-0.05881c0.00899,-0.02398 0.03799,-0.03196 0.05799,-0.01596zM0.39912,0.51432c0.01044,0.02784 0.00088,0.07768 -0.01912,0.09968l-0.02,0.022c-0.02,0.022 -0.0494,0.01579 -0.0588,-0.01241l-0.02418,-0.07253c-0.00851,-0.02553 0.00298,-0.06905 0.02298,-0.08705l0.02,-0.018c0.02,-0.018 0.04945,-0.01081 0.0589,0.01439zM0.49157,1.29753c0.00421,0.01124 -0.00357,0.02247 -0.01557,0.02247h-0.012c-0.012,0 -0.01979,-0.01124 -0.01557,-0.02247l0.00957,-0.02553c0.006,-0.016 0.018,-0.016 0.024,0zM0.486,0.438c-0.008,0.016 -0.024,0.016 -0.032,0l-0.00969,-0.01938c-0.00716,-0.01431 0.00169,-0.02862 0.01769,-0.02862h0.016c0.016,0 0.02484,0.01431 0.01769,0.02862zM0.54388,2.01003c0.02306,0.02498 0.04612,0.08397 0.04612,0.11797v0.034c0,0.034 -0.02306,0.09298 -0.04612,0.11797l-0.02588,0.02803c-0.024,0.026 -0.07302,0.02698 -0.09804,0.00196l-0.03188,-0.03188c-0.02404,-0.02404 -0.04808,-0.08208 -0.04808,-0.11608v-0.034c0,-0.034 0.02404,-0.09204 0.04808,-0.11608l0.03188,-0.03188c0.02502,-0.02502 0.07404,-0.02404 0.09804,0.00196zM0.38,2.386c0.02,0.022 0.02956,0.07184 0.01912,0.09968l-0.02023,0.05393c-0.00945,0.02519 -0.0389,0.03239 -0.0589,0.01439l-0.02,-0.018c-0.02,-0.018 -0.03149,-0.06153 -0.02298,-0.08705l0.02418,-0.07253c0.0094,-0.02821 0.0388,-0.03441 0.0588,-0.01241zM0.66229,2.46193c0.00885,0.02403 -0.00229,0.06407 -0.02229,0.08007l-0.02,0.016c-0.02,0.016 -0.04899,0.00802 -0.05799,-0.01596l-0.02205,-0.05881c-0.00998,-0.02662 -0.00196,-0.07523 0.01604,-0.09723l0.018,-0.022c0.018,-0.022 0.04583,-0.01733 0.05565,0.00935zM0.64,1.748c0.02,0.016 0.03115,0.05603 0.02229,0.08007l-0.03264,0.08859c-0.00983,0.02667 -0.03765,0.03135 -0.05565,0.00935l-0.018,-0.022c-0.018,-0.022 -0.02602,-0.07062 -0.01604,-0.09723l0.02205,-0.05881c0.00899,-0.02398 0.03799,-0.03196 0.05799,-0.01596zM0.39912,1.80432c0.01044,0.02784 0.00088,0.07768 -0.01912,0.09968l-0.02,0.022c-0.02,0.022 -0.0494,0.01579 -0.0588,-0.01241l-0.02418,-0.07253c-0.00851,-0.02553 0.00298,-0.06905 0.02298,-0.08705l0.02,-0.018c0.02,-0.018 0.04945,-0.01081 0.0589,0.01439zM0.49157,2.58753c0.00421,0.01124 -0.00357,0.02247 -0.01557,0.02247h-0.012c-0.012,0 -0.01979,-0.01124 -0.01557,-0.02247l0.00957,-0.02553c0.006,-0.016 0.018,-0.016 0.024,0zM0.486,1.728c-0.008,0.016 -0.024,0.016 -0.032,0l-0.00969,-0.01938c-0.00716,-0.01431 0.00169,-0.02862 0.01769,-0.02862h0.016c0.016,0 0.02484,0.01431 0.01769,0.02862zM1.06192,0.72192c0.02404,0.02404 0.04808,0.08208 0.04808,0.11608v0.034c0,0.034 -0.02404,0.09204 -0.04808,0.11608l-0.03188,0.03188c-0.02502,0.02502 -0.07404,0.02404 -0.09804,-0.00196l-0.02588,-0.02803c-0.02306,-0.02498 -0.04612,-0.08397 -0.04612,-0.11797v-0.034c0,-0.034 0.02306,-0.09298 0.04612,-0.11797l0.02588,-0.02803c0.024,-0.026 0.07302,-0.02698 0.09804,-0.00196zM1.04,1.556c0,0.022 -0.022,0.044 -0.044,0.044h-0.022c-0.022,0 -0.044,-0.022 -0.044,-0.044v-0.112c0,-0.022 0.022,-0.044 0.044,-0.044h0.022c0.022,0 0.044,0.022 0.044,0.044zM0.78,0.866c0,0.022 -0.022,0.044 -0.044,0.044h-0.022c-0.022,0 -0.044,-0.022 -0.044,-0.044v-0.022c0,-0.022 0.022,-0.044 0.044,-0.044h0.022c0.022,0 0.044,0.022 0.044,0.044zM1.3,0.866c0,0.022 -0.022,0.044 -0.044,0.044h-0.022c-0.022,0 -0.044,-0.022 -0.044,-0.044v-0.022c0,-0.022 0.022,-0.044 0.044,-0.044h0.022c0.022,0 0.044,0.022 0.044,0.044zM0.9,1.096c0.02,0.022 0.02743,0.07094 0.01485,0.09789l-0.02319,0.0497c-0.01083,0.02321 -0.04166,0.03042 -0.06166,0.01442l-0.02,-0.016c-0.02,-0.016 -0.03072,-0.05587 -0.02143,-0.07974l0.02988,-0.07684c0.01078,-0.02771 0.04155,-0.03342 0.06155,-0.01142zM1.17627,1.17651c0.00687,0.02175 -0.00427,0.05749 -0.02227,0.07149l-0.018,0.014c-0.018,0.014 -0.04564,0.00734 -0.05529,-0.01333l-0.02557,-0.05479c-0.01257,-0.02694 -0.00515,-0.07589 0.01485,-0.09789l0.02,-0.022c0.02,-0.022 0.04895,-0.01565 0.05791,0.0127zM1.154,0.462c0.018,0.014 0.02913,0.04975 0.02227,0.07149l-0.02836,0.08981c-0.00895,0.02835 -0.03791,0.0347 -0.05791,0.0127l-0.02,-0.022c-0.02,-0.022 -0.02743,-0.07094 -0.01485,-0.09789l0.02557,-0.05479c0.00964,-0.02066 0.03729,-0.02733 0.05529,-0.01333zM0.91485,0.51611c0.01257,0.02694 0.00515,0.07589 -0.01485,0.09789l-0.02,0.022c-0.02,0.022 -0.05078,0.01629 -0.06155,-0.01142l-0.02988,-0.07684c-0.00928,-0.02387 0.00143,-0.06374 0.02143,-0.07974l0.02,-0.016c0.02,-0.016 0.05083,-0.00879 0.06166,0.01442zM1.01115,1.29344c0.00443,0.01328 -0.00515,0.02656 -0.01915,0.02656h-0.014c-0.014,0 -0.02231,-0.01279 -0.01663,-0.02559l0.01322,-0.02974c0.00771,-0.01734 0.02141,-0.01668 0.02741,0.00132zM1.002,0.444c-0.006,0.018 -0.01971,0.01866 -0.02741,0.00132l-0.01322,-0.02974c-0.00569,-0.01279 0.00263,-0.02559 0.01663,-0.02559h0.014c0.014,0 0.02357,0.01328 0.01915,0.02656zM0.742,1.056c-0.006,0.022 -0.01979,0.02257 -0.02759,0.00114l-0.01485,-0.04082c-0.00478,-0.01316 0.00443,-0.02631 0.01843,-0.02631h0.014c0.014,0 0.02432,0.01351 0.02063,0.02701zM1.25559,1.05714c-0.00779,0.02143 -0.02159,0.02086 -0.02759,-0.00114l-0.01063,-0.03899c-0.00368,-0.01351 0.00663,-0.02701 0.02063,-0.02701h0.014c0.014,0 0.02322,0.01316 0.01843,0.02631zM1.27043,0.69369c0.00478,0.01316 -0.00443,0.02631 -0.01843,0.02631h-0.014c-0.014,0 -0.02432,-0.01351 -0.02063,-0.02701l0.01063,-0.03899c0.006,-0.022 0.01979,-0.02257 0.02759,-0.00114zM0.75321,0.69284c0.0034,0.01358 -0.00721,0.02716 -0.02121,0.02716h-0.014c-0.014,0 -0.02357,-0.01328 -0.01915,-0.02656l0.0155,-0.0465c0.00782,-0.02347 0.02165,-0.02294 0.02765,0.00106zM0.802,1.34c0.024,0.02 0.048,0.07124 0.048,0.10248v0.11504c0,0.03124 -0.024,0.08248 -0.048,0.10248l-0.024,0.02c-0.024,0.02 -0.07276,0.02095 -0.09752,0.0019l-0.02848,-0.0219c-0.026,-0.02 -0.052,-0.0728 -0.052,-0.1056v-0.10879c0,-0.0328 0.026,-0.0856 0.052,-0.1056l0.02848,-0.0219c0.02476,-0.01905 0.07352,-0.0181 0.09752,0.0019zM1.318,1.34c0.026,0.02 0.052,0.0728 0.052,0.1056v0.10879c0,0.0328 -0.026,0.0856 -0.052,0.1056l-0.03044,0.02342c-0.02378,0.01829 -0.07156,0.01858 -0.09556,0.00058l-0.024,-0.018c-0.024,-0.018 -0.048,-0.066 -0.048,-0.096v-0.14c0,-0.03 0.024,-0.078 0.048,-0.096l0.024,-0.018c0.024,-0.018 0.07178,-0.01771 0.09556,0.00058zM1.06192,2.01192c0.02404,0.02404 0.04808,0.08208 0.04808,0.11608v0.034c0,0.034 -0.02404,0.09204 -0.04808,0.11608l-0.03188,0.03188c-0.02502,0.02502 -0.07404,0.02404 -0.09804,-0.00196l-0.02588,-0.02803c-0.02306,-0.02498 -0.04612,-0.08397 -0.04612,-0.11797v-0.034c0,-0.034 0.02306,-0.09298 0.04612,-0.11797l0.02588,-0.02803c0.024,-0.026 0.07302,-0.02698 0.09804,-0.00196zM0.78,2.156c0,0.022 -0.022,0.044 -0.044,0.044h-0.022c-0.022,0 -0.044,-0.022 -0.044,-0.044v-0.022c0,-0.022 0.022,-0.044 0.044,-0.044h0.022c0.022,0 0.044,0.022 0.044,0.044zM1.3,2.156c0,0.022 -0.022,0.044 -0.044,0.044h-0.022c-0.022,0 -0.044,-0.022 -0.044,-0.044v-0.022c0,-0.022 0.022,-0.044 0.044,-0.044h0.022c0.022,0 0.044,0.022 0.044,0.044zM0.9,2.386c0.02,0.022 0.02743,0.07094 0.01485,0.09789l-0.02319,0.0497c-0.01083,0.02321 -0.04166,0.03042 -0.06166,0.01442l-0.02,-0.016c-0.02,-0.016 -0.03072,-0.05587 -0.02143,-0.07974l0.02988,-0.07684c0.01078,-0.02771 0.04155,-0.03342 0.06155,-0.01142zM1.17627,2.46651c0.00687,0.02175 -0.00427,0.05749 -0.02227,0.07149l-0.018,0.014c-0.018,0.014 -0.04564,0.00734 -0.05529,-0.01333l-0.02557,-0.05479c-0.01257,-0.02694 -0.00515,-0.07589 0.01485,-0.09789l0.02,-0.022c0.02,-0.022 0.04895,-0.01565 0.05791,0.0127zM1.154,1.752c0.018,0.014 0.02913,0.04975 0.02227,0.07149l-0.02836,0.08981c-0.00895,0.02835 -0.03791,0.0347 -0.05791,0.0127l-0.02,-0.022c-0.02,-0.022 -0.02743,-0.07094 -0.01485,-0.09789l0.02557,-0.05479c0.00964,-0.02066 0.03729,-0.02733 0.05529,-0.01333zM0.91485,1.80611c0.01257,0.02694 0.00515,0.07589 -0.01485,0.09789l-0.02,0.022c-0.02,0.022 -0.05078,0.01629 -0.06155,-0.01142l-0.02988,-0.07684c-0.00928,-0.02387 0.00143,-0.06374 0.02143,-0.07974l0.02,-0.016c0.02,-0.016 0.05083,-0.00879 0.06166,0.01442zM1.01115,2.58344c0.00443,0.01328 -0.00515,0.02656 -0.01915,0.02656h-0.014c-0.014,0 -0.02231,-0.01279 -0.01663,-0.02559l0.01322,-0.02974c0.00771,-0.01734 0.02141,-0.01668 0.02741,0.00132zM1.002,1.734c-0.006,0.018 -0.01971,0.01866 -0.02741,0.00132l-0.01322,-0.02974c-0.00569,-0.01279 0.00263,-0.02559 0.01663,-0.02559h0.014c0.014,0 0.02357,0.01328 0.01915,0.02656zM0.73559,2.34714c-0.00779,0.02143 -0.02159,0.02086 -0.02759,-0.00114l-0.01063,-0.03899c-0.00368,-0.01351 0.00663,-0.02701 0.02063,-0.02701h0.014c0.014,0 0.02322,0.01316 0.01843,0.02631zM1.25559,2.34714c-0.00779,0.02143 -0.02159,0.02086 -0.02759,-0.00114l-0.01063,-0.03899c-0.00368,-0.01351 0.00663,-0.02701 0.02063,-0.02701h0.014c0.014,0 0.02322,0.01316 0.01843,0.02631zM1.27043,1.98369c0.00478,0.01316 -0.00443,0.02631 -0.01843,0.02631h-0.014c-0.014,0 -0.02432,-0.01351 -0.02063,-0.02701l0.01063,-0.03899c0.006,-0.022 0.01979,-0.02257 0.02759,-0.00114zM0.75321,1.98284c0.0034,0.01358 -0.00721,0.02716 -0.02121,0.02716h-0.014c-0.014,0 -0.02357,-0.01328 -0.01915,-0.02656l0.0155,-0.0465c0.00782,-0.02347 0.02165,-0.02294 0.02765,0.00106zM1.57388,0.72003c0.02306,0.02498 0.04612,0.08397 0.04612,0.11797v0.034c0,0.034 -0.02306,0.09298 -0.04612,0.11797l-0.02588,0.02803c-0.024,0.026 -0.072,0.026 -0.096,0l-0.02588,-0.02803c-0.02306,-0.02498 -0.04612,-0.08397 -0.04612,-0.11797v-0.034c0,-0.034 0.02306,-0.09298 0.04612,-0.11797l0.02588,-0.02803c0.024,-0.026 0.072,-0.026 0.096,0zM1.55,1.56c0,0.02 -0.02,0.04 -0.04,0.04h-0.02c-0.02,0 -0.04,-0.02 -0.04,-0.04v-0.12c0,-0.02 0.02,-0.04 0.04,-0.04h0.02c0.02,0 0.04,0.02 0.04,0.04zM1.41,1.096c0.02,0.022 0.02956,0.07184 0.01912,0.09968l-0.02023,0.05393c-0.00945,0.02519 -0.0389,0.03239 -0.0589,0.01439l-0.02,-0.018c-0.02,-0.018 -0.03149,-0.06153 -0.02298,-0.08705l0.02418,-0.07253c0.0094,-0.02821 0.0388,-0.03441 0.0588,-0.01241zM1.69298,1.15895c0.00851,0.02553 -0.00298,0.06905 -0.02298,0.08705l-0.02,0.018c-0.02,0.018 -0.04945,0.01081 -0.0589,-0.01439l-0.02023,-0.05393c-0.01044,-0.02784 -0.00088,-0.07768 0.01912,-0.09968l0.02,-0.022c0.02,-0.022 0.0494,-0.01579 0.0588,0.01241zM1.67,0.464c0.02,0.018 0.03149,0.06153 0.02298,0.08705l-0.02418,0.07253c-0.0094,0.02821 -0.0388,0.03441 -0.0588,0.01241l-0.02,-0.022c-0.02,-0.022 -0.02956,-0.07184 -0.01912,-0.09968l0.02023,-0.05393c0.00945,-0.02519 0.0389,-0.03239 0.0589,-0.01439zM1.42912,0.51432c0.01044,0.02784 0.00088,0.07768 -0.01912,0.09968l-0.02,0.022c-0.02,0.022 -0.0494,0.01579 -0.0588,-0.01241l-0.02418,-0.07253c-0.00851,-0.02553 0.00298,-0.06905 0.02298,-0.08705l0.02,-0.018c0.02,-0.018 0.04945,-0.01081 0.0589,0.01439zM1.52157,1.29753c0.00421,0.01124 -0.00357,0.02247 -0.01557,0.02247h-0.012c-0.012,0 -0.01979,-0.01124 -0.01557,-0.02247l0.00957,-0.02553c0.006,-0.016 0.018,-0.016 0.024,0zM1.516,0.438c-0.008,0.016 -0.024,0.016 -0.032,0l-0.00969,-0.01938c-0.00716,-0.01431 0.00169,-0.02862 0.01769,-0.02862h0.016c0.016,0 0.02484,0.01431 0.01769,0.02862zM1.57388,2.01003c0.02306,0.02498 0.04612,0.08397 0.04612,0.11797v0.034c0,0.034 -0.02306,0.09298 -0.04612,0.11797l-0.02588,0.02803c-0.024,0.026 -0.072,0.026 -0.096,0l-0.02588,-0.02803c-0.02306,-0.02498 -0.04612,-0.08397 -0.04612,-0.11797v-0.034c0,-0.034 0.02306,-0.09298 0.04612,-0.11797l0.02588,-0.02803c0.024,-0.026 0.072,-0.026 0.096,0zM1.41,2.386c0.02,0.022 0.02956,0.07184 0.01912,0.09968l-0.02023,0.05393c-0.00945,0.02519 -0.0389,0.03239 -0.0589,0.01439l-0.02,-0.018c-0.02,-0.018 -0.03149,-0.06153 -0.02298,-0.08705l0.02418,-0.07253c0.0094,-0.02821 0.0388,-0.03441 0.0588,-0.01241zM1.69298,2.44895c0.00851,0.02553 -0.00298,0.06905 -0.02298,0.08705l-0.02,0.018c-0.02,0.018 -0.04945,0.01081 -0.0589,-0.01439l-0.02023,-0.05393c-0.01044,-0.02784 -0.00088,-0.07768 0.01912,-0.09968l0.02,-0.022c0.02,-0.022 0.0494,-0.01579 0.0588,0.01241zM1.67,1.754c0.02,0.018 0.03149,0.06153 0.02298,0.08705l-0.02418,0.07253c-0.0094,0.02821 -0.0388,0.03441 -0.0588,0.01241l-0.02,-0.022c-0.02,-0.022 -0.02956,-0.07184 -0.01912,-0.09968l0.02023,-0.05393c0.00945,-0.02519 0.0389,-0.03239 0.0589,-0.01439zM1.42912,1.80432c0.01044,0.02784 0.00088,0.07768 -0.01912,0.09968l-0.02,0.022c-0.02,0.022 -0.0494,0.01579 -0.0588,-0.01241l-0.02418,-0.07253c-0.00851,-0.02553 0.00298,-0.06905 0.02298,-0.08705l0.02,-0.018c0.02,-0.018 0.04945,-0.01081 0.0589,0.01439zM1.52157,2.58753c0.00421,0.01124 -0.00357,0.02247 -0.01557,0.02247h-0.012c-0.012,0 -0.01979,-0.01124 -0.01557,-0.02247l0.00957,-0.02553c0.006,-0.016 0.018,-0.016 0.024,0zM1.516,1.728c-0.008,0.016 -0.024,0.016 -0.032,0l-0.00969,-0.01938c-0.00716,-0.01431 0.00169,-0.02862 0.01769,-0.02862h0.016c0.016,0 0.02484,0.01431 0.01769,0.02862zM2.09388,0.72003c0.02306,0.02498 0.04612,0.08397 0.04612,0.11797v0.034c0,0.034 -0.02306,0.09298 -0.04612,0.11797l-0.02588,0.02803c-0.024,0.026 -0.07302,0.02698 -0.09804,0.00196l-0.03188,-0.03188c-0.02404,-0.02404 -0.04808,-0.08208 -0.04808,-0.11608v-0.034c0,-0.034 0.02404,-0.09204 0.04808,-0.11608l0.03188,-0.03188c0.02502,-0.02502 0.07404,-0.02404 0.09804,0.00196zM2.07,1.556c0,0.022 -0.022,0.044 -0.044,0.044h-0.022c-0.022,0 -0.044,-0.022 -0.044,-0.044v-0.112c0,-0.022 0.022,-0.044 0.044,-0.044h0.022c0.022,0 0.044,0.022 0.044,0.044zM1.81,0.866c0,0.022 -0.022,0.044 -0.044,0.044h-0.022c-0.022,0 -0.044,-0.022 -0.044,-0.044v-0.022c0,-0.022 0.022,-0.044 0.044,-0.044h0.022c0.022,0 0.044,0.022 0.044,0.044zM2.33,0.866c0,0.022 -0.022,0.044 -0.044,0.044h-0.022c-0.022,0 -0.044,-0.022 -0.044,-0.044v-0.022c0,-0.022 0.022,-0.044 0.044,-0.044h0.022c0.022,0 0.044,0.022 0.044,0.044zM1.93,1.096c0.02,0.022 0.02743,0.07094 0.01485,0.09789l-0.02557,0.05479c-0.00964,0.02066 -0.03729,0.02733 -0.05529,0.01333l-0.018,-0.014c-0.018,-0.014 -0.02913,-0.04975 -0.02227,-0.07149l0.02836,-0.08981c0.00895,-0.02835 0.03791,-0.0347 0.05791,-0.0127zM2.21143,1.16226c0.00928,0.02387 -0.00143,0.06374 -0.02143,0.07974l-0.02,0.016c-0.02,0.016 -0.05083,0.00879 -0.06166,-0.01442l-0.02319,-0.0497c-0.01257,-0.02694 -0.00515,-0.07589 0.01485,-0.09789l0.02,-0.022c0.02,-0.022 0.05078,-0.01629 0.06155,0.01142zM2.19,0.468c0.02,0.016 0.03072,0.05587 0.02143,0.07974l-0.02988,0.07684c-0.01078,0.02771 -0.04155,0.03342 -0.06155,0.01142l-0.02,-0.022c-0.02,-0.022 -0.02743,-0.07094 -0.01485,-0.09789l0.02319,-0.0497c0.01083,-0.02321 0.04166,-0.03042 0.06166,-0.01442zM1.94485,0.51611c0.01257,0.02694 0.00515,0.07589 -0.01485,0.09789l-0.02,0.022c-0.02,0.022 -0.04895,0.01565 -0.05791,-0.0127l-0.02836,-0.08981c-0.00687,-0.02175 0.00427,-0.05749 0.02227,-0.07149l0.018,-0.014c0.018,-0.014 0.04564,-0.00734 0.05529,0.01333zM2.04115,1.29344c0.00443,0.01328 -0.00515,0.02656 -0.01915,0.02656h-0.014c-0.014,0 -0.02231,-0.01279 -0.01663,-0.02559l0.01322,-0.02974c0.00771,-0.01734 0.02141,-0.01668 0.02741,0.00132zM2.032,0.444c-0.006,0.018 -0.01971,0.01866 -0.02741,0.00132l-0.01322,-0.02974c-0.00569,-0.01279 0.00263,-0.02559 0.01663,-0.02559h0.014c0.014,0 0.02357,0.01328 0.01915,0.02656zM1.772,1.056c-0.006,0.022 -0.01979,0.02257 -0.02759,0.00114l-0.01485,-0.04082c-0.00478,-0.01316 0.00443,-0.02631 0.01843,-0.02631h0.014c0.014,0 0.02432,0.01351 0.02063,0.02701zM2.292,1.056c-0.006,0.022 -0.01979,0.02257 -0.02759,0.00114l-0.01485,-0.04082c-0.00478,-0.01316 0.00443,-0.02631 0.01843,-0.02631h0.014c0.014,0 0.02432,0.01351 0.02063,0.02701zM2.30321,0.69284c0.0034,0.01358 -0.00721,0.02716 -0.02121,0.02716h-0.014c-0.014,0 -0.02357,-0.01328 -0.01915,-0.02656l0.0155,-0.0465c0.00782,-0.02347 0.02165,-0.02294 0.02765,0.00106zM1.78263,0.69299c0.00368,0.01351 -0.00663,0.02701 -0.02063,0.02701h-0.014c-0.014,0 -0.02322,-0.01316 -0.01843,-0.02631l0.01485,-0.04082c0.00779,-0.02143 0.02159,-0.02086 0.02759,0.00114zM1.832,1.334c0.024,0.018 0.048,0.066 0.048,0.096v0.14c0,0.03 -0.024,0.078 -0.048,0.096l-0.024,0.018c-0.024,0.018 -0.07178,0.01771 -0.09556,-0.00058l-0.03044,-0.02342c-0.026,-0.02 -0.052,-0.0728 -0.052,-0.1056v-0.10879c0,-0.0328 0.026,-0.0856 0.052,-0.1056l0.03044,-0.02342c0.02378,-0.01829 0.07156,-0.01858 0.09556,-0.00058zM2.352,1.34c0.024,0.02 0.048,0.07124 0.048,0.10248v0.11504c0,0.03124 -0.024,0.08248 -0.048,0.10248l-0.024,0.02c-0.024,0.02 -0.07276,0.02095 -0.09752,0.0019l-0.02848,-0.0219c-0.026,-0.02 -0.052,-0.0728 -0.052,-0.1056v-0.10879c0,-0.0328 0.026,-0.0856 0.052,-0.1056l0.02848,-0.0219c0.02476,-0.01905 0.07352,-0.0181 0.09752,0.0019zM2.09388,2.01003c0.02306,0.02498 0.04612,0.08397 0.04612,0.11797v0.034c0,0.034 -0.02306,0.09298 -0.04612,0.11797l-0.02588,0.02803c-0.024,0.026 -0.07302,0.02698 -0.09804,0.00196l-0.03188,-0.03188c-0.02404,-0.02404 -0.04808,-0.08208 -0.04808,-0.11608v-0.034c0,-0.034 0.02404,-0.09204 0.04808,-0.11608l0.03188,-0.03188c0.02502,-0.02502 0.07404,-0.02404 0.09804,0.00196zM1.81,2.156c0,0.022 -0.022,0.044 -0.044,0.044h-0.022c-0.022,0 -0.044,-0.022 -0.044,-0.044v-0.022c0,-0.022 0.022,-0.044 0.044,-0.044h0.022c0.022,0 0.044,0.022 0.044,0.044zM2.33,2.156c0,0.022 -0.022,0.044 -0.044,0.044h-0.022c-0.022,0 -0.044,-0.022 -0.044,-0.044v-0.022c0,-0.022 0.022,-0.044 0.044,-0.044h0.022c0.022,0 0.044,0.022 0.044,0.044zM1.93,2.386c0.02,0.022 0.02743,0.07094 0.01485,0.09789l-0.02557,0.05479c-0.00964,0.02066 -0.03729,0.02733 -0.05529,0.01333l-0.018,-0.014c-0.018,-0.014 -0.02913,-0.04975 -0.02227,-0.07149l0.02836,-0.08981c0.00895,-0.02835 0.03791,-0.0347 0.05791,-0.0127zM2.21143,2.45226c0.00928,0.02387 -0.00143,0.06374 -0.02143,0.07974l-0.02,0.016c-0.02,0.016 -0.05083,0.00879 -0.06166,-0.01442l-0.02319,-0.0497c-0.01257,-0.02694 -0.00515,-0.07589 0.01485,-0.09789l0.02,-0.022c0.02,-0.022 0.05078,-0.01629 0.06155,0.01142zM2.19,1.758c0.02,0.016 0.03072,0.05587 0.02143,0.07974l-0.02988,0.07684c-0.01078,0.02771 -0.04155,0.03342 -0.06155,0.01142l-0.02,-0.022c-0.02,-0.022 -0.02743,-0.07094 -0.01485,-0.09789l0.02319,-0.0497c0.01083,-0.02321 0.04166,-0.03042 0.06166,-0.01442zM1.94485,1.80611c0.01257,0.02694 0.00515,0.07589 -0.01485,0.09789l-0.02,0.022c-0.02,0.022 -0.04895,0.01565 -0.05791,-0.0127l-0.02836,-0.08981c-0.00687,-0.02175 0.00427,-0.05749 0.02227,-0.07149l0.018,-0.014c0.018,-0.014 0.04564,-0.00734 0.05529,0.01333zM2.04115,2.58344c0.00443,0.01328 -0.00515,0.02656 -0.01915,0.02656h-0.014c-0.014,0 -0.02231,-0.01279 -0.01663,-0.02559l0.01322,-0.02974c0.00771,-0.01734 0.02141,-0.01668 0.02741,0.00132zM2.032,1.734c-0.006,0.018 -0.01971,0.01866 -0.02741,0.00132l-0.01322,-0.02974c-0.00569,-0.01279 0.00263,-0.02559 0.01663,-0.02559h0.014c0.014,0 0.02357,0.01328 0.01915,0.02656zM1.772,2.346c-0.006,0.022 -0.01979,0.02257 -0.02759,0.00114l-0.01485,-0.04082c-0.00478,-0.01316 0.00443,-0.02631 0.01843,-0.02631h0.014c0.014,0 0.02432,0.01351 0.02063,0.02701zM2.292,2.346c-0.006,0.022 -0.01979,0.02257 -0.02759,0.00114l-0.01485,-0.04082c-0.00478,-0.01316 0.00443,-0.02631 0.01843,-0.02631h0.014c0.014,0 0.02432,0.01351 0.02063,0.02701zM2.30321,1.98284c0.0034,0.01358 -0.00721,0.02716 -0.02121,0.02716h-0.014c-0.014,0 -0.02357,-0.01328 -0.01915,-0.02656l0.0155,-0.0465c0.00782,-0.02347 0.02165,-0.02294 0.02765,0.00106zM1.78263,1.98299c0.00368,0.01351 -0.00663,0.02701 -0.02063,0.02701h-0.014c-0.014,0 -0.02322,-0.01316 -0.01843,-0.02631l0.01485,-0.04082c0.00779,-0.02143 0.02159,-0.02086 0.02759,0.00114zM2.61192,0.72192c0.02404,0.02404 0.04808,0.08208 0.04808,0.11608v0.034c0,0.034 -0.02404,0.09204 -0.04808,0.11608l-0.03188,0.03188c-0.02502,0.02502 -0.07404,0.02404 -0.09804,-0.00196l-0.02588,-0.02803c-0.02306,-0.02498 -0.04612,-0.08397 -0.04612,-0.11797v-0.034c0,-0.034 0.02306,-0.09298 0.04612,-0.11797l0.02588,-0.02803c0.024,-0.026 0.07302,-0.02698 0.09804,-0.00196zM2.59,1.556c0,0.022 -0.022,0.044 -0.044,0.044h-0.022c-0.022,0 -0.044,-0.022 -0.044,-0.044v-0.112c0,-0.022 0.022,-0.044 0.044,-0.044h0.022c0.022,0 0.044,0.022 0.044,0.044zM2.444,1.096c0.018,0.022 0.02602,0.07062 0.01604,0.09723l-0.02205,0.05881c-0.00899,0.02398 -0.03799,0.03196 -0.05799,0.01596l-0.02,-0.016c-0.02,-0.016 -0.03115,-0.05603 -0.02229,-0.08007l0.03264,-0.08859c0.00983,-0.02667 0.03765,-0.03135 0.05565,-0.00935zM2.72298,1.15895c0.00851,0.02553 -0.00298,0.06905 -0.02298,0.08705l-0.02,0.018c-0.02,0.018 -0.04945,0.01081 -0.0589,-0.01439l-0.02023,-0.05393c-0.01044,-0.02784 -0.00088,-0.07768 0.01912,-0.09968l0.02,-0.022c0.02,-0.022 0.0494,-0.01579 0.0588,0.01241zM2.7,0.464c0.02,0.018 0.03149,0.06153 0.02298,0.08705l-0.02418,0.07253c-0.0094,0.02821 -0.0388,0.03441 -0.0588,0.01241l-0.02,-0.022c-0.02,-0.022 -0.02956,-0.07184 -0.01912,-0.09968l0.02023,-0.05393c0.00945,-0.02519 0.0389,-0.03239 0.0589,-0.01439zM2.46004,0.51677c0.00998,0.02662 0.00196,0.07523 -0.01604,0.09723l-0.018,0.022c-0.018,0.022 -0.04583,0.01733 -0.05565,-0.00935l-0.03264,-0.08859c-0.00885,-0.02403 0.00229,-0.06407 0.02229,-0.08007l0.02,-0.016c0.02,-0.016 0.04899,-0.00802 0.05799,0.01596zM2.55157,1.29753c0.00421,0.01124 -0.00357,0.02247 -0.01557,0.02247h-0.012c-0.012,0 -0.01979,-0.01124 -0.01557,-0.02247l0.00957,-0.02553c0.006,-0.016 0.018,-0.016 0.024,0zM2.546,0.438c-0.008,0.016 -0.024,0.016 -0.032,0l-0.00969,-0.01938c-0.00716,-0.01431 0.00169,-0.02862 0.01769,-0.02862h0.016c0.016,0 0.02484,0.01431 0.01769,0.02862zM2.61192,2.01192c0.02404,0.02404 0.04808,0.08208 0.04808,0.11608v0.034c0,0.034 -0.02404,0.09204 -0.04808,0.11608l-0.03188,0.03188c-0.02502,0.02502 -0.07404,0.02404 -0.09804,-0.00196l-0.02588,-0.02803c-0.02306,-0.02498 -0.04612,-0.08397 -0.04612,-0.11797v-0.034c0,-0.034 0.02306,-0.09298 0.04612,-0.11797l0.02588,-0.02803c0.024,-0.026 0.07302,-0.02698 0.09804,-0.00196zM2.444,2.386c0.018,0.022 0.02602,0.07062 0.01604,0.09723l-0.02205,0.05881c-0.00899,0.02398 -0.03799,0.03196 -0.05799,0.01596l-0.02,-0.016c-0.02,-0.016 -0.03115,-0.05603 -0.02229,-0.08007l0.03264,-0.08859c0.00983,-0.02667 0.03765,-0.03135 0.05565,-0.00935zM2.72298,2.44895c0.00851,0.02553 -0.00298,0.06905 -0.02298,0.08705l-0.02,0.018c-0.02,0.018 -0.04945,0.01081 -0.0589,-0.01439l-0.02023,-0.05393c-0.01044,-0.02784 -0.00088,-0.07768 0.01912,-0.09968l0.02,-0.022c0.02,-0.022 0.0494,-0.01579 0.0588,0.01241zM2.7,1.754c0.02,0.018 0.03149,0.06153 0.02298,0.08705l-0.02418,0.07253c-0.0094,0.02821 -0.0388,0.03441 -0.0588,0.01241l-0.02,-0.022c-0.02,-0.022 -0.02956,-0.07184 -0.01912,-0.09968l0.02023,-0.05393c0.00945,-0.02519 0.0389,-0.03239 0.0589,-0.01439zM2.46004,1.80677c0.00998,0.02662 0.00196,0.07523 -0.01604,0.09723l-0.018,0.022c-0.018,0.022 -0.04583,0.01733 -0.05565,-0.00935l-0.03264,-0.08859c-0.00885,-0.02403 0.00229,-0.06407 0.02229,-0.08007l0.02,-0.016c0.02,-0.016 0.04899,-0.00802 0.05799,0.01596zM2.55157,2.58753c0.00421,0.01124 -0.00357,0.02247 -0.01557,0.02247h-0.012c-0.012,0 -0.01979,-0.01124 -0.01557,-0.02247l0.00957,-0.02553c0.006,-0.016 0.018,-0.016 0.024,0zM2.546,1.728c-0.008,0.016 -0.024,0.016 -0.032,0l-0.00969,-0.01938c-0.00716,-0.01431 0.00169,-0.02862 0.01769,-0.02862h0.016c0.016,0 0.02484,0.01431 0.01769,0.02862z" fill="#000000" fill-rule="evenodd" stroke="#000000" stroke-width="0.005"></path></g></svg>