<!--

Built on 2024-03-28T23:31:52.385Z



## Param string


## Generated From
n/a

-->

<svg version="1.1" xmlns="http://www.w3.org/2000/svg" xmlns:xlink="http://www.w3.org/1999/xlink" width="3in" height="1.5in" viewBox="0 0 3.05 1.55"><g fill="none" fill-rule="none" stroke="none" stroke-width="none" stroke-linecap="butt" stroke-linejoin="miter" stroke-miterlimit="10" stroke-dasharray="" stroke-dashoffset="0" font-family="none" font-weight="none" font-size="none" text-anchor="none" style="mix-blend-mode: normal"><path d="M0.2,1.3l0,-1.1l2.6,0l0,1.1z" fill="none" fill-rule="nonzero" stroke="none" stroke-width="1"></path><path d="M0,1.5v-1.5h3v1.5zM1.7316,1.095c0,-0.41421 0.33579,-0.75 0.75,-0.75c0.11384,0 0.22175,0.02536 0.3184,0.07075l0,0.88425h-1.04004c-0.01847,-0.06516 -0.02836,-0.13392 -0.02836,-0.205zM0.7968,0.2369c0,0.36171 -0.25606,0.66362 -0.5968,0.73434l0,-0.77124l0.59591,0c0.00059,0.01222 0.00089,0.02453 0.00089,0.0369zM0.2,1.3l0,-0.0775c0.10838,0.00422 0.21079,0.03166 0.30241,0.0775zM1.62237,0.44223c-0.16819,0 -0.31322,-0.09917 -0.37981,-0.24223l0.75961,0c-0.06658,0.14306 -0.21161,0.24223 -0.37981,0.24223zM1.17582,1.22699c0,-0.1278 0.10361,-0.23141 0.23141,-0.23141c0.1278,0 0.23141,0.10361 0.23141,0.23141c0,0.02551 -0.00413,0.05006 -0.01175,0.07301l-0.43931,0c-0.00763,-0.02295 -0.01175,-0.0475 -0.01175,-0.07301zM0.57996,1.06102c0,-0.11912 0.09657,-0.21569 0.21569,-0.21569c0.11912,0 0.21569,0.09657 0.21569,0.21569c0,0.11912 -0.09657,0.21569 -0.21569,0.21569c-0.11912,0 -0.21569,-0.09657 -0.21569,-0.21569zM2.8,0.2v0.05773c-0.03728,-0.01023 -0.0704,-0.0305 -0.09626,-0.05773zM1.26754,0.70084c0,-0.09549 0.07741,-0.1729 0.1729,-0.1729c0.09549,0 0.1729,0.07741 0.1729,0.1729c0,0.09549 -0.07741,0.1729 -0.1729,0.1729c-0.09549,0 -0.1729,-0.07741 -0.1729,-0.1729z" fill="#d3d3d3" fill-rule="evenodd" stroke="#ff0000" stroke-width="0.005"></path></g></svg>