<!--

Built on 2024-03-26T17:17:39.221Z



## Param string


-->

<svg version="1.1" xmlns="http://www.w3.org/2000/svg" xmlns:xlink="http://www.w3.org/1999/xlink" width="3in" height="1.5in" viewBox="0 0 3.05 1.55"><g fill="none" fill-rule="none" stroke="none" stroke-width="none" stroke-linecap="butt" stroke-linejoin="miter" stroke-miterlimit="10" stroke-dasharray="" stroke-dashoffset="0" font-family="none" font-weight="none" font-size="none" text-anchor="none" style="mix-blend-mode: normal"><path d="M0.25,1.25l0,-1l2.5,0v1z" fill="none" fill-rule="nonzero" stroke="none" stroke-width="1"></path><path d="M0,1.5v-1.5h3v1.5zM1.05268,1.1562c0.00366,0.0019 0.00832,0.0078 0.00932,0.0118l0.006,0.024c0.001,0.004 -0.00212,0.008 -0.00625,0.008h-0.42713c-0.02731,0 -0.06563,-0.025 -0.07663,-0.05l-0.08572,-0.19482c-0.00114,-0.00259 -0.00028,-0.00718 0.00172,-0.00918l0.012,-0.012c0.002,-0.002 0.00621,-0.00577 0.00842,-0.00753l0.03558,-0.02847c0.005,-0.004 0.01568,-0.00505 0.02137,-0.0021zM2.7,0.86713c0,0.04144 -0.039,0.09687 -0.078,0.11087l-0.234,0.084c-0.039,0.014 -0.06795,-0.0122 -0.0579,-0.0524l0.15621,-0.62482c0.00185,-0.00739 0.01069,-0.01778 0.01769,-0.02078l0.042,-0.018c0.007,-0.003 0.02162,-0.006 0.02923,-0.006h0.09677c0.014,0 0.028,0.014 0.028,0.028zM2.002,1.188c0.009,0.006 0.00718,0.012 -0.00363,0.012h-0.39271c-0.00283,0 -0.00366,-0.002 -0.00166,-0.004l0.012,-0.012c0.002,-0.002 0.00681,-0.00436 0.00961,-0.00472l0.28293,-0.03651c0.01073,-0.00138 0.03046,0.00323 0.03946,0.00923zM2.12427,1.01206c-0.00214,0.00897 -0.01127,0.01194 -0.01827,0.00594l-0.042,-0.036c-0.007,-0.006 -0.01739,-0.02057 -0.02079,-0.02914l-0.17034,-0.43033c-0.00644,-0.01626 0.00212,-0.04153 0.01712,-0.05053l0.09,-0.054c0.015,-0.009 0.04749,-0.018 0.06499,-0.018h0.17301c0.026,0 0.04598,0.02529 0.03996,0.05059zM1.52,0.308c0,0.001 -0.00071,0.00129 -0.00141,0.00059l-0.00717,-0.00717c-0.00071,-0.00071 -0.00041,-0.00141 0.00059,-0.00141h0.006c0.001,0 0.002,0.001 0.002,0.002zM1.03819,0.45052c-0.00409,0.01474 -0.02319,0.02648 -0.03819,0.02348l-0.09058,-0.01812c-0.01471,-0.00294 -0.02942,-0.02088 -0.02942,-0.03588v-0.09c0,-0.015 0.015,-0.03 0.03,-0.03h0.13264c0.01868,0 0.03236,0.018 0.02736,0.036zM1.754,0.318c-0.002,0.001 -0.005,0 -0.006,-0.002l-0.006,-0.012c-0.001,-0.002 0.00024,-0.004 0.00247,-0.004h0.03658c0.00447,0 0.00494,0.002 0.00094,0.004zM1.426,1.028c0.012,0.016 0.00895,0.04517 -0.0061,0.05834l-0.12689,0.11103c-0.00151,0.00132 -0.00501,0.00263 -0.00701,0.00263h-0.012c-0.002,0 -0.00439,-0.00196 -0.00478,-0.00392l-0.01522,-0.07608c-0.002,-0.01 -0.00021,-0.02947 0.00357,-0.03894l0.05757,-0.14392c0.00743,-0.01857 0.02686,-0.02114 0.03886,-0.00514zM0.36462,1.18708c0.00269,0.00646 -0.00162,0.01292 -0.00862,0.01292h-0.042c-0.007,0 -0.014,-0.007 -0.014,-0.014v-0.09153c0,-0.00224 0.002,-0.00547 0.004,-0.00647l0.012,-0.006c0.002,-0.001 0.00486,0.00006 0.00572,0.00213zM2.7,1.192c0,0.004 -0.004,0.008 -0.008,0.008h-0.088c-0.012,0 -0.01262,-0.00379 -0.00123,-0.00759l0.08964,-0.02988c0.00379,-0.00126 0.00759,0.00147 0.00759,0.00547zM0.65533,0.36178c0.01233,0.00411 0.02467,0.02122 0.02467,0.03422v0.078c0,0.013 -0.00894,0.03544 -0.01788,0.04487l-0.1522,0.16066c-0.00496,0.00523 -0.01592,0.01447 -0.02192,0.01847l-0.036,0.024c-0.006,0.004 -0.01643,0.00231 -0.02085,-0.00338l-0.10315,-0.13262c-0.014,-0.018 -0.028,-0.0588 -0.028,-0.08161v-0.17039c0,-0.017 0.017,-0.034 0.034,-0.034h0.102c0.017,0 0.05013,0.00538 0.06626,0.01075zM1.38306,0.45563c0.01347,0.00718 0.01394,0.02237 0.00094,0.03037l-0.09323,0.05737c-0.00539,0.00331 -0.01677,0.00463 -0.02277,0.00263l-0.036,-0.012c-0.006,-0.002 -0.01026,-0.01008 -0.00853,-0.01616l0.02853,-0.09984c0.004,-0.014 0.02085,-0.02115 0.03369,-0.0143zM1.80755,0.91598c0.00622,0.01701 -0.00555,0.03602 -0.02355,0.03802l-0.108,0.012c-0.018,0.002 -0.04765,-0.00987 -0.05929,-0.02374l-0.15796,-0.18811c-0.01937,-0.02307 -0.01374,-0.06294 0.01126,-0.07974l0.15,-0.10081c0.025,-0.0168 0.06035,-0.00532 0.0707,0.02297zM1.06804,0.68962c0.00098,0.00019 0.00196,-0.00062 0.00196,-0.00162v-0.006c0,-0.001 0.00091,-0.00159 0.00182,-0.00117l0.08618,0.03917c0.011,0.005 0.01742,0.02118 0.01285,0.03237l-0.06285,0.15363c-0.009,0.022 -0.03903,0.03293 -0.06007,0.02186l-0.31162,-0.16401c-0.01316,-0.00692 -0.01631,-0.02485 -0.00631,-0.03585l0.06,-0.066c0.01,-0.011 0.0346,-0.01919 0.0492,-0.01639z" fill="#d3d3d3" fill-rule="evenodd" stroke="#ff0000" stroke-width="0.005"></path></g></svg>