<!--

Built on 2024-03-26T17:17:39.145Z



## Param string


-->

<svg version="1.1" xmlns="http://www.w3.org/2000/svg" xmlns:xlink="http://www.w3.org/1999/xlink" width="3in" height="1.5in" viewBox="0 0 3.05 1.55"><g fill="none" fill-rule="none" stroke="none" stroke-width="none" stroke-linecap="butt" stroke-linejoin="miter" stroke-miterlimit="10" stroke-dasharray="" stroke-dashoffset="0" font-family="none" font-weight="none" font-size="none" text-anchor="none" style="mix-blend-mode: normal"><path d="M0.25,1.25l0,-1l2.5,0v1z" fill="none" fill-rule="nonzero" stroke="none" stroke-width="1"></path><path d="M0,1.5v-1.5h3v1.5zM2.74674,0.32189l-0.00194,0.05459l-0.01568,-0.0304l-0.01301,-0.02315l0.01433,-0.01344l0.01419,-0.01701l-0.01139,-0.00268l-0.02753,0.01244l-0.00407,-0.00742l-0.0197,-0.02643l-0.0139,-0.01838l0.07918,0zM0.3979,0.27409l-0.02397,-0.02409l0.02504,0zM1.7654,0.2514l-0.01591,0.01866l-0.02669,0.00069l-0.03079,-0.02075h0.07495zM2.26273,0.25689l-0.00811,0.00339l-0.02166,0.00716l-0.01561,0.00708l-0.02612,-0.02197l-0.00392,-0.00256l0.07579,0zM0.45062,0.25557l-0.0181,0.00895l-0.00045,0.00158l-0.00454,0.01254l-0.01162,0.00374l0.00185,-0.03238h0.04147zM1.01701,0.26484l-0.0437,0.06497l-0.03254,0.05395l-0.00947,-0.00446l-0.03616,-0.12545l-0.00137,-0.00384h0.1371zM0.88525,0.25842l0.01407,0.03761l0.00998,0.06722l-0.04295,-0.00662l-0.02955,-0.00687l-0.00836,-0.00301l-0.01522,-0.00753l-0.02443,-0.00936l-0.02686,-0.01056l-0.04178,-0.01653l-0.01164,-0.00316l-0.00542,-0.00358l-0.00552,-0.00358l-0.04508,-0.02556l-0.0151,-0.01026l-0.00795,-0.00394l-0.004,-0.00269l0.2563,0zM1.51777,0.25282l-0.00376,0.00261l-0.00352,-0.00482l-0.00192,-0.00061h0.01832zM1.49105,0.25068l-0.00159,-0.00068l0.00463,0zM1.38079,0.25143l0.0402,0.00332l0.0434,0.00563l0.00516,0.01975l0.00311,0.01739l0.00526,0.01722l0.00621,0.03142l0.00582,0.03492l-0.00574,0.0188l-0.0075,-0.00358l-0.00527,-0.00358l-0.01701,-0.00645l-0.04667,-0.01569l-0.00269,-0.00293l-0.00708,-0.00358l-0.0188,-0.00715l-0.02163,-0.00716l-0.01612,-0.00313l-0.04929,-0.01837l-0.00886,-0.0028l-0.01074,-0.00685l-0.01074,-0.01933l0.00448,-0.02807l0.01343,-0.01798l0.00488,0.00023l0.04833,-0.00261l0.02275,-0.00084l0.05645,0zM0.36193,0.25982l0.03671,0.0376l-0.04899,0.04592l-0.04068,-0.04194l-0.04013,-0.04417l-0.00272,-0.00486l-0.00198,-0.00237h0.08737zM1.99086,0.31217l-0.05156,0.06092l-0.05915,0.04092l-0.02557,-0.02371l-0.06895,-0.0854l-0.02239,-0.02943l0.02392,-0.02548l0.21736,0zM1.22057,0.26099l0.01884,-0.00221l0.01884,0.00272l-0.01609,0.05521l-0.01953,-0.00448l-0.02067,-0.00888l0.01784,0.01083l0.01831,0.02042l-0.02207,0.02523l-0.08045,0.04356l-0.02016,0.01814l0.01658,-0.00881l0.09107,-0.04508l0.00653,0.00423l-0.01227,0.04659l-0.01494,0.04013l-0.07358,-0.02112l-0.02387,-0.01264l-0.01876,-0.03261l-0.01261,-0.06218l-0.0139,-0.05996l-0.00465,-0.02009h0.00201l0.00732,0.00162l0.01571,0.00379l-0.00457,-0.00541l0.13392,0zM2.05404,0.28231l-0.04023,0.01183l0.00409,-0.03284l0.00148,-0.01129l0.08368,0zM2.45791,0.25865l0.00386,0.06808l-0.01174,0.02991l-0.02915,0.01027l-0.00537,0.00327l-0.08009,0.03472l-0.00985,-0.00159l-0.03879,-0.05024l-0.01551,-0.01721l0.00223,-0.04588l0.00277,-0.03997l0.18096,0zM2.62643,0.25635l-0.06194,0.03817l-0.07894,0.03565l-0.01329,-0.00779l-0.00212,-0.0466l-0.0014,-0.02579h0.14353zM0.65873,0.29684l0.07031,0.03006l0.02776,0.0103l-0.01522,0.00866l-0.10158,0.05933l-0.01791,0.01437l-0.03721,0.03313l-0.02589,0.02242l-0.01791,-0.01677l-0.03598,-0.03671l-0.06335,-0.08799l-0.00943,-0.03582l0.06122,-0.04665l0.00207,-0.00117l0.09465,0zM1.68094,0.25899l0.03131,0.02543l-0.02083,0.02069l-0.01607,0.01644l-0.00604,0.00441l-0.00094,0.00235l-0.00277,0.00256l-0.0102,0.00968l0.01823,-0.01222l0.01813,-0.0144l0.00254,-0.00448l0.00358,-0.00358l0.00448,-0.00269l0.00517,-0.00358l0.01745,-0.00725l0.0208,-0.00398l0.04075,0.04053l0.04208,0.04776l0.00627,0.0079l0.01433,0.01932l0.01433,0.02075l-0.02827,0.0254l-0.01914,0.00716l-0.01953,0.00716l-0.0047,0.00358l-0.00528,0.00358l-0.0377,0.01862l-0.00687,0.00287l-0.00806,0.00269l-0.01794,0.01117l-0.01676,0.00849l-0.01066,-0.00759l-0.0138,-0.00759l-0.0083,-0.00716l-0.0099,-0.00716l-0.01242,-0.00716l-0.02134,-0.00766l-0.00472,-0.00674l-0.00738,-0.00709l-0.00513,-0.00317l-0.01239,-0.00905l-0.01112,-0.0185l0.00563,-0.00803l0.01602,-0.02034l0.01609,-0.0226l0.00313,-0.00282l0.0194,-0.02108l0.00149,-0.00059l0.00463,-0.00671l-0.01219,0.00942l-0.00155,0.00318l-0.02052,0.01701l-0.01952,0.01701l-0.01928,0.02059l-0.01813,0.02059l-0.02298,-0.00938l-0.02722,-0.04077l-0.02546,-0.1154l0.03965,-0.0061l0.07071,-0.00551l0.0163,-0.00497l0.05863,0zM2.21812,0.29782l-0.02328,0.02905l-0.02328,0.02639l-0.00891,0.00511l-0.01473,0.01113l-0.05418,0.04453l-0.02962,-0.01966l-0.04925,-0.03236l-0.02239,-0.01606l0.0197,-0.04003l0.01544,-0.00269l0.09559,-0.04817l0.00708,-0.00507h0.04045zM0.27494,0.27352l0.04462,0.05116l0.00998,0.02278l-0.04193,0.0197l-0.03671,0.01781l-0.0009,-0.02362v-0.11135l0.00496,0zM1.04385,0.25693l0.00852,0.02298l0.01049,0.04785l0.02193,0.11659l-0.01102,0.02001l-0.03044,0.0066l-0.00828,-0.00107l-0.01911,-0.01515l-0.0347,-0.04711l-0.02387,-0.03148l0.02522,-0.0429l0.04772,-0.06288zM2.66606,0.28483l0.02649,0.03626l0.00796,0.02694l-0.02063,-0.00513l-0.01744,-0.00557l-0.07004,-0.01124l-0.04193,-0.00456l0.03837,-0.0235l0.0428,-0.02617l0.0056,-0.00267l0.00318,-0.00067l-0.00009,-0.00553zM2.26111,0.26498l0.00352,0.02299l-0.00375,0.02846l-0.01875,-0.01095l-0.01685,-0.01942l0.01522,-0.01307zM1.15614,0.28166l-0.00337,0.00141l-0.00556,-0.00354zM1.16691,0.28539l0.00895,0.00347l0.00179,0.00347l-0.00895,-0.00347zM2.22625,0.30968l0.02846,0.02809l0.03921,0.04349l0.00439,0.02271l-0.06049,0.02734l-0.08954,0.0272l-0.02933,-0.01728l-0.015,-0.01924l0.01649,-0.01285l0.06115,-0.05616zM0.42308,0.32199l0.01225,0.02776l0.00271,0.00716l0.00358,0.00716l0.00358,0.00637l0.00716,0.01154l0.00716,0.01139l0.04238,0.04849l0.04673,0.04398l0.00715,0.00942l0.00616,0.00755l0.02449,0.02013l0.05396,0.04531l0.01769,0.01161l0.01164,0.00627l0.0047,0.00315l0.01164,0.00784l0.0385,0.02398l-0.00895,0.01305l-0.00895,0.01284l-0.02507,0.02894l-0.02507,0.02924l-0.0078,0.00274l-0.05833,-0.05104l-0.05915,-0.06331l-0.01868,-0.02188l-0.01005,-0.01294l-0.01433,-0.01917l-0.01433,-0.02045l-0.00274,-0.00462l-0.01159,-0.01433l-0.02149,-0.02865l-0.01116,-0.01433l-0.00675,-0.01074l-0.0076,-0.01074l-0.00315,-0.0047l-0.00716,-0.01239l-0.00716,-0.01074l-0.00627,-0.01018l-0.01074,-0.015l-0.00884,-0.01492l0.00604,-0.01791l0.00767,-0.01087l0.02289,-0.01888zM1.26254,0.33766l-0.00408,0.00949l-0.00287,-0.00472zM2.61211,0.34289l0.05895,0.0126l0.02701,0.00859l-0.00537,0.00716l-0.00537,0.00255l-0.04073,0.03552l-0.0516,0.04037l-0.04465,0.02901l-0.02897,-0.04562l-0.00299,-0.00453l-0.00298,-0.00373l-0.00686,-0.01109l-0.01479,-0.02858l-0.01105,-0.02314l0.00261,-0.01225l0.01701,-0.00513l0.01845,-0.00691zM0.80966,0.35051l0.04494,0.01719l0.04112,0.01833l-0.02644,0.03547l-0.03682,0.04285l-0.03087,0.0388l-0.02507,0.03224l-0.01817,0.0243l-0.01924,0.02955l-0.00788,0.01122l-0.06037,-0.0318l-0.03117,-0.02444l-0.05899,-0.04922l0.00302,-0.02059l0.09617,-0.0638l0.05363,-0.02995l0.02149,-0.01346l0.02307,-0.01272zM1.27768,0.35024l0.07368,0.02119l0.09439,0.03862l0.05812,0.02557l0.03707,0.02611l-0.01069,0.02234l-0.02501,0.04595l-0.01886,0.02468l-0.03529,-0.01114l-0.10689,-0.03547l-0.03761,-0.01343l-0.03044,-0.00977l-0.03044,-0.0117l-0.02262,-0.01544l0.01183,-0.05021l0.01691,-0.04951l0.01115,-0.00578zM0.34491,0.35937l-0.0188,0.01903l-0.04146,0.03083l-0.03465,0.02794l0,-0.03781l0.03741,-0.02218zM1.9946,0.36217l0.02003,0.01208l0.09259,0.07245l-0.00592,0.01652l-0.01481,0.00828l-0.00448,0.00528l-0.00528,0.00323l-0.04567,0.01934l-0.06288,0.03133l-0.02686,0.00443l-0.05183,-0.06846l-0.01293,-0.02641l0.02091,-0.01851l0.04066,-0.02879l0.03505,-0.02713zM2.45635,0.36791l0.04713,0.06448l0.01553,0.02662l0.01285,0.01815l-0.01912,0.03955l-0.02112,0.01752l-0.00525,0.00333l-0.00321,0.00192l-0.00627,0.0062l-0.01639,0.01063l-0.0149,0.00835l-0.02056,-0.02173l-0.03672,-0.05169l-0.02593,-0.03619l-0.01174,-0.01832l-0.00742,-0.01306l-0.00179,-0.00944l0.00563,-0.00358l0.0056,-0.00358l0.02518,-0.00895l0.02162,-0.00895l0.01332,-0.0053l0.02561,-0.01049zM2.7213,0.36766l0.00941,0.01522l0.01171,0.01778l0.00186,0.02912l0.00126,0.09057l0.00073,0.16101l0.00027,0.24044l-0.00005,0.1985l-0.00017,0.12972l-0.01418,0l-0.02694,-0.09975l0.00426,-0.05958l0.02652,-0.03543l0.00586,-0.01866l-0.02408,0.01739l-0.02591,0.0327l-0.01164,-0.00084l-0.00722,-0.00977l-0.02505,-0.05533l-0.02818,-0.05283l0.00611,-0.01754l0.01258,-0.02395l0.00758,-0.01574l0.0124,-0.00179l0.03559,0.04884l0.03735,0.05446l0.00892,0.0106l0.00178,-0.01326l-0.00858,-0.02817l-0.01036,-0.02016l-0.0053,-0.00964l-0.01074,-0.0153l0.01893,-0.03641l0.01612,-0.03342l0.00008,-0.0188l-0.02482,0.02351l-0.03319,0.02125l-0.01826,-0.02905l0.02227,-0.0365l0.03077,-0.02895l0.00621,-0.01071l0.00201,-0.00611l0.00135,0.00201l0.00188,0.00303l0.00967,-0.01581l-0.02027,0.01277l-0.04375,0.03869l-0.02018,0.01902l-0.02996,-0.03119l-0.0613,-0.06155l-0.03134,-0.03449l0.02484,-0.02638l0.0271,-0.02938l0.00531,-0.00715l0.02334,-0.02059l0.02226,-0.01559l0.04887,0.05459l0.0513,0.0512l0.00066,-0.00763l-0.03624,-0.039l-0.04136,-0.04477l-0.01164,-0.01417l-0.00091,-0.02326l0.03333,-0.03389l0.02052,-0.02429l0.0117,-0.01506l0.00816,-0.01152l0.02199,-0.0346l-0.03674,0.03531l-0.04044,0.04999l-0.02848,0.02946l-0.0271,-0.02746l-0.04938,-0.06666l0.03834,-0.02717l0.04559,-0.03206l0.04212,-0.03671zM2.66062,1.19595l0.0138,-0.04361l0.0129,0.0041l0.00463,0.00964l0.00937,0.01998l0.00964,0.02507l0.01143,0.03886l-0.05964,0zM0.35566,0.37545l0.02658,0.03815l0.05112,0.07404l0.04873,0.06986l0.02399,0.03991l-0.03274,0.04078l-0.03562,0.03748l-0.02285,0.02686l-0.02316,0.02686l-0.0074,-0.00537l-0.00758,-0.00537l-0.04143,-0.0279l-0.05789,-0.04766l-0.02742,-0.02554v-0.16116l0.0082,-0.00852l0.02326,-0.01933l0.01329,-0.01164l0.00501,-0.00269l0.00699,-0.00522l0.03995,-0.02928zM0.9351,0.40795l0.00389,0.00806l0.00024,-0.00824l0.00568,-0.00519l0.0548,0.07023l0.0083,0.01566l-0.01879,0.01929l-0.0844,0.09898l-0.02293,0.0188l-0.02097,-0.00525l-0.02433,0.01078l-0.01417,0.01604l-0.01448,-0.00511l-0.04569,-0.02712l-0.00567,-0.00172l-0.00072,-0.00436l0.02353,-0.03268l0.03808,-0.05445l0.03229,-0.04298l0.03065,-0.03761l0.02287,-0.02776zM2.31125,0.42171l0.05281,0.06316l0.04726,0.07266l0.01096,0.0203l-0.02753,0.01553l-0.05283,0.00739l-0.04679,-0.00596l-0.02669,-0.00364l-0.02979,-0.00356l-0.05484,-0.03444l-0.02518,-0.04627l-0.01214,-0.0221l0.01164,-0.00434l0.03022,-0.01103l0.02221,-0.00862l0.03693,-0.01476l0.04585,-0.01954zM1.11173,0.44544l-0.00393,0.01237l-0.01215,-0.01285zM1.59762,0.46067l0.03582,0.01577l0.00167,0.00129l0.0046,0.00748l0.04984,0.03601l-0.01525,0.01647l-0.03124,0.03081l-0.02694,0.01982l-0.04695,-0.0122l-0.05215,-0.01679l-0.01522,-0.00588l0.03388,-0.0658l0.02086,-0.0385zM1.85725,0.44672l0.02236,0.02636l0.02331,0.02886l-0.01773,0.03791l-0.02356,0.03641l-0.00693,0.01254l-0.03621,0.06539l-0.00888,0.01919l-0.02698,-0.04656l-0.06325,-0.09592l-0.00627,-0.00907l0.06445,-0.03816l0.05372,-0.02531zM2.11963,0.46454l0.00358,0.00809l0.01119,0.01871l0.03283,0.06324l0.01866,0.05671l-0.00767,0.00449l-0.06396,-0.01166l-0.08553,-0.0144l-0.04534,-0.00925l-0.02568,-0.02791l0.04755,-0.02793l0.0578,-0.0303l0.00966,-0.00903l0.00299,-0.00111l0.02436,-0.00891zM1.17493,0.47379l0.02161,0.00226l-0.00167,0.01476l-0.0121,0.04878l-0.01504,0.05193l-0.01467,0.01907l-0.01737,-0.00537l-0.06289,-0.08632l-0.01868,-0.02965l0.00983,-0.00404l0.02953,-0.00856zM1.03626,0.49222l0.02715,0.03691l0.03186,0.04612l0.01915,0.02682l0.01061,0.01818l-0.03576,0.00334l-0.07467,0.00305l-0.0739,0.00154l-0.03344,-0.0012l0.03684,-0.04922l0.05957,-0.06464l0.02149,-0.02043zM1.25889,0.50009l0.0213,0.00726l0.00849,0.00358l0.01382,0.00358l0.01501,0.00306l0.04191,0.01208l0.00269,0.00199l0.01701,0.00777l0.02239,0.00753l0.05867,0.01772l0.0058,0.00301l0.00882,0.00703l0.00488,0.0158l-0.00702,0.01518l-0.00309,0.00906l-0.00716,0.01082l-0.00716,0.00926l-0.01522,0.001l-0.10379,-0.01385l-0.02739,-0.00334l-0.06155,-0.00414l-0.05978,-0.00241l-0.0009,-0.01697l0.00358,-0.01275l0.0028,-0.01053l0.00768,-0.01701l0.01153,-0.03112l0.00665,-0.02179l0.00266,-0.01035zM2.54635,0.51451l0.01987,0.01976l0.0359,0.03798l0.01391,0.02215l-0.00393,0.01231l-0.03153,0.04058l-0.02955,0.03445l-0.00217,-0.00012l-0.01554,0.0054l0.00414,0.00086l0.00192,0.00103l-0.0122,0.00307l-0.03397,-0.04131l-0.03134,-0.05072l-0.00735,-0.01306l0.0188,-0.01491l0.06395,-0.04726zM1.93304,0.54316l0.01287,0.01791h-0.06173l0.00997,-0.01343l0.0134,-0.01791zM1.70652,0.53701l0.04599,0.05621l-0.0331,-0.00411l-0.03492,-0.0054l-0.02868,-0.00388l0.01343,-0.01332l0.02418,-0.02096zM1.50959,0.57517l0.06741,0.02176l-0.02062,0.01525l-0.04551,0.04201l-0.00843,0.00895l-0.02871,0.00895l-0.0174,-0.01366l0.02915,-0.05977l0.00734,-0.01828zM1.87591,0.57447l0.04108,0.00181l0.04953,0.01211l0.03412,0.06189l0.02765,0.05878l-0.03753,0.00098l-0.07708,-0.00866l-0.06002,-0.00609l-0.03805,-0.00477l0.01595,-0.03709l0.03035,-0.05611zM1.988,0.59477l0.0324,0.00563l0.05731,0.00928l0.05446,0.00904l0.05796,0.01777l-0.02672,0.04727l-0.02559,0.04247l-0.01984,-0.00178l-0.06593,-0.00938l-0.02072,-0.01842l-0.0272,-0.05619l-0.02239,-0.04621zM2.42986,0.59365l0.01526,0.01256l0.03775,0.05164l0.02745,0.03731l0.00599,0.02857l-0.0236,-0.02163l-0.09635,-0.0761l-0.01701,-0.01154l0.02234,-0.0113zM1.67433,0.59731l0.06972,0.01075l0.02759,0.03127l0.01884,0.0471l-0.01692,-0.00679l-0.04791,-0.00923l-0.04029,-0.00434l-0.00806,0.00207l0.01522,0.00404l0.0385,0.00556l0.03582,0.00834l0.03092,0.03376l-0.02648,0.03115l-0.01628,0.01236l-0.02059,0.01448l-0.00697,0.00555l-0.01723,-0.00396l-0.0036,0.00294l-0.01981,0.01332l-0.08582,0.03621l-0.03044,0.00987l-0.0473,-0.0219l-0.06124,-0.03427l-0.02369,-0.0149l0.03073,-0.03408l0.0364,-0.03945l0.00013,-0.00179l-0.00066,-0.00265l0.00828,-0.00413l0.01072,-0.00452l0.06971,0.00029l0.05414,0.03878l0.00806,0.00467l-0.02961,-0.02707l-0.01598,-0.01698l0.03032,-0.01225l0.02514,-0.0015l-0.04638,-0.0035l-0.06915,0.0018l-0.03851,0.00072l0.04388,-0.04415l0.06832,-0.02255l0.0086,-0.00173zM2.20469,0.59927l0.01074,0.00178l-0.00206,0.01316l-0.01317,-0.00738zM2.25997,0.60088l0.04119,0.0065l0.09094,0.02814l0.09619,0.0779l0.01287,0.00883l0.00013,0.01235l-0.05198,0.03594l-0.05193,0.03385l-0.03361,-0.00127l-0.02005,-0.02356l-0.08188,-0.09365l-0.02545,-0.02497l-0.01277,-0.01291l-0.00556,-0.00816l0.00592,-0.02301l0.02227,-0.01302zM0.52672,0.61479l0.02825,0.02776l0.05223,0.05342l0.02525,0.02566l-0.01491,0.02269l-0.0434,0.05563l-0.0463,0.01029l-0.05439,-0.02474l-0.05352,-0.03073l-0.01234,-0.01035l0.00774,-0.0084l0.02242,-0.02811l0.05119,-0.05641zM0.75327,0.62738l0.02907,0.0188l0.02459,0.01693l-0.01291,0.02234l-0.01086,0.02689l0.04002,0.03308l0.04124,0.02894l-0.02208,0.0404l-0.00315,0.00446l-0.04673,0.06565l-0.02744,-0.01746l-0.07002,-0.06731l-0.05287,-0.05336l0.0063,-0.0108l0.02958,-0.03672l0.05128,-0.06037zM1.24676,0.62782l0.10819,0.01042l0.05308,0.00684l0.02264,0.00385l0.00511,0.00857l-0.00562,0.01016l-0.05322,0.00638l-0.09542,0.00481l-0.07509,0.00828l-0.01778,0.0011l-0.01732,-0.02283l-0.01622,-0.02848l0.0154,-0.00704l0.0158,-0.00286zM1.10381,0.63563l0.03421,0.02637l0.01992,0.02813l-0.00791,0.00417l-0.04045,0.00663l-0.04768,0.00895l-0.06696,-0.01181l-0.05431,-0.03459l-0.02804,-0.01757l0.01074,-0.00318l0.08775,-0.00524l0.07771,-0.00264zM0.88678,0.65838l0.0185,0.01014l0.05568,0.03204l0.01541,0.01064l0.01221,0.00969l-0.0372,0.00835l-0.06689,0.01228l-0.02812,0.00468l-0.02382,-0.01592l-0.02507,-0.01932l0.00806,-0.01747l0.00931,-0.01623l0.01343,-0.01775zM0.27715,0.66958l0.06537,0.0477l0.03452,0.04078l-0.02066,0.02686l-0.02125,0.02878l-0.0316,0.03632l-0.03999,0.04415l-0.01354,0.01431l0,-0.25974zM2.20484,0.64716l0.04366,0.04836l0.0265,0.03128l0.01124,0.02129l-0.02864,0.02911l-0.05076,0.02545l-0.04244,-0.05764l-0.00693,-0.01001l0.01411,-0.0367l0.02215,-0.03582l0.00469,-0.01085zM1.4329,0.68704l0.03307,0.02899l-0.01612,0.02253l-0.01612,0.02281l-0.02717,-0.00307l-0.03999,-0.02355l-0.02581,-0.01594l0.04402,-0.03518zM1.36569,0.68577l-0.03505,0.02643l-0.0365,-0.02286l0.01156,-0.00358zM1.47493,0.68284l0.02686,0.00199l-0.02739,0.02308l-0.02634,-0.02181zM1.28988,0.71107l0.01465,0.00596l0.0059,0.00204l-0.04114,0.03963l-0.01581,0.01125l-0.00862,-0.01043l-0.03521,-0.05077l0.01733,-0.00483zM1.8303,0.70572l0.02022,0.01164l0.01673,0.01921l0.04948,0.07866l-0.0072,0.0385l-0.0153,0.02604l-0.01718,-0.02239l-0.06636,-0.09339l-0.01524,-0.01918l0.01165,-0.02024zM1.86622,0.70939l0.09323,0.00924l0.02068,0.00463l-0.02247,0.04843l-0.02863,0.04358l-0.01894,-0.02403l-0.03492,-0.05044l-0.0188,-0.02998zM1.17833,0.72082l0.03093,0.03217l0.01721,0.02264l0.00747,0.00802l-0.00838,0.00892l-0.02,0.0161l-0.02245,0.0008l-0.01096,-0.0101l-0.01771,-0.01226l-0.01945,-0.01343l-0.00697,-0.00488l-0.00706,-0.0051l-0.01561,-0.01136l-0.01772,-0.01235l0.03327,-0.01095zM2.05597,0.72537l0.08425,0.01129l0.00179,0.0144l-0.03332,0.01981l-0.03999,0.026l-0.03873,-0.01731l-0.02401,-0.03477l-0.01349,-0.02059zM1.33227,0.72601l0.04558,0.02393l0.04156,0.02662l-0.01343,0.0122l-0.02519,0.0253l-0.01693,0.01563l-0.08215,-0.04759l-0.01054,-0.00871l0.01325,-0.01163l0.02845,-0.0236zM1.66967,0.73657l0.01332,0.00895l0.00404,0.00895l-0.01332,-0.00895zM1.98871,0.73824l0.01955,0.0261l0.02448,0.03427l0.00808,0.01011l-0.01203,0.00981l-0.04656,0.0275l-0.03566,0.02017l-0.00627,0.00051l-0.00514,0.00192l-0.01484,0.01146l-0.01293,0.00276l0.03093,-0.06394l0.03188,-0.05543zM2.53526,0.73689l0.03043,0.02581l0.0509,0.05312l0.02418,0.02721v0.02394l-0.01316,0.05056l-0.01316,0.02662l-0.01515,-0.03126l-0.03072,-0.05302l-0.04966,-0.06566l-0.01067,-0.01522l-0.00464,-0.00302l0.00119,-0.02175l0.01612,-0.01106zM1.03893,0.74064l0.0635,0.04057l0.02874,0.02086l0.03031,0.02604l-0.01202,0.02425l-0.03018,0.0337l-0.01412,0.01516l-0.01927,-0.00565l-0.02643,-0.01194l-0.03848,-0.02496l-0.04835,-0.03015l-0.06181,-0.0602l0.00806,-0.00334l0.06357,-0.01168l0.04656,-0.01058zM1.78295,0.75269l0.0011,0.01547l-0.02429,0.06512l-0.01112,-0.01343l-0.01552,-0.02191l-0.00089,-0.01254l0.02865,-0.01838zM1.69341,0.75925l0.00537,0.00521l-0.00537,0.00076l-0.00537,-0.00521zM2.14869,0.75811l0.01359,0.0138l0.0184,0.02211l-0.01986,0.04099l-0.07683,0.02002l-0.01271,-0.00267l-0.00533,-0.01188l-0.00752,-0.01682l0.00721,-0.01328l0.0166,-0.00956l0.01037,-0.00525l0.02763,-0.01773zM0.62965,0.76164l0.02302,0.01878l0.06473,0.06507l0.03223,0.03727l-0.07911,-0.02471l-0.07611,-0.02644l-0.01209,-0.01016l0.02239,-0.03206zM1.79506,0.76164l0.03479,0.04435l-0.01712,0.00928l-0.02521,0.006l-0.0009,-0.0133l0.00529,-0.03066zM2.30471,0.76616l0.02719,0.02482l0.02477,0.02396l-0.00218,0.02618l-0.00477,0.03025l-0.01511,0.00642l-0.06888,-0.02296l-0.03553,-0.01813l-0.00008,-0.01742l0.04208,-0.03069zM2.51193,0.80495l0.0067,0.01042l0.00607,0.00895l0.01845,0.02964l0.03673,0.05792l0.0028,0.00437l0.01072,0.01478l0.00791,0.01359l-0.0134,-0.00241l-0.05101,-0.01482l-0.03223,-0.00836l-0.04763,-0.01194l-0.02776,-0.00576l-0.00701,-0.00269l-0.02686,-0.01124l-0.02684,-0.00855l0.00005,-0.01294l0.02086,-0.03672l0.01789,-0.01115l0.00464,-0.00269l0.0586,-0.03934zM0.39235,0.77625l0.03136,0.01489l0.00879,0.00274l0.02703,0.01132l0.00716,0.00301l0.00717,0.00269l0.00974,0.00325l0.01104,0.00448l0.00817,0.00391l0.00687,0.00358l0.00716,0.00358l0.00716,0.00287l0.02346,0.00958l0.02523,0.00957l-0.02451,0.04901l-0.00277,0.00716l-0.01417,0.02985l-0.00277,0.00716l-0.03112,0.05578l-0.00649,0.00806l-0.00269,0.00689l-0.00282,0.00806l-0.01867,0.0295l-0.00358,0.00572l-0.00358,0.00678l-0.0047,0.00859l-0.02395,-0.00504l-0.00716,-0.00316l-0.00716,-0.00358l-0.00637,-0.00358l-0.01154,-0.00716l-0.00921,-0.00716l-0.01531,-0.01076l-0.01217,-0.01001l-0.02667,-0.02049l-0.03491,-0.03281l-0.02261,-0.02456l-0.00269,-0.036l0.00895,-0.01179l0.02507,-0.02882l0.02507,-0.02834l0.01343,-0.01714l0.03313,-0.0404l0.00448,-0.00512zM1.44346,0.78907l0.01343,0.00481l0.0055,0.00358l0.0047,0.00358l0.01239,0.00716l0.01092,0.00716l0.0508,0.02505l0.02159,0.01077l0.01165,0.00734l0.00787,0.00734l-0.02324,0.02127l-0.02569,0.02132l-0.00472,0.00721l-0.03044,-0.00358l-0.01525,-0.01074l-0.01396,-0.01075l-0.01609,-0.01074l-0.00484,-0.00358l-0.00716,-0.00358l-0.00716,-0.00274l-0.03142,-0.02045l-0.01872,-0.01872l0.04524,-0.04493zM1.28977,0.79835l0.06061,0.03466l0.04005,0.02503l0.01057,0.00988l-0.00781,0.00646l-0.0649,0.05648l-0.01131,0.00628l-0.05975,-0.05535l-0.05537,-0.05535l0.02371,-0.01575l0.03087,-0.01976zM0.89069,0.79084l0.01275,0.00695l0.02887,0.01922l0.08402,0.05738l0.05935,0.0341l0.00348,0.00315l-0.04978,0.0017l-0.10244,-0.00511l-0.07163,-0.00535l-0.04477,-0.00744l0.04008,-0.05329zM1.70987,0.79773l0.02626,0.03134l0.00938,0.02217l-0.02764,0.02326l-0.04891,0.01675l-0.0427,-0.02016l-0.03492,-0.01951l0.03144,-0.01937l0.05577,-0.0241zM2.03998,0.82262l0.01879,0.04283l-0.01836,0.00695l-0.02961,0.01059l-0.04519,0.01468l-0.09162,0.03449l-0.00994,0.00498l-0.02466,0.00716l-0.04909,0.00393l0.01145,-0.01479l0.0546,-0.08021l0.00672,-0.00716l0.00543,0.00833l0.01121,0.01881l0.01248,0.02253l0.02607,-0.00264l0.04082,-0.02348l0.02439,-0.01479l0.00751,-0.00366l0.02576,-0.01423zM1.83177,0.82643l0.01247,0.03283l-0.03769,0.05451l-0.04302,0.02574l-0.03878,-0.02029l-0.03313,-0.01766l0.02055,-0.01444l0.03492,-0.0254l0.05556,-0.02874zM1.1938,0.84046l0.03371,0.03305l0.02727,0.02961l-0.0117,0.00233l-0.0774,0.00931l-0.04527,-0.00257l0.04588,-0.05645zM2.2277,0.85614l0.06564,0.03507l-0.01092,0.02444l-0.01069,0.01433l-0.02004,0.02391l-0.02153,0.02507l-0.0122,0.01549l-0.01067,0.01433l-0.02119,0.02617l-0.01251,0.01364l-0.05027,-0.00227l-0.0529,-0.00481l-0.00622,-0.07047l-0.00484,-0.07857l0.01697,-0.01734l0.05686,-0.01657l0.01582,-0.00514zM0.59742,0.85599l0.02865,0.00943l0.02793,0.01072l0.00257,0.02803l0.00216,0.06375l0.00449,0.1268l0.0011,0.04402l-0.00737,0.00764l-0.04163,-0.01419l-0.02686,-0.00647l-0.04835,-0.01308l-0.05552,-0.02173l-0.01033,-0.00591l0.03174,-0.06776l0.05695,-0.10789zM1.62997,0.88163l0.02084,0.00895l0.01312,0.00716l0.0091,0.00715l-0.00648,0.01702l-0.0237,0.05211l-0.02032,0.03934l-0.04318,-0.03433l-0.03714,-0.03186l-0.0151,-0.01107l0.00935,-0.01112l0.0513,-0.04436zM1.41287,0.87649l0.01254,0.00808l0.04415,0.03103l0.06466,0.04585l0.00488,0.01002l-0.062,-0.00447l-0.09886,0.00125l-0.05874,0.00185l-0.01468,-0.00384l0.03251,-0.03087l0.0526,-0.04332zM0.68731,0.88842l0.01997,0.00446l0.0167,0.00805l0.01815,0.03197l0.01577,0.0262l-0.00623,0.01319l-0.05808,0.09646l-0.01011,0.0188l-0.00265,0.005l-0.00641,-0.00806l0.00035,-0.03082l-0.00052,-0.02957l0.00056,-0.0138l0.0001,-0.00804l-0.00171,-0.05153l0.00693,-0.05965zM2.03776,0.891l0.00853,0.03659l0.00341,0.06865l0.00019,0.04611l-0.01381,-0.00447l-0.01347,-0.0076l-0.0261,-0.01022l-0.06672,-0.0288l-0.05276,-0.01855l-0.0385,-0.01659l0.02769,-0.01325l0.04746,-0.01671l0.06984,-0.02125zM2.3426,0.89246l0.09566,0.02114l0.06281,0.02381l-0.04984,0.06261l-0.03612,0.04031l-0.01054,0.00775l-0.0779,0.00155l-0.08168,-0.00327l-0.03035,-0.00112l-0.01602,-0.00067l0.01307,-0.01343l0.0626,-0.07342l0.04093,-0.05939zM0.76845,0.90861l0.01701,0.00766l-0.01123,0.0155l-0.01123,0.01279l-0.01205,-0.02001l-0.01205,-0.02113zM1.68677,0.90849l0.05609,0.02946l0.00182,0.02212l-0.00915,0.01909l-0.00451,0.00819l-0.01433,0.00199l-0.0009,0.00171l0.00448,0.00709l-0.00448,0.00241l-0.0094,0.00149l-0.00652,-0.00297l0.00645,-0.00277l0.00393,-0.00257l-0.01371,0.00025l-0.00547,0.0085l0.00401,0.00789l-0.00716,-0.0047l-0.00705,-0.00469l0.00358,0.00598l-0.00772,0.01409l-0.016,0.00024l-0.00282,-0.00948l-0.0099,0.00086l-0.00988,-0.00464l0.0216,-0.04887zM1.25706,0.91972l0.02776,0.01448l0.01282,0.01941l-0.01206,0.01189l-0.04477,0.00746h-0.03271v-0.02088l0.02507,-0.03041zM0.82265,0.9244l0.06944,0.00243l0.05102,0.00013l0.00865,0.01136l0.01047,0.03106l-0.00752,0.00985l-0.03053,0.03671l-0.03777,0.04382l-0.03297,0.01832l-0.03694,-0.06514l-0.03056,-0.05851l0.00732,-0.01313l0.00915,-0.01617zM0.99837,0.93093l0.01851,0.00362l0.02795,0.00253l0.02,-0.00392l0.00179,-0.00128l0.01522,0.00434l0.00806,0.00491l0.00563,0.00316l0.02199,0.02353l0.00716,0.06323l-0.00306,0.04723l-0.00174,0.02224l-0.00095,0.05545l-0.00385,0.08504l-0.00357,-0.00213l-0.00369,-0.00806l-0.00358,-0.00716l-0.00286,-0.00716l-0.00762,-0.01343l-0.01146,-0.02754l-0.0067,-0.0185l-0.00269,-0.0056l-0.00929,-0.0191l-0.01254,-0.03403l-0.00862,-0.01731l-0.00269,-0.00806l-0.00358,-0.00687l-0.00358,-0.00548l-0.01074,-0.02676l-0.01074,-0.02876l-0.00318,-0.00551l-0.0049,-0.00785l-0.01789,-0.04682l-0.00269,-0.0081zM1.16153,0.93022l0.03403,-0.00026l-0.00243,0.04299h-0.05494l-0.01134,-0.0188l-0.00534,-0.02124zM0.27059,0.96417l0.02955,0.02875l0.05797,0.04637l0.06533,0.04545l0.01107,0.00612l-0.00863,0.01537l-0.00862,0.01537l-0.06035,0.00429l-0.08213,0.00806l-0.02418,0.00377l-0.0006,-0.01018l0,-0.18265zM1.77327,0.94989l0.01448,0.00697l-0.01593,0.00958l-0.02058,0.00947l0.00562,-0.02703zM2.56196,0.9533l0.03727,0.01122l0.0265,0.04214l0.01515,0.0401l-0.02236,0.01267l-0.03761,-0.00229l-0.08628,-0.00826l-0.0642,-0.00558l0.03948,-0.03815l0.05244,-0.04332zM1.85503,0.9821l0.04881,0.02903l-0.00448,0.00532l0.00358,0.00128l0.00358,0.00078l-0.03201,0.02417l-0.04531,0.02828l-0.0197,0.01456l-0.01249,0.00916l-0.01049,-0.03444l-0.01092,-0.0631l-0.00241,-0.02059l0.01205,-0.0054zM0.77171,0.96779l0.01578,0.02497l0.03949,0.07215l0.02371,0.04718l-0.01679,0.02353l-0.02021,0.02564l-0.01773,-0.00534l-0.01991,-0.00746l-0.01511,-0.00492l-0.05555,-0.02067l-0.02021,-0.00759l0.03073,-0.05677l0.01225,-0.01918l0.01522,-0.02479l0.02178,-0.0349zM0.97881,0.97654l0.01042,0.02239l0.0152,0.03649l0.00667,0.01755l0.00933,0.0235l0.01207,0.02722l0.02803,0.06805l0.01341,0.03403l0.01286,0.03016l0.00582,0.01408l-0.02013,0l-0.0311,-0.01081l-0.09276,-0.03376l-0.04236,-0.01942l-0.01744,-0.04567l-0.01083,-0.04753l0.03693,-0.04337l0.04775,-0.05436zM1.48135,0.97803l0.06078,0.0017l0.02423,0.00039l0.02054,0.02188l0.02054,0.02639l-0.03256,0.03769l-0.01694,-0.01027l-0.05616,-0.03456l-0.04989,-0.03064l-0.00909,-0.01068zM1.3433,0.98086l0.04222,0.00235l-0.01126,0.0186l-0.02059,0.02351l-0.03043,0.0394l-0.02774,0.03527l-0.01957,-0.00895l-0.01819,-0.01501l-0.00142,-0.00254l-0.0143,-0.03068l-0.02324,-0.04222l-0.00676,-0.01508l0.04371,-0.00179zM1.17269,0.98393l0.02903,0.01321l0.01894,0.03134l0.03848,0.05317l0.0015,0.00136l0.0084,0.01716l0.01069,0.01673l-0.03518,0.05054l-0.06475,0.06518l-0.02651,0.01737l-0.02439,0l0.00093,-0.03707l0.00513,-0.13552l0.00325,-0.07552l0.00684,-0.01469zM1.41233,0.9837l0.01425,0.00916l0.00627,0.00846l0.00269,0.00381l0.00017,0.00279l0.04117,0.07843l-0.015,0.02449l-0.04761,0.03477l-0.0101,0.00641l-0.00771,0.00448l-0.03286,0.02686l-0.00749,0.00448l-0.01346,0.00905l-0.01791,0.01063l-0.07912,0.00163l0.03323,-0.0564l0.00807,-0.01078l0.00816,-0.01148l0.01692,-0.02145l0.01512,-0.01948l0.00636,-0.01021l0.01292,-0.01618l0.02236,-0.02561l0.01354,-0.01533l0.01562,-0.02059zM1.76146,0.98376l0.00748,0.03847l0.00953,0.0633l-0.01986,0.02729l-0.03118,0.01862l-0.02127,-0.02871l-0.03255,-0.04273l-0.01128,-0.01671l0.00837,-0.00649l0.03881,-0.02251l0.04119,-0.02329zM1.45279,0.99863l0.03737,0.02351l0.02955,0.01954l-0.0067,0.00951l-0.01454,0.025l-0.01263,0.01151l-0.02265,-0.04362l-0.01871,-0.04557zM1.67109,1.00648l0.00737,0.00364l-0.00919,0.00235zM1.65739,1.02288l-0.00723,0.00714l-0.00657,-0.01101zM1.93736,1.01981l0.04216,0.01758l0.03818,0.01788l-0.00813,0.01211l-0.02274,0.03138l-0.02479,0.03717l-0.02949,0.01968l-0.03622,-0.0285l-0.03636,-0.03224l-0.01254,-0.01105l0.00775,-0.00618l0.0299,-0.0223l0.03523,-0.02567zM1.62774,1.03391l0.04882,0.05357l0.04371,0.06011l-0.00356,0.00505l-0.0188,0.01295l-0.08214,0.05304l-0.04771,-0.02236l-0.03409,-0.0634l0.01869,-0.02965l0.04756,-0.04514zM1.53757,1.0535l-0.00159,0.00764l-0.0111,-0.00908zM2.10318,1.05687l0.04624,-0.00003l0.0061,0.01032l0.05422,0.05878l0.04688,0.0497l-0.07472,0.00697l-0.03803,0.00246l-0.02628,-0.03442l-0.02913,-0.03442l-0.00285,-0.00456l-0.0102,-0.01701l-0.01846,-0.03293zM2.19502,1.05543l0.07241,0.00221l0.0325,0.00231l0.02026,0.02463l0.01909,0.02748l-0.02624,0.03378l-0.0385,0.0311l-0.01343,-0.00335l-0.05193,-0.05786l-0.05193,-0.05737zM2.04064,1.0625l0.02876,0.03537l0.04752,0.06224l0.01524,0.02418l-0.0385,0.00391l-0.08284,0.00269l-0.04607,-0.00218l0.0376,-0.06435l0.02096,-0.03319l0.01062,-0.02059zM2.3145,1.0625h0.02673l0.03807,0.00741l-0.01664,0.02018l-0.02059,0.0105l-0.01576,-0.02236zM2.48999,1.06462l0.07108,0.0034l-0.01433,0.01895l-0.07432,0.03555l-0.06626,0.02954l-0.04018,0.02265l-0.03015,0.0047l-0.02389,-0.00401l0.01565,-0.0241l0.04225,-0.04762l0.03089,-0.0347l0.01171,-0.00395zM2.66673,1.08004l0.00141,0.04217l-0.01396,0.0208l-0.00553,0.01068l-0.00366,-0.01426l-0.00612,-0.04044l0.00419,-0.03122zM1.53403,1.06608l0.00358,0.00358l-0.00358,0.00358l-0.00358,-0.00358zM1.55553,1.06967l0.00568,0.01191l-0.01498,-0.01138zM1.51806,1.07201l0.0013,0.00703l-0.00917,0.00495l-0.0013,-0.00703zM2.60567,1.07694l0.02655,0.06599l0.00591,0.04088l-0.02767,0.02138l-0.02408,0.01196l-0.00796,-0.00748l-0.01036,-0.00353l-0.00187,0.01074l-0.00885,0.0068l-0.01865,0.01074l-0.01945,0.01074l-0.00383,0.00316l-0.00203,0.00167l-0.1607,0l0.00514,-0.0172l0.00293,-0.00913l0.00766,-0.01736l0.04601,-0.04064l0.05264,-0.00647l0.01981,0.00716l0.00706,0.00358l0.00737,0.00358l0.00516,0.00358l0.01433,0.00716l0.00337,0.00358l0.00558,0.00358l0.00414,0.00358l0.01588,0.00895l0.01269,0.00415l-0.00225,-0.00654l-0.03853,-0.02234l-0.04722,-0.02656l-0.00573,-0.01301l0.02139,-0.01084l0.03465,-0.01699l0.04798,-0.02305zM1.52836,1.08041l0.00567,0.00567l-0.00992,-0.00141zM1.54504,1.08468l0.00385,0.00468l-0.00385,0.00468l-0.00385,-0.00468zM1.51965,1.09784l-0.0029,0.00674l-0.00945,-0.00035l-0.00426,-0.00862zM1.82912,1.09483l0.0647,0.05337l0.01871,0.01458l0.01011,0.01074l0.00905,0.01074l0.00349,0.00512l-0.079,0.01399l-0.0414,0.00163l-0.00779,-0.03275l-0.00931,-0.05259l0.01756,-0.01857zM1.52865,1.09832l0.00537,0.00314l-0.00537,0.0076l-0.00537,-0.00314zM0.46604,1.10379l0.04705,0.01487l0.10171,0.03072l0.03887,0.01162l-0.00215,0.0185l-0.00876,0.02655l-0.05012,0.00429l-0.08553,0.00286l-0.03302,0.00152l-0.01049,-0.02328l-0.01658,-0.04227l-0.00609,-0.01899l0.00955,-0.01443zM1.49043,1.11049l0.00323,0.00931l0.00311,0.01068l0.00483,0.00657l0.00378,0.00812l0.0028,0.00687l0.0036,0.00965l0.0035,0.01164l0.01463,0.03226l-0.01677,0.0035l-0.05915,0.00048l-0.06918,-0.00172l-0.01555,-0.0053l0.02775,-0.02903l0.01344,-0.00996l0.02328,-0.01862l0.01833,-0.01511l0.00918,-0.00644l0.01049,-0.00662l0.01232,-0.00842zM1.50922,1.11691l0.00385,0.00468l-0.00385,0.00468l-0.00385,-0.00468zM0.86429,1.11981l0.01532,0.03313l0.0061,0.03424l-0.0203,-0.00784l-0.02369,-0.01139l-0.00895,-0.0047l0.01499,-0.02285zM1.78474,1.12876l0.00358,0.0058l-0.00358,0.00137l-0.00358,-0.0058zM1.77549,1.14258l-0.00732,0.00192l-0.00081,-0.0092zM1.52666,1.14092l-0.01076,0.01089l-0.00097,-0.01529zM0.71334,1.14441l0.04436,0.01814l0.02533,0.0074l0.0197,0.00358l0.0078,0.0028l0.01701,0.00774l0.0313,0.01298l-0.00712,0.01588l-0.00895,0.00545l-0.00669,0.00475l-0.01254,0.00771l-0.00585,0.00358l-0.00637,0.00358l-0.01154,0.00716l-0.00665,0.00484h-0.05081l-0.0079,-0.00376l-0.00985,-0.0051l-0.00716,-0.00313l-0.00716,-0.00358l-0.00549,-0.00358l-0.02295,-0.00885l-0.01746,-0.00885l0.002,-0.01533l0.00505,-0.01652l0.00304,-0.01322l0.00358,-0.01424l0.00358,-0.00917zM1.78658,1.14491l0.00017,0.01429l-0.00765,-0.01311zM0.35208,1.14594l0.03761,0.00073l-0.00094,0.00895l-0.00149,0.01343l-0.00354,0.00448l-0.00298,0.00687l-0.00269,0.00806l-0.01027,0.01731l-0.01382,0.02835l-0.00806,0.01589h-0.09589l0,-0.09617l0.0247,-0.0012l0.03223,-0.00431zM1.75609,1.14667l0.00358,0.0058l-0.00358,0.00137l-0.00358,-0.0058zM0.42465,1.14937l0.01476,0.02959l0.01933,0.04497l0.01691,0.02607l-0.1044,0l0.03063,-0.06129zM1.74735,1.15204l0.00158,0.00358l-0.00379,0.00358l-0.00158,-0.00358zM1.5344,1.15765l-0.00206,0.00872l-0.00321,-0.00535zM1.7664,1.15562l0.00999,0.01313l-0.01313,-0.00999zM1.75251,1.16279l0.00358,0.00358l-0.00358,0.00358l-0.00358,-0.00358zM1.72824,1.1666l0.00809,0.0104l0.01514,0.01957l0.00768,0.0109l-0.04959,0.00555l-0.04932,0.00195l0.01534,-0.01173l0.03356,-0.02322zM1.76444,1.16971l-0.00042,0.00806l-0.00576,-0.00576zM1.79255,1.17648l0.00269,0.01406l-0.0119,0.00806l-0.01217,-0.01475l0.01179,-0.00802zM1.53444,1.17353l0.00593,0.00426l-0.01116,0.00127zM1.55641,1.19175l-0.00358,0.01326l-0.01107,-0.01673zM2.34919,1.19595l-0.01228,0.05405l-0.11947,0l0.00055,-0.0012l0.02759,-0.05378l0.02387,-0.00358zM2.22887,1.19278l-0.01734,0.03846l-0.00822,0.01876h-0.16969l-0.00174,-0.00125l-0.00687,-0.00358l-0.00806,-0.00269l-0.0191,-0.01509l-0.02572,-0.02396l0.02646,-0.00234l0.06082,-0.00283l0.10498,-0.00414zM0.96275,1.22132l0.03323,0.01245l0.00045,0.00644l-0.01107,0.00495l-0.07612,-0.03549zM2.6361,1.20707l0.00498,0.04293l-0.08505,0l0.00594,-0.00326l0.06605,-0.03607zM0.88927,1.21047l0.02155,0.00985l0.05446,0.02968l-0.1422,0l0.03754,-0.02419zM1.93875,1.21303l-0.01092,0.02418l-0.00688,0.01279h-0.09697l-0.0104,-0.0118l-0.01699,-0.0204l0.06699,-0.00312l0.06764,-0.00377zM1.49731,1.21335l0.01343,0.00043l-0.01074,0.00295l0.00631,0.0019l0.02178,0.00289l0.00969,0.02848h-0.11931l0.01023,-0.01624l0.00915,-0.01806l0.02302,0.00147l0.02302,-0.00139zM1.22779,1.2183l0.08148,-0.00005l0.05755,0.0007l0.02394,0.00176l-0.03579,0.02928h-0.18972l0.01419,-0.00877l0.00448,-0.00327l0.02418,-0.00985zM1.42299,1.22145l-0.01437,0.0273l0.00273,-0.02479zM1.74791,1.22198l0.01175,0.00291l-0.01222,0.02507l-0.00002,0.00004h-0.12729l-0.00732,-0.00841l0.0193,-0.00809l0.05949,-0.00735zM0.57285,1.22565l0.07964,0.00299l0.01208,0.00296l-0.01006,0.00933l-0.01239,0.00907h-0.14724l-0.00779,-0.00938l0.0074,-0.01398zM1.57279,1.23454l0.01229,0.00598l-0.01243,0.00948l-0.01772,0l-0.00659,-0.02138zM1.78064,1.22367l0.02506,0.02633h-0.04278l0.00818,-0.01648zM1.97823,1.23741l0.02161,0.01259h-0.05029l0.00515,-0.00606l0.00554,-0.00941zM1.38897,1.2377l0.00432,0.01l0.00013,0.0023h-0.0213zM1.01243,1.24516l0.0163,0.00484h-0.02372z" fill="#d3d3d3" fill-rule="evenodd" stroke="#ff0000" stroke-width="0.005"></path></g></svg>