<svg version="1.1" xmlns="http://www.w3.org/2000/svg" xmlns:xlink="http://www.w3.org/1999/xlink" width="3in" height="1.5in" viewBox="0 0 3.05 1.55"><g fill="none" fill-rule="none" stroke="none" stroke-width="none" stroke-linecap="butt" stroke-linejoin="miter" stroke-miterlimit="10" stroke-dasharray="" stroke-dashoffset="0" font-family="none" font-weight="none" font-size="none" text-anchor="none" style="mix-blend-mode: normal"><path d="M0.25,1.25l0,-1l2.5,0v1z" fill="none" fill-rule="nonzero" stroke="none" stroke-width="1"></path><path d="M0,1.5v-1.5h3v1.5zM0.2625,0.2625h0.175v0.175h-0.175zM0.6625,0.2625h0.175v0.175h-0.175zM1.0625,0.2625h0.175v0.175h-0.175zM1.4625,0.2625h0.175v0.175h-0.175zM1.8625,0.2625h0.175v0.175h-0.175zM2.2625,0.2625h0.175v0.175h-0.175zM2.6625,0.2625h0.0875v0.175h-0.0875zM0.25626,0.66805l0.17132,-0.01178l0.01178,0.17132l-0.17132,0.01178zM0.65627,0.66804l0.17132,-0.01177l0.01177,0.17132l-0.17132,0.01177zM1.05628,0.66803l0.17133,-0.01175l0.01175,0.17133l-0.17133,0.01175zM1.45631,0.66801l0.17135,-0.0117l0.0117,0.17135l-0.17135,0.0117zM1.85634,0.66798l0.17137,-0.01164l0.01164,0.17137l-0.17137,0.01164zM2.25638,0.66794l0.1714,-0.01155l0.01155,0.1714l-0.1714,0.01155zM2.65643,0.66789l0.09357,-0.00625v0.1722l-0.08211,0.00549zM0.2507,1.0737l0.16688,-0.02301l0.02301,0.16688l-0.16688,0.02301zM0.6507,1.07369l0.16689,-0.02299l0.02299,0.16689l-0.16689,0.02299zM1.05073,1.07367l0.16691,-0.02294l0.02294,0.16691l-0.16691,0.02294zM1.45077,1.07362l0.16695,-0.02285l0.02285,0.16695l-0.16695,0.02285zM1.85083,1.07356l0.167,-0.02273l0.02273,0.167l-0.167,0.02273zM2.2509,1.07348l0.16707,-0.02257l0.02257,0.16707l-0.16707,0.02257zM2.651,1.07338l0.099,-0.01326v0.17015l-0.07662,0.01026z" fill="#000000" fill-rule="evenodd" stroke="#000000" stroke-width="0.005"></path></g></svg>