<svg version="1.1" xmlns="http://www.w3.org/2000/svg" xmlns:xlink="http://www.w3.org/1999/xlink" width="3in" height="3in" viewBox="0 0 3.05 3.05"><g fill="none" fill-rule="none" stroke="none" stroke-width="none" stroke-linecap="butt" stroke-linejoin="miter" stroke-miterlimit="10" stroke-dasharray="" stroke-dashoffset="0" font-family="none" font-weight="none" font-size="none" text-anchor="none" style="mix-blend-mode: normal"><path d="M0.25,2.75l0,-2.5l2.5,0v2.5z" fill="none" fill-rule="nonzero" stroke="none" stroke-width="1"></path><path d="M0,3v-3h3v3zM0.25,2.75v-0.0163l0.29763,-0.02126l0.0417,0.00758l0.00831,0.01247l0.01084,0.01751zM0.25,0.25l0.4855,0l0.32225,0.1374h0.01695l-0.14363,0.20277l-0.00273,-0.00204l-0.00798,0.01117l-0.00179,-0.0009l-0.00967,-0.00322l-0.03075,-0.01708l-0.00275,0.00481l-0.62541,-0.2618zM2.75,0.60578l-0.01647,-0.00706l-0.81791,-0.34872l0.63604,0l0.19833,0.08302zM2.75,2.75h-0.79277l-0.46732,-0.19412l0.07993,-0.12433l0.1004,-0.14056l0.00676,-0.00902l0.1646,0.06584l-0.00151,0.0034l0.06439,0.02415l0.03651,0.01623l0.00068,-0.00228l0.05905,0.02214l0.56224,0.24096l0.03012,0.02008l0.10927,0.04967l-0.00001,0.00003l0.00045,0.00017l0.00073,0.00033l0.00002,-0.00004l0.04645,0.01786zM1.73821,2.2001l0.07221,-0.09846l0.00016,0.00012l0.0065,-0.00921l0.02358,-0.03216l-0.00057,-0.00044l0.08531,-0.12086l0.02481,0.01128l0.79979,0.341l0,0.34334l-0.00662,-0.00255l-0.11012,-0.06007l-0.03012,-0.01004l-0.56224,-0.24096l-0.07078,-0.02654l0.00101,-0.00336l-0.08974,-0.02991l-0.0011,-0.00041l-0.14008,-0.06003zM1.99037,1.86001l-0.00843,-0.00383l0.16997,-0.2326l0.00987,0.00658l0.0021,-0.00367l0.00867,0.00394l0.00257,-0.00643l0.01653,0.00601l0.55836,0.23373l0,0.31425zM2.22176,1.53965l-0.00418,-0.00167l0.01496,-0.02094l0.13983,-0.18644l0.00349,-0.00349l0.02744,0.01372l0.34671,0.14513l0,0.27481zM2.44345,1.25047l-0.00522,-0.00224l0.15096,-0.21311l0.03481,0.01492l0.126,0.05315l0,0.2756zM2.66416,0.95968l-0.01682,-0.00721l0.00344,-0.00413l0.00196,0.00147l0.02185,-0.03005l0.0088,-0.01056l-0.0007,-0.00057l0.06731,-0.09255l0,0.17981zM2.70341,0.69912l0.00574,0.00246l-0.11487,0.15795l-0.0414,0.04968l-0.00152,0.00212l-0.02775,-0.01189l-1.28513,-0.5522l-0.01043,-0.00298l0.00755,-0.00922l0.0034,0.00255l0.02412,-0.03618l0.03615,-0.04419l-0.00446,-0.00335l0.00257,-0.00386l0.35264,0zM1.13079,0.30471l-0.01279,-0.00768l-0.02008,-0.01004l-0.08838,-0.03699l0.16601,0zM0.82132,0.66743l-0.05361,0.06127l-0.01116,0.08373l-0.02901,0.03674l0.00741,0.00556l-0.02267,0.03684l-0.00417,-0.00313l-0.00553,0.00774l-0.03395,-0.01697l-0.41864,-0.17556v-0.27537zM0.62848,0.97959l0.01578,0l-0.1537,0.23508l-0.03324,-0.01511h-0.02008l-0.18724,-0.07971l0,-0.30026zM0.40712,1.28992l0.01004,0.01004l0.0047,0.00171l-0.07036,0.10051l-0.0043,-0.00322l-0.0972,0.1458l0,-0.32172zM0.28692,1.70001l0.12048,0.0502l0.0502,0.02008l0.00153,-0.00304l0.17862,0.07307l0.57228,0.24096l0.1004,0.0502l0.12048,0.0502l0.00099,-0.00222l0.1479,0.06163l0.00216,0.00079l-0.18978,0.26569l-0.042,-0.01575l-0.92369,-0.38152l-0.06024,-0.02008l-0.03211,-0.00584l-0.00588,-0.00147l-0.00098,-0.00164l-0.01057,-0.02114l-0.00159,0.00088l-0.0063,-0.01049l-0.05883,-0.10296v-0.26231zM0.26802,2.177l0.00853,0.01365l0.11434,0.20009l-0.14089,0l0,-0.21735zM0.45083,2.49114l0.07313,0.12188l-0.27396,0.01977l0,-0.14165zM0.73808,2.65219l-0.04016,-0.02008h-0.01004l-0.03012,-0.01004l-0.01053,-0.00132l-0.00923,-0.01846l-0.10855,-0.18091l0,-0.03064h-0.01838l-0.02367,-0.03945l-0.08566,-0.13838l0.91834,0.37931l0.01123,0.00481l-0.10835,0.15296l-0.24646,0zM1.43379,2.63972l0.00676,0.0027l0.25898,0.10758h-0.34845zM0.37441,1.53886l0.18251,-0.179l1.27052,0.54399l-0.20748,0.24689l-1.28776,-0.54856zM1.89416,1.81618l-1.31318,-0.55672l0.18596,-0.23143l1.29853,0.55373zM0.79779,0.93457l0.18985,-0.19614l1.29429,0.54609l-0.17967,0.20535l-1.29517,-0.5522zM1.164,0.43496l1.33085,0.55972l-0.18191,0.19554l-1.29652,-0.54691z" fill="#000000" fill-rule="evenodd" stroke="#000000" stroke-width="0.005"></path></g></svg>