<svg version="1.1" xmlns="http://www.w3.org/2000/svg" xmlns:xlink="http://www.w3.org/1999/xlink" width="3in" height="1.5in" viewBox="0 0 3.05 1.55"><g fill="none" fill-rule="none" stroke="none" stroke-width="none" stroke-linecap="butt" stroke-linejoin="miter" stroke-miterlimit="10" stroke-dasharray="" stroke-dashoffset="0" font-family="none" font-weight="none" font-size="none" text-anchor="none" style="mix-blend-mode: normal"><path d="M0.25,1.25l0,-1l2.5,0v1z" fill="none" fill-rule="nonzero" stroke="none" stroke-width="1"></path><path d="M0,1.5v-1.5h3v1.5zM0.4201,0.3l0.1299,-0.05l0.1299,0.05v0.1l-0.1299,0.05l-0.1299,-0.05zM0.7201,0.3l0.1299,-0.05l0.1299,0.05v0.1l-0.1299,0.05l-0.1299,-0.05zM1.0201,0.3l0.1299,-0.05l0.1299,0.05v0.1l-0.1299,0.05l-0.1299,-0.05zM1.3201,0.3l0.1299,-0.05l0.1299,0.05v0.1l-0.1299,0.05l-0.1299,-0.05zM1.6201,0.3l0.1299,-0.05l0.1299,0.05v0.1l-0.1299,0.05l-0.1299,-0.05zM1.9201,0.3l0.1299,-0.05l0.1299,0.05v0.1l-0.1299,0.05l-0.1299,-0.05zM2.2201,0.3l0.1299,-0.05l0.1299,0.05v0.1l-0.1299,0.05l-0.1299,-0.05zM0.2701,0.5l0.1299,-0.05l0.1299,0.05v0.1l-0.1299,0.05l-0.1299,-0.05zM0.5701,0.5l0.1299,-0.05l0.1299,0.05l0,0.1l-0.1299,0.05l-0.1299,-0.05zM0.8701,0.5l0.1299,-0.05l0.1299,0.05v0.1l-0.1299,0.05l-0.1299,-0.05zM1.1701,0.5l0.1299,-0.05l0.1299,0.05v0.1l-0.1299,0.05l-0.1299,-0.05zM1.4701,0.5l0.1299,-0.05l0.1299,0.05v0.1l-0.1299,0.05l-0.1299,-0.05zM1.7701,0.5l0.1299,-0.05l0.1299,0.05v0.1l-0.1299,0.05l-0.1299,-0.05zM2.0701,0.5l0.1299,-0.05l0.1299,0.05v0.1l-0.1299,0.05l-0.1299,-0.05zM2.3701,0.5l0.1299,-0.05l0.1299,0.05v0.1l-0.1299,0.05l-0.1299,-0.05zM0.4201,0.7l0.1299,-0.05l0.1299,0.05v0.1l-0.1299,0.05l-0.1299,-0.05zM0.7201,0.7l0.1299,-0.05l0.1299,0.05v0.1l-0.1299,0.05l-0.1299,-0.05zM1.0201,0.7l0.1299,-0.05l0.1299,0.05v0.1l-0.1299,0.05l-0.1299,-0.05zM1.3201,0.7l0.1299,-0.05l0.1299,0.05v0.1l-0.1299,0.05l-0.1299,-0.05zM1.6201,0.7l0.1299,-0.05l0.1299,0.05v0.1l-0.1299,0.05l-0.1299,-0.05zM1.9201,0.7l0.1299,-0.05l0.1299,0.05v0.1l-0.1299,0.05l-0.1299,-0.05zM2.2201,0.7l0.1299,-0.05l0.1299,0.05v0.1l-0.1299,0.05l-0.1299,-0.05zM0.2701,0.9l0.1299,-0.05l0.1299,0.05v0.1l-0.1299,0.05l-0.1299,-0.05zM0.5701,0.9l0.1299,-0.05l0.1299,0.05l0,0.1l-0.1299,0.05l-0.1299,-0.05zM0.8701,0.9l0.1299,-0.05l0.1299,0.05v0.1l-0.1299,0.05l-0.1299,-0.05zM1.1701,0.9l0.1299,-0.05l0.1299,0.05v0.1l-0.1299,0.05l-0.1299,-0.05zM1.4701,0.9l0.1299,-0.05l0.1299,0.05v0.1l-0.1299,0.05l-0.1299,-0.05zM1.7701,0.9l0.1299,-0.05l0.1299,0.05v0.1l-0.1299,0.05l-0.1299,-0.05zM2.0701,0.9l0.1299,-0.05l0.1299,0.05v0.1l-0.1299,0.05l-0.1299,-0.05zM2.3701,0.9l0.1299,-0.05l0.1299,0.05v0.1l-0.1299,0.05l-0.1299,-0.05zM0.4201,1.1l0.1299,-0.05l0.1299,0.05v0.1l-0.1299,0.05l-0.1299,-0.05zM0.7201,1.1l0.1299,-0.05l0.1299,0.05v0.1l-0.1299,0.05l-0.1299,-0.05zM1.0201,1.1l0.1299,-0.05l0.1299,0.05v0.1l-0.1299,0.05l-0.1299,-0.05zM1.3201,1.1l0.1299,-0.05l0.1299,0.05v0.1l-0.1299,0.05l-0.1299,-0.05zM1.6201,1.1l0.1299,-0.05l0.1299,0.05v0.1l-0.1299,0.05l-0.1299,-0.05zM1.9201,1.1l0.1299,-0.05l0.1299,0.05v0.1l-0.1299,0.05l-0.1299,-0.05zM2.2201,1.1l0.1299,-0.05l0.1299,0.05v0.1l-0.1299,0.05l-0.1299,-0.05z" fill="#000000" fill-rule="evenodd" stroke="#000000" stroke-width="0.005"></path></g></svg>