<!--

Built on 2024-03-28T23:31:49.468Z



## Param string


## Generated From
n/a

-->

<svg version="1.1" xmlns="http://www.w3.org/2000/svg" xmlns:xlink="http://www.w3.org/1999/xlink" width="3in" height="1.5in" viewBox="0 0 3.05 1.55"><g fill="none" fill-rule="none" stroke="none" stroke-width="none" stroke-linecap="butt" stroke-linejoin="miter" stroke-miterlimit="10" stroke-dasharray="" stroke-dashoffset="0" font-family="none" font-weight="none" font-size="none" text-anchor="none" style="mix-blend-mode: normal"><path d="M0.2,1.3l0,-1.1l2.6,0l0,1.1z" fill="none" fill-rule="nonzero" stroke="none" stroke-width="1"></path><path d="M0,1.5v-1.5h3v1.5zM2.49423,0.58923c0,0.04865 -0.04865,0.09731 -0.09731,0.09731h-0.44846c-0.01798,0 -0.03596,-0.01798 -0.03596,-0.03596v-0.10788c0,-0.01798 0.01798,-0.03596 0.03596,-0.03596h0.26231c0.03067,0 0.06135,-0.03067 0.06135,-0.06135v-0.20096c0,-0.02221 0.02221,-0.04442 0.04442,-0.04442l0.13327,0c0.02221,0 0.04442,0.02221 0.04442,0.04442zM0.73846,0.44538c0,0.03067 0.03067,0.06135 0.06135,0.06135h0.25173c0.01798,0 0.03596,0.01798 0.03596,0.03596v0.10788c0,0.01798 -0.01798,0.03596 -0.03596,0.03596h-0.44846c-0.04865,0 -0.09731,-0.04865 -0.09731,-0.09731v-0.34269c0,-0.02327 0.02327,-0.04654 0.04654,-0.04654l0.13962,0c0.02327,0 0.04654,0.02327 0.04654,0.04654zM2.14519,0.34385c0,0.01798 -0.01798,0.03596 -0.03596,0.03596h-0.26231c-0.03067,0 -0.06135,0.03067 -0.06135,0.06135v0.18404c0,0.03067 -0.03067,0.06135 -0.06135,0.06135h-0.44846c-0.03067,0 -0.06135,-0.03067 -0.06135,-0.06135v-0.18404c0,-0.03067 -0.03067,-0.06135 -0.06135,-0.06135h-0.25173c-0.01798,0 -0.03596,-0.01798 -0.03596,-0.03596v-0.10788c0,-0.01798 0.01798,-0.03596 0.03596,-0.03596l1.20788,0c0.01798,0 0.03596,0.01798 0.03596,0.03596zM1.78558,1.05885c0,0.03067 0.03067,0.06135 0.06135,0.06135h0.26231c0.01798,0 0.03596,0.01798 0.03596,0.03596v0.10788c0,0.01798 -0.01798,0.03596 -0.03596,0.03596h-1.20788c-0.01798,0 -0.03596,-0.01798 -0.03596,-0.03596v-0.10788c0,-0.01798 0.01798,-0.03596 0.03596,-0.03596h0.25173c0.03067,0 0.06135,-0.03067 0.06135,-0.06135v-0.18404c0,-0.03067 0.03067,-0.06135 0.06135,-0.06135h0.44846c0.03067,0 0.06135,0.03067 0.06135,0.06135zM2.49423,1.25558c0,0.02221 -0.02221,0.04442 -0.04442,0.04442h-0.13327c-0.02221,0 -0.04442,-0.02221 -0.04442,-0.04442v-0.20096c0,-0.03067 -0.03067,-0.06135 -0.06135,-0.06135h-0.26231c-0.01798,0 -0.03596,-0.01798 -0.03596,-0.03596v-0.10788c0,-0.01798 0.01798,-0.03596 0.03596,-0.03596h0.44846c0.04865,0 0.09731,0.04865 0.09731,0.09731zM1.0875,0.95731c0,0.01798 -0.01798,0.03596 -0.03596,0.03596h-0.25173c-0.03067,0 -0.06135,0.03067 -0.06135,0.06135v0.19885c0,0.02327 -0.02327,0.04654 -0.04654,0.04654h-0.13962c-0.02327,0 -0.04654,-0.02327 -0.04654,-0.04654v-0.34269c0,-0.04865 0.04865,-0.09731 0.09731,-0.09731h0.44846c0.01798,0 0.03596,0.01798 0.03596,0.03596z" fill="#d3d3d3" fill-rule="evenodd" stroke="#ff0000" stroke-width="0.005"></path></g></svg>