<svg version="1.1" xmlns="http://www.w3.org/2000/svg" xmlns:xlink="http://www.w3.org/1999/xlink" width="3in" height="3in" viewBox="0 0 3.05 3.05"><g fill="#d3d3d3" fill-rule="evenodd" stroke="#ff0000" stroke-width="0.005" stroke-linecap="butt" stroke-linejoin="miter" stroke-miterlimit="10" stroke-dasharray="" stroke-dashoffset="0" font-family="none" font-weight="none" font-size="none" text-anchor="none" style="mix-blend-mode: normal"><path d="M0,3v-3h3v3zM2.25627,2.53c-0.09124,0 -0.18249,-0.09124 -0.18249,-0.18249v-0.5604c0,-0.09124 0.09124,-0.18249 0.18249,-0.18249h0.09124c0.09124,0 0.18249,0.09124 0.18249,0.18249v0.5604c0,0.09124 -0.09124,0.18249 -0.18249,0.18249zM2.25627,1.45462c-0.09124,0 -0.18249,-0.09124 -0.18249,-0.18249v-0.60965c0,-0.09124 0.09124,-0.18249 0.18249,-0.18249h0.09124c0.09124,0 0.18249,0.09124 0.18249,0.18249v0.60965c0,0.09124 -0.09124,0.18249 -0.18249,0.18249zM1.59543,2.53c-0.10945,0 -0.2189,-0.10945 -0.2189,-0.2189v-0.22073c0,-0.10945 0.10945,-0.2189 0.2189,-0.2189h0.10945c0.10945,0 0.2189,0.10945 0.2189,0.2189v0.22073c0,0.10945 -0.10945,0.2189 -0.2189,0.2189zM1.59543,1.72146c-0.10945,0 -0.2189,-0.10945 -0.2189,-0.2189v-0.80365c0,-0.10945 0.10945,-0.2189 0.2189,-0.2189h0.10945c0.10945,0 0.2189,0.10945 0.2189,0.2189v0.80365c0,0.10945 -0.10945,0.2189 -0.2189,0.2189zM0.77861,2.53c-0.1493,0 -0.29861,-0.1493 -0.29861,-0.29861v-0.89413c0,-0.1493 0.1493,-0.29861 0.29861,-0.29861h0.1493c0.1493,0 0.29861,0.1493 0.29861,0.29861v0.89413c0,0.1493 -0.1493,0.29861 -0.29861,0.29861zM0.64346,0.88865c-0.08173,0 -0.16346,-0.08173 -0.16346,-0.16346v-0.08173c0,-0.08173 0.08173,-0.16346 0.16346,-0.16346h0.4196c0.08173,0 0.16346,0.08173 0.16346,0.16346v0.08173c0,0.08173 -0.08173,0.16346 -0.16346,0.16346z"></path></g></svg>