<svg version="1.1" xmlns="http://www.w3.org/2000/svg" xmlns:xlink="http://www.w3.org/1999/xlink" width="3in" height="1.5in" viewBox="0 0 3.05 1.55"><g fill="#000000" fill-rule="evenodd" stroke="#000000" stroke-width="0.005" stroke-linecap="butt" stroke-linejoin="miter" stroke-miterlimit="10" stroke-dasharray="" stroke-dashoffset="0" font-family="none" font-weight="none" font-size="none" text-anchor="none" style="mix-blend-mode: normal"><path d="M0,1.5v-1.5h3v1.5zM2.64414,0.38587c0.003,0.002 0.00601,0.00761 0.00601,0.01122v0.07286c0,0.01001 -0.00812,0.02587 -0.01625,0.03172l-0.22588,0.16263c-0.00406,0.00292 -0.01313,0.00585 -0.01813,0.00585h-0.03003c-0.00501,0 -0.00935,-0.00496 -0.00869,-0.00992l0.03263,-0.24474c0.00304,-0.02282 0.02911,-0.04564 0.05213,-0.04564h0.17697c0.00361,0 0.01022,0.002 0.01322,0.004zM1.85215,0.77597c0.004,0.00701 0.00044,0.01682 -0.00713,0.01962l-0.24186,0.08958c-0.00664,0.00246 -0.01828,-0.00009 -0.02329,-0.00509l-0.03003,-0.03003c-0.005,-0.00501 -0.0065,-0.01616 -0.00299,-0.0223l0.02501,-0.04376c0.004,-0.00701 0.01591,-0.01566 0.02381,-0.01731l0.20864,-0.04347c0.0079,-0.00165 0.01981,0.00372 0.02381,0.01072zM2.153,0.67832c-0.00146,0.01091 -0.01392,0.02183 -0.02493,0.02183h-0.06607c-0.01101,0 -0.02769,-0.00944 -0.03335,-0.01888l-0.06943,-0.11572c-0.00466,-0.00777 -0.01033,-0.02455 -0.01133,-0.03356l-0.00628,-0.05653c-0.00086,-0.00777 0.00328,-0.02155 0.00828,-0.02755l0.03003,-0.03604c0.005,-0.00601 0.01783,-0.01201 0.02565,-0.01201h0.14452c0.02002,0 0.03739,0.01984 0.03475,0.03969zM1.8381,1.12204c0.001,0.01401 -0.01205,0.02803 -0.0261,0.02803h-0.15753c-0.00729,0 -0.01257,-0.00701 -0.01057,-0.01401l0.01201,-0.04204c0.002,-0.00701 0.01074,-0.01679 0.01748,-0.01956l0.13071,-0.05382c0.01299,-0.00535 0.02698,0.00332 0.02798,0.01733zM2.65005,0.79786c0,0.00609 -0.00601,0.01318 -0.01201,0.01418l-0.03967,0.00661c-0.00419,0.0007 -0.01138,-0.00161 -0.01438,-0.00461l-0.01802,-0.01802c-0.003,-0.003 -0.00247,-0.00836 0.00106,-0.01072l0.0697,-0.04646c0.00666,-0.00444 0.01333,-0.00088 0.01333,0.00713zM2.18198,1.12121c0.00405,0.01446 -0.00692,0.02892 -0.02193,0.02892h-0.09009c-0.01501,0 -0.03063,-0.015 -0.03123,-0.03001l-0.00809,-0.20224c-0.00036,-0.009 0.00829,-0.018 0.0173,-0.018h0.05405c0.00901,0 0.02045,0.00868 0.02288,0.01735zM2.44403,0.95795c0.00801,0.01101 0.01913,0.03528 0.02225,0.04853l0.02922,0.12418c0.00229,0.00974 -0.00542,0.01949 -0.01543,0.01949h-0.06006c-0.01001,0 -0.02277,-0.00962 -0.02552,-0.01925l-0.07128,-0.24948c-0.00165,-0.00577 0.00271,-0.01155 0.00871,-0.01155h0.03604c0.00601,0 0.01554,0.00486 0.01908,0.00971zM1.73644,0.4984c0.00183,0.0008 0.00367,0.00361 0.00367,0.00561v0.01201c0,0.002 -0.00192,0.00457 -0.00384,0.00513l-0.14564,0.04284c-0.01034,0.00304 -0.02469,-0.00393 -0.02869,-0.01394l-0.02727,-0.06818c-0.00238,-0.00595 0.00024,-0.01591 0.00525,-0.01991l0.03003,-0.02402c0.005,-0.004 0.01588,-0.00544 0.02175,-0.00287zM0.37387,0.37385c0.003,-0.002 0.00962,-0.004 0.01322,-0.004h0.17697c0.02302,0 0.04909,0.02282 0.05213,0.04564l0.03263,0.24474c0.00066,0.00496 -0.00368,0.00992 -0.00869,0.00992h-0.03003c-0.00501,0 -0.01407,-0.00292 -0.01813,-0.00585l-0.22588,-0.16263c-0.00812,-0.00585 -0.01625,-0.02171 -0.01625,-0.03172v-0.07286c0,-0.00361 0.003,-0.00922 0.00601,-0.01122zM1.17187,0.73393c0.004,-0.00701 0.01591,-0.01237 0.02381,-0.01072l0.20864,0.04347c0.0079,0.00165 0.01981,0.0103 0.02381,0.01731l0.02501,0.04376c0.00351,0.00615 0.00202,0.0173 -0.00299,0.0223l-0.03003,0.03003c-0.005,0.00501 -0.01665,0.00755 -0.02329,0.00509l-0.24186,-0.08958c-0.00757,-0.0028 -0.01113,-0.01261 -0.00713,-0.01962zM0.81517,0.43954c-0.00265,-0.01984 0.01473,-0.03969 0.03475,-0.03969h0.14452c0.00782,0 0.02064,0.00601 0.02565,0.01201l0.03003,0.03604c0.005,0.00601 0.00915,0.01978 0.00828,0.02755l-0.00628,0.05653c-0.001,0.00901 -0.00667,0.02579 -0.01133,0.03356l-0.06943,0.11572c-0.00567,0.00944 -0.02234,0.01888 -0.03335,0.01888h-0.06607c-0.01101,0 -0.02348,-0.01091 -0.02493,-0.02183zM1.16791,1.03796c0.001,-0.01401 0.01499,-0.02268 0.02798,-0.01733l0.13071,0.05382c0.00674,0.00277 0.01548,0.01256 0.01748,0.01956l0.01201,0.04204c0.002,0.00701 -0.00328,0.01401 -0.01057,0.01401h-0.15753c-0.01405,0 -0.0271,-0.01401 -0.0261,-0.02803zM0.34996,0.74597c0,-0.00801 0.00666,-0.01157 0.01333,-0.00713l0.0697,0.04646c0.00353,0.00236 0.00406,0.00771 0.00106,0.01072l-0.01802,0.01802c-0.003,0.003 -0.0102,0.00531 -0.01438,0.00461l-0.03967,-0.00661c-0.00601,-0.001 -0.01201,-0.00809 -0.01201,-0.01418zM0.87513,0.91723c0.00243,-0.00868 0.01387,-0.01735 0.02288,-0.01735h0.05405c0.00901,0 0.01766,0.009 0.0173,0.018l-0.00809,0.20224c-0.0006,0.015 -0.01622,0.03001 -0.03123,0.03001h-0.09009c-0.01501,0 -0.02598,-0.01446 -0.02193,-0.02892zM0.61296,0.87957c0.00353,-0.00486 0.01307,-0.00971 0.01908,-0.00971h0.03604c0.00601,0 0.01036,0.00577 0.00871,0.01155l-0.07128,0.24948c-0.00275,0.00962 -0.01551,0.01925 -0.02552,0.01925h-0.06006c-0.01001,0 -0.01773,-0.00974 -0.01543,-0.01949l0.02922,-0.12418c0.00312,-0.01325 0.01424,-0.03752 0.02225,-0.04853zM1.40831,0.43507c0.00587,-0.00257 0.01675,-0.00113 0.02175,0.00287l0.03003,0.02402c0.005,0.004 0.00763,0.01396 0.00525,0.01991l-0.02727,0.06818c-0.004,0.01001 -0.01835,0.01698 -0.02869,0.01394l-0.14564,-0.04284c-0.00192,-0.00056 -0.00384,-0.00313 -0.00384,-0.00513v-0.01201c0,-0.002 0.00183,-0.00481 0.00367,-0.00561z"></path></g></svg>