<svg version="1.1" xmlns="http://www.w3.org/2000/svg" xmlns:xlink="http://www.w3.org/1999/xlink" width="3in" height="3in" viewBox="0 0 3.05 3.05"><g fill="#d3d3d3" fill-rule="evenodd" stroke="#ff0000" stroke-width="0.005" stroke-linecap="butt" stroke-linejoin="miter" stroke-miterlimit="10" stroke-dasharray="" stroke-dashoffset="0" font-family="none" font-weight="none" font-size="none" text-anchor="none" style="mix-blend-mode: normal"><path d="M0,3v-3h3v3zM0.8287,0.5825l0.2663,-0.1025l0.2663,0.1025v0.205l-0.2663,0.1025l-0.2663,-0.1025zM1.4437,0.5825l0.2663,-0.1025l0.2663,0.1025v0.205l-0.2663,0.1025l-0.2663,-0.1025zM0.5212,0.9925l0.2663,-0.1025l0.2663,0.1025v0.205l-0.2663,0.1025l-0.2663,-0.1025zM1.1362,0.9925l0.2663,-0.1025l0.2663,0.1025v0.205l-0.2663,0.1025l-0.2663,-0.1025zM1.7512,0.9925l0.2663,-0.1025l0.2663,0.1025l0,0.205l-0.2663,0.1025l-0.2663,-0.1025zM0.8287,1.4025l0.2663,-0.1025l0.2663,0.1025v0.205l-0.2663,0.1025l-0.2663,-0.1025zM1.4437,1.4025l0.2663,-0.1025l0.2663,0.1025v0.205l-0.2663,0.1025l-0.2663,-0.1025zM0.5212,1.8125l0.2663,-0.1025l0.2663,0.1025v0.205l-0.2663,0.1025l-0.2663,-0.1025zM1.1362,1.8125l0.2663,-0.1025l0.2663,0.1025v0.205l-0.2663,0.1025l-0.2663,-0.1025zM1.7512,1.8125l0.2663,-0.1025l0.2663,0.1025l0,0.205l-0.2663,0.1025l-0.2663,-0.1025zM0.8287,2.2225l0.2663,-0.1025l0.2663,0.1025v0.205l-0.2663,0.1025l-0.2663,-0.1025zM1.4437,2.2225l0.2663,-0.1025l0.2663,0.1025v0.205l-0.2663,0.1025l-0.2663,-0.1025z"></path></g></svg>