<svg version="1.1" xmlns="http://www.w3.org/2000/svg" xmlns:xlink="http://www.w3.org/1999/xlink" width="3in" height="3in" viewBox="0 0 3.05 3.05"><g fill="#d3d3d3" fill-rule="evenodd" stroke="#ff0000" stroke-width="0.005" stroke-linecap="butt" stroke-linejoin="miter" stroke-miterlimit="10" stroke-dasharray="" stroke-dashoffset="0" font-family="none" font-weight="none" font-size="none" text-anchor="none" style="mix-blend-mode: normal"><path d="M0,3v-3h3v3zM0.82717,0.49383c-0.04227,0.06034 -0.03057,0.07043 0.07769,0.06691c0.07836,-0.00254 0.10589,0.00216 0.12759,0.0218c0.01521,0.01376 0.04899,0.03569 0.07507,0.04871c0.02694,0.01346 0.05623,0.04371 0.06784,0.0701c0.01124,0.02554 0.02969,0.04643 0.04097,0.04643c0.02751,0 0.13146,-0.10516 0.13146,-0.133c0,-0.01214 -0.01766,-0.03596 -0.03924,-0.05294c-0.03504,-0.02756 -0.0534,-0.03034 -0.17144,-0.02603l-0.1322,0.00483l0.00002,-0.06064h0.24624c0.00073,0.0011 0.00132,0.00227 0.00179,0.0035c0.01054,0.0275 0.04344,0.0275 0.06626,0c0.00102,-0.00123 0.00219,-0.0024 0.00352,-0.0035l0.36618,0c-0.00378,0.00795 -0.01334,0.01984 -0.02446,0.02991c-0.02003,0.01813 -0.0415,0.0216 -0.09139,0.01476c-0.05976,-0.00819 -0.06731,-0.00571 -0.09054,0.02974c-0.0332,0.05066 -0.01183,0.06541 0.09056,0.06251c0.06089,-0.00173 0.08203,0.0042 0.11056,0.031c0.03483,0.03271 0.03564,0.03279 0.06546,0.00581c0.0257,-0.02326 0.0293,-0.03953 0.02423,-0.1095l-0.00465,-0.06424l0.73624,0l-0.00003,0.14636l-0.06231,-0.00054c-0.03427,-0.0003 -0.09051,-0.01414 -0.12499,-0.03077c-0.03447,-0.01663 -0.0916,-0.03757 -0.12696,-0.04654c-0.03536,-0.00897 -0.08466,-0.02166 -0.10957,-0.02819c-0.07611,-0.01994 -0.1195,-0.00347 -0.1434,0.05443c-0.01171,0.02839 -0.03109,0.06263 -0.04304,0.07609c-0.02973,0.03346 -0.01457,0.06379 0.03759,0.07524c0.06379,0.01401 0.10133,-0.00346 0.124,-0.05771c0.01106,-0.02646 0.03371,-0.0554 0.05036,-0.06431c0.02659,-0.01423 0.03834,-0.00821 0.09694,0.04949c0.04997,0.04923 0.07764,0.06569 0.1104,0.06569c0.05959,0 0.0965,0.04249 0.08449,0.0972c-0.01461,0.06653 0.00393,0.11709 0.04294,0.11709c0.01833,0 0.0373,-0.00643 0.04216,-0.01429c0.02779,-0.04496 0.03551,0.00547 0.03343,0.21786c-0.00126,0.12769 -0.00479,0.21257 -0.00783,0.18866c-0.00509,-0.03989 -0.00941,-0.04303 -0.05254,-0.03799c-0.05891,0.00687 -0.09449,-0.0258 -0.09449,-0.0868c0,-0.0324 -0.01464,-0.05981 -0.0529,-0.09899c-0.04704,-0.04817 -0.06067,-0.05417 -0.12307,-0.05417h-0.07017l0.00979,-0.07843c0.01137,-0.091 0.00103,-0.13586 -0.03134,-0.13586c-0.02909,0 -0.07516,0.04111 -0.07516,0.06707c0,0.02703 0.05501,0.13293 0.06906,0.13293c0.00624,0 0.01093,0.04661 0.01043,0.10357c-0.00101,0.11416 -0.00604,0.10977 0.10139,0.0883c0.05689,-0.01137 0.06913,0.01159 0.06913,0.12956v0.08571l-0.06093,0.0044c-0.04591,0.00331 -0.06654,0.01299 -0.08371,0.03919c-0.03597,0.0549 -0.01694,0.07784 0.06459,0.07784c0.05787,0 0.0758,-0.00631 0.09796,-0.03447c0.02417,-0.03073 0.03731,-0.03421 0.12113,-0.03214l0.09401,0.00233l0.00833,0.05c0.00457,0.0275 0.00726,0.15607 0.00597,0.28571c-0.00129,0.12964 -0.0048,0.2084 -0.0078,0.175c-0.00544,-0.06039 -0.01827,-0.07071 -0.06537,-0.05264c-0.01276,0.00489 -0.0181,0.01921 -0.0136,0.03641c0.00409,0.0156 -0.00426,0.05424 -0.01853,0.08587c-0.02221,0.04929 -0.02299,0.05939 -0.00541,0.07051c0.03007,0.01903 0.09557,0.01623 0.10391,-0.00444c0.00396,-0.00981 0.00771,0.0641 0.00833,0.16429c0.0013,0.21063 -0.00844,0.22296 -0.09887,0.125c-0.08107,-0.08781 -0.15106,-0.07076 -0.11649,0.02839l0.015,0.04304h-0.07783c-0.07117,0 -0.07783,-0.00274 -0.07789,-0.03214c-0.0001,-0.06149 -0.05213,-0.21779 -0.0739,-0.22203c-0.02883,-0.00563 -0.14033,0.1044 -0.14033,0.13847c0,0.01721 0.01533,0.03253 0.04176,0.04174c0.02296,0.008 0.0489,0.02793 0.05764,0.04426c0.0151,0.02823 0.01236,0.0297 -0.05507,0.0297c-0.05843,0 -0.07257,-0.00506 -0.08004,-0.02857c-0.00499,-0.01571 -0.0142,-0.02857 -0.02047,-0.02857c-0.00626,0 -0.02773,0.01286 -0.04771,0.02857c-0.02571,0.02023 -0.05796,0.02857 -0.11039,0.02857c-0.05243,0 -0.08467,-0.00834 -0.11039,-0.02857c-0.02591,-0.02039 -0.05796,-0.02857 -0.1118,-0.02857c-0.09127,0 -0.12141,0.01001 -0.1111,0.0369c0.00633,0.0165 -0.01496,0.02024 -0.11519,0.02024c-0.1533,0 -0.16354,-0.02584 -0.01251,-0.03154c0.10889,-0.00411 0.1105,-0.00473 0.11341,-0.04311c0.00406,-0.05363 0.0743,-0.13801 0.12614,-0.15156c0.04081,-0.01066 0.04307,-0.01523 0.04724,-0.09571c0.0024,-0.0465 0.01204,-0.0894 0.02143,-0.09537c0.03304,-0.021 0.0943,-0.01184 0.1094,0.01636c0.02216,0.0414 0.01781,0.14019 -0.00787,0.17939c-0.03224,0.04921 -0.01513,0.06441 0.07249,0.06441h0.07671l0.0165,-0.07946l0.0165,-0.07947l-0.14421,-0.1442l-0.1442,-0.14421l-0.08036,0.01799l-0.08037,0.01799l0.0079,0.1153l0.00791,0.11529l-0.08673,0.09031l-0.08671,0.0903l-0.12281,-0.00911c-0.08381,-0.00621 -0.13463,-0.01737 -0.16003,-0.03513c-0.02047,-0.01431 -0.06547,-0.03034 -0.1,-0.03564c-0.03453,-0.0053 -0.08014,-0.01839 -0.10136,-0.02907c-0.0402,-0.02026 -0.12133,-0.02571 -0.16026,-0.01077c-0.01243,0.00477 -0.0226,0.0211 -0.0226,0.03629c0,0.01519 -0.02571,0.05281 -0.05714,0.08361c-0.03279,0.03214 -0.04877,0.04875 -0.0535,0.0653v-0.261l0.02411,0.00483c0.03383,0.00676 0.04929,0.00057 0.07924,-0.03176c0.04174,-0.04504 0.04359,-0.10089 0.00414,-0.12559c-0.01991,-0.01247 -0.03429,-0.00599 -0.07603,0.03427l-0.03147,0.03035l0,-0.53019c0.0062,-0.02113 0.01546,-0.03517 0.02976,-0.05676c0.04129,-0.06233 0.03893,-0.07981 -0.01197,-0.08897c-0.00784,-0.00141 -0.01355,-0.0035 -0.01779,-0.01118v-0.4373l0.01207,0.01871c0.01647,0.02554 0.03414,0.04643 0.03926,0.04641c0.00513,0 0.01014,0.0466 0.01114,0.10357c0.00101,0.05697 0.00664,0.14439 0.01253,0.19424c0.0098,0.08296 0.01419,0.09189 0.05174,0.10497c0.0405,0.01411 0.04104,0.0158 0.04104,0.12636v0.11204l-0.0606,0.01199c-0.0814,0.0161 -0.08587,0.04873 -0.01643,0.11986c0.04404,0.04509 0.06437,0.05556 0.108,0.05556c0.06351,0 0.09033,0.03556 0.076,0.10079c-0.01146,0.05214 0.01313,0.12997 0.0522,0.16534c0.02176,0.0197 0.05264,0.027 0.11733,0.02776c0.04829,0.00056 0.10183,0.00859 0.11899,0.01786c0.04357,0.0235 0.08559,0.02097 0.09584,-0.00577c0.01314,-0.03424 0.00997,-0.11041 -0.00559,-0.13454c-0.01196,-0.01854 -0.02177,-0.01691 -0.07279,0.01206c-0.05741,0.03259 -0.06061,0.03286 -0.12073,0.00989c-0.04923,-0.0188 -0.06369,-0.03239 -0.07129,-0.06703c-0.00526,-0.02391 -0.00307,-0.04993 0.00484,-0.05784c0.00791,-0.00791 0.0638,-0.0162 0.12417,-0.01841c0.1096,-0.00401 0.10981,-0.00394 0.12417,0.03723c0.01259,0.03609 0.02144,0.04126 0.07077,0.04126c0.07197,0 0.14057,-0.05873 0.11067,-0.09474c-0.014,-0.01687 -0.04047,-0.02096 -0.11169,-0.01726c-0.11467,0.00597 -0.1274,-0.01679 -0.05416,-0.0967l0.04866,-0.0531l0.08439,0.01557c0.0464,0.00857 0.11047,0.02347 0.14237,0.03313c0.07037,0.0213 0.13486,0.00839 0.13486,-0.02701c0,-0.0139 0.01286,-0.05049 0.02857,-0.08131c0.04281,-0.08399 0.03874,-0.09286 -0.04274,-0.09286c-0.068,0 -0.07249,0.00243 -0.09643,0.05229c-0.04479,0.09324 -0.0646,0.09364 -0.15516,0.00309c-0.0703,-0.0703 -0.0782,-0.08377 -0.06433,-0.10967c0.00869,-0.01624 0.0159,-0.05086 0.01601,-0.0769c0.00037,-0.07994 0.01183,-0.08651 0.14443,-0.08276c0.16149,0.00457 0.15054,0.00776 0.22189,-0.06461c0.03486,-0.03536 0.0685,-0.06429 0.07479,-0.06429c0.00627,0 0.02304,0.01286 0.03726,0.02857c0.03793,0.04191 0.0692,0.03527 0.12509,-0.0266c0.04763,-0.05271 0.0499,-0.06011 0.05114,-0.16701c0.00217,-0.18661 -0.0254,-0.1875 -0.20234,-0.00649c-0.1567,0.1603 -0.1851,0.16919 -0.2752,0.08613c-0.03541,-0.03264 -0.07211,-0.05681 -0.08154,-0.05371c-0.00991,0.00327 -0.01894,0.03974 -0.02143,0.08654c-0.0033,0.06243 -0.01054,0.08426 -0.03176,0.0956c-0.023,0.01231 -0.03829,0.00404 -0.09377,-0.05066c-0.11176,-0.11017 -0.17166,-0.06569 -0.09733,0.07229c0.02234,0.04146 0.03956,0.09783 0.04134,0.13534c0.00169,0.03536 0.00751,0.08679 0.01296,0.11429c0.00931,0.04714 0.00476,0.0552 -0.07979,0.14097l-0.08966,0.09099l-0.08453,-0.00884c-0.04649,-0.00486 -0.10591,-0.00883 -0.13206,-0.00883c-0.03823,0 -0.05181,-0.00829 -0.06941,-0.04231c-0.02047,-0.03957 -0.02006,-0.04329 0.00644,-0.05747c0.04403,-0.02356 0.05841,-0.0617 0.04323,-0.11464c-0.00736,-0.02566 -0.02381,-0.05819 -0.03657,-0.07229c-0.01571,-0.01736 -0.02479,-0.05934 -0.02811,-0.13017c-0.00271,-0.0575 -0.00917,-0.1421 -0.01436,-0.188c-0.00864,-0.07649 -0.01319,-0.08503 -0.05446,-0.10224l-0.04503,-0.01879l0.01429,-0.22409l0.05714,-0.0098c0.03143,-0.00539 0.07444,-0.0141 0.0956,-0.01937c0.03301,-0.0082 0.04881,0.0008 0.11161,0.06359c0.05431,0.05433 0.07089,0.08027 0.06437,0.10079c-0.01136,0.03581 -0.05199,0.04799 -0.12111,0.03631c-0.04536,-0.00767 -0.06103,-0.00381 -0.086,0.02116c-0.0474,0.0474 -0.02926,0.06376 0.07937,0.07161c0.08094,0.00586 0.09964,0.01184 0.1037,0.0332c0.00273,0.01434 -0.00441,0.03684 -0.01589,0.05c-0.04217,0.04843 -0.05489,0.08673 -0.0388,0.1168c0.02339,0.04369 0.06289,0.03434 0.11943,-0.02823l0.05131,-0.05681l-0.0049,-0.13604c-0.00486,-0.13473 -0.00457,-0.13606 0.0287,-0.13606c0.0185,0 0.06226,-0.00766 0.09727,-0.01703l0.06366,-0.01701l0.14134,0.1322l0.0683,-0.02056c0.03757,-0.0113 0.0715,-0.02374 0.07541,-0.02764c0.01054,-0.01054 0.00859,-0.13417 -0.00229,-0.14504c-0.00516,-0.00517 -0.03516,0.00224 -0.06667,0.01644c-0.05451,0.02459 -0.06021,0.02464 -0.118,0.00127c-0.03339,-0.01351 -0.11214,-0.02824 -0.175,-0.03274c-0.08031,-0.00574 -0.12617,-0.0165 -0.15424,-0.03619c-0.02197,-0.01541 -0.06697,-0.03147 -0.1,-0.03569c-0.03303,-0.00421 -0.0774,-0.01643 -0.09861,-0.02713c-0.02123,-0.0107 -0.07297,-0.01946 -0.115,-0.01946c-0.08671,0 -0.11071,-0.0164 -0.11071,-0.07566c0,-0.02274 -0.0133,-0.06003 -0.02954,-0.08286l-0.00967,-0.01358v-0.00998l0.35685,0zM0.49029,2.46829c0.01106,0.02907 0.00959,0.03664 -0.00714,0.03664c-0.0011,0 -0.00215,-0.00012 -0.00314,-0.00039v-0.06748c0.00191,0.00863 0.00549,0.01861 0.01029,0.03122zM1.67857,0.71921c0.02244,0 0.02636,0.01174 0.02636,0.07901c0,0.09309 -0.02959,0.11906 -0.07366,0.06464c-0.03266,-0.04034 -0.03366,-0.08333 -0.0027,-0.11753c0.013,-0.01437 0.0355,-0.02613 0.05,-0.02613zM2.5037,0.80136c-0.00114,0.06314 -0.00211,0.06487 -0.01406,0.025c-0.00706,-0.02357 -0.00929,-0.05411 -0.00496,-0.06786c0.01353,-0.0429 0.02029,-0.02764 0.01901,0.04286zM2.03279,1.27636c0.05121,0 0.07214,0.01661 0.07214,0.05729c0,0.02583 -0.0468,0.057 -0.08557,0.057c-0.08519,0 -0.10417,-0.02464 -0.06361,-0.08253c0.0164,-0.02343 0.0366,-0.03176 0.07704,-0.03176zM0.92954,1.37597c0.06756,0.04119 0.0839,0.14324 0.02294,0.14324c-0.06407,0 -0.15231,-0.14131 -0.10113,-0.16197c0.02803,-0.0113 0.02953,-0.01094 0.07819,0.01873zM1.93337,1.51654c0.07099,0.02546 0.10861,0.04679 0.11176,0.06334c0.0121,0.06374 -0.19243,0.06401 -0.30623,0.00041c-0.07647,-0.04274 -0.08316,-0.05271 -0.05451,-0.08136c0.03319,-0.03319 0.12566,-0.02664 0.24899,0.0176zM1.81261,1.66253c0.01149,0.00953 0.02089,0.02561 0.02089,0.03574c0,0.01011 0.01929,0.03463 0.04286,0.05447c0.05044,0.04244 0.05307,0.06393 0.01391,0.1137c-0.05143,0.06537 -0.0773,0.06217 -0.15913,-0.01966l-0.07423,-0.07423l0.06741,-0.06369c0.05527,-0.05223 0.07116,-0.06057 0.08829,-0.04634zM2.34779,1.76319c0.00517,0.06647 0.01646,0.10416 0.04097,0.13681c0.0186,0.02479 0.02947,0.05211 0.02416,0.06071c-0.00549,0.00887 -0.05197,0.01564 -0.1073,0.01564c-0.1036,0 -0.11497,0.00771 -0.11497,0.07799c0,0.03951 0.0184,0.05557 0.0901,0.07867c0.04343,0.01399 0.0535,0.02373 0.05,0.04829c-0.00384,0.02694 -0.01489,0.03131 -0.08877,0.03513c-0.0907,0.00467 -0.10786,-0.00599 -0.10826,-0.06727c-0.00013,-0.02167 -0.02169,-0.05416 -0.05841,-0.08806c-0.0568,-0.05244 -0.05796,-0.0554 -0.0482,-0.12281c0.01374,-0.09491 0.0251,-0.10479 0.12056,-0.10479h0.08209l0.00811,-0.06057c0.00513,-0.03821 0.0198,-0.07001 0.03976,-0.08619c0.04824,-0.03906 0.06237,-0.02366 0.07017,0.07644zM0.76871,2.30493c0.01233,0 0.0503,0.0291 0.08437,0.06467c0.05001,0.0522 0.07036,0.06403 0.10549,0.06136c0.0467,-0.00356 0.08921,0.02231 0.08921,0.05429c0,0.01599 -0.04814,0.01969 -0.2564,0.01969h-0.2564l0.10566,-0.1c0.05811,-0.055 0.11574,-0.1 0.12807,-0.1z"></path></g></svg>