<svg version="1.1" xmlns="http://www.w3.org/2000/svg" xmlns:xlink="http://www.w3.org/1999/xlink" width="3in" height="3in" viewBox="0 0 3.05 3.05"><g fill="none" fill-rule="none" stroke="none" stroke-width="none" stroke-linecap="butt" stroke-linejoin="miter" stroke-miterlimit="10" stroke-dasharray="" stroke-dashoffset="0" font-family="none" font-weight="none" font-size="none" text-anchor="none" style="mix-blend-mode: normal"><path d="M0.25,2.75l0,-2.5l2.5,0v2.5z" fill="none" fill-rule="nonzero" stroke="none" stroke-width="1"></path><path d="M0,3v-3h3v3zM0.49635,2.62918c0.00665,0.04127 0.01608,0.08161 0.02811,0.12082h-0.27446l0,-0.08593c0.08551,0 0.16817,-0.01218 0.24635,-0.03489zM2.64284,0.74519c0.05328,-0.10691 0.08537,-0.22624 0.09077,-0.35248c0.00675,-0.04659 0.01025,-0.09424 0.01025,-0.1427h0.00614v0.55508c-0.03376,-0.02291 -0.06959,-0.04298 -0.10716,-0.0599zM2.69345,2.5444c0.01971,-0.01554 0.03859,-0.0321 0.05655,-0.04959v0.25519h-0.15136c0.04,-0.06349 0.07207,-0.13249 0.09481,-0.2056zM2.63715,2.58455c-0.02261,0.05863 -0.05165,0.11407 -0.08625,0.16545h-0.29512c0.00532,-0.01735 0.01014,-0.03493 0.01443,-0.05271c0.13495,-0.0035 0.26059,-0.04441 0.36694,-0.11274zM2.22902,2.69719c-0.00451,0.01783 -0.00958,0.03544 -0.01518,0.05281h-0.45704c0.03093,-0.05157 0.05687,-0.10647 0.07717,-0.16403c0.00474,-0.00427 0.00942,-0.0086 0.01406,-0.01298c0.10907,0.07466 0.23989,0.11988 0.38099,0.1242zM1.58608,2.73932c0.066,-0.02584 0.1278,-0.06007 0.18408,-0.10137c-0.01743,0.03896 -0.03765,0.07639 -0.06041,0.11206h-0.12002c-0.00124,-0.00355 -0.00245,-0.00711 -0.00364,-0.01068zM1.00961,2.74519c0.00446,0.00164 0.00895,0.00325 0.01345,0.00481l-0.01684,0c0.00114,-0.0016 0.00227,-0.0032 0.0034,-0.00481zM2.65552,2.03666c0.02423,0.0782 0.03728,0.16132 0.03728,0.24749c0,0.08212 -0.01185,0.16147 -0.03394,0.23644c-0.10638,0.08074 -0.23746,0.13064 -0.3799,0.13638c0.01081,-0.05594 0.01648,-0.11372 0.01648,-0.17282c0,-0.0523 -0.00443,-0.10356 -0.01295,-0.15343c0.0688,-0.06591 0.12522,-0.14465 0.1654,-0.23238c0.07336,-0.00996 0.14316,-0.03112 0.20764,-0.06168zM2.71169,2.47608c0.01382,-0.06176 0.02111,-0.12599 0.02111,-0.19193c0,-0.09271 -0.01442,-0.18206 -0.04113,-0.26592c0.02005,-0.01095 0.03951,-0.02284 0.05833,-0.03561l0,0.45469c-0.01225,0.01343 -0.02503,0.02636 -0.03831,0.03876zM2.24698,2.36267c0.00558,0.03969 0.00846,0.08025 0.00846,0.12148c0,0.05934 -0.00597,0.11728 -0.01735,0.17325c-0.13347,-0.00256 -0.25745,-0.04388 -0.36115,-0.11316c0.00452,-0.00472 0.00897,-0.00949 0.01338,-0.01431c0.13441,-0.02369 0.25662,-0.08277 0.35667,-0.16726zM2.40126,2.10312c-0.03329,0.06674 -0.07665,0.12758 -0.1281,0.18051c-0.01533,-0.0678 -0.03827,-0.13271 -0.06787,-0.19379c0.04713,0.00984 0.09597,0.01501 0.14601,0.01501c0.0168,0 0.03346,-0.00058 0.04996,-0.00173zM2.15391,2.07709c0.03952,0.074 0.0686,0.15442 0.08528,0.23929c-0.08602,0.07766 -0.19091,0.13482 -0.30697,0.16377c0.09204,-0.11864 0.15193,-0.26348 0.16658,-0.42144c0.01803,0.00685 0.03642,0.01299 0.05512,0.01839zM2.06001,2.04263c-0.01319,0.17195 -0.0827,0.32814 -0.19011,0.45014c-0.00297,0.00047 -0.00595,0.00091 -0.00894,0.00134c0.01597,-0.06739 0.02442,-0.13769 0.02442,-0.20997c0,-0.10083 -0.01645,-0.19782 -0.04682,-0.28842c0.02166,-0.01616 0.04241,-0.03347 0.06218,-0.05183c0.0482,0.03953 0.1017,0.07285 0.15926,0.09873zM1.80435,2.01981c0.02665,0.08334 0.04103,0.17216 0.04103,0.26434c0,0.07414 -0.0093,0.1461 -0.02681,0.21479c-0.00058,0.00005 -0.00116,0.0001 -0.00173,0.00014c-0.08822,-0.0743 -0.15712,-0.1708 -0.19812,-0.28089c0.02481,-0.0421 0.04614,-0.08651 0.06358,-0.13282c0.04286,-0.01813 0.08369,-0.04014 0.12205,-0.06557zM1.46573,2.40928c0.00093,0.01041 0.00167,0.02088 0.00221,0.03141c-0.00821,-0.00362 -0.01635,-0.00739 -0.02439,-0.01131c0.00751,-0.00657 0.0149,-0.01327 0.02218,-0.02009zM1.54501,2.46949c0.00106,-0.05961 0.00859,-0.11764 0.02192,-0.17342c0.00877,-0.01174 0.01724,-0.02372 0.02541,-0.03592c0.03869,0.09179 0.096,0.17381 0.16719,0.24133c-0.00061,0 -0.00122,0 -0.00183,0c-0.07405,0 -0.14548,-0.0112 -0.21269,-0.03199zM1.51385,2.36042c-0.00306,0.02086 -0.00535,0.04197 -0.00686,0.0633c-0.00117,-0.017 -0.00282,-0.03386 -0.00495,-0.05057c0.00398,-0.0042 0.00792,-0.00844 0.01181,-0.01273zM1.40997,2.45729c0.01923,0.00993 0.03895,0.01907 0.0591,0.02737c-0.00005,0.09008 -0.01447,0.1768 -0.04109,0.258c-0.01654,0.00298 -0.03325,0.00543 -0.05014,0.00734h-0.17545c-0.01406,-0.00159 -0.02801,-0.00356 -0.04183,-0.00589c-0.01851,-0.028 -0.03538,-0.05718 -0.05047,-0.08741c0.02642,-0.02237 0.0515,-0.04627 0.07511,-0.07155c0.08164,-0.03125 0.1573,-0.0746 0.22477,-0.12785zM1.07826,2.68242c0.00879,0.01717 0.01813,0.034 0.02799,0.05049c-0.02357,-0.00576 -0.04671,-0.01259 -0.06937,-0.02046c0.01409,-0.00962 0.02789,-0.01963 0.04138,-0.03003zM1.80634,2.54219c-0.00218,0.00699 -0.00444,0.01395 -0.00679,0.02086c-0.06605,0.05803 -0.14209,0.10497 -0.22521,0.13789c-0.01688,-0.06062 -0.02685,-0.12411 -0.02902,-0.18957c0.06739,0.01961 0.13865,0.03012 0.21237,0.03012c0.01546,0 0.03082,-0.00046 0.04605,-0.00137c0.00086,0.00069 0.00173,0.00139 0.0026,0.00208zM1.507,2.54459c0.00413,0.05856 0.01422,0.11548 0.02966,0.17014c-0.02088,0.00703 -0.04216,0.01319 -0.06379,0.01844c0.01802,-0.06037 0.02966,-0.12349 0.03413,-0.18859zM1.40436,2.16247c0.02617,0.06213 0.045,0.12811 0.05538,0.19686c-0.01734,0.01748 -0.03546,0.03419 -0.0543,0.05006c-0.02406,-0.01355 -0.04726,-0.02845 -0.06949,-0.04459c0.03057,-0.06359 0.05375,-0.1314 0.06842,-0.20233zM1.56285,2.17566c-0.01305,0.03333 -0.02405,0.06769 -0.03284,0.10292c-0.01148,0.01506 -0.02347,0.02972 -0.03594,0.04394c-0.01176,-0.06253 -0.03022,-0.1227 -0.0546,-0.17974c0.03805,-0.00247 0.07533,-0.00778 0.11162,-0.01571c0.00336,0.01641 0.00729,0.03261 0.01176,0.04859zM1.31757,2.40086c0.01756,0.01252 0.03567,0.02432 0.05429,0.03534c-0.04003,0.03029 -0.08293,0.05698 -0.12822,0.07959c0.02748,-0.03623 0.05223,-0.07464 0.07394,-0.11493zM1.36725,2.14404c-0.01329,0.06859 -0.0349,0.13421 -0.06374,0.19578c-0.06244,-0.05097 -0.11616,-0.11223 -0.15855,-0.1812c-0.00184,-0.01176 -0.00394,-0.02343 -0.00628,-0.03502c0.00721,-0.00494 0.01435,-0.00998 0.0214,-0.01513c0.06558,0.02109 0.1351,0.03341 0.20717,0.03557zM1.09465,2.15188c0.00388,0.00695 0.00787,0.01384 0.01196,0.02066c0.00533,0.03644 0.00809,0.0737 0.00809,0.11162c0,0.09423 -0.01705,0.18449 -0.04822,0.26785c-0.02845,-0.08408 -0.04388,-0.17416 -0.04388,-0.26785c0,-0.02863 0.00144,-0.05693 0.00425,-0.08482c0.00256,-0.00476 0.00507,-0.00954 0.00754,-0.01435c0.02056,-0.01027 0.04066,-0.02132 0.06026,-0.03311zM0.98266,2.27274c-0.00005,0.0038 -0.00007,0.0076 -0.00007,0.01141c0,0.10623 0.01893,0.20804 0.0536,0.30224c-0.05109,0.00998 -0.10389,0.01521 -0.15791,0.01521c-0.01755,0 -0.03497,-0.00055 -0.05225,-0.00164c-0.0326,-0.02455 -0.0632,-0.05163 -0.09149,-0.08093c0.09819,-0.06475 0.18266,-0.14861 0.24812,-0.24629zM1.10221,2.57061c0.03391,-0.089 0.05248,-0.18556 0.05248,-0.28646c0,-0.01418 -0.00037,-0.02827 -0.00109,-0.04226c0.03815,0.05012 0.0824,0.09535 0.13164,0.13458c-0.03357,0.06342 -0.07499,0.12203 -0.12297,0.17456c-0.01967,0.00727 -0.0397,0.01381 -0.06005,0.01959zM0.69994,2.54072c0.01695,0.01792 0.0347,0.03507 0.05321,0.05139c-0.03564,-0.00547 -0.07053,-0.01323 -0.10451,-0.02314c0.01744,-0.00886 0.03455,-0.01829 0.0513,-0.02825zM0.53493,2.61699c0.02045,-0.00698 0.04057,-0.0147 0.06032,-0.02312c0.06857,0.02392 0.1411,0.0394 0.21634,0.04518c0.04274,0.03121 0.08864,0.05835 0.13713,0.08085c-0.01941,0.01079 -0.03929,0.02083 -0.0596,0.03009h-0.32272c-0.01386,-0.04297 -0.02444,-0.0874 -0.03147,-0.13301zM1.09248,2.6191c-0.00058,-0.00132 -0.00116,-0.00265 -0.00173,-0.00398c0.00297,-0.00076 0.00593,-0.00153 0.00889,-0.00231c-0.00237,0.00211 -0.00476,0.00421 -0.00716,0.00629zM1.03339,2.62764c-0.01081,0.02146 -0.02259,0.04233 -0.0353,0.06257c-0.00239,0.00155 -0.00478,0.00309 -0.00718,0.00461c-0.03607,-0.01517 -0.07074,-0.03301 -0.10378,-0.05326c0.04989,-0.0005 0.09875,-0.00526 0.14626,-0.01393zM0.97336,2.21262c-0.06632,0.11137 -0.15764,0.20612 -0.2662,0.27652c-0.05486,-0.0631 -0.09964,-0.13519 -0.13184,-0.21377c0.02132,0.00154 0.04285,0.00232 0.06456,0.00232c0.11799,0 0.23058,-0.02312 0.33349,-0.06508zM0.51068,2.26833c-0.01692,0.06917 -0.02589,0.14145 -0.02589,0.21583c0,0.00567 0.00005,0.01133 0.00016,0.01698c-0.08993,-0.04934 -0.16959,-0.11508 -0.23495,-0.19319l0,-0.12065c0.08072,0.03974 0.16838,0.06752 0.26068,0.08104zM0.52561,2.52198c-0.00054,-0.01254 -0.00081,-0.02515 -0.00081,-0.03783c0,-0.06198 0.00652,-0.12244 0.0189,-0.18073c0.03252,0.0756 0.07619,0.14527 0.12894,0.20694c-0.02546,0.01482 -0.05177,0.02834 -0.07883,0.04047c-0.02325,-0.00861 -0.046,-0.01825 -0.0682,-0.02886zM0.48698,2.54749c0.00096,0.01396 0.00225,0.02783 0.00384,0.04161c-0.07629,0.02275 -0.15713,0.03497 -0.24081,0.03497l0,-0.25574c0.06769,0.07259 0.14781,0.13345 0.23698,0.17916zM0.52966,2.57647c-0.00032,-0.00299 -0.00062,-0.00597 -0.0009,-0.00897c0.00387,0.00173 0.00776,0.00343 0.01166,0.0051c-0.00357,0.00131 -0.00716,0.00261 -0.01075,0.00387zM2.56317,1.66447c0.00061,-0.00024 0.00123,-0.00048 0.00184,-0.00072c0.06377,-0.01643 0.12557,-0.03776 0.18498,-0.06356v0.13714c-0.05851,-0.0313 -0.12112,-0.05593 -0.18683,-0.07286zM2.51125,1.69359c0.08521,0.01715 0.16556,0.04773 0.23875,0.08943v0.15058c-0.02279,0.01686 -0.04669,0.03232 -0.07156,0.04623c-0.03806,-0.1026 -0.0948,-0.19613 -0.16611,-0.27644c-0.00034,-0.00327 -0.0007,-0.00654 -0.00108,-0.0098zM2.51634,1.77068c0.05327,0.06823 0.09616,0.14495 0.12632,0.22778c-0.05508,0.02659 -0.11436,0.04588 -0.17656,0.0566c0.03251,-0.08452 0.05033,-0.17634 0.05033,-0.27232c0,-0.00403 -0.00003,-0.00805 -0.00009,-0.01207zM2.45354,1.69903c0.00686,0.00699 0.0136,0.0141 0.02022,0.02132c0.00177,0.02056 0.00267,0.04138 0.00267,0.0624c0,0.09878 -0.01993,0.19291 -0.05598,0.27858c-0.02273,0.00233 -0.0458,0.00352 -0.06915,0.00352c-0.05889,0 -0.116,-0.00759 -0.17042,-0.02183c-0.02373,-0.04244 -0.05078,-0.08278 -0.08079,-0.12066c-0.00123,-0.01672 -0.00297,-0.03331 -0.00519,-0.04973c0.09605,-0.03356 0.1828,-0.08693 0.25535,-0.15522c0.03512,-0.00404 0.0696,-0.01021 0.10329,-0.01837zM2.10224,1.99242c0.00747,0.0108 0.0147,0.02178 0.02169,0.03292c-0.00751,-0.0027 -0.01495,-0.00554 -0.02233,-0.0085c0.00034,-0.00811 0.00055,-0.01625 0.00065,-0.02442zM2.02265,1.89366c0.01326,0.0142 0.02605,0.02885 0.03834,0.04392c0.00086,0.01495 0.0013,0.03001 0.0013,0.04517c0,0.0056 -0.00006,0.01119 -0.00018,0.01676c-0.04757,-0.02276 -0.09205,-0.05095 -0.13261,-0.08378c0.00235,-0.00243 0.00468,-0.00487 0.00699,-0.00732c0.02928,-0.00319 0.05804,-0.00814 0.08616,-0.01475zM2.28361,1.72246c-0.05798,0.04677 -0.1238,0.0842 -0.1952,0.11c-0.00648,-0.03465 -0.01517,-0.06853 -0.0259,-0.10148c0.01766,-0.00678 0.03562,-0.01295 0.05385,-0.01849c0.04395,0.00696 0.08902,0.01057 0.13493,0.01057c0.01082,0 0.02159,-0.0002 0.03232,-0.0006zM1.98311,1.85396c0.0021,0.00197 0.00418,0.00396 0.00626,0.00595c-0.00427,0.00084 -0.00855,0.00164 -0.01284,0.0024c0.00221,-0.00277 0.00441,-0.00555 0.00658,-0.00835zM2.03541,1.84917c-0.00928,-0.00943 -0.01876,-0.01865 -0.02844,-0.02767c0.00979,-0.0141 0.01911,-0.02854 0.02794,-0.04332c0.006,0.02191 0.01107,0.04421 0.01514,0.06685c-0.00486,0.00143 -0.00974,0.00281 -0.01464,0.00414zM2.00348,1.68664c0.00299,0.0072 0.00588,0.01446 0.00866,0.02178c-0.03024,0.01324 -0.05956,0.0282 -0.08783,0.04475c-0.06006,-0.04396 -0.12573,-0.0807 -0.19575,-0.10894c-0.00152,-0.00378 -0.00301,-0.00758 -0.00447,-0.0114c-0.00298,-0.01695 -0.00647,-0.03374 -0.01043,-0.05033c0.07119,0.03386 0.14609,0.0612 0.22391,0.08126c0.02155,0.00849 0.04354,0.01614 0.06591,0.0229zM1.95868,1.77959c0.01369,-0.00764 0.02762,-0.0149 0.04178,-0.02175c-0.00749,0.01254 -0.01536,0.02483 -0.02359,0.03685c-0.006,-0.00511 -0.01206,-0.01014 -0.01819,-0.01509zM1.85663,1.84722c0.02095,-0.01629 0.04272,-0.03157 0.06525,-0.04577c0.01067,0.00832 0.02114,0.01689 0.03141,0.0257c-0.01139,0.01478 -0.02335,0.02911 -0.03585,0.04293c-0.01211,0.00106 -0.02431,0.00179 -0.0366,0.00221c-0.00828,-0.00814 -0.01635,-0.0165 -0.02421,-0.02507zM1.88752,1.77599c-0.0196,0.01287 -0.03864,0.02652 -0.05707,0.04093c-0.02967,-0.03649 -0.05559,-0.07616 -0.07716,-0.11841c0.0472,0.02185 0.0921,0.04784 0.13423,0.07749zM1.58292,1.72884c-0.00925,0.02433 -0.01721,0.0493 -0.02379,0.07482c-0.01105,-0.00542 -0.02194,-0.01114 -0.03265,-0.01713c0.01975,-0.01828 0.03859,-0.03754 0.05644,-0.05769zM1.59616,1.82046c0.00904,-0.03661 0.02107,-0.07205 0.03581,-0.10603c0.02334,0.02676 0.04506,0.05496 0.06502,0.08446c-0.00035,0.01814 -0.00129,0.03613 -0.0028,0.05397c-0.03374,-0.00834 -0.06649,-0.01921 -0.09803,-0.03239zM1.67903,1.62591c-0.00015,-0.00005 -0.00031,-0.0001 -0.00046,-0.00015c0.00009,-0.00014 0.00017,-0.00028 0.00026,-0.00042c0.00007,0.00019 0.00013,0.00038 0.0002,0.00057zM1.65797,1.66108c0.01068,0.00347 0.02127,0.00715 0.03176,0.01102c0.00252,0.01863 0.00441,0.03745 0.00565,0.05645c-0.01426,-0.01838 -0.02922,-0.03621 -0.04483,-0.05342c0.00242,-0.00472 0.00489,-0.0094 0.00742,-0.01405zM1.79952,1.84228c-0.00657,0.00565 -0.01305,0.01141 -0.01945,0.01726c-0.01321,-0.02489 -0.02755,-0.0491 -0.04294,-0.07255c0.00001,-0.00141 0.00001,-0.00283 0.00001,-0.00424c0,-0.01051 -0.00019,-0.02098 -0.00056,-0.0314c0.01864,0.03198 0.0397,0.06238 0.06294,0.09093zM1.73385,1.85843c0.00062,0.00111 0.00125,0.00221 0.00187,0.00332c-0.00071,-0.00013 -0.00142,-0.00026 -0.00213,-0.00039c0.00009,-0.00098 0.00018,-0.00195 0.00026,-0.00293zM1.37819,1.89534c0.00296,0.02873 0.00448,0.05789 0.00448,0.08741c0,0.01597 -0.00044,0.03185 -0.00132,0.0476c-0.01692,-0.02758 -0.03533,-0.05414 -0.05512,-0.07958c0.01213,-0.01493 0.02378,-0.03026 0.03492,-0.04597c0.00572,-0.00309 0.0114,-0.00624 0.01704,-0.00946zM1.29971,1.98191c0.02812,0.03689 0.05322,0.07621 0.07493,0.11759c-0.00022,0.00157 -0.00044,0.00314 -0.00067,0.0047c-0.06049,-0.00135 -0.11911,-0.01025 -0.17496,-0.02581c0.03605,-0.02948 0.06972,-0.06175 0.1007,-0.09648zM1.82433,1.95631c-0.00596,-0.01538 -0.01234,-0.03056 -0.0191,-0.04552c0.01733,0.00125 0.03482,0.00189 0.05247,0.00189c0.00247,0 0.00494,-0.00001 0.00741,-0.00004c0.00174,0.00163 0.00349,0.00326 0.00525,0.00488c-0.01478,0.01356 -0.03014,0.02651 -0.04603,0.03879zM1.7364,1.90248c-0.003,0.00317 -0.00598,0.00637 -0.00893,0.00958c0.00055,-0.00362 0.00107,-0.00724 0.00157,-0.01087c0.00245,0.00044 0.0049,0.00087 0.00736,0.00129zM1.71101,1.99383c0.01795,-0.02341 0.03716,-0.0458 0.05752,-0.06708c0.00801,0.01768 0.01544,0.03567 0.02227,0.05396c-0.02882,0.01972 -0.05917,0.03736 -0.09083,0.05273c0.00398,-0.01307 0.00766,-0.02628 0.01103,-0.03961zM1.55003,1.84369c-0.00887,0.04498 -0.01352,0.09148 -0.01352,0.13906c0,0.03563 0.00261,0.07066 0.00764,0.10489c-0.03971,0.00878 -0.08066,0.01423 -0.12255,0.01606c-0.00186,-0.00382 -0.00375,-0.00762 -0.00566,-0.0114c0.00444,-0.03589 0.00673,-0.07245 0.00673,-0.10954c0,-0.03736 -0.00232,-0.07417 -0.00682,-0.11031c0.02748,-0.01776 0.05382,-0.03714 0.07887,-0.05801c0.01796,0.01053 0.03641,0.02029 0.05532,0.02926zM1.67415,1.97623c-0.02203,0.02932 -0.0422,0.06012 -0.06033,0.09223c-0.01012,0.00335 -0.02034,0.00649 -0.03066,0.00939c-0.00438,-0.03107 -0.00665,-0.06282 -0.00665,-0.0951c0,-0.04184 0.00381,-0.0828 0.0111,-0.12254c0.03292,0.01335 0.06705,0.02434 0.10218,0.03275c-0.0038,0.02824 -0.00904,0.05602 -0.01564,0.08327zM1.65634,1.55339c-0.01015,0.0191 -0.02109,0.03773 -0.03276,0.05583c-0.0176,-0.00468 -0.03541,-0.00885 -0.05342,-0.01249c-0.01717,-0.01479 -0.03489,-0.02895 -0.05314,-0.04245c0.02849,-0.0094 0.0562,-0.02053 0.083,-0.03325c0.01847,0.01125 0.03725,0.02204 0.05632,0.03235zM1.49321,1.62491c0.0198,0.00235 0.03939,0.00537 0.05875,0.00903c0.01113,0.00982 0.022,0.01993 0.0326,0.0303c-0.02823,0.03634 -0.05966,0.07007 -0.09386,0.10077c-0.01265,-0.00815 -0.02502,-0.0167 -0.03708,-0.02565c0.0157,-0.03693 0.02896,-0.07515 0.03958,-0.11446zM1.43677,1.77661c0.00729,0.00527 0.01468,0.01041 0.02217,0.01542c-0.01594,0.01283 -0.0324,0.02503 -0.04935,0.03657c0.00961,-0.01699 0.01868,-0.03432 0.02718,-0.05198zM1.25056,1.58952c-0.0086,0.00133 -0.01716,0.00278 -0.02568,0.00435c0.00091,-0.00198 0.00181,-0.00397 0.0027,-0.00595c0.00762,0.00065 0.01528,0.00119 0.02297,0.0016zM1.20267,1.63919c0.02582,-0.0057 0.05208,-0.01025 0.07871,-0.01359c-0.05115,0.0448 -0.09704,0.09547 -0.13662,0.15095c-0.0045,-0.00321 -0.00902,-0.00639 -0.01358,-0.00951c-0.00007,-0.00389 -0.00016,-0.00777 -0.00028,-0.01165c0.02655,-0.03686 0.05056,-0.07568 0.07177,-0.1162zM1.17678,1.80056c0.03777,-0.05308 0.08158,-0.10156 0.13045,-0.14442c0.00597,0.0071 0.01207,0.01408 0.0183,0.02093c0.01806,0.04639 0.03213,0.09477 0.04179,0.14472c-0.01051,0.01783 -0.02166,0.03523 -0.03341,0.05219c-0.01686,0.00883 -0.03408,0.01706 -0.05164,0.02464c-0.03238,-0.03551 -0.06767,-0.06832 -0.10548,-0.09806zM1.12584,1.8816c0.00897,-0.01628 0.01847,-0.03222 0.02847,-0.04781c0.03128,0.02478 0.06073,0.05176 0.08812,0.08072c-0.04074,0.01494 -0.0831,0.02652 -0.12675,0.03441c0.00423,-0.02216 0.00763,-0.04461 0.01016,-0.06732zM1.39639,1.76811c-0.00249,-0.00999 -0.00516,-0.01991 -0.00799,-0.02976c0.00524,0.00452 0.01054,0.00896 0.01591,0.01333c-0.00258,0.00551 -0.00522,0.01098 -0.00792,0.01642zM1.00734,1.89592c0.00325,0.0217 0.00741,0.0431 0.01245,0.06416c-0.01375,0.00073 -0.02759,0.0011 -0.04151,0.0011c-0.00542,0 -0.01083,-0.00006 -0.01622,-0.00017c-0.00537,-0.00406 -0.01067,-0.00819 -0.01592,-0.01239c0.02114,-0.01672 0.04156,-0.0343 0.0612,-0.05271zM1.08691,1.86943c-0.00784,0.01455 -0.01529,0.02935 -0.02232,0.04438c-0.00614,-0.01182 -0.01256,-0.02347 -0.01926,-0.03493c-0.00081,-0.00606 -0.00155,-0.01215 -0.0022,-0.01826c0.0166,-0.01725 0.03256,-0.03512 0.04785,-0.05357c-0.0006,0.021 -0.00196,0.0418 -0.00407,0.06239zM1.46273,1.5817c-0.01471,-0.00117 -0.02952,-0.00198 -0.04442,-0.00244c0.01591,-0.00284 0.03164,-0.00621 0.04717,-0.01008c-0.00088,0.00418 -0.0018,0.00836 -0.00274,0.01252zM1.34658,1.62368c0.00173,-0.00134 0.00347,-0.00268 0.00522,-0.00401c0.0127,-0.00055 0.02548,-0.00083 0.03832,-0.00083c0.02107,0 0.04197,0.00075 0.06266,0.00223c-0.00882,0.03164 -0.01944,0.06252 -0.03175,0.09254c-0.02151,-0.01809 -0.04189,-0.0375 -0.061,-0.05809c-0.00428,-0.01072 -0.00876,-0.02133 -0.01345,-0.03184zM0.49412,2.14489c0.00577,0.02849 0.01303,0.05643 0.0217,0.08375c-0.08715,-0.01284 -0.16996,-0.039 -0.2463,-0.07635c0.02653,0.0022 0.05338,0.00332 0.08048,0.00332c0.04898,0 0.09711,-0.00366 0.14412,-0.01073zM0.56147,2.23411c0.01166,-0.03869 0.02595,-0.07623 0.04267,-0.11242c0.09992,-0.02731 0.19336,-0.07032 0.27749,-0.12623c0.02197,0.00262 0.04422,0.00436 0.0667,0.00518c0.02165,0.01579 0.04417,0.03044 0.06748,0.04389c-0.01078,0.03795 -0.01906,0.07695 -0.02466,0.11681c-0.10695,0.04903 -0.22592,0.07636 -0.35127,0.07636c-0.02643,0 -0.05258,-0.00122 -0.0784,-0.00359zM0.55512,2.1337c-0.00503,0.01197 -0.00981,0.02407 -0.01433,0.03629c-0.00262,-0.01054 -0.00503,-0.02116 -0.00722,-0.03186c0.00721,-0.00139 0.0144,-0.00287 0.02155,-0.00442zM1.07057,2.10494c0.0018,0.00383 0.00363,0.00764 0.00549,0.01143c-0.00442,0.00268 -0.00888,0.00531 -0.01335,0.00791c0.0027,-0.00641 0.00532,-0.01285 0.00787,-0.01934zM1.27111,1.94644c0.00108,0.00126 0.00215,0.00253 0.00322,0.0038c-0.03661,0.04171 -0.07727,0.07979 -0.12136,0.11361c-0.01094,-0.00387 -0.02175,-0.008 -0.03243,-0.01239c-0.00504,-0.01672 -0.01062,-0.03322 -0.0167,-0.04946c0.00093,-0.00364 0.00184,-0.00729 0.00273,-0.01094c0.05707,-0.00911 0.11214,-0.0242 0.16455,-0.04461zM1.02991,1.99956c-0.00066,0.00191 -0.0013,0.00381 -0.00195,0.00573c-0.00285,-0.00169 -0.00569,-0.0034 -0.00851,-0.00513c0.00349,-0.00018 0.00698,-0.00037 0.01046,-0.00059zM0.81247,1.6751c0.02435,0.01851 0.04755,0.03846 0.06948,0.0597c-0.0273,0.01855 -0.05353,0.03855 -0.07858,0.05989c-0.02166,-0.03165 -0.04083,-0.06515 -0.05723,-0.1002c0.02247,-0.00558 0.0446,-0.01206 0.06633,-0.01939zM0.82695,1.82715c0.02648,-0.02272 0.05435,-0.04386 0.08346,-0.06329c0.0279,0.03004 0.05342,0.06233 0.07625,0.09657c-0.0228,0.02178 -0.04671,0.0424 -0.07164,0.06177c-0.03215,-0.02893 -0.06164,-0.06075 -0.08807,-0.09505zM0.9994,1.80887c-0.01704,-0.02324 -0.03529,-0.04553 -0.05466,-0.06677c0.00971,-0.00584 0.01955,-0.0115 0.0295,-0.01696c0.00877,0.00387 0.01746,0.00788 0.02606,0.01205c-0.00089,0.01508 -0.00135,0.03027 -0.00135,0.04557c0,0.00874 0.00015,0.01745 0.00044,0.02612zM0.92708,1.70604c-0.00359,0.00214 -0.00715,0.0043 -0.01071,0.00649c-0.00548,-0.00543 -0.01103,-0.01078 -0.01667,-0.01605c0.0092,0.00303 0.01832,0.00622 0.02737,0.00956zM1.00835,1.66302c-0.01216,0.00566 -0.02418,0.01159 -0.03604,0.01777c-0.02974,-0.01232 -0.06031,-0.02304 -0.09161,-0.03204c0.05312,-0.0232 0.10343,-0.05165 0.15025,-0.0847c-0.00966,0.03214 -0.01725,0.06519 -0.0226,0.09897zM1.07821,1.63399c-0.00868,0.00319 -0.0173,0.0065 -0.02586,0.00994c0.00409,-0.02089 0.00908,-0.04146 0.01494,-0.06166c0.00417,0.01704 0.00781,0.03429 0.01092,0.05172zM1.04483,1.69047c0.01303,-0.00568 0.02622,-0.01104 0.03958,-0.01608c0.00281,0.02183 0.00478,0.04391 0.00588,0.06623c-0.01569,-0.00953 -0.03171,-0.01857 -0.04803,-0.02711c0.00074,-0.00772 0.0016,-0.01539 0.00258,-0.02304zM1.0394,1.75738c0.00929,0.00512 0.01847,0.01041 0.02754,0.01587c-0.00896,0.01107 -0.01817,0.02193 -0.02762,0.03257c-0.00024,-0.00766 -0.00036,-0.01535 -0.00036,-0.02307c0,-0.00849 0.00015,-0.01695 0.00044,-0.02537zM1.17551,1.60442c-0.01994,0.00485 -0.03962,0.01035 -0.05901,0.0165c-0.0034,-0.01832 -0.00736,-0.03643 -0.01188,-0.05433c0.02649,0.00701 0.05358,0.01255 0.08117,0.01653c-0.00334,0.00715 -0.00676,0.01425 -0.01028,0.0213zM1.12296,1.66086c0.00883,-0.00286 0.01772,-0.00559 0.02667,-0.00817c-0.00739,0.01285 -0.01508,0.02551 -0.02307,0.03796c-0.00104,-0.00998 -0.00224,-0.01991 -0.00361,-0.02979zM0.52158,1.71942c-0.00834,0.02433 -0.01555,0.04919 -0.02158,0.07451c-0.03209,-0.02561 -0.06208,-0.05374 -0.08967,-0.08409c0.03638,0.00555 0.07351,0.00879 0.11125,0.00959zM0.73298,1.92114c0.02017,-0.02352 0.04158,-0.04595 0.06414,-0.06718c0.02578,0.03318 0.05428,0.06413 0.08517,0.09253c-0.0035,0.00248 -0.00701,0.00493 -0.01054,0.00736c-0.0478,-0.00664 -0.0942,-0.01768 -0.13876,-0.03271zM0.77326,1.8215c-0.02851,0.02655 -0.0553,0.05492 -0.0802,0.08492c-0.05627,-0.02254 -0.10925,-0.05156 -0.15801,-0.08612c0.00741,-0.03459 0.01713,-0.06832 0.029,-0.10103c0.0485,-0.00135 0.09599,-0.00675 0.14214,-0.01588c0.01882,0.04152 0.04132,0.08103 0.06707,0.11811zM0.29749,1.68467c-0.00015,0.00017 -0.0003,0.00034 -0.00045,0.00051c-0.01593,0.00685 -0.03162,0.01415 -0.04705,0.02191l0,-0.03802c0.01562,0.00565 0.03146,0.01085 0.04749,0.0156zM0.32113,1.71843c0.01079,-0.0045 0.02169,-0.00877 0.03271,-0.01282c0.04033,0.04915 0.08635,0.09345 0.13705,0.13191c-0.00851,0.04712 -0.01295,0.09566 -0.01295,0.14523c0,0.04172 0.00315,0.08271 0.00921,0.12274c-0.04475,0.00667 -0.09054,0.01013 -0.13715,0.01013c-0.03379,0 -0.06715,-0.00182 -0.1,-0.00536l0,-0.2969c0.02156,-0.03328 0.04534,-0.065 0.07113,-0.09493zM0.62866,2.07275c0.02259,-0.04172 0.04851,-0.08138 0.0774,-0.11861c0.03733,0.01337 0.07592,0.02406 0.11556,0.03186c-0.06022,0.03593 -0.12488,0.06519 -0.19296,0.08675zM0.66721,1.93908c-0.03495,0.04629 -0.06557,0.09603 -0.09123,0.14864c-0.0163,0.00411 -0.03276,0.00778 -0.04939,0.01101c-0.0057,-0.03783 -0.00865,-0.07656 -0.00865,-0.11597c0,-0.04058 0.00313,-0.08042 0.00916,-0.11931c0.04383,0.02959 0.09073,0.055 0.14011,0.07564zM1.09193,1.52141c-0.00038,-0.00123 -0.00076,-0.00246 -0.00115,-0.00368c0.02888,-0.02447 0.0561,-0.05084 0.08149,-0.0789c0.00345,0.00079 0.00689,0.0016 0.01032,0.00243c0.00924,0.02522 0.01986,0.04977 0.03176,0.07358c-0.00377,0.01015 -0.00771,0.02021 -0.01183,0.03019c-0.03792,-0.00485 -0.07487,-0.01281 -0.11059,-0.02361zM1.24463,1.41678c-0.01037,-0.00318 -0.02083,-0.00618 -0.03136,-0.009c-0.00139,-0.0042 -0.00275,-0.00841 -0.00406,-0.01264c0.01945,-0.02462 0.03757,-0.05034 0.05425,-0.07705c-0.00451,0.0335 -0.01083,0.06643 -0.01884,0.09869zM1.47764,1.49566c-0.00918,0.00443 -0.01827,0.00902 -0.02727,0.01376c-0.0526,-0.03212 -0.10872,-0.05903 -0.16766,-0.08003c0.01162,-0.04616 0.0199,-0.09365 0.02458,-0.14219c0.01013,0.00737 0.02045,0.0145 0.03095,0.02138c0.04458,0.04739 0.09281,0.09131 0.14424,0.13131c-0.00101,0.01876 -0.00263,0.03735 -0.00484,0.05576zM1.2721,1.4681c0.04811,0.01732 0.09424,0.03878 0.13797,0.06394c-0.00602,0.00359 -0.012,0.00725 -0.01792,0.01098c-0.02701,0.00404 -0.05453,0.0065 -0.08248,0.00729c-0.01303,-0.02315 -0.02708,-0.04566 -0.04209,-0.06746c0.00154,-0.0049 0.00305,-0.00982 0.00451,-0.01476zM1.52764,1.47343c-0.00259,0.00105 -0.00517,0.00212 -0.00774,0.0032c0.00025,-0.00273 0.0005,-0.00547 0.00072,-0.00821c0.00233,0.00168 0.00467,0.00335 0.00702,0.00501zM1.08047,1.23937c0.01263,-0.00355 0.02539,-0.0068 0.03827,-0.00972c0.0071,0.00286 0.01425,0.0056 0.02145,0.00824c0.00182,0.03019 0.00551,0.05988 0.01095,0.08895c-0.00003,0.00004 -0.00006,0.00008 -0.00009,0.00012c-0.00464,0.00192 -0.00931,0.0038 -0.01401,0.00562c-0.02744,-0.02522 -0.05649,-0.04873 -0.08697,-0.07035c0.00184,-0.00248 0.00368,-0.00496 0.0055,-0.00745c0.00839,-0.00499 0.01669,-0.01014 0.02489,-0.01542zM1.02553,1.29387c0.02377,0.01679 0.04664,0.03478 0.06851,0.05389c-0.02207,0.00699 -0.0446,0.01293 -0.06753,0.01778c-0.00789,-0.01466 -0.01619,-0.02907 -0.02488,-0.04322c0.00814,-0.00933 0.01611,-0.01881 0.0239,-0.02844zM0.97354,1.35318c0.0039,0.00656 0.00771,0.01317 0.01144,0.01984c-0.01165,0.00175 -0.02339,0.00321 -0.03521,0.00439c0.00806,-0.00794 0.01598,-0.01602 0.02377,-0.02422zM1.2086,1.25913c-0.00808,0.00847 -0.01596,0.01713 -0.02365,0.02596c-0.00149,-0.0111 -0.00271,-0.02229 -0.00366,-0.03355c0.00903,0.0027 0.01813,0.00523 0.02731,0.00759zM0.58013,1.67863c0.0032,-0.00746 0.00652,-0.01487 0.00994,-0.02221c0.01647,-0.00098 0.03308,-0.00147 0.0498,-0.00147c0.01573,0 0.03135,0.00044 0.04687,0.0013c0.00118,0.00316 0.00238,0.00631 0.0036,0.00945c-0.03596,0.00673 -0.07275,0.0111 -0.11021,0.01292zM0.67287,1.61557c-0.01095,-0.00041 -0.02195,-0.00062 -0.033,-0.00062c-0.00975,0 -0.01947,0.00016 -0.02914,0.00048c0.00435,-0.00803 0.00884,-0.01597 0.01346,-0.02383c0.00873,-0.00354 0.0174,-0.0072 0.02601,-0.01097c0.00485,0.00207 0.00968,0.00419 0.01448,0.00636c0.00255,0.0096 0.00528,0.01912 0.0082,0.02857zM0.45623,1.67536c0.02886,-0.00652 0.05829,-0.01154 0.0882,-0.01497c-0.00276,0.00636 -0.00543,0.01277 -0.00803,0.01922c-0.02706,-0.00011 -0.0538,-0.00155 -0.08017,-0.00425zM0.56415,1.61821c-0.0068,0.00059 -0.01357,0.00125 -0.02033,0.00199c0.00773,-0.00238 0.01543,-0.00485 0.02308,-0.00742c-0.00092,0.0018 -0.00184,0.00361 -0.00275,0.00542zM0.81919,1.63033c-0.0378,-0.02717 -0.07805,-0.05115 -0.12036,-0.07153c-0.00008,-0.00032 -0.00015,-0.00065 -0.00023,-0.00097c0.05893,-0.02974 0.11451,-0.06515 0.16602,-0.10553c0.04369,0.03182 0.09108,0.05887 0.14141,0.08038c-0.05729,0.0402 -0.12001,0.07319 -0.18683,0.09765zM0.72821,1.61939c-0.00415,-0.00042 -0.00831,-0.00081 -0.01247,-0.00117c-0.00078,-0.00234 -0.00155,-0.00469 -0.0023,-0.00704c0.00496,0.00268 0.00988,0.00542 0.01477,0.00821zM0.95106,1.41747c0.00904,-0.00028 0.01812,-0.00042 0.02722,-0.00042c0.00999,0 0.01995,0.00017 0.02986,0.0005c0.01354,0.02807 0.02558,0.057 0.03599,0.08669c-0.00021,0.00017 -0.00042,0.00033 -0.00063,0.0005c-0.05236,-0.02027 -0.10161,-0.0468 -0.14681,-0.07867c0.00215,-0.00184 0.0043,-0.00368 0.00643,-0.00554c0.01611,-0.00052 0.03209,-0.00155 0.04793,-0.00307zM1.05357,1.42027c0.01186,0.00102 0.02365,0.00228 0.03537,0.00377c-0.00644,0.01198 -0.01257,0.02415 -0.01837,0.03651c-0.00534,-0.0136 -0.01101,-0.02703 -0.017,-0.04028zM1.11046,1.38661c-0.00151,-0.00022 -0.00303,-0.00044 -0.00454,-0.00065c0.00206,-0.00065 0.00411,-0.00131 0.00616,-0.00198c-0.00054,0.00088 -0.00108,0.00175 -0.00162,0.00263zM0.59974,1.36781c0.01313,0.00522 0.02645,0.01009 0.03993,0.01459c-0.00006,0.00381 -0.00009,0.00763 -0.00009,0.01146c0,0.0161 0.00051,0.03209 0.00151,0.04794c-0.04033,0.01616 -0.07923,0.03513 -0.11646,0.05667c-0.05623,-0.01244 -0.11466,-0.019 -0.17463,-0.019c-0.02784,0 -0.05534,0.00141 -0.08245,0.00417c-0.00635,-0.01557 -0.01221,-0.03139 -0.01755,-0.04745l0,-0.08648c0.03289,0.00327 0.06625,0.00494 0.1,0.00494c0.03699,0 0.0735,-0.00201 0.10945,-0.00592c0.04544,0.01028 0.09232,0.01676 0.1403,0.01909zM0.58113,1.51315c0.02078,-0.01072 0.04204,-0.02063 0.06375,-0.02968c0.0002,0.00171 0.00041,0.00342 0.00063,0.00513c-0.00923,0.01203 -0.01814,0.02432 -0.0267,0.03686c-0.01242,-0.0044 -0.02499,-0.00851 -0.03769,-0.01231zM0.28456,1.52222c0.02157,-0.00183 0.0434,-0.00276 0.06544,-0.00276c0.04246,0 0.0841,0.00346 0.12468,0.01011c-0.03952,0.02643 -0.07685,0.05588 -0.11165,0.08802c-0.00762,0.0009 -0.01527,0.0017 -0.02295,0.00242c-0.02079,-0.03107 -0.03937,-0.06374 -0.05551,-0.09779zM0.43828,1.60568c0.02947,-0.02348 0.06049,-0.04509 0.09291,-0.06463c0.02192,0.00533 0.04347,0.0116 0.06461,0.01877c-0.05057,0.0196 -0.10321,0.03503 -0.15752,0.04586zM0.72748,1.45387c0.03273,-0.00987 0.06628,-0.01786 0.10052,-0.02385c-0.0432,0.03278 -0.08926,0.06197 -0.13775,0.08713c-0.001,-0.00572 -0.00193,-0.01145 -0.00279,-0.01722c0.01274,-0.01588 0.0261,-0.03125 0.04003,-0.04607zM0.72001,1.40429c-0.00481,0.00475 -0.00957,0.00955 -0.01426,0.01441c-0.00852,0.00268 -0.01698,0.00548 -0.02539,0.0084c-0.0005,-0.01082 -0.00075,-0.0217 -0.00076,-0.03263c0.01333,0.00363 0.02681,0.00691 0.04042,0.00982zM0.29445,1.62318c-0.01473,0.00067 -0.02955,0.00101 -0.04445,0.00101l0,-0.0815c0.01331,0.02774 0.02817,0.05461 0.04445,0.08049zM0.82404,1.36703c0.01398,-0.0106 0.02834,-0.02074 0.04305,-0.03039c0.02678,-0.00777 0.05299,-0.01687 0.07855,-0.02724c0.00198,0.00291 0.00395,0.00583 0.0059,0.00877c-0.02031,0.02188 -0.04164,0.0428 -0.0639,0.0627c-0.00311,0.00004 -0.00623,0.00006 -0.00935,0.00006c-0.01347,0 -0.02685,-0.00037 -0.04014,-0.00111c-0.00476,-0.0042 -0.00946,-0.00846 -0.0141,-0.01279zM0.76042,1.35991c0.00123,0.00132 0.00247,0.00264 0.00371,0.00396c-0.0026,0.00222 -0.00519,0.00445 -0.00777,0.00669c-0.0106,-0.00182 -0.02112,-0.00388 -0.03155,-0.00617c0.01195,-0.00124 0.02382,-0.00274 0.03561,-0.00449zM1.20109,1.21564c0.00644,-0.00074 0.01291,-0.0014 0.01941,-0.00198c0.00331,0.00325 0.00665,0.00648 0.01002,0.00967c-0.00989,-0.00235 -0.01971,-0.00492 -0.02943,-0.00769zM0.60838,1.32815c-0.00356,-0.00145 -0.0071,-0.00293 -0.01062,-0.00444c0.01561,-0.00398 0.03108,-0.00833 0.04639,-0.01303c-0.00066,0.00601 -0.00125,0.01204 -0.00177,0.0181c-0.00083,0 -0.00167,0 -0.0025,0c-0.01055,0 -0.02104,-0.00021 -0.03149,-0.00063zM0.68263,1.32762c0.00096,-0.01036 0.00214,-0.02066 0.00354,-0.03089c0.00575,-0.00205 0.01147,-0.00415 0.01717,-0.0063c0.0082,0.01135 0.01673,0.02245 0.02556,0.03329c-0.01529,0.00175 -0.03071,0.00306 -0.04626,0.0039zM1.03802,1.21045c-0.01463,0.00477 -0.02909,0.00995 -0.04334,0.01552c-0.0267,-0.01608 -0.05432,-0.03079 -0.08276,-0.04403c0.01775,-0.01208 0.03509,-0.02471 0.05199,-0.03788c0.02658,0.01925 0.05452,0.03675 0.08364,0.05233c-0.00313,0.00471 -0.00631,0.0094 -0.00953,0.01405zM0.867,1.21079c0.01576,0.01699 0.03083,0.03464 0.04516,0.05289c-0.02118,0.01116 -0.04181,0.02322 -0.06183,0.03614c-0.02447,0.0069 -0.04943,0.01262 -0.07482,0.01711c-0.01182,-0.01351 -0.02312,-0.02749 -0.03386,-0.04191c0.04345,-0.01851 0.08532,-0.04001 0.12535,-0.06424zM0.65539,1.23993c-0.00185,0.00888 -0.00354,0.01781 -0.00508,0.02679c-0.03589,0.01181 -0.07271,0.02156 -0.11033,0.02911c-0.0286,-0.01542 -0.05602,-0.03273 -0.0821,-0.05177c0.02696,0.00275 0.05431,0.00416 0.08199,0.00416c0.03923,0 0.0778,-0.00283 0.11552,-0.0083zM0.7182,1.24149c-0.00252,-0.00384 -0.005,-0.0077 -0.00744,-0.01159c0.02664,-0.00581 0.05278,-0.01295 0.07836,-0.02135c-0.02311,0.01191 -0.04676,0.0229 -0.07092,0.03294zM0.38882,1.24044c0.02809,0.02401 0.05797,0.04598 0.08941,0.0657c-0.00547,0.00073 -0.01095,0.00141 -0.01644,0.00205c-0.05768,-0.01358 -0.11287,-0.03361 -0.16476,-0.05928c0.03099,-0.00143 0.0616,-0.00428 0.09179,-0.00847zM0.34731,1.31463c-0.03285,-0.00009 -0.06532,-0.00183 -0.09731,-0.00514l0,-0.03996c0.03125,0.01708 0.06375,0.03217 0.09731,0.0451zM2.62414,0.78065c0.04475,0.01994 0.08692,0.04464 0.12586,0.07345v0.61658c-0.05489,-0.05346 -0.11834,-0.09818 -0.1881,-0.13189c0.00959,-0.04682 0.01462,-0.09529 0.01462,-0.14494c0,-0.09536 -0.01857,-0.18638 -0.05229,-0.26965c0.03785,-0.04425 0.07137,-0.09232 0.09991,-0.14355zM2.55251,1.37876c0.07025,0.0351 0.13351,0.08209 0.18716,0.13834c-0.07891,0.03187 -0.16264,0.05432 -0.24979,0.06596c-0.0028,-0.0103 -0.00582,-0.02052 -0.00904,-0.03064c0.03106,-0.05387 0.05534,-0.11215 0.07167,-0.17366zM2.49424,0.95751c0.02734,0.0736 0.04228,0.15323 0.04228,0.23635c0,0.04381 -0.00415,0.08665 -0.01208,0.12816c-0.06462,-0.02674 -0.13401,-0.04428 -0.20654,-0.05098c-0.01291,-0.01413 -0.02636,-0.02777 -0.04029,-0.04089c0.06903,-0.06377 0.12631,-0.14008 0.16822,-0.2253c0.01674,-0.01515 0.03289,-0.03094 0.04842,-0.04733zM2.35595,1.31603c0.05578,0.00868 0.10929,0.0242 0.15966,0.04566c-0.01249,0.04909 -0.03032,0.09605 -0.05285,0.14021c-0.0268,-0.06723 -0.06294,-0.12972 -0.10681,-0.18587zM2.17078,1.31272c0.0264,-0.00314 0.05327,-0.00475 0.08052,-0.00475c0.01595,0 0.03177,0.00055 0.04745,0.00164c0.06038,0.06898 0.10777,0.14962 0.13837,0.23809c-0.009,0.01471 -0.01855,0.02905 -0.02861,0.04299c-0.00532,0.00029 -0.01066,0.00054 -0.016,0.00075c-0.07585,-0.05865 -0.1616,-0.10511 -0.25431,-0.13647c0.00162,-0.02016 0.00245,-0.04054 0.00245,-0.06111c0,-0.02066 -0.00083,-0.04112 -0.00247,-0.06136c0.01104,-0.00633 0.02191,-0.01292 0.0326,-0.01978zM2.13378,1.49576c0.0682,0.02388 0.13236,0.05636 0.19118,0.09614c-0.07004,-0.00174 -0.13835,-0.01043 -0.20428,-0.02539c0.00546,-0.02319 0.00984,-0.04679 0.0131,-0.07075zM2.25932,1.26801c-0.00267,-0.00003 -0.00534,-0.00004 -0.00802,-0.00004c-0.00607,0 -0.01212,0.00008 -0.01815,0.00023c0.00479,-0.0038 0.00954,-0.00765 0.01424,-0.01155c0.00402,0.00375 0.008,0.00754 0.01194,0.01137zM1.83264,1.45351c0.00179,-0.00142 0.00359,-0.00283 0.0054,-0.00423c0.00339,-0.00008 0.00678,-0.00014 0.01018,-0.00017c0.00813,0.0085 0.01607,0.01719 0.02382,0.02606c-0.0133,-0.00694 -0.02644,-0.01416 -0.0394,-0.02165zM1.95268,1.5129c-0.01541,-0.02169 -0.03186,-0.04259 -0.04927,-0.06263c0.06623,0.00357 0.13042,0.01486 0.19166,0.03299c-0.00314,0.02497 -0.00757,0.04954 -0.01323,0.07364c-0.0443,-0.01188 -0.08742,-0.02662 -0.12917,-0.044zM2.09899,1.44273c-0.05237,-0.01499 -0.10676,-0.02523 -0.16265,-0.0302c0.05714,-0.01364 0.11179,-0.03368 0.16317,-0.05933c0.00076,0.01345 0.00114,0.02701 0.00114,0.04065c0,0.01643 -0.00056,0.03273 -0.00166,0.04888zM2.07505,1.20421c0.00734,0.02656 0.01317,0.05375 0.01741,0.08147c-0.08549,0.0194 -0.16516,0.05412 -0.23597,0.10112c-0.00426,0.00058 -0.00853,0.00112 -0.01282,0.00163c-0.009,-0.00839 -0.0182,-0.01658 -0.02758,-0.02456c0.03841,-0.04065 0.07216,-0.08575 0.10039,-0.13445c0.05436,-0.0036 0.10737,-0.01215 0.15857,-0.02521zM1.78774,1.39227c0.00022,0.00018 0.00044,0.00037 0.00065,0.00055c-0.00043,0.00002 -0.00086,0.00004 -0.00129,0.00005c0.00021,-0.0002 0.00043,-0.0004 0.00064,-0.0006zM2.24762,1.20337c-0.01651,-0.01397 -0.03362,-0.02726 -0.0513,-0.0398c0.05796,-0.02429 0.11276,-0.05463 0.16361,-0.09023c-0.03223,0.04768 -0.06997,0.09133 -0.11231,0.13003zM2.15102,1.18109c0.02293,0.01502 0.04494,0.03131 0.06595,0.04878c-0.0193,0.01577 -0.03942,0.03056 -0.06029,0.0443c-0.00836,0.00111 -0.01667,0.00236 -0.02493,0.00375c-0.00446,-0.02874 -0.01054,-0.05693 -0.01816,-0.08449c0.0126,-0.00384 0.02508,-0.00795 0.03744,-0.01234zM1.8686,1.23129c-0.02432,0.03855 -0.05239,0.0745 -0.0837,0.10734c-0.00358,-0.00275 -0.00718,-0.00547 -0.0108,-0.00817c0.00528,-0.03099 0.0088,-0.06258 0.01044,-0.09466c0.02392,-0.00064 0.04764,-0.00213 0.07111,-0.00445c0.00068,0 0.00136,0 0.00205,0c0.00364,0 0.00727,-0.00002 0.0109,-0.00007zM1.65897,1.23128c-0.00193,0.00827 -0.00372,0.01659 -0.00537,0.02497c-0.00919,-0.00461 -0.01847,-0.00904 -0.02785,-0.0133c0.01077,-0.00369 0.02143,-0.00762 0.03197,-0.01179c0.00042,0.00004 0.00084,0.00008 0.00125,0.00013zM1.6084,1.27901c0.01298,0.00588 0.02577,0.01211 0.03835,0.01867c-0.00075,0.00557 -0.00144,0.01116 -0.00207,0.01677c-0.01238,-0.01152 -0.02448,-0.02334 -0.03629,-0.03544zM1.68188,1.34744c0.00066,-0.00963 0.00152,-0.01921 0.00258,-0.02873c0.01558,0.00927 0.0308,0.01907 0.04565,0.02939c-0.00221,0.01082 -0.00464,0.02155 -0.0073,0.0322c-0.01392,-0.01061 -0.02757,-0.02157 -0.04092,-0.03286zM1.73764,1.30488c-0.01532,-0.01013 -0.031,-0.01976 -0.04703,-0.02886c0.00248,-0.01401 0.0054,-0.02786 0.00873,-0.04156c0.01496,0.00087 0.03,0.00141 0.04513,0.00161c-0.00126,0.02323 -0.00355,0.04618 -0.00683,0.06881zM1.47569,1.27698c0.00285,0.02055 0.00495,0.04133 0.00629,0.06232c-0.03902,-0.01602 -0.07633,-0.03534 -0.11159,-0.05761c0.00655,0.00017 0.01313,0.00026 0.01973,0.00026c0.02895,0 0.05751,-0.00169 0.08557,-0.00498zM1.52286,1.35466c-0.00062,-0.01426 -0.00158,-0.02843 -0.00287,-0.0425c0.01096,0.01797 0.02257,0.03551 0.03478,0.05257c-0.01074,-0.00312 -0.02138,-0.00648 -0.03191,-0.01007zM1.63907,1.38382c-0.00745,-0.01418 -0.01528,-0.02812 -0.02349,-0.04182c0.00831,0.00777 0.01674,0.01541 0.0253,0.02291c-0.00025,0.00635 -0.00043,0.01272 -0.00051,0.01912c-0.00043,-0.00007 -0.00086,-0.00014 -0.0013,-0.00021zM1.61751,1.44242c-0.01493,0.00425 -0.02969,0.00889 -0.04428,0.0139c-0.01695,-0.01144 -0.03359,-0.0233 -0.04991,-0.03556c0.00024,-0.00787 0.00037,-0.01576 0.0004,-0.02368c0.02314,0.00741 0.04676,0.01375 0.07081,0.01897c0.00749,0.00895 0.01515,0.01774 0.02299,0.02637zM1.48365,1.38301c0.00003,0.00223 0.00005,0.00447 0.00006,0.0067c-0.00514,-0.0042 -0.01025,-0.00845 -0.01532,-0.01274c0.00506,0.00206 0.01015,0.00408 0.01526,0.00603zM2.3711,1.63796c-0.00658,-0.00015 -0.01319,-0.00023 -0.01981,-0.00023c-0.06638,0 -0.13097,0.00764 -0.19295,0.02209c-0.02141,-0.00162 -0.04267,-0.0038 -0.06376,-0.00652c0.00581,-0.01578 0.01111,-0.03182 0.01588,-0.04808c0.07743,0.01768 0.15804,0.02701 0.24083,0.02701c0.00834,0 0.01665,-0.00009 0.02495,-0.00028c-0.0017,0.00201 -0.00341,0.00401 -0.00514,0.00601zM2.5025,1.63729c-0.00098,-0.00507 -0.00202,-0.01012 -0.0031,-0.01515c0.03639,-0.005 0.07221,-0.01182 0.10735,-0.02037c-0.0177,0.00858 -0.03575,0.01653 -0.05413,0.02384c-0.01657,0.00424 -0.03328,0.00813 -0.05012,0.01167zM2.46263,1.64499c-0.00277,-0.00036 -0.00555,-0.00072 -0.00833,-0.00105c-0.00548,-0.00511 -0.01102,-0.01014 -0.01663,-0.01511c0.00729,-0.00058 0.01456,-0.00123 0.02181,-0.00195c0.00132,0.00598 0.00257,0.01198 0.00374,0.01801c-0.0002,0.00003 -0.00039,0.00007 -0.00059,0.0001zM1.74175,1.45703c0.00565,-0.00079 0.01132,-0.00151 0.01701,-0.00219c0.00207,0.00136 0.00414,0.00272 0.00621,0.00407c-0.01227,0.0114 -0.02414,0.02322 -0.03558,0.03544c-0.00039,-0.00032 -0.00078,-0.00065 -0.00116,-0.00097c0.00479,-0.01198 0.0093,-0.0241 0.01352,-0.03635zM1.76086,1.51928c0.0126,-0.01333 0.02574,-0.02614 0.03938,-0.03841c0.04045,0.02412 0.08262,0.04566 0.12627,0.06441c0.01916,0.02782 0.03655,0.05697 0.05199,0.08726c-0.00955,-0.00219 -0.01906,-0.0045 -0.02853,-0.00692c-0.06801,-0.02704 -0.13153,-0.06296 -0.18911,-0.10634zM2.02795,1.64281c-0.01151,-0.02495 -0.02425,-0.04921 -0.03814,-0.07271c0.02679,0.00954 0.05407,0.01805 0.08179,0.02547c-0.00519,0.01756 -0.01104,0.03484 -0.01752,0.0518c-0.00874,-0.00143 -0.01745,-0.00295 -0.02613,-0.00457zM1.64597,1.49717c0.00072,0.00195 0.00144,0.00389 0.00215,0.00585c-0.00207,-0.00119 -0.00413,-0.00238 -0.00619,-0.00358c0.00135,-0.00075 0.0027,-0.00151 0.00404,-0.00227zM1.39347,1.21743c0.02527,0.00338 0.05015,0.00798 0.07458,0.01374c0.00041,0.00209 0.00081,0.00419 0.0012,0.00629c-0.02597,0.00298 -0.05237,0.00451 -0.07914,0.00451c-0.00793,0 -0.01582,-0.00013 -0.02369,-0.0004c0.00921,-0.00783 0.01822,-0.01588 0.02704,-0.02414zM1.31919,1.21323c0.00088,-0.00068 0.00176,-0.00135 0.00264,-0.00203c0.00584,0.00024 0.01167,0.00054 0.01748,0.0009c-0.00632,0.00535 -0.01274,0.0106 -0.01925,0.01574c-0.00162,-0.00194 -0.00323,-0.00388 -0.00484,-0.00583c0.00134,-0.00292 0.00266,-0.00585 0.00397,-0.00879zM1.567,1.21899c-0.00266,-0.00096 -0.00533,-0.00192 -0.008,-0.00285c0.00356,0.00073 0.00713,0.00144 0.01071,0.00213c-0.0009,0.00024 -0.0018,0.00049 -0.00271,0.00072zM2.0334,0.31203c0.02333,0.06182 0.038,0.12789 0.04253,0.19673c-0.01042,-0.00332 -0.02095,-0.0064 -0.03157,-0.00925c0.00106,-0.01637 0.0016,-0.03287 0.0016,-0.04951c0,-0.04712 -0.00431,-0.09323 -0.01256,-0.13797zM2.04067,0.53998c0.0124,0.00346 0.02466,0.00727 0.03677,0.01141c0.00001,0.00108 0.00001,0.00217 0.00001,0.00325c0,0.06787 -0.00984,0.13344 -0.02816,0.19537c-0.01424,0.00669 -0.02823,0.01384 -0.04194,0.02144c-0.00247,-0.0187 -0.00566,-0.03718 -0.00953,-0.05541c0.021,-0.05584 0.03558,-0.11483 0.04285,-0.17606zM2.01176,0.81498c0.00625,-0.00368 0.01257,-0.00725 0.01895,-0.01073c-0.00538,0.01381 -0.0112,0.02739 -0.01743,0.04075c-0.0003,-0.01006 -0.00081,-0.02007 -0.00152,-0.03002zM1.7158,1.07467c-0.01563,0.03105 -0.02904,0.0634 -0.04004,0.09685c-0.03082,-0.00683 -0.06099,-0.01537 -0.09043,-0.02549c0.046,-0.01954 0.08967,-0.0435 0.13047,-0.07136zM1.7238,1.15567c0.00542,-0.01427 0.01131,-0.02831 0.01766,-0.0421c0.00105,0.01008 0.0019,0.02021 0.00255,0.0304c-0.00667,0.00401 -0.01341,0.00791 -0.02022,0.0117zM1.97164,0.91935c-0.01338,-0.01638 -0.02744,-0.03219 -0.04214,-0.04737c0.01406,-0.01138 0.0286,-0.0222 0.04356,-0.03244c0.00036,0.00914 0.00055,0.01832 0.00055,0.02755c0,0.01758 -0.00066,0.03501 -0.00197,0.05226zM1.96973,0.79381c-0.00318,0.00203 -0.00634,0.00408 -0.00949,0.00615c0.00284,-0.00542 0.00561,-0.01089 0.00832,-0.01639c0.00041,0.0034 0.0008,0.00681 0.00117,0.01023zM1.77526,1.06422c0.02377,0.00057 0.04725,0.00229 0.07039,0.00512c-0.02013,0.01783 -0.04131,0.03449 -0.06344,0.04989c-0.0017,-0.01852 -0.00402,-0.03687 -0.00695,-0.05501zM1.88247,1.03422c-0.02998,-0.00496 -0.06055,-0.00816 -0.09161,-0.0095c0.00513,-0.00777 0.01042,-0.01544 0.01586,-0.02298c0.03357,-0.03144 0.06427,-0.06592 0.09166,-0.10298c0.00024,-0.00022 0.00048,-0.00044 0.00073,-0.00066c0.01758,0.01804 0.0342,0.03702 0.04979,0.05684c-0.02015,0.02808 -0.04237,0.05459 -0.06643,0.07928zM1.52854,1.16747c0.00159,0.00065 0.00319,0.00129 0.00478,0.00192c-0.00203,-0.00049 -0.00405,-0.00099 -0.00607,-0.0015c0.00043,-0.00014 0.00086,-0.00028 0.00128,-0.00043zM2.48407,0.66709c0,0.00939 -0.00018,0.01874 -0.00053,0.02805c-0.03903,-0.00734 -0.07918,-0.01149 -0.12018,-0.01218c-0.06971,-0.069 -0.15346,-0.12383 -0.24658,-0.15982c-0.00414,-0.0972 -0.02736,-0.18946 -0.06601,-0.27314l0.3017,0c0.08293,0.11804 0.13161,0.26188 0.13161,0.41709zM2.40239,0.72477c0.02664,0.00201 0.05284,0.00557 0.07852,0.01059c-0.00253,0.02713 -0.00655,0.05383 -0.01198,0.08001c-0.01983,-0.03196 -0.04209,-0.06224 -0.06654,-0.0906zM2.08218,0.77901c0.08102,-0.03551 0.1704,-0.05548 0.26437,-0.05613c0.0425,0.0441 0.07908,0.09393 0.10848,0.14823c-0.00273,0.00934 -0.00564,0.0186 -0.00873,0.02778c-0.08884,0.09424 -0.19681,0.17025 -0.3177,0.22182c-0.01623,-0.00911 -0.03282,-0.01764 -0.04976,-0.02556c-0.01978,-0.04553 -0.04394,-0.08872 -0.07195,-0.12904c0.00143,-0.01048 0.00264,-0.02103 0.00362,-0.03164c0.02967,-0.04837 0.05385,-0.10047 0.07166,-0.15544zM2.30617,0.68427c-0.0736,0.00461 -0.14417,0.02042 -0.21001,0.04574c0.013,-0.0525 0.02029,-0.10724 0.02119,-0.16354c0.06952,0.0288 0.13321,0.06882 0.18882,0.11781zM1.97605,1.09778c0.0246,0.00784 0.04862,0.01696 0.07199,0.02729c0.00308,0.00754 0.00604,0.01514 0.00887,0.0228c-0.03681,0.01226 -0.07462,0.02232 -0.11328,0.03002c0.01234,-0.02589 0.02318,-0.05263 0.03242,-0.08011zM2.02372,1.07196c-0.01185,-0.00444 -0.02385,-0.00859 -0.03597,-0.01244c0.00327,-0.01187 0.00624,-0.02385 0.0089,-0.03595c0.00963,0.01574 0.01866,0.03188 0.02707,0.0484zM2.57899,0.7201c-0.01827,-0.00617 -0.03688,-0.01162 -0.05579,-0.01632c0.00057,-0.01216 0.00086,-0.02439 0.00086,-0.03669c0,-0.15382 -0.04532,-0.29706 -0.12333,-0.41709l0.2872,0c0.00428,0.03428 0.00648,0.0692 0.00648,0.10464c0,0.01149 -0.00023,0.02292 -0.00069,0.03429c-0.01752,0.11905 -0.05721,0.23088 -0.11473,0.33117zM2.52023,0.7443c0.01268,0.00329 0.02521,0.00694 0.03758,0.01094c-0.01574,0.02488 -0.03262,0.04898 -0.05055,0.07221c0.00579,-0.02721 0.01014,-0.05496 0.01296,-0.08315zM1.7856,1.1883c-0.00005,-0.00764 -0.00021,-0.01525 -0.00047,-0.02284c0.03978,-0.02578 0.07688,-0.05533 0.1108,-0.08816c0.01403,0.00273 0.02792,0.00587 0.04164,0.00941c-0.01171,0.03453 -0.0261,0.06782 -0.04293,0.09962c-0.01355,0.00196 -0.0272,0.00364 -0.04093,0.00503c-0.02293,-0.00011 -0.04565,-0.00114 -0.06811,-0.00305zM1.9493,1.04841c-0.00681,-0.00177 -0.01365,-0.00345 -0.02053,-0.00504c0.0105,-0.01156 0.02062,-0.02346 0.03037,-0.03568c-0.00287,0.01373 -0.00615,0.0273 -0.00983,0.04071zM1.63266,0.2755c-0.02415,0.02525 -0.04678,0.05198 -0.06772,0.08004c-0.00104,-0.00229 -0.00209,-0.00458 -0.00316,-0.00686c0.00461,-0.03223 0.007,-0.06517 0.007,-0.09867h0.01559c0.01647,0.00787 0.03258,0.01638 0.04829,0.0255zM1.62808,0.51248c-0.00369,0.00124 -0.00737,0.00252 -0.01104,0.00382c-0.00821,-0.04044 -0.01965,-0.0797 -0.03406,-0.1175c0.01937,-0.02759 0.0404,-0.05392 0.06295,-0.07886c0.00059,0.01149 0.00088,0.02306 0.00088,0.03469c0,0.05438 -0.00649,0.10724 -0.01874,0.15785zM1.39537,0.85861c-0.00003,0.00282 -0.00004,0.00565 -0.00004,0.00847c0,0.00336 0.00002,0.00671 0.00006,0.01005c-0.00102,0.00082 -0.00205,0.00163 -0.00308,0.00245c0.00006,-0.00416 0.00009,-0.00833 0.00009,-0.0125c0,-0.0004 0,-0.0008 0,-0.0012c0.001,-0.00242 0.00199,-0.00485 0.00297,-0.00728zM1.57706,0.65232c-0.01609,-0.01778 -0.03297,-0.03485 -0.05057,-0.05114c0.01922,-0.01076 0.03901,-0.02062 0.05932,-0.02951c0.00226,0.01692 0.00393,0.03403 0.00498,0.05131c-0.00435,0.00991 -0.00893,0.01969 -0.01373,0.02933zM1.57917,0.53098c-0.02918,0.01228 -0.05739,0.02642 -0.08446,0.04229c-0.00123,-0.00103 -0.00246,-0.00205 -0.0037,-0.00306c0.00087,-0.00224 0.00176,-0.00447 0.00265,-0.0067c0.01018,-0.01994 0.01942,-0.04044 0.02766,-0.06144c0.01052,-0.021 0.02192,-0.04149 0.03416,-0.0614c0.00979,0.0293 0.01774,0.05945 0.02369,0.09031zM1.45543,0.68629c0.03219,0.00293 0.06376,0.00801 0.09456,0.0151c-0.03162,0.05202 -0.07014,0.09939 -0.11429,0.14082c0.0016,-0.05342 0.00833,-0.10556 0.01973,-0.15592zM1.46792,0.63802c0.00749,-0.00526 0.01509,-0.01037 0.02279,-0.01533c0.01176,0.01055 0.02319,0.02147 0.03427,0.03272c-0.01962,-0.00356 -0.03951,-0.00636 -0.05964,-0.00836c0.00084,-0.00302 0.0017,-0.00602 0.00258,-0.00903zM1.31402,1.04247c-0.00515,-0.00304 -0.01034,-0.00603 -0.01556,-0.00896c-0.00001,-0.00004 -0.00001,-0.00008 -0.00002,-0.00012c0.00054,-0.00074 0.00107,-0.00147 0.0016,-0.00221c0.00462,0.00381 0.00928,0.00758 0.01397,0.01129zM2.00486,0.49011c-0.03444,-0.00716 -0.06978,-0.01187 -0.10583,-0.01391c-0.0528,-0.08208 -0.12174,-0.15279 -0.20233,-0.20764c0.0068,-0.0063 0.0137,-0.01249 0.02071,-0.01856l0.26024,0c0.01843,0.06347 0.02831,0.13058 0.02831,0.2c0,0.01346 -0.00037,0.02683 -0.0011,0.04011zM1.92411,0.51824c0.02627,0.00255 0.0521,0.0066 0.07741,0.01206c-0.0044,0.0394 -0.01199,0.07783 -0.02252,0.11503c-0.01428,-0.04439 -0.03273,-0.0869 -0.05489,-0.12709zM1.68541,0.30943c0.0639,0.04538 0.11967,0.10147 0.16468,0.16564c-0.0615,0.00064 -0.12115,0.009 -0.17803,0.02416c0.00968,-0.04668 0.01477,-0.09504 0.01477,-0.14459c0,-0.01519 -0.00048,-0.03026 -0.00142,-0.04521zM1.66127,0.54388c0.06218,-0.01877 0.12812,-0.02885 0.19643,-0.02885c0.0062,0 0.01238,0.00008 0.01854,0.00025c0.03634,0.06042 0.06361,0.12692 0.07991,0.19762c-0.01716,0.04344 -0.03845,0.0848 -0.06338,0.1236c-0.07482,-0.06752 -0.1633,-0.12019 -0.2608,-0.15335c0.00011,-0.00534 0.00017,-0.01069 0.00017,-0.01605c0,-0.01237 -0.0003,-0.02467 -0.00089,-0.03689c0.01179,-0.0279 0.02185,-0.05672 0.03003,-0.08632zM1.63741,0.72754c0.0868,0.03223 0.16559,0.08093 0.23258,0.1423c-0.00051,0.00071 -0.00103,0.00141 -0.00154,0.00212c-0.03382,0.03131 -0.06459,0.06586 -0.09182,0.10317c-0.00555,0.00514 -0.01118,0.0102 -0.01688,0.01516c-0.02484,-0.09562 -0.06677,-0.18436 -0.12233,-0.26275zM1.50038,1.11144c0.04539,-0.01741 0.09299,-0.03034 0.14226,-0.03827c-0.03578,0.02028 -0.07348,0.03758 -0.11275,0.05153c-0.00994,-0.00424 -0.01977,-0.00866 -0.02951,-0.01326zM1.71643,1.02512c-0.06802,0.00365 -0.13365,0.01625 -0.19575,0.03665c0.05211,-0.08464 0.08796,-0.18036 0.10321,-0.28281c0.0466,0.07236 0.08136,0.15305 0.10156,0.23936c-0.00298,0.00229 -0.00599,0.00456 -0.00901,0.0068zM1.39838,0.93988c-0.00203,-0.00339 -0.00409,-0.00676 -0.00616,-0.01012c0.00171,-0.00123 0.00341,-0.00247 0.00511,-0.00372c0.00031,0.00462 0.00067,0.00924 0.00105,0.01384zM1.5839,0.72261c0.00185,0.00238 0.00369,0.00476 0.00551,0.00716c-0.0111,0.12756 -0.05574,0.24551 -0.12506,0.34498c-0.00209,-0.00539 -0.00423,-0.01076 -0.00642,-0.0161c-0.01264,-0.05253 -0.02019,-0.10704 -0.02212,-0.16297c0.05816,-0.04923 0.10827,-0.10767 0.14809,-0.17306zM1.34718,0.9597c-0.00199,0.0175 -0.00453,0.03484 -0.00761,0.05198c-0.00566,-0.00447 -0.01126,-0.00901 -0.0168,-0.01362c0.00799,-0.01227 0.01565,-0.02478 0.02298,-0.0375c0.00047,-0.00029 0.00095,-0.00058 0.00142,-0.00087zM1.3752,1.03831c0.00128,-0.00626 0.00249,-0.01255 0.00362,-0.01887c0.00523,0.01093 0.01065,0.02176 0.01624,0.03249c-0.00669,-0.00445 -0.01331,-0.00899 -0.01986,-0.01362zM1.28083,0.95096c-0.00664,-0.02552 -0.0143,-0.05062 -0.02294,-0.07527c0.00623,-0.01171 0.01279,-0.02322 0.01967,-0.03452c0.0183,0.02109 0.03556,0.0431 0.05172,0.06595c-0.00423,0.00825 -0.0086,0.01642 -0.01312,0.0245c-0.01156,0.00679 -0.02335,0.01323 -0.03534,0.01933zM1.30024,0.80639c0.00075,-0.00108 0.0015,-0.00215 0.00226,-0.00322c0.00062,0.00265 0.00126,0.00529 0.0019,0.00793c-0.00138,-0.00157 -0.00277,-0.00314 -0.00416,-0.00471zM1.38596,0.76186c-0.00157,-0.01272 -0.00341,-0.02536 -0.00553,-0.0379c0.00664,-0.00704 0.01314,-0.01421 0.01949,-0.02152c-0.00389,0.0201 -0.00855,0.03992 -0.01395,0.05943zM1.34523,0.75868c0.0033,0.02476 0.00549,0.04988 0.00651,0.0753c-0.00611,-0.0219 -0.01152,-0.0441 -0.0162,-0.06656c0.00326,-0.00288 0.00649,-0.00579 0.00969,-0.00873zM1.16614,0.94499c-0.00259,0.00855 -0.0053,0.01705 -0.00812,0.02549c-0.00122,-0.00042 -0.00244,-0.00084 -0.00366,-0.00125c-0.00098,-0.00207 -0.00195,-0.00414 -0.00292,-0.00621c0.00499,-0.00594 0.00989,-0.01195 0.0147,-0.01803zM1.21297,0.98083c0.00259,-0.00784 0.00531,-0.01561 0.00818,-0.02332c0.00463,0.00489 0.00933,0.00973 0.01407,0.01452c-0.00735,0.00306 -0.01477,0.006 -0.02225,0.0088zM1.25341,1.00993c-0.00079,-0.00038 -0.00158,-0.00077 -0.00237,-0.00115c0.00066,-0.00027 0.00132,-0.00055 0.00197,-0.00083c0.00013,0.00066 0.00027,0.00132 0.0004,0.00198zM1.12552,1.00691c-0.00297,0.00067 -0.00595,0.00132 -0.00894,0.00194c-0.0008,-0.0015 -0.00159,-0.003 -0.00238,-0.0045c0.00124,-0.00129 0.00248,-0.00258 0.00371,-0.00387c0.00252,0.00215 0.00506,0.0043 0.00761,0.00643zM1.06036,1.05848c0.01188,-0.00137 0.02367,-0.00303 0.03536,-0.00499c0.00555,0.00949 0.0113,0.01884 0.01724,0.02806c-0.00888,0.01846 -0.01834,0.03658 -0.02834,0.05436c-0.02632,-0.00787 -0.052,-0.01722 -0.07695,-0.02795c0.01816,-0.01586 0.03573,-0.03237 0.0527,-0.04949zM1.12446,1.14658c0.00495,-0.00901 0.00977,-0.0181 0.01444,-0.02728c0.00111,0.00151 0.00222,0.00302 0.00334,0.00453c-0.00068,0.00707 -0.00126,0.01417 -0.00174,0.0213c-0.00159,0.00135 -0.00318,0.00269 -0.00478,0.00402c-0.00377,-0.00083 -0.00752,-0.00169 -0.01126,-0.00257zM1.26763,1.10597c0.00186,0.0197 0.00311,0.03958 0.00371,0.05961c-0.01295,-0.01771 -0.02544,-0.03579 -0.03744,-0.05421c0.00507,-0.00541 0.01007,-0.01089 0.01499,-0.01643c0.0062,0.00374 0.01245,0.00742 0.01874,0.01103zM1.21461,1.07327c-0.00091,0.001 -0.00181,0.002 -0.00272,0.003c-0.00161,-0.00267 -0.00321,-0.00535 -0.00481,-0.00803c0.0025,0.00169 0.00501,0.00336 0.00753,0.00503zM1.28781,0.72947c0.00117,0.00717 0.00241,0.01431 0.00372,0.02143c-0.00106,0.00136 -0.00212,0.00272 -0.00318,0.00409c-0.00523,0.00425 -0.01053,0.00843 -0.01589,0.01252c0.00543,-0.01251 0.01055,-0.0252 0.01535,-0.03803zM1.3981,0.64113c-0.00088,0.00073 -0.00176,0.00147 -0.00264,0.00221c-0.00178,-0.00001 -0.00356,-0.00002 -0.00534,-0.00002c-0.00912,0 -0.01821,0.00016 -0.02726,0.00049c-0.0086,-0.03178 -0.01899,-0.06282 -0.03106,-0.09301c0.00058,-0.00461 0.00112,-0.00923 0.00162,-0.01386c0.00132,-0.00714 0.00256,-0.01432 0.00372,-0.02151c0.02658,0.01409 0.05223,0.02969 0.07683,0.04669c-0.0002,0.02063 -0.0012,0.04106 -0.00298,0.06128c-0.0042,0.00598 -0.0085,0.0119 -0.0129,0.01773zM1.41293,0.51339c-0.02256,-0.01444 -0.04589,-0.02779 -0.06991,-0.03998c0.00461,-0.03895 0.00698,-0.07859 0.00698,-0.11878c0,-0.02192 -0.0007,-0.04367 -0.00209,-0.06523c0.00258,-0.00978 0.0053,-0.01951 0.00815,-0.02918c0.03239,0.07871 0.05219,0.16394 0.05687,0.25317zM1.31752,0.63087c0.00156,0.00515 0.00307,0.01031 0.00453,0.0155c-0.00144,0.00013 -0.00288,0.00026 -0.00432,0.0004c-0.00036,-0.00414 -0.0007,-0.00829 -0.00102,-0.01244c0.00027,-0.00115 0.00054,-0.00231 0.00081,-0.00346zM1.33523,0.70016c-0.00332,0.00351 -0.00661,0.00706 -0.00986,0.01064c-0.00122,-0.00805 -0.00234,-0.01614 -0.00337,-0.02425c0.00335,-0.00032 0.0067,-0.00061 0.01006,-0.00089c0.0011,0.00482 0.00215,0.00965 0.00317,0.01449zM1.52789,0.28436c-0.00688,-0.01166 -0.01407,-0.02311 -0.02155,-0.03436l0.02244,0c0,0.01152 -0.0003,0.02298 -0.00089,0.03436zM1.52038,0.3548c-0.00736,0.04543 -0.01942,0.08928 -0.03567,0.13104c-0.00956,0.01918 -0.01841,0.03876 -0.02654,0.05872c-0.00142,-0.00105 -0.00284,-0.00209 -0.00426,-0.00313c-0.00164,-0.10291 -0.02237,-0.20118 -0.05881,-0.29143h0.06257c0.02375,0.03294 0.04477,0.06798 0.06271,0.1048zM1.29219,0.35483c-0.00542,0.02891 -0.00969,0.05822 -0.01275,0.0879c-0.01188,-0.02067 -0.02461,-0.04079 -0.03813,-0.06032c0.00573,-0.04332 0.00869,-0.08752 0.00869,-0.13241l0.02145,0c0.00929,0.03405 0.01626,0.06905 0.02074,0.10483zM1.24664,0.69782c0.00007,-0.00001 0.00014,-0.00003 0.00021,-0.00004c-0.00008,0.0002 -0.00015,0.0004 -0.00023,0.00061c0.00001,-0.00019 0.00001,-0.00037 0.00002,-0.00056zM1.26235,0.65416c-0.00512,0.00088 -0.01021,0.00181 -0.0153,0.00279c-0.00065,-0.06471 -0.00745,-0.12795 -0.01987,-0.18915c0.00863,0.00296 0.01719,0.00606 0.02568,0.00932c0.00753,0.01373 0.01467,0.02771 0.02141,0.04191c-0.00038,0.01183 -0.00058,0.0237 -0.00058,0.03562c0,0.01915 0.0005,0.03819 0.00149,0.0571c-0.00396,0.01428 -0.00824,0.02842 -0.01283,0.04242zM1.12505,0.73442c0.00655,-0.00264 0.01315,-0.00518 0.0198,-0.00762c0.01714,0.0291 0.03272,0.05923 0.04664,0.09027c-0.00085,0.00154 -0.00169,0.00307 -0.00255,0.0046c-0.00622,0.00339 -0.01251,0.00668 -0.01885,0.00987c-0.01891,-0.02721 -0.03624,-0.05559 -0.05186,-0.08502c0.0023,-0.00401 0.00457,-0.00805 0.00682,-0.0121zM1.20711,0.6658c-0.01515,0.0038 -0.03012,0.00805 -0.04489,0.01276c-0.00161,-0.00254 -0.00324,-0.00507 -0.00487,-0.00759c0.01673,-0.036 0.03138,-0.07317 0.0438,-0.11134c0.00389,0.03486 0.00592,0.07028 0.00596,0.10617zM1.19902,0.70932c0.00242,-0.00067 0.00484,-0.00133 0.00726,-0.00198c-0.00011,0.00257 -0.00022,0.00513 -0.00035,0.00769c-0.00229,-0.00192 -0.0046,-0.00382 -0.00691,-0.00571zM1.09431,0.78609c0.01213,0.02142 0.02514,0.04228 0.03897,0.06252c-0.00818,0.00349 -0.01645,0.00682 -0.0248,0.00998c-0.00738,-0.02064 -0.01422,-0.04154 -0.0205,-0.06269c0.00213,-0.00326 0.00423,-0.00653 0.00632,-0.00981zM1.06133,0.87439c-0.00283,-0.00954 -0.00548,-0.01915 -0.00793,-0.02885c0.00191,-0.00258 0.00382,-0.00516 0.00571,-0.00776c0.00369,0.01134 0.00753,0.02261 0.01153,0.03381c-0.00309,0.00096 -0.00619,0.00189 -0.00931,0.0028zM0.63448,1.17342c0.00429,0.00917 0.00877,0.01823 0.01342,0.02718c-0.03529,0.00503 -0.07136,0.00764 -0.10803,0.00764c-0.00098,0 -0.00196,0 -0.00294,-0.00001c0.03328,-0.00995 0.06583,-0.02159 0.09755,-0.03481zM0.85354,1.14051c-0.01909,-0.01794 -0.03897,-0.03505 -0.0596,-0.05125c0.01571,-0.0102 0.03112,-0.02084 0.04621,-0.03188c0.02464,0.01828 0.05043,0.0351 0.07725,0.05033c-0.02069,0.0119 -0.04199,0.02285 -0.06385,0.0328zM0.71929,1.15909c0.01763,0.00382 0.03505,0.00819 0.05224,0.0131c-0.02031,0.00651 -0.041,0.01219 -0.06202,0.01699c0.00304,-0.01013 0.0063,-0.02016 0.00978,-0.03009zM0.78689,1.13498c-0.01579,-0.00459 -0.03177,-0.00876 -0.04791,-0.01248c0.00626,-0.00351 0.01247,-0.00709 0.01864,-0.01074c0.00993,0.00753 0.01969,0.01527 0.02927,0.02322zM0.67885,1.15363c-0.00132,0.00391 -0.00261,0.00784 -0.00387,0.01178c-0.00131,-0.0027 -0.00261,-0.00541 -0.00388,-0.00813c0.00259,-0.0012 0.00517,-0.00242 0.00775,-0.00364zM1.15047,0.88478c-0.00664,0.01 -0.01346,0.01987 -0.02046,0.02961c-0.00253,-0.00609 -0.005,-0.01221 -0.00743,-0.01835c0.0094,-0.00356 0.0187,-0.00731 0.02789,-0.01126zM1.08472,0.90911c0.00131,0.00333 0.00264,0.00665 0.00398,0.00997c-0.00284,-0.00284 -0.00567,-0.0057 -0.00847,-0.00858c0.0015,-0.00046 0.003,-0.00092 0.0045,-0.00139zM0.94732,0.96676c0.03828,0.0032 0.07581,0.00902 0.11242,0.01731c0.00171,0.00376 0.00345,0.00751 0.00522,0.01123c-0.0036,0.00401 -0.00723,0.008 -0.0109,0.01195c-0.00482,0.00445 -0.00971,0.00885 -0.01465,0.01317c-0.02013,0.00183 -0.04053,0.00276 -0.06114,0.00276c-0.02957,0 -0.05869,-0.00192 -0.08724,-0.00564c0.0194,-0.01622 0.03817,-0.03316 0.05628,-0.05078zM1.04107,0.9393c-0.01639,-0.00315 -0.03295,-0.00582 -0.04966,-0.00802c0.01468,-0.00242 0.0292,-0.0053 0.04355,-0.00863c0.00197,0.00558 0.00401,0.01113 0.00611,0.01665zM0.94146,1.07535c-0.00536,-0.00462 -0.01064,-0.00932 -0.01585,-0.0141c0.01739,0.00128 0.03496,0.00193 0.05267,0.00193c0.00258,0 0.00517,-0.00001 0.00774,-0.00004c-0.00965,0.00703 -0.01947,0.01384 -0.02945,0.02042c-0.00507,-0.00268 -0.01011,-0.00541 -0.01511,-0.00821zM0.25219,1.19482c-0.00073,0.00078 -0.00146,0.00156 -0.00219,0.00234l0,-0.00319c0.00073,0.00028 0.00146,0.00057 0.00219,0.00085zM1.20626,0.33532c-0.0091,-0.01139 -0.0185,-0.02255 -0.02816,-0.03346c-0.00609,-0.01546 -0.01255,-0.03073 -0.01938,-0.0458c0.00139,-0.00203 0.0028,-0.00405 0.00421,-0.00606l0.04707,0c0,0.02875 -0.00126,0.05721 -0.00374,0.08532zM1.09669,0.70285c-0.00001,0.00001 -0.00002,0.00001 -0.00004,0.00002c-0.00391,-0.00853 -0.00768,-0.01714 -0.01131,-0.02583c0.00627,0.0039 0.01248,0.00788 0.01863,0.01195c-0.00239,0.00464 -0.00482,0.00927 -0.00729,0.01386zM1.07472,0.6242c-0.00383,-0.00217 -0.00767,-0.0043 -0.01153,-0.00641c-0.00143,-0.00432 -0.00283,-0.00866 -0.00419,-0.01301c0.00532,0.0064 0.01056,0.01288 0.01572,0.01942zM1.13087,0.63227c-0.02636,-0.03659 -0.05523,-0.07125 -0.08635,-0.10373c0.00638,-0.03304 0.015,-0.06529 0.0257,-0.09657c0.03867,0.00462 0.07645,0.01211 0.11314,0.02226c0.00083,0.00366 0.00164,0.00732 0.00243,0.01099c-0.01325,0.05785 -0.03173,0.11371 -0.05491,0.16705zM1.17217,0.40995c-0.02861,-0.00705 -0.05783,-0.01258 -0.08755,-0.01649c0.01232,-0.03029 0.02663,-0.05955 0.04277,-0.08764c0.00543,0.00568 0.01078,0.01144 0.01604,0.01728c0.01091,0.02833 0.02052,0.0573 0.02874,0.08685zM1.09809,0.27667c-0.02118,0.03571 -0.03955,0.07329 -0.05479,0.11243c-0.00127,-0.0001 -0.00254,-0.0002 -0.00381,-0.00029c0.00234,-0.04702 0.00735,-0.09334 0.01489,-0.13881l0.0141,0c0.01009,0.00865 0.01996,0.01754 0.02961,0.02667zM0.81424,0.32211c-0.00179,-0.0238 -0.00271,-0.04785 -0.00271,-0.07211l0.10069,0c-0.03471,0.0213 -0.06748,0.04544 -0.09799,0.07211zM1.04211,0.79252c-0.00097,-0.00556 -0.00187,-0.01115 -0.00271,-0.01675c0.00038,-0.00022 0.00077,-0.00044 0.00115,-0.00065c0.00126,0.0047 0.00254,0.00938 0.00385,0.01405c-0.00076,0.00112 -0.00152,0.00224 -0.00229,0.00335zM0.98154,0.38653c-0.00109,0 -0.00217,-0.00001 -0.00326,-0.00001c-0.03271,0 -0.06497,0.00195 -0.09666,0.00573c-0.01654,-0.01099 -0.03344,-0.02148 -0.05068,-0.03146c0.04651,-0.0422 0.09885,-0.07809 0.15568,-0.1063c-0.00374,0.03286 -0.00566,0.06628 -0.00566,0.10014c0,0.01068 0.00019,0.02131 0.00057,0.03189zM0.93174,0.42791c0.0154,-0.00092 0.03091,-0.00139 0.04654,-0.00139c0.00187,0 0.00373,0.00001 0.0056,0.00002c0.00133,0.01636 0.0031,0.03258 0.00532,0.04867c-0.01852,-0.01649 -0.03769,-0.03227 -0.05746,-0.04731zM0.99167,0.80547c0.00359,-0.00243 0.0072,-0.00484 0.01084,-0.00721c0.00169,0.00979 0.00356,0.01952 0.00562,0.02919c-0.00559,-0.00724 -0.01108,-0.01457 -0.01646,-0.02198zM0.99629,0.75483c-0.00928,0.00573 -0.01843,0.01166 -0.02744,0.01779c-0.03926,-0.05914 -0.07205,-0.12295 -0.09735,-0.19042c0.04169,0.01188 0.08207,0.02688 0.12086,0.04474c-0.00069,0.0133 -0.00103,0.02669 -0.00103,0.04016c0,0.02967 0.00169,0.05895 0.00497,0.08774zM0.99571,0.58456c-0.04484,-0.01975 -0.09163,-0.03587 -0.14001,-0.04801c-0.00993,-0.03128 -0.01827,-0.06326 -0.02494,-0.09586c0.01354,-0.00264 0.0272,-0.00492 0.04099,-0.00683c0.04626,0.03182 0.08947,0.06775 0.12911,0.10727c0.00015,0.00067 0.00029,0.00135 0.00044,0.00202c-0.00223,0.01368 -0.00409,0.02749 -0.00558,0.04141zM0.58928,0.30345c0.03627,0.00972 0.07166,0.0216 0.10602,0.0355c-0.01086,0.03502 -0.01915,0.07118 -0.02463,0.10825c-0.03284,0.01354 -0.06458,0.02919 -0.09507,0.04677c-0.00088,-0.01454 -0.00133,-0.0292 -0.00133,-0.04396c0,-0.05023 0.00517,-0.09925 0.01501,-0.14655zM0.62974,0.51006c0.0117,-0.00598 0.02358,-0.01166 0.03562,-0.01705c-0.00029,0.00344 -0.00055,0.00688 -0.00079,0.01033c-0.00134,0.00229 -0.00266,0.00459 -0.00397,0.0069c-0.00689,-0.00016 -0.0138,-0.00024 -0.02073,-0.00024c-0.00338,0 -0.00676,0.00002 -0.01013,0.00006zM0.58148,0.55199c0.01921,-0.00131 0.0386,-0.00198 0.05814,-0.00199c-0.01496,0.03062 -0.02781,0.06246 -0.03838,0.09532c-0.00859,-0.03034 -0.01522,-0.0615 -0.01976,-0.09333zM0.70823,0.30102c-0.03556,-0.01428 -0.07218,-0.0265 -0.1097,-0.03651c0.0013,-0.00486 0.00265,-0.00969 0.00405,-0.01451h0.12689c-0.0077,0.01667 -0.01479,0.03369 -0.02124,0.05102zM0.62408,0.7129c0.00958,-0.04153 0.02294,-0.08162 0.0397,-0.11987c0.00547,0.10525 0.03332,0.20457 0.07887,0.29331c-0.00819,-0.00174 -0.01633,-0.00363 -0.0244,-0.00567c-0.0385,-0.05104 -0.07032,-0.10739 -0.09417,-0.16777zM0.87879,0.90049c0.02494,-0.02584 0.05183,-0.0498 0.08042,-0.07164c0.00897,0.01235 0.01822,0.02449 0.02774,0.0364c-0.00853,0.0102 -0.01726,0.02022 -0.02619,0.03006c-0.02685,0.0034 -0.0542,0.00516 -0.08197,0.00518zM0.93634,0.79599c-0.04002,0.03042 -0.07689,0.06477 -0.11004,0.10246c-0.01125,-0.00089 -0.02242,-0.00207 -0.0335,-0.00352c-0.05728,-0.10033 -0.09001,-0.21649 -0.09001,-0.34029c0,-0.00077 0,-0.00155 0,-0.00232c0.04155,0.00306 0.08227,0.00913 0.12193,0.018c0.02761,0.08042 0.06532,0.15615 0.11162,0.22567zM0.78444,0.40994c-0.00105,0.00026 -0.00211,0.00052 -0.00316,0.00078c0.00093,-0.00103 0.00185,-0.00206 0.00279,-0.00308c0.00012,0.00077 0.00025,0.00153 0.00037,0.0023zM0.73724,0.46515c0.01787,-0.00591 0.03603,-0.01118 0.05446,-0.01578c0.00536,0.02611 0.01175,0.05185 0.01913,0.07716c-0.03437,-0.00674 -0.06944,-0.01148 -0.10511,-0.01411c0.00986,-0.01621 0.02038,-0.03199 0.03151,-0.04728zM0.77479,0.33074c-0.00981,-0.00484 -0.01972,-0.00951 -0.02971,-0.01402c0.00783,-0.02121 0.01667,-0.04193 0.02647,-0.0621c0.00012,0.02562 0.00121,0.051 0.00325,0.07612zM0.73228,0.35485c0.01077,0.00491 0.02143,0.01003 0.03197,0.01534c-0.01769,0.01871 -0.03439,0.03837 -0.05001,0.05888c0.00466,-0.02525 0.0107,-0.05002 0.01804,-0.07422zM0.27275,0.28887c-0.00199,0.02165 -0.00301,0.04359 -0.00301,0.06576c0,0.06156 0.00785,0.12128 0.0226,0.17823c-0.01749,-0.03616 -0.03173,-0.07419 -0.04234,-0.1137l0,-0.09124c0.00718,-0.01327 0.01477,-0.02629 0.02275,-0.03904zM0.60709,0.84144c0.00072,-0.01951 0.00226,-0.03881 0.00458,-0.05786c0.01326,0.02693 0.02809,0.05295 0.04434,0.07795c-0.01663,-0.00605 -0.03295,-0.01275 -0.04892,-0.02009zM0.5371,0.51592c-0.06755,0.00782 -0.13277,0.02326 -0.19479,0.04543c-0.02114,-0.06509 -0.03257,-0.13457 -0.03257,-0.20671c0,-0.02772 0.00169,-0.05505 0.00496,-0.08189c0.01171,-0.00044 0.02348,-0.00066 0.0353,-0.00066c0.06882,0 0.13588,0.00754 0.2004,0.02185c-0.01057,0.05036 -0.01613,0.10257 -0.01613,0.15607c0,0.02221 0.00096,0.04419 0.00283,0.06592zM0.3997,0.68981c0.04206,-0.04824 0.09005,-0.09116 0.14283,-0.12764c0.00793,0.05331 0.02143,0.1048 0.03988,0.15387c-0.00731,0.03444 -0.01218,0.06978 -0.0144,0.10584c-0.06263,-0.03405 -0.11904,-0.07809 -0.1671,-0.12998c-0.0004,-0.00069 -0.00081,-0.00138 -0.00121,-0.00208zM0.46912,0.56729c-0.032,0.02603 -0.06196,0.05447 -0.08962,0.08503c-0.00864,-0.01735 -0.01656,-0.03514 -0.0237,-0.05331c0.03667,-0.0131 0.0745,-0.02374 0.11331,-0.03172zM0.55966,0.25501c-0.00795,-0.00177 -0.01593,-0.00344 -0.02395,-0.00501l0.02531,0c-0.00046,0.00167 -0.00091,0.00333 -0.00135,0.00501zM0.39768,1.19492c-0.01267,-0.01154 -0.02491,-0.02353 -0.03672,-0.03594c0.05766,-0.01246 0.11752,-0.01903 0.17891,-0.01903c0.02177,0 0.04334,0.00083 0.06469,0.00245c-0.06233,0.02479 -0.12787,0.04323 -0.19582,0.05454c-0.0037,-0.00064 -0.00739,-0.00132 -0.01107,-0.00201zM0.54042,0.9929c-0.07701,0.03299 -0.14823,0.07691 -0.2117,0.12981c-0.02988,-0.036 -0.05629,-0.07499 -0.07872,-0.11645l0,-0.05473c0.00112,-0.00337 0.00227,-0.00674 0.00344,-0.01009c0.10083,0.0004 0.19748,0.01854 0.28698,0.05146zM0.41269,1.10905c0.0525,-0.03635 0.10946,-0.06673 0.16989,-0.09014c0.00608,0.02848 0.01384,0.05634 0.02316,0.08346c-0.02175,-0.0016 -0.04371,-0.00242 -0.06587,-0.00242c-0.04319,0 -0.08565,0.0031 -0.12718,0.00909zM0.57285,0.96244c-0.09454,-0.03724 -0.19706,-0.0586 -0.30429,-0.06082c0.02662,-0.06457 0.06179,-0.12471 0.1041,-0.17901c0.05058,0.08307 0.11778,0.15492 0.19697,0.21093c0.00088,0.00969 0.00196,0.01933 0.00322,0.0289zM0.34679,0.69082c-0.03776,0.04735 -0.07032,0.09903 -0.09679,0.15419l0,-0.19974c0.01535,-0.00801 0.03098,-0.01556 0.04687,-0.02264c0.01526,0.02376 0.03194,0.04653 0.04992,0.06818zM0.27609,0.5881c-0.00877,0.00397 -0.01747,0.00807 -0.02609,0.01232l0,-0.06358c0.008,0.01749 0.01671,0.03459 0.02609,0.05126zM0.76135,1.06262c0.00506,-0.00959 0.01034,-0.01906 0.01583,-0.02839c0.00631,0.00186 0.01265,0.00364 0.01903,0.00533c-0.01144,0.00793 -0.02306,0.01562 -0.03486,0.02305zM0.61708,0.96433c-0.00115,0.00037 -0.00229,0.00073 -0.00344,0.0011c-0.00017,-0.00115 -0.00033,-0.0023 -0.00049,-0.00345c0.00131,0.00079 0.00261,0.00157 0.00393,0.00235zM0.64864,0.99653c0.00613,-0.00179 0.01229,-0.0035 0.01847,-0.00515c0.02306,0.01129 0.04682,0.02136 0.0712,0.03014c-0.00381,0.00665 -0.00752,0.01337 -0.01113,0.02015c-0.02532,-0.01634 -0.05153,-0.03141 -0.07854,-0.04514zM0.67624,1.11042c-0.00877,-0.00136 -0.01758,-0.00259 -0.02643,-0.00369c-0.00933,-0.02492 -0.01725,-0.05053 -0.02366,-0.07674c0.02866,0.01435 0.05639,0.03029 0.08307,0.04771c-0.00315,0.00677 -0.0062,0.0136 -0.00915,0.02048c-0.00788,0.00419 -0.01582,0.00827 -0.02383,0.01225zM0.28825,1.13633c-0.01287,0.00382 -0.02563,0.00793 -0.03825,0.01231l0,-0.06482c0.01201,0.01806 0.02477,0.03558 0.03825,0.0525zM0.7142,0.93954c-0.0143,0.00277 -0.02847,0.00589 -0.0425,0.00935c-0.02196,-0.01135 -0.04321,-0.02389 -0.06367,-0.03752c-0.00056,-0.00872 -0.00095,-0.01748 -0.00118,-0.02628c0.02841,0.01216 0.0578,0.02246 0.08801,0.03077c0.00629,0.00802 0.01274,0.01592 0.01934,0.02367zM0.73298,0.97674c0.0043,-0.00077 0.0086,-0.00151 0.01292,-0.00221c0.0036,0.00373 0.00724,0.00743 0.01091,0.01109c-0.00802,-0.00281 -0.01596,-0.00578 -0.02383,-0.00888zM0.56662,0.86632c0,0.00025 0,0.00051 0,0.00076c0,0.00483 0.00005,0.00966 0.00014,0.01447c-0.01729,-0.01352 -0.03389,-0.02787 -0.04975,-0.043c0.01611,0.00991 0.03266,0.01918 0.04961,0.02777zM0.83856,0.96483c0.01316,-0.00063 0.02641,-0.00095 0.03972,-0.00095c0.00449,0 0.00898,0.00004 0.01345,0.00011c-0.01051,0.00945 -0.02123,0.01867 -0.03215,0.02766c-0.00723,-0.00876 -0.01424,-0.0177 -0.02103,-0.02682zM0.76515,0.93127c-0.00148,0.00019 -0.00295,0.00039 -0.00442,0.00059c-0.00048,-0.00053 -0.00096,-0.00106 -0.00144,-0.00159c0.00195,0.00034 0.00391,0.00067 0.00587,0.00099z" fill="#000000" fill-rule="evenodd" stroke="#000000" stroke-width="0.005"></path></g></svg>