<svg version="1.1" xmlns="http://www.w3.org/2000/svg" xmlns:xlink="http://www.w3.org/1999/xlink" width="3in" height="1.5in" viewBox="0 0 3.05 1.55"><g fill="none" fill-rule="none" stroke="none" stroke-width="none" stroke-linecap="butt" stroke-linejoin="miter" stroke-miterlimit="10" stroke-dasharray="" stroke-dashoffset="0" font-family="none" font-weight="none" font-size="none" text-anchor="none" style="mix-blend-mode: normal"><path d="M0.25,1.25l0,-1l2.5,0v1z" fill="none" fill-rule="nonzero" stroke="none" stroke-width="1"></path><path d="M0,1.5v-1.5h3v1.5zM2.63814,0.38186c0.00601,0.004 0.01201,0.01523 0.01201,0.02244v0.04562c0,0.02002 -0.01625,0.05174 -0.03249,0.06344l-0.20151,0.14509c-0.00812,0.00585 -0.02626,0.0117 -0.03627,0.0117h-0.01001c-0.01001,0 -0.0187,-0.00992 -0.01737,-0.01984l0.02522,-0.18917c0.00609,-0.04564 0.05822,-0.09128 0.10426,-0.09128h0.1237c0.00722,0 0.02044,0.004 0.02645,0.00801zM1.84414,0.76196c0.00801,0.01401 0.00088,0.03363 -0.01426,0.03924l-0.21345,0.07905c-0.01328,0.00492 -0.03656,-0.00018 -0.04657,-0.01019l-0.01001,-0.01001c-0.01001,-0.01001 -0.013,-0.03231 -0.00597,-0.0446l0.00998,-0.01746c0.00801,-0.01401 0.03182,-0.03132 0.04762,-0.03461l0.17703,-0.03688c0.0158,-0.00329 0.03961,0.00743 0.04762,0.02144zM2.15591,0.65649c-0.00291,0.02183 -0.02784,0.04366 -0.04987,0.04366h-0.02202c-0.02202,0 -0.05537,-0.01888 -0.0667,-0.03777l-0.04878,-0.08129c-0.00933,-0.01555 -0.02066,-0.04911 -0.02266,-0.06713l-0.00255,-0.02297c-0.00173,-0.01554 0.00656,-0.04309 0.01657,-0.0551l0.01001,-0.01201c0.01001,-0.01201 0.03566,-0.02402 0.05129,-0.02402h0.08885c0.04004,0 0.07479,0.03969 0.0695,0.07938zM1.82006,0.28601c-0.01001,0.01201 -0.03422,0.01747 -0.04841,0.01092l-0.04968,-0.02293c-0.02527,-0.01166 -0.02352,-0.02333 0.00285,-0.02399h0.09534c0.01461,0.00067 0.01964,0.01233 0.00992,0.02399zM1.8361,1.09401c0.002,0.02803 -0.0241,0.05606 -0.05219,0.05606h-0.11485c-0.01457,0 -0.02515,-0.01401 -0.02114,-0.02803l0.004,-0.01401c0.004,-0.01401 0.02148,-0.03358 0.03496,-0.03913l0.09125,-0.03757c0.02598,-0.0107 0.05397,0.00663 0.05597,0.03466zM2.65005,0.78568c0,0.01218 -0.01201,0.02636 -0.02402,0.02836l-0.01928,0.00321c-0.00838,0.0014 -0.02276,-0.00321 -0.02877,-0.00922l-0.00601,-0.00601c-0.00601,-0.00601 -0.00494,-0.01672 0.00212,-0.02143l0.0493,-0.03287c0.01333,-0.00888 0.02665,-0.00175 0.02665,0.01426zM2.17389,1.09229c0.0081,0.02892 -0.01384,0.05784 -0.04387,0.05784h-0.03003c-0.03003,0 -0.06126,-0.03001 -0.06246,-0.06001l-0.00617,-0.15423c-0.00072,-0.018 0.01658,-0.03601 0.0346,-0.03601h0.01802c0.01802,0 0.04089,0.01735 0.04575,0.0347zM2.42802,0.93593c0.01602,0.02202 0.03827,0.07055 0.04451,0.09706l0.0184,0.07818c0.00459,0.01949 -0.01085,0.03898 -0.03087,0.03898h-0.02002c-0.02002,0 -0.04554,-0.01925 -0.05104,-0.0385l-0.06248,-0.21868c-0.0033,-0.01155 0.00541,-0.0231 0.01742,-0.0231h0.01201c0.01201,0 0.03109,0.00971 0.03815,0.01943zM1.73277,0.49679c0.00367,0.0016 0.00734,0.00721 0.00734,0.01122v0.004c0,0.004 -0.00384,0.00914 -0.00768,0.01027l-0.12112,0.03562c-0.02069,0.00608 -0.04938,-0.00785 -0.05739,-0.02787l-0.0145,-0.03626c-0.00476,-0.0119 0.00049,-0.03181 0.0105,-0.03982l0.01001,-0.00801c0.01001,-0.00801 0.03176,-0.01088 0.04351,-0.00574zM0.36787,0.37786c0.00601,-0.004 0.01923,-0.00801 0.02645,-0.00801h0.1237c0.04605,0 0.09818,0.04564 0.10426,0.09128l0.02522,0.18917c0.00132,0.00992 -0.00736,0.01984 -0.01737,0.01984h-0.01001c-0.01001,0 -0.02814,-0.00585 -0.03627,-0.0117l-0.20151,-0.14509c-0.01625,-0.0117 -0.03249,-0.04342 -0.03249,-0.06344v-0.04562c0,-0.00722 0.00601,-0.01844 0.01201,-0.02244zM1.16386,0.74794c0.00801,-0.01401 0.03182,-0.02474 0.04762,-0.02144l0.17703,0.03688c0.0158,0.00329 0.03961,0.0206 0.04762,0.03461l0.00998,0.01746c0.00702,0.01229 0.00404,0.03459 -0.00597,0.0446l-0.01001,0.01001c-0.01001,0.01001 -0.0333,0.0151 -0.04657,0.01019l-0.21345,-0.07905c-0.01514,-0.00561 -0.02226,-0.02523 -0.01426,-0.03924zM0.82046,0.47923c-0.00529,-0.03969 0.02946,-0.07938 0.0695,-0.07938h0.08885c0.01564,0 0.04128,0.01201 0.05129,0.02402l0.01001,0.01201c0.01001,0.01201 0.01829,0.03956 0.01657,0.0551l-0.00255,0.02297c-0.002,0.01802 -0.01333,0.05158 -0.02266,0.06713l-0.04878,0.08129c-0.01133,0.01888 -0.04468,0.03777 -0.0667,0.03777h-0.02202c-0.02202,0 -0.04695,-0.02183 -0.04987,-0.04366zM1.16993,0.27399c-0.00972,-0.01166 -0.0047,-0.02333 0.00992,-0.02399l0.09534,0c0.02637,0.00067 0.02812,0.01233 0.00285,0.02399l-0.04968,0.02293c-0.0142,0.00655 -0.0384,0.00109 -0.04841,-0.01092zM1.16591,1.06599c0.002,-0.02803 0.02999,-0.04536 0.05597,-0.03466l0.09125,0.03757c0.01348,0.00555 0.03096,0.02511 0.03496,0.03913l0.004,0.01401c0.004,0.01401 -0.00657,0.02803 -0.02114,0.02803h-0.11485c-0.0281,0 -0.0542,-0.02803 -0.05219,-0.05606zM0.34996,0.76199c0,-0.01602 0.01333,-0.02315 0.02665,-0.01426l0.0493,0.03287c0.00707,0.00471 0.00813,0.01543 0.00212,0.02143l-0.00601,0.00601c-0.00601,0.00601 -0.02039,0.01062 -0.02877,0.00922l-0.01928,-0.00321c-0.01201,-0.002 -0.02402,-0.01618 -0.02402,-0.02836zM0.87027,0.93458c0.00486,-0.01735 0.02773,-0.0347 0.04575,-0.0347h0.01802c0.01802,0 0.03532,0.018 0.0346,0.03601l-0.00617,0.15423c-0.0012,0.03001 -0.03243,0.06001 -0.06246,0.06001h-0.03003c-0.03003,0 -0.05196,-0.02892 -0.04387,-0.05784zM0.6059,0.88929c0.00707,-0.00971 0.02614,-0.01943 0.03815,-0.01943h0.01201c0.01201,0 0.02072,0.01155 0.01742,0.0231l-0.06248,0.21868c-0.0055,0.01925 -0.03102,0.0385 -0.05104,0.0385h-0.02002c-0.02002,0 -0.03545,-0.01949 -0.03087,-0.03898l0.0184,-0.07818c0.00624,-0.02651 0.02849,-0.07503 0.04451,-0.09706zM1.39657,0.44021c0.01174,-0.00514 0.0335,-0.00227 0.04351,0.00574l0.01001,0.00801c0.01001,0.00801 0.01526,0.02792 0.0105,0.03982l-0.0145,0.03626c-0.00801,0.02002 -0.0367,0.03396 -0.05739,0.02787l-0.12112,-0.03562c-0.00384,-0.00113 -0.00768,-0.00626 -0.00768,-0.01027v-0.004c0,-0.004 0.00367,-0.00961 0.00734,-0.01122z" fill="#000000" fill-rule="evenodd" stroke="#000000" stroke-width="0.005"></path></g></svg>