<!--

Built on 2024-03-28T23:31:51.961Z



## Param string


## Generated From
n/a

-->

<svg version="1.1" xmlns="http://www.w3.org/2000/svg" xmlns:xlink="http://www.w3.org/1999/xlink" width="3in" height="1.5in" viewBox="0 0 3.05 1.55"><g fill="none" fill-rule="none" stroke="none" stroke-width="none" stroke-linecap="butt" stroke-linejoin="miter" stroke-miterlimit="10" stroke-dasharray="" stroke-dashoffset="0" font-family="none" font-weight="none" font-size="none" text-anchor="none" style="mix-blend-mode: normal"><path d="M0.2,1.3l0,-1.1l2.6,0l0,1.1z" fill="none" fill-rule="nonzero" stroke="none" stroke-width="1"></path><path d="M0,1.5v-1.5h3v1.5zM0.231,0.21c0.036,0 0.072,0 0.108,0c0.012,0 0.03,0 0.054,0c0.024,0 0.048,0 0.072,0v-0.01h0.1935c0.003,0.00333 0.0045,0.00667 0.0045,0.01c0.012,0.01333 0.024,0.02 0.036,0.02c-0.012,0.02 -0.024,0.04 -0.036,0.06c-0.012,0.02 -0.018,0.04333 -0.018,0.07c0,0.01333 0,0.02333 0,0.03c0,0.01333 0,0.02333 0,0.03c0.012,0.01333 0.024,0.02333 0.036,0.03c0,0.00667 0.006,0.01333 0.018,0.02c-0.036,0.00667 -0.066,0.01667 -0.09,0.03c-0.012,0.01333 -0.024,0.02667 -0.036,0.04c-0.012,-0.00667 -0.024,-0.01333 -0.036,-0.02c0,-0.00667 -0.006,-0.01333 -0.018,-0.02c-0.024,-0.00667 -0.042,-0.01333 -0.054,-0.02c-0.012,0 -0.03,-0.00333 -0.054,-0.01c0.012,-0.00667 0.024,-0.01333 0.036,-0.02c0,-0.01333 0,-0.02667 0,-0.04c0.012,-0.01333 0.018,-0.02667 0.018,-0.04c0,-0.01333 0,-0.03 0,-0.05v-0.03c-0.024,0 -0.048,0 -0.072,0c-0.012,0 -0.03,0 -0.054,0c-0.036,0 -0.072,0 -0.108,0c-0.01033,0 -0.02067,0.00062 -0.031,0.00185l0,-0.08185c0.01126,0 0.02159,0 0.031,0zM0.231,0.5c-0.01033,-0.00191 -0.02067,-0.00355 -0.031,-0.00492l0,-0.0208c0.00909,0.00857 0.01943,0.01715 0.031,0.02572zM1.203,0.51c-0.024,-0.00667 -0.048,-0.01 -0.072,-0.01c-0.024,-0.00667 -0.048,-0.01333 -0.072,-0.02c-0.024,0 -0.048,-0.00333 -0.072,-0.01c-0.024,0 -0.042,0 -0.054,0c0.012,-0.00667 0.018,-0.01667 0.018,-0.03c0.012,-0.00667 0.018,-0.01667 0.018,-0.03c0,-0.01333 0,-0.02667 0,-0.04c0,-0.01333 0,-0.02667 0,-0.04c0,-0.02667 0,-0.05 0,-0.07c-0.012,-0.02 -0.018,-0.03333 -0.018,-0.04c0.02635,-0.00488 0.04949,-0.01155 0.06942,-0.02h0.13608v0.02365c-0.0145,-0.00243 -0.029,-0.00365 -0.0435,-0.00365c0.012,0.02 0.018,0.03667 0.018,0.05c0,0.01333 0,0.02667 0,0.04l0.0255,-0.00354l0,0.04c-0.0085,0.00118 -0.017,0.00236 -0.0255,0.00354c0,0.01333 0,0.02667 0,0.04c-0.012,0.01333 -0.018,0.02333 -0.018,0.03c0.012,0 0.024,0.00333 0.036,0.01c0.024,0 0.042,0 0.054,0c0.024,0 0.042,0.00333 0.054,0.01c0.012,0 0.024,0 0.036,0c0.012,-0.01333 0.024,-0.02667 0.036,-0.04c0.012,-0.00667 0.042,-0.01333 0.09,-0.02c0,0.00667 0,0.01 0,0.01c0,0.00667 0,0.01333 0,0.02c0,0.01333 0,0.02667 0,0.04c0,0.00667 0.006,0.01333 0.018,0.02c-0.024,0 -0.048,0.00333 -0.072,0.01c-0.012,0 -0.03,0.00333 -0.054,0.01c-0.024,0 -0.048,0.00333 -0.072,0.01c-0.012,0.00667 -0.024,0.01 -0.036,0.01zM1.401,0.23c0.012,0.01333 0.018,0.02667 0.018,0.04c0,0.00667 0,0.01667 0,0.03c0.012,0.00667 0.018,0.01333 0.018,0.02c-0.048,0.00667 -0.102,0.01 -0.162,0.01c-0.0145,0.00201 -0.029,0.00403 -0.0435,0.00604v-0.04l0.0435,-0.00604c0,-0.00667 0,-0.01667 0,-0.03c-0.012,-0.01333 -0.018,-0.02333 -0.018,-0.03c-0.00575,0 -0.01425,0 -0.0255,0l0,-0.03h0.1695c0,0.00667 0,0.01667 0,0.03zM1.671,0.48c0.012,-0.01333 0.018,-0.03 0.018,-0.05c0,-0.00743 0,-0.12564 0,-0.23l0.162,0v0.19c0,0.02 0.006,0.03667 0.018,0.05c0,0.01333 0,0.02333 0,0.03c0.012,0.00667 0.024,0.01667 0.036,0.03c0.012,0.00667 0.024,0.01667 0.036,0.03v0.01c-0.024,-0.00667 -0.042,-0.01333 -0.054,-0.02c-0.024,0 -0.036,-0.00333 -0.036,-0.01c-0.012,0 -0.024,-0.00333 -0.036,-0.01c-0.012,0 -0.018,-0.00333 -0.018,-0.01c-0.024,0.00667 -0.054,0.01333 -0.09,0.02c-0.024,0 -0.048,0 -0.072,0c0.012,-0.00667 0.024,-0.01667 0.036,-0.03zM2.139,0.48c0.012,-0.01333 0.018,-0.03 0.018,-0.05c0,-0.00743 0,-0.12564 0,-0.23l0.162,0v0.19c0,0.02 0.006,0.03667 0.018,0.05c0,0.01333 0,0.02333 0,0.03c0.012,0.00667 0.024,0.01667 0.036,0.03c0.012,0.00667 0.024,0.01667 0.036,0.03v0.01c-0.024,-0.00667 -0.042,-0.01333 -0.054,-0.02c-0.024,0 -0.036,-0.00333 -0.036,-0.01c-0.012,0 -0.024,-0.00333 -0.036,-0.01c-0.012,0 -0.018,-0.00333 -0.018,-0.01c-0.024,0.00667 -0.054,0.01333 -0.09,0.02c-0.024,0 -0.048,0 -0.072,0c0.012,-0.00667 0.024,-0.01667 0.036,-0.03zM2.769,0.22c0,0.02 0,0.03667 0,0.05c0,0.02 0,0.03667 0,0.05c0,0.01333 0,0.03 0,0.05c0,0.02 0,0.03667 0,0.05c0.00941,0 0.01974,0.00051 0.031,0.00154l0,0.07309c-0.01633,-0.00309 -0.03267,-0.00463 -0.049,-0.00463c-0.024,-0.00667 -0.048,-0.01 -0.072,-0.01c-0.036,-0.00667 -0.06,-0.01 -0.072,-0.01c0,0 -0.006,0 -0.018,0c0,0 -0.006,0.00333 -0.018,0.01c0.012,-0.00667 0.024,-0.02 0.036,-0.04c0,-0.01333 0,-0.03333 0,-0.06c0,-0.01333 0,-0.03 0,-0.05c0,-0.01333 0,-0.02667 0,-0.04c0,-0.01333 -0.006,-0.02667 -0.018,-0.04c0,-0.01333 0,-0.02 0,-0.02c0.024,0 0.06,-0.00667 0.108,-0.02c0.006,-0.00333 0.012,-0.00667 0.018,-0.01h0.085l0,0.02801c-0.01402,-0.00165 -0.02435,-0.00432 -0.031,-0.00801zM0.33,1.23h-0.018c-0.012,-0.00667 -0.024,-0.01 -0.036,-0.01c-0.012,-0.00667 -0.03,-0.01333 -0.054,-0.02c-0.00733,0 -0.01467,-0.00124 -0.022,-0.00373l0,-0.31415c0.0014,-0.0007 0.00273,-0.00141 0.004,-0.00211c0.024,0 0.036,-0.00333 0.036,-0.01c0.012,0.02 0.018,0.04 0.018,0.06c0,0.02 0,0.04333 0,0.07c0,0.01333 0,0.02667 0,0.04c0,0.02 0,0.03333 0,0.04c0,0.01333 0,0.02667 0,0.04c0,0.00667 0,0.01333 0,0.02l0.072,0.03c0.012,-0.00667 0.024,-0.02 0.036,-0.04c0,-0.01333 0.006,-0.03 0.018,-0.05c0,-0.01333 0.006,-0.03 0.018,-0.05c0,-0.02 0,-0.04 0,-0.06c0,-0.02 0,-0.03333 0,-0.04c-0.012,-0.01333 -0.024,-0.02 -0.036,-0.02v-0.02c0.072,0 0.138,-0.00667 0.198,-0.02c0,0.00667 0,0.01 0,0.01c0,0.02 0,0.03667 0,0.05c0,0.01333 0.006,0.02333 0.018,0.03l-0.108,0.21zM1.014,0.87c0.00252,0.00056 0.00502,0.00111 0.0075,0.00166v0.07757c-0.02364,-0.00133 -0.04414,-0.00441 -0.0615,-0.00923c0.012,0.02 0.018,0.03667 0.018,0.05c0,0.02 0,0.03667 0,0.05c0,0.01333 0,0.03 0,0.05c0,0.02 0,0.03667 0,0.05c0.01279,0 0.02729,0.00095 0.0435,0.00284l0,0.07445c-0.0205,-0.00486 -0.041,-0.0073 -0.0615,-0.0073c-0.024,-0.00667 -0.054,-0.01 -0.09,-0.01c-0.024,-0.00667 -0.042,-0.01 -0.054,-0.01c-0.012,0 -0.018,0 -0.018,0c-0.00289,0 -0.00543,0.00019 -0.00763,0.00058c0.00508,-0.00737 0.00763,-0.01756 0.00763,-0.03058c0.012,-0.01333 0.018,-0.03333 0.018,-0.06c0,-0.01333 0,-0.03 0,-0.05c0,-0.01333 -0.006,-0.02667 -0.018,-0.04c0,-0.01333 0,-0.02667 0,-0.04c0,-0.01333 -0.006,-0.02 -0.018,-0.02c0.036,0 0.072,-0.00667 0.108,-0.02c0.048,-0.02 0.09,-0.04 0.126,-0.06zM1.158,0.9c0.036,0 0.072,0 0.108,0c0.012,0 0.024,0 0.036,0c0.012,0 0.024,0 0.036,0c-0.012,0.02667 -0.018,0.06333 -0.018,0.11c0,0.04667 0.006,0.09333 0.018,0.14c-0.012,0 -0.03,0.00333 -0.054,0.01c-0.024,0.00667 -0.048,0.01333 -0.072,0.02c-0.024,0.00667 -0.048,0.01333 -0.072,0.02c-0.0178,0.00989 -0.0323,0.01794 -0.0435,0.02417l0,-0.0734c0.02364,0.00133 0.04414,0.00441 0.0615,0.00923v-0.2c-0.0205,0 -0.041,-0.00108 -0.0615,-0.00324l0,-0.06895c0.02338,0.00486 0.04388,0.00892 0.0615,0.01219zM0.79037,1.19058c-0.00273,0.00395 -0.00618,0.00709 -0.01037,0.00942c0,-0.00506 0.00346,-0.0082 0.01037,-0.00942zM1.77,0.89v0.1c0.012,-0.02 0.03,-0.04 0.054,-0.06c0.012,-0.02 0.024,-0.04 0.036,-0.06c0.024,0.00667 0.048,0.01333 0.072,0.02c0.036,0.00667 0.066,0.01 0.09,0.01c0,0.02 -0.006,0.04 -0.018,0.06c-0.012,0.01333 -0.024,0.02667 -0.036,0.04l-0.09,-0.03h-0.018l-0.09,0.08v0.1c0,0.02 0.006,0.03333 0.018,0.04c0,0.00667 0.018,0.01 0.054,0.01v0.01h-0.27v-0.01c0.024,-0.00667 0.036,-0.02 0.036,-0.04v-0.25l-0.054,-0.01v-0.01c0.024,0 0.054,-0.00333 0.09,-0.01c0.036,0 0.066,-0.00333 0.09,-0.01zM2.238,1.2c0.012,-0.01333 0.018,-0.03 0.018,-0.05c0,-0.01333 0,-0.38333 0,-0.39c0,-0.01333 -0.006,-0.02333 -0.018,-0.03c0,-0.00667 0,-0.01333 0,-0.02c-0.012,-0.00667 -0.018,-0.01333 -0.018,-0.02c0.012,0 0.03,0 0.054,0c0.024,0 0.054,-0.00333 0.09,-0.01c0.024,-0.00667 0.054,-0.01333 0.09,-0.02c-0.012,0.01333 -0.024,0.03 -0.036,0.05c0,0.01333 0,0.03333 0,0.06c0,0.02 0,0.37667 0,0.39c0,0.01333 0.006,0.02333 0.018,0.03c0,0.00667 0.006,0.01667 0.018,0.03c0.012,0.00667 0.03,0.01667 0.054,0.03l-0.018,0.01c-0.024,-0.00667 -0.042,-0.01333 -0.054,-0.02c-0.012,0 -0.024,-0.00333 -0.036,-0.01c-0.012,0 -0.024,-0.00333 -0.036,-0.01c0,0 -0.006,-0.00333 -0.018,-0.01c-0.024,0.00667 -0.048,0.01333 -0.072,0.02c-0.036,0 -0.066,0 -0.09,0c0.024,-0.00667 0.042,-0.01667 0.054,-0.03zM2.742,1.2c-0.012,-0.00667 -0.036,-0.01333 -0.072,-0.02c0.012,-0.02 0.018,-0.03667 0.018,-0.05c0.012,-0.02 0.018,-0.04 0.018,-0.06c0,-0.02 -0.006,-0.03667 -0.018,-0.05c0,-0.02 0,-0.03667 0,-0.05c0,-0.00667 0,-0.01333 0,-0.02c0,-0.00667 -0.006,-0.01333 -0.018,-0.02c0.036,-0.00667 0.078,-0.01333 0.126,-0.02c0.00133,-0.00049 0.00267,-0.00099 0.004,-0.00148l0,0.31408c-0.01933,-0.0097 -0.03867,-0.01723 -0.058,-0.0226z" fill="#d3d3d3" fill-rule="evenodd" stroke="#ff0000" stroke-width="0.005"></path></g></svg>