<!--

Built on 2024-03-28T23:31:49.610Z



## Param string


## Generated From
n/a

-->

<svg version="1.1" xmlns="http://www.w3.org/2000/svg" xmlns:xlink="http://www.w3.org/1999/xlink" width="3in" height="1.5in" viewBox="0 0 3.05 1.55"><g fill="none" fill-rule="none" stroke="none" stroke-width="none" stroke-linecap="butt" stroke-linejoin="miter" stroke-miterlimit="10" stroke-dasharray="" stroke-dashoffset="0" font-family="none" font-weight="none" font-size="none" text-anchor="none" style="mix-blend-mode: normal"><path d="M0.2,1.3l0,-1.1l2.6,0l0,1.1z" fill="none" fill-rule="nonzero" stroke="none" stroke-width="1"></path><path d="M0,1.5v-1.5h3v1.5zM0.2,1.22961c0.11644,0.02429 0.22424,0.0478 0.32395,0.07039h-0.29448c-0.00976,-0.00221 -0.01958,-0.00444 -0.02948,-0.00667zM0.2,1.05762c0.61873,0.09346 1.01491,0.17425 1.27188,0.24238l-0.29046,0c-0.21239,-0.05793 -0.51969,-0.12501 -0.98142,-0.20126zM0.87314,1.05c0.86886,0.10617 1.3721,0.18728 1.64607,0.25h-0.27435c-0.26222,-0.06272 -0.75292,-0.14383 -1.62172,-0.25c-0.13255,-0.0162 -0.2739,-0.03298 -0.42314,-0.05027v-0.02883c0.2426,0.02759 0.46805,0.05404 0.67314,0.0791zM0.24634,0.9c1.32871,0.1628 2.03937,0.29612 2.42741,0.4l-0.29046,0c-0.35733,-0.09843 -0.98774,-0.22331 -2.18329,-0.37464l0,-0.03102c0.01553,0.00189 0.03098,0.00378 0.04634,0.00566zM2.8,1.3h-0.13904c-0.54956,-0.12618 -1.32185,-0.28089 -2.46096,-0.44091v-0.03465c1.17854,0.15772 2.01441,0.31193 2.6,0.44067zM0.2,0.76099c0.99396,0.14314 1.87723,0.29567 2.6,0.4321l0,0.05638c-0.71251,-0.13825 -1.58862,-0.29828 -2.6,-0.45039zM0.2,0.70023c0.90949,0.1353 1.80525,0.28249 2.6,0.41977l0,0.05121c-0.78833,-0.13815 -1.68131,-0.28964 -2.6,-0.43084zM0.2,0.60147c0.95014,0.11714 1.82838,0.24936 2.6,0.37892l0,0.04813c-0.75916,-0.13322 -1.63212,-0.27167 -2.6,-0.39562zM2.01533,0.75c0.2778,0.03407 0.53905,0.06813 0.78467,0.10197v0.036c-0.31438,-0.04562 -0.65815,-0.09179 -1.03467,-0.13797c-0.47746,-0.05855 -1.00759,-0.11711 -1.56533,-0.17456l0,-0.02667c0.64685,0.06594 1.26371,0.13359 1.81533,0.20123zM0.2,0.51295c0.92134,0.0885 1.81523,0.17839 2.6,0.26399l0,0.02785c-0.77142,-0.08535 -1.66798,-0.1757 -2.6,-0.26522zM0.2,0.47435c0.88604,0.08439 1.77223,0.17057 2.6,0.25384l0,0.02699c-0.82174,-0.0826 -1.70899,-0.16863 -2.6,-0.25338zM0.2,0.3955c0.87985,0.07952 1.76835,0.16239 2.6,0.24414l0,0.02605c-0.82469,-0.08129 -1.71453,-0.16417 -2.6,-0.2442zM0.2,0.31665c0.86582,0.07304 1.75527,0.15195 2.6,0.23347l0,0.02523c-0.83687,-0.08148 -1.72798,-0.16071 -2.6,-0.23451zM0.2,0.23829c0.83597,0.06462 1.72215,0.13926 2.6,0.22386l0,0.02483c-0.86887,-0.08522 -1.75718,-0.16077 -2.6,-0.22662zM0.7474,0.2c0.63253,0.04811 1.31978,0.10702 2.0526,0.17967l0,0.02522c-0.83001,-0.0844 -1.61248,-0.15134 -2.32661,-0.2049z" fill="#d3d3d3" fill-rule="evenodd" stroke="#ff0000" stroke-width="0.005"></path></g></svg>