<svg version="1.1" xmlns="http://www.w3.org/2000/svg" xmlns:xlink="http://www.w3.org/1999/xlink" width="3in" height="3in" viewBox="0 0 3.05 3.05"><g fill="none" fill-rule="none" stroke="none" stroke-width="none" stroke-linecap="butt" stroke-linejoin="miter" stroke-miterlimit="10" stroke-dasharray="" stroke-dashoffset="0" font-family="none" font-weight="none" font-size="none" text-anchor="none" style="mix-blend-mode: normal"><path d="M0.25,2.75l0,-2.5l2.5,0v2.5z" fill="none" fill-rule="nonzero" stroke="none" stroke-width="1"></path><path d="M0,3v-3h3v3zM0.33873,0.25c-0.01056,0.00759 -0.03974,0.00759 -0.06797,0zM0.91487,0.29643c0.0006,0.06833 0.04903,0.19051 0.07914,0.19966c0.02299,0.00697 0.0892,-0.04983 0.11403,-0.09781c0.02166,-0.04189 0.02151,-0.04217 -0.02937,-0.06343c-0.03641,-0.01522 -0.0686,-0.05193 -0.07671,-0.08484l0.15489,0c0.00129,0.0048 0.00209,0.01067 0.00292,0.01786c0.0037,0.03224 0.01241,0.04006 0.04863,0.04359c0.05857,0.00571 0.1765,0.12396 0.19004,0.19056c0.00976,0.04796 0.00986,0.048 0.10209,0.05207c0.10396,0.0046 0.12804,0.02284 0.12804,0.097c0,0.03509 0.01319,0.05753 0.05719,0.09727c0.03144,0.02841 0.06407,0.05166 0.07249,0.05166c0.0271,0 0.18461,-0.16057 0.18461,-0.1882c0,-0.01469 -0.01537,-0.0337 -0.03414,-0.04226c-0.02854,-0.013 -0.04299,-0.00956 -0.08799,0.02103c-0.07774,0.05281 -0.10644,0.03386 -0.10644,-0.07036c0,-0.04333 -0.00874,-0.09613 -0.01941,-0.11736c-0.01069,-0.02121 -0.02343,-0.0691 -0.0283,-0.10643l-0.00608,-0.04643l0.15379,0l0,0.03681c0,0.04556 0.00926,0.0675 0.04251,0.10076c0.0379,0.0379 0.05059,0.04204 0.11664,0.03819c0.07069,-0.00413 0.07487,-0.00664 0.0905,-0.05433c0.00903,-0.0275 0.02544,-0.07089 0.0365,-0.09643l0.01082,-0.025l0.46245,0l0.00359,0.01429c0.01146,0.04569 0.03781,0.04519 0.09364,-0.00177c0.00549,-0.00462 0.01099,-0.00883 0.01628,-0.01251h0.04106c0.00484,0.04746 0.0098,0.20163 0.01186,0.37987c0.00504,0.43791 0.01184,0.41584 -0.11657,0.3785c-0.04289,-0.01246 -0.10947,-0.02266 -0.14797,-0.02266c-0.06044,0 -0.07597,-0.00633 -0.11386,-0.04643c-0.03941,-0.04173 -0.0447,-0.05819 -0.05223,-0.16274c-0.00557,-0.07731 -0.01911,-0.13839 -0.04039,-0.18217l-0.032,-0.06587l0.05576,-0.05711c0.05913,-0.06054 0.08329,-0.06734 0.14281,-0.04023c0.03274,0.01493 0.04134,0.01259 0.0741,-0.02019c0.0636,-0.0636 0.03931,-0.0824 -0.10646,-0.0824h-0.12611l-0.05647,0.05784l-0.05647,0.05783v0.276l-0.04776,0.00977c-0.02626,0.00539 -0.05469,0.01671 -0.06319,0.02521c-0.02316,0.02316 0.00686,0.07771 0.06907,0.12557c0.02906,0.02234 0.06323,0.05326 0.07593,0.06869c0.0127,0.01543 0.0462,0.05216 0.07444,0.0816c0.04553,0.04747 0.05711,0.05261 0.10214,0.04531c0.03373,-0.00547 0.08367,0.0027 0.14864,0.02433c0.05383,0.01791 0.1247,0.03259 0.15751,0.03259l0.05966,0.00001l0.00081,0.29406c0.00046,0.16173 -0.00373,0.33583 -0.00929,0.3869l-0.01013,0.09286l-0.0091,-0.08571c-0.01056,-0.09944 -0.07296,-0.27813 -0.10297,-0.29493c-0.016,-0.00896 -0.019,-0.03374 -0.01347,-0.1111c0.00691,-0.09649 0.00574,-0.10096 -0.03726,-0.14396c-0.04007,-0.04009 -0.05169,-0.04397 -0.11971,-0.04006c-0.07116,0.00409 -0.0756,0.00661 -0.08003,0.04536c-0.00259,0.02256 0.00224,0.04796 0.01071,0.05643c0.00847,0.00847 0.0155,0.05107 0.01561,0.09469c0.00031,0.11307 0.01216,0.12664 0.08267,0.09484c0.06257,-0.02821 0.1128,-0.025 0.10473,0.00671c-0.00287,0.01133 -0.00496,0.06649 -0.00461,0.12259c0.00049,0.07853 0.00861,0.11796 0.03533,0.17143c0.02486,0.04973 0.0328,0.08474 0.02801,0.12337c-0.00597,0.04806 -0.00067,0.05961 0.04849,0.10597l0.05517,0.05201l0.00094,0.22976c0.00053,0.12636 -0.00151,0.21207 -0.00451,0.19046c-0.00301,-0.0216 -0.01431,-0.03929 -0.02514,-0.03929c-0.02687,0 -0.06414,-0.0562 -0.06414,-0.09673c0,-0.02303 -0.04341,-0.07664 -0.14129,-0.17453c-0.13063,-0.13061 -0.14544,-0.14124 -0.19643,-0.14081c-0.06069,0.00051 -0.12547,-0.02019 -0.1408,-0.04497c-0.00553,-0.00894 0.02213,-0.04979 0.0629,-0.09289c0.04001,-0.04231 0.07276,-0.0835 0.07276,-0.09151c0,-0.01744 -0.1241,-0.05674 -0.21476,-0.06803c-0.07824,-0.00974 -0.10857,0.01547 -0.09291,0.07724c0.0055,0.02166 0.0144,0.07794 0.01979,0.12509c0.0119,0.10421 0.02174,0.12143 0.0695,0.12143c0.02391,0 0.05577,0.019 0.08984,0.05357c0.02903,0.02947 0.07144,0.07009 0.09424,0.09026c0.02279,0.02019 0.06094,0.05876 0.08477,0.08571c0.02381,0.02697 0.06239,0.06611 0.08571,0.08699c0.02331,0.02087 0.07074,0.06807 0.1054,0.10489c0.05604,0.05951 0.0615,0.07111 0.04933,0.1049c-0.01229,0.03406 -0.0204,0.03776 -0.0788,0.03583c-0.03581,-0.00117 -0.08607,-0.01297 -0.11169,-0.02621c-0.03309,-0.0171 -0.0727,-0.02273 -0.13679,-0.01944c-0.07599,0.00391 -0.09546,-0.00014 -0.12336,-0.02567c-0.0571,-0.05226 -0.1247,-0.07809 -0.22671,-0.08663c-0.10446,-0.00876 -0.14214,0.00516 -0.14214,0.05249c0,0.01354 0.01286,0.03626 0.02857,0.05047c0.01773,0.01604 0.02857,0.044 0.02857,0.07364v0.04779h-0.14286c-0.11259,0 -0.14286,-0.00421 -0.14286,-0.0199c0,-0.02391 0.03073,-0.03724 0.08584,-0.03724c0.02704,0 0.0507,-0.01277 0.07067,-0.03816c0.03866,-0.04916 0.0215,-0.0666 -0.06549,-0.0666c-0.05524,0 -0.07233,0.0066 -0.09691,0.03743c-0.02773,0.03479 -0.03563,0.03683 -0.11171,0.02899c-0.09219,-0.00953 -0.12526,0.00671 -0.12526,0.06151c0,0.03279 -0.0038,0.03397 -0.10816,0.03397h-0.10816l0.05101,-0.04811c0.02806,-0.02647 0.05101,-0.05717 0.05101,-0.06824c0,-0.01107 -0.01929,-0.03706 -0.04286,-0.05774c-0.03226,-0.02831 -0.04286,-0.04994 -0.04286,-0.0875c0,-0.04316 -0.0061,-0.05201 -0.04517,-0.06564c-0.02484,-0.00866 -0.04896,-0.01197 -0.05357,-0.00737c-0.00461,0.00461 -0.00966,0.05767 -0.0112,0.11793c-0.00236,0.09281 -0.00727,0.11254 -0.03214,0.12914c-0.01613,0.01079 -0.02934,0.03489 -0.02934,0.05357v0.03397h-0.35c-0.20538,0 -0.29335,-0.00137 -0.32857,-0.00808l0,-0.03426c0.00192,-0.00034 0.00392,-0.00052 0.00597,-0.00052c0.08586,0 0.1006,-0.06119 0.0226,-0.09377c-0.01229,-0.00514 -0.02157,-0.00928 -0.02857,-0.01372l0,-0.14174l0.10487,0.00376c0.11939,0.00427 0.12889,0.00241 0.17179,-0.03369c0.0695,-0.05847 0.07879,-0.08657 0.07484,-0.2265c-0.00384,-0.13703 0.00267,-0.15086 0.07129,-0.15127c0.03803,-0.00021 0.07846,-0.03359 0.0868,-0.07164c0.00367,-0.01676 -0.0152,-0.02299 -0.0867,-0.02857c-0.11217,-0.00877 -0.13336,-0.03129 -0.0984,-0.1046c0.02953,-0.06193 0.01317,-0.08111 -0.06919,-0.08111c-0.09263,0 -0.13399,0.05533 -0.07871,0.10534c0.02034,0.01841 0.02833,0.05161 0.03403,0.1415c0.00519,0.08194 0.01744,0.13796 0.04056,0.18534l0.03313,0.06789l-0.05576,0.05711c-0.05897,0.06039 -0.08333,0.06733 -0.14216,0.04051c-0.02733,-0.01244 -0.04527,-0.01251 -0.0721,-0.0003l-0.01429,0.00651v-0.16522l0.00676,0.01489c0.01516,0.0334 0.03677,0.06071 0.04803,0.06071c0.02583,0 0.12379,-0.10721 0.12379,-0.13549c0,-0.01161 -0.0156,-0.02503 -0.03466,-0.02981c-0.0836,-0.02097 -0.11884,-0.13071 -0.06527,-0.20317c0.03999,-0.05409 0.02803,-0.07439 -0.04377,-0.07439l-0.03487,0l0,-0.33689c0.01427,0.00313 0.04661,0.02683 0.07884,0.05858c0.08623,0.08494 0.11401,0.08027 0.11401,-0.01916c0,-0.0748 -0.00059,-0.0739 0.16071,-0.24707c0.03731,-0.04007 0.06786,-0.08103 0.06786,-0.09103c0,-0.01 -0.02197,-0.03494 -0.04883,-0.05543c-0.02877,-0.02194 -0.0528,-0.05531 -0.05849,-0.08123c-0.01124,-0.05119 -0.04059,-0.06751 -0.07301,-0.0406c-0.01887,0.01566 -0.02121,0.03761 -0.01351,0.1266l0.0093,0.10766l-0.09151,0.09053c-0.06979,0.06904 -0.0996,0.08939 -0.12559,0.08571c-0.00851,-0.0012 -0.01491,-0.00244 -0.01979,-0.00589l0,-0.24815c0.02576,0.01943 0.07429,0.0167 0.08321,-0.00655c0.0091,-0.02373 -0.00303,-0.07976 -0.02274,-0.10494c-0.00769,-0.00983 -0.02926,-0.01786 -0.04793,-0.01786c-0.00484,0 -0.00899,-0.00001 -0.01254,-0.00048l0,-0.20041c0.00857,0.02109 0.02332,0.03912 0.04969,0.06487c0.06213,0.06067 0.0945,0.05987 0.10823,-0.00264c0.00481,-0.02194 0.01123,-0.04793 0.01426,-0.05776c0.00357,-0.0116 0.03821,-0.01861 0.09881,-0.02c0.05131,-0.00117 0.10134,-0.00279 0.11116,-0.00357c0.01134,-0.0009 0.0206,0.02587 0.02537,0.07334c0.00644,0.0641 0.01631,0.08373 0.06913,0.13754l0.0616,0.06277l-0.02301,0.04453c-0.02166,0.04189 -0.0213,0.04791 0.00616,0.10174c0.02901,0.05687 0.06027,0.0726 0.08021,0.04034c0.00573,-0.00927 0.00979,-0.05853 0.00901,-0.10946c-0.00126,-0.08311 0.00233,-0.09556 0.03504,-0.12129c0.0339,-0.02666 0.03593,-0.03496 0.02917,-0.1191c-0.0068,-0.08471 -0.00491,-0.09214 0.02956,-0.11726c0.0314,-0.02287 0.03683,-0.03774 0.03683,-0.10103c0,-0.07687 -0.01564,-0.10007 -0.06779,-0.1005c-0.03373,-0.00027 -0.16727,-0.11543 -0.25353,-0.21861c-0.0578,-0.06913 -0.09363,-0.08911 -0.1202,-0.06706c-0.01324,0.01099 -0.01706,0.03167 -0.01137,0.0617c0.01207,0.06379 0.02977,0.0809 0.08369,0.0809c0.07753,0 0.09227,0.01166 0.09227,0.07296c0,0.06839 0.03949,0.11276 0.10036,0.11276c0.03373,0 0.0464,0.0084 0.05779,0.03834c0.03157,0.08304 0.01753,0.09664 -0.10814,0.10473c-0.06961,0.00449 -0.11839,0.0017 -0.12479,-0.00714c-0.00577,-0.00797 -0.01059,-0.0416 -0.01071,-0.07474c-0.00017,-0.04993 -0.00899,-0.06901 -0.05149,-0.11151c-0.07377,-0.07376 -0.09576,-0.06334 -0.1288,0.06104c-0.00313,0.01176 -0.0338,0.01786 -0.08974,0.01786c-0.04674,0 -0.09516,0.0039 -0.10759,0.00867c-0.0004,0.00015 -0.00079,0.00029 -0.00117,0.00042l0,-0.32697c0.00202,0.00088 0.00423,0.00202 0.00664,0.00331c0.01543,0.00826 0.03564,0.0403 0.04489,0.07119c0.01857,0.06197 0.04789,0.08186 0.08061,0.05469c0.01656,-0.01373 0.01954,-0.03754 0.0132,-0.10541c-0.00774,-0.08286 -0.00626,-0.08856 0.0268,-0.10363c0.0145,-0.0066 0.027,-0.01602 0.0323,-0.0237l0.46003,0zM1.3466,0.26207c-0.03715,0.00602 -0.05937,0.00241 -0.07415,-0.01207l0.11904,0c-0.00792,0.00424 -0.02275,0.00848 -0.04488,0.01207zM1.57049,0.33171c0.06664,0.06736 0.07094,0.0757 0.05297,0.10294c-0.02476,0.0375 -0.078,0.04421 -0.14126,0.01779c-0.04609,-0.01926 -0.04994,-0.02601 -0.05903,-0.10329c-0.0071,-0.06037 -0.00479,-0.08577 0.00856,-0.09416c0.00345,-0.00217 0.00694,-0.00385 0.01052,-0.005h0.02421c0.02371,0.00666 0.05467,0.03184 0.10403,0.08171zM2.7005,0.4c0.0257,0 0.02807,0.01024 0.02807,0.12143c0,0.09393 -0.00449,0.12143 -0.01979,0.12143c-0.01089,0 -0.03084,0.01689 -0.04437,0.03753c-0.02349,0.03584 -0.02883,0.03717 -0.1195,0.0296c-0.12817,-0.01069 -0.20206,-0.03396 -0.20206,-0.06363c0,-0.02764 0.09753,-0.13207 0.12336,-0.13207c0.00966,0 0.03129,0.01929 0.04807,0.04286c0.02513,0.03529 0.04053,0.04286 0.08719,0.04286h0.05666l-0.00921,-0.06943c-0.00564,-0.04259 -0.00289,-0.08124 0.00716,-0.1c0.009,-0.01681 0.029,-0.03057 0.04443,-0.03057zM1.40941,0.68817c0.0912,0.03366 0.11623,0.0595 0.08917,0.0921c-0.01516,0.01827 -0.03664,0.02154 -0.10227,0.01559c-0.07507,-0.0068 -0.08514,-0.00439 -0.10446,0.02509c-0.02297,0.03507 -0.08919,0.0525 -0.15309,0.04029c-0.0454,-0.00869 -0.04909,-0.03491 -0.01229,-0.0876c0.01457,-0.02086 0.03066,-0.05514 0.03574,-0.07621c0.00589,-0.02439 0.02091,-0.04053 0.04137,-0.04443c0.04626,-0.00886 0.1212,0.00396 0.20581,0.03519zM1.95076,0.95206c-0.00824,0.03289 -0.05397,0.05647 -0.0792,0.04089c-0.01596,-0.00987 -0.01997,-0.12547 -0.00489,-0.14056c0.04019,-0.04019 0.10107,0.03199 0.08409,0.09967zM1.69507,0.90183c0.01057,0.00877 0.01921,0.04089 0.01921,0.07134c0,0.04514 -0.00509,0.0554 -0.02747,0.0554c-0.03474,0 -0.11086,-0.06323 -0.1233,-0.10241c-0.0058,-0.01831 -0.00199,-0.03467 0.00996,-0.04261c0.02284,-0.01519 0.09419,-0.00446 0.1216,0.01829zM1.45664,0.99906c0.00813,0.0152 0.01479,0.04749 0.01479,0.07174c0,0.0335 -0.00883,0.04811 -0.03674,0.06084c-0.02974,0.01354 -0.03921,0.0128 -0.04977,-0.00389c-0.01491,-0.02357 -0.01767,-0.10021 -0.00481,-0.13373c0.01204,-0.03137 0.0587,-0.0283 0.07654,0.00503zM2.10924,1.07317c0.03504,0.02909 0.06509,0.11431 0.07746,0.21969c0.00644,0.055 0.01601,0.12081 0.02126,0.14626c0.01136,0.05519 -0.00186,0.063 -0.11153,0.06599l-0.075,0.00204l-0.00794,0.05947c-0.00911,0.0683 -0.03411,0.10481 -0.07173,0.10481c-0.03001,0 -0.05091,-0.07723 -0.0347,-0.12829c0.00673,-0.0212 -0.00173,-0.04813 -0.02721,-0.08664c-0.02034,-0.03074 -0.03699,-0.0617 -0.03699,-0.06881c0,-0.01903 0.05351,-0.03013 0.14643,-0.03034l0.08214,-0.0002v-0.04414c0,-0.03117 -0.0126,-0.0552 -0.04286,-0.08176c-0.05577,-0.04894 -0.05404,-0.0756 0.00843,-0.13046c0.04181,-0.03671 0.05514,-0.0418 0.07224,-0.02761zM1.88594,1.1218c0.02891,0.0468 0.02954,0.05281 0.00869,0.08463c-0.02213,0.03379 -0.0752,0.06063 -0.0902,0.04561c-0.01187,-0.01186 -0.01116,-0.14389 0.00087,-0.16336c0.01897,-0.03067 0.04879,-0.01843 0.08064,0.03311zM1.3401,1.20339c0.0028,0.01453 -0.02473,0.05596 -0.06654,0.10017l-0.07131,0.07541l0.00801,0.11689l0.008,0.11689l-0.04127,0.01017c-0.0227,0.00559 -0.06687,0.03193 -0.09816,0.05854c-0.03833,0.0326 -0.0686,0.047 -0.09286,0.04417c-0.0599,-0.007 -0.0522,-0.05361 0.02064,-0.1251c0.07283,-0.07149 0.0769,-0.08517 0.03624,-0.12196c-0.04004,-0.03624 -0.0364,-0.05084 0.02857,-0.11429c0.0683,-0.06669 0.0716,-0.09699 0.01429,-0.13084c-0.0444,-0.02623 -0.05894,-0.08171 -0.025,-0.09541c0.06066,-0.02447 0.27159,0.02487 0.27939,0.06536zM1.64603,1.20351c0.02871,0.06007 0.04289,0.07061 0.10946,0.08143c0.03794,0.00617 0.0524,0.01727 0.06269,0.04814c0.00736,0.02207 0.00924,0.04427 0.00419,0.04931c-0.00506,0.00506 -0.0539,0.0092 -0.10854,0.0092h-0.09934l-0.00873,0.04654c-0.01239,0.066 -0.04,0.08557 -0.086,0.06096c-0.04831,-0.02586 -0.09343,-0.09089 -0.08261,-0.11907c0.00477,-0.01241 0.03371,-0.02933 0.06434,-0.03757l0.05567,-0.01499v-0.08397c0,-0.05384 0.0064,-0.08654 0.01786,-0.09111c0.03099,-0.0124 0.04573,-0.00179 0.07103,0.05113zM0.77857,1.3476c0.02101,0.0068 0.02597,0.12257 0.00627,0.14631c-0.0093,0.0112 -0.02773,0.02037 -0.04096,0.02037c-0.01323,0 -0.04567,0.01596 -0.0721,0.03546c-0.06046,0.0446 -0.08607,0.028 -0.08607,-0.05577c0,-0.06401 0.01901,-0.09397 0.05966,-0.09397c0.01396,0 0.04641,-0.01283 0.07214,-0.02851c0.02573,-0.01569 0.0532,-0.02643 0.06106,-0.02389zM2.41446,1.66134c0.01896,0.04286 0.04237,0.0686 0.07776,0.08547c0.02786,0.01329 0.05064,0.03041 0.05064,0.03807c0,0.02347 -0.10843,0.1294 -0.13247,0.1294c-0.01243,0 -0.03593,-0.01694 -0.0522,-0.03764c-0.02414,-0.03067 -0.02961,-0.05799 -0.02961,-0.14761c0,-0.06049 0.00429,-0.11427 0.00953,-0.1195c0.02357,-0.02359 0.05133,-0.00476 0.07636,0.05181zM1.59506,1.6634c0.12933,0.00303 0.1478,0.01037 0.1478,0.05879c0,0.02204 0.02354,0.05867 0.06429,0.1c0.07049,0.0715 0.07117,0.07374 0.04833,0.15639c-0.01877,0.0679 -0.03176,0.07806 -0.10016,0.07836c-0.06853,0.00029 -0.0945,-0.0298 -0.0637,-0.07379c0.01247,-0.0178 0.02267,-0.05986 0.02267,-0.09347c0,-0.07496 -0.03977,-0.12219 -0.0973,-0.11554c-0.03539,0.0041 -0.03871,0.01007 -0.04214,0.07587c-0.00549,0.10501 -0.01451,0.13279 -0.04646,0.14291c-0.02503,0.00794 -0.02844,0.0206 -0.02673,0.09939c0.00296,0.13669 -0.02821,0.16019 -0.09549,0.07199c-0.02097,-0.0275 -0.04274,-0.05 -0.04837,-0.05c-0.00563,0 -0.04014,0.02949 -0.0767,0.06553c-0.07189,0.07087 -0.09526,0.07414 -0.11573,0.01623c-0.01074,-0.03039 -0.00609,-0.0476 0.025,-0.09246c0.02101,-0.03031 0.0382,-0.06856 0.0382,-0.08497c0,-0.03859 0.02496,-0.04719 0.13689,-0.04719h0.09169v-0.04957c0,-0.03851 -0.00956,-0.05664 -0.04286,-0.08126c-0.05671,-0.04193 -0.05406,-0.07001 0.01233,-0.12999c0.05401,-0.0488 0.05759,-0.0498 0.16844,-0.04721zM0.85696,1.70704c0.03307,0.01711 0.04317,0.03409 0.05089,0.08554c0.0053,0.0353 0.00549,0.08074 0.0004,0.10096c-0.00784,0.03129 -0.01604,0.0361 -0.05504,0.03233c-0.033,-0.0032 -0.04701,-0.01244 -0.05007,-0.03301c-0.01217,-0.08193 -0.0186,-0.09094 -0.08214,-0.11521c-0.07501,-0.02864 -0.08721,-0.04234 -0.06333,-0.07113c0.0229,-0.02759 0.14556,-0.02726 0.1993,0.00053zM1.29054,1.77376c0.01153,0.0184 0.0054,0.03777 -0.02711,0.08571c-0.0231,0.03409 -0.04526,0.07793 -0.04924,0.09744c-0.0057,0.02789 -0.01854,0.03733 -0.05999,0.04406c-0.07699,0.01251 -0.13991,0.00026 -0.13991,-0.02726c0,-0.01267 0.04661,-0.07001 0.10357,-0.12741c0.10554,-0.10637 0.14191,-0.12164 0.17269,-0.07254zM1.00711,2.15706c0.02717,0.11084 0.01921,0.21437 -0.01646,0.21437c-0.04534,0 -0.07637,-0.02951 -0.07637,-0.07266c0,-0.03144 -0.01449,-0.05651 -0.05357,-0.09273l-0.05357,-0.04964l0.0684,-0.06521c0.08366,-0.07976 0.0976,-0.07279 0.13157,0.06587zM1.92857,2.24941c0,0.0562 -0.01561,0.07099 -0.09831,0.0931c-0.06199,0.01659 -0.06314,0.01621 -0.11786,-0.03721c-0.08644,-0.08441 -0.0711,-0.12474 0.0417,-0.10961c0.04019,0.0054 0.06761,0.00073 0.09066,-0.0154c0.06063,-0.04249 0.08381,-0.02336 0.08381,0.06913zM2.12951,2.31479c0.04114,0.02203 0.03394,0.04761 -0.02956,0.10499c-0.06206,0.05606 -0.09204,0.06431 -0.10557,0.02906c-0.01856,-0.04834 -0.00781,-0.08994 0.03061,-0.11861c0.04473,-0.03337 0.0653,-0.03641 0.10451,-0.01543zM1.20826,2.31429c0.03229,0 0.12031,0.06301 0.12031,0.08611c0,0.01689 -0.12049,0.0333 -0.1641,0.02236c-0.04147,-0.01041 -0.04654,-0.04447 -0.01226,-0.08234c0.013,-0.01437 0.03823,-0.02613 0.05604,-0.02613zM0.80283,2.34286c0.08667,0 0.10376,0.02847 0.04959,0.08266c-0.03683,0.03683 -0.03797,0.037 -0.08773,0.01327c-0.04709,-0.02246 -0.06563,-0.06166 -0.04087,-0.0864c0.00523,-0.00524 0.04079,-0.00953 0.07901,-0.00953zM1.52026,2.39439c0.02974,0.01141 0.02859,0.03791 -0.0034,0.07741c-0.02389,0.0295 -0.0303,0.0307 -0.0787,0.01471c-0.08311,-0.02743 -0.12181,-0.07749 -0.0703,-0.09096c0.03873,-0.01011 0.12731,-0.0108 0.1524,-0.00117zM0.84881,2.57493c0.01141,0.03243 0.00806,0.04494 -0.02004,0.07486c-0.03783,0.04027 -0.10123,0.04769 -0.12836,0.015c-0.01396,-0.01681 -0.01134,-0.02939 0.01331,-0.064c0.01687,-0.0237 0.04159,-0.04954 0.0549,-0.05741c0.03739,-0.02209 0.06517,-0.01116 0.08019,0.03156zM0.54233,2.54286c0.01881,0 0.07196,0.0718 0.07196,0.09723c0,0.03063 -0.04234,0.0742 -0.07211,0.0742c-0.04113,0 -0.05771,-0.08711 -0.02739,-0.1438c0.00814,-0.0152 0.02053,-0.02763 0.02754,-0.02763zM2.16116,2.63141c0.02023,-0.00514 0.02706,0.03723 0.01087,0.06747c-0.014,0.02616 -0.02911,0.02969 -0.1272,0.02969h-0.11131l0.00621,-0.04226c0.00611,-0.04174 0.00746,-0.04233 0.10823,-0.04717c0.05613,-0.00269 0.10707,-0.00617 0.1132,-0.00773zM2.72317,2.68571c0.00297,0 0.0054,0.00964 0.0054,0.02143c0,0.01179 -0.01043,0.02143 -0.02317,0.02143c-0.01899,0 -0.01997,-0.00387 -0.0054,-0.02143c0.00979,-0.01179 0.02021,-0.02143 0.02317,-0.02143z" fill="#000000" fill-rule="evenodd" stroke="#000000" stroke-width="0.005"></path></g></svg>