<svg version="1.1" xmlns="http://www.w3.org/2000/svg" xmlns:xlink="http://www.w3.org/1999/xlink" width="3in" height="3in" viewBox="0 0 3.05 3.05"><g fill="none" fill-rule="none" stroke="none" stroke-width="none" stroke-linecap="butt" stroke-linejoin="miter" stroke-miterlimit="10" stroke-dasharray="" stroke-dashoffset="0" font-family="none" font-weight="none" font-size="none" text-anchor="none" style="mix-blend-mode: normal"><path d="M0.25,2.75l0,-2.5l2.5,0v2.5z" fill="none" fill-rule="nonzero" stroke="none" stroke-width="1"></path><path d="M0,3v-3h3v3zM0.67524,0.375l0.32476,-0.125l0.32476,0.125l0,0.25l-0.32476,0.125l-0.32476,-0.125zM1.42524,0.375l0.32476,-0.125l0.32476,0.125v0.25l-0.32476,0.125l-0.32476,-0.125zM0.30024,0.875l0.32476,-0.125l0.32476,0.125v0.25l-0.32476,0.125l-0.32476,-0.125zM1.05024,0.875l0.32476,-0.125l0.32476,0.125v0.25l-0.32476,0.125l-0.32476,-0.125zM1.80024,0.875l0.32476,-0.125l0.32476,0.125v0.25l-0.32476,0.125l-0.32476,-0.125zM0.67524,1.375l0.32476,-0.125l0.32476,0.125l0,0.25l-0.32476,0.125l-0.32476,-0.125zM1.42524,1.375l0.32476,-0.125l0.32476,0.125v0.25l-0.32476,0.125l-0.32476,-0.125zM0.30024,1.875l0.32476,-0.125l0.32476,0.125v0.25l-0.32476,0.125l-0.32476,-0.125zM1.05024,1.875l0.32476,-0.125l0.32476,0.125v0.25l-0.32476,0.125l-0.32476,-0.125zM1.80024,1.875l0.32476,-0.125l0.32476,0.125v0.25l-0.32476,0.125l-0.32476,-0.125zM0.67524,2.375l0.32476,-0.125l0.32476,0.125l0,0.25l-0.32476,0.125l-0.32476,-0.125zM1.42524,2.375l0.32476,-0.125l0.32476,0.125v0.25l-0.32476,0.125l-0.32476,-0.125z" fill="#000000" fill-rule="evenodd" stroke="#000000" stroke-width="0.005"></path></g></svg>