<!--

Built on 2024-03-28T23:31:49.258Z



## Param string


## Generated From
n/a

-->

<svg version="1.1" xmlns="http://www.w3.org/2000/svg" xmlns:xlink="http://www.w3.org/1999/xlink" width="3in" height="1.5in" viewBox="0 0 3.05 1.55"><g fill="none" fill-rule="none" stroke="none" stroke-width="none" stroke-linecap="butt" stroke-linejoin="miter" stroke-miterlimit="10" stroke-dasharray="" stroke-dashoffset="0" font-family="none" font-weight="none" font-size="none" text-anchor="none" style="mix-blend-mode: normal"><path d="M0.2,1.3l0,-1.1l2.6,0l0,1.1z" fill="none" fill-rule="nonzero" stroke="none" stroke-width="1"></path><path d="M0,1.5v-1.5h3v1.5zM2.79498,0.30531l-0.00202,0.05671l-0.01627,-0.03157l-0.01351,-0.02404l0.01488,-0.01396l0.01474,-0.01767l-0.0214,0.00387l-0.01542,0.01134l-0.00558,-0.01079l-0.02463,-0.03359l-0.00951,-0.03039l0.01413,-0.0073l0.01705,-0.00791l0.04827,0zM1.77568,0.232l-0.01652,0.01948l-0.02772,0.00072l-0.03798,-0.02559l-0.03532,-0.02661h0.15009zM0.42581,0.22523l-0.03564,0.01697l-0.00168,0.00331l-0.00323,0.01403l-0.01182,0.00436l0.00193,-0.06389h0.09022zM1.04699,0.20035l-0.05085,0.04966l-0.06734,0.10192l-0.01477,0.02325l-0.0109,-0.03813l-0.01904,-0.0679l-0.02432,-0.06915l0.18771,0zM1.63951,0.20808l-0.03026,0.01287l-0.02554,0.00411l-0.0465,0.00534l-0.01209,-0.00166l-0.00837,0.00156l-0.00394,0.00351l-0.00155,-0.00387l-0.00815,-0.00138l-0.0124,0.0028l-0.0107,-0.00458l-0.01173,-0.00023l-0.01904,0.0031l-0.06512,-0.00136l-0.12721,-0.00212l-0.04593,0.0008l-0.01935,-0.01983l-0.00749,-0.00713l0.44727,0zM2.00986,0.29522l-0.05427,0.06399l-0.0609,0.04121l-0.04498,-0.04778l-0.01443,-0.01864l-0.03775,-0.04502l-0.02409,-0.03169l0.03813,-0.04081l0.02177,-0.01648l0.19745,0zM0.51129,0.20047l0.02232,0.01604l0.09021,0.06142l0.06585,0.03012l0.02747,0.00904l0.01189,0.005l-0.02003,0.00959l-0.16813,0.11686l-0.02489,0.01264l-0.03534,-0.03813l-0.08583,-0.11693l-0.00928,-0.02099l0.01333,-0.01257l0.10038,-0.0661zM0.7882,0.33735l0.04861,0.01742l0.03627,0.01695l-0.02835,0.0372l-0.03813,0.04438l-0.03207,0.0403l-0.02604,0.03349l-0.01887,0.02524l-0.01999,0.03069l-0.00936,0.01166l-0.05043,-0.0268l-0.06647,-0.04955l-0.02833,-0.02418l-0.01266,-0.01214l0.00558,-0.01797l0.10017,-0.06657l0.05944,-0.03374l0.03534,-0.02114zM1.26908,0.33459l0.07653,0.02224l0.05208,0.02056l0.08465,0.0354l0.04836,0.02477l0.00543,0.02984l-0.03071,0.05409l-0.01955,0.02564l-0.03666,-0.01157l-0.11103,-0.03684l-0.03906,-0.01411l-0.0588,-0.02074l-0.02808,-0.01651l0.01302,-0.05608l0.01387,-0.04311l0.01162,-0.00996zM0.31136,0.36092l0.02604,0.03755l0.0532,0.07694l0.05136,0.07351l0.02565,0.0427l-0.03403,0.04228l-0.03698,0.03891l-0.02374,0.0279l-0.02406,0.0279l-0.00769,-0.00558l-0.00805,-0.00558l-0.02357,-0.01488l-0.02214,-0.01488l-0.01366,-0.00992l-0.04102,-0.03659l-0.03269,-0.02969v-0.16477l0.01054,-0.01054l0.04437,-0.03496l0.00565,-0.00542l0.0415,-0.03041zM0.91323,0.39471l0.00404,0.00837l0.00025,-0.00856l0.0059,-0.00539l0.05701,0.07312l0.00871,0.01643l-0.02971,0.03102l-0.08025,0.0952l-0.01632,0.01624l-0.02932,-0.00614l-0.02266,0.01151l-0.01468,0.01661l-0.01504,-0.00531l-0.05142,-0.02986l0.02214,-0.03906l0.03918,-0.05606l0.03354,-0.04464l0.03183,-0.03906l0.02376,-0.02883zM2.34079,0.40893l0.05671,0.06568l0.04909,0.07547l0.01139,0.02108l-0.0286,0.01613l-0.05487,0.00767l-0.0486,-0.00619l-0.0279,-0.0039l-0.03107,-0.00375l-0.05665,-0.03561l-0.02656,-0.04872l-0.01168,-0.02266l0.01807,-0.00674l0.10975,-0.04327zM2.30172,0.59705l0.03906,0.00674l0.14517,0.07095l0.03847,0.03602l0.01231,0.01025l0.01097,0.00667l-0.01045,0.00823l-0.06191,0.04109l-0.03668,0.02438l-0.02672,0.01651l-0.01168,-0.01017l-0.02513,-0.02815l-0.03679,-0.04098l-0.02373,-0.02576l-0.01791,-0.02232l-0.03386,-0.03984l-0.02064,-0.02438l0.03906,-0.02882zM2.681,0.6107l0.03647,0.04253l0.05301,0.0555l0.02045,-0.00523l0.00176,-0.04185l0.00219,0.04399l0.00103,0.13866l-0.00027,0.17429l-0.00172,0.15088l-0.00269,0.08738l-0.00316,0.01865l-0.03515,-0.10743l0.00336,-0.0642l0.02765,-0.03691l0.00888,-0.03561l-0.01106,-0.04072l-0.01116,-0.02067l-0.00561,-0.01062l-0.01115,-0.01589l0.02082,-0.03883l0.0176,-0.03469l-0.00145,-0.01855l-0.02635,0.02449l-0.03412,0.02208l-0.01926,-0.03025l0.02313,-0.03791l0.03196,-0.03007l0.00593,-0.01196l0.00176,-0.0017l0.01894,-0.01339l-0.01845,0.00516l-0.0493,0.04188l-0.02507,0.02362l-0.01963,-0.02109l-0.06384,-0.06424l-0.03426,-0.03533l-0.00666,-0.01364l0.0284,-0.0288l0.02511,-0.02823l0.00279,-0.00439l0.02492,-0.02086zM0.72248,0.62076l0.04956,0.03138l-0.00494,0.02761l-0.00279,0.04407l0.01447,0.01032l0.03255,0.02154l0.02831,0.02314l-0.03091,0.05086l-0.0425,0.05817l-0.02877,-0.01535l-0.07491,-0.0723l-0.05285,-0.054l0.0066,-0.01086l0.02969,-0.03658l0.04545,-0.05374zM0.56248,0.86013l0.0279,0.00936l0.02836,0.01077l0.00376,0.02651l0.00292,0.07481l0.00434,0.13552l0.00001,0.04166l-0.02339,-0.0039l-0.05693,-0.01692l-0.09859,-0.03119l-0.01588,-0.00828l0.02418,-0.05152l0.03362,-0.06844l0.01192,-0.02297l0.02877,-0.05115zM2.37207,0.89813l0.10179,0.02212l0.06596,0.02498l-0.0341,0.04565l-0.04372,0.04557l-0.02577,0.02696l-0.04772,-0.00182l-0.12505,-0.00511l-0.0321,-0.00267l0.01238,-0.01554l0.05898,-0.06926l0.0439,-0.06275zM0.9587,0.98542l0.02022,0.04743l0.02915,0.0715l0.01791,0.04009l0.00713,0.02022l0.00721,0.01943l0.01875,0.04444l0.01707,0.03999l-0.00596,0.00689l-0.04891,-0.01887l-0.09392,-0.03346l-0.04328,-0.019l-0.01823,-0.04844l-0.01561,-0.04357l0.01036,-0.01409l0.04025,-0.04483l0.03179,-0.03549l0.01305,-0.01855zM0.38277,1.16388l0.00551,0.00651l0.06147,0.121l0.00699,0.00861l-0.14414,0l0.04782,-0.09612z" fill="#d3d3d3" fill-rule="evenodd" stroke="#ff0000" stroke-width="0.005"></path></g></svg>