<!--

Built on 2024-03-28T23:31:49.671Z



## Param string


## Generated From
n/a

-->

<svg version="1.1" xmlns="http://www.w3.org/2000/svg" xmlns:xlink="http://www.w3.org/1999/xlink" width="3in" height="1.5in" viewBox="0 0 3.05 1.55"><g fill="none" fill-rule="none" stroke="none" stroke-width="none" stroke-linecap="butt" stroke-linejoin="miter" stroke-miterlimit="10" stroke-dasharray="" stroke-dashoffset="0" font-family="none" font-weight="none" font-size="none" text-anchor="none" style="mix-blend-mode: normal"><path d="M0.2,1.3l0,-1.1l2.6,0l0,1.1z" fill="none" fill-rule="nonzero" stroke="none" stroke-width="1"></path><path d="M0,1.5v-1.5h3v1.5zM0.38711,0.255l0.14289,-0.055l0.14289,0.055v0.11l-0.14289,0.055l-0.14289,-0.055zM0.71711,0.255l0.14289,-0.055l0.14289,0.055v0.11l-0.14289,0.055l-0.14289,-0.055zM1.04711,0.255l0.14289,-0.055l0.14289,0.055v0.11l-0.14289,0.055l-0.14289,-0.055zM1.37711,0.255l0.14289,-0.055l0.14289,0.055v0.11l-0.14289,0.055l-0.14289,-0.055zM1.70711,0.255l0.14289,-0.055l0.14289,0.055v0.11l-0.14289,0.055l-0.14289,-0.055zM2.03711,0.255l0.14289,-0.055l0.14289,0.055v0.11l-0.14289,0.055l-0.14289,-0.055zM2.36711,0.255l0.14289,-0.055l0.14289,0.055v0.11l-0.14289,0.055l-0.14289,-0.055zM0.22211,0.475l0.14289,-0.055l0.14289,0.055v0.11l-0.14289,0.055l-0.14289,-0.055zM0.55211,0.475l0.14289,-0.055l0.14289,0.055v0.11l-0.14289,0.055l-0.14289,-0.055zM0.88211,0.475l0.14289,-0.055l0.14289,0.055v0.11l-0.14289,0.055l-0.14289,-0.055zM1.21211,0.475l0.14289,-0.055l0.14289,0.055v0.11l-0.14289,0.055l-0.14289,-0.055zM1.54211,0.475l0.14289,-0.055l0.14289,0.055v0.11l-0.14289,0.055l-0.14289,-0.055zM1.87211,0.475l0.14289,-0.055l0.14289,0.055v0.11l-0.14289,0.055l-0.14289,-0.055zM2.20211,0.475l0.14289,-0.055l0.14289,0.055v0.11l-0.14289,0.055l-0.14289,-0.055zM2.53211,0.475l0.14289,-0.055l0.14289,0.055v0.11l-0.14289,0.055l-0.14289,-0.055zM0.38711,0.695l0.14289,-0.055l0.14289,0.055v0.11l-0.14289,0.055l-0.14289,-0.055zM0.71711,0.695l0.14289,-0.055l0.14289,0.055v0.11l-0.14289,0.055l-0.14289,-0.055zM1.04711,0.695l0.14289,-0.055l0.14289,0.055v0.11l-0.14289,0.055l-0.14289,-0.055zM1.37711,0.695l0.14289,-0.055l0.14289,0.055v0.11l-0.14289,0.055l-0.14289,-0.055zM1.70711,0.695l0.14289,-0.055l0.14289,0.055v0.11l-0.14289,0.055l-0.14289,-0.055zM2.03711,0.695l0.14289,-0.055l0.14289,0.055v0.11l-0.14289,0.055l-0.14289,-0.055zM2.36711,0.695l0.14289,-0.055l0.14289,0.055v0.11l-0.14289,0.055l-0.14289,-0.055zM0.22211,0.915l0.14289,-0.055l0.14289,0.055v0.11l-0.14289,0.055l-0.14289,-0.055zM0.55211,0.915l0.14289,-0.055l0.14289,0.055v0.11l-0.14289,0.055l-0.14289,-0.055zM0.88211,0.915l0.14289,-0.055l0.14289,0.055v0.11l-0.14289,0.055l-0.14289,-0.055zM1.21211,0.915l0.14289,-0.055l0.14289,0.055v0.11l-0.14289,0.055l-0.14289,-0.055zM1.54211,0.915l0.14289,-0.055l0.14289,0.055v0.11l-0.14289,0.055l-0.14289,-0.055zM1.87211,0.915l0.14289,-0.055l0.14289,0.055v0.11l-0.14289,0.055l-0.14289,-0.055zM2.20211,0.915l0.14289,-0.055l0.14289,0.055v0.11l-0.14289,0.055l-0.14289,-0.055zM2.53211,0.915l0.14289,-0.055l0.14289,0.055v0.11l-0.14289,0.055l-0.14289,-0.055zM0.38711,1.135l0.14289,-0.055l0.14289,0.055v0.11l-0.14289,0.055l-0.14289,-0.055zM0.71711,1.135l0.14289,-0.055l0.14289,0.055v0.11l-0.14289,0.055l-0.14289,-0.055zM1.04711,1.135l0.14289,-0.055l0.14289,0.055v0.11l-0.14289,0.055l-0.14289,-0.055zM1.37711,1.135l0.14289,-0.055l0.14289,0.055v0.11l-0.14289,0.055l-0.14289,-0.055zM1.70711,1.135l0.14289,-0.055l0.14289,0.055v0.11l-0.14289,0.055l-0.14289,-0.055zM2.03711,1.135l0.14289,-0.055l0.14289,0.055v0.11l-0.14289,0.055l-0.14289,-0.055zM2.36711,1.135l0.14289,-0.055l0.14289,0.055v0.11l-0.14289,0.055l-0.14289,-0.055z" fill="#d3d3d3" fill-rule="evenodd" stroke="#ff0000" stroke-width="0.005"></path></g></svg>