<svg version="1.1" xmlns="http://www.w3.org/2000/svg" xmlns:xlink="http://www.w3.org/1999/xlink" width="3in" height="1.5in" viewBox="0 0 3.05 1.55"><g fill="none" fill-rule="none" stroke="none" stroke-width="none" stroke-linecap="butt" stroke-linejoin="miter" stroke-miterlimit="10" stroke-dasharray="" stroke-dashoffset="0" font-family="none" font-weight="none" font-size="none" text-anchor="none" style="mix-blend-mode: normal"><path d="M0.25,1.25l0,-1l2.5,0v1z" fill="none" fill-rule="nonzero" stroke="none" stroke-width="1"></path><path d="M0,1.5v-1.5h3v1.5zM0.57523,0.45385c0.00738,0.00308 0.01477,0.01415 0.01477,0.02215v0.008c0,0.008 -0.00738,0.01908 -0.01477,0.02215l-0.05723,0.02385c-0.024,0.01 -0.07227,0.01067 -0.09653,0.00133l-0.06653,-0.02559c-0.00747,-0.00287 -0.01493,-0.01374 -0.01493,-0.02174v-0.008c0,-0.008 0.00747,-0.01887 0.01493,-0.02174l0.06653,-0.02559c0.02427,-0.00933 0.07253,-0.00867 0.09653,0.00133zM0.52,0.754c0,0.008 -0.008,0.016 -0.016,0.016h-0.078c-0.008,0 -0.016,-0.008 -0.016,-0.016v-0.008c0,-0.008 0.008,-0.016 0.016,-0.016h0.078c0.008,0 0.016,0.008 0.016,0.016zM0.37976,0.59988c0.01012,0.00506 0.01224,0.01812 0.00424,0.02612l-0.008,0.008c-0.008,0.008 -0.02659,0.01203 -0.03719,0.00805l-0.03483,-0.01306c-0.01199,-0.0045 -0.01598,-0.01899 -0.00798,-0.02899l0.008,-0.01c0.008,-0.01 0.02745,-0.01427 0.03891,-0.00855zM0.644,0.6c0.008,0.01 0.00385,0.02405 -0.0083,0.0281l-0.04424,0.01475c-0.01073,0.00358 -0.02947,-0.00084 -0.03747,-0.00884l-0.008,-0.008c-0.008,-0.008 -0.00566,-0.02059 0.00468,-0.02519l0.04592,-0.02041c0.0117,-0.0052 0.0314,-0.0004 0.0394,0.0096zM0.6357,0.3319c0.01215,0.00405 0.0163,0.0181 0.0083,0.0281l-0.008,0.01c-0.008,0.01 -0.0277,0.0148 -0.0394,0.0096l-0.04592,-0.02041c-0.01034,-0.00459 -0.01268,-0.01719 -0.00468,-0.02519l0.008,-0.008c0.008,-0.008 0.02673,-0.01242 0.03747,-0.00884zM0.384,0.334c0.008,0.008 0.00588,0.02106 -0.00424,0.02612l-0.03685,0.01843c-0.01145,0.00573 -0.03091,0.00145 -0.03891,-0.00855l-0.008,-0.01c-0.008,-0.01 -0.00401,-0.0245 0.00798,-0.02899l0.03483,-0.01306c0.01059,-0.00397 0.02919,0.00005 0.03719,0.00805zM0.57523,0.99385c0.00738,0.00308 0.01477,0.01415 0.01477,0.02215v0.008c0,0.008 -0.00738,0.01908 -0.01477,0.02215l-0.05723,0.02385c-0.024,0.01 -0.07227,0.01067 -0.09653,0.00133l-0.06653,-0.02559c-0.00747,-0.00287 -0.01493,-0.01374 -0.01493,-0.02174v-0.008c0,-0.008 0.00747,-0.01887 0.01493,-0.02174l0.06653,-0.02559c0.02427,-0.00933 0.07253,-0.00867 0.09653,0.00133zM0.37976,1.13988c0.01012,0.00506 0.01224,0.01812 0.00424,0.02612l-0.008,0.008c-0.008,0.008 -0.02659,0.01203 -0.03719,0.00805l-0.03483,-0.01306c-0.01199,-0.0045 -0.01598,-0.01899 -0.00798,-0.02899l0.008,-0.01c0.008,-0.01 0.02745,-0.01427 0.03891,-0.00855zM0.644,1.14c0.008,0.01 0.00385,0.02405 -0.0083,0.0281l-0.04424,0.01475c-0.01073,0.00358 -0.02947,-0.00084 -0.03747,-0.00884l-0.008,-0.008c-0.008,-0.008 -0.00566,-0.02059 0.00468,-0.02519l0.04592,-0.02041c0.0117,-0.0052 0.0314,-0.0004 0.0394,0.0096zM0.6357,0.8719c0.01215,0.00405 0.0163,0.0181 0.0083,0.0281l-0.008,0.01c-0.008,0.01 -0.0277,0.0148 -0.0394,0.0096l-0.04592,-0.02041c-0.01034,-0.00459 -0.01268,-0.01719 -0.00468,-0.02519l0.008,-0.008c0.008,-0.008 0.02673,-0.01242 0.03747,-0.00884zM0.384,0.874c0.008,0.008 0.00588,0.02106 -0.00424,0.02612l-0.03685,0.01843c-0.01145,0.00573 -0.03091,0.00145 -0.03891,-0.00855l-0.008,-0.01c-0.008,-0.01 -0.00401,-0.0245 0.00798,-0.02899l0.03483,-0.01306c0.01059,-0.00397 0.02919,0.00005 0.03719,0.00805zM1.09523,0.45385c0.00738,0.00308 0.01477,0.01415 0.01477,0.02215v0.008c0,0.008 -0.00738,0.01908 -0.01477,0.02215l-0.05723,0.02385c-0.024,0.01 -0.07227,0.01067 -0.09653,0.00133l-0.06653,-0.02559c-0.00747,-0.00287 -0.01493,-0.01374 -0.01493,-0.02174v-0.008c0,-0.008 0.00747,-0.01887 0.01493,-0.02174l0.06653,-0.02559c0.02427,-0.00933 0.07253,-0.00867 0.09653,0.00133zM1.04,0.754c0,0.008 -0.008,0.016 -0.016,0.016h-0.078c-0.008,0 -0.016,-0.008 -0.016,-0.016v-0.008c0,-0.008 0.008,-0.016 0.016,-0.016h0.078c0.008,0 0.016,0.008 0.016,0.016zM0.89932,0.60081c0.01034,0.00459 0.01268,0.01719 0.00468,0.02519l-0.008,0.008c-0.008,0.008 -0.02673,0.01242 -0.03747,0.00884l-0.04424,-0.01475c-0.01215,-0.00405 -0.0163,-0.0181 -0.0083,-0.0281l0.008,-0.01c0.008,-0.01 0.0277,-0.0148 0.0394,-0.0096zM1.164,0.6c0.008,0.01 0.00385,0.02405 -0.0083,0.0281l-0.04424,0.01475c-0.01073,0.00358 -0.02947,-0.00084 -0.03747,-0.00884l-0.008,-0.008c-0.008,-0.008 -0.00566,-0.02059 0.00468,-0.02519l0.04592,-0.02041c0.0117,-0.0052 0.0314,-0.0004 0.0394,0.0096zM1.1557,0.3319c0.01215,0.00405 0.0163,0.0181 0.0083,0.0281l-0.008,0.01c-0.008,0.01 -0.0277,0.0148 -0.0394,0.0096l-0.04592,-0.02041c-0.01034,-0.00459 -0.01268,-0.01719 -0.00468,-0.02519l0.008,-0.008c0.008,-0.008 0.02673,-0.01242 0.03747,-0.00884zM0.904,0.334c0.008,0.008 0.00566,0.02059 -0.00468,0.02519l-0.04592,0.02041c-0.0117,0.0052 -0.0314,0.0004 -0.0394,-0.0096l-0.008,-0.01c-0.008,-0.01 -0.00385,-0.02405 0.0083,-0.0281l0.04424,-0.01475c0.01073,-0.00358 0.02947,0.00084 0.03747,0.00884zM0.734,0.572c-0.002,0.004 -0.00716,0.00484 -0.01032,0.00168l-0.00568,-0.00568c-0.004,-0.004 -0.00234,-0.008 0.00331,-0.008h0.00974c0.00447,0 0.00694,0.004 0.00494,0.008zM1.24632,0.57368c-0.00316,0.00316 -0.00832,0.00232 -0.01032,-0.00168l-0.002,-0.004c-0.002,-0.004 0.00047,-0.008 0.00494,-0.008h0.00974c0.00566,0 0.00731,0.004 0.00331,0.008zM1.252,0.392c0.004,0.004 0.00234,0.008 -0.00331,0.008h-0.00974c-0.00447,0 -0.00694,-0.004 -0.00494,-0.008l0.002,-0.004c0.002,-0.004 0.00716,-0.00484 0.01032,-0.00168zM0.736,0.392c0.002,0.004 -0.00047,0.008 -0.00494,0.008h-0.00974c-0.00566,0 -0.00731,-0.004 -0.00331,-0.008l0.00568,-0.00568c0.00316,-0.00316 0.00832,-0.00232 0.01032,0.00168zM0.82723,0.71241c0.01138,0.00379 0.02277,0.01959 0.02277,0.03159v0.012c0,0.012 -0.01138,0.02779 -0.02277,0.03159l-0.04923,0.01641c-0.024,0.008 -0.07218,0.00856 -0.09636,0.00112l-0.0587,-0.01806c-0.01147,-0.00353 -0.02294,-0.01906 -0.02294,-0.03106v-0.012c0,-0.012 0.01147,-0.02753 0.02294,-0.03106l0.0587,-0.01806c0.02418,-0.00744 0.07236,-0.00688 0.09636,0.00112zM1.34706,0.71294c0.01147,0.00353 0.02294,0.01906 0.02294,0.03106v0.012c0,0.012 -0.01147,0.02753 -0.02294,0.03106l-0.0587,0.01806c-0.02418,0.00744 -0.07236,0.00688 -0.09636,-0.00112l-0.04923,-0.01641c-0.01138,-0.00379 -0.02277,-0.01959 -0.02277,-0.03159v-0.012c0,-0.012 0.01138,-0.02779 0.02277,-0.03159l0.04923,-0.01641c0.024,-0.008 0.07218,-0.00856 0.09636,-0.00112zM1.09523,0.99385c0.00738,0.00308 0.01477,0.01415 0.01477,0.02215v0.008c0,0.008 -0.00738,0.01908 -0.01477,0.02215l-0.05723,0.02385c-0.024,0.01 -0.07227,0.01067 -0.09653,0.00133l-0.06653,-0.02559c-0.00747,-0.00287 -0.01493,-0.01374 -0.01493,-0.02174v-0.008c0,-0.008 0.00747,-0.01887 0.01493,-0.02174l0.06653,-0.02559c0.02427,-0.00933 0.07253,-0.00867 0.09653,0.00133zM0.89932,1.14081c0.01034,0.00459 0.01268,0.01719 0.00468,0.02519l-0.008,0.008c-0.008,0.008 -0.02673,0.01242 -0.03747,0.00884l-0.04424,-0.01475c-0.01215,-0.00405 -0.0163,-0.0181 -0.0083,-0.0281l0.008,-0.01c0.008,-0.01 0.0277,-0.0148 0.0394,-0.0096zM1.164,1.14c0.008,0.01 0.00385,0.02405 -0.0083,0.0281l-0.04424,0.01475c-0.01073,0.00358 -0.02947,-0.00084 -0.03747,-0.00884l-0.008,-0.008c-0.008,-0.008 -0.00566,-0.02059 0.00468,-0.02519l0.04592,-0.02041c0.0117,-0.0052 0.0314,-0.0004 0.0394,0.0096zM1.1557,0.8719c0.01215,0.00405 0.0163,0.0181 0.0083,0.0281l-0.008,0.01c-0.008,0.01 -0.0277,0.0148 -0.0394,0.0096l-0.04592,-0.02041c-0.01034,-0.00459 -0.01268,-0.01719 -0.00468,-0.02519l0.008,-0.008c0.008,-0.008 0.02673,-0.01242 0.03747,-0.00884zM0.904,0.874c0.008,0.008 0.00566,0.02059 -0.00468,0.02519l-0.04592,0.02041c-0.0117,0.0052 -0.0314,0.0004 -0.0394,-0.0096l-0.008,-0.01c-0.008,-0.01 -0.00385,-0.02405 0.0083,-0.0281l0.04424,-0.01475c0.01073,-0.00358 0.02947,0.00084 0.03747,0.00884zM0.734,1.112c-0.002,0.004 -0.00716,0.00484 -0.01032,0.00168l-0.00568,-0.00568c-0.004,-0.004 -0.00234,-0.008 0.00331,-0.008h0.00974c0.00447,0 0.00694,0.004 0.00494,0.008zM1.24632,1.11368c-0.00316,0.00316 -0.00832,0.00232 -0.01032,-0.00168l-0.002,-0.004c-0.002,-0.004 0.00047,-0.008 0.00494,-0.008h0.00974c0.00566,0 0.00731,0.004 0.00331,0.008zM1.252,0.932c0.004,0.004 0.00234,0.008 -0.00331,0.008h-0.00974c-0.00447,0 -0.00694,-0.004 -0.00494,-0.008l0.002,-0.004c0.002,-0.004 0.00716,-0.00484 0.01032,-0.00168zM0.736,0.932c0.002,0.004 -0.00047,0.008 -0.00494,0.008h-0.00974c-0.00566,0 -0.00731,-0.004 -0.00331,-0.008l0.00568,-0.00568c0.00316,-0.00316 0.00832,-0.00232 0.01032,0.00168zM1.60523,0.45385c0.00738,0.00308 0.01477,0.01415 0.01477,0.02215v0.008c0,0.008 -0.00738,0.01908 -0.01477,0.02215l-0.05723,0.02385c-0.024,0.01 -0.072,0.01 -0.096,0l-0.05723,-0.02385c-0.00738,-0.00308 -0.01477,-0.01415 -0.01477,-0.02215v-0.008c0,-0.008 0.00738,-0.01908 0.01477,-0.02215l0.05723,-0.02385c0.024,-0.01 0.072,-0.01 0.096,0zM1.55,0.754c0,0.008 -0.008,0.016 -0.016,0.016h-0.068c-0.008,0 -0.016,-0.008 -0.016,-0.016v-0.008c0,-0.008 0.008,-0.016 0.016,-0.016h0.068c0.008,0 0.016,0.008 0.016,0.016zM1.41211,0.60106c0.00894,0.00447 0.01189,0.01694 0.00589,0.02494l-0.006,0.008c-0.006,0.008 -0.02149,0.01284 -0.03097,0.00968l-0.04673,-0.01558c-0.01215,-0.00405 -0.0163,-0.0181 -0.0083,-0.0281l0.008,-0.01c0.008,-0.01 0.02745,-0.01427 0.03891,-0.00855zM1.674,0.6c0.008,0.01 0.00385,0.02405 -0.0083,0.0281l-0.04673,0.01558c-0.00949,0.00316 -0.02497,-0.00168 -0.03097,-0.00968l-0.006,-0.008c-0.006,-0.008 -0.00306,-0.02047 0.00589,-0.02494l0.0392,-0.0196c0.01145,-0.00573 0.03091,-0.00145 0.03891,0.00855zM1.6657,0.3319c0.01215,0.00405 0.0163,0.0181 0.0083,0.0281l-0.008,0.01c-0.008,0.01 -0.02745,0.01427 -0.03891,0.00855l-0.0392,-0.0196c-0.00894,-0.00447 -0.01189,-0.01694 -0.00589,-0.02494l0.006,-0.008c0.006,-0.008 0.02149,-0.01284 0.03097,-0.00968zM1.418,0.334c0.006,0.008 0.00306,0.02047 -0.00589,0.02494l-0.0392,0.0196c-0.01145,0.00573 -0.03091,0.00145 -0.03891,-0.00855l-0.008,-0.01c-0.008,-0.01 -0.00385,-0.02405 0.0083,-0.0281l0.04673,-0.01558c0.00949,-0.00316 0.02497,0.00168 0.03097,0.00968zM1.60523,0.99385c0.00738,0.00308 0.01477,0.01415 0.01477,0.02215v0.008c0,0.008 -0.00738,0.01908 -0.01477,0.02215l-0.05723,0.02385c-0.024,0.01 -0.072,0.01 -0.096,0l-0.05723,-0.02385c-0.00738,-0.00308 -0.01477,-0.01415 -0.01477,-0.02215v-0.008c0,-0.008 0.00738,-0.01908 0.01477,-0.02215l0.05723,-0.02385c0.024,-0.01 0.072,-0.01 0.096,0zM1.41211,1.14106c0.00894,0.00447 0.01189,0.01694 0.00589,0.02494l-0.006,0.008c-0.006,0.008 -0.02149,0.01284 -0.03097,0.00968l-0.04673,-0.01558c-0.01215,-0.00405 -0.0163,-0.0181 -0.0083,-0.0281l0.008,-0.01c0.008,-0.01 0.02745,-0.01427 0.03891,-0.00855zM1.674,1.14c0.008,0.01 0.00385,0.02405 -0.0083,0.0281l-0.04673,0.01558c-0.00949,0.00316 -0.02497,-0.00168 -0.03097,-0.00968l-0.006,-0.008c-0.006,-0.008 -0.00306,-0.02047 0.00589,-0.02494l0.0392,-0.0196c0.01145,-0.00573 0.03091,-0.00145 0.03891,0.00855zM1.6657,0.8719c0.01215,0.00405 0.0163,0.0181 0.0083,0.0281l-0.008,0.01c-0.008,0.01 -0.02745,0.01427 -0.03891,0.00855l-0.0392,-0.0196c-0.00894,-0.00447 -0.01189,-0.01694 -0.00589,-0.02494l0.006,-0.008c0.006,-0.008 0.02149,-0.01284 0.03097,-0.00968zM1.418,0.874c0.006,0.008 0.00306,0.02047 -0.00589,0.02494l-0.0392,0.0196c-0.01145,0.00573 -0.03091,0.00145 -0.03891,-0.00855l-0.008,-0.01c-0.008,-0.01 -0.00385,-0.02405 0.0083,-0.0281l0.04673,-0.01558c0.00949,-0.00316 0.02497,0.00168 0.03097,0.00968zM2.12523,0.45385c0.00738,0.00308 0.01477,0.01415 0.01477,0.02215v0.008c0,0.008 -0.00738,0.01908 -0.01477,0.02215l-0.05723,0.02385c-0.024,0.01 -0.07227,0.01067 -0.09653,0.00133l-0.06653,-0.02559c-0.00747,-0.00287 -0.01493,-0.01374 -0.01493,-0.02174v-0.008c0,-0.008 0.00747,-0.01887 0.01493,-0.02174l0.06653,-0.02559c0.02427,-0.00933 0.07253,-0.00867 0.09653,0.00133zM2.07,0.754c0,0.008 -0.008,0.016 -0.016,0.016h-0.078c-0.008,0 -0.016,-0.008 -0.016,-0.016v-0.008c0,-0.008 0.008,-0.016 0.016,-0.016h0.078c0.008,0 0.016,0.008 0.016,0.016zM1.92932,0.60081c0.01034,0.00459 0.01268,0.01719 0.00468,0.02519l-0.008,0.008c-0.008,0.008 -0.02673,0.01242 -0.03747,0.00884l-0.04424,-0.01475c-0.01215,-0.00405 -0.0163,-0.0181 -0.0083,-0.0281l0.008,-0.01c0.008,-0.01 0.0277,-0.0148 0.0394,-0.0096zM2.194,0.6c0.008,0.01 0.00385,0.02405 -0.0083,0.0281l-0.04424,0.01475c-0.01073,0.00358 -0.02947,-0.00084 -0.03747,-0.00884l-0.008,-0.008c-0.008,-0.008 -0.00566,-0.02059 0.00468,-0.02519l0.04592,-0.02041c0.0117,-0.0052 0.0314,-0.0004 0.0394,0.0096zM2.1857,0.3319c0.01215,0.00405 0.0163,0.0181 0.0083,0.0281l-0.008,0.01c-0.008,0.01 -0.0277,0.0148 -0.0394,0.0096l-0.04592,-0.02041c-0.01034,-0.00459 -0.01268,-0.01719 -0.00468,-0.02519l0.008,-0.008c0.008,-0.008 0.02673,-0.01242 0.03747,-0.00884zM1.934,0.334c0.008,0.008 0.00566,0.02059 -0.00468,0.02519l-0.04592,0.02041c-0.0117,0.0052 -0.0314,0.0004 -0.0394,-0.0096l-0.008,-0.01c-0.008,-0.01 -0.00385,-0.02405 0.0083,-0.0281l0.04424,-0.01475c0.01073,-0.00358 0.02947,0.00084 0.03747,0.00884zM1.764,0.572c-0.002,0.004 -0.00716,0.00484 -0.01032,0.00168l-0.00568,-0.00568c-0.004,-0.004 -0.00234,-0.008 0.00331,-0.008h0.00974c0.00447,0 0.00694,0.004 0.00494,0.008zM2.27632,0.57368c-0.00316,0.00316 -0.00832,0.00232 -0.01032,-0.00168l-0.002,-0.004c-0.002,-0.004 0.00047,-0.008 0.00494,-0.008h0.00974c0.00566,0 0.00731,0.004 0.00331,0.008zM2.282,0.392c0.004,0.004 0.00234,0.008 -0.00331,0.008h-0.00974c-0.00447,0 -0.00694,-0.004 -0.00494,-0.008l0.002,-0.004c0.002,-0.004 0.00716,-0.00484 0.01032,-0.00168zM1.766,0.392c0.002,0.004 -0.00047,0.008 -0.00494,0.008h-0.00974c-0.00566,0 -0.00731,-0.004 -0.00331,-0.008l0.00568,-0.00568c0.00316,-0.00316 0.00832,-0.00232 0.01032,0.00168zM1.85723,0.71241c0.01138,0.00379 0.02277,0.01959 0.02277,0.03159v0.012c0,0.012 -0.01138,0.02779 -0.02277,0.03159l-0.04923,0.01641c-0.024,0.008 -0.07218,0.00856 -0.09636,0.00112l-0.0587,-0.01806c-0.01147,-0.00353 -0.02294,-0.01906 -0.02294,-0.03106v-0.012c0,-0.012 0.01147,-0.02753 0.02294,-0.03106l0.0587,-0.01806c0.02418,-0.00744 0.07236,-0.00688 0.09636,0.00112zM2.37706,0.71294c0.01147,0.00353 0.02294,0.01906 0.02294,0.03106v0.012c0,0.012 -0.01147,0.02753 -0.02294,0.03106l-0.0587,0.01806c-0.02418,0.00744 -0.07236,0.00688 -0.09636,-0.00112l-0.04923,-0.01641c-0.01138,-0.00379 -0.02277,-0.01959 -0.02277,-0.03159v-0.012c0,-0.012 0.01138,-0.02779 0.02277,-0.03159l0.04923,-0.01641c0.024,-0.008 0.07218,-0.00856 0.09636,-0.00112zM2.12523,0.99385c0.00738,0.00308 0.01477,0.01415 0.01477,0.02215v0.008c0,0.008 -0.00738,0.01908 -0.01477,0.02215l-0.05723,0.02385c-0.024,0.01 -0.07227,0.01067 -0.09653,0.00133l-0.06653,-0.02559c-0.00747,-0.00287 -0.01493,-0.01374 -0.01493,-0.02174v-0.008c0,-0.008 0.00747,-0.01887 0.01493,-0.02174l0.06653,-0.02559c0.02427,-0.00933 0.07253,-0.00867 0.09653,0.00133zM1.92932,1.14081c0.01034,0.00459 0.01268,0.01719 0.00468,0.02519l-0.008,0.008c-0.008,0.008 -0.02673,0.01242 -0.03747,0.00884l-0.04424,-0.01475c-0.01215,-0.00405 -0.0163,-0.0181 -0.0083,-0.0281l0.008,-0.01c0.008,-0.01 0.0277,-0.0148 0.0394,-0.0096zM2.194,1.14c0.008,0.01 0.00385,0.02405 -0.0083,0.0281l-0.04424,0.01475c-0.01073,0.00358 -0.02947,-0.00084 -0.03747,-0.00884l-0.008,-0.008c-0.008,-0.008 -0.00566,-0.02059 0.00468,-0.02519l0.04592,-0.02041c0.0117,-0.0052 0.0314,-0.0004 0.0394,0.0096zM2.1857,0.8719c0.01215,0.00405 0.0163,0.0181 0.0083,0.0281l-0.008,0.01c-0.008,0.01 -0.0277,0.0148 -0.0394,0.0096l-0.04592,-0.02041c-0.01034,-0.00459 -0.01268,-0.01719 -0.00468,-0.02519l0.008,-0.008c0.008,-0.008 0.02673,-0.01242 0.03747,-0.00884zM1.934,0.874c0.008,0.008 0.00566,0.02059 -0.00468,0.02519l-0.04592,0.02041c-0.0117,0.0052 -0.0314,0.0004 -0.0394,-0.0096l-0.008,-0.01c-0.008,-0.01 -0.00385,-0.02405 0.0083,-0.0281l0.04424,-0.01475c0.01073,-0.00358 0.02947,0.00084 0.03747,0.00884zM1.764,1.112c-0.002,0.004 -0.00716,0.00484 -0.01032,0.00168l-0.00568,-0.00568c-0.004,-0.004 -0.00234,-0.008 0.00331,-0.008h0.00974c0.00447,0 0.00694,0.004 0.00494,0.008zM2.27632,1.11368c-0.00316,0.00316 -0.00832,0.00232 -0.01032,-0.00168l-0.002,-0.004c-0.002,-0.004 0.00047,-0.008 0.00494,-0.008h0.00974c0.00566,0 0.00731,0.004 0.00331,0.008zM2.282,0.932c0.004,0.004 0.00234,0.008 -0.00331,0.008h-0.00974c-0.00447,0 -0.00694,-0.004 -0.00494,-0.008l0.002,-0.004c0.002,-0.004 0.00716,-0.00484 0.01032,-0.00168zM1.766,0.932c0.002,0.004 -0.00047,0.008 -0.00494,0.008h-0.00974c-0.00566,0 -0.00731,-0.004 -0.00331,-0.008l0.00568,-0.00568c0.00316,-0.00316 0.00832,-0.00232 0.01032,0.00168zM2.64507,0.45426c0.00747,0.00287 0.01493,0.01374 0.01493,0.02174v0.008c0,0.008 -0.00747,0.01887 -0.01493,0.02174l-0.06653,0.02559c-0.02427,0.00933 -0.07253,0.00867 -0.09653,-0.00133l-0.05723,-0.02385c-0.00738,-0.00308 -0.01477,-0.01415 -0.01477,-0.02215v-0.008c0,-0.008 0.00738,-0.01908 0.01477,-0.02215l0.05723,-0.02385c0.024,-0.01 0.07227,-0.01067 0.09653,-0.00133zM2.59,0.754c0,0.008 -0.008,0.016 -0.016,0.016h-0.078c-0.008,0 -0.016,-0.008 -0.016,-0.016v-0.008c0,-0.008 0.008,-0.016 0.016,-0.016h0.078c0.008,0 0.016,0.008 0.016,0.016zM2.44932,0.60081c0.01034,0.00459 0.01268,0.01719 0.00468,0.02519l-0.008,0.008c-0.008,0.008 -0.02673,0.01242 -0.03747,0.00884l-0.04424,-0.01475c-0.01215,-0.00405 -0.0163,-0.0181 -0.0083,-0.0281l0.008,-0.01c0.008,-0.01 0.0277,-0.0148 0.0394,-0.0096zM2.704,0.6c0.008,0.01 0.00401,0.0245 -0.00798,0.02899l-0.03483,0.01306c-0.01059,0.00397 -0.02919,-0.00005 -0.03719,-0.00805l-0.008,-0.008c-0.008,-0.008 -0.00588,-0.02106 0.00424,-0.02612l0.03685,-0.01843c0.01145,-0.00573 0.03091,-0.00145 0.03891,0.00855zM2.69602,0.33101c0.01199,0.0045 0.01598,0.01899 0.00798,0.02899l-0.008,0.01c-0.008,0.01 -0.02745,0.01427 -0.03891,0.00855l-0.03685,-0.01843c-0.01012,-0.00506 -0.01224,-0.01812 -0.00424,-0.02612l0.008,-0.008c0.008,-0.008 0.02659,-0.01203 0.03719,-0.00805zM2.454,0.334c0.008,0.008 0.00566,0.02059 -0.00468,0.02519l-0.04592,0.02041c-0.0117,0.0052 -0.0314,0.0004 -0.0394,-0.0096l-0.008,-0.01c-0.008,-0.01 -0.00385,-0.02405 0.0083,-0.0281l0.04424,-0.01475c0.01073,-0.00358 0.02947,0.00084 0.03747,0.00884zM2.64507,0.99426c0.00747,0.00287 0.01493,0.01374 0.01493,0.02174v0.008c0,0.008 -0.00747,0.01887 -0.01493,0.02174l-0.06653,0.02559c-0.02427,0.00933 -0.07253,0.00867 -0.09653,-0.00133l-0.05723,-0.02385c-0.00738,-0.00308 -0.01477,-0.01415 -0.01477,-0.02215v-0.008c0,-0.008 0.00738,-0.01908 0.01477,-0.02215l0.05723,-0.02385c0.024,-0.01 0.07227,-0.01067 0.09653,-0.00133zM2.44932,1.14081c0.01034,0.00459 0.01268,0.01719 0.00468,0.02519l-0.008,0.008c-0.008,0.008 -0.02673,0.01242 -0.03747,0.00884l-0.04424,-0.01475c-0.01215,-0.00405 -0.0163,-0.0181 -0.0083,-0.0281l0.008,-0.01c0.008,-0.01 0.0277,-0.0148 0.0394,-0.0096zM2.704,1.14c0.008,0.01 0.00401,0.0245 -0.00798,0.02899l-0.03483,0.01306c-0.01059,0.00397 -0.02919,-0.00005 -0.03719,-0.00805l-0.008,-0.008c-0.008,-0.008 -0.00588,-0.02106 0.00424,-0.02612l0.03685,-0.01843c0.01145,-0.00573 0.03091,-0.00145 0.03891,0.00855zM2.69602,0.87101c0.01199,0.0045 0.01598,0.01899 0.00798,0.02899l-0.008,0.01c-0.008,0.01 -0.02745,0.01427 -0.03891,0.00855l-0.03685,-0.01843c-0.01012,-0.00506 -0.01224,-0.01812 -0.00424,-0.02612l0.008,-0.008c0.008,-0.008 0.02659,-0.01203 0.03719,-0.00805zM2.454,0.874c0.008,0.008 0.00566,0.02059 -0.00468,0.02519l-0.04592,0.02041c-0.0117,0.0052 -0.0314,0.0004 -0.0394,-0.0096l-0.008,-0.01c-0.008,-0.01 -0.00385,-0.02405 0.0083,-0.0281l0.04424,-0.01475c0.01073,-0.00358 0.02947,0.00084 0.03747,0.00884z" fill="#000000" fill-rule="evenodd" stroke="#000000" stroke-width="0.005"></path></g></svg>