<svg version="1.1" xmlns="http://www.w3.org/2000/svg" xmlns:xlink="http://www.w3.org/1999/xlink" width="3in" height="3in" viewBox="0 0 3.05 3.05"><g fill="none" fill-rule="none" stroke="none" stroke-width="none" stroke-linecap="butt" stroke-linejoin="miter" stroke-miterlimit="10" stroke-dasharray="" stroke-dashoffset="0" font-family="none" font-weight="none" font-size="none" text-anchor="none" style="mix-blend-mode: normal"><path d="M0.25,2.75l0,-2.5l2.5,0v2.5z" fill="none" fill-rule="nonzero" stroke="none" stroke-width="1"></path><path d="M0,3v-3h3v3zM0.2625,0.2625h0.175v0.175h-0.175zM0.6625,0.2625h0.175v0.175h-0.175zM1.0625,0.2625h0.175v0.175h-0.175zM1.4625,0.2625h0.175v0.175h-0.175zM1.8625,0.2625h0.175v0.175h-0.175zM2.2625,0.2625h0.175v0.175h-0.175zM2.6625,0.2625h0.0875v0.175h-0.0875zM0.25626,0.66805l0.17132,-0.01178l0.01178,0.17132l-0.17132,0.01178zM0.65627,0.66804l0.17132,-0.01177l0.01177,0.17132l-0.17132,0.01177zM1.05628,0.66803l0.17133,-0.01175l0.01175,0.17133l-0.17133,0.01175zM1.45631,0.66801l0.17135,-0.0117l0.0117,0.17135l-0.17135,0.0117zM1.85634,0.66798l0.17137,-0.01164l0.01164,0.17137l-0.17137,0.01164zM2.25638,0.66794l0.1714,-0.01155l0.01155,0.1714l-0.1714,0.01155zM2.65643,0.66789l0.09357,-0.00625v0.1722l-0.08211,0.00549zM0.2507,1.0737l0.16688,-0.02301l0.02301,0.16688l-0.16688,0.02301zM0.6507,1.07369l0.16689,-0.02299l0.02299,0.16689l-0.16689,0.02299zM1.05073,1.07367l0.16691,-0.02294l0.02294,0.16691l-0.16691,0.02294zM1.45077,1.07362l0.16695,-0.02285l0.02285,0.16695l-0.16695,0.02285zM1.85083,1.07356l0.167,-0.02273l0.02273,0.167l-0.167,0.02273zM2.2509,1.07348l0.16707,-0.02257l0.02257,0.16707l-0.16707,0.02257zM2.651,1.07338l0.099,-0.01326v0.17015l-0.07662,0.01026zM0.40758,1.4458l0.03358,0.16178l-0.16178,0.03358l-0.02939,-0.14156l0,-0.02109zM0.64581,1.47937l0.16179,-0.03356l0.03356,0.16179l-0.16179,0.03356zM1.04585,1.47933l0.16183,-0.03348l0.03348,0.16183l-0.16183,0.03348zM1.4459,1.47926l0.1619,-0.03336l0.03336,0.1619l-0.1619,0.03336zM1.84598,1.47917l0.16199,-0.03319l0.03319,0.16199l-0.16199,0.03319zM2.24608,1.47904l0.1621,-0.03296l0.03296,0.1621l-0.1621,0.03296zM2.6462,1.4789l0.1038,-0.02092v0.16883l-0.0711,0.01433zM0.3977,1.84159l0.04344,0.15611l-0.15611,0.04344l-0.03502,-0.12587v-0.03258zM0.6416,1.88501l0.15613,-0.04341l0.04341,0.15613l-0.15613,0.04341zM1.04164,1.88495l0.15619,-0.04331l0.04331,0.15619l-0.15619,0.04331zM1.4417,1.88486l0.15629,-0.04316l0.04316,0.15629l-0.15629,0.04316zM1.84179,1.88473l0.15642,-0.04294l0.04294,0.15642l-0.15642,0.04294zM2.24191,1.88457l0.15659,-0.04266l0.04266,0.15659l-0.15659,0.04266zM2.64205,1.88437l0.10795,-0.02914v0.16822l-0.06563,0.01771zM0.38802,2.23803l0.05252,0.14999l-0.14999,0.05252l-0.04054,-0.11579l0,-0.03839zM0.63804,2.29052l0.15002,-0.05248l0.05248,0.15002l-0.15002,0.05248zM1.03808,2.29045l0.1501,-0.05237l0.05237,0.1501l-0.1501,0.05237zM1.43815,2.29034l0.15023,-0.05219l0.05219,0.15023l-0.15023,0.05219zM1.83824,2.29018l0.15041,-0.05194l0.05194,0.15041l-0.15041,0.05194zM2.23837,2.28998l0.15064,-0.05161l0.05161,0.15064l-0.15064,0.05161zM2.63852,2.28973l0.11148,-0.03783v0.16831l-0.06027,0.02045zM0.37862,2.63509l0.04866,0.11491h-0.16927l-0.00801,-0.01892v-0.04152zM0.6351,2.69585l0.14357,-0.06074l0.04861,0.1149h-0.16927zM1.03514,2.69577l0.14367,-0.06062l0.04847,0.11486h-0.16925zM1.43521,2.69563l0.14384,-0.06042l0.04822,0.11479h-0.16922zM1.83531,2.69545l0.14407,-0.06014l0.04788,0.11469h-0.16917zM2.23543,2.69521l0.14437,-0.05978l0.04744,0.11457h-0.16912zM2.63558,2.69492l0.11442,-0.04691v0.10199h-0.09184z" fill="#000000" fill-rule="evenodd" stroke="#000000" stroke-width="0.005"></path></g></svg>