<!--

Built on 2024-03-28T23:31:47.474Z



## Param string


## Generated From
n/a

-->

<svg version="1.1" xmlns="http://www.w3.org/2000/svg" xmlns:xlink="http://www.w3.org/1999/xlink" width="17.375340700000002in" height="4.4401889973166in" viewBox="-3.7178603 -0.3401889973166005 17.425340700000003 4.4901889973166"><g fill="#d3d3d3" fill-rule="evenodd" stroke="#ff0000" stroke-width="0.005" stroke-linecap="butt" stroke-linejoin="miter" stroke-miterlimit="10" stroke-dasharray="" stroke-dashoffset="0" font-family="none" font-weight="none" font-size="none" text-anchor="none" style="mix-blend-mode: normal"><path d="M2,-0.25c0.83333,0.25 1.91667,1 3,1c1.08333,0 2.16667,-0.75 3,-1c0.83333,-0.25 1.85111,0.08134 2,0.25c0.04281,0.0485 -0.03611,0.12041 0,0.16667c0.07333,0.09392 0.36831,0.12994 0.66667,0.16667c0.58211,0.07166 2.61581,0 2.61581,0c0.20711,0 0.375,0.16789 0.375,0.375c0,0.20711 -0.16789,0.375 -0.375,0.375c0,0 -2.10901,-0.06239 -2.61581,0c-0.2121,0.02611 -0.36944,0.06864 -0.44444,0.11111c-0.03106,0.01759 -0.05556,0.03704 -0.05556,0.05556c0,0.01852 0.02449,0.03797 0.05556,0.05556c0.07501,0.04247 0.23235,0.085 0.44444,0.11111c0.50681,0.06239 2.61581,0 2.61581,0c0.20711,0 0.375,0.16789 0.375,0.375c0,0.20711 -0.16789,0.375 -0.375,0.375c0,0 -2.10901,-0.06239 -2.61581,0c-0.2121,0.02611 -0.32841,0.04541 -0.44444,0.11111c-0.0961,0.05441 -0.10786,0.16803 -0.22222,0.22222c-0.2045,0.09691 -0.56432,-0.00165 -1,0.1c-0.89827,0.20958 -2.66667,1.5 -4,1.5c-1.33333,0 -3.10173,-1.29042 -4,-1.5c-0.43568,-0.10165 -0.7955,-0.00309 -1,-0.1c-0.11436,-0.05419 -0.12612,-0.16781 -0.22222,-0.22222c-0.11603,-0.0657 -0.23164,-0.08491 -0.44444,-0.11111c-0.51435,-0.06332 -2.67619,0 -2.67619,0c-0.20711,0 -0.375,-0.16789 -0.375,-0.375c0,-0.20711 0.16789,-0.375 0.375,-0.375c0,0 2.16185,0.06332 2.67619,0c0.21281,-0.0262 0.36944,-0.06864 0.44444,-0.11111c0.03106,-0.01759 0.05556,-0.03704 0.05556,-0.05556c0,-0.01852 -0.02449,-0.03797 -0.05556,-0.05556c-0.07501,-0.04247 -0.23164,-0.08491 -0.44444,-0.11111c-0.51435,-0.06332 -2.67619,0 -2.67619,0c-0.20711,0 -0.375,-0.16789 -0.375,-0.375c0,-0.20711 0.16789,-0.375 0.375,-0.375c0,0 2.16185,0.06332 2.67619,0c0.21281,-0.0262 0.32841,-0.04541 0.44444,-0.11111c0.0961,-0.05441 0.0946,-0.1598 0.22222,-0.22222c0.32321,-0.15808 1.16667,-0.5 2,-0.25z"></path></g></svg>