<svg version="1.1" xmlns="http://www.w3.org/2000/svg" xmlns:xlink="http://www.w3.org/1999/xlink" width="13in" height="4.592970713852814in" viewBox="0 -0.4929707138528143 13.05 4.642970713852814"><g fill="none" fill-rule="none" stroke="none" stroke-width="none" stroke-linecap="butt" stroke-linejoin="miter" stroke-miterlimit="10" stroke-dasharray="" stroke-dashoffset="0" font-family="none" font-weight="none" font-size="none" text-anchor="none" style="mix-blend-mode: normal"><path d="M0.25,0.12546c0.41292,-0.30796 0.69427,-0.53667 1.68254,-0.25973c1.05558,0.29579 2.79855,1.25927 4.56746,1.25927c1.76891,0 3.51188,-0.96348 4.56746,-1.25927c0.98827,-0.27693 1.27131,-0.04186 1.68254,0.2603v1.63135c-0.21109,0.01058 -0.31924,-0.01204 -0.80559,0.09887c-1.15045,0.26237 -3.68155,1.99374 -5.44441,1.99374c-1.76287,0 -4.29396,-1.73138 -5.44441,-1.99374c-0.48634,-0.11091 -0.59436,-0.08991 -0.80559,-0.09989z" fill="none" fill-rule="nonzero" stroke="none" stroke-width="1"></path><path d="" fill="none" fill-rule="nonzero" stroke="none" stroke-width="1"></path><path d="M0,0c0.45833,-0.33929 0.91667,-0.67857 2,-0.375c1.08333,0.30357 2.79167,1.25 4.5,1.25c1.70833,0 3.41667,-0.94643 4.5,-1.25c1.08333,-0.30357 1.54167,0.03571 2,0.375v2c0,0 -0.54174,-0.00451 -1,0.1c-1.10585,0.25219 -3.66667,2 -5.5,2c-1.83333,0 -4.39415,-1.74781 -5.5,-2c-0.45826,-0.10451 -1,-0.1 -1,-0.1z" fill="#000000" fill-rule="evenodd" stroke="#000000" stroke-width="0.005"></path></g></svg>