<!--

Built on 2024-03-26T17:17:37.657Z



## Param string


-->

<svg version="1.1" xmlns="http://www.w3.org/2000/svg" xmlns:xlink="http://www.w3.org/1999/xlink" width="17.406590700000002in" height="4.434441193574922in" viewBox="-3.7491103 -0.3344411935749219 17.456590700000003 4.484441193574922"><g fill="#d3d3d3" fill-rule="evenodd" stroke="#ff0000" stroke-width="0.005" stroke-linecap="butt" stroke-linejoin="miter" stroke-miterlimit="10" stroke-dasharray="" stroke-dashoffset="0" font-family="none" font-weight="none" font-size="none" text-anchor="none" style="mix-blend-mode: normal"><path d="M2,-0.25c0.83333,0.25 1.91667,1 3,1c1.08333,0 2.16667,-0.75 3,-1c0.83333,-0.25 1.88735,0.12239 2,0.25c0.02291,0.02595 -0.01806,0.06021 0,0.08333c0.03666,0.04696 0.16604,0.06274 0.33333,0.08333c0.47962,0.05904 2.82415,0 2.82415,0c0.27614,0 0.5,0.22386 0.5,0.5c0,0.27614 -0.22386,0.5 -0.5,0.5c0,0 -2.41303,-0.05061 -2.82415,0c-0.11708,0.01441 -0.18472,0.03432 -0.22222,0.05556c-0.01553,0.00879 -0.02778,0.01852 -0.02778,0.02778c0,0.00926 0.01225,0.01898 0.02778,0.02778c0.0375,0.02123 0.10514,0.04114 0.22222,0.05556c0.41111,0.05061 2.82415,0 2.82415,0c0.27614,0 0.5,0.22386 0.5,0.5c0,0.27614 -0.22386,0.5 -0.5,0.5c0,0 -2.41303,-0.05061 -2.82415,0c-0.11708,0.01441 -0.16421,0.02271 -0.22222,0.05556c-0.04805,0.02721 -0.04722,0.08083 -0.11111,0.11111c-0.16158,0.07657 -0.56432,-0.00165 -1,0.1c-0.89827,0.20958 -2.66667,1.5 -4,1.5c-1.33333,0 -3.10173,-1.29042 -4,-1.5c-0.43568,-0.10165 -0.83842,-0.02343 -1,-0.1c-0.06389,-0.03028 -0.06306,-0.0839 -0.11111,-0.11111c-0.05802,-0.03285 -0.10473,-0.04109 -0.22222,-0.05556c-0.4192,-0.05161 -2.91578,0 -2.91578,0c-0.27614,0 -0.5,-0.22386 -0.5,-0.5c0,-0.27614 0.22386,-0.5 0.5,-0.5c0,0 2.49658,0.05161 2.91578,0c0.1175,-0.01446 0.18472,-0.03432 0.22222,-0.05556c0.01553,-0.00879 0.02778,-0.01852 0.02778,-0.02778c0,-0.00926 -0.01225,-0.01898 -0.02778,-0.02778c-0.0375,-0.02123 -0.10473,-0.04109 -0.22222,-0.05556c-0.4192,-0.05161 -2.91578,0 -2.91578,0c-0.27614,0 -0.5,-0.22386 -0.5,-0.5c0,-0.27614 0.22386,-0.5 0.5,-0.5c0,0 2.49658,0.05161 2.91578,0c0.1175,-0.01446 0.16421,-0.02271 0.22222,-0.05556c0.04805,-0.02721 0.04153,-0.07708 0.11111,-0.11111c0.24921,-0.12188 1.16667,-0.5 2,-0.25z"></path></g></svg>