<!--

Built on 2024-03-26T17:17:37.790Z



## Param string


-->

<svg version="1.1" xmlns="http://www.w3.org/2000/svg" xmlns:xlink="http://www.w3.org/1999/xlink" width="2.77163859753386in" height="2.771638597533861in" viewBox="-1.38581929876693 -1.3858192987669304 2.82163859753386 2.8216385975338607"><g fill="none" fill-rule="none" stroke="none" stroke-width="none" stroke-linecap="butt" stroke-linejoin="miter" stroke-miterlimit="10" stroke-dasharray="" stroke-dashoffset="0" font-family="none" font-weight="none" font-size="none" text-anchor="none" style="mix-blend-mode: normal"><path d="" fill="none" fill-rule="nonzero" stroke="none" stroke-width="1"></path><path d="M-0.51662,1.38582c-0.0287,0 -0.0777,-0.02029 -0.09799,-0.04059l-0.73061,-0.73061c-0.02029,-0.02029 -0.04059,-0.06929 -0.04059,-0.09799v-1.03325c0,-0.0287 0.02029,-0.0777 0.04059,-0.09799l0.73061,-0.73061c0.02029,-0.02029 0.06929,-0.04059 0.09799,-0.04059l1.03325,0c0.0287,0 0.0777,0.02029 0.09799,0.04059l0.73061,0.73061c0.02029,0.02029 0.04059,0.06929 0.04059,0.09799l0,1.03325c0,0.0287 -0.02029,0.0777 -0.04059,0.09799l-0.73061,0.73061c-0.02029,0.02029 -0.06929,0.04059 -0.09799,0.04059z" fill="#d3d3d3" fill-rule="evenodd" stroke="#ff0000" stroke-width="0.005"></path></g></svg>