<!--

Built on 2024-03-26T17:17:37.595Z



## Param string


-->

<svg version="1.1" xmlns="http://www.w3.org/2000/svg" xmlns:xlink="http://www.w3.org/1999/xlink" width="17.250340700000002in" height="2in" viewBox="-3.6709853 0 17.300340700000003 2.05"><g fill="none" fill-rule="none" stroke="none" stroke-width="none" stroke-linecap="butt" stroke-linejoin="miter" stroke-miterlimit="10" stroke-dasharray="" stroke-dashoffset="0" font-family="none" font-weight="none" font-size="none" text-anchor="none" style="mix-blend-mode: normal"><path d="" fill="none" fill-rule="nonzero" stroke="none" stroke-width="1"></path><path d="M0.13975,2c-0.06988,0 -0.171,-0.0625 -0.20225,-0.125l-0.125,-0.25c-0.03125,-0.0625 -0.13238,-0.125 -0.20225,-0.125h-2.68258c-0.08839,0 -0.23928,-0.0625 -0.30178,-0.125l-0.25,-0.25c-0.0625,-0.0625 -0.0625,-0.1875 0,-0.25l0.25,-0.25c0.0625,-0.0625 0.21339,-0.125 0.30178,-0.125l2.68258,0c0.06988,0 0.171,-0.0625 0.20225,-0.125l0.125,-0.25c0.03125,-0.0625 0.13238,-0.125 0.20225,-0.125h9.72049c0.06988,0 0.171,0.0625 0.20225,0.125l0.125,0.25c0.03125,0.0625 0.13238,0.125 0.20225,0.125h2.59095c0.08839,0 0.23928,0.0625 0.30178,0.125l0.25,0.25c0.0625,0.0625 0.0625,0.1875 0,0.25l-0.25,0.25c-0.0625,0.0625 -0.21339,0.125 -0.30178,0.125h-2.59095c-0.06988,0 -0.171,0.0625 -0.20225,0.125l-0.125,0.25c-0.03125,0.0625 -0.13238,0.125 -0.20225,0.125z" fill="#d3d3d3" fill-rule="evenodd" stroke="#ff0000" stroke-width="0.005"></path></g></svg>