<?xml version="1.0" encoding="utf-8"?>
<!-- Generator: Adobe Illustrator 23.0.3, SVG Export Plug-In . SVG Version: 6.00 Build 0)  -->
<svg version="1.1" id="Layer_1" xmlns="http://www.w3.org/2000/svg" xmlns:xlink="http://www.w3.org/1999/xlink" x="0px" y="0px"
	 viewBox="0 0 348.1 471.5" style="enable-background:new 0 0 348.1 471.5;" xml:space="preserve">
<style type="text/css">
	.st0{fill:#0084DB;}
	.st1{fill:#FF1917;}
</style>
<g>
	<path d="M173.8,430.5h-12c-2.2,0-4.1-1.4-4.8-3.5c-1.1-3.5-2.6-6.9-4.4-10.1c-1.3-2.4-0.4-5.5,2-6.8c2.4-1.3,5.5-0.4,6.8,2
		c1.5,2.7,2.8,5.5,3.9,8.4h8.5c2.8,0,5,2.2,5,5C178.8,428.2,176.6,430.5,173.8,430.5L173.8,430.5z"/>
	<path d="M135.9,396.9c-0.9,0-1.9-0.3-2.7-0.8c-6.5-4.2-13.7-7-21.3-8.4c-2.7-0.5-4.5-3.1-4-5.8c0.5-2.7,3.1-4.5,5.8-4
		c8.9,1.6,17.3,4.9,25,9.8c2.3,1.5,3,4.6,1.5,6.9C139.2,396,137.6,396.9,135.9,396.9z"/>
	<path d="M70.8,394.5c-1.2,0-2.5-0.5-3.4-1.3c-3.1-2.8-6-5.9-8.7-9c-1.8-2.1-1.6-5.2,0.5-7.1c2.1-1.8,5.2-1.6,7.1,0.5
		c1.8,2.1,3.7,4.1,5.7,6l3.7-1.6c1.6-0.7,3.1-1.2,4.7-1.8c2.6-0.9,5.5,0.5,6.3,3.2c0.9,2.6-0.5,5.5-3.2,6.3c-1.3,0.5-2.7,1-4,1.5
		l-6.8,2.8C72.1,394.4,71.4,394.5,70.8,394.5L70.8,394.5z"/>
	<path d="M44,356.9c-1.9,0-3.8-1.1-4.6-3c-1-2.3-2-4.7-2.9-7.1l-1.6-4.4c-0.6-1.7-0.3-3.7,1-5l1-1.1c2.2-2.5,4.3-5.1,6.3-7.8
		c1.6-2.2,4.7-2.7,7-1.1c2.2,1.6,2.7,4.7,1.1,7c-1.8,2.6-3.8,5.1-5.9,7.5l0.6,1.6c0.8,2.2,1.7,4.4,2.6,6.5c1.1,2.5,0,5.5-2.6,6.6
		C45.3,356.7,44.7,356.9,44,356.9L44,356.9z"/>
	<path d="M60.2,312c-0.6,0-1.2-0.1-1.7-0.3c-2.6-1-3.9-3.8-3-6.4c2.4-6.6,4.1-13.5,5.1-20.4c0.4-2.7,2.9-4.7,5.6-4.3
		c2.7,0.4,4.7,2.9,4.3,5.6c-1,7.7-2.9,15.3-5.6,22.5C64.2,310.7,62.3,312,60.2,312L60.2,312z M65.6,262.9c-2.5,0-4.6-1.8-4.9-4.3
		c-1-7-2.7-13.8-5.1-20.4c-1-2.6,0.4-5.5,3-6.4c2.6-1,5.5,0.4,6.4,3c2.7,7.3,4.6,14.8,5.6,22.5c0.4,2.7-1.5,5.3-4.3,5.6
		C66,262.9,65.8,262.9,65.6,262.9L65.6,262.9z"/>
	<path d="M47.2,217c-1.5,0-3.1-0.7-4.1-2.1c-1.4-1.9-2.9-3.9-4.5-5.7l-2.8-3.3c-1.1-1.3-1.5-3.2-0.9-4.8l1-3.1
		c1-2.9,2.1-5.7,3.2-8.5c1.1-2.5,4-3.7,6.6-2.6c2.5,1.1,3.7,4,2.6,6.6c-1.1,2.6-2.1,5.2-3,7.8l-0.1,0.4l1,1.2c1.7,2,3.4,4.2,4.9,6.3
		c1.6,2.2,1.1,5.4-1.1,7C49.2,216.7,48.2,217,47.2,217L47.2,217z"/>
	<path d="M61.7,167.1c-1.1,0-2.3-0.4-3.2-1.2c-2.1-1.8-2.4-4.9-0.6-7c2.7-3.2,5.5-6.3,8.5-9.2c1.4-1.4,3.6-1.8,5.4-1l7.3,3
		c1.1,0.5,2.3,0.9,3.4,1.3c2.6,0.8,4.1,3.6,3.2,6.3c-0.8,2.6-3.7,4.1-6.3,3.2c-1.4-0.5-2.8-1-4.2-1.5l-4.2-1.8c-1.9,2-3.7,4-5.5,6.1
		C64.5,166.5,63.1,167.1,61.7,167.1L61.7,167.1z"/>
	<path d="M108.5,163c-2.1,0-4.1-1.4-4.8-3.6c-0.8-2.6,0.7-5.4,3.3-6.2c6.4-1.9,12.3-5.4,17.1-10c2-1.9,5.1-1.9,7.1,0.1
		c1.9,2,1.9,5.1-0.1,7.1c-5.9,5.7-13.2,10-21.1,12.4C109.5,162.9,109,163,108.5,163L108.5,163z"/>
	<path d="M140.8,127.5c-0.3,0-0.7,0-1-0.1c-2.7-0.5-4.5-3.2-3.9-5.9c0.1-0.6,0.2-1.3,0.3-1.9l1.5-9.7c0.3-2.1,1.9-3.7,3.9-4.1
		c4-0.8,8.1-1.5,12.2-2c2.7-0.4,5.2,1.6,5.6,4.3c0.3,2.7-1.6,5.2-4.3,5.6c-2.7,0.3-5.4,0.8-8.1,1.2l-1,6.2c-0.1,0.8-0.3,1.6-0.4,2.4
		C145.2,125.9,143.1,127.5,140.8,127.5L140.8,127.5z"/>
	<path d="M207.3,127.5c-2.3,0-4.4-1.6-4.9-4c-0.2-0.8-0.3-1.6-0.4-2.4l-1-6.2c-2.7-0.5-5.4-0.9-8.1-1.2c-2.7-0.3-4.7-2.8-4.3-5.6
		c0.3-2.7,2.8-4.7,5.6-4.3c4.1,0.5,8.2,1.2,12.2,2c2,0.4,3.6,2.1,3.9,4.1l1.5,9.7c0.1,0.7,0.2,1.3,0.3,1.9c0.5,2.7-1.2,5.3-3.9,5.9
		C208,127.5,207.6,127.5,207.3,127.5L207.3,127.5z"/>
	<path d="M239.6,163c-0.5,0-1-0.1-1.5-0.2c-7.9-2.4-15.2-6.7-21.1-12.4c-2-1.9-2-5.1-0.1-7.1c1.9-2,5.1-2,7.1-0.1
		c4.8,4.6,10.7,8.1,17.1,10c2.6,0.8,4.1,3.6,3.3,6.2C243.7,161.6,241.7,163,239.6,163z"/>
	<path d="M286.4,167.1c-1.4,0-2.9-0.6-3.8-1.8c-1.7-2.1-3.6-4.1-5.5-6.1l-4.2,1.8c-1.4,0.6-2.8,1.1-4.2,1.5
		c-2.6,0.8-5.4-0.6-6.3-3.2c-0.8-2.6,0.6-5.4,3.2-6.3c1.2-0.4,2.3-0.8,3.4-1.3l7.3-3c1.8-0.8,4-0.4,5.4,1c3,2.9,5.8,6,8.5,9.2
		c1.8,2.1,1.5,5.3-0.6,7C288.7,166.8,287.5,167.1,286.4,167.1L286.4,167.1z"/>
	<path d="M300.9,217c-1,0-2-0.3-2.9-1c-2.2-1.6-2.7-4.7-1.1-7c1.5-2.1,3.2-4.3,4.9-6.3l1-1.2l-0.1-0.4c-0.9-2.6-1.9-5.3-3-7.8
		c-1.1-2.5,0.1-5.5,2.6-6.6c2.5-1.1,5.5,0.1,6.6,2.6c1.2,2.8,2.3,5.7,3.3,8.5l1,3.1c0.6,1.7,0.2,3.5-0.9,4.8l-2.8,3.3
		c-1.6,1.9-3.1,3.8-4.5,5.7C304,216.3,302.5,217,300.9,217L300.9,217z"/>
	<path d="M287.9,312c-2,0-3.9-1.3-4.7-3.3c-2.7-7.3-4.6-14.8-5.6-22.5c-0.4-2.7,1.5-5.3,4.3-5.6c2.7-0.4,5.3,1.5,5.6,4.3
		c0.9,7,2.7,13.8,5.1,20.4c1,2.6-0.4,5.5-3,6.4C289,311.9,288.4,312,287.9,312L287.9,312z M282.6,262.9c-0.2,0-0.5,0-0.7,0
		c-2.7-0.4-4.6-2.9-4.3-5.6c1.1-7.7,2.9-15.3,5.6-22.5c1-2.6,3.8-3.9,6.4-3c2.6,1,3.9,3.8,3,6.4c-2.4,6.6-4.1,13.4-5.1,20.4
		C287.2,261.1,285,262.9,282.6,262.9z"/>
	<path d="M304.1,356.9c-0.7,0-1.4-0.1-2-0.4c-2.5-1.1-3.7-4.1-2.6-6.6c0.9-2.1,1.8-4.3,2.6-6.5l0.6-1.6c-2.1-2.4-4.1-4.9-5.9-7.5
		c-1.6-2.2-1.1-5.4,1.1-7c2.2-1.6,5.4-1.1,7,1.1c1.9,2.7,4.1,5.3,6.3,7.8l1,1.1c1.2,1.4,1.6,3.3,1,5l-1.6,4.4
		c-0.9,2.4-1.8,4.8-2.9,7.1C307.9,355.7,306,356.9,304.1,356.9z"/>
	<path d="M277.3,394.5c-0.6,0-1.3-0.1-1.9-0.4l-6.8-2.8c-1.3-0.6-2.7-1.1-4-1.5c-2.6-0.9-4-3.7-3.2-6.3s3.7-4,6.3-3.2
		c1.6,0.5,3.2,1.1,4.7,1.8l3.7,1.6c2-1.9,3.9-4,5.7-6c1.8-2.1,5-2.3,7.1-0.5c2.1,1.8,2.3,5,0.5,7.1c-2.7,3.1-5.7,6.2-8.7,9
		C279.8,394.1,278.6,394.5,277.3,394.5z"/>
	<path d="M212.2,396.9c-1.6,0-3.3-0.8-4.2-2.3c-1.5-2.3-0.8-5.4,1.5-6.9c7.6-4.9,16-8.2,25-9.8c2.7-0.5,5.3,1.3,5.8,4
		s-1.3,5.3-4,5.8c-7.6,1.4-14.8,4.2-21.3,8.3C214,396.6,213.1,396.9,212.2,396.9L212.2,396.9z"/>
	<path d="M186.3,430.5h-12c-2.8,0-5-2.2-5-5s2.2-5,5-5h8.5c1.1-2.9,2.4-5.7,3.9-8.4c1.3-2.4,4.4-3.3,6.8-2c2.4,1.3,3.3,4.4,2,6.8
		c-1.8,3.2-3.2,6.6-4.4,10.1C190.4,429.1,188.4,430.5,186.3,430.5L186.3,430.5z"/>
	<path d="M189.4,471.5h-30.7c-2.2,0-4.1-1.4-4.8-3.5c-6.5-20-20.5-35.8-39.6-44.6c-19.1-8.8-40.3-9.2-59.7-1.1l-8.5,3.6
		c-1.8,0.8-3.9,0.4-5.3-1C23.6,409,10.3,389,2.3,367l-2-5.5c-0.6-1.7-0.3-3.7,1-5l1.2-1.4c40.6-45.5,41.6-114.9,2.2-161.4l-3.5-4.2
		c-1.1-1.3-1.5-3.2-0.9-4.8l1.3-3.9c7.7-22.7,20.8-43.5,37.9-60.2c1.4-1.4,3.6-1.8,5.4-1l9.2,3.8c15.3,6.4,32.4,5.4,46.9-2.8
		c14.5-8.1,24.2-22.2,26.8-38.6l1.9-12.2c0.3-2.1,1.9-3.7,3.9-4.1c26.9-5.5,54.1-5.5,81,0c2,0.4,3.6,2.1,3.9,4.1l1.9,12.2
		c2.5,16.4,12.3,30.5,26.8,38.6c14.5,8.1,31.6,9.2,46.9,2.8l9.2-3.8c1.9-0.8,4-0.4,5.4,1c17.1,16.7,30.2,37.5,37.9,60.2l1.3,3.9
		c0.6,1.7,0.2,3.5-0.9,4.8l-3.5,4.2c-39.3,46.6-38.4,116,2.2,161.4l1.2,1.4c1.2,1.4,1.6,3.3,1,5l-2,5.5c-8,22-21.3,42-38.5,57.9
		c-1.4,1.3-3.5,1.7-5.3,1l-8.5-3.6c-19.4-8.1-40.6-7.7-59.7,1.1c-19.1,8.8-33.2,24.6-39.6,44.6C193.5,470.1,191.6,471.5,189.4,471.5
		L189.4,471.5z M162.2,461.5h23.6c7.8-20.8,23.5-37.9,43.8-47.2c21.4-9.8,46-10.3,67.7-1.2l5.5,2.3c14.9-14.5,26.4-32.3,33.5-51.8
		l1-2.7c-43.1-49.2-43.9-123.6-1.6-173.7l1.7-2l-0.4-1.2c-6.8-20.1-18.2-38.7-33.1-53.9l-6.1,2.5c-18.2,7.6-38.5,6.4-55.7-3.3
		c-17.2-9.7-28.7-26.4-31.7-45.8l-1.3-8.7c-23.3-4.4-46.9-4.4-70.1,0l-1.3,8.7c-3,19.5-14.6,36.2-31.7,45.8
		c-17.2,9.7-37.5,10.9-55.7,3.3l-6.1-2.5C29.3,145.3,17.9,163.8,11,184l-0.4,1.2l1.7,2c42.3,50.1,41.5,124.5-1.6,173.7l1,2.7
		c7.1,19.5,18.7,37.3,33.5,51.8l5.5-2.3c21.7-9.1,46.4-8.6,67.7,1.2C138.7,423.6,154.5,440.7,162.2,461.5L162.2,461.5z"/>
	<path class="st0" d="M250.2,228.5h-42.6c-0.8-2.7-1.8-5.2-3.1-7.5l30.1-30.1c3.7-3.7,3.7-9.7,0-13.4c-3.7-3.7-9.7-3.7-13.4,0
		l-30.1,30.1c-2.4-1.3-4.9-2.4-7.5-3.1V9.5c0-5.2-4.2-9.5-9.5-9.5c-5.2,0-9.5,4.2-9.5,9.5v195c-2.7,0.8-5.2,1.8-7.5,3.1l-30.1-30.1
		c-3.7-3.7-9.7-3.7-13.4,0c-3.7,3.7-3.7,9.7,0,13.4l30.1,30.1c-1.3,2.4-2.4,4.9-3.1,7.5H97.9c-5.2,0-9.5,4.2-9.5,9.5
		s4.2,9.5,9.5,9.5h42.6c0.8,2.7,1.8,5.2,3.1,7.5l-30.1,30.1c-3.7,3.7-3.7,9.7,0,13.4c1.9,1.9,4.3,2.8,6.7,2.8c2.4,0,4.9-0.9,6.7-2.8
		l30.1-30.1c2.4,1.3,4.9,2.4,7.5,3.1v42.6c0,5.2,4.2,9.5,9.5,9.5c5.2,0,9.5-4.2,9.5-9.5v-42.6c2.7-0.7,5.2-1.8,7.5-3.1l30.1,30.1
		c1.9,1.9,4.3,2.8,6.7,2.8c2.4,0,4.9-0.9,6.7-2.8c3.7-3.7,3.7-9.7,0-13.4L204.5,255c1.3-2.4,2.4-4.9,3.1-7.5h42.6
		c5.2,0,9.5-4.2,9.5-9.5S255.5,228.5,250.2,228.5z M158.1,238c0-8.8,7.1-15.9,15.9-15.9c8.8,0,15.9,7.1,15.9,15.9c0,0,0,0,0,0
		s0,0,0,0c0,8.8-7.1,15.9-15.9,15.9C165.3,253.9,158.1,246.8,158.1,238z"/>
	<circle class="st1" cx="174.1" cy="238" r="15.9"/>
</g>
</svg>
