<svg version="1.1" xmlns="http://www.w3.org/2000/svg" xmlns:xlink="http://www.w3.org/1999/xlink" width="3in" height="3in" viewBox="0 0 3.05 3.05"><g fill="#d3d3d3" fill-rule="evenodd" stroke="#ff0000" stroke-width="0.005" stroke-linecap="butt" stroke-linejoin="miter" stroke-miterlimit="10" stroke-dasharray="" stroke-dashoffset="0" font-family="none" font-weight="none" font-size="none" text-anchor="none" style="mix-blend-mode: normal"><path d="M0,3v-3h3v3zM2.53,2.53h-0.02329l-0.11459,-0.04842l-0.65053,-0.27756l0.18833,-0.25681l0.60009,0.2531zM0.48,2.53v-0.00484l0.00292,0.00484zM0.48,2.26105l0.6514,0.26895l-0.52946,0l-0.09203,-0.15015l-0.02991,-0.05047zM2.17711,0.48l0.35289,0.14933l0,0.27227l-0.99774,-0.4216zM2.53,0.48l0,0.03723l-0.08888,-0.03723zM2.50185,1.00023l-0.15005,0.2068l-1.32998,-0.56479l0.12308,-0.16224l0.12922,0zM0.9266,0.6018l-0.00855,-0.00363l-0.00086,0.00193l-0.28669,-0.1201l0.38851,0zM0.86555,0.68555l-0.08704,0.1233l-0.06596,0.09528l-0.23256,-0.09722v-0.28288zM0.65444,0.98687l-0.16676,0.23498l-0.00768,-0.0033l0,-0.3046zM0.52323,1.34461l1.31782,0.56478l-0.19282,0.2548l-0.00836,-0.00357l-0.00072,0.0018l-1.15914,-0.48764v-0.26996zM0.93872,1.98044l0.64824,0.26794l-0.19672,0.28102l-0.91024,-0.37531l0,-0.37024zM1.67764,2.29324l0.57055,0.23676h-0.73835zM1.98995,1.86534l0.17604,-0.24005l0.36401,0.15353l0,0.3143zM2.22508,1.54281l0.15835,-0.21723l0.14657,0.06203l0,0.2826zM2.44205,1.24518l0.08795,-0.12065l0,0.15775zM1.90097,1.82761l-1.31987,-0.56566l0.16318,-0.23735l1.32842,0.56131zM2.1313,1.50344l-1.32762,-0.56097l0.05508,-0.07344l0.10151,-0.1438l0.00889,0.00372l0.00071,-0.0016l1.32355,0.56014l-0.14824,0.20431l-0.00365,-0.00274z"></path></g></svg>