<svg version="1.1" xmlns="http://www.w3.org/2000/svg" xmlns:xlink="http://www.w3.org/1999/xlink" width="3in" height="3in" viewBox="0 0 3.05 3.05"><g fill="#d3d3d3" fill-rule="evenodd" stroke="#ff0000" stroke-width="0.005" stroke-linecap="butt" stroke-linejoin="miter" stroke-miterlimit="10" stroke-dasharray="" stroke-dashoffset="0" font-family="none" font-weight="none" font-size="none" text-anchor="none" style="mix-blend-mode: normal"><path d="M0,3v-3h3v3zM0.53,0.53h0.15472l0.00024,0.30773l-0.15495,-0.00019zM0.78472,0.53h0.19583l-0.00447,0.30809l-0.19112,-0.00023zM1.08056,0.53h0.16881l-0.00553,0.30842l-0.16776,-0.00021zM1.34938,0.53h0.15l-0.00503,0.30873l-0.1505,-0.00018zM1.5994,0.53h0.1247l-0.0018,0.30901l-0.12794,-0.00016zM1.8241,0.53h0.19317l-0.00548,0.30936l-0.18949,-0.00023zM2.11729,0.53h0.14279l-0.00434,0.30966l-0.14393,-0.00018zM0.53,0.93754l0.15503,0.00019l0.00029,0.36807l-0.15532,0.0047zM0.78503,0.93786l0.18959,0.00023l-0.00521,0.35912l-0.18409,0.00557zM1.07463,0.93821l0.16742,0.00021l-0.00629,0.35073l-0.1663,0.00503zM1.34206,0.93854l0.15066,0.00019l-0.00559,0.34281l-0.15131,0.00458zM1.59273,0.93885l0.12899,0.00016l-0.00195,0.33549l-0.13257,0.00401zM1.82172,0.93913l0.1883,0.00023l-0.00578,0.32653l-0.18445,0.00558zM2.11003,0.93948l0.1443,0.00018l-0.00447,0.31879l-0.14556,0.00441zM2.10253,1.36296l0.14593,-0.00442l-0.00438,0.31291l-0.14711,0.00592zM1.81921,1.37153l0.18326,-0.00555l-0.00559,0.31541l-0.17951,0.00722zM1.58557,1.37861l0.13362,-0.00404l-0.00185,0.31807l-0.13698,0.00551zM1.33403,1.38622l0.15147,-0.00458l-0.00522,0.32053l-0.15202,0.00611zM1.06801,1.39427l0.16596,-0.00502l-0.00579,0.32306l-0.16488,0.00663zM0.78539,1.40282l0.18256,-0.00553l-0.00473,0.32566l-0.17757,0.00714zM0.53,1.41055l0.1554,-0.0047l0.00026,0.32827l-0.15565,0.00626zM2.09519,1.77752l0.14748,-0.00593l-0.00433,0.30867l-0.14861,0.00524zM1.81678,1.78872l0.17832,-0.00717l-0.00545,0.30749l-0.17466,0.00616zM1.57872,1.79829l0.13803,-0.00555l-0.00178,0.30599l-0.14123,0.00498zM1.32647,1.80843l0.15218,-0.00612l-0.00497,0.30492l-0.15266,0.00539zM1.06184,1.81907l0.16454,-0.00662l-0.00544,0.3037l-0.16349,0.00577zM0.78573,1.83018l0.17604,-0.00708l-0.00439,0.30236l-0.17142,0.00605zM0.53,1.84046l0.15573,-0.00626l0.00023,0.30083l-0.15596,0.0055zM2.08796,2.18563l0.14898,-0.00526l-0.00424,0.30268l-0.15004,0.00154zM1.81442,2.19528l0.17347,-0.00612l-0.00525,0.29645l-0.16991,0.00174zM1.57211,2.20383l0.14228,-0.00502l-0.00168,0.28957l-0.14526,0.00149zM1.31922,2.21275l0.15282,-0.00539l-0.00462,0.28354l-0.15322,0.00157zM1.05599,2.22204l0.16315,-0.00576l-0.00497,0.27721l-0.16215,0.00166z"></path></g></svg>