<svg version="1.1" xmlns="http://www.w3.org/2000/svg" xmlns:xlink="http://www.w3.org/1999/xlink" width="3in" height="3in" viewBox="0 0 3.05 3.05"><g fill="#d3d3d3" fill-rule="evenodd" stroke="#ff0000" stroke-width="0.005" stroke-linecap="butt" stroke-linejoin="miter" stroke-miterlimit="10" stroke-dasharray="" stroke-dashoffset="0" font-family="none" font-weight="none" font-size="none" text-anchor="none" style="mix-blend-mode: normal"><path d="M0,3v-3h3v3zM2.50232,2.22553c0.00918,0.00146 0.01841,0.00279 0.02768,0.00399v0.30048l-0.09522,0c0.03503,-0.09636 0.05814,-0.19844 0.06754,-0.30447zM0.59437,1.88923c0.00387,-0.01014 0.00787,-0.02021 0.012,-0.03021c0.01965,0.00772 0.0396,0.01484 0.05983,0.02133c0.00017,0.00014 0.00035,0.00027 0.00052,0.00041c0.00014,0.00141 0.00029,0.00281 0.00044,0.00422c-0.02406,0.00216 -0.04833,0.00358 -0.07279,0.00425zM0.56943,1.84364c-0.00627,0.01518 -0.01225,0.03051 -0.01793,0.04599c-0.02402,-0.00021 -0.04786,-0.00115 -0.0715,-0.0028l0,-0.08805c0.02894,0.01639 0.05878,0.03137 0.08943,0.04486zM1.34005,1.36829c0.01396,-0.00048 0.02798,-0.00072 0.04206,-0.00072c0.04396,0 0.08738,0.00237 0.13012,0.00698c0.00348,0.0023 0.00694,0.00462 0.01039,0.00695c-0.02681,0.03933 -0.05598,0.07693 -0.08729,0.11259c-0.02887,-0.04415 -0.06073,-0.08618 -0.09527,-0.1258zM1.43669,1.32875c-0.0181,-0.00078 -0.03629,-0.00118 -0.05458,-0.00118c-0.00857,0 -0.01712,0.00009 -0.02564,0.00026c0.01087,-0.00784 0.02153,-0.01594 0.03198,-0.02431c0.01631,0.00803 0.0324,0.01644 0.04825,0.02523zM1.28914,1.37143c0.04344,0.04708 0.08282,0.09796 0.11759,0.15209c-0.02275,0.0072 -0.04523,0.015 -0.06741,0.02339c-0.00166,-0.00009 -0.00331,-0.00018 -0.00496,-0.00027c-0.02899,-0.05057 -0.05351,-0.10404 -0.07301,-0.15986c0.00938,-0.00494 0.01865,-0.01006 0.0278,-0.01535zM1.1969,1.43337c0.00563,-0.00796 0.01135,-0.01585 0.01717,-0.02367c0.00373,-0.00166 0.00744,-0.00334 0.01113,-0.00506c0.01263,0.0356 0.02723,0.07026 0.04366,0.10387c-0.0256,-0.02344 -0.04965,-0.04854 -0.07197,-0.07515zM1.12341,1.44356c-0.00115,0.011 -0.00215,0.02205 -0.00299,0.03315c-0.00482,0.00785 -0.00956,0.01577 -0.01421,0.02374c-0.02754,-0.00984 -0.0544,-0.0211 -0.08049,-0.03371c0.03331,-0.00571 0.06592,-0.01348 0.09769,-0.02317zM1.15813,1.51705c0.00038,-0.00925 0.00088,-0.01847 0.00149,-0.02765c0.00456,-0.0073 0.00921,-0.01455 0.01392,-0.02174c0.02059,0.02388 0.04252,0.04657 0.06568,0.06795c-0.02753,-0.00484 -0.05458,-0.01105 -0.08109,-0.01855zM0.9565,1.4755c0.04127,0.02354 0.08468,0.04377 0.12986,0.06032c-0.01644,0.03046 -0.03163,0.0617 -0.04551,0.09365c-0.01784,-0.00106 -0.03578,-0.00172 -0.05383,-0.00195c-0.0561,-0.02545 -0.11488,-0.04601 -0.1758,-0.06115c-0.00303,-0.0093 -0.00592,-0.01866 -0.00867,-0.02808c0.01184,-0.0139 0.024,-0.02753 0.03646,-0.04088c0.01306,-0.00665 0.02627,-0.01307 0.0396,-0.01926c0.00379,0.00005 0.00759,0.00008 0.01139,0.00008c0.0224,0 0.04458,-0.00092 0.0665,-0.00273zM0.9664,1.81735c0.00448,-0.00394 0.00899,-0.00785 0.01352,-0.01172c-0.00064,0.00244 -0.00127,0.00489 -0.0019,0.00734c-0.00386,0.00148 -0.00774,0.00294 -0.01162,0.00439zM0.99984,1.73773c-0.02568,0.02001 -0.05059,0.04097 -0.07468,0.06281c-0.02693,-0.04022 -0.05089,-0.0826 -0.07155,-0.12683c0.03889,-0.00417 0.07839,-0.0063 0.11838,-0.0063c0.00203,0 0.00406,0.00001 0.00609,0.00002c0.01335,0.00619 0.02654,0.01267 0.03956,0.01943c-0.0063,0.01678 -0.01223,0.03374 -0.01781,0.05087zM0.88689,1.63055c-0.01683,0.00124 -0.03355,0.00285 -0.05017,0.00482c-0.00321,-0.00774 -0.00632,-0.01554 -0.00933,-0.02339c0.0201,0.00558 0.03993,0.01177 0.05949,0.01857zM1.11955,1.63689c-0.01208,-0.00156 -0.02422,-0.00294 -0.03642,-0.00412c0.01061,-0.02367 0.02197,-0.04692 0.03405,-0.06974c0,0 0,0.00001 0,0.00001c0,0.02481 0.0008,0.04943 0.00237,0.07384zM1.12121,1.70089c0.00132,-0.00085 0.00265,-0.00169 0.00398,-0.00253c0.00022,0.00185 0.00045,0.00371 0.00068,0.00556c-0.00155,-0.00101 -0.0031,-0.00203 -0.00465,-0.00303zM1.08965,1.67364c-0.00203,0.00133 -0.00406,0.00266 -0.00609,0.00399c-0.00317,-0.00186 -0.00635,-0.00371 -0.00954,-0.00554c0.00522,0.00048 0.01043,0.001 0.01563,0.00155zM1.03416,1.76178c0.01654,-0.01263 0.03339,-0.02486 0.05056,-0.03668c0.01166,0.00726 0.02315,0.01476 0.03448,0.02248c-0.03072,0.01682 -0.06229,0.0323 -0.09462,0.04635c0.00305,-0.01078 0.00625,-0.0215 0.00959,-0.03215zM0.79909,1.47311c-0.00391,0.00209 -0.0078,0.0042 -0.01169,0.00633c-0.00059,-0.00265 -0.00117,-0.00531 -0.00174,-0.00797c0.00446,0.00058 0.00894,0.00113 0.01343,0.00164zM1.25257,1.66224c-0.0155,-0.00393 -0.03112,-0.00754 -0.04686,-0.01082c0.03598,-0.01923 0.073,-0.03676 0.11095,-0.0525c0.00143,0.00103 0.00286,0.00206 0.0043,0.00308c0.00075,0.00119 0.0015,0.00238 0.00226,0.00356c-0.02279,0.01978 -0.04636,0.03869 -0.07065,0.05668zM1.26091,1.57954c-0.03472,0.0158 -0.06862,0.03309 -0.10163,0.05177c-0.00139,-0.02257 -0.0021,-0.04534 -0.0021,-0.06826c0,-0.00158 0,-0.00316 0.00001,-0.00474c0.03379,0.00913 0.06841,0.01625 0.10372,0.02123zM1.16382,1.6841c0.01515,0.00267 0.03018,0.00564 0.04511,0.00892c-0.01336,0.00897 -0.02692,0.01768 -0.04067,0.0261c-0.00166,-0.01162 -0.00314,-0.0233 -0.00444,-0.03503zM0.70254,1.4561c-0.00796,0.02851 -0.01483,0.05746 -0.02058,0.08682c-0.03935,-0.00456 -0.07938,-0.00691 -0.11996,-0.00691c-0.0276,0 -0.05495,0.00109 -0.082,0.00322v-0.05922c0.07577,0 0.14957,-0.00843 0.22051,-0.02439c0.00067,0.00016 0.00135,0.00033 0.00202,0.00049zM0.57444,1.74156c0.01742,-0.00676 0.03505,-0.0131 0.05288,-0.01898c-0.00864,0.0158 -0.01694,0.03181 -0.0249,0.04802c-0.00952,-0.00949 -0.01885,-0.01917 -0.02798,-0.02904zM0.65676,1.67162c-0.03769,0.01084 -0.07458,0.02357 -0.11055,0.03808c-0.00038,-0.00045 -0.00077,-0.00091 -0.00115,-0.00136c0.0398,-0.03885 0.0823,-0.07496 0.12719,-0.10801c-0.0027,0.01889 -0.00494,0.03793 -0.0067,0.0571c-0.00296,0.00471 -0.00589,0.00944 -0.00878,0.01419zM0.63448,1.57862c-0.04024,0.03051 -0.07855,0.06343 -0.11473,0.09854c-0.01386,-0.0178 -0.02711,-0.03608 -0.03975,-0.05483l0,-0.04298c0.02704,-0.00222 0.05439,-0.00335 0.082,-0.00335c0.02437,0 0.04854,0.00088 0.07248,0.00261zM0.6328,1.79963c0.00889,-0.0186 0.01825,-0.03694 0.02806,-0.055c-0.0001,0.00613 -0.00015,0.01227 -0.00015,0.01841c0,0.02102 0.00057,0.0419 0.00169,0.06264c-0.01004,-0.00849 -0.01991,-0.01718 -0.02961,-0.02605zM0.70411,1.85009c-0.00225,-0.02872 -0.0034,-0.05775 -0.0034,-0.08705c0,-0.02091 0.00058,-0.04169 0.00174,-0.06232c0.03585,-0.00904 0.0724,-0.01632 0.10955,-0.02175c0.02362,0.05231 0.05163,0.10222 0.08357,0.14924c-0.00623,0.00601 -0.0124,0.01209 -0.01852,0.01822c-0.03142,0.00883 -0.06338,0.01638 -0.09582,0.02257c-0.02611,-0.00526 -0.05183,-0.01159 -0.07713,-0.01892zM0.79579,1.64097c-0.02779,0.00432 -0.05524,0.00964 -0.08233,0.01593c0.01386,-0.02104 0.02837,-0.04161 0.04349,-0.0617c0.00786,0.00157 0.01569,0.00323 0.02348,0.00499c0.00483,0.01374 0.00995,0.02733 0.01536,0.04078zM0.75111,1.50015c-0.00737,0.00437 -0.01468,0.00882 -0.02195,0.01333c0.00382,-0.01648 0.00802,-0.03281 0.01258,-0.04899c0.00057,0.00011 0.00113,0.00021 0.0017,0.00032c0.00235,0.01186 0.00491,0.02364 0.00768,0.03534zM0.50931,1.76932c0.00853,-0.00396 0.01711,-0.00782 0.02575,-0.01157c0.01441,0.01603 0.02931,0.0316 0.04468,0.04669c-0.02402,-0.01076 -0.04751,-0.02249 -0.07044,-0.03512zM0.49128,1.70569c-0.00379,0.00392 -0.00755,0.00786 -0.01128,0.01183l0,-0.02645c0.00372,0.00491 0.00748,0.00978 0.01128,0.01461zM2.46279,2.21841c-0.00931,0.10881 -0.03356,0.21336 -0.07068,0.31159l-0.30603,0c-0.00365,-0.01733 -0.0077,-0.03452 -0.01213,-0.05155c0.10647,-0.0806 0.19845,-0.17934 0.27132,-0.29163c0.03816,0.0129 0.07739,0.02349 0.11752,0.03159zM2.04252,2.51823c0.00012,0.00051 0.00023,0.00102 0.00035,0.00153c-0.00018,-0.00016 -0.00035,-0.00033 -0.00053,-0.00049c0.00006,-0.00035 0.00012,-0.00069 0.00018,-0.00104zM2.30662,2.17282c-0.06661,0.10079 -0.14926,0.19005 -0.24431,0.26413c-0.00216,-0.00717 -0.00439,-0.0143 -0.00668,-0.02141c0.00268,-0.03231 0.00405,-0.06499 0.00405,-0.09798c0,-0.01587 -0.00032,-0.03167 -0.00094,-0.04739c0.01205,-0.02578 0.02321,-0.05205 0.03344,-0.07879c0.0423,-0.0172 0.08315,-0.03724 0.12231,-0.05986c0.02985,0.01531 0.06059,0.02911 0.09214,0.0413zM2.00061,2.37937c0.00508,0.0135 0.0099,0.02713 0.01445,0.04088c-0.0017,0.01882 -0.00385,0.0375 -0.00646,0.05604c-0.00206,0.00142 -0.00413,0.00283 -0.00621,0.00423c-0.0135,-0.01382 -0.02661,-0.02802 -0.03931,-0.04258c0.01305,-0.01913 0.02557,-0.03867 0.03752,-0.05857zM1.93934,2.4715c0.00943,0.01061 0.01906,0.02103 0.0289,0.03125c-0.0151,0.00944 -0.03045,0.01853 -0.04603,0.02725l-0.02863,0c0.01584,-0.01901 0.0311,-0.03852 0.04576,-0.0585zM1.69823,2.26401c-0.03003,0.06203 -0.05466,0.12715 -0.07329,0.19477c-0.0143,-0.00997 -0.02835,-0.02028 -0.04214,-0.03091c-0.00052,-0.00392 -0.00107,-0.00782 -0.00164,-0.01173c0.01051,-0.03885 0.01902,-0.07852 0.0254,-0.11889c0.00852,-0.0121 0.01684,-0.02436 0.02495,-0.03677c0.02204,0.0019 0.04429,0.00309 0.06672,0.00353zM1.66005,2.48227c0.02004,-0.0763 0.04798,-0.14939 0.08288,-0.21837c0.01696,-0.00042 0.03382,-0.00126 0.05056,-0.00251c0.03372,0.06372 0.0737,0.12361 0.11913,0.17885c-0.02244,0.03111 -0.04639,0.06107 -0.07173,0.08976l-0.09877,0c-0.0281,-0.01474 -0.05548,-0.03068 -0.08207,-0.04773zM1.93674,2.24007c0.01636,0.02996 0.03137,0.06076 0.04495,0.09232c-0.01421,0.02515 -0.02934,0.04971 -0.04533,0.07365c-0.03736,-0.04646 -0.07075,-0.09625 -0.09967,-0.14884c0.0339,-0.00403 0.06728,-0.00977 0.10005,-0.01713zM2.0056,2.28782c-0.00905,-0.01952 -0.01863,-0.03875 -0.02873,-0.05766c0.01296,-0.00349 0.02581,-0.00723 0.03856,-0.01122c0.00124,0.01428 0.0022,0.02864 0.0029,0.04307c-0.00414,0.00866 -0.00838,0.01726 -0.01273,0.02581zM1.50902,2.41924c0.00786,0.00679 0.01581,0.01347 0.02385,0.02005c-0.00941,0.03083 -0.02014,0.06109 -0.03212,0.09071l-0.10512,0c0.04004,-0.03455 0.07791,-0.07155 0.11339,-0.11076zM1.6501,2.52331c0.0036,0.00225 0.00722,0.00448 0.01084,0.00669l-0.01231,0c0.00048,-0.00223 0.00097,-0.00446 0.00146,-0.00669zM1.61438,2.50006c-0.00234,0.00993 -0.00456,0.01991 -0.00664,0.02994l-0.0154,0c-0.00041,-0.00204 -0.00081,-0.00409 -0.0012,-0.00613c-0.00056,-0.01401 -0.00141,-0.02795 -0.00252,-0.0418c0.0085,0.00612 0.01709,0.01212 0.02577,0.018zM1.54903,2.51623c0.00073,0.00409 0.00148,0.00817 0.00225,0.01224c0.00002,0.00051 0.00004,0.00102 0.00006,0.00153l-0.00755,0c0.00178,-0.00458 0.00352,-0.00917 0.00524,-0.01377zM1.49857,2.24437c0.01051,0.03062 0.01957,0.06193 0.02708,0.09382c-0.00658,0.00817 -0.01327,0.01626 -0.02005,0.02426c-0.02663,-0.02476 -0.05202,-0.05083 -0.07607,-0.07812c0.02352,-0.01254 0.04654,-0.02588 0.06905,-0.03997zM0.97271,2.4158c-0.00248,0.02132 -0.00444,0.0428 -0.00587,0.06443c-0.01722,-0.01999 -0.03374,-0.04061 -0.04951,-0.06182c0.01857,-0.00043 0.03703,-0.00131 0.05538,-0.00261zM1.00478,2.52207c0.0001,-0.00294 0.00021,-0.00588 0.00034,-0.00882c0.00164,0.0048 0.0033,0.00959 0.00499,0.01437c-0.00178,-0.00184 -0.00356,-0.00369 -0.00533,-0.00555zM1.01667,2.41183c0.13361,-0.01466 0.26032,-0.05225 0.37611,-0.10874c0.02716,0.03138 0.05602,0.06125 0.08644,0.08947c-0.04493,0.04965 -0.09383,0.09563 -0.1462,0.13744l-0.27948,0c-0.01427,-0.03849 -0.0266,-0.07792 -0.03687,-0.11817zM0.86803,2.41853c0.0275,0.03903 0.05739,0.07626 0.08946,0.11147h-0.1155c-0.06905,-0.03865 -0.13353,-0.08448 -0.19243,-0.13648c0.07064,0.01505 0.14368,0.02361 0.21847,0.02501zM0.5553,2.38003c-0.0107,0.03456 -0.02001,0.06973 -0.02784,0.10545c-0.00478,-0.03418 -0.00812,-0.06881 -0.00996,-0.10385c0.01264,-0.00036 0.02525,-0.00089 0.0378,-0.0016zM0.59242,2.39544c0.05276,0.05007 0.11027,0.09517 0.17179,0.13456h-0.20501c0.00865,-0.04577 0.01977,-0.09068 0.03322,-0.13456zM2.50479,2.04255c-0.00064,-0.0105 -0.00142,-0.02097 -0.00233,-0.0314c0.00924,-0.0033 0.01843,-0.00674 0.02754,-0.0103v0.09949c-0.00792,-0.01952 -0.01633,-0.03878 -0.02521,-0.05779zM2.50664,2.15076c0.00451,0.01222 0.00883,0.02454 0.01296,0.03694c-0.00481,-0.0007 -0.0096,-0.00145 -0.01439,-0.00222c0.00064,-0.01153 0.00112,-0.0231 0.00143,-0.03472zM2.45296,2.02738c0.00421,0.00836 0.00833,0.01677 0.01235,0.02523c0.00118,0.0215 0.00178,0.04315 0.00178,0.06495c0,0.02031 -0.00052,0.04051 -0.00154,0.06057c-0.03353,-0.00697 -0.06639,-0.01575 -0.09848,-0.02623c0.02266,-0.03782 0.04321,-0.07706 0.06147,-0.11755c0.00819,-0.00222 0.01633,-0.00454 0.02444,-0.00697zM2.37865,2.0465c-0.0153,0.03148 -0.03205,0.06212 -0.05015,0.09185c-0.02509,-0.00945 -0.04965,-0.01995 -0.07365,-0.03146c0.02458,-0.01581 0.04841,-0.03267 0.07144,-0.05052c0.01761,-0.00283 0.03507,-0.00613 0.05236,-0.00987zM2.49817,1.97015c-0.0029,-0.02379 -0.00649,-0.04737 -0.01075,-0.07071c0.01483,-0.01812 0.02903,-0.03678 0.04257,-0.05593l0,0.11425c-0.01052,0.00431 -0.02113,0.00845 -0.03183,0.01239zM2.40466,1.98885c-0.00163,0.0039 -0.00327,0.00779 -0.00494,0.01167c-0.00338,0.00085 -0.00677,0.00167 -0.01016,0.00248c0.00508,-0.00466 0.01012,-0.00938 0.01511,-0.01415zM2.33925,1.68287c-0.02153,0.00791 -0.04275,0.01644 -0.06365,0.02558c-0.0208,-0.02167 -0.04238,-0.04258 -0.06469,-0.06269c0.01157,-0.00664 0.02297,-0.01355 0.03419,-0.02072c0.03001,0.02122 0.06146,0.04056 0.09416,0.05783zM2.30448,1.73959c0.02795,-0.0118 0.05649,-0.02249 0.08555,-0.03201c0.0012,0.00053 0.0024,0.00106 0.00359,0.00159c0.02072,0.05544 0.03733,0.11289 0.04949,0.17196c-0.00139,0.00464 -0.00281,0.00926 -0.00425,0.01387c-0.00301,0.00347 -0.00604,0.00691 -0.00909,0.01033c-0.03714,-0.05877 -0.07909,-0.11421 -0.12529,-0.16574zM2.17345,1.66598c0.02192,0.01929 0.04313,0.03936 0.06358,0.06019c-0.02244,0.01082 -0.04449,0.02234 -0.06609,0.03453c-0.00006,-0.03083 -0.00128,-0.06139 -0.00363,-0.09164c0.00205,-0.00102 0.0041,-0.00204 0.00614,-0.00308zM2.17014,1.80738c0.03102,-0.01839 0.063,-0.03531 0.09587,-0.05068c0.05052,0.05515 0.09595,0.11504 0.13554,0.17893c-0.02874,0.02953 -0.05937,0.0572 -0.0917,0.08281c-0.04677,0.00701 -0.09465,0.01065 -0.14337,0.01065c-0.00838,0 -0.01674,-0.00011 -0.02507,-0.00032c0.0162,-0.07158 0.02599,-0.14559 0.02875,-0.22139zM2.46443,1.79837c-0.00639,-0.02336 -0.01346,-0.04643 -0.02119,-0.0692c0.01062,0.0039 0.02134,0.00759 0.03215,0.01107c-0.00314,0.01955 -0.0068,0.03893 -0.01095,0.05813zM2.50201,1.81374c0.00457,-0.02048 0.00858,-0.04117 0.01204,-0.06206c0.0053,0.00143 0.01061,0.00281 0.01595,0.00414v0.0152c-0.00896,0.0145 -0.01829,0.02874 -0.02799,0.04271zM2.12849,1.68709c0.00162,0.02511 0.00245,0.05044 0.00245,0.07596c0,0.00716 -0.00006,0.0143 -0.00019,0.02143c-0.05294,0.03278 -0.10302,0.06971 -0.14981,0.11036c-0.00516,-0.0133 -0.01055,-0.02649 -0.01618,-0.03955c0.05783,-0.04903 0.11016,-0.10433 0.15595,-0.16486c0.0026,-0.00109 0.00519,-0.0022 0.00778,-0.00332zM2.00265,1.92898c0.03967,-0.03484 0.08185,-0.06691 0.12621,-0.0959c-0.00371,0.06226 -0.01234,0.12319 -0.02549,0.18241c-0.03562,-0.02643 -0.06928,-0.05535 -0.10072,-0.08651zM1.91606,1.89411c0.00949,0.01124 0.01923,0.02225 0.02921,0.03304c-0.02049,0.01935 -0.04028,0.03945 -0.05931,0.06025c-0.02467,-0.00754 -0.04891,-0.01604 -0.07269,-0.02547c0.03567,-0.02058 0.06999,-0.04324 0.10279,-0.06781zM1.92932,1.99953c0.01116,-0.01176 0.02258,-0.02328 0.03424,-0.03454c0.00493,0.01502 0.00955,0.03018 0.01386,0.04547c-0.01619,-0.00324 -0.03222,-0.00688 -0.0481,-0.01092zM2.02099,2.01812c-0.00205,-0.00775 -0.00417,-0.01547 -0.00637,-0.02315c0.01028,0.00909 0.02075,0.01797 0.03141,0.02663c-0.00838,-0.00105 -0.01672,-0.00221 -0.02504,-0.00347zM1.57643,2.21375c0.00015,-0.0016 0.00031,-0.0032 0.00047,-0.00479c-0.00013,0.0016 -0.00027,0.0032 -0.00041,0.0048c-0.00002,0 -0.00004,-0.00001 -0.00006,-0.00001zM1.61706,2.20852c0.00135,-0.01712 0.00232,-0.03435 0.00291,-0.05167c0.01704,-0.01405 0.03366,-0.02858 0.04985,-0.04357c-0.01622,0.03259 -0.03383,0.06436 -0.05276,0.09524zM1.65558,2.22219c0.02472,-0.04093 0.04721,-0.08335 0.0673,-0.12711c0.00817,0.02497 0.01723,0.04954 0.02716,0.07366c-0.01102,0.01817 -0.02154,0.03666 -0.03157,0.05547c-0.00013,0 -0.00025,0 -0.00038,0c-0.021,0 -0.04184,-0.00068 -0.06251,-0.00202zM1.76466,2.22309c0.00172,-0.00307 0.00345,-0.00613 0.0052,-0.00919c0.00136,0.00291 0.00273,0.0058 0.00411,0.0087c-0.0031,0.00018 -0.0062,0.00034 -0.00931,0.00049zM2.0498,2.16493c-0.00463,-0.0355 -0.01084,-0.07049 -0.01858,-0.10492c0.01971,0.00267 0.0396,0.00476 0.05965,0.00626c-0.00867,0.03206 -0.01867,0.06356 -0.02996,0.09445c-0.00369,0.00142 -0.0074,0.00282 -0.01111,0.0042zM1.76872,2.00961c0.01756,0.0185 0.03449,0.0376 0.05075,0.05728c-0.01492,0.01956 -0.02923,0.03961 -0.0429,0.06012c-0.01102,-0.02907 -0.02076,-0.05878 -0.02915,-0.08904c0.00091,-0.00227 0.00181,-0.00454 0.00271,-0.00681c0.00629,-0.0071 0.01249,-0.01429 0.0186,-0.02155zM1.79494,2.17219c0.01579,-0.02501 0.03256,-0.04934 0.05023,-0.07295c0.02551,0.03335 0.04915,0.06821 0.07076,0.10442c-0.03247,0.00685 -0.06555,0.01205 -0.09914,0.0155c-0.00767,-0.01544 -0.01496,-0.0311 -0.02186,-0.04697zM1.95674,2.1941c-0.02589,-0.04449 -0.05472,-0.08707 -0.08621,-0.12747c0.00925,-0.01145 0.01872,-0.02271 0.02841,-0.03378c0.02936,0.00814 0.05926,0.01498 0.08964,0.02044c0.00979,0.04086 0.01736,0.08257 0.02258,0.12502c-0.01792,0.00578 -0.03607,0.01105 -0.05443,0.01578zM1.85703,2.02022c-0.00411,0.00484 -0.00817,0.00971 -0.0122,0.01462c-0.00763,-0.0091 -0.0154,-0.01808 -0.02331,-0.02693c0.01173,0.00432 0.02357,0.00843 0.03551,0.01231zM2.11049,2.13998c0.00638,-0.01929 0.01229,-0.0388 0.01771,-0.05851c0.01465,0.00954 0.02958,0.0187 0.04477,0.02745c-0.02039,0.01109 -0.04123,0.02145 -0.06248,0.03106zM2.21334,2.08568c-0.00995,-0.0054 -0.01978,-0.01098 -0.0295,-0.01673c0.02025,-0.00035 0.04035,-0.00129 0.06028,-0.00283c-0.01013,0.00671 -0.02039,0.01323 -0.03078,0.01956zM2.04759,1.71719c-0.03091,0.0357 -0.06433,0.06916 -0.09999,0.10011c-0.00752,-0.01587 -0.01539,-0.03154 -0.02359,-0.04701c0.00427,-0.00881 0.00842,-0.01768 0.01247,-0.02662c0.03798,-0.0063 0.07508,-0.01519 0.11112,-0.02648zM1.88123,1.85037c0.00318,0.00424 0.00639,0.00844 0.00964,0.01263c-0.01013,0.00757 -0.02042,0.01494 -0.03084,0.02213c0.00727,-0.01145 0.01434,-0.02303 0.02121,-0.03475zM1.67035,1.74475c-0.0001,0.00609 -0.00015,0.01219 -0.00015,0.0183c0,0.0044 0.00003,0.00879 0.00008,0.01318c-0.01179,0.0214 -0.0229,0.04323 -0.0333,0.06545c-0.01984,-0.0143 -0.04016,-0.02798 -0.06093,-0.041c-0.00063,-0.00219 -0.00127,-0.00438 -0.00192,-0.00656c0.01317,-0.01987 0.02581,-0.04012 0.0379,-0.06073c0.0192,0.00446 0.03865,0.00826 0.05833,0.01136zM1.67557,1.87075c-0.00195,-0.00153 -0.0039,-0.00306 -0.00585,-0.00457c0.00149,-0.00325 0.00299,-0.00648 0.00452,-0.00971c0.00041,0.00477 0.00086,0.00953 0.00134,0.01429zM1.74369,1.92882c-0.00769,-0.00709 -0.01547,-0.01408 -0.02336,-0.02096c-0.00562,-0.03983 -0.00896,-0.08039 -0.00987,-0.12155c0.00652,-0.01157 0.01325,-0.02302 0.02018,-0.03432c0.01761,0.00146 0.03537,0.00238 0.05327,0.00272c-0.00927,0.05955 -0.02278,0.11769 -0.04022,0.17411zM1.78816,1.91981c0.01478,-0.05089 0.02648,-0.1031 0.03489,-0.1564c0.01034,0.01743 0.02122,0.0345 0.0326,0.0512c-0.02055,0.03639 -0.04309,0.07151 -0.06749,0.1052zM1.86817,1.7521c0.00365,0.0063 0.00724,0.01264 0.01077,0.01901c-0.0006,0.00119 -0.00121,0.00238 -0.00182,0.00357c-0.00476,-0.00733 -0.00941,-0.01472 -0.01396,-0.02219c0.00167,-0.00013 0.00335,-0.00026 0.00502,-0.00039zM1.38676,2.01822c0.0076,0.01143 0.01498,0.02302 0.02211,0.03477c-0.02165,0.00237 -0.04351,0.00404 -0.06555,0.00499c0.01478,-0.01293 0.02926,-0.02619 0.04344,-0.03976zM1.45204,2.04731c-0.01148,-0.01965 -0.02359,-0.03889 -0.0363,-0.05769c0.04396,-0.04475 0.08474,-0.09265 0.12196,-0.14332c0.00383,0.00311 0.00768,0.00619 0.01156,0.00924c0.012,0.04914 0.0207,0.09957 0.02585,0.15104c-0.00141,0.0049 -0.00279,0.00982 -0.00413,0.01475c-0.03873,0.01101 -0.07843,0.01972 -0.11894,0.02597zM1.61664,2.00714c0.00855,-0.02866 0.01826,-0.05682 0.02907,-0.08443c0.01318,0.00807 0.02655,0.01584 0.04012,0.02331c0.00186,0.01079 0.00389,0.02152 0.00608,0.03219c-0.02459,0.01063 -0.04969,0.02029 -0.07527,0.02893zM1.61138,1.90071c-0.00263,0.00657 -0.0052,0.01318 -0.0077,0.01981c-0.00168,-0.00962 -0.00347,-0.0192 -0.00539,-0.02873c0.00434,0.00301 0.0087,0.00598 0.01309,0.00892zM0.81655,2.33858c0.00774,0.0132 0.01574,0.02622 0.02398,0.03907c-0.0464,-0.00204 -0.09205,-0.00693 -0.13679,-0.0145c0.03819,-0.00656 0.07582,-0.01478 0.11281,-0.02457zM0.88916,2.37874c-0.01138,-0.0168 -0.02231,-0.03394 -0.03276,-0.05139c0.0326,-0.00975 0.06468,-0.02074 0.09616,-0.0329c0.00397,0.02752 0.00886,0.05475 0.01463,0.08164c-0.0255,0.00175 -0.05124,0.00265 -0.07719,0.00265c-0.00028,0 -0.00056,0 -0.00084,0zM1.01916,2.37129c0.00617,-0.03924 0.01417,-0.07788 0.02391,-0.11581c0.06855,-0.03264 0.13383,-0.07104 0.19519,-0.1146c0.01789,0.00988 0.03611,0.01923 0.05465,0.02802c0.0226,0.03557 0.04713,0.06979 0.07344,0.10251c-0.10733,0.05118 -0.22419,0.0856 -0.34719,0.09988zM0.9968,2.27641c-0.00134,0.0058 -0.00263,0.01162 -0.00389,0.01745c-0.00074,-0.00495 -0.00144,-0.00991 -0.00212,-0.01488c0.00201,-0.00085 0.00401,-0.0017 0.00601,-0.00256zM1.403,2.2531c-0.01462,-0.01789 -0.02867,-0.03624 -0.04215,-0.05505c0.02887,0.01113 0.05838,0.02094 0.08848,0.02938c-0.01521,0.00891 -0.03066,0.01747 -0.04633,0.02567zM1.43064,2.09071c0.0183,0.03337 0.03473,0.06791 0.04915,0.10348c-0.05518,-0.0142 -0.10843,-0.03321 -0.15928,-0.05656c-0.0079,-0.01274 -0.01555,-0.02565 -0.02294,-0.03872c0.00084,0 0.00168,0 0.00252,0c0.04422,0 0.08779,-0.00279 0.13054,-0.00821zM1.51856,2.18335c-0.01356,-0.03388 -0.02888,-0.06687 -0.04583,-0.09886c0.02948,-0.00498 0.05852,-0.01122 0.08709,-0.01865c-0.0076,0.03321 -0.01373,0.06699 -0.01832,0.10125c-0.00758,0.00552 -0.01523,0.01094 -0.02295,0.01626zM1.62056,2.10385c-0.00022,-0.01851 -0.00088,-0.03691 -0.00197,-0.0552c0.02796,-0.0091 0.05539,-0.01936 0.08224,-0.03073c0.00052,0.00212 0.00104,0.00423 0.00157,0.00634c-0.0259,0.02791 -0.05322,0.05448 -0.08185,0.0796zM0.81311,1.91541c-0.00296,0.00343 -0.00589,0.00687 -0.00881,0.01033c-0.00868,-0.00505 -0.01728,-0.01022 -0.0258,-0.01552c0.00085,-0.00015 0.00169,-0.00031 0.00254,-0.00047c0.01063,0.00206 0.02132,0.00394 0.03207,0.00566zM0.83999,1.9455c0.00682,-0.00797 0.01374,-0.01586 0.02075,-0.02366c0.03085,0.00341 0.06212,0.00543 0.09374,0.00597c-0.00338,0.02175 -0.00618,0.04369 -0.0084,0.0658c-0.03645,-0.01399 -0.07186,-0.03008 -0.10609,-0.04811zM1.07986,2.03216c-0.00029,0.00064 -0.00059,0.00128 -0.00088,0.00192c-0.03197,-0.00731 -0.06335,-0.01616 -0.09406,-0.02649c0.00182,-0.01978 0.00412,-0.03942 0.0069,-0.0589c0.02762,0.02957 0.05702,0.05745 0.08804,0.08347zM1.27593,2.05862c-0.02598,-0.05087 -0.04808,-0.10406 -0.06591,-0.15916c0.02247,-0.00549 0.04465,-0.01173 0.06649,-0.01871c0.03134,0.03267 0.06046,0.06749 0.08712,0.10421c-0.02666,0.02577 -0.05444,0.05038 -0.08326,0.07375c-0.00148,-0.00003 -0.00296,-0.00006 -0.00444,-0.0001zM1.39229,1.95638c-0.02307,-0.03137 -0.04787,-0.06138 -0.07427,-0.08989c0.0551,-0.02032 0.10792,-0.04535 0.15796,-0.07461c0.01016,0.00973 0.02052,0.01924 0.03109,0.02854c-0.03509,0.04798 -0.07346,0.09341 -0.11478,0.13596zM1.14179,1.91361c-0.01564,0.02648 -0.03036,0.05356 -0.04411,0.08122c-0.02509,-0.02151 -0.04905,-0.04431 -0.07178,-0.06829c0.03928,-0.00209 0.07795,-0.00644 0.11589,-0.01293zM1.12944,2.02089c0.01505,-0.03083 0.03133,-0.06095 0.04879,-0.09029c0.01483,0.0432 0.03221,0.08522 0.05194,0.12587c-0.02061,-0.00144 -0.04104,-0.00351 -0.06129,-0.0062c-0.01341,-0.00946 -0.02656,-0.01926 -0.03945,-0.02938zM1.55833,1.74478c-0.00061,-0.00177 -0.00123,-0.00354 -0.00185,-0.0053c0.00313,-0.00226 0.00625,-0.00454 0.00936,-0.00683c-0.00248,0.00406 -0.00498,0.00811 -0.00751,0.01214zM1.52475,1.77035c-0.00245,-0.00136 -0.0049,-0.00271 -0.00736,-0.00406c0.00164,-0.00107 0.00328,-0.00214 0.00491,-0.00322c0.00082,0.00242 0.00164,0.00485 0.00245,0.00728zM0.53767,1.92943c-0.02904,0.08838 -0.04844,0.18115 -0.05694,0.27704c-0.00024,-0.00034 -0.00049,-0.00068 -0.00073,-0.00102l0,-0.27853c0.0191,0.00129 0.03833,0.00213 0.05767,0.00251zM0.61252,2.33534c0.02779,-0.07661 0.06277,-0.14976 0.10415,-0.21865c0.0211,0.06468 0.04783,0.12681 0.07961,0.18582c-0.05967,0.01527 -0.12104,0.02633 -0.18375,0.03282zM0.7013,2.06553c-0.05095,0.07976 -0.09346,0.16544 -0.12625,0.25577c-0.02006,-0.02134 -0.03928,-0.04348 -0.05762,-0.06637c0.00582,-0.11332 0.02732,-0.2225 0.06239,-0.32539c0.03106,-0.00045 0.06183,-0.00208 0.09227,-0.00485c0.00681,0.04797 0.01661,0.09498 0.02921,0.14084zM1.05757,2.20372c0.01284,-0.04225 0.02786,-0.08355 0.04494,-0.12377c0.01698,0.0033 0.03411,0.00619 0.05138,0.00865c0.01513,0.01045 0.03055,0.02049 0.04627,0.03011c-0.04548,0.03131 -0.0931,0.05973 -0.14259,0.08501zM1.06271,2.07137c-0.02104,0.05038 -0.03896,0.10239 -0.05353,0.15578c-0.00772,0.00354 -0.01549,0.00701 -0.0233,0.01039c-0.00396,-0.03946 -0.00599,-0.07948 -0.00599,-0.11998c0,-0.02311 0.00066,-0.04606 0.00196,-0.06884c0.02649,0.00861 0.05346,0.01618 0.08085,0.02265zM0.77864,1.95708c-0.01647,0.02077 -0.03232,0.04205 -0.04752,0.06382c-0.00792,-0.03294 -0.01435,-0.06646 -0.01923,-0.10049c0.00254,-0.00032 0.00507,-0.00064 0.00761,-0.00097c0.01925,0.01319 0.03898,0.02575 0.05914,0.03764zM0.74474,2.07207c0.02161,-0.0328 0.04471,-0.06454 0.06921,-0.09511c0.04128,0.02219 0.08426,0.04164 0.12868,0.05811c-0.00181,0.02726 -0.00273,0.05477 -0.00273,0.08249c0,0.04595 0.00253,0.09132 0.00745,0.13596c-0.03635,0.01437 -0.07353,0.02712 -0.11143,0.03815c-0.03792,-0.06902 -0.06865,-0.14256 -0.09118,-0.2196zM2.28351,1.59892c0.02699,0.01119 0.05352,0.0233 0.07953,0.03627c0.00292,0.00643 0.00579,0.01289 0.00859,0.01937c-0.03157,-0.01591 -0.06197,-0.03382 -0.09102,-0.05357c0.00097,-0.00069 0.00193,-0.00139 0.0029,-0.00208zM2.3349,1.57756c-0.00099,-0.00045 -0.00198,-0.00089 -0.00297,-0.00134c0.00072,-0.00007 0.00144,-0.00014 0.00216,-0.00021c0.00027,0.00052 0.00054,0.00103 0.00081,0.00155zM2.48687,1.63963c-0.00756,0.00167 -0.01508,0.00342 -0.02258,0.00524c-0.02314,-0.01374 -0.04673,-0.02678 -0.07077,-0.03909c-0.00553,-0.01179 -0.01124,-0.02347 -0.01713,-0.03505c0.03856,-0.0058 0.07627,-0.01419 0.11296,-0.02498c0.00009,0.00576 0.00013,0.01152 0.00013,0.0173c0,0.02574 -0.00088,0.05128 -0.00261,0.07659zM2.45123,1.68946c0.00222,-0.00059 0.00444,-0.00117 0.00666,-0.00174c0.00527,0.00322 0.01051,0.00648 0.01573,0.00978c-0.00751,-0.00257 -0.01498,-0.00525 -0.02239,-0.00804zM2.52748,1.63142c0.00133,-0.02262 0.002,-0.04542 0.002,-0.06837c0,-0.01005 -0.00013,-0.02007 -0.00039,-0.03006c0.0003,-0.00011 0.0006,-0.00021 0.0009,-0.00032v0.09829c-0.00084,0.00015 -0.00168,0.00031 -0.00252,0.00046zM2.52431,1.67273c0.0019,-0.00037 0.00379,-0.00073 0.00569,-0.00109l0,0.01494c-0.0022,-0.00149 -0.00441,-0.00298 -0.00662,-0.00446c0.00032,-0.00313 0.00063,-0.00626 0.00093,-0.0094zM2.48411,1.45327c0.00167,0.01693 0.00295,0.03397 0.00385,0.05112c-0.03982,0.01227 -0.08094,0.02155 -0.12311,0.0276c0.02922,-0.02733 0.05645,-0.05675 0.08147,-0.08803c0.01248,0.0034 0.02508,0.00651 0.0378,0.00931zM2.52727,1.49116c-0.00062,-0.01004 -0.00137,-0.02004 -0.00225,-0.03001c0.00166,0.00027 0.00332,0.00054 0.00498,0.00081l0,0.0282c-0.00091,0.00034 -0.00182,0.00067 -0.00273,0.001zM2.08998,1.25852c0.01041,0.00958 0.02065,0.01935 0.03071,0.0293c-0.0152,0.0015 -0.03031,0.00327 -0.04535,0.00529c-0.00288,-0.00675 -0.00581,-0.01346 -0.00881,-0.02014c0.00792,-0.00466 0.01574,-0.00948 0.02345,-0.01445zM2.0909,1.33142c0.01058,-0.00134 0.0212,-0.00254 0.03186,-0.00361c-0.00922,0.00497 -0.01836,0.01006 -0.02742,0.01528c-0.00146,-0.0039 -0.00294,-0.00779 -0.00444,-0.01167zM2.10894,1.38145c0.02167,-0.01267 0.04382,-0.02461 0.06641,-0.03579c0.01846,0.02092 0.03618,0.0425 0.05313,0.06471c-0.01374,0.03752 -0.02969,0.07398 -0.04769,0.10921c-0.00076,-0.00023 -0.00152,-0.00046 -0.00229,-0.0007c-0.01457,-0.01377 -0.02862,-0.02808 -0.04214,-0.04289c-0.00787,-0.03204 -0.01703,-0.06358 -0.02742,-0.09455zM2.24383,1.36504c-0.00453,-0.00568 -0.00912,-0.01132 -0.01375,-0.01691c0.00526,0.00336 0.01057,0.00665 0.01591,0.00988c-0.00071,0.00235 -0.00143,0.00469 -0.00216,0.00703zM2.03612,1.33959c0.00469,-0.00081 0.00939,-0.00159 0.01411,-0.00234c0.00351,0.00888 0.00691,0.01781 0.01021,0.0268c-0.00233,0.00146 -0.00466,0.00292 -0.00697,0.0044c-0.00598,-0.00926 -0.01177,-0.01864 -0.01738,-0.02816c0.00001,-0.00023 0.00003,-0.00046 0.00004,-0.00069zM2.24282,1.54024c-0.00779,-0.00281 -0.01561,-0.00556 -0.02347,-0.00823c0.01361,-0.02705 0.02605,-0.05479 0.03728,-0.08314c0.01818,0.02596 0.03533,0.05269 0.0514,0.08014c-0.00394,0.00333 -0.0079,0.00662 -0.0119,0.00987c-0.01577,0.00091 -0.03165,0.00137 -0.04765,0.00137c-0.00188,0 -0.00377,-0.00001 -0.00565,-0.00002zM2.33847,1.50189c-0.02013,-0.03388 -0.04188,-0.0667 -0.06513,-0.09834c0.00286,-0.00837 0.00562,-0.01678 0.00827,-0.02524c0.03924,0.02103 0.08045,0.03886 0.1233,0.05312c-0.02069,0.02483 -0.04288,0.04836 -0.06643,0.07046zM1.93311,1.45659c-0.01815,-0.00903 -0.03655,-0.01763 -0.05519,-0.02578c0.03395,-0.02399 0.06608,-0.05038 0.09615,-0.07892c0.00665,-0.0015 0.01332,-0.00294 0.02001,-0.00433c0.00043,0.00075 0.00086,0.00151 0.00129,0.00226c-0.00149,0.02105 -0.00356,0.04194 -0.00621,0.06266c-0.01916,0.01412 -0.03785,0.02883 -0.05605,0.04411zM1.97928,1.47531c-0.00171,-0.00024 -0.00343,-0.00047 -0.00514,-0.0007c0.00206,-0.00166 0.00412,-0.00332 0.00619,-0.00497c-0.00034,0.00189 -0.00069,0.00378 -0.00104,0.00567zM2.10047,1.49789c-0.02689,-0.00635 -0.05411,-0.01186 -0.08162,-0.01651c0.00286,-0.01541 0.00541,-0.03094 0.00765,-0.04656c0.00532,-0.0038 0.01068,-0.00755 0.01607,-0.01125c0.01782,0.02492 0.03694,0.04885 0.05728,0.07167c0.00021,0.00088 0.00042,0.00176 0.00062,0.00265zM1.79017,1.50313c0.00236,-0.00002 0.00471,-0.00003 0.00707,-0.00003c0.00095,0.01986 0.00143,0.03985 0.00143,0.05995c0,0.00594 -0.00004,0.01188 -0.00013,0.0178c-0.00925,-0.01139 -0.01871,-0.02261 -0.02837,-0.03364c-0.00124,-0.00396 -0.00245,-0.00793 -0.00363,-0.01191c0.00808,-0.01056 0.01596,-0.02128 0.02363,-0.03217zM1.83176,1.69675c0.0001,-0.00095 0.0002,-0.00191 0.00029,-0.00286c0.00433,0.00653 0.00859,0.0131 0.01279,0.01972c-0.00133,0.00007 -0.00267,0.00015 -0.004,0.00021c-0.00309,-0.00566 -0.00611,-0.01135 -0.00908,-0.01707zM1.88959,1.70983c-0.01651,-0.0271 -0.03409,-0.05347 -0.05268,-0.07906c0.00043,-0.00828 0.00079,-0.01658 0.00106,-0.0249c0.02731,-0.03134 0.0564,-0.06109 0.08711,-0.0891c0.01379,0.00566 0.02776,0.01097 0.0419,0.01591c-0.01463,0.06033 -0.0342,0.11872 -0.05825,0.17474c-0.00636,0.00088 -0.01274,0.00168 -0.01914,0.0024zM1.83732,1.50363c0.01381,0.0004 0.02756,0.00102 0.04125,0.00186c-0.01367,0.01308 -0.02701,0.02649 -0.04,0.04024c-0.00019,-0.01409 -0.0006,-0.02812 -0.00124,-0.0421zM1.67762,1.63659c-0.00265,0.02242 -0.0046,0.04505 -0.00583,0.06787c-0.01317,-0.00216 -0.02624,-0.00465 -0.03918,-0.00745c0.00625,-0.01147 0.01233,-0.02305 0.01824,-0.03472c0.00908,-0.0084 0.01801,-0.01697 0.02678,-0.02569zM1.7553,1.71361c0.00765,-0.01138 0.01551,-0.0226 0.02358,-0.03366c0.00383,0.00818 0.00777,0.01631 0.01182,0.02436c-0.0004,0.0035 -0.00081,0.00699 -0.00124,0.01048c-0.01145,-0.00015 -0.02284,-0.00055 -0.03416,-0.00118zM1.76037,1.63782c-0.01706,0.02243 -0.0333,0.04551 -0.04867,0.06921c0.00222,-0.04121 0.00686,-0.08178 0.01379,-0.12156c0.00366,-0.00419 0.00728,-0.00841 0.01087,-0.01266c0.00724,0.02203 0.01525,0.04371 0.024,0.065zM2.17887,1.61787c-0.00175,-0.00147 -0.0035,-0.00294 -0.00526,-0.0044c0.00609,-0.00978 0.01202,-0.01967 0.01779,-0.02967c0.00635,0.00529 0.01277,0.01048 0.01927,0.01558c-0.01044,0.0064 -0.02105,0.01256 -0.03181,0.01848zM2.0143,1.54769c0.03676,0.02287 0.07219,0.04768 0.10615,0.07428c-0.00813,0.01208 -0.01653,0.02397 -0.02517,0.03566c-0.04475,0.01812 -0.09154,0.03224 -0.13994,0.04193c0.0201,-0.04987 0.0368,-0.10147 0.04981,-0.15453c0.00304,0.00091 0.0061,0.00179 0.00915,0.00267zM1.86307,1.38237c0.0075,-0.00244 0.01503,-0.00481 0.02259,-0.00711c-0.01009,0.00786 -0.02036,0.01549 -0.03082,0.02288c0.00279,-0.00523 0.00554,-0.01048 0.00823,-0.01576zM1.68258,1.45735c0.0036,-0.00184 0.00722,-0.00367 0.01084,-0.00548c-0.00126,0.00401 -0.00254,0.00801 -0.00383,0.012c-0.00233,-0.00218 -0.00467,-0.00435 -0.00701,-0.00652zM1.69199,1.40802c-0.01395,0.00672 -0.02776,0.01368 -0.04143,0.02088c-0.01681,-0.0144 -0.03403,-0.02833 -0.05164,-0.04177c0.03147,0.00575 0.06251,0.01273 0.09307,0.02089zM1.61298,1.44951c-0.02077,0.01185 -0.04118,0.02426 -0.06121,0.03721c-0.02387,0.00461 -0.04751,0.00986 -0.07089,0.01575c0.02643,-0.03132 0.05129,-0.06402 0.07446,-0.09796c0.01971,0.01439 0.03893,0.02939 0.05764,0.04499zM1.75631,1.45786c0.00288,-0.00927 0.00589,-0.01849 0.00903,-0.02765c0.00582,0.00401 0.01169,0.00795 0.01761,0.01182c-0.0005,0.00079 -0.001,0.00157 -0.0015,0.00236c-0.00829,0.00463 -0.01667,0.00912 -0.02513,0.01347zM0.89528,1.88494c0.00095,-0.00097 0.0019,-0.00194 0.00285,-0.00291c0.00995,-0.00289 0.01985,-0.00591 0.0297,-0.00906c0.0037,0.00485 0.00744,0.00966 0.01123,0.01444c-0.01468,-0.00049 -0.02927,-0.00132 -0.04378,-0.00247zM1.49779,1.69787c0.00362,0.00876 0.00712,0.01758 0.01052,0.02645c-0.0087,0.00587 -0.01749,0.0116 -0.02639,0.01718c-0.02652,-0.02705 -0.05145,-0.05567 -0.07463,-0.0857c0.02916,0.01577 0.05937,0.02983 0.0905,0.04207zM1.00219,1.8875c0.00296,-0.01507 0.00621,-0.03003 0.00973,-0.04488c0.04351,-0.01758 0.08575,-0.03763 0.12656,-0.05998c0.00579,0.02945 0.01273,0.0585 0.02076,0.08708c-0.05101,0.01008 -0.10348,0.01613 -0.15705,0.01778zM1.35106,1.64704c-0.01133,0.01106 -0.02245,0.02233 -0.03336,0.0338c-0.00555,-0.00177 -0.01112,-0.00349 -0.01671,-0.00518c0.01514,-0.01182 0.02999,-0.024 0.04454,-0.03652c0.00183,0.00264 0.00368,0.00527 0.00553,0.00789zM1.35956,1.69508c0.00512,-0.00523 0.01029,-0.01041 0.01551,-0.01555c0.00811,0.01053 0.01643,0.02089 0.02495,0.03108c-0.01336,-0.00542 -0.02685,-0.0106 -0.04046,-0.01553zM1.26076,1.70576c0.00903,0.00245 0.01802,0.00502 0.02696,0.0077c-0.01982,0.02232 -0.03888,0.04534 -0.05713,0.06902c-0.01251,-0.01069 -0.02528,-0.02108 -0.0383,-0.03116c0.02336,-0.01442 0.0462,-0.02962 0.06846,-0.04556zM1.26057,1.80911c0.02179,-0.0284 0.04478,-0.05583 0.06889,-0.08222c0.03596,0.01237 0.07107,0.02655 0.10523,0.04243c-0.04681,0.0258 -0.096,0.0478 -0.14717,0.0656c-0.00883,-0.00876 -0.01781,-0.01736 -0.02695,-0.0258zM1.22809,1.85343c0.00281,-0.00402 0.00565,-0.00802 0.00851,-0.01201c0.00262,0.00244 0.00522,0.00489 0.00781,0.00735c-0.00542,0.0016 -0.01086,0.00315 -0.01631,0.00466zM1.20661,1.8146c-0.00509,0.00704 -0.0101,0.01413 -0.01505,0.02128c-0.00358,-0.0139 -0.00689,-0.02792 -0.00993,-0.04203c0.00844,0.00678 0.01677,0.0137 0.02498,0.02075zM1.41654,1.58733c-0.00649,0.00552 -0.01292,0.0111 -0.01929,0.01675c-0.00259,-0.00155 -0.00518,-0.00311 -0.00775,-0.00469c0.00404,-0.00384 0.00806,-0.00771 0.01204,-0.0116c0.00501,-0.00011 0.01001,-0.00027 0.015,-0.00046zM1.43426,1.62484c0.00695,-0.00602 0.01397,-0.01196 0.02106,-0.01783c0.00645,0.0123 0.01268,0.02475 0.01868,0.03732c-0.01345,-0.00613 -0.0267,-0.01263 -0.03973,-0.01949zM1.528,1.66656c-0.01247,-0.02894 -0.0261,-0.05726 -0.04084,-0.0849c0.06025,-0.00734 0.11858,-0.0209 0.17432,-0.04004c-0.01307,0.03275 -0.02746,0.06482 -0.0431,0.09616c-0.01614,0.0147 -0.03278,0.02886 -0.04989,0.04245c-0.01366,-0.0042 -0.02715,-0.00876 -0.04048,-0.01367zM2.5117,1.34944c0.00612,0.00132 0.01222,0.00268 0.0183,0.00409v0.0238c-0.00597,-0.00516 -0.012,-0.01027 -0.01807,-0.01532c-0.00059,-0.00332 -0.00119,-0.00663 -0.0018,-0.00993c0.00052,-0.00088 0.00105,-0.00175 0.00157,-0.00263zM2.47784,1.40186c0.00045,0.00307 0.00088,0.00614 0.0013,0.00921c-0.00223,-0.00053 -0.00445,-0.00108 -0.00668,-0.00163c0.0018,-0.00251 0.00359,-0.00504 0.00537,-0.00758zM2.22914,1.22901c0.01449,0.00682 0.02883,0.01391 0.043,0.02129c-0.0007,0.0038 -0.00142,0.00759 -0.00216,0.01138c-0.01733,0.00632 -0.03446,0.01306 -0.05138,0.0202c-0.0045,0.0001 -0.00899,0.00023 -0.01348,0.00038c-0.02128,-0.01593 -0.04169,-0.03296 -0.06114,-0.051c0.00747,0.00022 0.01497,0.00033 0.02249,0.00033c0.0211,0 0.04201,-0.00087 0.06267,-0.00258zM2.29305,1.339c0.00148,-0.00549 0.00291,-0.01099 0.00431,-0.01651c0.03663,0.00142 0.07286,0.00441 0.10862,0.00893c0.01617,0.0113 0.03206,0.02299 0.04763,0.03506c-0.00717,0.01067 -0.0146,0.02115 -0.02227,0.03144c-0.04837,-0.01507 -0.09465,-0.03488 -0.13828,-0.05891zM2.33307,1.28429c-0.0015,-0.0001 -0.00299,-0.00019 -0.00449,-0.00028c0.00087,-0.00028 0.00175,-0.00055 0.00263,-0.00083c0.00062,0.00037 0.00124,0.00074 0.00186,0.00111zM2.43391,1.2157c-0.03309,0.00661 -0.06565,0.01467 -0.09762,0.02411c-0.0066,-0.0038 -0.01324,-0.00753 -0.01992,-0.01121c0.00063,-0.0041 0.00124,-0.00822 0.00183,-0.01234c0.03621,-0.00742 0.07147,-0.01745 0.10558,-0.02988c0.00351,0.00971 0.00689,0.01948 0.01014,0.02931zM2.45768,1.2985c-0.01225,-0.00201 -0.02455,-0.00384 -0.03691,-0.0055c-0.01231,-0.00846 -0.02477,-0.0167 -0.03739,-0.02471c0.02058,-0.00532 0.0414,-0.01004 0.06244,-0.01416c0.00425,0.01467 0.00821,0.02946 0.01186,0.04437zM2.47366,1.20851c-0.00401,-0.01237 -0.00823,-0.02464 -0.01265,-0.03682c0.02364,-0.01008 0.04667,-0.02134 0.06899,-0.0337v0.06284c-0.01893,0.0021 -0.03771,0.00467 -0.05634,0.00769zM2.48544,1.24714c0.01207,-0.0019 0.02421,-0.0036 0.0364,-0.00509c-0.00753,0.01727 -0.01566,0.03422 -0.02436,0.05081c-0.00371,-0.01536 -0.00773,-0.0306 -0.01205,-0.04572zM2.40179,0.60579c0.03533,0.03632 0.06778,0.07545 0.097,0.11702c-0.03278,0.00748 -0.06498,0.01647 -0.09653,0.02689c0.00231,-0.02292 0.00349,-0.04617 0.00349,-0.0697c0,-0.02507 -0.00134,-0.04983 -0.00396,-0.07421zM2.39844,0.79325c0.04033,-0.01409 0.08181,-0.02573 0.12426,-0.03474c0.00246,0.00386 0.00489,0.00773 0.00729,0.01162l0,0.11801c-0.04146,-0.03462 -0.08541,-0.06636 -0.13156,-0.09489zM2.35262,0.94551c0.06078,0.00958 0.12004,0.02377 0.17738,0.04221l0,0.10413c-0.02669,0.01589 -0.05451,0.03009 -0.08331,0.04244c-0.02622,-0.06505 -0.05823,-0.12714 -0.0954,-0.18564c0.00044,-0.00104 0.00088,-0.00209 0.00132,-0.00314zM2.36728,0.90735c0.00834,-0.02382 0.01541,-0.04825 0.02112,-0.07318c0.05009,0.03179 0.09744,0.06753 0.1416,0.10676v0.00483c-0.0528,-0.01636 -0.10713,-0.02926 -0.16272,-0.03841zM2.33107,0.99198c0.0301,0.04991 0.05637,0.10239 0.07841,0.15703c-0.02796,0.01016 -0.05674,0.01862 -0.08621,0.02524c0.00341,-0.0341 0.00516,-0.06868 0.00516,-0.10368c0,-0.02323 -0.00077,-0.04629 -0.00229,-0.06913c0.00166,-0.00314 0.0033,-0.0063 0.00492,-0.00946zM2.4549,0.49125c0.02962,0.04434 0.05486,0.09185 0.0751,0.14192l0,0.06448c-0.04055,-0.05736 -0.08702,-0.11023 -0.13853,-0.15772c-0.0042,-0.02032 -0.00931,-0.04031 -0.01526,-0.05993l0.00705,0c0.02413,0.00297 0.04802,0.00673 0.07163,0.01125zM2.23627,1.18821c-0.01238,-0.00569 -0.02488,-0.01119 -0.03748,-0.01648c0.03336,-0.03262 0.06342,-0.06861 0.08962,-0.10742c0.00001,0.00209 0.00002,0.00418 0.00002,0.00627c0,0.03775 -0.00212,0.075 -0.00624,0.11165c-0.01515,0.00248 -0.03047,0.00448 -0.04593,0.00598zM2.50984,0.50326c0.00674,0.00166 0.01346,0.00338 0.02016,0.00516v0.03043c-0.00643,-0.01204 -0.01316,-0.02391 -0.02016,-0.03559zM1.98525,0.50371c0.00441,-0.00109 0.00883,-0.00216 0.01326,-0.00319c-0.00494,0.00853 -0.00974,0.01714 -0.0144,0.02585c0.0005,-0.00752 0.00088,-0.01507 0.00114,-0.02266zM2.1345,0.93142c0.01062,-0.00028 0.02127,-0.00042 0.03196,-0.00042c0.00347,0 0.00693,0.00001 0.0104,0.00004c-0.01828,0.07174 -0.04602,0.13971 -0.08182,0.20249c-0.01669,-0.00531 -0.03353,-0.01027 -0.05051,-0.01489c-0.00716,-0.00996 -0.01409,-0.0201 -0.02077,-0.03041c-0.0029,-0.01819 -0.00623,-0.03624 -0.00998,-0.05414c0.03751,-0.03722 0.07787,-0.07157 0.12073,-0.10268zM2.19399,0.8445c-0.02498,0.0148 -0.0493,0.03059 -0.07291,0.04732c-0.04818,0.00175 -0.09565,0.00628 -0.14226,0.01344c-0.00251,-0.00748 -0.00509,-0.01492 -0.00775,-0.02232c-0.00245,-0.05539 -0.00941,-0.1096 -0.02051,-0.16229c0.00398,-0.01513 0.00838,-0.0301 0.01319,-0.04487c0.0372,0.00555 0.0738,0.01297 0.10969,0.02215c0.04435,0.03549 0.08591,0.07432 0.12431,0.1161c-0.00107,0.01021 -0.00232,0.02037 -0.00376,0.03047zM1.99101,0.94388c0.02403,-0.00356 0.04829,-0.0064 0.07277,-0.0085c-0.02084,0.01697 -0.04102,0.03472 -0.06051,0.05319c-0.00379,-0.01502 -0.00788,-0.02992 -0.01226,-0.04469zM1.99435,0.64017c-0.00542,-0.00093 -0.01085,-0.00182 -0.0163,-0.00268c0.00155,-0.00166 0.0031,-0.00331 0.00466,-0.00495c0.00389,0.00252 0.00777,0.00506 0.01163,0.00763zM2.20162,0.69644c-0.03582,-0.01349 -0.07251,-0.02523 -0.10995,-0.03512c-0.02586,-0.02037 -0.05261,-0.03966 -0.08019,-0.05779c0.03314,-0.03199 0.06866,-0.06153 0.10627,-0.08833c0.03111,0.04572 0.05849,0.09418 0.0817,0.14496c0.00098,0.01202 0.00171,0.02412 0.00217,0.03628zM2.16744,0.72655c0.01166,0.00413 0.02322,0.00845 0.03469,0.01296c-0.00009,0.00685 -0.00027,0.01367 -0.00054,0.02047c-0.01115,-0.01138 -0.02254,-0.02253 -0.03416,-0.03344zM2.05217,0.48936c0.01403,-0.00255 0.02816,-0.00483 0.04237,-0.00684c0.00002,0.00002 0.00003,0.00004 0.00005,0.00007c-0.02487,0.01772 -0.04886,0.03659 -0.0719,0.05653c0.00925,-0.01696 0.01908,-0.03356 0.02948,-0.04976zM2.15082,0.49269c0.00476,-0.00309 0.00955,-0.00614 0.01437,-0.00915c0.00562,0.01804 0.01064,0.03634 0.01503,0.05489c-0.0094,-0.01552 -0.01921,-0.03077 -0.0294,-0.04574zM2.10815,1.18923c0.00161,-0.00252 0.0032,-0.00505 0.00478,-0.00759c0.00345,0.0012 0.0069,0.00242 0.01034,0.00365c-0.00194,0.00156 -0.00388,0.0031 -0.00584,0.00463c-0.0031,-0.00021 -0.00619,-0.00044 -0.00928,-0.00069zM2.15792,1.15541c-0.00805,-0.00305 -0.01614,-0.00602 -0.02427,-0.0089c0.03714,-0.06653 0.0657,-0.13851 0.08418,-0.21443c0.02066,0.00088 0.04119,0.00229 0.06156,0.00421c0.00253,0.01863 0.00454,0.03743 0.00602,0.05637c-0.03364,0.06091 -0.07681,0.11583 -0.12749,0.16274zM2.2653,0.89492c-0.01288,-0.00103 -0.02581,-0.00185 -0.0388,-0.00248c0.00147,-0.00761 0.00285,-0.01526 0.00412,-0.02294c0.00339,-0.00193 0.00679,-0.00383 0.0102,-0.00572c0.00834,0.01023 0.0165,0.02061 0.02448,0.03114zM2.25412,0.81144c-0.00117,0.0006 -0.00234,0.00119 -0.00351,0.00179c-0.00376,-0.00436 -0.00756,-0.00869 -0.01139,-0.01298c0.00089,-0.01066 0.00158,-0.02138 0.00208,-0.03215c0.00459,0.01431 0.00887,0.02876 0.01282,0.04334zM2.36028,0.76456c-0.00217,0.00082 -0.00433,0.00164 -0.00649,0.00247c-0.0277,-0.01543 -0.05611,-0.02974 -0.08516,-0.04286c-0.00903,-0.02523 -0.01901,-0.05001 -0.02991,-0.07429c-0.00526,-0.05851 -0.01638,-0.11534 -0.03277,-0.16988l0.04558,0c0.03627,0.02452 0.07076,0.05147 0.10324,0.08061c0.00721,0.03869 0.01098,0.0786 0.01098,0.11939c0,0.02866 -0.00186,0.05688 -0.00547,0.08456zM2.30088,0.8331c0.01637,-0.00769 0.03298,-0.01497 0.04981,-0.02181c0.00052,0.0003 0.00104,0.0006 0.00155,0.0009c-0.00634,0.03058 -0.01484,0.06037 -0.02533,0.08921c-0.00268,-0.00035 -0.00536,-0.00069 -0.00804,-0.00102c-0.00194,-0.00274 -0.0039,-0.00548 -0.00587,-0.0082c-0.00348,-0.01989 -0.00753,-0.03959 -0.01214,-0.05908zM2.30605,0.78677c-0.00513,0.00227 -0.01023,0.00457 -0.01532,0.00692c-0.0016,-0.00575 -0.00326,-0.01148 -0.00496,-0.01718c0.0068,0.00335 0.01356,0.00677 0.02028,0.01026zM2.33885,0.49468c-0.0062,-0.00497 -0.01246,-0.00986 -0.01878,-0.01468h0.01422c0.00158,0.00487 0.0031,0.00976 0.00457,0.01468zM1.98575,1.10421c-0.00461,-0.00101 -0.00922,-0.002 -0.01385,-0.00296c-0.00291,-0.00439 -0.00585,-0.00876 -0.00882,-0.01311c0.00266,-0.00305 0.00534,-0.00609 0.00804,-0.0091c0.00466,0.00798 0.00947,0.01587 0.0144,0.02367c0.00008,0.0005 0.00015,0.001 0.00023,0.0015zM1.95506,1.15157c0.00094,0.00064 0.00188,0.00128 0.00282,0.00192c0.00178,0.00287 0.00355,0.00575 0.0053,0.00864c-0.00185,-0.00055 -0.00369,-0.00111 -0.00553,-0.00167c-0.00088,-0.00296 -0.00175,-0.00592 -0.00259,-0.00889zM1.88595,0.86852c-0.00125,0.01824 -0.00193,0.03664 -0.00202,0.05518c-0.01502,0.00354 -0.02993,0.00736 -0.04472,0.01144c-0.00462,-0.00484 -0.00928,-0.00964 -0.01398,-0.0144c0.02011,-0.02394 0.03862,-0.04927 0.05535,-0.07583c0.00168,0.00791 0.00347,0.01578 0.00538,0.02361zM1.86978,0.96839c0.00496,-0.00128 0.00993,-0.00252 0.01491,-0.00373c0.00032,0.00747 0.00073,0.01492 0.00124,0.02234c-0.00532,-0.00626 -0.0107,-0.01246 -0.01614,-0.01861zM1.78927,0.9922c0.01239,-0.00415 0.02488,-0.0081 0.03745,-0.01185c0.02369,0.02586 0.04623,0.0528 0.06752,0.08073c0.00032,0.00206 0.00065,0.00413 0.00099,0.00619c-0.03396,-0.01928 -0.06894,-0.03697 -0.10485,-0.05295c-0.00031,-0.00739 -0.00068,-0.01476 -0.00112,-0.02212zM1.79153,1.05879c0.01516,0.00705 0.03014,0.01441 0.04493,0.02208c-0.01489,-0.00141 -0.02986,-0.00255 -0.0449,-0.00343c0.00001,-0.00229 0.00002,-0.00457 0.00002,-0.00686c0,-0.00393 -0.00002,-0.00786 -0.00005,-0.01179zM1.86336,1.12399c0.00589,0.00071 0.01176,0.00146 0.01763,0.00226c-0.00108,0.00144 -0.00215,0.00289 -0.00322,0.00434c-0.00483,-0.00215 -0.00963,-0.00435 -0.01441,-0.0066zM1.92833,1.01316c-0.00081,-0.00779 -0.00151,-0.01561 -0.0021,-0.02346c0.0011,0.0026 0.00222,0.00519 0.00335,0.00777c-0.00038,0.00524 -0.00079,0.01047 -0.00125,0.01569zM1.55161,1.12674c0.0347,-0.00481 0.06988,-0.00813 0.10546,-0.00991c-0.01376,0.03875 -0.02953,0.07656 -0.04716,0.11329c-0.02356,-0.02992 -0.04507,-0.06153 -0.0643,-0.09463c0.00202,-0.0029 0.00402,-0.00582 0.00601,-0.00875zM1.67066,1.07619c-0.01174,0.00044 -0.02344,0.00104 -0.03509,0.00181c0.01445,-0.00812 0.02858,-0.01676 0.04235,-0.02587c-0.00234,0.00806 -0.00476,0.01608 -0.00727,0.02406zM1.51984,1.17044c0.0211,0.03467 0.04462,0.06772 0.0703,0.09892c-0.00725,0.01374 -0.01477,0.02732 -0.02255,0.04073c-0.04618,-0.01099 -0.09045,-0.02693 -0.13221,-0.04722c0.03049,-0.02854 0.05874,-0.05945 0.08446,-0.09243zM1.73391,1.16705c0.00384,0.01136 0.00751,0.02279 0.01102,0.03429c-0.00376,0.03678 -0.00908,0.0731 -0.01591,0.10889c-0.00055,-0.01315 -0.00083,-0.02636 -0.00083,-0.03965c0,-0.035 0.00194,-0.06954 0.00572,-0.10353zM1.69991,1.11544c0.00022,0 0.00044,-0.00001 0.00066,-0.00001c-0.00815,0.05051 -0.01238,0.10234 -0.01238,0.15515c0,0.01563 0.00037,0.03117 0.0011,0.04661c-0.01791,-0.017 -0.03505,-0.03481 -0.05135,-0.05337c0.02383,-0.04774 0.04457,-0.09729 0.06196,-0.14839zM1.81564,1.32037c-0.00051,-0.00265 -0.00103,-0.00529 -0.00155,-0.00794c0.02263,-0.04627 0.04863,-0.09058 0.07769,-0.13262c0.00208,0.00082 0.00416,0.00162 0.00624,0.00242c-0.01242,0.04533 -0.02809,0.08933 -0.04672,0.13172c-0.01177,0.00246 -0.02366,0.0046 -0.03565,0.00641zM1.85421,1.16386c-0.01928,0.02835 -0.03723,0.05768 -0.05376,0.0879c-0.00458,-0.01829 -0.00956,-0.03643 -0.01492,-0.0544c0.00211,-0.02204 0.00368,-0.04423 0.00469,-0.06658c0.02072,0.01201 0.04207,0.02305 0.06399,0.03308zM1.77218,1.30724c-0.00105,0.00223 -0.0021,0.00446 -0.00314,0.0067c0.00072,-0.00384 0.00142,-0.00769 0.00211,-0.01154c0.00035,0.00161 0.00069,0.00323 0.00103,0.00484zM1.61818,1.30172c0.00649,0.00712 0.0131,0.01414 0.01982,0.02104c-0.00978,-0.00121 -0.01949,-0.00263 -0.02913,-0.00427c0.00315,-0.00556 0.00625,-0.01115 0.00931,-0.01677zM1.93169,1.21011c0.00845,0.02411 0.01795,0.04773 0.02845,0.0708c-0.01965,0.00792 -0.03977,0.01491 -0.06032,0.0209c0.01205,-0.02988 0.02271,-0.06048 0.03187,-0.09171zM1.99131,1.21107c0.00195,0.0036 0.00388,0.0072 0.0058,0.01082c0.00061,0.01402 0.00095,0.02811 0.00103,0.04226c-0.00046,0.00022 -0.00092,0.00044 -0.00137,0.00066c-0.0087,-0.01908 -0.01668,-0.03856 -0.02391,-0.05839c0.00612,0.00163 0.01227,0.00318 0.01845,0.00465zM1.6882,0.67305c0.01318,0.04008 0.02442,0.08104 0.03361,0.12277c-0.00058,0.01001 -0.00128,0.01999 -0.00211,0.02994c-0.01303,-0.01041 -0.02628,-0.02055 -0.03974,-0.03042c0.00545,-0.03766 0.00827,-0.07617 0.00827,-0.11534c0,-0.00232 -0.00001,-0.00464 -0.00003,-0.00695zM1.67229,0.83952c0.01442,0.01095 0.02858,0.02224 0.04246,0.03384c-0.00439,0.03517 -0.01036,0.06985 -0.01782,0.10397c-0.0001,-0.00003 -0.00019,-0.00007 -0.00029,-0.0001c-0.01273,-0.02461 -0.02625,-0.04876 -0.0405,-0.07241c0.00627,-0.02141 0.01167,-0.04319 0.01616,-0.0653zM1.63941,0.95551c0.00077,0.00136 0.00154,0.00272 0.0023,0.00409c-0.00042,-0.00012 -0.00085,-0.00025 -0.00127,-0.00037c-0.00057,-0.00063 -0.00114,-0.00125 -0.00171,-0.00188c0.00023,-0.00061 0.00045,-0.00122 0.00068,-0.00184zM1.66607,0.49241c0.00589,0.00156 0.01177,0.00317 0.01763,0.00482c0.00728,0.00747 0.01445,0.01504 0.02152,0.02271c0.00278,0.0154 0.00526,0.03091 0.00743,0.04651c-0.00586,0.00316 -0.01169,0.00636 -0.01748,0.00962c-0.00695,-0.01705 -0.01424,-0.03392 -0.02187,-0.0506c-0.00218,-0.0111 -0.00459,-0.02212 -0.00722,-0.03306zM1.70982,0.61374c0.00265,-0.0015 0.0053,-0.003 0.00796,-0.00448c0.00058,0.00573 0.00112,0.01148 0.00162,0.01723c-0.0016,0.00011 -0.0032,0.00023 -0.00479,0.00035c-0.00157,-0.00438 -0.00317,-0.00874 -0.00479,-0.0131zM1.82814,0.85146c0.01269,-0.02499 0.02648,-0.04933 0.0413,-0.07295c0.0002,0.00163 0.00041,0.00326 0.00062,0.00488c-0.01259,0.0236 -0.0266,0.04633 -0.04192,0.06807zM1.75583,0.58902c0.00191,-0.00097 0.00383,-0.00193 0.00574,-0.00289c0.00969,0.01232 0.01913,0.02486 0.0283,0.03759c-0.0102,0.00009 -0.02037,0.00031 -0.0305,0.00067c-0.00101,-0.01184 -0.00219,-0.02363 -0.00354,-0.03537zM1.76211,0.66432c0.0126,-0.00043 0.02526,-0.00064 0.03797,-0.00064c0.00579,0 0.01157,0.00004 0.01734,0.00013c0.01341,0.02045 0.02616,0.04137 0.03822,0.06274c-0.03032,0.04447 -0.05702,0.0916 -0.07969,0.14097c-0.00392,-0.02522 -0.00856,-0.05021 -0.0139,-0.07493c0.00114,-0.02142 0.00171,-0.04298 0.00171,-0.06468c0,-0.02133 -0.00056,-0.04253 -0.00165,-0.06358zM1.86522,0.6255c-0.00866,-0.00049 -0.01735,-0.00088 -0.02607,-0.00117c-0.01298,-0.01902 -0.02651,-0.03764 -0.04058,-0.05581c0.01225,-0.00555 0.02463,-0.01088 0.03712,-0.01599c0.00842,0.00378 0.01678,0.00767 0.02508,0.01166c0.00282,0.00689 0.00557,0.01383 0.00824,0.0208c-0.0016,0.01341 -0.00287,0.02692 -0.0038,0.04052zM1.78441,0.53101c-0.0039,0.00176 -0.00779,0.00353 -0.01167,0.00533c-0.00399,-0.0048 -0.00803,-0.00956 -0.0121,-0.01429c0.00796,0.0029 0.01589,0.00588 0.02376,0.00896zM1.83609,0.50898c-0.02432,-0.01049 -0.04908,-0.02016 -0.07424,-0.02898l0.05955,0c0.00506,0.00957 0.00995,0.01923 0.01469,0.02898zM1.74522,0.94265c-0.0004,0.0011 -0.00079,0.00221 -0.00119,0.00332c0.00033,-0.0018 0.00066,-0.0036 0.00098,-0.00541c0.00007,0.0007 0.00014,0.00139 0.00021,0.00209zM1.88605,0.49105c-0.00407,0.00137 -0.00812,0.00277 -0.01217,0.00419c-0.00245,-0.00511 -0.00495,-0.01019 -0.00749,-0.01524h0.02245c-0.00096,0.00367 -0.00189,0.00736 -0.00279,0.01105zM1.91999,0.52206c0.00821,-0.00259 0.01646,-0.00508 0.02475,-0.00748c-0.00082,0.01548 -0.00218,0.03082 -0.00407,0.04599c-0.00844,-0.00472 -0.01695,-0.00933 -0.02553,-0.01383c0.00148,-0.00827 0.0031,-0.0165 0.00484,-0.02468zM1.92795,0.63077c-0.00027,-0.00003 -0.00053,-0.00006 -0.0008,-0.00009c-0.00409,-0.01315 -0.00844,-0.02618 -0.01304,-0.03908c0.00667,0.00366 0.0133,0.00739 0.01988,0.01118c-0.00181,0.00941 -0.00383,0.01874 -0.00604,0.02799zM1.63524,1.01169c-0.00828,0.00399 -0.01651,0.00806 -0.02469,0.01223c0.00404,-0.00844 0.00793,-0.01696 0.01167,-0.02556c0.00429,0.0045 0.00863,0.00894 0.01302,0.01333zM1.63492,0.5378c0.00426,0.02246 0.00753,0.04526 0.00976,0.06838c-0.01858,0.01175 -0.0368,0.02403 -0.05464,0.03681c-0.03725,0.00694 -0.07387,0.0157 -0.10976,0.02617c-0.00402,-0.01463 -0.00759,-0.02945 -0.01069,-0.04444c0.00685,-0.04725 0.0104,-0.09558 0.0104,-0.14473l0.1264,0c0.00998,0.01899 0.01949,0.03826 0.02852,0.0578zM1.55879,0.71727c0.01543,-0.0126 0.03122,-0.02479 0.04734,-0.03654c0.01394,-0.00248 0.02796,-0.0047 0.04208,-0.00665c0.00002,0.00197 0.00002,0.00395 0.00002,0.00592c0,0.03022 -0.00177,0.06003 -0.00521,0.08933c-0.0273,-0.01847 -0.05539,-0.03584 -0.08423,-0.05206zM1.55595,0.76175c0.02761,0.01614 0.05449,0.03338 0.08058,0.05167c-0.00271,0.01529 -0.00589,0.03042 -0.0095,0.04537c-0.02219,-0.03349 -0.04592,-0.06587 -0.07108,-0.09705zM1.52346,0.78519c0.03221,0.03976 0.062,0.08156 0.08915,0.12517c-0.00124,0.00391 -0.00252,0.0078 -0.00382,0.01167c-0.03335,-0.04202 -0.06205,-0.08789 -0.08532,-0.13684zM1.24928,1.12357c0.00148,-0.00336 0.00298,-0.00672 0.00449,-0.01007c0.04096,-0.04997 0.07717,-0.10397 0.10795,-0.16133c0.02205,0.00115 0.04394,0.00291 0.06565,0.00526c0.0136,0.04876 0.03143,0.09575 0.05307,0.14057c-0.03119,0.00604 -0.06196,0.01325 -0.09226,0.02158c-0.02879,0.00393 -0.05819,0.00596 -0.08807,0.00596c-0.01711,0 -0.03406,-0.00067 -0.05083,-0.00197zM1.41697,0.91617c-0.01177,-0.00113 -0.02359,-0.00209 -0.03546,-0.00288c0.00506,-0.01051 0.00994,-0.02112 0.01464,-0.03183c0.00374,-0.00467 0.00752,-0.00931 0.01134,-0.01392c0.0027,0.01637 0.00586,0.03259 0.00948,0.04863zM1.54706,1.05865c-0.01073,0.00629 -0.02135,0.01273 -0.03186,0.01933c-0.01764,-0.03689 -0.03259,-0.07532 -0.04457,-0.11503c0.0385,0.00564 0.0764,0.01315 0.11358,0.02246c-0.01108,0.02516 -0.0235,0.0496 -0.03715,0.07324zM1.57331,0.94164c-0.0374,-0.00866 -0.07548,-0.01557 -0.11412,-0.02066c-0.00743,-0.03047 -0.01314,-0.06162 -0.01702,-0.09333c0.01245,-0.01364 0.02525,-0.02697 0.03837,-0.03997c0.02479,0.05517 0.05603,0.10681 0.09278,0.15396zM1.46402,0.7479c-0.00902,0.00868 -0.01789,0.0175 -0.02661,0.02647c-0.00008,-0.00134 -0.00015,-0.00268 -0.00022,-0.00402c0.005,-0.01652 0.00959,-0.03321 0.01375,-0.05008c0.00094,-0.00032 0.00189,-0.00063 0.00284,-0.00094c0.00323,0.00961 0.00664,0.01914 0.01024,0.02857zM0.85474,1.40742c0.00326,0.00253 0.00653,0.00504 0.00983,0.00753c-0.00758,0.00717 -0.01507,0.01444 -0.02247,0.0218c-0.01803,-0.00112 -0.0359,-0.00288 -0.05357,-0.00524c0.02243,-0.00727 0.04451,-0.01531 0.06621,-0.02408zM1.23738,1.17173c-0.00317,0.00133 -0.00633,0.00267 -0.00948,0.00403c0.00123,-0.00324 0.00248,-0.00648 0.00374,-0.00971c0.0019,0.0019 0.00382,0.0038 0.00574,0.00568zM1.25736,1.20675c0.00418,-0.00174 0.00838,-0.00345 0.01259,-0.00514c0.00649,0.00558 0.01308,0.01104 0.01977,0.01637c-0.01071,-0.0039 -0.0215,-0.00764 -0.03236,-0.01123zM1.22245,1.23761c0.02252,0.00693 0.04475,0.01454 0.06665,0.02281c-0.00887,0.00908 -0.01759,0.01829 -0.02618,0.02763c-0.01221,-0.01153 -0.02468,-0.02279 -0.03739,-0.03378c-0.00107,-0.00554 -0.0021,-0.01109 -0.00308,-0.01666zM1.29154,1.31603c0.01233,-0.01345 0.02496,-0.02661 0.03789,-0.03948c0.00615,0.0026 0.01226,0.00525 0.01835,0.00795c-0.01675,0.0127 -0.03404,0.02472 -0.05183,0.03602c-0.00147,-0.0015 -0.00294,-0.003 -0.00441,-0.00449zM1.09939,1.28651c0.01992,-0.01198 0.04022,-0.0234 0.06088,-0.03424c0.00004,0.00003 0.00007,0.00006 0.00011,0.00008c-0.00928,0.03255 -0.01713,0.06569 -0.02349,0.09937c-0.0135,-0.02107 -0.02601,-0.04283 -0.03749,-0.06521zM1.20477,1.34017c-0.00857,0.00123 -0.01711,0.00255 -0.02563,0.00395c0.00378,-0.01858 0.00804,-0.03698 0.01275,-0.0552c0.00385,0.01726 0.00815,0.03435 0.01288,0.05125zM0.99723,1.43071c0.0396,-0.01342 0.08012,-0.02483 0.12146,-0.0341c0.00123,0.00179 0.00247,0.00357 0.00371,0.00534c-0.04035,0.01298 -0.08218,0.02267 -0.12517,0.02876zM1.09542,1.36092c-0.0566,0.01342 -0.1117,0.03072 -0.165,0.0516c-0.00071,-0.00047 -0.00143,-0.00095 -0.00214,-0.00142c0.04309,-0.03758 0.08889,-0.07213 0.13706,-0.10334c0.00939,0.01812 0.01942,0.03585 0.03008,0.05315zM1.40243,1.15796c-0.02025,0.01615 -0.03998,0.03292 -0.05916,0.05029c-0.01035,-0.00736 -0.02048,-0.01502 -0.03038,-0.02296c0.02736,-0.00979 0.05518,-0.01862 0.08341,-0.02644c0.00204,-0.00029 0.00408,-0.00058 0.00612,-0.00089zM1.37769,1.2311c0.03612,-0.03216 0.07421,-0.06214 0.11408,-0.08975c-0.02818,0.0367 -0.05964,0.07075 -0.09395,0.10171c-0.00679,-0.00387 -0.0135,-0.00786 -0.02013,-0.01196zM0.61694,1.43031c-0.04473,0.00639 -0.09045,0.00969 -0.13694,0.00969v-0.07497c0.04317,0.02589 0.08898,0.04782 0.13694,0.06528zM1.07253,0.62742c0.00254,-0.00614 0.00516,-0.01225 0.00785,-0.01831c0.06303,0.00584 0.12459,0.01674 0.18428,0.03227c-0.02259,0.04738 -0.04156,0.09683 -0.05654,0.14797c-0.03841,0.0234 -0.07533,0.04902 -0.11058,0.07666c-0.01763,-0.05891 -0.0271,-0.12135 -0.0271,-0.186c0,-0.0177 0.00071,-0.03524 0.0021,-0.05258zM1.13496,0.96218c0.01305,-0.00185 0.02616,-0.00348 0.03935,-0.00489c-0.00248,0.02193 -0.00424,0.04407 -0.00527,0.0664c-0.01243,-0.01981 -0.02381,-0.04034 -0.03407,-0.06151zM1.17977,0.91651c-0.02073,0.00205 -0.04131,0.00463 -0.06172,0.00772c-0.00241,-0.00592 -0.00474,-0.01189 -0.00698,-0.01789c0.02642,-0.02128 0.05385,-0.04136 0.0822,-0.06016c-0.00532,0.02315 -0.00983,0.0466 -0.0135,0.07033zM1.283,0.60483c-0.05973,-0.016 -0.12131,-0.0275 -0.18433,-0.03412c0.00806,-0.0158 0.01664,-0.03129 0.02571,-0.04645c0.0159,-0.01267 0.03222,-0.02484 0.04893,-0.03649c0.04448,0.02534 0.08724,0.05337 0.12805,0.08385c-0.00632,0.01094 -0.01244,0.02201 -0.01836,0.0332zM1.32216,0.53725c-0.02715,-0.02016 -0.05514,-0.03926 -0.08389,-0.05725l0.12297,0c-0.01367,0.0186 -0.02671,0.0377 -0.03908,0.05725zM1.20799,1.07913c-0.00002,-0.00285 -0.00004,-0.0057 -0.00004,-0.00855c0,-0.03959 0.0024,-0.07861 0.00706,-0.11694c0.02713,-0.00196 0.05452,-0.00298 0.08213,-0.00305c-0.02909,0.04509 -0.05506,0.09238 -0.07761,0.14157c-0.00018,0.00021 -0.00035,0.00043 -0.00053,0.00064c-0.00373,-0.00451 -0.0074,-0.00906 -0.01101,-0.01367zM1.32401,0.91082c-0.00795,-0.00015 -0.01592,-0.00023 -0.0239,-0.00023c-0.02664,0 -0.05308,0.00086 -0.07929,0.00256c0.00548,-0.03315 0.01266,-0.06573 0.02145,-0.09764c0.049,-0.02891 0.10044,-0.05412 0.15393,-0.07527c0.00012,0.00837 0.00036,0.01671 0.00072,0.02501c-0.01013,0.03259 -0.02194,0.06443 -0.03535,0.09543c-0.01297,0.01635 -0.02549,0.03307 -0.03755,0.05014zM1.39665,0.69716c-0.04732,0.01792 -0.09314,0.0389 -0.13722,0.06271c0.01265,-0.03693 0.02748,-0.07284 0.04436,-0.10757c0.03172,0.00946 0.06288,0.02025 0.0934,0.03229c-0.00021,0.00419 -0.00039,0.00838 -0.00054,0.01258zM1.37957,0.63516c-0.01886,-0.00682 -0.03794,-0.01317 -0.05723,-0.01906c0.00358,-0.00664 0.00724,-0.01323 0.01097,-0.01978c0.01574,0.01257 0.03116,0.02552 0.04626,0.03883zM1.40501,0.60426c-0.01661,-0.01462 -0.03361,-0.02881 -0.05097,-0.04256c0.01774,-0.02826 0.03691,-0.05552 0.05741,-0.0817h0.00342c0,0.0198 0.00077,0.03943 0.00227,0.05885c-0.00487,0.02151 -0.00893,0.04332 -0.01214,0.06541zM0.79494,0.57708c-0.04368,0.00647 -0.08659,0.01529 -0.1286,0.02633c-0.00773,-0.03995 -0.01178,-0.08121 -0.01178,-0.12341l0.3478,0c-0.07277,0.02551 -0.14219,0.05815 -0.20742,0.09708zM0.89909,0.56628c0.0493,-0.02393 0.10063,-0.04432 0.15368,-0.06082c-0.00298,0.01138 -0.00567,0.02287 -0.00807,0.03447c-0.00889,0.00819 -0.01762,0.01655 -0.0262,0.02506c-0.01543,-0.00059 -0.03093,-0.00088 -0.04649,-0.00088c-0.02448,0 -0.04879,0.00073 -0.07291,0.00218zM0.69194,0.69699c0.03704,-0.02956 0.07602,-0.05679 0.11672,-0.08147c0.05337,-0.00753 0.1079,-0.01142 0.16335,-0.01142c0.00303,0 0.00607,0.00001 0.00909,0.00003c-0.07535,0.08328 -0.13679,0.17938 -0.18063,0.28465c-0.04643,-0.05669 -0.08341,-0.12142 -0.10852,-0.19179zM0.70834,0.63422c-0.00992,0.00721 -0.01973,0.01458 -0.02941,0.0221c-0.0013,-0.0046 -0.00256,-0.00922 -0.00376,-0.01386c0.01099,-0.0029 0.02205,-0.00565 0.03317,-0.00824zM0.97422,1.03737c0.00176,-0.00201 0.00353,-0.004 0.00531,-0.006c0.00041,0.00328 0.00084,0.00655 0.00128,0.00981c-0.00221,-0.00126 -0.00441,-0.00253 -0.0066,-0.00381zM0.97357,0.95527c-0.02728,0.00765 -0.05416,0.01623 -0.08062,0.02571c-0.02226,-0.01811 -0.04329,-0.03768 -0.06294,-0.05855c0.04672,-0.11909 0.11671,-0.2265 0.20437,-0.31664c-0.00043,0.00403 -0.00083,0.00807 -0.00119,0.01212c-0.03874,0.09573 -0.06006,0.20037 -0.06006,0.30999c0,0.00916 0.00015,0.01828 0.00044,0.02737zM0.93146,1.01001c0.00631,-0.0021 0.01265,-0.00415 0.01902,-0.00614c-0.00354,0.00396 -0.00705,0.00794 -0.01054,0.01195c-0.00284,-0.00191 -0.00567,-0.00385 -0.00848,-0.00581zM1.06412,0.89323c-0.01743,0.01476 -0.03441,0.03004 -0.05092,0.04581c-0.00005,-0.00371 -0.00008,-0.00742 -0.00008,-0.01114c0,-0.06185 0.00714,-0.12204 0.02063,-0.17978c0.00493,0.05015 0.01525,0.09871 0.03037,0.14511zM1.01575,0.99269c0.00315,-0.00321 0.00632,-0.00639 0.00951,-0.00956c0.0226,-0.00546 0.04546,-0.01025 0.06855,-0.01437c0.02045,0.04414 0.04545,0.08575 0.07439,0.12423c0.00014,0.00641 0.00034,0.01281 0.0006,0.0192c-0.05037,-0.01041 -0.0986,-0.02669 -0.14394,-0.04809c-0.00409,-0.02346 -0.00715,-0.04728 -0.00911,-0.0714zM0.51955,1.25004c0.04851,-0.01683 0.09852,-0.03045 0.14977,-0.0406c0.01712,0.0253 0.03556,0.04963 0.05521,0.07291c0.00035,0.03024 0.00205,0.06015 0.00505,0.08969c-0.00467,0.01279 -0.00912,0.02568 -0.01334,0.03868c-0.0051,0.00129 -0.01021,0.00254 -0.01533,0.00375c-0.07941,-0.02038 -0.15378,-0.05331 -0.2209,-0.09653v-0.03059c0.01289,-0.01274 0.02608,-0.02518 0.03955,-0.0373zM0.61743,1.12206c-0.04148,0.0285 -0.08108,0.05952 -0.11859,0.09284c-0.0063,0.00224 -0.01258,0.00452 -0.01883,0.00686v-0.20484c0.03138,0 0.06245,0.00131 0.09316,0.00389c0.01262,0.03485 0.02743,0.06866 0.04427,0.10125zM0.59941,1.18428c0.01225,-0.00921 0.02469,-0.01819 0.03731,-0.02692c0.0031,0.00537 0.00625,0.0107 0.00947,0.01599c-0.01571,0.00333 -0.0313,0.00698 -0.04677,0.01093zM0.55942,0.97965c-0.02624,-0.0018 -0.05273,-0.00272 -0.07942,-0.00272v-0.05629c0.01625,-0.02277 0.03333,-0.04491 0.05122,-0.06635c0.00632,0.0429 0.0158,0.08477 0.02821,0.12536zM0.525,0.80024c-0.01553,0.01744 -0.03054,0.03535 -0.045,0.05372l0,-0.14055c0.01406,-0.0066 0.02827,-0.01293 0.04263,-0.01898c-0.00042,0.0111 -0.00064,0.02226 -0.00064,0.03346c0,0.02436 0.00101,0.04849 0.003,0.07234zM0.52548,0.65001c-0.01532,0.00615 -0.03048,0.01261 -0.04548,0.01937l0,-0.15055c0.00888,-0.01317 0.01807,-0.02612 0.02755,-0.03883h0.0507c-0.0164,0.05458 -0.02753,0.11145 -0.03278,0.17001zM0.77246,1.39464c-0.00076,-0.00581 -0.00146,-0.01164 -0.00211,-0.01749c0.00405,-0.01079 0.00826,-0.0215 0.01263,-0.03213c0.01178,0.01144 0.02389,0.02255 0.03631,0.0333c-0.01542,0.00583 -0.03104,0.01127 -0.04683,0.01632zM1.14211,1.17513c-0.00925,-0.00203 -0.01855,-0.00396 -0.02788,-0.00577c-0.02497,-0.01674 -0.05065,-0.03252 -0.07696,-0.04728c-0.00082,-0.00324 -0.00162,-0.00649 -0.00241,-0.00974c0.04155,0.01745 0.08519,0.03093 0.13043,0.03995c-0.0076,0.00774 -0.01532,0.01536 -0.02318,0.02284zM1.06175,1.20087c0.01237,0.00189 0.02468,0.00397 0.03691,0.00626c0.00152,0.00103 0.00303,0.00207 0.00454,0.00311c-0.00934,0.00798 -0.01884,0.01578 -0.02848,0.02341c-0.00456,-0.0108 -0.00888,-0.02173 -0.01297,-0.03278zM0.6277,0.61427c-0.02037,0.0061 -0.04051,0.01272 -0.0604,0.01985c0.00604,-0.05308 0.01715,-0.10462 0.03283,-0.15412h0.01443c0,0.04595 0.00452,0.09085 0.01314,0.13427zM0.56348,0.67815c0.02403,-0.00905 0.04843,-0.01733 0.07319,-0.0248c0.00264,0.01014 0.00551,0.02019 0.0086,0.03014c-0.02879,0.02414 -0.05637,0.04967 -0.08265,0.07649c-0.00041,-0.01064 -0.00062,-0.02134 -0.00062,-0.03208c0,-0.0167 0.0005,-0.03329 0.00148,-0.04975zM0.71265,1.20174c0.00476,-0.00075 0.00953,-0.00147 0.01431,-0.00216c-0.00047,0.00668 -0.00088,0.01339 -0.00122,0.02011c-0.00444,-0.00592 -0.00881,-0.0119 -0.01309,-0.01794zM0.74042,1.04792c-0.03061,0.01605 -0.06045,0.03337 -0.08944,0.0519c-0.0123,-0.02412 -0.02343,-0.04894 -0.03334,-0.07437c0.04169,0.0052 0.08267,0.01274 0.12278,0.02247zM0.67007,1.1351c0.02285,-0.01468 0.04624,-0.02859 0.07014,-0.04168c-0.00387,0.02151 -0.00705,0.04326 -0.00951,0.06523c-0.01425,0.00194 -0.02841,0.00414 -0.04249,0.00658c-0.00626,-0.0099 -0.0123,-0.01995 -0.01814,-0.03013zM0.75866,1.01121c-0.05076,-0.01274 -0.10286,-0.02209 -0.15607,-0.02777c-0.01776,-0.0542 -0.03002,-0.11089 -0.03613,-0.16941c0.02917,-0.03174 0.06016,-0.06178 0.09282,-0.08994c0.02917,0.07655 0.07167,0.14652 0.12465,0.20709c-0.00951,0.02618 -0.01796,0.05288 -0.02528,0.08003zM0.80008,1.30567c0.01857,-0.04054 0.03953,-0.07975 0.06271,-0.11746c0.00905,-0.00021 0.01812,-0.00032 0.02721,-0.00032c0.043,0 0.08545,0.0024 0.1272,0.00708c0.00736,0.02159 0.01559,0.04278 0.02465,0.06352c-0.05599,0.04048 -0.11651,0.07506 -0.18067,0.10285c-0.02129,-0.01753 -0.04169,-0.03611 -0.0611,-0.05567zM1.00424,1.1534c-0.03759,-0.00364 -0.0757,-0.00551 -0.11424,-0.00551c-0.0004,0 -0.0008,0 -0.00121,0c0.00929,-0.01374 0.01889,-0.02726 0.02878,-0.04055c0.02914,0.01264 0.05763,0.0265 0.0854,0.04153c0.00042,0.00151 0.00084,0.00302 0.00127,0.00453zM0.99048,1.09725c-0.01569,-0.00786 -0.03158,-0.01538 -0.04767,-0.02253c0.00172,-0.00214 0.00345,-0.00427 0.00518,-0.0064c0.01346,0.00807 0.02721,0.01569 0.04125,0.02285c0.00041,0.00203 0.00082,0.00405 0.00124,0.00608zM0.85016,0.99724c-0.01767,0.0071 -0.03513,0.01461 -0.05237,0.02251c0.0051,-0.01877 0.01076,-0.0373 0.01697,-0.05559c0.01141,0.01143 0.02322,0.02247 0.0354,0.03308zM0.85299,1.03931c0.01086,-0.00451 0.02181,-0.00886 0.03284,-0.01305c0.00924,0.00702 0.01867,0.01381 0.02827,0.02036c-0.0032,0.00396 -0.00638,0.00794 -0.00953,0.01194c-0.01699,-0.00682 -0.03418,-0.01324 -0.05157,-0.01925zM0.76746,1.19447c0.01572,-0.0017 0.03153,-0.00307 0.04743,-0.00411c-0.0159,0.02729 -0.0307,0.05531 -0.04434,0.08399c-0.00204,-0.00228 -0.00407,-0.00458 -0.00608,-0.00688c0.00008,-0.02456 0.00109,-0.0489 0.00299,-0.07299zM0.84021,1.14894c-0.02307,0.00097 -0.04597,0.0026 -0.06867,0.00488c0.00347,-0.02841 0.00818,-0.05642 0.01409,-0.084c0.00422,-0.00208 0.00845,-0.00413 0.0127,-0.00615c0.02751,0.0083 0.05456,0.01764 0.08111,0.02799c-0.01364,0.01867 -0.02673,0.03777 -0.03923,0.05728zM1.56115,1.52841c0.00194,-0.00129 0.00389,-0.00257 0.00583,-0.00385c0.01066,-0.00199 0.02137,-0.00384 0.03212,-0.00556c-0.01253,0.00343 -0.02519,0.00657 -0.03795,0.00941zM0.48,2.53v-0.10989c0.00303,0.03711 0.0077,0.07377 0.01392,0.10989z"></path></g></svg>