<svg version="1.1" xmlns="http://www.w3.org/2000/svg" xmlns:xlink="http://www.w3.org/1999/xlink" width="3in" height="3in" viewBox="0 0 3.05 3.05"><g fill="#d3d3d3" fill-rule="evenodd" stroke="#ff0000" stroke-width="0.005" stroke-linecap="butt" stroke-linejoin="miter" stroke-miterlimit="10" stroke-dasharray="" stroke-dashoffset="0" font-family="none" font-weight="none" font-size="none" text-anchor="none" style="mix-blend-mode: normal"><path d="M0,3v-3h3v3zM0.4925,0.4925h0.175v0.175h-0.175zM0.89937,0.48714l0.17786,0.01223l-0.01223,0.17786l-0.17786,-0.01223zM1.30684,0.48204l0.17984,0.02479l-0.02479,0.17984l-0.17984,-0.02479zM1.89575,0.51484l-0.03756,0.18092l-0.18092,-0.03756l0.03699,-0.17819h0.01367zM2.30437,0.52329l-0.05039,0.18108l-0.18108,-0.05039l0.04841,-0.17399l0.02747,0zM2.46898,0.64932l0.05928,-0.16932h0.00174l0,0.19069zM0.48626,0.89805l0.17132,-0.01178l0.01178,0.17132l-0.17132,0.01178zM0.8925,0.8925h0.175v0.175h-0.175zM1.29935,0.88716l0.17785,0.01219l-0.01219,0.17785l-0.17785,-0.01219zM1.70676,0.88209l0.17983,0.02467l-0.02467,0.17983l-0.17983,-0.02467zM2.11468,0.87737l0.1809,0.03731l-0.03731,0.1809l-0.1809,-0.03731zM2.52301,0.87304l0.00699,0.00193l0,0.19487l-0.05696,-0.01572zM0.4807,1.3037l0.16688,-0.02301l0.02301,0.16688l-0.16688,0.02301zM0.88628,1.29803l0.17133,-0.01175l0.01175,0.17133l-0.17133,0.01175zM1.2925,1.2925h0.175v0.175h-0.175zM1.6993,1.28719l0.17784,0.01211l-0.01211,0.17784l-0.17784,-0.01211zM2.10664,1.28217l0.1798,0.02447l-0.02447,0.1798l-0.1798,-0.02447zM2.51444,1.2775l0.01556,0.00318v0.18843l-0.0525,-0.01072zM0.63758,1.6758l0.03358,0.16178l-0.16178,0.03358l-0.02939,-0.14156l0,-0.02109zM0.88075,1.70365l0.16693,-0.0229l0.0229,0.16693l-0.16693,0.0229zM1.28632,1.69799l0.17136,-0.01167l0.01167,0.17136l-0.17136,0.01167zM1.6925,1.6925h0.175v0.175h-0.175zM2.09924,1.68724l0.17781,0.012l-0.012,0.17781l-0.17781,-0.012zM2.50647,1.68228l0.02353,0.00317l0,0.18302l-0.04772,-0.00642zM0.6277,2.07159l0.04344,0.15611l-0.15611,0.04344l-0.03502,-0.12587v-0.03258zM0.87589,2.10928l0.16188,-0.03338l0.03338,0.16188l-0.16188,0.03338zM1.28083,2.10356l0.167,-0.02273l0.02273,0.167l-0.167,0.02273zM1.68638,2.09794l0.17139,-0.01156l0.01156,0.17139l-0.17139,0.01156zM2.0925,2.0925h0.175v0.175h-0.175zM2.49915,2.08731l0.03085,0.00205l0,0.17857l-0.04269,-0.00284zM0.61802,2.46803l0.0217,0.06197h-0.15972l0,-0.01365zM0.87171,2.51484l0.15631,-0.04313l0.01608,0.05829h-0.1682zM1.27603,2.50911l0.16204,-0.03309l0.01102,0.05397l-0.1688,0zM1.68095,2.50343l0.16711,-0.02248l0.0066,0.04905h-0.17013zM2.08645,2.49787l0.17145,-0.01142l0.0029,0.04355l-0.17221,0zM2.4925,2.4925l0.0375,0v0.0375h-0.0375z"></path></g></svg>