<svg version="1.1" xmlns="http://www.w3.org/2000/svg" xmlns:xlink="http://www.w3.org/1999/xlink" width="3in" height="3in" viewBox="0 0 3.05 3.05"><g fill="#d3d3d3" fill-rule="evenodd" stroke="#ff0000" stroke-width="0.005" stroke-linecap="butt" stroke-linejoin="miter" stroke-miterlimit="10" stroke-dasharray="" stroke-dashoffset="0" font-family="none" font-weight="none" font-size="none" text-anchor="none" style="mix-blend-mode: normal"><path d="M0,3v-3h3v3zM0.52,0.52l-0.04,0v-0.04h0.04zM1.44,0.52l0,-0.04h0.04v0.04zM1.56,0.52l0,-0.04h0.04v0.04zM1.68,0.52v-0.04h0.04v0.04zM2.4,0.52l0,-0.04h0.04v0.04zM2.52,0.52l0,-0.04h0.01v0.04zM0.52,0.6v0.04l-0.04,0v-0.04zM1.32,0.64v-0.04h0.04v0.04zM1.44,0.64v-0.04h0.04v0.04zM1.56,0.64v-0.04h0.04v0.04zM1.68,0.64v-0.04h0.04v0.04zM1.8,0.64v-0.04h0.04v0.04zM2.28,0.64v-0.04h0.04v0.04zM2.4,0.64v-0.04h0.04v0.04zM0.52,0.72v0.04h-0.04v-0.04zM0.6,0.76v-0.04h0.04v0.04zM1.32,0.76v-0.04h0.04v0.04zM1.44,0.76v-0.04h0.04v0.04zM1.56,0.76v-0.04h0.04v0.04zM1.68,0.76v-0.04h0.04v0.04zM1.8,0.76v-0.04h0.04v0.04zM1.92,0.76v-0.04h0.04v0.04zM2.04,0.76v-0.04h0.04v0.04zM2.16,0.76v-0.04h0.04v0.04zM2.28,0.76v-0.04h0.04v0.04zM2.4,0.76v-0.04h0.04v0.04zM0.52,0.84v0.04l-0.04,0v-0.04zM0.6,0.88v-0.04h0.04v0.04zM1.68,0.88v-0.04h0.04v0.04zM1.8,0.88v-0.04h0.04v0.04zM1.92,0.88v-0.04h0.04v0.04zM2.04,0.88v-0.04h0.04v0.04zM2.16,0.88v-0.04h0.04v0.04zM2.28,0.88v-0.04h0.04v0.04zM2.4,0.88v-0.04h0.04v0.04zM2.52,0.88v-0.04l0.01,0l0,0.04zM0.52,0.96v0.04h-0.04v-0.04zM0.6,1v-0.04h0.04v0.04zM1.92,1v-0.04h0.04v0.04zM2.04,1v-0.04h0.04v0.04zM2.16,1v-0.04h0.04v0.04zM2.28,1v-0.04h0.04v0.04zM2.4,1v-0.04h0.04v0.04zM2.52,1v-0.04l0.01,0v0.04zM0.52,1.08v0.04h-0.04v-0.04zM0.6,1.12v-0.04h0.04v0.04zM0.72,1.12v-0.04h0.04v0.04zM0.84,1.12v-0.04h0.04v0.04zM0.96,1.12v-0.04h0.04v0.04zM1.08,1.12v-0.04h0.04v0.04zM2.16,1.12v-0.04h0.04v0.04zM2.28,1.12v-0.04h0.04v0.04zM2.4,1.12v-0.04h0.04v0.04zM2.52,1.12v-0.04l0.01,0v0.04zM0.52,1.2v0.04l-0.04,0v-0.04zM0.6,1.24v-0.04h0.04v0.04zM0.72,1.24v-0.04h0.04v0.04zM0.84,1.24v-0.04h0.04v0.04zM0.96,1.24v-0.04h0.04v0.04zM1.08,1.24v-0.04h0.04v0.04zM1.2,1.24v-0.04h0.04v0.04zM1.32,1.24v-0.04h0.04v0.04zM2.16,1.24v-0.04h0.04v0.04zM2.28,1.24v-0.04h0.04v0.04zM2.4,1.24v-0.04h0.04v0.04zM0.52,1.32v0.04h-0.04v-0.04zM0.6,1.36v-0.04h0.04v0.04zM0.72,1.36v-0.04h0.04v0.04zM0.84,1.36v-0.04h0.04v0.04zM0.96,1.36v-0.04h0.04v0.04zM1.08,1.36v-0.04h0.04v0.04zM1.2,1.36v-0.04h0.04v0.04zM1.32,1.36v-0.04h0.04v0.04zM1.44,1.36v-0.04h0.04v0.04zM1.56,1.36v-0.04h0.04v0.04zM2.16,1.36v-0.04h0.04v0.04zM2.28,1.36v-0.04h0.04v0.04zM0.52,1.44v0.04l-0.04,0v-0.04zM0.6,1.48v-0.04h0.04v0.04zM0.72,1.48v-0.04h0.04v0.04zM0.84,1.48v-0.04h0.04v0.04zM0.96,1.48v-0.04h0.04v0.04zM1.2,1.48v-0.04h0.04v0.04zM1.32,1.48v-0.04h0.04v0.04zM1.44,1.48v-0.04h0.04v0.04zM1.56,1.48v-0.04h0.04v0.04zM1.68,1.48v-0.04h0.04v0.04zM1.8,1.48v-0.04h0.04v0.04zM1.92,1.48v-0.04h0.04v0.04zM2.04,1.48v-0.04h0.04v0.04zM2.16,1.48v-0.04h0.04v0.04zM2.28,1.48v-0.04h0.04v0.04zM0.52,1.56v0.04l-0.04,0v-0.04zM0.6,1.6v-0.04h0.04v0.04zM0.72,1.6v-0.04h0.04v0.04zM1.32,1.6v-0.04h0.04v0.04zM1.44,1.6v-0.04h0.04v0.04zM1.56,1.6v-0.04h0.04v0.04zM1.68,1.6v-0.04h0.04v0.04zM1.8,1.6v-0.04h0.04v0.04zM1.92,1.6v-0.04h0.04v0.04zM2.04,1.6v-0.04h0.04v0.04zM2.16,1.6v-0.04h0.04v0.04zM2.28,1.6v-0.04h0.04v0.04zM2.4,1.6v-0.04h0.04v0.04zM0.52,1.68v0.04l-0.04,0l0,-0.04zM0.6,1.72v-0.04h0.04v0.04zM0.72,1.72v-0.04h0.04v0.04zM1.44,1.72v-0.04h0.04v0.04zM1.56,1.72v-0.04h0.04v0.04zM1.68,1.72v-0.04h0.04v0.04zM1.8,1.72v-0.04h0.04v0.04zM1.92,1.72v-0.04h0.04v0.04zM2.04,1.72v-0.04h0.04v0.04zM2.16,1.72v-0.04h0.04v0.04zM2.28,1.72v-0.04h0.04v0.04zM2.4,1.72v-0.04h0.04v0.04zM2.52,1.72v-0.04h0.01v0.04zM0.52,1.8v0.04l-0.04,0v-0.04zM0.6,1.84v-0.04h0.04v0.04zM0.72,1.84v-0.04h0.04v0.04zM1.56,1.84v-0.04h0.04v0.04zM1.68,1.84v-0.04h0.04v0.04zM1.8,1.84v-0.04h0.04v0.04zM1.92,1.84v-0.04h0.04v0.04zM2.28,1.84v-0.04h0.04v0.04zM2.4,1.84v-0.04h0.04v0.04zM2.52,1.84v-0.04l0.01,0v0.04zM0.52,1.92v0.04l-0.04,0l0,-0.04zM0.6,1.96v-0.04h0.04v0.04zM0.72,1.96v-0.04h0.04v0.04zM1.56,1.96v-0.04h0.04v0.04zM1.68,1.96v-0.04h0.04v0.04zM2.4,1.96v-0.04h0.04v0.04zM2.52,1.96v-0.04l0.01,0v0.04zM0.6,2.08v-0.04h0.04v0.04zM0.72,2.08v-0.04h0.04v0.04zM1.08,2.08v-0.04h0.04v0.04zM1.2,2.08v-0.04h0.04v0.04zM1.32,2.08v-0.04h0.04v0.04zM1.44,2.08v-0.04h0.04v0.04zM1.56,2.08v-0.04h0.04v0.04zM1.68,2.08v-0.04h0.04v0.04zM2.4,2.08v-0.04h0.04v0.04zM2.52,2.08v-0.04l0.01,0v0.04zM0.6,2.2v-0.04h0.04v0.04zM0.72,2.2v-0.04h0.04v0.04zM0.96,2.2v-0.04h0.04v0.04zM1.08,2.2v-0.04h0.04v0.04zM1.2,2.2v-0.04h0.04v0.04zM1.32,2.2v-0.04h0.04v0.04zM1.44,2.2v-0.04h0.04v0.04zM1.56,2.2v-0.04h0.04v0.04zM1.68,2.2v-0.04h0.04v0.04zM2.52,2.2v-0.04l0.01,0v0.04zM0.6,2.32v-0.04h0.04v0.04zM0.72,2.32v-0.04h0.04v0.04zM0.84,2.32v-0.04h0.04v0.04zM0.96,2.32v-0.04h0.04v0.04zM1.08,2.32v-0.04h0.04v0.04zM1.2,2.32v-0.04h0.04v0.04zM1.32,2.32v-0.04h0.04v0.04zM1.44,2.32v-0.04h0.04v0.04zM1.56,2.32v-0.04h0.04v0.04zM1.68,2.32v-0.04h0.04v0.04zM2.52,2.32v-0.04h0.01v0.04zM0.6,2.44v-0.04h0.04v0.04zM0.72,2.44v-0.04h0.04v0.04zM0.84,2.44v-0.04h0.04v0.04zM1.44,2.44v-0.04h0.04v0.04zM1.56,2.44v-0.04h0.04v0.04zM1.68,2.44v-0.04h0.04v0.04zM2.52,2.44v-0.04l0.01,0l0,0.04zM0.6,2.52h0.04l0,0.01h-0.04zM0.72,2.52h0.04v0.01h-0.04zM0.84,2.52h0.04l0,0.01h-0.04zM1.44,2.52h0.04l0,0.01h-0.04zM1.56,2.52h0.04l0,0.01l-0.04,0zM1.68,2.52h0.04l0,0.01l-0.04,0zM2.52,2.52l0.01,0v0.01h-0.01z"></path></g></svg>