<svg version="1.1" xmlns="http://www.w3.org/2000/svg" xmlns:xlink="http://www.w3.org/1999/xlink" width="3in" height="3in" viewBox="0 0 3.05 3.05"><g fill="#d3d3d3" fill-rule="evenodd" stroke="#ff0000" stroke-width="0.005" stroke-linecap="butt" stroke-linejoin="miter" stroke-miterlimit="10" stroke-dasharray="" stroke-dashoffset="0" font-family="none" font-weight="none" font-size="none" text-anchor="none" style="mix-blend-mode: normal"><path d="M0,3v-3h3v3zM1.39147,1.57282c0,-0.02211 0.01793,-0.04004 0.04004,-0.04004c0.02211,0 0.04004,0.01793 0.04004,0.04004c0,0.02211 -0.01793,0.04004 -0.04004,0.04004c-0.02211,0 -0.04004,-0.01793 -0.04004,-0.04004zM1.4763,1.36403c0,-0.02211 0.01793,-0.04004 0.04004,-0.04004c0.02211,0 0.04004,0.01793 0.04004,0.04004c0,0.02211 -0.01793,0.04004 -0.04004,0.04004c-0.02211,0 -0.04004,-0.01793 -0.04004,-0.04004zM1.57183,1.6413c0,-0.02211 0.01793,-0.04004 0.04004,-0.04004c0.02211,0 0.04004,0.01793 0.04004,0.04004c0,0.02211 -0.01793,0.04004 -0.04004,0.04004c-0.02211,0 -0.04004,-0.01793 -0.04004,-0.04004zM1.26753,1.47302c0,-0.02211 0.01793,-0.04004 0.04004,-0.04004c0.02211,0 0.04004,0.01793 0.04004,0.04004c0,0.02211 -0.01793,0.04004 -0.04004,0.04004c-0.02211,0 -0.04004,-0.01793 -0.04004,-0.04004zM1.65142,1.38158c0,-0.02211 0.01793,-0.04004 0.04004,-0.04004c0.02211,0 0.04004,0.01793 0.04004,0.04004c0,0.02211 -0.01793,0.04004 -0.04004,0.04004c-0.02211,0 -0.04004,-0.01793 -0.04004,-0.04004zM1.40653,1.74288c0,-0.02211 0.01793,-0.04004 0.04004,-0.04004c0.02211,0 0.04004,0.01793 0.04004,0.04004c0,0.02211 -0.01793,0.04004 -0.04004,0.04004c-0.02211,0 -0.04004,-0.01793 -0.04004,-0.04004zM1.3371,1.27337c0,-0.02211 0.01793,-0.04004 0.04004,-0.04004c0.02211,0 0.04004,0.01793 0.04004,0.04004c0,0.02211 -0.01793,0.04004 -0.04004,0.04004c-0.02211,0 -0.04004,-0.01793 -0.04004,-0.04004zM1.73334,1.59428c0,-0.02211 0.01793,-0.04004 0.04004,-0.04004c0.02211,0 0.04004,0.01793 0.04004,0.04004c0,0.02211 -0.01793,0.04004 -0.04004,0.04004c-0.02211,0 -0.04004,-0.01793 -0.04004,-0.04004zM1.19154,1.62845c0,-0.02211 0.01793,-0.04004 0.04004,-0.04004c0.02211,0 0.04004,0.01793 0.04004,0.04004c0,0.02211 -0.01793,0.04004 -0.04004,0.04004c-0.02211,0 -0.04004,-0.01793 -0.04004,-0.04004zM1.58852,1.21391c0,-0.02211 0.01793,-0.04004 0.04004,-0.04004c0.02211,0 0.04004,0.01793 0.04004,0.04004c0,0.02211 -0.01793,0.04004 -0.04004,0.04004c-0.02211,0 -0.04004,-0.01793 -0.04004,-0.04004zM1.57676,1.81725c0,-0.02211 0.01793,-0.04004 0.04004,-0.04004c0.02211,0 0.04004,0.01793 0.04004,0.04004c0,0.02211 -0.01793,0.04004 -0.04004,0.04004c-0.02211,0 -0.04004,-0.01793 -0.04004,-0.04004zM1.15797,1.34451c0,-0.02211 0.01793,-0.04004 0.04004,-0.04004c0.02211,0 0.04004,0.01793 0.04004,0.04004c0,0.02211 -0.01793,0.04004 -0.04004,0.04004c-0.02211,0 -0.04004,-0.01793 -0.04004,-0.04004zM1.81307,1.41107c0,-0.02211 0.01793,-0.04004 0.04004,-0.04004c0.02211,0 0.04004,0.01793 0.04004,0.04004c0,0.02211 -0.01793,0.04004 -0.04004,0.04004c-0.02211,0 -0.04004,-0.01793 -0.04004,-0.04004zM1.26558,1.82162c0,-0.02211 0.01793,-0.04004 0.04004,-0.04004c0.02211,0 0.04004,0.01793 0.04004,0.04004c0,0.02211 -0.01793,0.04004 -0.04004,0.04004c-0.02211,0 -0.04004,-0.01793 -0.04004,-0.04004zM1.39438,1.12419c0,-0.02211 0.01793,-0.04004 0.04004,-0.04004c0.02211,0 0.04004,0.01793 0.04004,0.04004c0,0.02211 -0.01793,0.04004 -0.04004,0.04004c-0.02211,0 -0.04004,-0.01793 -0.04004,-0.04004zM1.78525,1.74461c0,-0.02211 0.01793,-0.04004 0.04004,-0.04004c0.02211,0 0.04004,0.01793 0.04004,0.04004c0,0.02211 -0.01793,0.04004 -0.04004,0.04004c-0.02211,0 -0.04004,-0.01793 -0.04004,-0.04004zM1.05483,1.54738c0,-0.02211 0.01793,-0.04004 0.04004,-0.04004c0.02211,0 0.04004,0.01793 0.04004,0.04004c0,0.02211 -0.01793,0.04004 -0.04004,0.04004c-0.02211,0 -0.04004,-0.01793 -0.04004,-0.04004zM1.74553,1.18675c0,-0.02211 0.01793,-0.04004 0.04004,-0.04004c0.02211,0 0.04004,0.01793 0.04004,0.04004c0,0.02211 -0.01793,0.04004 -0.04004,0.04004c-0.02211,0 -0.04004,-0.01793 -0.04004,-0.04004zM1.47485,1.94078c0,-0.02211 0.01793,-0.04004 0.04004,-0.04004c0.02211,0 0.04004,0.01793 0.04004,0.04004c0,0.02211 -0.01793,0.04004 -0.04004,0.04004c-0.02211,0 -0.04004,-0.01793 -0.04004,-0.04004zM1.1543,1.1833c0,-0.02211 0.01793,-0.04004 0.04004,-0.04004c0.02211,0 0.04004,0.01793 0.04004,0.04004c0,0.02211 -0.01793,0.04004 -0.04004,0.04004c-0.02211,0 -0.04004,-0.01793 -0.04004,-0.04004zM1.92246,1.53138c0,-0.02211 0.01793,-0.04004 0.04004,-0.04004c0.02211,0 0.04004,0.01793 0.04004,0.04004c0,0.02211 -0.01793,0.04004 -0.04004,0.04004c-0.02211,0 -0.04004,-0.01793 -0.04004,-0.04004zM1.10252,1.80272c0,-0.02211 0.01793,-0.04004 0.04004,-0.04004c0.02211,0 0.04004,0.01793 0.04004,0.04004c0,0.02211 -0.01793,0.04004 -0.04004,0.04004c-0.02211,0 -0.04004,-0.01793 -0.04004,-0.04004zM1.53088,1.02997c0,-0.02211 0.01793,-0.04004 0.04004,-0.04004c0.02211,0 0.04004,0.01793 0.04004,0.04004c0,0.02211 -0.01793,0.04004 -0.04004,0.04004c-0.02211,0 -0.04004,-0.01793 -0.04004,-0.04004zM1.74455,1.90728c0,-0.02211 0.01793,-0.04004 0.04004,-0.04004c0.02211,0 0.04004,0.01793 0.04004,0.04004c0,0.02211 -0.01793,0.04004 -0.04004,0.04004c-0.02211,0 -0.04004,-0.01793 -0.04004,-0.04004zM0.97681,1.39678c0,-0.02211 0.01793,-0.04004 0.04004,-0.04004c0.02211,0 0.04004,0.01793 0.04004,0.04004c0,0.02211 -0.01793,0.04004 -0.04004,0.04004c-0.02211,0 -0.04004,-0.01793 -0.04004,-0.04004zM1.90566,1.24851c0,-0.02211 0.01793,-0.04004 0.04004,-0.04004c0.02211,0 0.04004,0.01793 0.04004,0.04004c0,0.02211 -0.01793,0.04004 -0.04004,0.04004c-0.02211,0 -0.04004,-0.01793 -0.04004,-0.04004zM1.31217,2.00164c0,-0.02211 0.01793,-0.04004 0.04004,-0.04004c0.02211,0 0.04004,0.01793 0.04004,0.04004c0,0.02211 -0.01793,0.04004 -0.04004,0.04004c-0.02211,0 -0.04004,-0.01793 -0.04004,-0.04004zM1.23632,1.0278c0,-0.02211 0.01793,-0.04004 0.04004,-0.04004c0.02211,0 0.04004,0.01793 0.04004,0.04004c0,0.02211 -0.01793,0.04004 -0.04004,0.04004c-0.02211,0 -0.04004,-0.01793 -0.04004,-0.04004zM1.96531,1.70411c0,-0.02211 0.01793,-0.04004 0.04004,-0.04004c0.02211,0 0.04004,0.01793 0.04004,0.04004c0,0.02211 -0.01793,0.04004 -0.04004,0.04004c-0.02211,0 -0.04004,-0.01793 -0.04004,-0.04004zM0.95362,1.70129c0,-0.02211 0.01793,-0.04004 0.04004,-0.04004c0.02211,0 0.04004,0.01793 0.04004,0.04004c0,0.02211 -0.01793,0.04004 -0.04004,0.04004c-0.02211,0 -0.04004,-0.01793 -0.04004,-0.04004zM1.71165,1.00586c0,-0.02211 0.01793,-0.04004 0.04004,-0.04004c0.02211,0 0.04004,0.01793 0.04004,0.04004c0,0.02211 -0.01793,0.04004 -0.04004,0.04004c-0.02211,0 -0.04004,-0.01793 -0.04004,-0.04004zM1.62468,2.04767c0,-0.02211 0.01793,-0.04004 0.04004,-0.04004c0.02211,0 0.04004,0.01793 0.04004,0.04004c0,0.02211 -0.01793,0.04004 -0.04004,0.04004c-0.02211,0 -0.04004,-0.01793 -0.04004,-0.04004zM0.97204,1.20999c0,-0.02211 0.01793,-0.04004 0.04004,-0.04004c0.02211,0 0.04004,0.01793 0.04004,0.04004c0,0.02211 -0.01793,0.04004 -0.04004,0.04004c-0.02211,0 -0.04004,-0.01793 -0.04004,-0.04004zM2.03573,1.38576c0,-0.02211 0.01793,-0.04004 0.04004,-0.04004c0.02211,0 0.04004,0.01793 0.04004,0.04004c0,0.02211 -0.01793,0.04004 -0.04004,0.04004c-0.02211,0 -0.04004,-0.01793 -0.04004,-0.04004zM1.12141,1.98664c0,-0.02211 0.01793,-0.04004 0.04004,-0.04004c0.02211,0 0.04004,0.01793 0.04004,0.04004c0,0.02211 -0.01793,0.04004 -0.04004,0.04004c-0.02211,0 -0.04004,-0.01793 -0.04004,-0.04004zM1.38976,0.90973c0,-0.02211 0.01793,-0.04004 0.04004,-0.04004c0.02211,0 0.04004,0.01793 0.04004,0.04004c0,0.02211 -0.01793,0.04004 -0.04004,0.04004c-0.02211,0 -0.04004,-0.01793 -0.04004,-0.04004zM1.93024,1.89681c0,-0.02211 0.01793,-0.04004 0.04004,-0.04004c0.02211,0 0.04004,0.01793 0.04004,0.04004c0,0.02211 -0.01793,0.04004 -0.04004,0.04004c-0.02211,0 -0.04004,-0.01793 -0.04004,-0.04004zM0.84915,1.53296c0,-0.02211 0.01793,-0.04004 0.04004,-0.04004c0.02211,0 0.04004,0.01793 0.04004,0.04004c0,0.02211 -0.01793,0.04004 -0.04004,0.04004c-0.02211,0 -0.04004,-0.01793 -0.04004,-0.04004zM1.90423,1.06111c0,-0.02211 0.01793,-0.04004 0.04004,-0.04004c0.02211,0 0.04004,0.01793 0.04004,0.04004c0,0.02211 -0.01793,0.04004 -0.04004,0.04004c-0.02211,0 -0.04004,-0.01793 -0.04004,-0.04004zM1.44289,2.13707c0,-0.02211 0.01793,-0.04004 0.04004,-0.04004c0.02211,0 0.04004,0.01793 0.04004,0.04004c0,0.02211 -0.01793,0.04004 -0.04004,0.04004c-0.02211,0 -0.04004,-0.01793 -0.04004,-0.04004zM1.04741,1.01956c0,-0.02211 0.01793,-0.04004 0.04004,-0.04004c0.02211,0 0.04004,0.01793 0.04004,0.04004c0,0.02211 -0.01793,0.04004 -0.04004,0.04004c-0.02211,0 -0.04004,-0.01793 -0.04004,-0.04004zM2.10874,1.57949c0,-0.02211 0.01793,-0.04004 0.04004,-0.04004c0.02211,0 0.04004,0.01793 0.04004,0.04004c0,0.02211 -0.01793,0.04004 -0.04004,0.04004c-0.02211,0 -0.04004,-0.01793 -0.04004,-0.04004zM0.93513,1.89136c0,-0.02211 0.01793,-0.04004 0.04004,-0.04004c0.02211,0 0.04004,0.01793 0.04004,0.04004c0,0.02211 -0.01793,0.04004 -0.04004,0.04004c-0.02211,0 -0.04004,-0.01793 -0.04004,-0.04004zM1.5938,0.85431c0,-0.02211 0.01793,-0.04004 0.04004,-0.04004c0.02211,0 0.04004,0.01793 0.04004,0.04004c0,0.02211 -0.01793,0.04004 -0.04004,0.04004c-0.02211,0 -0.04004,-0.01793 -0.04004,-0.04004zM1.81546,2.07697c0,-0.02211 0.01793,-0.04004 0.04004,-0.04004c0.02211,0 0.04004,0.01793 0.04004,0.04004c0,0.02211 -0.01793,0.04004 -0.04004,0.04004c-0.02211,0 -0.04004,-0.01793 -0.04004,-0.04004zM0.81235,1.32033c0,-0.02211 0.01793,-0.04004 0.04004,-0.04004c0.02211,0 0.04004,0.01793 0.04004,0.04004c0,0.02211 -0.01793,0.04004 -0.04004,0.04004c-0.02211,0 -0.04004,-0.01793 -0.04004,-0.04004zM2.07635,1.19483c0,-0.02211 0.01793,-0.04004 0.04004,-0.04004c0.02211,0 0.04004,0.01793 0.04004,0.04004c0,0.02211 -0.01793,0.04004 -0.04004,0.04004c-0.02211,0 -0.04004,-0.01793 -0.04004,-0.04004zM1.22346,2.15437c0,-0.02211 0.01793,-0.04004 0.04004,-0.04004c0.02211,0 0.04004,0.01793 0.04004,0.04004c0,0.02211 -0.01793,0.04004 -0.04004,0.04004c-0.02211,0 -0.04004,-0.01793 -0.04004,-0.04004zM1.19934,0.85735c0,-0.02211 0.01793,-0.04004 0.04004,-0.04004c0.02211,0 0.04004,0.01793 0.04004,0.04004c0,0.02211 -0.01793,0.04004 -0.04004,0.04004c-0.02211,0 -0.04004,-0.01793 -0.04004,-0.04004zM2.10582,1.80384c0,-0.02211 0.01793,-0.04004 0.04004,-0.04004c0.02211,0 0.04004,0.01793 0.04004,0.04004c0,0.02211 -0.01793,0.04004 -0.04004,0.04004c-0.02211,0 -0.04004,-0.01793 -0.04004,-0.04004zM0.78462,1.72212c0,-0.02211 0.01793,-0.04004 0.04004,-0.04004c0.02211,0 0.04004,0.01793 0.04004,0.04004c0,0.02211 -0.01793,0.04004 -0.04004,0.04004c-0.02211,0 -0.04004,-0.01793 -0.04004,-0.04004zM1.82115,0.878c0,-0.02211 0.01793,-0.04004 0.04004,-0.04004c0.02211,0 0.04004,0.01793 0.04004,0.04004c0,0.02211 -0.01793,0.04004 -0.04004,0.04004c-0.02211,0 -0.04004,-0.01793 -0.04004,-0.04004zM1.62996,2.21407c0,-0.02211 0.01793,-0.04004 0.04004,-0.04004c0.02211,0 0.04004,0.01793 0.04004,0.04004c0,0.02211 -0.01793,0.04004 -0.04004,0.04004c-0.02211,0 -0.04004,-0.01793 -0.04004,-0.04004zM0.85718,1.09195c0,-0.02211 0.01793,-0.04004 0.04004,-0.04004c0.02211,0 0.04004,0.01793 0.04004,0.04004c0,0.02211 -0.01793,0.04004 -0.04004,0.04004c-0.02211,0 -0.04004,-0.01793 -0.04004,-0.04004zM2.19843,1.39538c0,-0.02211 0.01793,-0.04004 0.04004,-0.04004c0.02211,0 0.04004,0.01793 0.04004,0.04004c0,0.02211 -0.01793,0.04004 -0.04004,0.04004c-0.02211,0 -0.04004,-0.01793 -0.04004,-0.04004zM0.99605,2.0882c0,-0.02211 0.01793,-0.04004 0.04004,-0.04004c0.02211,0 0.04004,0.01793 0.04004,0.04004c0,0.02211 -0.01793,0.04004 -0.04004,0.04004c-0.02211,0 -0.04004,-0.01793 -0.04004,-0.04004zM1.41361,0.75176c0,-0.02211 0.01793,-0.04004 0.04004,-0.04004c0.02211,0 0.04004,0.01793 0.04004,0.04004c0,0.02211 -0.01793,0.04004 -0.04004,0.04004c-0.02211,0 -0.04004,-0.01793 -0.04004,-0.04004zM2.0183,2.02827c0,-0.02211 0.01793,-0.04004 0.04004,-0.04004c0.02211,0 0.04004,0.01793 0.04004,0.04004c0,0.02211 -0.01793,0.04004 -0.04004,0.04004c-0.02211,0 -0.04004,-0.01793 -0.04004,-0.04004zM0.6969,1.49562c0,-0.02211 0.01793,-0.04004 0.04004,-0.04004c0.02211,0 0.04004,0.01793 0.04004,0.04004c0,0.02211 -0.01793,0.04004 -0.04004,0.04004c-0.02211,0 -0.04004,-0.01793 -0.04004,-0.04004zM2.0406,0.98669c0,-0.02211 0.01793,-0.04004 0.04004,-0.04004c0.02211,0 0.04004,0.01793 0.04004,0.04004c0,0.02211 -0.01793,0.04004 -0.04004,0.04004c-0.02211,0 -0.04004,-0.01793 -0.04004,-0.04004zM1.39282,2.28269c0,-0.02211 0.01793,-0.04004 0.04004,-0.04004c0.02211,0 0.04004,0.01793 0.04004,0.04004c0,0.02211 -0.01793,0.04004 -0.04004,0.04004c-0.02211,0 -0.04004,-0.01793 -0.04004,-0.04004zM0.98671,0.87948c0,-0.02211 0.01793,-0.04004 0.04004,-0.04004c0.02211,0 0.04004,0.01793 0.04004,0.04004c0,0.02211 -0.01793,0.04004 -0.04004,0.04004c-0.02211,0 -0.04004,-0.01793 -0.04004,-0.04004zM2.24687,1.64146c0,-0.02211 0.01793,-0.04004 0.04004,-0.04004c0.02211,0 0.04004,0.01793 0.04004,0.04004c0,0.02211 -0.01793,0.04004 -0.04004,0.04004c-0.02211,0 -0.04004,-0.01793 -0.04004,-0.04004zM0.79251,1.93837c0,-0.02211 0.01793,-0.04004 0.04004,-0.04004c0.02211,0 0.04004,0.01793 0.04004,0.04004c0,0.02211 -0.01793,0.04004 -0.04004,0.04004c-0.02211,0 -0.04004,-0.01793 -0.04004,-0.04004zM1.66682,0.72445c0,-0.02211 0.01793,-0.04004 0.04004,-0.04004c0.02211,0 0.04004,0.01793 0.04004,0.04004c0,0.02211 -0.01793,0.04004 -0.04004,0.04004c-0.02211,0 -0.04004,-0.01793 -0.04004,-0.04004zM1.84886,2.22097c0,-0.02211 0.01793,-0.04004 0.04004,-0.04004c0.02211,0 0.04004,0.01793 0.04004,0.04004c0,0.02211 -0.01793,0.04004 -0.04004,0.04004c-0.02211,0 -0.04004,-0.01793 -0.04004,-0.04004zM0.69149,1.23716c0,-0.02211 0.01793,-0.04004 0.04004,-0.04004c0.02211,0 0.04004,0.01793 0.04004,0.04004c0,0.02211 -0.01793,0.04004 -0.04004,0.04004c-0.02211,0 -0.04004,-0.01793 -0.04004,-0.04004zM2.22061,1.17486c0,-0.02211 0.01793,-0.04004 0.04004,-0.04004c0.02211,0 0.04004,0.01793 0.04004,0.04004c0,0.02211 -0.01793,0.04004 -0.04004,0.04004c-0.02211,0 -0.04004,-0.01793 -0.04004,-0.04004zM1.13108,2.26561c0,-0.02211 0.01793,-0.04004 0.04004,-0.04004c0.02211,0 0.04004,0.01793 0.04004,0.04004c0,0.02211 -0.01793,0.04004 -0.04004,0.04004c-0.02211,0 -0.04004,-0.01793 -0.04004,-0.04004zM1.19257,0.71392c0,-0.02211 0.01793,-0.04004 0.04004,-0.04004c0.02211,0 0.04004,0.01793 0.04004,0.04004c0,0.02211 -0.01793,0.04004 -0.04004,0.04004c-0.02211,0 -0.04004,-0.01793 -0.04004,-0.04004zM2.20686,1.90447c0,-0.02211 0.01793,-0.04004 0.04004,-0.04004c0.02211,0 0.04004,0.01793 0.04004,0.04004c0,0.02211 -0.01793,0.04004 -0.04004,0.04004c-0.02211,0 -0.04004,-0.01793 -0.04004,-0.04004zM0.64309,1.71602c0,-0.02211 0.01793,-0.04004 0.04004,-0.04004c0.02211,0 0.04004,0.01793 0.04004,0.04004c0,0.02211 -0.01793,0.04004 -0.04004,0.04004c-0.02211,0 -0.04004,-0.01793 -0.04004,-0.04004zM1.92905,0.78763c0,-0.02211 0.01793,-0.04004 0.04004,-0.04004c0.02211,0 0.04004,0.01793 0.04004,0.04004c0,0.02211 -0.01793,0.04004 -0.04004,0.04004c-0.02211,0 -0.04004,-0.01793 -0.04004,-0.04004zM1.61138,2.35268c0,-0.02211 0.01793,-0.04004 0.04004,-0.04004c0.02211,0 0.04004,0.01793 0.04004,0.04004c0,0.02211 -0.01793,0.04004 -0.04004,0.04004c-0.02211,0 -0.04004,-0.01793 -0.04004,-0.04004zM0.7779,0.9778c0,-0.02211 0.01793,-0.04004 0.04004,-0.04004c0.02211,0 0.04004,0.01793 0.04004,0.04004c0,0.02211 -0.01793,0.04004 -0.04004,0.04004c-0.02211,0 -0.04004,-0.01793 -0.04004,-0.04004zM2.33315,1.42599c0,-0.02211 0.01793,-0.04004 0.04004,-0.04004c0.02211,0 0.04004,0.01793 0.04004,0.04004c0,0.02211 -0.01793,0.04004 -0.04004,0.04004c-0.02211,0 -0.04004,-0.01793 -0.04004,-0.04004zM0.87666,2.15608c0,-0.02211 0.01793,-0.04004 0.04004,-0.04004c0.02211,0 0.04004,0.01793 0.04004,0.04004c0,0.02211 -0.01793,0.04004 -0.04004,0.04004c-0.02211,0 -0.04004,-0.01793 -0.04004,-0.04004zM1.45571,0.62187c0,-0.02211 0.01793,-0.04004 0.04004,-0.04004c0.02211,0 0.04004,0.01793 0.04004,0.04004c0,0.02211 -0.01793,0.04004 -0.04004,0.04004c-0.02211,0 -0.04004,-0.01793 -0.04004,-0.04004zM2.07453,2.15186c0,-0.02211 0.01793,-0.04004 0.04004,-0.04004c0.02211,0 0.04004,0.01793 0.04004,0.04004c0,0.02211 -0.01793,0.04004 -0.04004,0.04004c-0.02211,0 -0.04004,-0.01793 -0.04004,-0.04004zM0.57271,1.44261c0,-0.02211 0.01793,-0.04004 0.04004,-0.04004c0.02211,0 0.04004,0.01793 0.04004,0.04004c0,0.02211 -0.01793,0.04004 -0.04004,0.04004c-0.02211,0 -0.04004,-0.01793 -0.04004,-0.04004zM2.16735,0.94228c0,-0.02211 0.01793,-0.04004 0.04004,-0.04004c0.02211,0 0.04004,0.01793 0.04004,0.04004c0,0.02211 -0.01793,0.04004 -0.04004,0.04004c-0.02211,0 -0.04004,-0.01793 -0.04004,-0.04004zM1.32955,2.40036c0,-0.02211 0.01793,-0.04004 0.04004,-0.04004c0.02211,0 0.04004,0.01793 0.04004,0.04004c0,0.02211 -0.01793,0.04004 -0.04004,0.04004c-0.02211,0 -0.04004,-0.01793 -0.04004,-0.04004zM0.95419,0.7506c0,-0.02211 0.01793,-0.04004 0.04004,-0.04004c0.02211,0 0.04004,0.01793 0.04004,0.04004c0,0.02211 -0.01793,0.04004 -0.04004,0.04004c-0.02211,0 -0.04004,-0.01793 -0.04004,-0.04004zM2.35726,1.71429c0,-0.02211 0.01793,-0.04004 0.04004,-0.04004c0.02211,0 0.04004,0.01793 0.04004,0.04004c0,0.02211 -0.01793,0.04004 -0.04004,0.04004c-0.02211,0 -0.04004,-0.01793 -0.04004,-0.04004zM0.66253,1.95899c0,-0.02211 0.01793,-0.04004 0.04004,-0.04004c0.02211,0 0.04004,0.01793 0.04004,0.04004c0,0.02211 -0.01793,0.04004 -0.04004,0.04004c-0.02211,0 -0.04004,-0.01793 -0.04004,-0.04004zM1.74845,0.62203c0,-0.02211 0.01793,-0.04004 0.04004,-0.04004c0.02211,0 0.04004,0.01793 0.04004,0.04004c0,0.02211 -0.01793,0.04004 -0.04004,0.04004c-0.02211,0 -0.04004,-0.01793 -0.04004,-0.04004zM1.85768,2.35103c0,-0.02211 0.01793,-0.04004 0.04004,-0.04004c0.02211,0 0.04004,0.01793 0.04004,0.04004c0,0.02211 -0.01793,0.04004 -0.04004,0.04004c-0.02211,0 -0.04004,-0.01793 -0.04004,-0.04004zM0.59766,1.14752c0,-0.02211 0.01793,-0.04004 0.04004,-0.04004c0.02211,0 0.04004,0.01793 0.04004,0.04004c0,0.02211 -0.01793,0.04004 -0.04004,0.04004c-0.02211,0 -0.04004,-0.01793 -0.04004,-0.04004zM2.34976,1.1777c0,-0.02211 0.01793,-0.04004 0.04004,-0.04004c0.02211,0 0.04004,0.01793 0.04004,0.04004c0,0.02211 -0.01793,0.04004 -0.04004,0.04004c-0.02211,0 -0.04004,-0.01793 -0.04004,-0.04004zM1.03427,2.35028c0,-0.02211 0.01793,-0.04004 0.04004,-0.04004c0.02211,0 0.04004,0.01793 0.04004,0.04004c0,0.02211 -0.01793,0.04004 -0.04004,0.04004c-0.02211,0 -0.04004,-0.01793 -0.04004,-0.04004zM1.20682,0.58665c0,-0.02211 0.01793,-0.04004 0.04004,-0.04004c0.02211,0 0.04004,0.01793 0.04004,0.04004c0,0.02211 -0.01793,0.04004 -0.04004,0.04004c-0.02211,0 -0.04004,-0.01793 -0.04004,-0.04004zM2.28191,2.00759c0,-0.02211 0.01793,-0.04004 0.04004,-0.04004c0.02211,0 0.04004,0.01793 0.04004,0.04004c0,0.02211 -0.01793,0.04004 -0.04004,0.04004c-0.02211,0 -0.04004,-0.01793 -0.04004,-0.04004zM0.51864,1.69066c0,-0.02211 0.01793,-0.04004 0.04004,-0.04004c0.02211,0 0.04004,0.01793 0.04004,0.04004c0,0.02211 -0.01793,0.04004 -0.04004,0.04004c-0.02211,0 -0.04004,-0.01793 -0.04004,-0.04004zM2.03757,0.72262c0,-0.02211 0.01793,-0.04004 0.04004,-0.04004c0.02211,0 0.04004,0.01793 0.04004,0.04004c0,0.02211 -0.01793,0.04004 -0.04004,0.04004c-0.02211,0 -0.04004,-0.01793 -0.04004,-0.04004zM1.5753,2.47341c0,-0.02211 0.01793,-0.04004 0.04004,-0.04004c0.02211,0 0.04004,0.01793 0.04004,0.04004c0,0.02211 -0.01793,0.04004 -0.04004,0.04004c-0.02211,0 -0.04004,-0.01793 -0.04004,-0.04004zM0.72326,0.86478c0,-0.02211 0.01793,-0.04004 0.04004,-0.04004c0.02211,0 0.04004,0.01793 0.04004,0.04004c0,0.02211 -0.01793,0.04004 -0.04004,0.04004c-0.02211,0 -0.04004,-0.01793 -0.04004,-0.04004zM2.4493,1.47235c0,-0.02211 0.01793,-0.04004 0.04004,-0.04004c0.02211,0 0.04004,0.01793 0.04004,0.04004c0,0.02211 -0.01793,0.04004 -0.04004,0.04004c-0.02211,0 -0.04004,-0.01793 -0.04004,-0.04004zM0.76009,2.2001c0,-0.02211 0.01793,-0.04004 0.04004,-0.04004c0.02211,0 0.04004,0.01793 0.04004,0.04004c0,0.02211 -0.01793,0.04004 -0.04004,0.04004c-0.02211,0 -0.04004,-0.01793 -0.04004,-0.04004zM1.51183,0.51112c0,-0.01256 0.00579,-0.02378 0.01484,-0.03112l0.0504,0c0.00905,0.00734 0.01484,0.01855 0.01484,0.03112c0,0.02211 -0.01793,0.04004 -0.04004,0.04004c-0.02211,0 -0.04004,-0.01793 -0.04004,-0.04004zM2.10775,2.27104c0,-0.02211 0.01793,-0.04004 0.04004,-0.04004c0.02211,0 0.04004,0.01793 0.04004,0.04004c0,0.02211 -0.01793,0.04004 -0.04004,0.04004c-0.02211,0 -0.04004,-0.01793 -0.04004,-0.04004zM0.50816,1.33726c0.02211,0 0.04004,0.01793 0.04004,0.04004c0,0.02211 -0.01793,0.04004 -0.04004,0.04004c-0.01098,0 -0.02093,-0.00442 -0.02816,-0.01157l0,-0.05693c0.00723,-0.00716 0.01718,-0.01157 0.02816,-0.01157zM2.2882,0.91995c0,-0.02211 0.01793,-0.04004 0.04004,-0.04004c0.02211,0 0.04004,0.01793 0.04004,0.04004c0,0.02211 -0.01793,0.04004 -0.04004,0.04004c-0.02211,0 -0.04004,-0.01793 -0.04004,-0.04004zM1.25569,2.49808c0,-0.02211 0.01793,-0.04004 0.04004,-0.04004c0.02211,0 0.04004,0.01793 0.04004,0.04004c0,0.01303 -0.00623,0.02461 -0.01587,0.03192h-0.04835c-0.00964,-0.00731 -0.01587,-0.01889 -0.01587,-0.03192zM0.94278,0.62903c0,-0.02211 0.01793,-0.04004 0.04004,-0.04004c0.02211,0 0.04004,0.01793 0.04004,0.04004c0,0.02211 -0.01793,0.04004 -0.04004,0.04004c-0.02211,0 -0.04004,-0.01793 -0.04004,-0.04004zM2.44746,1.79603c0,-0.02211 0.01793,-0.04004 0.04004,-0.04004c0.02211,0 0.04004,0.01793 0.04004,0.04004c0,0.02211 -0.01793,0.04004 -0.04004,0.04004c-0.02211,0 -0.04004,-0.01793 -0.04004,-0.04004zM0.54118,1.95956c0,-0.02211 0.01793,-0.04004 0.04004,-0.04004c0.02211,0 0.04004,0.01793 0.04004,0.04004c0,0.02211 -0.01793,0.04004 -0.04004,0.04004c-0.02211,0 -0.04004,-0.01793 -0.04004,-0.04004zM1.83734,0.53995c0,-0.02211 0.01793,-0.04004 0.04004,-0.04004c0.02211,0 0.04004,0.01793 0.04004,0.04004c0,0.02211 -0.01793,0.04004 -0.04004,0.04004c-0.02211,0 -0.04004,-0.01793 -0.04004,-0.04004zM1.84753,2.47125c0,-0.02211 0.01793,-0.04004 0.04004,-0.04004c0.02211,0 0.04004,0.01793 0.04004,0.04004c0,0.02211 -0.01793,0.04004 -0.04004,0.04004c-0.02211,0 -0.04004,-0.01793 -0.04004,-0.04004zM0.52421,1.05225c0,-0.02211 0.01793,-0.04004 0.04004,-0.04004c0.02211,0 0.04004,0.01793 0.04004,0.04004c0,0.02211 -0.01793,0.04004 -0.04004,0.04004c-0.02211,0 -0.04004,-0.01793 -0.04004,-0.04004zM2.46794,1.19836c0,-0.02211 0.01793,-0.04004 0.04004,-0.04004c0.00813,0 0.0157,0.00243 0.02202,0.00659l0,0.06689c-0.00632,0.00417 -0.01388,0.00659 -0.02202,0.00659c-0.02211,0 -0.04004,-0.01793 -0.04004,-0.04004zM0.93341,2.41464c0,-0.02211 0.01793,-0.04004 0.04004,-0.04004c0.02211,0 0.04004,0.01793 0.04004,0.04004c0,0.02211 -0.01793,0.04004 -0.04004,0.04004c-0.02211,0 -0.04004,-0.01793 -0.04004,-0.04004zM1.27775,0.51143c-0.01916,0 -0.03517,-0.01345 -0.03911,-0.03143h0.07822c-0.00394,0.01797 -0.01995,0.03143 -0.03911,0.03143zM2.33679,2.1132c0,-0.02211 0.01793,-0.04004 0.04004,-0.04004c0.02211,0 0.04004,0.01793 0.04004,0.04004c0,0.02211 -0.01793,0.04004 -0.04004,0.04004c-0.02211,0 -0.04004,-0.01793 -0.04004,-0.04004zM0.48721,1.6499c0,0.00853 -0.00267,0.01643 -0.00721,0.02293l0,-0.04586c0.00454,0.00649 0.00721,0.0144 0.00721,0.02293zM2.14708,0.67752c0,-0.02211 0.01793,-0.04004 0.04004,-0.04004c0.02211,0 0.04004,0.01793 0.04004,0.04004c0,0.02211 -0.01793,0.04004 -0.04004,0.04004c-0.02211,0 -0.04004,-0.01793 -0.04004,-0.04004zM0.68819,0.75226c0,-0.02211 0.01793,-0.04004 0.04004,-0.04004c0.02211,0 0.04004,0.01793 0.04004,0.04004c0,0.02211 -0.01793,0.04004 -0.04004,0.04004c-0.02211,0 -0.04004,-0.01793 -0.04004,-0.04004zM0.64543,2.22498c0,-0.02211 0.01793,-0.04004 0.04004,-0.04004c0.02211,0 0.04004,0.01793 0.04004,0.04004c0,0.02211 -0.01793,0.04004 -0.04004,0.04004c-0.02211,0 -0.04004,-0.01793 -0.04004,-0.04004zM2.12235,2.38695c0,-0.02211 0.01793,-0.04004 0.04004,-0.04004c0.02211,0 0.04004,0.01793 0.04004,0.04004c0,0.02211 -0.01793,0.04004 -0.04004,0.04004c-0.02211,0 -0.04004,-0.01793 -0.04004,-0.04004zM2.40446,0.91565c0,-0.02211 0.01793,-0.04004 0.04004,-0.04004c0.02211,0 0.04004,0.01793 0.04004,0.04004c0,0.02211 -0.01793,0.04004 -0.04004,0.04004c-0.02211,0 -0.04004,-0.01793 -0.04004,-0.04004zM0.94871,0.51329c0,-0.01388 0.00706,-0.02611 0.01779,-0.03329h0.04451c0.01073,0.00718 0.01779,0.01941 0.01779,0.03329c0,0.02211 -0.01793,0.04004 -0.04004,0.04004c-0.02211,0 -0.04004,-0.01793 -0.04004,-0.04004zM2.5211,1.88523c0,-0.00954 0.00334,-0.0183 0.0089,-0.02518v0.05035c-0.00557,-0.00688 -0.0089,-0.01564 -0.0089,-0.02518zM0.50692,1.94352c0,0.01752 -0.01125,0.03241 -0.02692,0.03784l0,-0.07568c0.01567,0.00543 0.02692,0.02032 0.02692,0.03784zM1.97237,0.51472c-0.02031,0 -0.03709,-0.01512 -0.03969,-0.03472h0.07938c-0.0026,0.0196 -0.01938,0.03472 -0.03969,0.03472zM0.50778,0.91219c0.02211,0 0.04004,0.01793 0.04004,0.04004c0,0.02211 -0.01793,0.04004 -0.04004,0.04004c-0.01079,0 -0.02058,-0.00427 -0.02778,-0.0112l0,-0.05767c0.0072,-0.00694 0.01699,-0.0112 0.02778,-0.0112zM0.82916,2.46195c0,-0.02211 0.01793,-0.04004 0.04004,-0.04004c0.02211,0 0.04004,0.01793 0.04004,0.04004c0,0.02211 -0.01793,0.04004 -0.04004,0.04004c-0.02211,0 -0.04004,-0.01793 -0.04004,-0.04004zM2.37466,2.22086c0,-0.02211 0.01793,-0.04004 0.04004,-0.04004c0.02211,0 0.04004,0.01793 0.04004,0.04004c0,0.02211 -0.01793,0.04004 -0.04004,0.04004c-0.02211,0 -0.04004,-0.01793 -0.04004,-0.04004zM2.25732,0.64933c0,-0.02211 0.01793,-0.04004 0.04004,-0.04004c0.02211,0 0.04004,0.01793 0.04004,0.04004c0,0.02211 -0.01793,0.04004 -0.04004,0.04004c-0.02211,0 -0.04004,-0.01793 -0.04004,-0.04004zM0.66981,0.64028c0,-0.02211 0.01793,-0.04004 0.04004,-0.04004c0.02211,0 0.04004,0.01793 0.04004,0.04004c0,0.02211 -0.01793,0.04004 -0.04004,0.04004c-0.02211,0 -0.04004,-0.01793 -0.04004,-0.04004zM0.53257,2.23346c0,-0.02211 0.01793,-0.04004 0.04004,-0.04004c0.02211,0 0.04004,0.01793 0.04004,0.04004c0,0.02211 -0.01793,0.04004 -0.04004,0.04004c-0.02211,0 -0.04004,-0.01793 -0.04004,-0.04004zM2.12093,2.49984c0,-0.02211 0.01793,-0.04004 0.04004,-0.04004c0.02211,0 0.04004,0.01793 0.04004,0.04004c0,0.01203 -0.00531,0.02282 -0.01371,0.03016h-0.05266c-0.0084,-0.00734 -0.01371,-0.01813 -0.01371,-0.03016zM2.51653,0.9269c0,-0.01192 0.00521,-0.02262 0.01347,-0.02996l0,0.05991c-0.00826,-0.00733 -0.01347,-0.01804 -0.01347,-0.02996zM0.50636,0.84838c0,0.01731 -0.01099,0.03206 -0.02636,0.03764l0,-0.07529c0.01538,0.00559 0.02636,0.02033 0.02636,0.03764zM0.72228,2.49416c0,-0.02211 0.01793,-0.04004 0.04004,-0.04004c0.02211,0 0.04004,0.01793 0.04004,0.04004c0,0.01569 -0.00903,0.02928 -0.02218,0.03584l-0.03572,0c-0.01315,-0.00656 -0.02218,-0.02015 -0.02218,-0.03584zM2.3974,2.32996c0,-0.02211 0.01793,-0.04004 0.04004,-0.04004c0.02211,0 0.04004,0.01793 0.04004,0.04004c0,0.02211 -0.01793,0.04004 -0.04004,0.04004c-0.02211,0 -0.04004,-0.01793 -0.04004,-0.04004zM2.36781,0.63617c0,-0.02211 0.01793,-0.04004 0.04004,-0.04004c0.02211,0 0.04004,0.01793 0.04004,0.04004c0,0.02211 -0.01793,0.04004 -0.04004,0.04004c-0.02211,0 -0.04004,-0.01793 -0.04004,-0.04004zM0.6663,0.52922c0,-0.02211 0.01793,-0.04004 0.04004,-0.04004c0.02211,0 0.04004,0.01793 0.04004,0.04004c0,0.02211 -0.01793,0.04004 -0.04004,0.04004c-0.02211,0 -0.04004,-0.01793 -0.04004,-0.04004zM0.50186,2.22733c0,0.01557 -0.00888,0.02906 -0.02186,0.03568l0,-0.07136c0.01297,0.00662 0.02186,0.02012 0.02186,0.03568zM0.61354,2.51252c0,-0.02211 0.01793,-0.04004 0.04004,-0.04004c0.02211,0 0.04004,0.01793 0.04004,0.04004c0,0.00627 -0.00144,0.0122 -0.00401,0.01748h-0.07206c-0.00257,-0.00528 -0.00401,-0.01122 -0.00401,-0.01748zM2.40631,2.4398c0,-0.02211 0.01793,-0.04004 0.04004,-0.04004c0.02211,0 0.04004,0.01793 0.04004,0.04004c0,0.02211 -0.01793,0.04004 -0.04004,0.04004c-0.02211,0 -0.04004,-0.01793 -0.04004,-0.04004zM2.47795,0.63676c0,-0.02211 0.01793,-0.04004 0.04004,-0.04004c0.00418,0 0.00822,0.00064 0.01201,0.00183l0,0.07642c-0.00379,0.00119 -0.00782,0.00183 -0.01201,0.00183c-0.02211,0 -0.04004,-0.01793 -0.04004,-0.04004zM0.50373,2.51793c0,-0.02211 0.01793,-0.04004 0.04004,-0.04004c0.02211,0 0.04004,0.01793 0.04004,0.04004c0,0.00421 -0.00065,0.00826 -0.00185,0.01207h-0.07638c-0.0012,-0.00381 -0.00185,-0.00786 -0.00185,-0.01207zM2.44235,2.50965c0.01496,0 0.028,0.0082 0.03487,0.02035l-0.06974,0c0.00688,-0.01215 0.01992,-0.02035 0.03487,-0.02035z"></path></g></svg>