<svg version="1.1" xmlns="http://www.w3.org/2000/svg" xmlns:xlink="http://www.w3.org/1999/xlink" width="3in" height="3in" viewBox="0 0 3.05 3.05"><g fill="#d3d3d3" fill-rule="evenodd" stroke="#ff0000" stroke-width="0.005" stroke-linecap="butt" stroke-linejoin="miter" stroke-miterlimit="10" stroke-dasharray="" stroke-dashoffset="0" font-family="none" font-weight="none" font-size="none" text-anchor="none" style="mix-blend-mode: normal"><path d="M0,3v-3h3v3zM1.06097,1.35138c0.03451,0.01431 0.07903,0.06462 0.08903,0.10062l0.01544,0.05558c0.00728,0.02621 0.00656,0.07842 -0.00144,0.10442l-0.008,0.026c-0.008,0.026 -0.041,0.06272 -0.06601,0.07343l-0.0561,0.02404c-0.01695,0.00726 -0.0479,0.00253 -0.0619,-0.00947l-0.014,-0.012c-0.014,-0.012 -0.03715,-0.04001 -0.0463,-0.05602l-0.20839,-0.36468c-0.00666,-0.01165 -0.00731,-0.0353 -0.00131,-0.0473l0.006,-0.012c0.006,-0.012 0.02439,-0.01886 0.03679,-0.01372zM0.534,1.024c0.018,0.018 0.02597,0.0594 0.01594,0.0828l-0.03522,0.08218c-0.00236,0.00551 -0.01073,0.01103 -0.01673,0.01103h-0.006c-0.006,0 -0.012,-0.006 -0.012,-0.012v-0.16709c0,-0.02546 0.018,-0.03291 0.036,-0.01491zM2.43,1.10472c0,0.06264 -0.06,0.14328 -0.12,0.16128l-0.06,0.018c-0.06,0.018 -0.10101,-0.02369 -0.08201,-0.08339l0.16051,-0.50445c0.00575,-0.01808 0.02951,-0.04216 0.04751,-0.04816l0.018,-0.006c0.018,-0.006 0.036,0.00697 0.036,0.02595zM1.9554,1.44671c0.0023,0.00164 0.0066,0.00529 0.0086,0.00729l0.002,0.002c0.002,0.002 0.00347,0.00678 0.00294,0.00956l-0.02771,0.1455c-0.00561,0.02947 -0.02923,0.08294 -0.04723,0.10694l-0.04108,0.05477c-0.00646,0.00862 -0.02292,0.02123 -0.03292,0.02523l-0.01,0.004c-0.01,0.004 -0.03056,0.01011 -0.04112,0.01222l-0.03888,0.00778c-0.02,0.004 -0.05905,0.00072 -0.0781,-0.00657l-0.2747,-0.10503c-0.0136,-0.0052 -0.0232,-0.0244 -0.0192,-0.0384l0.004,-0.014c0.004,-0.014 0.0197,-0.03667 0.0314,-0.04533l0.16567,-0.12272c0.04047,-0.02997 0.13093,-0.06595 0.18093,-0.07195l0.11584,-0.0139c0.01708,-0.00205 0.04816,0.0059 0.06216,0.0159zM2.02469,0.99135c-0.02734,0.08932 -0.09469,0.09423 -0.13469,0.00981l-0.09335,-0.19701c-0.01333,-0.02812 0.00135,-0.06983 0.02935,-0.08341l0.028,-0.01358c0.028,-0.01358 0.08712,-0.02716 0.11824,-0.02716h0.06376c0.042,0 0.07171,0.04016 0.05941,0.08032zM1.498,0.51006c0.006,0.01002 0.00137,0.0152 -0.00926,0.01036l-0.05962,-0.02716c-0.01456,-0.00663 -0.01312,-0.01326 0.00288,-0.01326h0.02464c0.01168,0 0.02936,0.01002 0.03536,0.02004zM0.844,2.33c0.008,0.05 -0.03464,0.1 -0.08527,0.1h-0.21316c-0.02778,0 -0.04157,-0.024 -0.02757,-0.048l0.014,-0.024c0.014,-0.024 0.05285,-0.06043 0.0777,-0.07285l0.11972,-0.05986c0.04529,-0.02265 0.09858,0.00471 0.10658,0.05471zM1.156,0.53282c0.002,0.00094 0.00332,0.00398 0.00263,0.00608l-0.06233,0.1917c-0.00315,0.0097 -0.01631,0.0174 -0.02631,0.0154l-0.01,-0.002c-0.01,-0.002 -0.02,-0.0142 -0.02,-0.0244v-0.13279c0,-0.01341 0.012,-0.03279 0.024,-0.03877l0.0181,-0.00902c0.00895,-0.00446 0.0279,-0.00894 0.0379,-0.00896l0.02558,-0.00005c0.00221,0 0.00642,0.00093 0.00842,0.00187zM1.786,0.504c0.002,0.008 -0.00366,0.01906 -0.01131,0.02213l-0.01469,0.00587c-0.01,0.004 -0.02482,-0.00163 -0.02963,-0.01127l-0.00837,-0.01673c-0.006,-0.012 0.00142,-0.024 0.01483,-0.024h0.02667c0.00825,0 0.01849,0.008 0.02049,0.016zM1.76353,2.35026c0.00323,0.03987 -0.03353,0.07974 -0.07353,0.07974h-0.04c-0.04,0 -0.0633,-0.03635 -0.0466,-0.07269l0.07461,-0.16238c0.031,-0.06746 0.06799,-0.06093 0.07399,0.01307zM1.424,1.28c0.018,0.02 0.01424,0.05583 -0.00752,0.07165l-0.0398,0.02895c-0.01334,0.0097 -0.03068,0.0034 -0.03468,-0.0126l-0.004,-0.016c-0.004,-0.016 -0.00187,-0.04731 0.00425,-0.06263l0.01175,-0.02937c0.008,-0.02 0.03041,-0.02399 0.04482,-0.00798zM0.64922,1.59389c0.02039,0.03806 -0.00122,0.08611 -0.04322,0.09611l-0.042,0.01c-0.042,0.01 -0.084,-0.02317 -0.084,-0.06635v-0.19835c0,-0.01265 0.012,-0.0293 0.024,-0.0333l0.012,-0.004c0.012,-0.004 0.02997,0.00315 0.03595,0.0143zM2.43,1.66588c0,0.03206 -0.032,0.06612 -0.064,0.06812l-0.03351,0.00209c-0.03124,0.00195 -0.09049,-0.01009 -0.11849,-0.02409l-0.028,-0.014c-0.028,-0.014 -0.05023,-0.05877 -0.04446,-0.08954l0.00646,-0.03446c0.006,-0.032 0.04352,-0.07217 0.07503,-0.08034l0.09897,-0.02566c0.054,-0.014 0.108,0.02779 0.108,0.08357zM2.13824,2.35883c0.02588,0.03558 0.00776,0.07117 -0.03624,0.07117h-0.044c-0.044,0 -0.09066,-0.04392 -0.09332,-0.08784l-0.00668,-0.11016c-0.004,-0.066 0.03089,-0.07853 0.06978,-0.02505zM2.122,1.892c0.024,0.014 0.06457,0.0503 0.08114,0.07261l0.19108,0.25723c0.01789,0.02408 0.03578,0.07816 0.03578,0.10816v0.03c0,0.03 -0.0177,0.03578 -0.03541,0.01156l-0.35743,-0.48898c-0.00358,-0.0049 -0.00316,-0.01435 0.00084,-0.01891l0.004,-0.00456c0.004,-0.00456 0.01324,-0.00606 0.01848,-0.003zM0.77403,0.59351c0.03298,0.00825 0.06597,0.05049 0.06597,0.08449v0.034c0,0.034 -0.02639,0.08944 -0.05278,0.11088l-0.04322,0.03512c-0.032,0.026 -0.09105,0.02089 -0.11811,-0.01023l-0.10389,-0.11948c-0.021,-0.02415 -0.042,-0.08029 -0.042,-0.11229v-0.032c0,-0.032 0.03104,-0.05624 0.06209,-0.04848zM1.24299,2.35779c0.0285,0.0361 0.01101,0.07221 -0.03499,0.07221h-0.046c-0.046,0 -0.10033,-0.04524 -0.10867,-0.09048l-0.02533,-0.13752c-0.014,-0.076 0.01989,-0.09135 0.06777,-0.03069zM1.41718,0.71359c0.02641,0.01321 0.02682,0.04041 0.00082,0.05441l-0.05573,0.03001c-0.01114,0.006 -0.03427,0.00799 -0.04627,0.00399l-0.012,-0.004c-0.012,-0.004 -0.01913,-0.01968 -0.01427,-0.03135l0.02027,-0.04865c0.01,-0.024 0.04326,-0.03637 0.06651,-0.02474zM0.834,1.874c0.008,0.008 0.01039,0.02582 0.00477,0.03565l-0.01277,0.02235c-0.008,0.014 -0.03018,0.03568 -0.04436,0.04336l-0.14824,0.0803c-0.0317,0.01717 -0.06541,-0.00165 -0.06741,-0.03765l-0.002,-0.036c-0.002,-0.036 0.03106,-0.08041 0.06612,-0.08883l0.15788,-0.03789c0.011,-0.00264 0.03,0.00272 0.038,0.01072zM1.75049,1.16976c0.00976,0.02012 -0.00249,0.04424 -0.02449,0.04824l-0.022,0.004c-0.022,0.004 -0.05946,-0.00816 -0.07491,-0.02432l-0.18079,-0.18901c-0.00415,-0.00434 -0.00829,-0.01467 -0.00829,-0.02067v-0.006c0,-0.006 0.0053,-0.01481 0.01061,-0.01761l0.09139,-0.04839c0.034,-0.018 0.08478,-0.00138 0.10157,0.03323zM1.4309,1.9403c0.05955,0.01985 0.0951,0.0977 0.0711,0.1557l-0.024,0.058c-0.024,0.058 -0.08738,0.06712 -0.12675,0.01824l-0.1888,-0.23437c-0.01122,-0.01393 -0.00644,-0.03586 0.00956,-0.04386l0.016,-0.008c0.016,-0.008 0.04897,-0.01034 0.06594,-0.00469zM1.06985,0.94331c0.02508,0.00334 0.07415,0.01469 0.09815,0.02269l0.04544,0.01515c0.01328,0.00443 0.02656,0.02285 0.02656,0.03685v0.014c0,0.014 -0.00705,0.04009 -0.01411,0.05219l-0.02789,0.04781c-0.014,0.024 -0.05369,0.03742 -0.07938,0.02684l-0.22276,-0.09173c-0.03293,-0.01356 -0.03785,-0.04912 -0.00985,-0.07112l0.0364,-0.0286c0.0238,-0.0187 0.0776,-0.0334 0.1076,-0.0294z"></path></g></svg>