<svg version="1.1" xmlns="http://www.w3.org/2000/svg" xmlns:xlink="http://www.w3.org/1999/xlink" width="3in" height="3in" viewBox="0 0 3.05 3.05"><g fill="#d3d3d3" fill-rule="evenodd" stroke="#ff0000" stroke-width="0.005" stroke-linecap="butt" stroke-linejoin="miter" stroke-miterlimit="10" stroke-dasharray="" stroke-dashoffset="0" font-family="none" font-weight="none" font-size="none" text-anchor="none" style="mix-blend-mode: normal"><path d="M0,3v-3h3v3zM0.48413,2.41547c-0.00272,0.02113 -0.00413,0.04266 -0.00413,0.06453c0,0.01687 0.00084,0.03355 0.00247,0.05h-0.00247l0,-0.11689c0.00137,0.00079 0.00275,0.00158 0.00413,0.00236zM2.48,0.54689c-0.00137,-0.00079 -0.00275,-0.00158 -0.00413,-0.00236c0.00272,-0.02113 0.00413,-0.04266 0.00413,-0.06453h0.05l0,0.0416c-0.01719,0.00751 -0.03388,0.01596 -0.05,0.02529zM2.48,2.48c0,-0.02187 -0.0014,-0.04341 -0.00413,-0.06453c0.00138,-0.00078 0.00275,-0.00157 0.00413,-0.00236c0.01612,0.00932 0.03281,0.01778 0.05,0.02529l0,0.08321c-0.00613,0.00268 -0.0122,0.00548 -0.01821,0.0084l-0.03426,0c0.00163,-0.01645 0.00247,-0.03313 0.00247,-0.05zM2.43782,2.4349c0.00144,0.01484 0.00218,0.02988 0.00218,0.0451c0,0.01522 -0.00074,0.03026 -0.00218,0.0451c-0.06329,-0.02896 -0.13367,-0.0451 -0.20782,-0.0451c-0.07415,0 -0.14453,0.01614 -0.20782,0.0451c-0.00144,-0.01484 -0.00218,-0.02988 -0.00218,-0.0451c0,-0.01522 0.00074,-0.03026 0.00218,-0.0451c0.06329,0.02896 0.13367,0.0451 0.20782,0.0451c0.07415,0 0.14453,-0.01614 0.20782,-0.0451zM2.23,2.52c0.03287,0 0.06493,0.00345 0.09585,0.01l-0.1917,0c0.03092,-0.00655 0.06298,-0.01 0.09585,-0.01zM1.98413,2.41547c-0.00272,0.02113 -0.00413,0.04266 -0.00413,0.06453c0,0.01687 0.00084,0.03355 0.00247,0.05l-0.00494,0c0.00163,-0.01645 0.00247,-0.03313 0.00247,-0.05c0,-0.02187 -0.0014,-0.04341 -0.00413,-0.06453c0.00138,-0.00078 0.00275,-0.00157 0.00413,-0.00236c0.00137,0.00079 0.00275,0.00158 0.00413,0.00236zM1.93782,2.4349c0.00144,0.01484 0.00218,0.02988 0.00218,0.0451c0,0.01522 -0.00074,0.03026 -0.00218,0.0451c-0.06329,-0.02896 -0.13367,-0.0451 -0.20782,-0.0451c-0.07415,0 -0.14453,0.01614 -0.20782,0.0451c-0.00144,-0.01484 -0.00218,-0.02988 -0.00218,-0.0451c0,-0.01522 0.00074,-0.03026 0.00218,-0.0451c0.06329,0.02896 0.13367,0.0451 0.20782,0.0451c0.07415,0 0.14453,-0.01614 0.20782,-0.0451zM1.73,2.52c0.03287,0 0.06493,0.00345 0.09585,0.01l-0.1917,0c0.03092,-0.00655 0.06298,-0.01 0.09585,-0.01zM1.48413,2.41547c-0.00272,0.02113 -0.00413,0.04266 -0.00413,0.06453c0,0.01687 0.00084,0.03355 0.00247,0.05l-0.00494,0c0.00163,-0.01645 0.00247,-0.03313 0.00247,-0.05c0,-0.02187 -0.0014,-0.04341 -0.00413,-0.06453c0.00138,-0.00078 0.00275,-0.00157 0.00413,-0.00236c0.00137,0.00079 0.00275,0.00158 0.00413,0.00236zM1.43782,2.4349c0.00144,0.01484 0.00218,0.02988 0.00218,0.0451c0,0.01522 -0.00074,0.03026 -0.00218,0.0451c-0.06329,-0.02896 -0.13367,-0.0451 -0.20782,-0.0451c-0.07415,0 -0.14453,0.01614 -0.20782,0.0451c-0.00144,-0.01484 -0.00218,-0.02988 -0.00218,-0.0451c0,-0.01522 0.00074,-0.03026 0.00218,-0.0451c0.06329,0.02896 0.13367,0.0451 0.20782,0.0451c0.07415,0 0.14453,-0.01614 0.20782,-0.0451zM1.23,2.52c0.03287,0 0.06493,0.00345 0.09585,0.01l-0.1917,0c0.03092,-0.00655 0.06298,-0.01 0.09585,-0.01zM0.98413,2.41547c-0.00272,0.02113 -0.00413,0.04266 -0.00413,0.06453c0,0.01687 0.00084,0.03355 0.00247,0.05l-0.00494,0c0.00163,-0.01645 0.00247,-0.03313 0.00247,-0.05c0,-0.02187 -0.0014,-0.04341 -0.00413,-0.06453c0.00138,-0.00078 0.00275,-0.00157 0.00413,-0.00236c0.00137,0.00079 0.00275,0.00158 0.00413,0.00236zM0.93782,2.4349c0.00144,0.01484 0.00218,0.02988 0.00218,0.0451c0,0.01522 -0.00074,0.03026 -0.00218,0.0451c-0.06329,-0.02896 -0.13367,-0.0451 -0.20782,-0.0451c-0.07415,0 -0.14453,0.01614 -0.20782,0.0451c-0.00144,-0.01484 -0.00218,-0.02988 -0.00218,-0.0451c0,-0.01522 0.00074,-0.03026 0.00218,-0.0451c0.06329,0.02896 0.13367,0.0451 0.20782,0.0451c0.07415,0 0.14453,-0.01614 0.20782,-0.0451zM0.73,2.52c0.03287,0 0.06493,0.00345 0.09585,0.01l-0.1917,0c0.03092,-0.00655 0.06298,-0.01 0.09585,-0.01zM2.51835,2.38853c0.00392,-0.00278 0.00781,-0.00561 0.01165,-0.00849v0.01433c-0.00391,-0.00189 -0.0078,-0.00384 -0.01165,-0.00584zM2.48,1.98c-0.07415,0 -0.14453,0.01614 -0.20782,0.0451c-0.00144,-0.01484 -0.00218,-0.02988 -0.00218,-0.0451c0,-0.01522 0.00074,-0.03026 0.00218,-0.0451c0.06329,0.02896 0.13367,0.0451 0.20782,0.0451c0.01687,0 0.03355,-0.00084 0.05,-0.00247v0.00494c-0.01645,-0.00163 -0.03313,-0.00247 -0.05,-0.00247zM2.27813,2.06655c0.06094,-0.02981 0.12945,-0.04655 0.20187,-0.04655c0.01689,0 0.03358,0.00091 0.05,0.00269l0,0.30604c-0.01577,0.01358 -0.03247,0.02611 -0.05,0.03748c-0.00527,-0.00342 -0.01047,-0.00695 -0.01559,-0.01057c-0.02849,-0.11128 -0.09431,-0.20761 -0.18334,-0.27486c-0.00105,-0.00471 -0.00203,-0.00946 -0.00294,-0.01422zM2.23413,1.91547c-0.00272,0.02113 -0.00413,0.04266 -0.00413,0.06453c0,0.02187 0.0014,0.04341 0.00413,0.06453c-0.00138,0.00078 -0.00275,0.00157 -0.00413,0.00236c-0.00137,-0.00079 -0.00275,-0.00158 -0.00413,-0.00236c0.00272,-0.02113 0.00413,-0.04266 0.00413,-0.06453c0,-0.02187 -0.0014,-0.04341 -0.00413,-0.06453c0.00138,-0.00078 0.00275,-0.00157 0.00413,-0.00236c0.00137,0.00079 0.00275,0.00158 0.00413,0.00236zM2.02813,2.39345c0.00091,-0.00477 0.00189,-0.00951 0.00294,-0.01422c0.08902,-0.06724 0.15485,-0.16357 0.18334,-0.27486c0.00512,-0.00363 0.01032,-0.00715 0.01559,-0.01057c0.00527,0.00342 0.01047,0.00695 0.01559,0.01057c0.02849,0.11128 0.09431,0.20761 0.18334,0.27486c0.00105,0.00471 0.00203,0.00946 0.00294,0.01422c-0.06094,0.02981 -0.12945,0.04655 -0.20187,0.04655c-0.07242,0 -0.14093,-0.01673 -0.20187,-0.04655zM2.18782,1.9349c0.00144,0.01484 0.00218,0.02988 0.00218,0.0451c0,0.01522 -0.00074,0.03026 -0.00218,0.0451c-0.06329,-0.02896 -0.13367,-0.0451 -0.20782,-0.0451c-0.07415,0 -0.14453,0.01614 -0.20782,0.0451c-0.00144,-0.01484 -0.00218,-0.02988 -0.00218,-0.0451c0,-0.01522 0.00074,-0.03026 0.00218,-0.0451c0.06329,0.02896 0.13367,0.0451 0.20782,0.0451c0.07415,0 0.14453,-0.01614 0.20782,-0.0451zM1.77813,2.06655c0.06094,-0.02981 0.12945,-0.04655 0.20187,-0.04655c0.07242,0 0.14093,0.01673 0.20187,0.04655c-0.00091,0.00477 -0.00189,0.00951 -0.00294,0.01422c-0.08902,0.06724 -0.15485,0.16357 -0.18334,0.27486c-0.00512,0.00363 -0.01032,0.00715 -0.01559,0.01057c-0.00527,-0.00342 -0.01047,-0.00695 -0.01559,-0.01057c-0.02849,-0.11128 -0.09431,-0.20761 -0.18334,-0.27486c-0.00105,-0.00471 -0.00203,-0.00946 -0.00294,-0.01422zM1.73413,1.91547c-0.00272,0.02113 -0.00413,0.04266 -0.00413,0.06453c0,0.02187 0.0014,0.04341 0.00413,0.06453c-0.00138,0.00078 -0.00275,0.00157 -0.00413,0.00236c-0.00137,-0.00079 -0.00275,-0.00158 -0.00413,-0.00236c0.00272,-0.02113 0.00413,-0.04266 0.00413,-0.06453c0,-0.02187 -0.0014,-0.04341 -0.00413,-0.06453c0.00138,-0.00078 0.00275,-0.00157 0.00413,-0.00236c0.00137,0.00079 0.00275,0.00158 0.00413,0.00236zM1.52813,2.39345c0.00091,-0.00477 0.00189,-0.00951 0.00294,-0.01422c0.08902,-0.06724 0.15485,-0.16357 0.18334,-0.27486c0.00512,-0.00363 0.01032,-0.00715 0.01559,-0.01057c0.00527,0.00342 0.01047,0.00695 0.01559,0.01057c0.02849,0.11128 0.09431,0.20761 0.18334,0.27486c0.00105,0.00471 0.00203,0.00946 0.00294,0.01422c-0.06094,0.02981 -0.12945,0.04655 -0.20187,0.04655c-0.07242,0 -0.14093,-0.01673 -0.20187,-0.04655zM1.68782,1.9349c0.00144,0.01484 0.00218,0.02988 0.00218,0.0451c0,0.01522 -0.00074,0.03026 -0.00218,0.0451c-0.06329,-0.02896 -0.13367,-0.0451 -0.20782,-0.0451c-0.07415,0 -0.14453,0.01614 -0.20782,0.0451c-0.00144,-0.01484 -0.00218,-0.02988 -0.00218,-0.0451c0,-0.01522 0.00074,-0.03026 0.00218,-0.0451c0.06329,0.02896 0.13367,0.0451 0.20782,0.0451c0.07415,0 0.14453,-0.01614 0.20782,-0.0451zM1.27813,2.06655c0.06094,-0.02981 0.12945,-0.04655 0.20187,-0.04655c0.07242,0 0.14093,0.01673 0.20187,0.04655c-0.00091,0.00477 -0.00189,0.00951 -0.00294,0.01422c-0.08902,0.06724 -0.15485,0.16357 -0.18334,0.27486c-0.00512,0.00363 -0.01032,0.00715 -0.01559,0.01057c-0.00527,-0.00342 -0.01047,-0.00695 -0.01559,-0.01057c-0.02849,-0.11128 -0.09431,-0.20761 -0.18334,-0.27486c-0.00105,-0.00471 -0.00203,-0.00946 -0.00294,-0.01422zM1.23413,1.91547c-0.00272,0.02113 -0.00413,0.04266 -0.00413,0.06453c0,0.02187 0.0014,0.04341 0.00413,0.06453c-0.00138,0.00078 -0.00275,0.00157 -0.00413,0.00236c-0.00137,-0.00079 -0.00275,-0.00158 -0.00413,-0.00236c0.00272,-0.02113 0.00413,-0.04266 0.00413,-0.06453c0,-0.02187 -0.0014,-0.04341 -0.00413,-0.06453c0.00138,-0.00078 0.00275,-0.00157 0.00413,-0.00236c0.00137,0.00079 0.00275,0.00158 0.00413,0.00236zM1.02813,2.39345c0.00091,-0.00477 0.00189,-0.00951 0.00294,-0.01422c0.08902,-0.06724 0.15485,-0.16357 0.18334,-0.27486c0.00512,-0.00363 0.01032,-0.00715 0.01559,-0.01057c0.00527,0.00342 0.01047,0.00695 0.01559,0.01057c0.02849,0.11128 0.09431,0.20761 0.18334,0.27486c0.00105,0.00471 0.00203,0.00946 0.00294,0.01422c-0.06094,0.02981 -0.12945,0.04655 -0.20187,0.04655c-0.07242,0 -0.14093,-0.01673 -0.20187,-0.04655zM1.18782,1.9349c0.00144,0.01484 0.00218,0.02988 0.00218,0.0451c0,0.01522 -0.00074,0.03026 -0.00218,0.0451c-0.06329,-0.02896 -0.13367,-0.0451 -0.20782,-0.0451c-0.07415,0 -0.14453,0.01614 -0.20782,0.0451c-0.00144,-0.01484 -0.00218,-0.02988 -0.00218,-0.0451c0,-0.01522 0.00074,-0.03026 0.00218,-0.0451c0.06329,0.02896 0.13367,0.0451 0.20782,0.0451c0.07415,0 0.14453,-0.01614 0.20782,-0.0451zM0.77813,2.06655c0.06094,-0.02981 0.12945,-0.04655 0.20187,-0.04655c0.07242,0 0.14093,0.01673 0.20187,0.04655c-0.00091,0.00477 -0.00189,0.00951 -0.00294,0.01422c-0.08902,0.06724 -0.15485,0.16357 -0.18334,0.27486c-0.00512,0.00363 -0.01032,0.00715 -0.01559,0.01057c-0.00527,-0.00342 -0.01047,-0.00695 -0.01559,-0.01057c-0.02849,-0.11128 -0.09431,-0.20761 -0.18334,-0.27486c-0.00105,-0.00471 -0.00203,-0.00946 -0.00294,-0.01422zM0.73413,1.91547c-0.00272,0.02113 -0.00413,0.04266 -0.00413,0.06453c0,0.02187 0.0014,0.04341 0.00413,0.06453c-0.00138,0.00078 -0.00275,0.00157 -0.00413,0.00236c-0.07354,-0.04254 -0.15893,-0.06689 -0.25,-0.06689c0.09107,0 0.17646,-0.02435 0.25,-0.06689c0.00137,0.00079 0.00275,0.00158 0.00413,0.00236zM0.52813,2.39345c0.02386,-0.12534 0.09858,-0.23265 0.20187,-0.29965c0.00527,0.00342 0.01047,0.00695 0.01559,0.01057c0.02849,0.11128 0.09431,0.20761 0.18334,0.27486c0.00105,0.00471 0.00203,0.00946 0.00294,0.01422c-0.06094,0.02981 -0.12945,0.04655 -0.20187,0.04655c-0.07242,0 -0.14093,-0.01673 -0.20187,-0.04655zM0.69165,2.07147c-0.10028,0.07091 -0.17329,0.1778 -0.20025,0.30188c-0.00384,-0.00233 -0.00764,-0.00472 -0.0114,-0.00716v-0.3462c0.07632,0 0.14829,0.01858 0.21165,0.05147zM2.48,1.54689c-0.00137,-0.00079 -0.00275,-0.00158 -0.00413,-0.00236c0.00272,-0.02113 0.00413,-0.04266 0.00413,-0.06453c0,-0.02187 -0.0014,-0.04341 -0.00413,-0.06453c0.00138,-0.00078 0.00275,-0.00157 0.00413,-0.00236c0.01612,0.00932 0.03281,0.01778 0.05,0.02529v0.08321c-0.01719,0.00751 -0.03388,0.01596 -0.05,0.02529zM2.51835,1.57147c0.00385,-0.002 0.00773,-0.00395 0.01165,-0.00584v0.01433c-0.00384,-0.00288 -0.00772,-0.00571 -0.01165,-0.00849zM2.27813,1.89345c0.00091,-0.00477 0.00189,-0.00951 0.00294,-0.01422c0.08902,-0.06724 0.15485,-0.16357 0.18334,-0.27486c0.00512,-0.00363 0.01032,-0.00715 0.01559,-0.01057c0.01753,0.01137 0.03423,0.0239 0.05,0.03748v0.30604c-0.01642,0.00178 -0.03311,0.00269 -0.05,0.00269c-0.07242,0 -0.14093,-0.01673 -0.20187,-0.04655zM2.43782,1.4349c0.00144,0.01484 0.00218,0.02988 0.00218,0.0451c0,0.01522 -0.00074,0.03026 -0.00218,0.0451c-0.06329,-0.02896 -0.13367,-0.0451 -0.20782,-0.0451c-0.07415,0 -0.14453,0.01614 -0.20782,0.0451c-0.00144,-0.01484 -0.00218,-0.02988 -0.00218,-0.0451c0,-0.01522 0.00074,-0.03026 0.00218,-0.0451c0.06329,0.02896 0.13367,0.0451 0.20782,0.0451c0.07415,0 0.14453,-0.01614 0.20782,-0.0451zM2.02813,1.56655c0.06094,-0.02981 0.12945,-0.04655 0.20187,-0.04655c0.07242,0 0.14093,0.01673 0.20187,0.04655c-0.00091,0.00477 -0.00189,0.00951 -0.00294,0.01422c-0.08902,0.06724 -0.15485,0.16357 -0.18334,0.27486c-0.00512,0.00363 -0.01032,0.00715 -0.01559,0.01057c-0.00527,-0.00342 -0.01047,-0.00695 -0.01559,-0.01057c-0.02849,-0.11128 -0.09431,-0.20761 -0.18334,-0.27486c-0.00105,-0.00471 -0.00203,-0.00946 -0.00294,-0.01422zM1.98413,1.41547c-0.00272,0.02113 -0.00413,0.04266 -0.00413,0.06453c0,0.02187 0.0014,0.04341 0.00413,0.06453c-0.00138,0.00078 -0.00275,0.00157 -0.00413,0.00236c-0.00137,-0.00079 -0.00275,-0.00158 -0.00413,-0.00236c0.00272,-0.02113 0.00413,-0.04266 0.00413,-0.06453c0,-0.02187 -0.0014,-0.04341 -0.00413,-0.06453c0.00138,-0.00078 0.00275,-0.00157 0.00413,-0.00236c0.00137,0.00079 0.00275,0.00158 0.00413,0.00236zM1.77813,1.89345c0.00091,-0.00477 0.00189,-0.00951 0.00294,-0.01422c0.08902,-0.06724 0.15485,-0.16357 0.18334,-0.27486c0.00512,-0.00363 0.01032,-0.00715 0.01559,-0.01057c0.00527,0.00342 0.01047,0.00695 0.01559,0.01057c0.02849,0.11128 0.09431,0.20761 0.18334,0.27486c0.00105,0.00471 0.00203,0.00946 0.00294,0.01422c-0.06094,0.02981 -0.12945,0.04655 -0.20187,0.04655c-0.07242,0 -0.14093,-0.01673 -0.20187,-0.04655zM1.93782,1.4349c0.00144,0.01484 0.00218,0.02988 0.00218,0.0451c0,0.01522 -0.00074,0.03026 -0.00218,0.0451c-0.06329,-0.02896 -0.13367,-0.0451 -0.20782,-0.0451c-0.07415,0 -0.14453,0.01614 -0.20782,0.0451c-0.00144,-0.01484 -0.00218,-0.02988 -0.00218,-0.0451c0,-0.01522 0.00074,-0.03026 0.00218,-0.0451c0.06329,0.02896 0.13367,0.0451 0.20782,0.0451c0.07415,0 0.14453,-0.01614 0.20782,-0.0451zM1.52813,1.56655c0.06094,-0.02981 0.12945,-0.04655 0.20187,-0.04655c0.07242,0 0.14093,0.01673 0.20187,0.04655c-0.00091,0.00477 -0.00189,0.00951 -0.00294,0.01422c-0.08902,0.06724 -0.15485,0.16357 -0.18334,0.27486c-0.00512,0.00363 -0.01032,0.00715 -0.01559,0.01057c-0.00527,-0.00342 -0.01047,-0.00695 -0.01559,-0.01057c-0.02849,-0.11128 -0.09431,-0.20761 -0.18334,-0.27486c-0.00105,-0.00471 -0.00203,-0.00946 -0.00294,-0.01422zM1.48413,1.41547c-0.00272,0.02113 -0.00413,0.04266 -0.00413,0.06453c0,0.02187 0.0014,0.04341 0.00413,0.06453c-0.00138,0.00078 -0.00275,0.00157 -0.00413,0.00236c-0.00137,-0.00079 -0.00275,-0.00158 -0.00413,-0.00236c0.00272,-0.02113 0.00413,-0.04266 0.00413,-0.06453c0,-0.02187 -0.0014,-0.04341 -0.00413,-0.06453c0.00138,-0.00078 0.00275,-0.00157 0.00413,-0.00236c0.00137,0.00079 0.00275,0.00158 0.00413,0.00236zM1.27813,1.89345c0.00091,-0.00477 0.00189,-0.00951 0.00294,-0.01422c0.08902,-0.06724 0.15485,-0.16357 0.18334,-0.27486c0.00512,-0.00363 0.01032,-0.00715 0.01559,-0.01057c0.00527,0.00342 0.01047,0.00695 0.01559,0.01057c0.02849,0.11128 0.09431,0.20761 0.18334,0.27486c0.00105,0.00471 0.00203,0.00946 0.00294,0.01422c-0.06094,0.02981 -0.12945,0.04655 -0.20187,0.04655c-0.07242,0 -0.14093,-0.01673 -0.20187,-0.04655zM1.43782,1.4349c0.00144,0.01484 0.00218,0.02988 0.00218,0.0451c0,0.01522 -0.00074,0.03026 -0.00218,0.0451c-0.06329,-0.02896 -0.13367,-0.0451 -0.20782,-0.0451c-0.07415,0 -0.14453,0.01614 -0.20782,0.0451c-0.00144,-0.01484 -0.00218,-0.02988 -0.00218,-0.0451c0,-0.01522 0.00074,-0.03026 0.00218,-0.0451c0.06329,0.02896 0.13367,0.0451 0.20782,0.0451c0.07415,0 0.14453,-0.01614 0.20782,-0.0451zM1.02813,1.56655c0.06094,-0.02981 0.12945,-0.04655 0.20187,-0.04655c0.07242,0 0.14093,0.01673 0.20187,0.04655c-0.00091,0.00477 -0.00189,0.00951 -0.00294,0.01422c-0.08902,0.06724 -0.15485,0.16357 -0.18334,0.27486c-0.00512,0.00363 -0.01032,0.00715 -0.01559,0.01057c-0.00527,-0.00342 -0.01047,-0.00695 -0.01559,-0.01057c-0.02849,-0.11128 -0.09431,-0.20761 -0.18334,-0.27486c-0.00105,-0.00471 -0.00203,-0.00946 -0.00294,-0.01422zM0.98413,1.41547c-0.00272,0.02113 -0.00413,0.04266 -0.00413,0.06453c0,0.02187 0.0014,0.04341 0.00413,0.06453c-0.00138,0.00078 -0.00275,0.00157 -0.00413,0.00236c-0.00137,-0.00079 -0.00275,-0.00158 -0.00413,-0.00236c0.00272,-0.02113 0.00413,-0.04266 0.00413,-0.06453c0,-0.02187 -0.0014,-0.04341 -0.00413,-0.06453c0.00138,-0.00078 0.00275,-0.00157 0.00413,-0.00236c0.00137,0.00079 0.00275,0.00158 0.00413,0.00236zM0.77813,1.89345c0.00091,-0.00477 0.00189,-0.00951 0.00294,-0.01422c0.08902,-0.06724 0.15485,-0.16357 0.18334,-0.27486c0.00512,-0.00363 0.01032,-0.00715 0.01559,-0.01057c0.00527,0.00342 0.01047,0.00695 0.01559,0.01057c0.02849,0.11128 0.09431,0.20761 0.18334,0.27486c0.00105,0.00471 0.00203,0.00946 0.00294,0.01422c-0.06094,0.02981 -0.12945,0.04655 -0.20187,0.04655c-0.07242,0 -0.14093,-0.01673 -0.20187,-0.04655zM0.93782,1.4349c0.00144,0.01484 0.00218,0.02988 0.00218,0.0451c0,0.01522 -0.00074,0.03026 -0.00218,0.0451c-0.06329,-0.02896 -0.13367,-0.0451 -0.20782,-0.0451c-0.07415,0 -0.14453,0.01614 -0.20782,0.0451c-0.00144,-0.01484 -0.00218,-0.02988 -0.00218,-0.0451c0,-0.01522 0.00074,-0.03026 0.00218,-0.0451c0.06329,0.02896 0.13367,0.0451 0.20782,0.0451c0.07415,0 0.14453,-0.01614 0.20782,-0.0451zM0.52813,1.56655c0.06094,-0.02981 0.12945,-0.04655 0.20187,-0.04655c0.07242,0 0.14093,0.01673 0.20187,0.04655c-0.00091,0.00477 -0.00189,0.00951 -0.00294,0.01422c-0.08902,0.06724 -0.15485,0.16357 -0.18334,0.27486c-0.00512,0.00363 -0.01032,0.00715 -0.01559,0.01057c-0.10329,-0.067 -0.17801,-0.17431 -0.20187,-0.29965zM0.48413,1.41547c-0.00272,0.02113 -0.00413,0.04266 -0.00413,0.06453v-0.06689c0.00137,0.00079 0.00275,0.00158 0.00413,0.00236zM0.48413,1.54453c-0.00138,0.00078 -0.00275,0.00157 -0.00413,0.00236v-0.06689c0,0.02187 0.0014,0.04341 0.00413,0.06453zM0.4914,1.58664c0.02696,0.12408 0.09997,0.23098 0.20025,0.30188c-0.06336,0.03289 -0.13533,0.05147 -0.21165,0.05147v-0.3462c0.00376,-0.00244 0.00756,-0.00483 0.0114,-0.00716zM2.51835,1.38853c0.00392,-0.00278 0.00781,-0.00561 0.01165,-0.00849v0.01433c-0.00391,-0.00189 -0.0078,-0.00384 -0.01165,-0.00584zM2.48,0.98c-0.07415,0 -0.14453,0.01614 -0.20782,0.0451c-0.00144,-0.01484 -0.00218,-0.02988 -0.00218,-0.0451c0,-0.01522 0.00074,-0.03026 0.00218,-0.0451c0.06329,0.02896 0.13367,0.0451 0.20782,0.0451c0.01687,0 0.03355,-0.00084 0.05,-0.00247v0.00494c-0.01645,-0.00163 -0.03313,-0.00247 -0.05,-0.00247zM2.27813,1.06655c0.06094,-0.02981 0.12945,-0.04655 0.20187,-0.04655c0.01689,0 0.03358,0.00091 0.05,0.00269l0,0.30604c-0.01577,0.01358 -0.03247,0.02611 -0.05,0.03748c-0.00527,-0.00342 -0.01047,-0.00695 -0.01559,-0.01057c-0.02849,-0.11128 -0.09431,-0.20761 -0.18334,-0.27486c-0.00105,-0.00471 -0.00203,-0.00946 -0.00294,-0.01422zM2.23413,0.91547c-0.00272,0.02113 -0.00413,0.04266 -0.00413,0.06453c0,0.02187 0.0014,0.04341 0.00413,0.06453c-0.00138,0.00078 -0.00275,0.00157 -0.00413,0.00236c-0.00137,-0.00079 -0.00275,-0.00158 -0.00413,-0.00236c0.00272,-0.02113 0.00413,-0.04266 0.00413,-0.06453c0,-0.02187 -0.0014,-0.04341 -0.00413,-0.06453c0.00138,-0.00078 0.00275,-0.00157 0.00413,-0.00236c0.00137,0.00079 0.00275,0.00158 0.00413,0.00236zM2.02813,1.39345c0.00091,-0.00477 0.00189,-0.00951 0.00294,-0.01422c0.08902,-0.06724 0.15485,-0.16357 0.18334,-0.27486c0.00512,-0.00363 0.01032,-0.00715 0.01559,-0.01057c0.00527,0.00342 0.01047,0.00695 0.01559,0.01057c0.02849,0.11128 0.09431,0.20761 0.18334,0.27486c0.00105,0.00471 0.00203,0.00946 0.00294,0.01422c-0.06094,0.02981 -0.12945,0.04655 -0.20187,0.04655c-0.07242,0 -0.14093,-0.01673 -0.20187,-0.04655zM2.18782,0.9349c0.00144,0.01484 0.00218,0.02988 0.00218,0.0451c0,0.01522 -0.00074,0.03026 -0.00218,0.0451c-0.06329,-0.02896 -0.13367,-0.0451 -0.20782,-0.0451c-0.07415,0 -0.14453,0.01614 -0.20782,0.0451c-0.00144,-0.01484 -0.00218,-0.02988 -0.00218,-0.0451c0,-0.01522 0.00074,-0.03026 0.00218,-0.0451c0.06329,0.02896 0.13367,0.0451 0.20782,0.0451c0.07415,0 0.14453,-0.01614 0.20782,-0.0451zM1.77813,1.06655c0.06094,-0.02981 0.12945,-0.04655 0.20187,-0.04655c0.07242,0 0.14093,0.01673 0.20187,0.04655c-0.00091,0.00477 -0.00189,0.00951 -0.00294,0.01422c-0.08902,0.06724 -0.15485,0.16357 -0.18334,0.27486c-0.00512,0.00363 -0.01032,0.00715 -0.01559,0.01057c-0.00527,-0.00342 -0.01047,-0.00695 -0.01559,-0.01057c-0.02849,-0.11128 -0.09431,-0.20761 -0.18334,-0.27486c-0.00105,-0.00471 -0.00203,-0.00946 -0.00294,-0.01422zM1.73413,0.91547c-0.00272,0.02113 -0.00413,0.04266 -0.00413,0.06453c0,0.02187 0.0014,0.04341 0.00413,0.06453c-0.00138,0.00078 -0.00275,0.00157 -0.00413,0.00236c-0.00137,-0.00079 -0.00275,-0.00158 -0.00413,-0.00236c0.00272,-0.02113 0.00413,-0.04266 0.00413,-0.06453c0,-0.02187 -0.0014,-0.04341 -0.00413,-0.06453c0.00138,-0.00078 0.00275,-0.00157 0.00413,-0.00236c0.00137,0.00079 0.00275,0.00158 0.00413,0.00236zM1.52813,1.39345c0.00091,-0.00477 0.00189,-0.00951 0.00294,-0.01422c0.08902,-0.06724 0.15485,-0.16357 0.18334,-0.27486c0.00512,-0.00363 0.01032,-0.00715 0.01559,-0.01057c0.00527,0.00342 0.01047,0.00695 0.01559,0.01057c0.02849,0.11128 0.09431,0.20761 0.18334,0.27486c0.00105,0.00471 0.00203,0.00946 0.00294,0.01422c-0.06094,0.02981 -0.12945,0.04655 -0.20187,0.04655c-0.07242,0 -0.14093,-0.01673 -0.20187,-0.04655zM1.68782,0.9349c0.00144,0.01484 0.00218,0.02988 0.00218,0.0451c0,0.01522 -0.00074,0.03026 -0.00218,0.0451c-0.06329,-0.02896 -0.13367,-0.0451 -0.20782,-0.0451c-0.07415,0 -0.14453,0.01614 -0.20782,0.0451c-0.00144,-0.01484 -0.00218,-0.02988 -0.00218,-0.0451c0,-0.01522 0.00074,-0.03026 0.00218,-0.0451c0.06329,0.02896 0.13367,0.0451 0.20782,0.0451c0.07415,0 0.14453,-0.01614 0.20782,-0.0451zM1.27813,1.06655c0.06094,-0.02981 0.12945,-0.04655 0.20187,-0.04655c0.07242,0 0.14093,0.01673 0.20187,0.04655c-0.00091,0.00477 -0.00189,0.00951 -0.00294,0.01422c-0.08902,0.06724 -0.15485,0.16357 -0.18334,0.27486c-0.00512,0.00363 -0.01032,0.00715 -0.01559,0.01057c-0.00527,-0.00342 -0.01047,-0.00695 -0.01559,-0.01057c-0.02849,-0.11128 -0.09431,-0.20761 -0.18334,-0.27486c-0.00105,-0.00471 -0.00203,-0.00946 -0.00294,-0.01422zM1.23413,0.91547c-0.00272,0.02113 -0.00413,0.04266 -0.00413,0.06453c0,0.02187 0.0014,0.04341 0.00413,0.06453c-0.00138,0.00078 -0.00275,0.00157 -0.00413,0.00236c-0.00137,-0.00079 -0.00275,-0.00158 -0.00413,-0.00236c0.00272,-0.02113 0.00413,-0.04266 0.00413,-0.06453c0,-0.02187 -0.0014,-0.04341 -0.00413,-0.06453c0.00138,-0.00078 0.00275,-0.00157 0.00413,-0.00236c0.00137,0.00079 0.00275,0.00158 0.00413,0.00236zM1.02813,1.39345c0.00091,-0.00477 0.00189,-0.00951 0.00294,-0.01422c0.08902,-0.06724 0.15485,-0.16357 0.18334,-0.27486c0.00512,-0.00363 0.01032,-0.00715 0.01559,-0.01057c0.00527,0.00342 0.01047,0.00695 0.01559,0.01057c0.02849,0.11128 0.09431,0.20761 0.18334,0.27486c0.00105,0.00471 0.00203,0.00946 0.00294,0.01422c-0.06094,0.02981 -0.12945,0.04655 -0.20187,0.04655c-0.07242,0 -0.14093,-0.01673 -0.20187,-0.04655zM1.18782,0.9349c0.00144,0.01484 0.00218,0.02988 0.00218,0.0451c0,0.01522 -0.00074,0.03026 -0.00218,0.0451c-0.06329,-0.02896 -0.13367,-0.0451 -0.20782,-0.0451c-0.07415,0 -0.14453,0.01614 -0.20782,0.0451c-0.00144,-0.01484 -0.00218,-0.02988 -0.00218,-0.0451c0,-0.01522 0.00074,-0.03026 0.00218,-0.0451c0.06329,0.02896 0.13367,0.0451 0.20782,0.0451c0.07415,0 0.14453,-0.01614 0.20782,-0.0451zM0.77813,1.06655c0.06094,-0.02981 0.12945,-0.04655 0.20187,-0.04655c0.07242,0 0.14093,0.01673 0.20187,0.04655c-0.00091,0.00477 -0.00189,0.00951 -0.00294,0.01422c-0.08902,0.06724 -0.15485,0.16357 -0.18334,0.27486c-0.00512,0.00363 -0.01032,0.00715 -0.01559,0.01057c-0.00527,-0.00342 -0.01047,-0.00695 -0.01559,-0.01057c-0.02849,-0.11128 -0.09431,-0.20761 -0.18334,-0.27486c-0.00105,-0.00471 -0.00203,-0.00946 -0.00294,-0.01422zM0.73413,0.91547c-0.00272,0.02113 -0.00413,0.04266 -0.00413,0.06453c0,0.02187 0.0014,0.04341 0.00413,0.06453c-0.00138,0.00078 -0.00275,0.00157 -0.00413,0.00236c-0.07354,-0.04254 -0.15893,-0.06689 -0.25,-0.06689c0.09107,0 0.17646,-0.02435 0.25,-0.06689c0.00137,0.00079 0.00275,0.00158 0.00413,0.00236zM0.52813,1.39345c0.02386,-0.12534 0.09858,-0.23265 0.20187,-0.29965c0.00527,0.00342 0.01047,0.00695 0.01559,0.01057c0.02849,0.11128 0.09431,0.20761 0.18334,0.27486c0.00105,0.00471 0.00203,0.00946 0.00294,0.01422c-0.06094,0.02981 -0.12945,0.04655 -0.20187,0.04655c-0.07242,0 -0.14093,-0.01673 -0.20187,-0.04655zM0.69165,1.07147c-0.10028,0.07091 -0.17329,0.1778 -0.20025,0.30188c-0.00384,-0.00233 -0.00764,-0.00472 -0.0114,-0.00716v-0.3462c0.07632,0 0.14829,0.01858 0.21165,0.05147zM2.51835,0.57147c0.00385,-0.002 0.00773,-0.00395 0.01165,-0.00584l0,0.01433c-0.00384,-0.00288 -0.00772,-0.00571 -0.01165,-0.00849zM2.27813,0.89345c0.00091,-0.00477 0.00189,-0.00951 0.00294,-0.01422c0.08902,-0.06724 0.15485,-0.16357 0.18334,-0.27486c0.00512,-0.00363 0.01032,-0.00715 0.01559,-0.01057c0.01753,0.01137 0.03423,0.0239 0.05,0.03748v0.30604c-0.01642,0.00178 -0.03311,0.00269 -0.05,0.00269c-0.07242,0 -0.14093,-0.01673 -0.20187,-0.04655zM1.98413,0.54453c-0.00138,0.00078 -0.00275,0.00157 -0.00413,0.00236c-0.00137,-0.00079 -0.00275,-0.00158 -0.00413,-0.00236c0.00272,-0.02113 0.00413,-0.04266 0.00413,-0.06453c0,0.02187 0.0014,0.04341 0.00413,0.06453zM1.77813,0.89345c0.00091,-0.00477 0.00189,-0.00951 0.00294,-0.01422c0.08902,-0.06724 0.15485,-0.16357 0.18334,-0.27486c0.00512,-0.00363 0.01032,-0.00715 0.01559,-0.01057c0.00527,0.00342 0.01047,0.00695 0.01559,0.01057c0.02849,0.11128 0.09431,0.20761 0.18334,0.27486c0.00105,0.00471 0.00203,0.00946 0.00294,0.01422c-0.06094,0.02981 -0.12945,0.04655 -0.20187,0.04655c-0.07242,0 -0.14093,-0.01673 -0.20187,-0.04655zM2.43782,0.5251c-0.06329,-0.02896 -0.13367,-0.0451 -0.20782,-0.0451c-0.07415,0 -0.14453,0.01614 -0.20782,0.0451c-0.00144,-0.01484 -0.00218,-0.02988 -0.00218,-0.0451h0.42c0,0.01522 -0.00074,0.03026 -0.00218,0.0451zM2.02813,0.56655c0.06094,-0.02981 0.12945,-0.04655 0.20187,-0.04655c0.07242,0 0.14093,0.01673 0.20187,0.04655c-0.00091,0.00477 -0.00189,0.00951 -0.00294,0.01422c-0.08902,0.06724 -0.15485,0.16357 -0.18334,0.27486c-0.00512,0.00363 -0.01032,0.00715 -0.01559,0.01057c-0.00527,-0.00342 -0.01047,-0.00695 -0.01559,-0.01057c-0.02849,-0.11128 -0.09431,-0.20761 -0.18334,-0.27486c-0.00105,-0.00471 -0.00203,-0.00946 -0.00294,-0.01422zM1.48413,0.54453c-0.00138,0.00078 -0.00275,0.00157 -0.00413,0.00236c-0.00137,-0.00079 -0.00275,-0.00158 -0.00413,-0.00236c0.00272,-0.02113 0.00413,-0.04266 0.00413,-0.06453c0,0.02187 0.0014,0.04341 0.00413,0.06453zM1.27813,0.89345c0.00091,-0.00477 0.00189,-0.00951 0.00294,-0.01422c0.08902,-0.06724 0.15485,-0.16357 0.18334,-0.27486c0.00512,-0.00363 0.01032,-0.00715 0.01559,-0.01057c0.00527,0.00342 0.01047,0.00695 0.01559,0.01057c0.02849,0.11128 0.09431,0.20761 0.18334,0.27486c0.00105,0.00471 0.00203,0.00946 0.00294,0.01422c-0.06094,0.02981 -0.12945,0.04655 -0.20187,0.04655c-0.07242,0 -0.14093,-0.01673 -0.20187,-0.04655zM1.93782,0.5251c-0.06329,-0.02896 -0.13367,-0.0451 -0.20782,-0.0451c-0.07415,0 -0.14453,0.01614 -0.20782,0.0451c-0.00144,-0.01484 -0.00218,-0.02988 -0.00218,-0.0451h0.42c0,0.01522 -0.00074,0.03026 -0.00218,0.0451zM1.52813,0.56655c0.06094,-0.02981 0.12945,-0.04655 0.20187,-0.04655c0.07242,0 0.14093,0.01673 0.20187,0.04655c-0.00091,0.00477 -0.00189,0.00951 -0.00294,0.01422c-0.08902,0.06724 -0.15485,0.16357 -0.18334,0.27486c-0.00512,0.00363 -0.01032,0.00715 -0.01559,0.01057c-0.00527,-0.00342 -0.01047,-0.00695 -0.01559,-0.01057c-0.02849,-0.11128 -0.09431,-0.20761 -0.18334,-0.27486c-0.00105,-0.00471 -0.00203,-0.00946 -0.00294,-0.01422zM0.98413,0.54453c-0.00138,0.00078 -0.00275,0.00157 -0.00413,0.00236c-0.00137,-0.00079 -0.00275,-0.00158 -0.00413,-0.00236c0.00272,-0.02113 0.00413,-0.04266 0.00413,-0.06453c0,0.02187 0.0014,0.04341 0.00413,0.06453zM0.77813,0.89345c0.00091,-0.00477 0.00189,-0.00951 0.00294,-0.01422c0.08902,-0.06724 0.15485,-0.16357 0.18334,-0.27486c0.00512,-0.00363 0.01032,-0.00715 0.01559,-0.01057c0.00527,0.00342 0.01047,0.00695 0.01559,0.01057c0.02849,0.11128 0.09431,0.20761 0.18334,0.27486c0.00105,0.00471 0.00203,0.00946 0.00294,0.01422c-0.06094,0.02981 -0.12945,0.04655 -0.20187,0.04655c-0.07242,0 -0.14093,-0.01673 -0.20187,-0.04655zM1.43782,0.5251c-0.06329,-0.02896 -0.13367,-0.0451 -0.20782,-0.0451c-0.07415,0 -0.14453,0.01614 -0.20782,0.0451c-0.00144,-0.01484 -0.00218,-0.02988 -0.00218,-0.0451h0.42c0,0.01522 -0.00074,0.03026 -0.00218,0.0451zM1.02813,0.56655c0.06094,-0.02981 0.12945,-0.04655 0.20187,-0.04655c0.07242,0 0.14093,0.01673 0.20187,0.04655c-0.00091,0.00477 -0.00189,0.00951 -0.00294,0.01422c-0.08902,0.06724 -0.15485,0.16357 -0.18334,0.27486c-0.00512,0.00363 -0.01032,0.00715 -0.01559,0.01057c-0.00527,-0.00342 -0.01047,-0.00695 -0.01559,-0.01057c-0.02849,-0.11128 -0.09431,-0.20761 -0.18334,-0.27486c-0.00105,-0.00471 -0.00203,-0.00946 -0.00294,-0.01422zM0.4914,0.58664c0.02696,0.12408 0.09997,0.23098 0.20025,0.30188c-0.06336,0.03289 -0.13533,0.05147 -0.21165,0.05147l0,-0.3462c0.00376,-0.00244 0.00756,-0.00483 0.0114,-0.00716zM0.48413,0.54453c-0.00138,0.00078 -0.00275,0.00157 -0.00413,0.00236v-0.06689c0,0.02187 0.0014,0.04341 0.00413,0.06453zM0.93782,0.5251c-0.06329,-0.02896 -0.13367,-0.0451 -0.20782,-0.0451c-0.07415,0 -0.14453,0.01614 -0.20782,0.0451c-0.00144,-0.01484 -0.00218,-0.02988 -0.00218,-0.0451h0.42c0,0.01522 -0.00074,0.03026 -0.00218,0.0451zM0.52813,0.56655c0.06094,-0.02981 0.12945,-0.04655 0.20187,-0.04655c0.07242,0 0.14093,0.01673 0.20187,0.04655c-0.00091,0.00477 -0.00189,0.00951 -0.00294,0.01422c-0.08902,0.06724 -0.15485,0.16357 -0.18334,0.27486c-0.00512,0.00363 -0.01032,0.00715 -0.01559,0.01057c-0.10329,-0.067 -0.17801,-0.17431 -0.20187,-0.29965zM1.15629,0.80682c-0.04382,-0.04341 -0.07896,-0.09556 -0.10257,-0.15363c0.04382,0.04341 0.07896,0.09556 0.10257,0.15363zM1.65629,0.80682c-0.04382,-0.04341 -0.07896,-0.09556 -0.10257,-0.15363c0.04382,0.04341 0.07896,0.09556 0.10257,0.15363zM0.90629,0.65318c-0.02362,0.05807 -0.05875,0.11023 -0.10257,0.15363c0.02362,-0.05807 0.05875,-0.11023 0.10257,-0.15363zM2.15629,0.80682c-0.04382,-0.04341 -0.07896,-0.09556 -0.10257,-0.15363c0.04382,0.04341 0.07896,0.09556 0.10257,0.15363zM1.40629,0.65318c-0.02362,0.05807 -0.05875,0.11023 -0.10257,0.15363c0.02362,-0.05807 0.05875,-0.11023 0.10257,-0.15363zM1.90629,0.65318c-0.02362,0.05807 -0.05875,0.11023 -0.10257,0.15363c0.02362,-0.05807 0.05875,-0.11023 0.10257,-0.15363zM2.40629,0.65318c-0.02362,0.05807 -0.05875,0.11023 -0.10257,0.15363c0.02362,-0.05807 0.05875,-0.11023 0.10257,-0.15363zM0.90629,1.30682c-0.04382,-0.04341 -0.07896,-0.09556 -0.10257,-0.15363c0.04382,0.04341 0.07896,0.09556 0.10257,0.15363zM1.40629,1.30682c-0.04382,-0.04341 -0.07896,-0.09556 -0.10257,-0.15363c0.04382,0.04341 0.07896,0.09556 0.10257,0.15363zM1.90629,1.30682c-0.04382,-0.04341 -0.07896,-0.09556 -0.10257,-0.15363c0.04382,0.04341 0.07896,0.09556 0.10257,0.15363zM1.15629,1.15318c-0.02362,0.05807 -0.05875,0.11023 -0.10257,0.15363c0.02362,-0.05807 0.05875,-0.11023 0.10257,-0.15363zM2.40629,1.30682c-0.04382,-0.04341 -0.07896,-0.09556 -0.10257,-0.15363c0.04382,0.04341 0.07896,0.09556 0.10257,0.15363zM1.65629,1.15318c-0.02362,0.05807 -0.05875,0.11023 -0.10257,0.15363c0.02362,-0.05807 0.05875,-0.11023 0.10257,-0.15363zM2.15629,1.15318c-0.02362,0.05807 -0.05875,0.11023 -0.10257,0.15363c0.02362,-0.05807 0.05875,-0.11023 0.10257,-0.15363zM1.15629,1.80682c-0.04382,-0.04341 -0.07896,-0.09556 -0.10257,-0.15363c0.04382,0.04341 0.07896,0.09556 0.10257,0.15363zM1.65629,1.80682c-0.04382,-0.04341 -0.07896,-0.09556 -0.10257,-0.15363c0.04382,0.04341 0.07896,0.09556 0.10257,0.15363zM0.90629,1.65318c-0.02362,0.05807 -0.05875,0.11023 -0.10257,0.15363c0.02362,-0.05807 0.05875,-0.11023 0.10257,-0.15363zM2.15629,1.80682c-0.04382,-0.04341 -0.07896,-0.09556 -0.10257,-0.15363c0.04382,0.04341 0.07896,0.09556 0.10257,0.15363zM1.40629,1.65318c-0.02362,0.05807 -0.05875,0.11023 -0.10257,0.15363c0.02362,-0.05807 0.05875,-0.11023 0.10257,-0.15363zM1.90629,1.65318c-0.02362,0.05807 -0.05875,0.11023 -0.10257,0.15363c0.02362,-0.05807 0.05875,-0.11023 0.10257,-0.15363zM2.40629,1.65318c-0.02362,0.05807 -0.05875,0.11023 -0.10257,0.15363c0.02362,-0.05807 0.05875,-0.11023 0.10257,-0.15363zM0.90629,2.30682c-0.04382,-0.04341 -0.07896,-0.09556 -0.10257,-0.15363c0.04382,0.04341 0.07896,0.09556 0.10257,0.15363zM1.40629,2.30682c-0.04382,-0.04341 -0.07896,-0.09556 -0.10257,-0.15363c0.04382,0.04341 0.07896,0.09556 0.10257,0.15363zM1.90629,2.30682c-0.04382,-0.04341 -0.07896,-0.09556 -0.10257,-0.15363c0.04382,0.04341 0.07896,0.09556 0.10257,0.15363zM1.15629,2.15318c-0.02362,0.05807 -0.05875,0.11023 -0.10257,0.15363c0.02362,-0.05807 0.05875,-0.11023 0.10257,-0.15363zM2.40629,2.30682c-0.04382,-0.04341 -0.07896,-0.09556 -0.10257,-0.15363c0.04382,0.04341 0.07896,0.09556 0.10257,0.15363zM1.65629,2.15318c-0.02362,0.05807 -0.05875,0.11023 -0.10257,0.15363c0.02362,-0.05807 0.05875,-0.11023 0.10257,-0.15363zM2.15629,2.15318c-0.02362,0.05807 -0.05875,0.11023 -0.10257,0.15363c0.02362,-0.05807 0.05875,-0.11023 0.10257,-0.15363z"></path></g></svg>