<svg version="1.1" xmlns="http://www.w3.org/2000/svg" xmlns:xlink="http://www.w3.org/1999/xlink" width="3in" height="3in" viewBox="0 0 3.05 3.05"><g fill="#d3d3d3" fill-rule="evenodd" stroke="#ff0000" stroke-width="0.005" stroke-linecap="butt" stroke-linejoin="miter" stroke-miterlimit="10" stroke-dasharray="" stroke-dashoffset="0" font-family="none" font-weight="none" font-size="none" text-anchor="none" style="mix-blend-mode: normal"><path d="M0,3v-3h3v3zM0.71502,0.87152c0.01749,0.01924 0.03498,0.06448 0.03498,0.09048v0.026c0,0.026 -0.01838,0.07038 -0.03677,0.08877l-0.02518,0.02518c-0.01903,0.01903 -0.05605,0.01805 -0.07405,-0.00195l-0.01921,-0.02135c-0.01739,-0.01933 -0.03479,-0.06465 -0.03479,-0.09065v-0.026c0,-0.026 0.01646,-0.07212 0.03293,-0.09225l0.02107,-0.02575c0.018,-0.022 0.05512,-0.02297 0.07424,-0.00193zM0.69,1.552c0,0.014 -0.014,0.028 -0.028,0.028h-0.014c-0.014,0 -0.028,-0.014 -0.028,-0.028v-0.094c0,-0.014 0.014,-0.028 0.028,-0.028h0.014c0.014,0 0.028,0.014 0.028,0.028zM0.582,1.178c0.014,0.016 0.01982,0.05162 0.01165,0.07125l-0.01946,0.04671c-0.00709,0.01702 -0.02818,0.02204 -0.04218,0.01004l-0.014,-0.012c-0.014,-0.012 -0.0218,-0.04136 -0.0156,-0.05873l0.0233,-0.06523c0.00715,-0.02002 0.0283,-0.02404 0.0423,-0.00804zM0.8076,1.23527c0.0062,0.01736 -0.0016,0.04673 -0.0156,0.05873l-0.014,0.012c-0.014,0.012 -0.03509,0.00698 -0.04218,-0.01004l-0.01946,-0.04671c-0.00818,-0.01962 -0.00235,-0.05525 0.01165,-0.07125l0.014,-0.016c0.014,-0.016 0.03515,-0.01198 0.0423,0.00804zM0.792,0.656c0.014,0.012 0.02138,0.04121 0.01476,0.05842l-0.02255,0.05862c-0.00711,0.01848 -0.02821,0.02296 -0.04221,0.00896l-0.014,-0.014c-0.014,-0.014 -0.02039,-0.04628 -0.01277,-0.06455l0.02059,-0.04941c0.00709,-0.01702 0.02818,-0.02204 0.04218,-0.01004zM0.5924,0.69129c0.0088,0.01935 0.0036,0.05471 -0.0104,0.07071l-0.014,0.016c-0.014,0.016 -0.03563,0.01216 -0.04326,-0.00769l-0.0215,-0.05589c-0.00662,-0.01721 0.00076,-0.04642 0.01476,-0.05842l0.014,-0.012c0.014,-0.012 0.03563,-0.00721 0.04326,0.00957zM0.66406,1.33514c0.00297,0.00743 -0.00206,0.01486 -0.01006,0.01486h-0.008c-0.008,0 -0.01303,-0.00743 -0.01006,-0.01486l0.00606,-0.01514c0.004,-0.01 0.012,-0.01 0.016,0zM0.658,0.62c-0.004,0.01 -0.012,0.01 -0.016,0l-0.00606,-0.01514c-0.00297,-0.00743 0.00206,-0.01486 0.01006,-0.01486h0.008c0.008,0 0.01303,0.00743 0.01006,0.01486zM0.71323,1.93323c0.01838,0.01838 0.03677,0.06277 0.03677,0.08877v0.026c0,0.026 -0.01749,0.07124 -0.03498,0.09048l-0.02678,0.02946c-0.01912,0.02103 -0.05624,0.02007 -0.07424,-0.00193l-0.02107,-0.02575c-0.01646,-0.02012 -0.03293,-0.06625 -0.03293,-0.09225v-0.026c0,-0.026 0.01739,-0.07133 0.03479,-0.09065l0.01921,-0.02135c0.018,-0.02 0.05503,-0.02097 0.07405,-0.00195zM0.582,2.248c0.014,0.016 0.0192,0.05135 0.0104,0.07071l-0.01714,0.03772c-0.00763,0.01679 -0.02926,0.02157 -0.04326,0.00957l-0.014,-0.012c-0.014,-0.012 -0.02138,-0.04121 -0.01476,-0.05842l0.0215,-0.05589c0.00763,-0.01984 0.02926,-0.02369 0.04326,-0.00769zM0.80676,2.29558c0.00662,0.01721 -0.00076,0.04642 -0.01476,0.05842l-0.014,0.012c-0.014,0.012 -0.03509,0.00698 -0.04218,-0.01004l-0.02059,-0.04941c-0.00761,-0.01828 -0.00123,-0.05055 0.01277,-0.06455l0.014,-0.014c0.014,-0.014 0.03511,-0.00952 0.04221,0.00896zM0.792,1.716c0.014,0.012 0.0218,0.04136 0.0156,0.05873l-0.0233,0.06523c-0.00715,0.02002 -0.0283,0.02404 -0.0423,0.00804l-0.014,-0.016c-0.014,-0.016 -0.01982,-0.05162 -0.01165,-0.07125l0.01946,-0.04671c0.00709,-0.01702 0.02818,-0.02204 0.04218,-0.01004zM0.59365,1.76075c0.00818,0.01962 0.00235,0.05525 -0.01165,0.07125l-0.014,0.016c-0.014,0.016 -0.03515,0.01198 -0.0423,-0.00804l-0.0233,-0.06523c-0.0062,-0.01736 0.0016,-0.04673 0.0156,-0.05873l0.014,-0.012c0.014,-0.012 0.03509,-0.00698 0.04218,0.01004zM0.66406,2.40514c0.00297,0.00743 -0.00206,0.01486 -0.01006,0.01486h-0.008c-0.008,0 -0.01303,-0.00743 -0.01006,-0.01486l0.00606,-0.01514c0.004,-0.01 0.012,-0.01 0.016,0zM0.658,1.69c-0.004,0.01 -0.012,0.01 -0.016,0l-0.00606,-0.01514c-0.00297,-0.00743 0.00206,-0.01486 0.01006,-0.01486h0.008c0.008,0 0.01303,0.00743 0.01006,0.01486zM1.13707,0.86975c0.01646,0.02012 0.03293,0.06625 0.03293,0.09225v0.026c0,0.026 -0.01739,0.07133 -0.03479,0.09065l-0.01921,0.02135c-0.018,0.02 -0.05503,0.02097 -0.07405,0.00195l-0.02518,-0.02518c-0.01838,-0.01838 -0.03677,-0.06277 -0.03677,-0.08877v-0.026c0,-0.026 0.01749,-0.07124 0.03498,-0.09048l0.02678,-0.02946c0.01912,-0.02103 0.05624,-0.02007 0.07424,0.00193zM1.12,1.548c0,0.016 -0.016,0.032 -0.032,0.032h-0.016c-0.016,0 -0.032,-0.016 -0.032,-0.032v-0.086c0,-0.016 0.016,-0.032 0.032,-0.032h0.016c0.016,0 0.032,0.016 0.032,0.032zM0.9,0.982c0,0.014 -0.014,0.028 -0.028,0.028h-0.014c-0.014,0 -0.028,-0.014 -0.028,-0.028v-0.024c0,-0.014 0.014,-0.028 0.028,-0.028h0.014c0.014,0 0.028,0.014 0.028,0.028zM1.33,0.978c0,0.016 -0.016,0.032 -0.032,0.032h-0.016c-0.016,0 -0.032,-0.016 -0.032,-0.032v-0.016c0,-0.016 0.016,-0.032 0.032,-0.032h0.016c0.016,0 0.032,0.016 0.032,0.032zM1.002,1.178c0.014,0.016 0.0192,0.05135 0.0104,0.07071l-0.01817,0.03997c-0.00712,0.01566 -0.02824,0.02133 -0.04224,0.01133l-0.014,-0.01c-0.014,-0.01 -0.02221,-0.0362 -0.01643,-0.0524l0.02413,-0.06755c0.00715,-0.02002 0.0283,-0.02404 0.0423,-0.00804zM1.22987,1.23454c0.00507,0.01773 -0.00387,0.04746 -0.01787,0.05946l-0.014,0.012c-0.014,0.012 -0.03383,0.00651 -0.03966,-0.01099l-0.01489,-0.04468c-0.00672,-0.02017 0.00055,-0.05634 0.01455,-0.07234l0.014,-0.016c0.014,-0.016 0.03384,-0.01156 0.03968,0.00888zM1.212,0.656c0.014,0.012 0.02293,0.04173 0.01787,0.05946l-0.01819,0.06366c-0.00584,0.02044 -0.02568,0.02488 -0.03968,0.00888l-0.014,-0.016c-0.014,-0.016 -0.02128,-0.05217 -0.01455,-0.07234l0.01489,-0.04468c0.00583,-0.01749 0.02566,-0.02299 0.03966,-0.01099zM1.01477,0.70345c0.00761,0.01828 0.00123,0.05055 -0.01277,0.06455l-0.014,0.014c-0.014,0.014 -0.03511,0.00952 -0.04221,-0.00896l-0.02255,-0.05862c-0.00662,-0.01721 0.00076,-0.04642 0.01476,-0.05842l0.014,-0.012c0.014,-0.012 0.03509,-0.00698 0.04218,0.01004zM1.09284,1.33569c0.00358,0.00716 -0.00084,0.01431 -0.00884,0.01431h-0.008c-0.008,0 -0.01242,-0.00716 -0.00884,-0.01431l0.00484,-0.00969c0.004,-0.008 0.012,-0.008 0.016,0zM1.088,0.614c-0.004,0.008 -0.012,0.008 -0.016,0l-0.00484,-0.00969c-0.00358,-0.00716 0.00084,-0.01431 0.00884,-0.01431h0.008c0.008,0 0.01242,0.00716 0.00884,0.01431zM0.878,1.132c-0.004,0.014 -0.012,0.014 -0.016,0l-0.0076,-0.02662c-0.0022,-0.00769 0.0036,-0.01538 0.0116,-0.01538h0.008c0.008,0 0.0138,0.00769 0.0116,0.01538zM1.298,1.126c-0.004,0.012 -0.012,0.012 -0.016,0l-0.00694,-0.02082c-0.00253,-0.00759 0.00294,-0.01518 0.01094,-0.01518h0.008c0.008,0 0.01347,0.00759 0.01094,0.01518zM1.30494,0.83482c0.00253,0.00759 -0.00294,0.01518 -0.01094,0.01518h-0.008c-0.008,0 -0.01347,-0.00759 -0.01094,-0.01518l0.00694,-0.02082c0.004,-0.012 0.012,-0.012 0.016,0zM0.8856,0.83462c0.0022,0.00769 -0.0036,0.01538 -0.0116,0.01538h-0.008c-0.008,0 -0.0138,-0.00769 -0.0116,-0.01538l0.0076,-0.02662c0.004,-0.014 0.012,-0.014 0.016,0zM0.924,1.372c0.018,0.014 0.036,0.0508 0.036,0.07361v0.11879c0,0.0228 -0.018,0.05961 -0.036,0.07361l-0.018,0.014c-0.018,0.014 -0.05381,0.01375 -0.07161,-0.00049l-0.02439,-0.01951c-0.02,-0.016 -0.04,-0.05761 -0.04,-0.08322v-0.08755c0,-0.02561 0.02,-0.06722 0.04,-0.08322l0.02439,-0.01951c0.01781,-0.01425 0.05361,-0.01449 0.07161,-0.00049zM1.35,1.378c0.02,0.016 0.04,0.05761 0.04,0.08322v0.08755c0,0.02561 -0.02,0.06722 -0.04,0.08322l-0.02439,0.01951c-0.01781,0.01425 -0.05361,0.01449 -0.07161,0.00049l-0.018,-0.014c-0.018,-0.014 -0.036,-0.0508 -0.036,-0.07361v-0.11879c0,-0.0228 0.018,-0.05961 0.036,-0.07361l0.018,-0.014c0.018,-0.014 0.05381,-0.01375 0.07161,0.00049zM1.13521,1.93135c0.01739,0.01933 0.03479,0.06465 0.03479,0.09065v0.026c0,0.026 -0.01646,0.07212 -0.03293,0.09225l-0.02107,0.02575c-0.018,0.022 -0.05512,0.02297 -0.07424,0.00193l-0.02678,-0.02946c-0.01749,-0.01924 -0.03498,-0.06448 -0.03498,-0.09048v-0.026c0,-0.026 0.01838,-0.07038 0.03677,-0.08877l0.02518,-0.02518c0.01903,-0.01903 0.05605,-0.01805 0.07405,0.00195zM0.9,2.052c0,0.014 -0.014,0.028 -0.028,0.028h-0.014c-0.014,0 -0.028,-0.014 -0.028,-0.028v-0.024c0,-0.014 0.014,-0.028 0.028,-0.028h0.014c0.014,0 0.028,0.014 0.028,0.028zM1.33,2.048c0,0.016 -0.016,0.032 -0.032,0.032h-0.016c-0.016,0 -0.032,-0.016 -0.032,-0.032v-0.016c0,-0.016 0.016,-0.032 0.032,-0.032h0.016c0.016,0 0.032,0.016 0.032,0.032zM1.002,2.242c0.014,0.014 0.02039,0.04628 0.01277,0.06455l-0.02059,0.04941c-0.00709,0.01702 -0.02818,0.02204 -0.04218,0.01004l-0.014,-0.012c-0.014,-0.012 -0.02138,-0.04121 -0.01476,-0.05842l0.02255,-0.05862c0.00711,-0.01848 0.02821,-0.02296 0.04221,-0.00896zM1.22987,2.29454c0.00507,0.01773 -0.00387,0.04746 -0.01787,0.05946l-0.014,0.012c-0.014,0.012 -0.03383,0.00651 -0.03966,-0.01099l-0.01489,-0.04468c-0.00672,-0.02017 0.00055,-0.05634 0.01455,-0.07234l0.014,-0.016c0.014,-0.016 0.03384,-0.01156 0.03968,0.00888zM1.212,1.716c0.014,0.012 0.02293,0.04173 0.01787,0.05946l-0.01819,0.06366c-0.00584,0.02044 -0.02568,0.02488 -0.03968,0.00888l-0.014,-0.016c-0.014,-0.016 -0.02128,-0.05217 -0.01455,-0.07234l0.01489,-0.04468c0.00583,-0.01749 0.02566,-0.02299 0.03966,-0.01099zM1.0124,1.76129c0.0088,0.01935 0.0036,0.05471 -0.0104,0.07071l-0.014,0.016c-0.014,0.016 -0.03563,0.01216 -0.04326,-0.00769l-0.0215,-0.05589c-0.00662,-0.01721 0.00076,-0.04642 0.01476,-0.05842l0.014,-0.012c0.014,-0.012 0.03563,-0.00721 0.04326,0.00957zM1.09284,2.40569c0.00358,0.00716 -0.00084,0.01431 -0.00884,0.01431h-0.008c-0.008,0 -0.01242,-0.00716 -0.00884,-0.01431l0.00484,-0.00969c0.004,-0.008 0.012,-0.008 0.016,0zM1.088,1.684c-0.004,0.008 -0.012,0.008 -0.016,0l-0.00484,-0.00969c-0.00358,-0.00716 0.00084,-0.01431 0.00884,-0.01431h0.008c0.008,0 0.01242,0.00716 0.00884,0.01431zM0.878,2.202c-0.004,0.014 -0.012,0.014 -0.016,0l-0.0076,-0.02662c-0.0022,-0.00769 0.0036,-0.01538 0.0116,-0.01538h0.008c0.008,0 0.0138,0.00769 0.0116,0.01538zM1.298,2.196c-0.004,0.012 -0.012,0.012 -0.016,0l-0.00694,-0.02082c-0.00253,-0.00759 0.00294,-0.01518 0.01094,-0.01518h0.008c0.008,0 0.01347,0.00759 0.01094,0.01518zM1.30494,1.90482c0.00253,0.00759 -0.00294,0.01518 -0.01094,0.01518h-0.008c-0.008,0 -0.01347,-0.00759 -0.01094,-0.01518l0.00694,-0.02082c0.004,-0.012 0.012,-0.012 0.016,0zM0.8856,1.90462c0.0022,0.00769 -0.0036,0.01538 -0.0116,0.01538h-0.008c-0.008,0 -0.0138,-0.00769 -0.0116,-0.01538l0.0076,-0.02662c0.004,-0.014 0.012,-0.014 0.016,0zM1.56707,0.86975c0.01646,0.02012 0.03293,0.06625 0.03293,0.09225v0.026c0,0.026 -0.01739,0.07133 -0.03479,0.09065l-0.01921,0.02135c-0.018,0.02 -0.05503,0.02097 -0.07405,0.00195l-0.02518,-0.02518c-0.01838,-0.01838 -0.03677,-0.06277 -0.03677,-0.08877v-0.026c0,-0.026 0.01749,-0.07124 0.03498,-0.09048l0.02678,-0.02946c0.01912,-0.02103 0.05624,-0.02007 0.07424,0.00193zM1.54,1.552c0,0.014 -0.014,0.028 -0.028,0.028h-0.014c-0.014,0 -0.028,-0.014 -0.028,-0.028v-0.094c0,-0.014 0.014,-0.028 0.028,-0.028h0.014c0.014,0 0.028,0.014 0.028,0.028zM1.432,1.178c0.014,0.016 0.01982,0.05162 0.01165,0.07125l-0.01946,0.04671c-0.00709,0.01702 -0.02818,0.02204 -0.04218,0.01004l-0.014,-0.012c-0.014,-0.012 -0.0218,-0.04136 -0.0156,-0.05873l0.0233,-0.06523c0.00715,-0.02002 0.0283,-0.02404 0.0423,-0.00804zM1.6576,1.23527c0.0062,0.01736 -0.0016,0.04673 -0.0156,0.05873l-0.014,0.012c-0.014,0.012 -0.03509,0.00698 -0.04218,-0.01004l-0.01946,-0.04671c-0.00818,-0.01962 -0.00235,-0.05525 0.01165,-0.07125l0.014,-0.016c0.014,-0.016 0.03515,-0.01198 0.0423,0.00804zM1.642,0.656c0.014,0.012 0.02138,0.04121 0.01476,0.05842l-0.02255,0.05862c-0.00711,0.01848 -0.02821,0.02296 -0.04221,0.00896l-0.014,-0.014c-0.014,-0.014 -0.02039,-0.04628 -0.01277,-0.06455l0.02059,-0.04941c0.00709,-0.01702 0.02818,-0.02204 0.04218,-0.01004zM1.44477,0.70345c0.00761,0.01828 0.00123,0.05055 -0.01277,0.06455l-0.014,0.014c-0.014,0.014 -0.03511,0.00952 -0.04221,-0.00896l-0.02255,-0.05862c-0.00662,-0.01721 0.00076,-0.04642 0.01476,-0.05842l0.014,-0.012c0.014,-0.012 0.03509,-0.00698 0.04218,0.01004zM1.52257,1.33143c0.00371,0.00928 -0.00257,0.01857 -0.01257,0.01857h-0.01c-0.01,0 -0.01486,-0.00857 -0.00971,-0.01715l0.00863,-0.01438c0.00554,-0.00924 0.01508,-0.00847 0.01908,0.00153zM1.518,0.626c-0.004,0.012 -0.01366,0.01269 -0.01931,0.00137l-0.00974,-0.01948c-0.00447,-0.00894 0.00106,-0.01789 0.01106,-0.01789h0.01c0.01,0 0.01684,0.00949 0.01368,0.01897zM1.56521,1.93135c0.01739,0.01933 0.03479,0.06465 0.03479,0.09065v0.026c0,0.026 -0.01646,0.07212 -0.03293,0.09225l-0.02107,0.02575c-0.018,0.022 -0.05512,0.02297 -0.07424,0.00193l-0.02678,-0.02946c-0.01749,-0.01924 -0.03498,-0.06448 -0.03498,-0.09048v-0.026c0,-0.026 0.01838,-0.07038 0.03677,-0.08877l0.02518,-0.02518c0.01903,-0.01903 0.05605,-0.01805 0.07405,0.00195zM1.432,2.242c0.014,0.014 0.02039,0.04628 0.01277,0.06455l-0.02059,0.04941c-0.00709,0.01702 -0.02818,0.02204 -0.04218,0.01004l-0.014,-0.012c-0.014,-0.012 -0.02138,-0.04121 -0.01476,-0.05842l0.02255,-0.05862c0.00711,-0.01848 0.02821,-0.02296 0.04221,-0.00896zM1.65676,2.29558c0.00662,0.01721 -0.00076,0.04642 -0.01476,0.05842l-0.014,0.012c-0.014,0.012 -0.03509,0.00698 -0.04218,-0.01004l-0.02059,-0.04941c-0.00761,-0.01828 -0.00123,-0.05055 0.01277,-0.06455l0.014,-0.014c0.014,-0.014 0.03511,-0.00952 0.04221,0.00896zM1.642,1.716c0.014,0.012 0.0218,0.04136 0.0156,0.05873l-0.0233,0.06523c-0.00715,0.02002 -0.0283,0.02404 -0.0423,0.00804l-0.014,-0.016c-0.014,-0.016 -0.01982,-0.05162 -0.01165,-0.07125l0.01946,-0.04671c0.00709,-0.01702 0.02818,-0.02204 0.04218,-0.01004zM1.44365,1.76075c0.00818,0.01962 0.00235,0.05525 -0.01165,0.07125l-0.014,0.016c-0.014,0.016 -0.03515,0.01198 -0.0423,-0.00804l-0.0233,-0.06523c-0.0062,-0.01736 0.0016,-0.04673 0.0156,-0.05873l0.014,-0.012c0.014,-0.012 0.03509,-0.00698 0.04218,0.01004zM1.52368,2.40103c0.00316,0.00949 -0.00368,0.01897 -0.01368,0.01897h-0.01c-0.01,0 -0.01553,-0.00894 -0.01106,-0.01789l0.00974,-0.01948c0.00566,-0.01131 0.01531,-0.01063 0.01931,0.00137zM1.518,1.69c-0.004,0.01 -0.01354,0.01076 -0.01908,0.00153l-0.00863,-0.01438c-0.00514,-0.00857 -0.00029,-0.01715 0.00971,-0.01715h0.01c0.01,0 0.01629,0.00928 0.01257,0.01857zM1.99502,0.87152c0.01749,0.01924 0.03498,0.06448 0.03498,0.09048v0.026c0,0.026 -0.01838,0.07038 -0.03677,0.08877l-0.02518,0.02518c-0.01903,0.01903 -0.05605,0.01805 -0.07405,-0.00195l-0.01921,-0.02135c-0.01739,-0.01933 -0.03479,-0.06465 -0.03479,-0.09065v-0.026c0,-0.026 0.01646,-0.07212 0.03293,-0.09225l0.02107,-0.02575c0.018,-0.022 0.05512,-0.02297 0.07424,-0.00193zM1.97,1.548c0,0.016 -0.016,0.032 -0.032,0.032h-0.016c-0.016,0 -0.032,-0.016 -0.032,-0.032v-0.086c0,-0.016 0.016,-0.032 0.032,-0.032h0.016c0.016,0 0.032,0.016 0.032,0.032zM1.76,0.978c0,0.016 -0.016,0.032 -0.032,0.032h-0.016c-0.016,0 -0.032,-0.016 -0.032,-0.032v-0.016c0,-0.016 0.016,-0.032 0.032,-0.032h0.016c0.016,0 0.032,0.016 0.032,0.032zM2.18,0.982c0,0.014 -0.014,0.028 -0.028,0.028h-0.014c-0.014,0 -0.028,-0.014 -0.028,-0.028v-0.024c0,-0.014 0.014,-0.028 0.028,-0.028h0.014c0.014,0 0.028,0.014 0.028,0.028zM1.852,1.178c0.014,0.016 0.02128,0.05217 0.01455,0.07234l-0.01489,0.04468c-0.00583,0.01749 -0.02566,0.02299 -0.03966,0.01099l-0.014,-0.012c-0.014,-0.012 -0.02293,-0.04173 -0.01787,-0.05946l0.01819,-0.06366c0.00584,-0.02044 0.02568,-0.02488 0.03968,-0.00888zM2.08843,1.2376c0.00579,0.0162 -0.00243,0.0424 -0.01643,0.0524l-0.014,0.01c-0.014,0.01 -0.03512,0.00434 -0.04224,-0.01133l-0.01817,-0.03997c-0.0088,-0.01935 -0.0036,-0.05471 0.0104,-0.07071l0.014,-0.016c0.014,-0.016 0.03515,-0.01198 0.0423,0.00804zM2.072,0.656c0.014,0.012 0.02138,0.04121 0.01476,0.05842l-0.02255,0.05862c-0.00711,0.01848 -0.02821,0.02296 -0.04221,0.00896l-0.014,-0.014c-0.014,-0.014 -0.02039,-0.04628 -0.01277,-0.06455l0.02059,-0.04941c0.00709,-0.01702 0.02818,-0.02204 0.04218,-0.01004zM1.86655,0.69966c0.00672,0.02017 -0.00055,0.05634 -0.01455,0.07234l-0.014,0.016c-0.014,0.016 -0.03384,0.01156 -0.03968,-0.00888l-0.01819,-0.06366c-0.00507,-0.01773 0.00387,-0.04746 0.01787,-0.05946l0.014,-0.012c0.014,-0.012 0.03383,-0.00651 0.03966,0.01099zM1.94284,1.33569c0.00358,0.00716 -0.00084,0.01431 -0.00884,0.01431h-0.008c-0.008,0 -0.01242,-0.00716 -0.00884,-0.01431l0.00484,-0.00969c0.004,-0.008 0.012,-0.008 0.016,0zM1.938,0.614c-0.004,0.008 -0.012,0.008 -0.016,0l-0.00484,-0.00969c-0.00358,-0.00716 0.00084,-0.01431 0.00884,-0.01431h0.008c0.008,0 0.01242,0.00716 0.00884,0.01431zM1.728,1.126c-0.004,0.012 -0.012,0.012 -0.016,0l-0.00694,-0.02082c-0.00253,-0.00759 0.00294,-0.01518 0.01094,-0.01518h0.008c0.008,0 0.01347,0.00759 0.01094,0.01518zM2.148,1.132c-0.004,0.014 -0.012,0.014 -0.016,0l-0.0076,-0.02662c-0.0022,-0.00769 0.0036,-0.01538 0.0116,-0.01538h0.008c0.008,0 0.0138,0.00769 0.0116,0.01538zM2.1556,0.83462c0.0022,0.00769 -0.0036,0.01538 -0.0116,0.01538h-0.008c-0.008,0 -0.0138,-0.00769 -0.0116,-0.01538l0.0076,-0.02662c0.004,-0.014 0.012,-0.014 0.016,0zM1.73494,0.83482c0.00253,0.00759 -0.00294,0.01518 -0.01094,0.01518h-0.008c-0.008,0 -0.01347,-0.00759 -0.01094,-0.01518l0.00694,-0.02082c0.004,-0.012 0.012,-0.012 0.016,0zM1.774,1.372c0.018,0.014 0.036,0.0508 0.036,0.07361v0.11879c0,0.0228 -0.018,0.05961 -0.036,0.07361l-0.018,0.014c-0.018,0.014 -0.05381,0.01375 -0.07161,-0.00049l-0.02439,-0.01951c-0.02,-0.016 -0.04,-0.05761 -0.04,-0.08322v-0.08755c0,-0.02561 0.02,-0.06722 0.04,-0.08322l0.02439,-0.01951c0.01781,-0.01425 0.05361,-0.01449 0.07161,-0.00049zM2.2,1.378c0.02,0.016 0.04,0.05761 0.04,0.08322v0.08755c0,0.02561 -0.02,0.06722 -0.04,0.08322l-0.02439,0.01951c-0.01781,0.01425 -0.05361,0.01449 -0.07161,0.00049l-0.018,-0.014c-0.018,-0.014 -0.036,-0.0508 -0.036,-0.07361v-0.11879c0,-0.0228 0.018,-0.05961 0.036,-0.07361l0.018,-0.014c0.018,-0.014 0.05381,-0.01375 0.07161,0.00049zM1.99323,1.93323c0.01838,0.01838 0.03677,0.06277 0.03677,0.08877v0.026c0,0.026 -0.01749,0.07124 -0.03498,0.09048l-0.02678,0.02946c-0.01912,0.02103 -0.05624,0.02007 -0.07424,-0.00193l-0.02107,-0.02575c-0.01646,-0.02012 -0.03293,-0.06625 -0.03293,-0.09225v-0.026c0,-0.026 0.01739,-0.07133 0.03479,-0.09065l0.01921,-0.02135c0.018,-0.02 0.05503,-0.02097 0.07405,-0.00195zM1.76,2.048c0,0.016 -0.016,0.032 -0.032,0.032h-0.016c-0.016,0 -0.032,-0.016 -0.032,-0.032v-0.016c0,-0.016 0.016,-0.032 0.032,-0.032h0.016c0.016,0 0.032,0.016 0.032,0.032zM2.18,2.052c0,0.014 -0.014,0.028 -0.028,0.028h-0.014c-0.014,0 -0.028,-0.014 -0.028,-0.028v-0.024c0,-0.014 0.014,-0.028 0.028,-0.028h0.014c0.014,0 0.028,0.014 0.028,0.028zM1.852,2.238c0.014,0.016 0.02128,0.05217 0.01455,0.07234l-0.01489,0.04468c-0.00583,0.01749 -0.02566,0.02299 -0.03966,0.01099l-0.014,-0.012c-0.014,-0.012 -0.02293,-0.04173 -0.01787,-0.05946l0.01819,-0.06366c0.00584,-0.02044 0.02568,-0.02488 0.03968,-0.00888zM2.08676,2.29558c0.00662,0.01721 -0.00076,0.04642 -0.01476,0.05842l-0.014,0.012c-0.014,0.012 -0.03509,0.00698 -0.04218,-0.01004l-0.02059,-0.04941c-0.00761,-0.01828 -0.00123,-0.05055 0.01277,-0.06455l0.014,-0.014c0.014,-0.014 0.03511,-0.00952 0.04221,0.00896zM2.072,1.726c0.014,0.012 0.02138,0.04121 0.01476,0.05842l-0.0215,0.05589c-0.00763,0.01984 -0.02926,0.02369 -0.04326,0.00769l-0.014,-0.016c-0.014,-0.016 -0.0192,-0.05135 -0.0104,-0.07071l0.01714,-0.03772c0.00763,-0.01679 0.02926,-0.02157 0.04326,-0.00957zM1.86655,1.75966c0.00672,0.02017 -0.00055,0.05634 -0.01455,0.07234l-0.014,0.016c-0.014,0.016 -0.03384,0.01156 -0.03968,-0.00888l-0.01819,-0.06366c-0.00507,-0.01773 0.00387,-0.04746 0.01787,-0.05946l0.014,-0.012c0.014,-0.012 0.03383,-0.00651 0.03966,0.01099zM1.94284,2.40569c0.00358,0.00716 -0.00084,0.01431 -0.00884,0.01431h-0.008c-0.008,0 -0.01242,-0.00716 -0.00884,-0.01431l0.00484,-0.00969c0.004,-0.008 0.012,-0.008 0.016,0zM1.938,1.684c-0.004,0.008 -0.012,0.008 -0.016,0l-0.00484,-0.00969c-0.00358,-0.00716 0.00084,-0.01431 0.00884,-0.01431h0.008c0.008,0 0.01242,0.00716 0.00884,0.01431zM1.728,2.196c-0.004,0.012 -0.012,0.012 -0.016,0l-0.00694,-0.02082c-0.00253,-0.00759 0.00294,-0.01518 0.01094,-0.01518h0.008c0.008,0 0.01347,0.00759 0.01094,0.01518zM2.148,2.202c-0.004,0.014 -0.012,0.014 -0.016,0l-0.0076,-0.02662c-0.0022,-0.00769 0.0036,-0.01538 0.0116,-0.01538h0.008c0.008,0 0.0138,0.00769 0.0116,0.01538zM2.1556,1.90462c0.0022,0.00769 -0.0036,0.01538 -0.0116,0.01538h-0.008c-0.008,0 -0.0138,-0.00769 -0.0116,-0.01538l0.0076,-0.02662c0.004,-0.014 0.012,-0.014 0.016,0zM1.73494,1.90482c0.00253,0.00759 -0.00294,0.01518 -0.01094,0.01518h-0.008c-0.008,0 -0.01347,-0.00759 -0.01094,-0.01518l0.00694,-0.02082c0.004,-0.012 0.012,-0.012 0.016,0zM2.41707,0.86975c0.01646,0.02012 0.03293,0.06625 0.03293,0.09225v0.026c0,0.026 -0.01739,0.07133 -0.03479,0.09065l-0.01921,0.02135c-0.018,0.02 -0.05503,0.02097 -0.07405,0.00195l-0.02518,-0.02518c-0.01838,-0.01838 -0.03677,-0.06277 -0.03677,-0.08877v-0.026c0,-0.026 0.01749,-0.07124 0.03498,-0.09048l0.02678,-0.02946c0.01912,-0.02103 0.05624,-0.02007 0.07424,0.00193zM2.39,1.552c0,0.014 -0.014,0.028 -0.028,0.028h-0.014c-0.014,0 -0.028,-0.014 -0.028,-0.028v-0.094c0,-0.014 0.014,-0.028 0.028,-0.028h0.014c0.014,0 0.028,0.014 0.028,0.028zM2.282,1.178c0.014,0.016 0.01982,0.05162 0.01165,0.07125l-0.01946,0.04671c-0.00709,0.01702 -0.02818,0.02204 -0.04218,0.01004l-0.014,-0.012c-0.014,-0.012 -0.0218,-0.04136 -0.0156,-0.05873l0.0233,-0.06523c0.00715,-0.02002 0.0283,-0.02404 0.0423,-0.00804zM2.5076,1.23527c0.0062,0.01736 -0.0016,0.04673 -0.0156,0.05873l-0.014,0.012c-0.014,0.012 -0.03509,0.00698 -0.04218,-0.01004l-0.01946,-0.04671c-0.00818,-0.01962 -0.00235,-0.05525 0.01165,-0.07125l0.014,-0.016c0.014,-0.016 0.03515,-0.01198 0.0423,0.00804zM2.492,0.656c0.014,0.012 0.02138,0.04121 0.01476,0.05842l-0.0215,0.05589c-0.00763,0.01984 -0.02926,0.02369 -0.04326,0.00769l-0.014,-0.016c-0.014,-0.016 -0.0192,-0.05135 -0.0104,-0.07071l0.01714,-0.03772c0.00763,-0.01679 0.02926,-0.02157 0.04326,-0.00957zM2.29477,0.70345c0.00761,0.01828 0.00123,0.05055 -0.01277,0.06455l-0.014,0.014c-0.014,0.014 -0.03511,0.00952 -0.04221,-0.00896l-0.02255,-0.05862c-0.00662,-0.01721 0.00076,-0.04642 0.01476,-0.05842l0.014,-0.012c0.014,-0.012 0.03509,-0.00698 0.04218,0.01004zM2.37406,1.33514c0.00297,0.00743 -0.00206,0.01486 -0.01006,0.01486h-0.008c-0.008,0 -0.01303,-0.00743 -0.01006,-0.01486l0.00606,-0.01514c0.004,-0.01 0.012,-0.01 0.016,0zM2.368,0.62c-0.004,0.01 -0.012,0.01 -0.016,0l-0.00606,-0.01514c-0.00297,-0.00743 0.00206,-0.01486 0.01006,-0.01486h0.008c0.008,0 0.01303,0.00743 0.01006,0.01486zM2.41521,1.93135c0.01739,0.01933 0.03479,0.06465 0.03479,0.09065v0.026c0,0.026 -0.01646,0.07212 -0.03293,0.09225l-0.02107,0.02575c-0.018,0.022 -0.05512,0.02297 -0.07424,0.00193l-0.02678,-0.02946c-0.01749,-0.01924 -0.03498,-0.06448 -0.03498,-0.09048v-0.026c0,-0.026 0.01838,-0.07038 0.03677,-0.08877l0.02518,-0.02518c0.01903,-0.01903 0.05605,-0.01805 0.07405,0.00195zM2.282,2.242c0.014,0.014 0.02039,0.04628 0.01277,0.06455l-0.02059,0.04941c-0.00709,0.01702 -0.02818,0.02204 -0.04218,0.01004l-0.014,-0.012c-0.014,-0.012 -0.02138,-0.04121 -0.01476,-0.05842l0.02255,-0.05862c0.00711,-0.01848 0.02821,-0.02296 0.04221,-0.00896zM2.50676,2.29558c0.00662,0.01721 -0.00076,0.04642 -0.01476,0.05842l-0.014,0.012c-0.014,0.012 -0.03563,0.00721 -0.04326,-0.00957l-0.01714,-0.03772c-0.0088,-0.01935 -0.0036,-0.05471 0.0104,-0.07071l0.014,-0.016c0.014,-0.016 0.03563,-0.01216 0.04326,0.00769zM2.492,1.716c0.014,0.012 0.0218,0.04136 0.0156,0.05873l-0.0233,0.06523c-0.00715,0.02002 -0.0283,0.02404 -0.0423,0.00804l-0.014,-0.016c-0.014,-0.016 -0.01982,-0.05162 -0.01165,-0.07125l0.01946,-0.04671c0.00709,-0.01702 0.02818,-0.02204 0.04218,-0.01004zM2.29365,1.76075c0.00818,0.01962 0.00235,0.05525 -0.01165,0.07125l-0.014,0.016c-0.014,0.016 -0.03515,0.01198 -0.0423,-0.00804l-0.0233,-0.06523c-0.0062,-0.01736 0.0016,-0.04673 0.0156,-0.05873l0.014,-0.012c0.014,-0.012 0.03509,-0.00698 0.04218,0.01004zM2.37406,2.40514c0.00297,0.00743 -0.00206,0.01486 -0.01006,0.01486h-0.008c-0.008,0 -0.01303,-0.00743 -0.01006,-0.01486l0.00606,-0.01514c0.004,-0.01 0.012,-0.01 0.016,0zM2.368,1.69c-0.004,0.01 -0.012,0.01 -0.016,0l-0.00606,-0.01514c-0.00297,-0.00743 0.00206,-0.01486 0.01006,-0.01486h0.008c0.008,0 0.01303,0.00743 0.01006,0.01486z"></path></g></svg>