<svg version="1.1" xmlns="http://www.w3.org/2000/svg" xmlns:xlink="http://www.w3.org/1999/xlink" width="3in" height="3in" viewBox="0 0 3.05 3.05"><g fill="#d3d3d3" fill-rule="evenodd" stroke="#ff0000" stroke-width="0.005" stroke-linecap="butt" stroke-linejoin="miter" stroke-miterlimit="10" stroke-dasharray="" stroke-dashoffset="0" font-family="none" font-weight="none" font-size="none" text-anchor="none" style="mix-blend-mode: normal"><path d="M0,3v-3h3v3zM1.7316,1.095c0,-0.25451 0.12677,-0.47941 0.32062,-0.615h0.47778v1.36347c-0.016,0.00102 -0.03214,0.00154 -0.0484,0.00154c-0.41421,0 -0.75,-0.33579 -0.75,-0.75zM1.06991,1.74132c0,0.35927 -0.25261,0.65954 -0.58991,0.73288l0,-1.46575c0.3373,0.07334 0.58991,0.37361 0.58991,0.73288zM1.32825,0.72513c-0.20801,0 -0.39371,-0.09554 -0.51561,-0.24513l1.03123,0c-0.1219,0.14959 -0.3076,0.24513 -0.51561,0.24513zM0.48,0.48l0.03427,0c-0.00902,0.02949 -0.02052,0.0579 -0.03427,0.08497zM1.26633,1.78359c0,-0.15943 0.12924,-0.28867 0.28867,-0.28867c0.15943,0 0.28867,0.12924 0.28867,0.28867c0,0.15943 -0.12924,0.28867 -0.28867,0.28867c-0.15943,0 -0.28867,-0.12924 -0.28867,-0.28867zM0.97966,1.12986c0,-0.11912 0.09657,-0.21569 0.21569,-0.21569c0.11912,0 0.21569,0.09657 0.21569,0.21569c0,0.11912 -0.09657,0.21569 -0.21569,0.21569c-0.11912,0 -0.21569,-0.09657 -0.21569,-0.21569zM0.53459,0.75506c0,-0.05719 0.04637,-0.10356 0.10356,-0.10356c0.05719,0 0.10356,0.04637 0.10356,0.10356c0,0.05719 -0.04637,0.10356 -0.10356,0.10356c-0.05719,0 -0.10356,-0.04637 -0.10356,-0.10356zM1.92172,1.96868c0,-0.05173 0.04193,-0.09366 0.09366,-0.09366c0.05173,0 0.09366,0.04193 0.09366,0.09366c0,0.05173 -0.04193,0.09366 -0.09366,0.09366c-0.05173,0 -0.09366,-0.04193 -0.09366,-0.09366zM0.82786,0.89055c0,-0.03258 0.02641,-0.05899 0.05899,-0.05899c0.03258,0 0.05899,0.02641 0.05899,0.05899c0,0.03258 -0.02641,0.05899 -0.05899,0.05899c-0.03258,0 -0.05899,-0.02641 -0.05899,-0.05899zM2.52349,1.98162c0,-0.00802 0.00239,-0.01549 0.00651,-0.02172v0.04343c-0.00411,-0.00623 -0.00651,-0.01369 -0.00651,-0.02172zM1.54776,1.2179c0,-0.02179 0.01767,-0.03946 0.03946,-0.03946c0.02179,0 0.03946,0.01767 0.03946,0.03946c0,0.02179 -0.01767,0.03946 -0.03946,0.03946c-0.02179,0 -0.03946,-0.01767 -0.03946,-0.03946zM2.29676,1.99133c0,-0.01837 0.01489,-0.03326 0.03326,-0.03326c0.01837,0 0.03326,0.01489 0.03326,0.03326c0,0.01837 -0.01489,0.03326 -0.03326,0.03326c-0.01837,0 -0.03326,-0.01489 -0.03326,-0.03326zM1.55187,0.82013c0,-0.01837 0.01489,-0.03326 0.03326,-0.03326c0.01837,0 0.03326,0.01489 0.03326,0.03326c0,0.01837 -0.01489,0.03326 -0.03326,0.03326c-0.01837,0 -0.03326,-0.01489 -0.03326,-0.03326zM1.49689,0.99795c0,-0.01695 0.01374,-0.03069 0.03069,-0.03069c0.01695,0 0.03069,0.01374 0.03069,0.03069c0,0.01695 -0.01374,0.03069 -0.03069,0.03069c-0.01695,0 -0.03069,-0.01374 -0.03069,-0.03069z"></path></g></svg>