<svg version="1.1" xmlns="http://www.w3.org/2000/svg" xmlns:xlink="http://www.w3.org/1999/xlink" width="3in" height="3in" viewBox="0 0 3.05 3.05"><g fill="#d3d3d3" fill-rule="evenodd" stroke="#ff0000" stroke-width="0.005" stroke-linecap="butt" stroke-linejoin="miter" stroke-miterlimit="10" stroke-dasharray="" stroke-dashoffset="0" font-family="none" font-weight="none" font-size="none" text-anchor="none" style="mix-blend-mode: normal"><path d="M0,3v-3h3v3zM1.74505,1.34255c0.01752,0.00369 0.04305,0.02339 0.05106,0.03941l0.00801,0.01602c0.00801,0.01602 0.0068,0.04739 -0.00241,0.06274l-0.01761,0.02935c-0.01201,0.02002 -0.04095,0.02396 -0.05788,0.00788l-0.15403,-0.14633c-0.00616,-0.00585 -0.00631,-0.01771 -0.0003,-0.02371l0.00601,-0.00601c0.00601,-0.00601 0.02032,-0.01026 0.02864,-0.00851zM1.528,0.92196c0.00601,0.004 0.00973,0.01486 0.00745,0.0217l-0.01345,0.04036c-0.00601,0.01802 -0.01201,0.01704 -0.01201,-0.00195v-0.05769c0,-0.00722 0.00601,-0.01043 0.01201,-0.00643zM2.43004,1.24212c0,0.004 -0.004,0.00801 -0.00801,0.00801h-0.004c-0.004,0 -0.00945,-0.00374 -0.01088,-0.00747l-0.02716,-0.0706c-0.01001,-0.02603 -0.0068,-0.0766 0.00642,-0.10116l0.0156,-0.02897c0.01401,-0.02603 0.02803,-0.02249 0.02803,0.00707zM2.15038,1.69083c-0.01517,0.03967 -0.07238,0.07333 -0.11442,0.06732l-0.10478,-0.01497c-0.01067,-0.00152 -0.02535,-0.01306 -0.02935,-0.02307l-0.004,-0.01001c-0.004,-0.01001 -0.00215,-0.02907 0.00371,-0.03812l0.05435,-0.084c0.02202,-0.03403 0.08219,-0.0818 0.12033,-0.09553l0.07387,-0.02659c0.05005,-0.01802 0.0811,0.01365 0.0621,0.06334zM2.24226,0.90388c-0.01115,0.01812 -0.03632,0.02023 -0.05034,0.00422l-0.01401,-0.01602c-0.01401,-0.01602 -0.01526,-0.04906 -0.00249,-0.06608l0.08592,-0.11456c0.00433,-0.00577 0.01467,-0.01555 0.02067,-0.01956l0.00601,-0.004c0.00601,-0.004 0.01923,-0.00801 0.02645,-0.00801h0.03361c0.01602,0 0.02364,0.01364 0.01524,0.02728zM1.64044,2.37756c0.00981,0.02625 -0.0084,0.05251 -0.03643,0.05251h-0.05107c-0.01651,0 -0.02901,-0.01602 -0.02501,-0.03203l0.004,-0.01602c0.004,-0.01602 0.0211,-0.04209 0.0342,-0.05214l0.01585,-0.01217c0.01401,-0.01076 0.03421,-0.00497 0.0404,0.01158zM2.11766,2.41827c0.00118,0.00589 -0.00365,0.01178 -0.00966,0.01178h-0.00601c-0.00601,0 -0.01201,-0.00601 -0.01201,-0.01201v-0.05911c0,-0.00448 0.002,-0.01296 0.004,-0.01696l0.002,-0.004c0.002,-0.004 0.00488,-0.00362 0.00576,0.00077zM1.99335,1.30557c0.00333,0.00222 0.00266,0.00444 -0.00134,0.00444h-0.004c-0.004,0 -0.0098,-0.00358 -0.01159,-0.00716l-0.00242,-0.00485c-0.002,-0.004 -0.00028,-0.00552 0.00345,-0.00304zM1.61607,1.66899c0.022,0.02054 0.01397,0.04307 -0.01606,0.04507l-0.03016,0.00201c-0.02996,0.002 -0.05993,-0.02603 -0.05993,-0.05606v-0.03003c0,-0.03003 0.02195,-0.03957 0.04391,-0.01908zM2.43004,1.69782c0,0.01614 -0.01602,0.03428 -0.03203,0.03629l-0.01602,0.002c-0.01602,0.002 -0.02652,-0.01116 -0.021,-0.02633l0.04031,-0.11086c0.01437,-0.03951 0.02874,-0.03698 0.02874,0.00506zM2.41323,2.36919c0.00842,0.00541 0.01684,0.02084 0.01684,0.03085v0.01001c0,0.01001 -0.01001,0.02002 -0.02002,0.02002h-0.04605c-0.02202,0 -0.04866,-0.02153 -0.05327,-0.04307l-0.00879,-0.04102c-0.00601,-0.02803 0.0121,-0.04056 0.03621,-0.02506zM2.42681,2.12775c0.00164,0.00115 0.00327,0.00431 0.00327,0.00631v0.002c0,0.002 -0.00168,0.00292 -0.00336,0.00183l-0.16009,-0.10358c-0.00336,-0.00218 -0.00672,-0.00835 -0.00672,-0.01236v-0.004c0,-0.004 0.00327,-0.0057 0.00654,-0.00339zM1.58201,0.57192c0.02402,0.004 0.04805,0.03236 0.04805,0.05672v0.06774c0,0.02686 -0.02402,0.04171 -0.04805,0.0297l-0.02552,-0.01276c-0.02328,-0.01164 -0.04656,-0.0493 -0.04656,-0.07533v-0.02937c0,-0.02436 0.02402,-0.04471 0.04805,-0.0407zM1.87001,2.34397c0.01001,0.00801 0.02002,0.02884 0.02002,0.04165v0.04043c0,0.002 -0.002,0.004 -0.004,0.004h-0.002c-0.002,0 -0.00469,-0.00188 -0.00537,-0.00376l-0.02991,-0.08225c-0.00438,-0.01205 0.00125,-0.01609 0.01126,-0.00808zM2.00205,0.67195c0.01401,0.004 0.01908,0.01951 0.01013,0.03102l-0.0444,0.05709c-0.00389,0.005 -0.01378,0.012 -0.01979,0.014l-0.00601,0.002c-0.00601,0.002 -0.01822,0.00276 -0.02443,0.00152l-0.01761,-0.00352c-0.01001,-0.002 -0.01402,-0.01226 -0.00801,-0.02052l0.05093,-0.07002c0.00857,-0.01179 0.03116,-0.01957 0.04517,-0.01557zM1.63644,2.03716c-0.00323,0.00646 -0.01246,0.00891 -0.01847,0.0049l-0.00601,-0.004c-0.00601,-0.004 -0.01267,-0.0152 -0.01332,-0.02239l-0.0047,-0.05169c-0.002,-0.02202 0.01802,-0.04605 0.04004,-0.04805l0.02202,-0.002c0.02202,-0.002 0.03415,0.01577 0.02427,0.03555zM2.1544,1.14439c0.00283,0.00283 0.00566,0.00967 0.00566,0.01367v0.004c0,0.004 -0.00346,0.00599 -0.00692,0.00397l-0.08899,-0.05191c-0.0121,-0.00706 -0.02421,-0.02814 -0.02421,-0.04215v-0.01401c0,-0.01401 0.00991,-0.01812 0.01982,-0.00821zM2.01065,1.96202c0.01973,0.00395 0.04146,0.02791 0.04346,0.04793l0.002,0.02002c0.002,0.02002 -0.00946,0.05499 -0.02291,0.06995l-0.02714,0.03015c-0.01802,0.02002 -0.05869,0.02548 -0.08135,0.01091l-0.04211,-0.02707c-0.02636,-0.01695 -0.0387,-0.06192 -0.02469,-0.08995l0.01465,-0.0293c0.0137,-0.02739 0.05742,-0.04878 0.08745,-0.04277zM1.79403,0.96591c0.01802,0.002 0.03724,0.02209 0.03845,0.04018l0.00647,0.09702c0.00056,0.00847 -0.00488,0.02296 -0.01088,0.02896l-0.00601,0.00601c-0.00601,0.00601 -0.02025,0.00995 -0.02849,0.00789l-0.05559,-0.0139c-0.02402,-0.00601 -0.04066,-0.03565 -0.03328,-0.05928l0.02446,-0.07828c0.00541,-0.0173 0.02883,-0.03261 0.04685,-0.0306zM1.40348,1.31339c0.00831,-0.00175 0.02263,0.00251 0.02864,0.00851l0.00601,0.00601c0.00601,0.00601 0.00585,0.01786 -0.0003,0.02371l-0.15403,0.14633c-0.01693,0.01608 -0.04587,0.01214 -0.05788,-0.00788l-0.01761,-0.02935c-0.00921,-0.01535 -0.01042,-0.04673 -0.00241,-0.06274l0.00801,-0.01602c0.00801,-0.01602 0.03354,-0.03572 0.05106,-0.03941zM1.488,0.91795c0.00601,-0.004 0.01201,-0.00079 0.01201,0.00643v0.05769c0,0.01899 -0.00601,0.01997 -0.01201,0.00195l-0.01345,-0.04036c-0.00228,-0.00685 0.00144,-0.0177 0.00745,-0.0217zM0.57996,1.04899c0,-0.02956 0.01401,-0.03309 0.02803,-0.00707l0.0156,0.02897c0.01322,0.02455 0.01643,0.07513 0.00642,0.10116l-0.02716,0.0706c-0.00144,0.00374 -0.00688,0.00747 -0.01088,0.00747h-0.004c-0.004,0 -0.00801,-0.004 -0.00801,-0.00801zM0.79782,1.5292c-0.019,-0.04969 0.01205,-0.08135 0.0621,-0.06334l0.07387,0.02659c0.03814,0.01373 0.0983,0.0615 0.12033,0.09553l0.05435,0.084c0.00586,0.00905 0.00771,0.02811 0.00371,0.03812l-0.004,0.01001c-0.004,0.01001 -0.01868,0.02154 -0.02935,0.02307l-0.10478,0.01497c-0.04204,0.00601 -0.09925,-0.02766 -0.11442,-0.06732zM0.64667,0.70715c-0.00839,-0.01364 -0.00077,-0.02728 0.01524,-0.02728h0.03361c0.00722,0 0.02044,0.004 0.02645,0.00801l0.00601,0.004c0.00601,0.004 0.01634,0.01378 0.02067,0.01956l0.08592,0.11456c0.01277,0.01703 0.01152,0.05007 -0.00249,0.06608l-0.01401,0.01602c-0.01401,0.01602 -0.03918,0.01391 -0.05034,-0.00422zM1.38761,2.32929c0.00619,-0.01655 0.02639,-0.02234 0.0404,-0.01158l0.01585,0.01217c0.01309,0.01005 0.03019,0.03612 0.0342,0.05214l0.004,0.01602c0.004,0.01602 -0.0085,0.03203 -0.02501,0.03203h-0.05107c-0.02803,0 -0.04624,-0.02625 -0.03643,-0.05251zM0.90825,2.33873c0.00088,-0.00439 0.00376,-0.00478 0.00576,-0.00077l0.002,0.004c0.002,0.004 0.004,0.01248 0.004,0.01696v0.05911c0,0.00601 -0.00601,0.01201 -0.01201,0.01201h-0.00601c-0.00601,0 -0.01083,-0.00589 -0.00966,-0.01178zM1.03257,1.29496c0.00372,-0.00248 0.00545,-0.00096 0.00345,0.00304l-0.00242,0.00485c-0.00179,0.00358 -0.00759,0.00716 -0.01159,0.00716h-0.004c-0.004,0 -0.00468,-0.00222 -0.00134,-0.00444zM1.45617,1.61091c0.02195,-0.02049 0.04391,-0.01095 0.04391,0.01908v0.03003c0,0.03003 -0.02996,0.05806 -0.05993,0.05606l-0.03016,-0.00201c-0.03003,-0.002 -0.03806,-0.02454 -0.01606,-0.04507zM0.57996,1.60397c0,-0.04204 0.01437,-0.04457 0.02874,-0.00506l0.04031,0.11086c0.00552,0.01517 -0.00498,0.02834 -0.021,0.02633l-0.01602,-0.002c-0.01602,-0.002 -0.03203,-0.02014 -0.03203,-0.03629zM0.67185,2.32093c0.02411,-0.0155 0.04222,-0.00297 0.03621,0.02506l-0.00879,0.04102c-0.00461,0.02153 -0.03125,0.04307 -0.05327,0.04307h-0.04605c-0.01001,0 -0.02002,-0.01001 -0.02002,-0.02002v-0.01001c0,-0.01001 0.00842,-0.02543 0.01684,-0.03085zM0.74354,2.01455c0.00327,-0.00231 0.00654,-0.00061 0.00654,0.00339v0.004c0,0.004 -0.00336,0.01018 -0.00672,0.01236l-0.16009,0.10358c-0.00168,0.00109 -0.00336,0.00017 -0.00336,-0.00183v-0.002c0,-0.002 0.00164,-0.00516 0.00327,-0.00631zM1.45201,0.56791c0.02402,-0.004 0.04805,0.01635 0.04805,0.0407v0.02937c0,0.02603 -0.02328,0.06369 -0.04656,0.07533l-0.02552,0.01276c-0.02402,0.01201 -0.04805,-0.00284 -0.04805,-0.0297v-0.06774c0,-0.02436 0.02402,-0.05271 0.04805,-0.05672zM1.15,2.33596c0.01001,-0.00801 0.01564,-0.00397 0.01126,0.00808l-0.02991,0.08225c-0.00068,0.00188 -0.00337,0.00376 -0.00537,0.00376h-0.002c-0.002,0 -0.004,-0.002 -0.004,-0.004v-0.04043c0,-0.01282 0.01001,-0.03365 0.02002,-0.04165zM1.02197,0.66795c0.01401,-0.004 0.0366,0.00378 0.04517,0.01557l0.05093,0.07002c0.006,0.00826 0.002,0.01851 -0.00801,0.02052l-0.01761,0.00352c-0.00621,0.00124 -0.01842,0.00048 -0.02443,-0.00152l-0.00601,-0.002c-0.00601,-0.002 -0.0159,-0.009 -0.01979,-0.014l-0.0444,-0.05709c-0.00895,-0.0115 -0.00388,-0.02701 0.01013,-0.03102zM1.32972,1.94949c-0.00989,-0.01978 0.00224,-0.03755 0.02427,-0.03555l0.02202,0.002c0.02202,0.002 0.04204,0.02603 0.04004,0.04805l-0.0047,0.05169c-0.00065,0.00719 -0.00731,0.01838 -0.01332,0.02239l-0.00601,0.004c-0.00601,0.004 -0.01524,0.00155 -0.01847,-0.0049zM0.95024,1.04975c0.00991,-0.00991 0.01982,-0.0058 0.01982,0.00821v0.01401c0,0.01401 -0.0121,0.03509 -0.02421,0.04215l-0.08899,0.05191c-0.00346,0.00202 -0.00692,0.00003 -0.00692,-0.00397v-0.004c0,-0.004 0.00283,-0.01084 0.00566,-0.01367zM1.04998,1.9519c0.03003,-0.00601 0.07376,0.01538 0.08745,0.04277l0.01465,0.0293c0.01401,0.02803 0.00167,0.073 -0.02469,0.08995l-0.04211,0.02707c-0.02266,0.01456 -0.06333,0.00911 -0.08135,-0.01091l-0.02714,-0.03015c-0.01346,-0.01495 -0.02492,-0.04993 -0.02291,-0.06995l0.002,-0.02002c0.002,-0.02002 0.02373,-0.04399 0.04346,-0.04793zM1.23399,0.96391c0.01802,-0.002 0.04144,0.0133 0.04685,0.0306l0.02446,0.07828c0.00739,0.02364 -0.00925,0.05328 -0.03328,0.05928l-0.05559,0.0139c-0.00824,0.00206 -0.02249,-0.00189 -0.02849,-0.00789l-0.00601,-0.00601c-0.00601,-0.00601 -0.01145,-0.02049 -0.01088,-0.02896l0.00647,-0.09702c0.00121,-0.01809 0.02043,-0.03818 0.03845,-0.04018z"></path></g></svg>