<?xml version="1.0" encoding="UTF-8" standalone="no"?>
<!DOCTYPE svg PUBLIC "-//W3C//DTD SVG 1.1//EN" "http://www.w3.org/Graphics/SVG/1.1/DTD/svg11.dtd">
<svg width="100%" height="100%" viewBox="0 0 2550 3300" version="1.1" xmlns="http://www.w3.org/2000/svg" xmlns:xlink="http://www.w3.org/1999/xlink" xml:space="preserve" xmlns:serif="http://www.serif.com/" style="fill-rule:evenodd;clip-rule:evenodd;stroke-linecap:round;stroke-linejoin:round;stroke-miterlimit:10;">
    <g transform="matrix(4.16667,0,0,4.16667,-931.037,831.156)">
        <path d="M422.16,-99.812C422.16,-102.066 420.332,-103.891 418.078,-103.891C415.828,-103.891 414,-102.066 414,-99.812C414,-97.558 415.828,-95.73 418.078,-95.73C420.332,-95.73 422.16,-97.558 422.16,-99.812ZM422.16,-99.812L422.16,-99.812" style="fill:none;fill-rule:nonzero;stroke:black;stroke-width:0.23px;"/>
    </g>
    <g transform="matrix(4.16667,0,0,4.16667,-931.037,6321.16)">
        <path d="M465.121,-758.613C465.121,-760.867 463.293,-762.691 461.039,-762.691C458.785,-762.691 456.961,-760.867 456.961,-758.613C456.961,-756.359 458.785,-754.531 461.039,-754.531C463.293,-754.531 465.121,-756.359 465.121,-758.613ZM465.121,-758.613L465.121,-758.613" style="fill:none;fill-rule:nonzero;stroke:black;stroke-width:0.23px;"/>
    </g>
    <g transform="matrix(4.16667,0,0,4.16667,-931.037,5941.15)">
        <path d="M451.68,-713.012C451.68,-715.262 449.852,-717.09 447.602,-717.09C445.348,-717.09 443.52,-715.262 443.52,-713.012C443.52,-710.758 445.348,-708.93 447.602,-708.93C449.852,-708.93 451.68,-710.758 451.68,-713.012ZM451.68,-713.012L451.68,-713.012" style="fill:none;fill-rule:nonzero;stroke:black;stroke-width:0.23px;"/>
    </g>
    <g transform="matrix(4.16667,0,0,4.16667,-931.037,-0.597833)">
        <g transform="matrix(1,0,0,1,0,239.219)">
            <path d="M411.359,-193.891L406.078,-178.051L401.762,-161.731L398.398,-145.41L396.238,-128.848L394.801,-112.051L394.32,-95.25L394.801,-78.688L396.48,-61.891L398.879,-45.328" style="fill:none;fill-rule:nonzero;stroke:black;stroke-width:0.23px;"/>
        </g>
        <g transform="matrix(1,0,0,1,0,234.18)">
            <path d="M411.311,-188.946L492.238,-164.852L490.32,-150.692L489.121,-136.77L489.121,-122.61L490.078,-108.45L491.762,-94.532L494.641,-80.61L498.48,-66.93" style="fill:none;fill-rule:nonzero;stroke:black;stroke-width:0.23px;"/>
        </g>
        <g transform="matrix(1,0,0,1,0,588.418)">
            <path d="M505.68,-167.25L510,-190.047L513.359,-213.09L515.52,-236.367L516.961,-259.648L517.199,-282.93L516.48,-306.207L514.801,-329.488L512.398,-352.77L508.559,-375.809L504,-398.609L498.48,-421.168" style="fill:none;fill-rule:nonzero;stroke:black;stroke-width:0.23px;"/>
        </g>
        <g transform="matrix(1,0,0,1,0,1156.74)">
            <path d="M505.68,-735.57L499.199,-711.808L493.68,-688.047L488.879,-664.047L485.281,-639.808L482.641,-615.57L480.961,-591.09L480.48,-566.609L480.719,-542.129L482.16,-517.886L484.559,-493.41L487.922,-469.168L492.238,-445.168L497.52,-421.168" style="fill:none;fill-rule:nonzero;stroke:black;stroke-width:0.23px;"/>
        </g>
        <g transform="matrix(1,0,0,1,0,1530.66)">
            <path d="M411.363,-770.384C420.105,-747.188 445.996,-735.473 469.191,-744.216C489.816,-751.989 501.742,-773.595 497.332,-795.188" style="fill:none;fill-rule:nonzero;stroke:black;stroke-width:0.23px;"/>
        </g>
        <g transform="matrix(1,0,0,1,0,1439.46)">
            <path d="M410.879,-679.168L408.961,-687.328L406.559,-695.727L403.68,-703.648L400.078,-711.566L395.762,-719.008L391.199,-726.207L385.922,-732.926L380.16,-739.406L373.922,-745.406L367.441,-750.926L360.48,-755.969L353.281,-760.289" style="fill:none;fill-rule:nonzero;stroke:black;stroke-width:0.23px;stroke-linejoin:bevel;"/>
        </g>
        <g transform="matrix(0.443232,0.890734,0.896407,-0.440427,786.152,62.0725)">
            <path d="M322.028,-663.163C334.85,-671.821 351.647,-671.821 364.471,-663.163" style="fill:none;fill-rule:nonzero;stroke:black;stroke-width:0.23px;"/>
        </g>
        <g transform="matrix(1,0,0,1,0,1084.74)">
            <path d="M388.559,-641.008L377.039,-608.847L366.48,-576.449L356.879,-543.57L348.48,-510.687L341.039,-477.328L334.559,-443.73" style="fill:none;fill-rule:nonzero;stroke:black;stroke-width:0.23px;"/>
        </g>
        <g transform="matrix(1,0,0,1,0,637.621)">
            <path d="M388.559,-193.891L395.039,-212.371L400.32,-231.332L404.879,-250.293L408.48,-269.492L411.121,-288.93L412.801,-308.371L413.762,-327.812L413.52,-347.25L412.559,-366.93L410.398,-386.371L407.52,-405.57L403.68,-424.769L398.879,-443.73" style="fill:none;fill-rule:nonzero;stroke:black;stroke-width:0.23px;"/>
        </g>
    </g>
</svg>
