<?xml version="1.0" encoding="UTF-8" standalone="no"?>
<!-- Created with Inkscape (http://www.inkscape.org/) -->

<svg
   version="1.1"
   id="svg88190"
   width="793.70117"
   height="1122.5197"
   viewBox="0 0 793.70118 1122.5197"
   sodipodi:docname="BraPatternallsizes.pdf"
   inkscape:version="1.2.2 (b0a84865, 2022-12-01)"
   xmlns:inkscape="http://www.inkscape.org/namespaces/inkscape"
   xmlns:sodipodi="http://sodipodi.sourceforge.net/DTD/sodipodi-0.dtd"
   xmlns="http://www.w3.org/2000/svg"
   xmlns:svg="http://www.w3.org/2000/svg">
  <defs
     id="defs88194">
    <clipPath
       clipPathUnits="userSpaceOnUse"
       id="clipPath110422">
      <path
         d="M 0,0 H 595.2 V 841.68 H 0 Z"
         id="path110420" />
    </clipPath>
    <clipPath
       clipPathUnits="userSpaceOnUse"
       id="clipPath110480">
      <path
         d="M 0,0 H 595.2 V 841.68 H 0 Z"
         id="path110478" />
    </clipPath>
  </defs>
  <sodipodi:namedview
     id="namedview88192"
     pagecolor="#ffffff"
     bordercolor="#000000"
     borderopacity="0.25"
     inkscape:showpageshadow="2"
     inkscape:pageopacity="0.0"
     inkscape:pagecheckerboard="0"
     inkscape:deskcolor="#d1d1d1"
     showgrid="false"
     inkscape:zoom="0.58529044"
     inkscape:cx="7276.7291"
     inkscape:cy="544.17427"
     inkscape:window-width="1459"
     inkscape:window-height="877"
     inkscape:window-x="1080"
     inkscape:window-y="67"
     inkscape:window-maximized="0"
     inkscape:current-layer="g105752" />
  <g
     id="g110388"
     inkscape:groupmode="layer"
     inkscape:label="Page 17"
     transform="matrix(1.3333333,0,0,-1.3333333,1.8049814e-4,1122.5197)">
    <g
       id="g110416">
      <g
         id="g110418"
         clip-path="url(#clipPath110422)">
        <g
           id="g110424"
           transform="matrix(0.24,0,0,0.24,136.08,348)">
          <path
             d="M 17,0 C 17,9.388841 9.388841,17 0,17 -9.388841,17 -17,9.388841 -17,0 c 0,-9.388841 7.611159,-17 17,-17 9.388841,0 17,7.611159 17,17 z"
             style="fill:none;stroke:#000000;stroke-width:3;stroke-linecap:round;stroke-linejoin:round;stroke-miterlimit:10;stroke-dasharray:none;stroke-opacity:1"
             id="path110426" />
        </g>
        <g
           id="g110428"
           transform="matrix(0.24,0,0,0.24,248.64,392.88)">
          <path
             d="M 17,0 C 17,9.388841 9.388841,17 0,17 -9.388841,17 -17,9.388841 -17,0 c 0,-9.388841 7.611159,-17 17,-17 9.388841,0 17,7.611159 17,17 z"
             style="fill:none;stroke:#000000;stroke-width:3;stroke-linecap:round;stroke-linejoin:round;stroke-miterlimit:10;stroke-dasharray:none;stroke-opacity:1"
             id="path110430" />
        </g>
        <g
           id="g110432"
           transform="matrix(0.24,0,0,0.24,136.56,473.28)">
          <path
             d="M 17,0 C 17,9.388841 9.388841,17 0,17 -9.388841,17 -17,9.388841 -17,0 c 0,-9.388841 7.611159,-17 17,-17 9.388841,0 17,7.611159 17,17 z"
             style="fill:none;stroke:#000000;stroke-width:3;stroke-linecap:round;stroke-linejoin:round;stroke-miterlimit:10;stroke-dasharray:none;stroke-opacity:1"
             id="path110434" />
        </g>
        <g
           id="g110436"
           transform="matrix(0.24,0,0,0.24,251.52,430.8)">
          <path
             d="M 17,0 C 17,9.388841 9.388841,17 0,17 -9.388841,17 -17,9.388841 -17,0 c 0,-9.388841 7.611159,-17 17,-17 9.388841,0 17,7.611159 17,17 z"
             style="fill:none;stroke:#000000;stroke-width:3;stroke-linecap:round;stroke-linejoin:round;stroke-miterlimit:10;stroke-dasharray:none;stroke-opacity:1"
             id="path110438" />
        </g>
        <g
           id="g110440"
           transform="matrix(0.24,0,0,0.24,217.2,155.52)">
          <path
             d="M 17,0 C 17,9.388841 9.388841,17 0,17 -9.388841,17 -17,9.388841 -17,0 c 0,-9.388841 7.611159,-17 17,-17 9.388841,0 17,7.611159 17,17 z"
             style="fill:none;stroke:#000000;stroke-width:3;stroke-linecap:round;stroke-linejoin:round;stroke-miterlimit:10;stroke-dasharray:none;stroke-opacity:1"
             id="path110442" />
        </g>
        <g
           id="g110444"
           transform="matrix(0.24,0,0,0.24,200.88,556.56)">
          <path
             d="M 17,0 C 17,9.388841 9.388841,17 0,17 -9.388841,17 -17,9.388841 -17,0 c 0,-9.388841 7.611159,-17 17,-17 9.388841,0 17,7.611159 17,17 z"
             style="fill:none;stroke:#000000;stroke-width:3;stroke-linecap:round;stroke-linejoin:round;stroke-miterlimit:10;stroke-dasharray:none;stroke-opacity:1"
             id="path110446" />
        </g>
        <g
           id="g110448"
           transform="matrix(0.24,0,0,0.24,411.36,392.88)">
          <path
             d="M 17,0 C 17,9.388841 9.388841,17 0,17 -9.388841,17 -17,9.388841 -17,0 c 0,-9.388841 7.611159,-17 17,-17 9.388841,0 17,7.611159 17,17 z"
             style="fill:none;stroke:#000000;stroke-width:3;stroke-linecap:round;stroke-linejoin:round;stroke-miterlimit:10;stroke-dasharray:none;stroke-opacity:1"
             id="path110450" />
        </g>
        <g
           id="g110452"
           transform="matrix(0.24,0,0,0.24,270,644.16)">
          <path
             d="M 17,0 C 17,9.388841 9.388841,17 0,17 -9.388841,17 -17,9.388841 -17,0 c 0,-9.388841 7.611159,-17 17,-17 9.388841,0 17,7.611159 17,17 z"
             style="fill:none;stroke:#000000;stroke-width:3;stroke-linecap:round;stroke-linejoin:round;stroke-miterlimit:10;stroke-dasharray:none;stroke-opacity:1"
             id="path110454" />
        </g>
        <g
           id="g110456"
           transform="matrix(0.24,0,0,0.24,176.88,258.72)">
          <path
             d="M 17,0 C 17,9.388841 9.388841,17 0,17 -9.388841,17 -17,9.388841 -17,0 c 0,-9.388841 7.611159,-17 17,-17 9.388841,0 17,7.611159 17,17 z"
             style="fill:none;stroke:#000000;stroke-width:3;stroke-linecap:round;stroke-linejoin:round;stroke-miterlimit:10;stroke-dasharray:none;stroke-opacity:1"
             id="path110458" />
        </g>
      </g>
    </g>
    <g
       id="g110474">
      <g
         id="g110476"
         clip-path="url(#clipPath110480)">
        <g
           id="g110482"
           transform="matrix(0.24,0,0,0.24,248.64,392.88)">
          <path
             d="m 74.92245,12.75248 c -7.043,41.37853 -46.2964,69.21298 -87.67493,62.16997 -2.45588,-0.41801 -4.88973,-0.95652 -7.29272,-1.61358"
             style="fill:none;stroke:#000000;stroke-width:3;stroke-linecap:round;stroke-linejoin:round;stroke-miterlimit:10;stroke-dasharray:none;stroke-opacity:1"
             id="path110484" />
        </g>
        <g
           id="g110486"
           transform="scale(0.24)">
          <path
             d="M 1016,1710 539,1521"
             style="fill:none;stroke:#000000;stroke-width:3;stroke-linecap:round;stroke-linejoin:round;stroke-miterlimit:10;stroke-dasharray:none;stroke-opacity:1"
             id="path110488" />
        </g>
        <g
           id="g110490"
           transform="matrix(0.24,0,0,0.24,136.08,348)">
          <path
             d="M -27.36091,70.90402 C -65.65171,56.12812 -85.29368,13.61985 -71.72967,-25.11682"
             style="fill:none;stroke:#000000;stroke-width:3;stroke-linecap:round;stroke-linejoin:round;stroke-miterlimit:10;stroke-dasharray:none;stroke-opacity:1"
             id="path110492" />
        </g>
        <g
           id="g110494"
           transform="scale(0.24)">
          <path
             d="m 495,1424 60,-158 65,-158 69,-155"
             style="fill:none;stroke:#000000;stroke-width:3;stroke-linecap:round;stroke-linejoin:round;stroke-miterlimit:10;stroke-dasharray:none;stroke-opacity:1"
             id="path110496" />
        </g>
        <g
           id="g110498"
           transform="scale(0.24)">
          <path
             d="m 804,644 -24,79 -27,78 -31,76 -33,76"
             style="fill:none;stroke:#000000;stroke-width:3;stroke-linecap:round;stroke-linejoin:round;stroke-miterlimit:10;stroke-dasharray:none;stroke-opacity:1"
             id="path110500" />
        </g>
        <g
           id="g110502"
           transform="matrix(0.24,0,0,0.24,219.84,163.2)">
          <path
             d="m -112.2157,-36.49164 c 20.15379,-61.97501 86.73233,-95.87786 148.70734,-75.72406 9.67894,3.1475 18.90999,7.534 27.4633,13.05035"
             style="fill:none;stroke:#000000;stroke-width:3;stroke-linecap:round;stroke-linejoin:round;stroke-miterlimit:10;stroke-dasharray:none;stroke-opacity:1"
             id="path110504" />
        </g>
        <g
           id="g110506"
           transform="scale(0.24)">
          <path
             d="m 980,581 89,58 86,62 84,65 81,68 78,71 76,74"
             style="fill:none;stroke:#000000;stroke-width:3;stroke-linecap:round;stroke-linejoin:round;stroke-miterlimit:10;stroke-dasharray:none;stroke-opacity:1"
             id="path110508" />
        </g>
        <g
           id="g110510"
           transform="scale(0.24)">
          <path
             d="m 1473,980 38,38 35,41 34,42 31,44 29,45 26,47 25,48 21,49 20,51 16,51"
             style="fill:none;stroke:#000000;stroke-width:3;stroke-linecap:round;stroke-linejoin:bevel;stroke-miterlimit:10;stroke-dasharray:none;stroke-opacity:1"
             id="path110512" />
        </g>
        <g
           id="g110514"
           transform="matrix(0.24,0,0,0.24,232.08,396.48)">
          <path
             d="m 781.6895,-216.0615 c 51.7382,187.18403 34.5896,386.7194 -48.3283,562.3307"
             style="fill:none;stroke:#000000;stroke-width:3;stroke-linecap:round;stroke-linejoin:round;stroke-miterlimit:10;stroke-dasharray:none;stroke-opacity:1"
             id="path110516" />
        </g>
        <g
           id="g110518"
           transform="scale(0.24)">
          <path
             d="m 1701,1998 -71,128 -74,126 -77,124 -81,122 -83,120 -87,117"
             style="fill:none;stroke:#000000;stroke-width:3;stroke-linecap:round;stroke-linejoin:round;stroke-miterlimit:10;stroke-dasharray:none;stroke-opacity:1"
             id="path110520" />
        </g>
        <g
           id="g110522"
           transform="matrix(0.24,0,0,0.24,269.76,638.16)">
          <path
             d="M 103.3771,75.47957 C 61.69093,132.5732 -18.38595,145.0634 -75.47957,103.3771 -85.96735,95.71962 -95.2288,86.51073 -102.9459,76.06671"
             style="fill:none;stroke:#000000;stroke-width:3;stroke-linecap:round;stroke-linejoin:round;stroke-miterlimit:10;stroke-dasharray:none;stroke-opacity:1"
             id="path110524" />
        </g>
        <g
           id="g110526"
           transform="scale(0.24)">
          <path
             d="m 741,2362 76,89 72,92 68,95 64,98"
             style="fill:none;stroke:#000000;stroke-width:3;stroke-linecap:round;stroke-linejoin:round;stroke-miterlimit:10;stroke-dasharray:none;stroke-opacity:1"
             id="path110528" />
        </g>
        <g
           id="g110530"
           transform="scale(0.24)">
          <path
             d="m 741,2362 -51,-56 -47,-58 -45,-60 -41,-63 -38,-65 -34,-68 -30,-68 760,-259 -104,-15"
             style="fill:none;stroke:#000000;stroke-width:3;stroke-linecap:round;stroke-linejoin:round;stroke-miterlimit:10;stroke-dasharray:none;stroke-opacity:1"
             id="path110532" />
        </g>
        <g
           id="g110534"
           transform="scale(0.24)">
          <path
             d="M 0,0 V 3506"
             style="fill:none;stroke:#000000;stroke-width:3;stroke-linecap:round;stroke-linejoin:round;stroke-miterlimit:10;stroke-dasharray:none;stroke-opacity:1"
             id="path110536" />
        </g>
      </g>
    </g>
  </g>
</svg>
