<?xml version="1.0" encoding="UTF-8" standalone="no"?>
<!-- Created with Inkscape (http://www.inkscape.org/) -->

<svg
   version="1.1"
   id="svg88190"
   width="793.70117"
   height="1122.5197"
   viewBox="0 0 793.70118 1122.5197"
   sodipodi:docname="a cup left.svg"
   inkscape:version="1.2.2 (b0a84865, 2022-12-01)"
   xmlns:inkscape="http://www.inkscape.org/namespaces/inkscape"
   xmlns:sodipodi="http://sodipodi.sourceforge.net/DTD/sodipodi-0.dtd"
   xmlns="http://www.w3.org/2000/svg"
   xmlns:svg="http://www.w3.org/2000/svg">
  <defs
     id="defs88194">
    <clipPath
       clipPathUnits="userSpaceOnUse"
       id="clipPath111020">
      <path
         d="M 0,0 H 595.2 V 841.68 H 0 Z"
         id="path111018" />
    </clipPath>
    <clipPath
       clipPathUnits="userSpaceOnUse"
       id="clipPath111078">
      <path
         d="M 0,0 H 595.2 V 841.68 H 0 Z"
         id="path111076" />
    </clipPath>
  </defs>
  <sodipodi:namedview
     id="namedview88192"
     pagecolor="#ffffff"
     bordercolor="#000000"
     borderopacity="0.25"
     inkscape:showpageshadow="2"
     inkscape:pageopacity="0.0"
     inkscape:pagecheckerboard="0"
     inkscape:deskcolor="#d1d1d1"
     showgrid="false"
     inkscape:zoom="0.58529044"
     inkscape:cx="653.52169"
     inkscape:cy="609.0993"
     inkscape:window-width="1459"
     inkscape:window-height="877"
     inkscape:window-x="1080"
     inkscape:window-y="39"
     inkscape:window-maximized="0"
     inkscape:current-layer="g110986" />
  <g
     id="g110986"
     inkscape:groupmode="layer"
     inkscape:label="Page 18"
     transform="matrix(1.3333333,0,0,-1.3333333,1.3068338e-5,1122.5197)">
    <g
       id="g111014">
      <g
         id="g111016"
         clip-path="url(#clipPath111020)">
        <g
           id="g111022"
           transform="matrix(0.24,0,0,0.24,458.88,348)">
          <path
             d="M 17,0 C 17,9.388841 9.388841,17 0,17 -9.388841,17 -17,9.388841 -17,0 c 0,-9.388841 7.611159,-17 17,-17 9.388841,0 17,7.611159 17,17 z"
             style="fill:none;stroke:#000000;stroke-width:3;stroke-linecap:round;stroke-linejoin:round;stroke-miterlimit:10;stroke-dasharray:none;stroke-opacity:1"
             id="path111024" />
        </g>
        <g
           id="g111026"
           transform="matrix(0.24,0,0,0.24,346.32,392.88)">
          <path
             d="M 17,0 C 17,9.388841 9.388841,17 0,17 -9.388841,17 -17,9.388841 -17,0 c 0,-9.388841 7.611159,-17 17,-17 9.388841,0 17,7.611159 17,17 z"
             style="fill:none;stroke:#000000;stroke-width:3;stroke-linecap:round;stroke-linejoin:round;stroke-miterlimit:10;stroke-dasharray:none;stroke-opacity:1"
             id="path111028" />
        </g>
        <g
           id="g111030"
           transform="matrix(0.24,0,0,0.24,458.4,473.28)">
          <path
             d="M 17,0 C 17,9.388841 9.388841,17 0,17 -9.388841,17 -17,9.388841 -17,0 c 0,-9.388841 7.611159,-17 17,-17 9.388841,0 17,7.611159 17,17 z"
             style="fill:none;stroke:#000000;stroke-width:3;stroke-linecap:round;stroke-linejoin:round;stroke-miterlimit:10;stroke-dasharray:none;stroke-opacity:1"
             id="path111032" />
        </g>
        <g
           id="g111034"
           transform="matrix(0.24,0,0,0.24,343.44,430.8)">
          <path
             d="M 17,0 C 17,9.388841 9.388841,17 0,17 -9.388841,17 -17,9.388841 -17,0 c 0,-9.388841 7.611159,-17 17,-17 9.388841,0 17,7.611159 17,17 z"
             style="fill:none;stroke:#000000;stroke-width:3;stroke-linecap:round;stroke-linejoin:round;stroke-miterlimit:10;stroke-dasharray:none;stroke-opacity:1"
             id="path111036" />
        </g>
        <g
           id="g111038"
           transform="matrix(0.24,0,0,0.24,377.76,155.52)">
          <path
             d="M 17,0 C 17,9.388841 9.388841,17 0,17 -9.388841,17 -17,9.388841 -17,0 c 0,-9.388841 7.611159,-17 17,-17 9.388841,0 17,7.611159 17,17 z"
             style="fill:none;stroke:#000000;stroke-width:3;stroke-linecap:round;stroke-linejoin:round;stroke-miterlimit:10;stroke-dasharray:none;stroke-opacity:1"
             id="path111040" />
        </g>
        <g
           id="g111042"
           transform="matrix(0.24,0,0,0.24,394.08,556.56)">
          <path
             d="M 17,0 C 17,9.388841 9.388841,17 0,17 -9.388841,17 -17,9.388841 -17,0 c 0,-9.388841 7.611159,-17 17,-17 9.388841,0 17,7.611159 17,17 z"
             style="fill:none;stroke:#000000;stroke-width:3;stroke-linecap:round;stroke-linejoin:round;stroke-miterlimit:10;stroke-dasharray:none;stroke-opacity:1"
             id="path111044" />
        </g>
        <g
           id="g111046"
           transform="matrix(0.24,0,0,0.24,183.6,392.88)">
          <path
             d="M 17,0 C 17,9.388841 9.388841,17 0,17 -9.388841,17 -17,9.388841 -17,0 c 0,-9.388841 7.611159,-17 17,-17 9.388841,0 17,7.611159 17,17 z"
             style="fill:none;stroke:#000000;stroke-width:3;stroke-linecap:round;stroke-linejoin:round;stroke-miterlimit:10;stroke-dasharray:none;stroke-opacity:1"
             id="path111048" />
        </g>
        <g
           id="g111050"
           transform="matrix(0.24,0,0,0.24,324.96,644.16)">
          <path
             d="M 17,0 C 17,9.388841 9.388841,17 0,17 -9.388841,17 -17,9.388841 -17,0 c 0,-9.388841 7.611159,-17 17,-17 9.388841,0 17,7.611159 17,17 z"
             style="fill:none;stroke:#000000;stroke-width:3;stroke-linecap:round;stroke-linejoin:round;stroke-miterlimit:10;stroke-dasharray:none;stroke-opacity:1"
             id="path111052" />
        </g>
        <g
           id="g111054"
           transform="matrix(0.24,0,0,0.24,418.08,258.72)">
          <path
             d="M 17,0 C 17,9.388841 9.388841,17 0,17 -9.388841,17 -17,9.388841 -17,0 c 0,-9.388841 7.611159,-17 17,-17 9.388841,0 17,7.611159 17,17 z"
             style="fill:none;stroke:#000000;stroke-width:3;stroke-linecap:round;stroke-linejoin:round;stroke-miterlimit:10;stroke-dasharray:none;stroke-opacity:1"
             id="path111056" />
        </g>
      </g>
    </g>
    <g
       id="g111072">
      <g
         id="g111074"
         clip-path="url(#clipPath111078)">
        <g
           id="g111080"
           transform="matrix(0.24,0,0,0.24,346.32,392.88)">
          <path
             d="M 20.04519,73.30887 C -20.44218,84.37952 -62.23822,60.53256 -73.30887,20.04519 -73.96593,17.6422 -74.50444,15.20836 -74.92246,12.75248"
             style="fill:none;stroke:#000000;stroke-width:3;stroke-linecap:round;stroke-linejoin:round;stroke-miterlimit:10;stroke-dasharray:none;stroke-opacity:1"
             id="path111082" />
        </g>
        <g
           id="g111084"
           transform="scale(0.24)">
          <path
             d="m 1463,1710 477,-189"
             style="fill:none;stroke:#000000;stroke-width:3;stroke-linecap:round;stroke-linejoin:round;stroke-miterlimit:10;stroke-dasharray:none;stroke-opacity:1"
             id="path111086" />
        </g>
        <g
           id="g111088"
           transform="matrix(0.24,0,0,0.24,458.88,348)">
          <path
             d="M 71.72966,-25.11684 C 85.29369,13.61985 65.65171,56.12813 27.3609,70.90403"
             style="fill:none;stroke:#000000;stroke-width:3;stroke-linecap:round;stroke-linejoin:round;stroke-miterlimit:10;stroke-dasharray:none;stroke-opacity:1"
             id="path111090" />
        </g>
        <g
           id="g111092"
           transform="scale(0.24)">
          <path
             d="m 1790,953 69,155 65,158 60,158"
             style="fill:none;stroke:#000000;stroke-width:3;stroke-linecap:round;stroke-linejoin:round;stroke-miterlimit:10;stroke-dasharray:none;stroke-opacity:1"
             id="path111094" />
        </g>
        <g
           id="g111096"
           transform="scale(0.24)">
          <path
             d="m 1790,953 -33,-76 -31,-76 -27,-78 -24,-79"
             style="fill:none;stroke:#000000;stroke-width:3;stroke-linecap:round;stroke-linejoin:round;stroke-miterlimit:10;stroke-dasharray:none;stroke-opacity:1"
             id="path111098" />
        </g>
        <g
           id="g111100"
           transform="matrix(0.24,0,0,0.24,375.12,163.2)">
          <path
             d="m -63.95494,-99.16535 c 54.767513,-35.32135 127.79895,-19.55705 163.12029,35.21041 5.51625,8.5533 9.90285,17.78435 13.05035,27.46327"
             style="fill:none;stroke:#000000;stroke-width:3;stroke-linecap:round;stroke-linejoin:round;stroke-miterlimit:10;stroke-dasharray:none;stroke-opacity:1"
             id="path111102" />
        </g>
        <g
           id="g111104"
           transform="scale(0.24)">
          <path
             d="m 1005,979 76,-74 78,-71 81,-68 84,-65 86,-62 89,-58"
             style="fill:none;stroke:#000000;stroke-width:3;stroke-linecap:round;stroke-linejoin:round;stroke-miterlimit:10;stroke-dasharray:none;stroke-opacity:1"
             id="path111106" />
        </g>
        <g
           id="g111108"
           transform="scale(0.24)">
          <path
             d="m 730,1436 21,-64 25,-62 30,-61 33,-59 36,-56 40,-54 44,-52 46,-49"
             style="fill:none;stroke:#000000;stroke-width:3;stroke-linecap:round;stroke-linejoin:round;stroke-miterlimit:10;stroke-dasharray:none;stroke-opacity:1"
             id="path111110" />
        </g>
        <g
           id="g111112"
           transform="matrix(0.24,0,0,0.24,362.88,396.48)">
          <path
             d="M -733.3612,346.2692 C -816.2791,170.658 -833.4277,-28.87736 -781.6895,-216.0613"
             style="fill:none;stroke:#000000;stroke-width:3;stroke-linecap:round;stroke-linejoin:round;stroke-miterlimit:10;stroke-dasharray:none;stroke-opacity:1"
             id="path111114" />
        </g>
        <g
           id="g111116"
           transform="scale(0.24)">
          <path
             d="m 1251,2735 -87,-117 -83,-120 -81,-122 -77,-124 -74,-126 -71,-128"
             style="fill:none;stroke:#000000;stroke-width:3;stroke-linecap:round;stroke-linejoin:round;stroke-miterlimit:10;stroke-dasharray:none;stroke-opacity:1"
             id="path111118" />
        </g>
        <g
           id="g111120"
           transform="matrix(0.24,0,0,0.24,325.2,638.16)">
          <path
             d="M 102.9459,76.0667 C 60.93542,132.9221 -19.21125,144.9564 -76.0667,102.9459 -86.51073,95.2288 -95.71963,85.96735 -103.3772,75.47956"
             style="fill:none;stroke:#000000;stroke-width:3;stroke-linecap:round;stroke-linejoin:round;stroke-miterlimit:10;stroke-dasharray:none;stroke-opacity:1"
             id="path111122" />
        </g>
        <g
           id="g111124"
           transform="scale(0.24)">
          <path
             d="m 1458,2736 64,-98 68,-95 72,-92 76,-89"
             style="fill:none;stroke:#000000;stroke-width:3;stroke-linecap:round;stroke-linejoin:round;stroke-miterlimit:10;stroke-dasharray:none;stroke-opacity:1"
             id="path111126" />
        </g>
        <g
           id="g111128"
           transform="scale(0.24)">
          <path
             d="m 2023,1923 -23,54 -26,53 -28,51 -30,50 -31,49 -34,48 -36,46 -38,45 -40,43"
             style="fill:none;stroke:#000000;stroke-width:3;stroke-linecap:round;stroke-linejoin:bevel;stroke-miterlimit:10;stroke-dasharray:none;stroke-opacity:1"
             id="path111130" />
        </g>
        <g
           id="g111132"
           transform="scale(0.24)">
          <path
             d="m 2024,1924 -760,-259 104,-15"
             style="fill:none;stroke:#000000;stroke-width:3;stroke-linecap:round;stroke-linejoin:round;stroke-miterlimit:10;stroke-dasharray:none;stroke-opacity:1"
             id="path111134" />
        </g>
      </g>
    </g>
  </g>
</svg>
