<?xml version="1.0" encoding="UTF-8" standalone="no"?>
<!-- Created with Inkscape (http://www.inkscape.org/) -->

<svg
   version="1.1"
   id="svg88190"
   width="793.70117"
   height="1122.5197"
   viewBox="0 0 793.70118 1122.5197"
   sodipodi:docname="BraPatternallsizes.pdf"
   inkscape:version="1.2.2 (b0a84865, 2022-12-01)"
   xmlns:inkscape="http://www.inkscape.org/namespaces/inkscape"
   xmlns:sodipodi="http://sodipodi.sourceforge.net/DTD/sodipodi-0.dtd"
   xmlns="http://www.w3.org/2000/svg"
   xmlns:svg="http://www.w3.org/2000/svg">
  <defs
     id="defs88194">
    <clipPath
       clipPathUnits="userSpaceOnUse"
       id="clipPath112210">
      <path
         d="M 0,0 H 595.2 V 841.68 H 0 Z"
         id="path112208" />
    </clipPath>
    <clipPath
       clipPathUnits="userSpaceOnUse"
       id="clipPath112264">
      <path
         d="M 0,0 H 595.2 V 841.68 H 0 Z"
         id="path112262" />
    </clipPath>
  </defs>
  <sodipodi:namedview
     id="namedview88192"
     pagecolor="#ffffff"
     bordercolor="#000000"
     borderopacity="0.25"
     inkscape:showpageshadow="2"
     inkscape:pageopacity="0.0"
     inkscape:pagecheckerboard="0"
     inkscape:deskcolor="#d1d1d1"
     showgrid="false"
     inkscape:zoom="0.58529044"
     inkscape:cx="7276.7291"
     inkscape:cy="544.17427"
     inkscape:window-width="1459"
     inkscape:window-height="877"
     inkscape:window-x="1080"
     inkscape:window-y="67"
     inkscape:window-maximized="0"
     inkscape:current-layer="g105752" />
  <g
     id="g112176"
     inkscape:groupmode="layer"
     inkscape:label="Page 20"
     transform="matrix(1.3333333,0,0,-1.3333333,-3.4522877e-4,1122.5197)">
    <g
       id="g112204">
      <g
         id="g112206"
         clip-path="url(#clipPath112210)">
        <g
           id="g112212"
           transform="matrix(0.24,0,0,0.24,477.12,368.16)">
          <path
             d="M 17,0 C 17,9.388841 9.388841,17 0,17 -9.388841,17 -17,9.388841 -17,0 c 0,-9.388841 7.611159,-17 17,-17 9.388841,0 17,7.611159 17,17 z"
             style="fill:none;stroke:#000000;stroke-width:3;stroke-linecap:round;stroke-linejoin:round;stroke-miterlimit:10;stroke-dasharray:none;stroke-opacity:1"
             id="path112214" />
        </g>
        <g
           id="g112216"
           transform="matrix(0.24,0,0,0.24,353.04,417.36)">
          <path
             d="M 17,0 C 17,9.388841 9.388841,17 0,17 -9.388841,17 -17,9.388841 -17,0 c 0,-9.388841 7.611159,-17 17,-17 9.388841,0 17,7.611159 17,17 z"
             style="fill:none;stroke:#000000;stroke-width:3;stroke-linecap:round;stroke-linejoin:round;stroke-miterlimit:10;stroke-dasharray:none;stroke-opacity:1"
             id="path112218" />
        </g>
        <g
           id="g112220"
           transform="matrix(0.24,0,0,0.24,476.16,506.16)">
          <path
             d="M 17,0 C 17,9.388841 9.388841,17 0,17 -9.388841,17 -17,9.388841 -17,0 c 0,-9.388841 7.611159,-17 17,-17 9.388841,0 17,7.611159 17,17 z"
             style="fill:none;stroke:#000000;stroke-width:3;stroke-linecap:round;stroke-linejoin:round;stroke-miterlimit:10;stroke-dasharray:none;stroke-opacity:1"
             id="path112222" />
        </g>
        <g
           id="g112224"
           transform="matrix(0.24,0,0,0.24,349.68,459.12)">
          <path
             d="M 17,0 C 17,9.388841 9.388841,17 0,17 -9.388841,17 -17,9.388841 -17,0 c 0,-9.388841 7.611159,-17 17,-17 9.388841,0 17,7.611159 17,17 z"
             style="fill:none;stroke:#000000;stroke-width:3;stroke-linecap:round;stroke-linejoin:round;stroke-miterlimit:10;stroke-dasharray:none;stroke-opacity:1"
             id="path112226" />
        </g>
        <g
           id="g112228"
           transform="matrix(0.24,0,0,0.24,388.08,156.48)">
          <path
             d="M 17,0 C 17,9.388841 9.388841,17 0,17 -9.388841,17 -17,9.388841 -17,0 c 0,-9.388841 7.611159,-17 17,-17 9.388841,0 17,7.611159 17,17 z"
             style="fill:none;stroke:#000000;stroke-width:3;stroke-linecap:round;stroke-linejoin:round;stroke-miterlimit:10;stroke-dasharray:none;stroke-opacity:1"
             id="path112230" />
        </g>
        <g
           id="g112232"
           transform="matrix(0.24,0,0,0.24,405.12,597.84)">
          <path
             d="M 17,0 C 17,9.388841 9.388841,17 0,17 -9.388841,17 -17,9.388841 -17,0 c 0,-9.388841 7.611159,-17 17,-17 9.388841,0 17,7.611159 17,17 z"
             style="fill:none;stroke:#000000;stroke-width:3;stroke-linecap:round;stroke-linejoin:round;stroke-miterlimit:10;stroke-dasharray:none;stroke-opacity:1"
             id="path112234" />
        </g>
        <g
           id="g112236"
           transform="matrix(0.24,0,0,0.24,329.04,693.84)">
          <path
             d="M 17,0 C 17,9.388841 9.388841,17 0,17 -9.388841,17 -17,9.388841 -17,0 c 0,-9.388841 7.611159,-17 17,-17 9.388841,0 17,7.611159 17,17 z"
             style="fill:none;stroke:#000000;stroke-width:3;stroke-linecap:round;stroke-linejoin:round;stroke-miterlimit:10;stroke-dasharray:none;stroke-opacity:1"
             id="path112238" />
        </g>
        <g
           id="g112240"
           transform="matrix(0.24,0,0,0.24,432.24,270)">
          <path
             d="M 17,0 C 17,9.388841 9.388841,17 0,17 -9.388841,17 -17,9.388841 -17,0 c 0,-9.388841 7.611159,-17 17,-17 9.388841,0 17,7.611159 17,17 z"
             style="fill:none;stroke:#000000;stroke-width:3;stroke-linecap:round;stroke-linejoin:round;stroke-miterlimit:10;stroke-dasharray:none;stroke-opacity:1"
             id="path112242" />
        </g>
      </g>
    </g>
    <g
       id="g112258">
      <g
         id="g112260"
         clip-path="url(#clipPath112264)">
        <g
           id="g112266"
           transform="matrix(0.24,0,0,0.24,353.04,417.36)">
          <path
             d="M 21.7609,80.09659 C -22.47522,92.1148 -68.07837,65.99703 -80.09659,21.7609 c -0.7133,-2.62548 -1.29707,-5.28445 -1.74921,-7.96727"
             style="fill:none;stroke:#000000;stroke-width:3;stroke-linecap:round;stroke-linejoin:round;stroke-miterlimit:10;stroke-dasharray:none;stroke-opacity:1"
             id="path112268" />
        </g>
        <g
           id="g112270"
           transform="scale(0.24)">
          <path
             d="m 1493,1820 525,-207"
             style="fill:none;stroke:#000000;stroke-width:3;stroke-linecap:round;stroke-linejoin:round;stroke-miterlimit:10;stroke-dasharray:none;stroke-opacity:1"
             id="path112272" />
        </g>
        <g
           id="g112274"
           transform="matrix(0.24,0,0,0.24,477.12,368.16)">
          <path
             d="M 78.38097,-27.30244 C 93.1253,15.02618 71.59853,61.41464 29.7547,77.48328"
             style="fill:none;stroke:#000000;stroke-width:3;stroke-linecap:round;stroke-linejoin:round;stroke-miterlimit:10;stroke-dasharray:none;stroke-opacity:1"
             id="path112276" />
        </g>
        <g
           id="g112278"
           transform="scale(0.24)">
          <path
             d="m 1854,988 75,171 71,173 67,175"
             style="fill:none;stroke:#000000;stroke-width:3;stroke-linecap:round;stroke-linejoin:round;stroke-miterlimit:10;stroke-dasharray:none;stroke-opacity:1"
             id="path112280" />
        </g>
        <g
           id="g112282"
           transform="scale(0.24)">
          <path
             d="m 1854,988 -37,-84 -33,-84 -29,-86 -27,-87"
             style="fill:none;stroke:#000000;stroke-width:3;stroke-linecap:round;stroke-linejoin:round;stroke-miterlimit:10;stroke-dasharray:none;stroke-opacity:1"
             id="path112284" />
        </g>
        <g
           id="g112286"
           transform="matrix(0.24,0,0,0.24,384.96,164.88)">
          <path
             d="m -70.28057,-109.3647 c 60.400464,-38.8149 140.8304,-21.3163 179.64527,39.08413 6.0619,9.43302 10.8779,19.61068 14.3281,30.27955"
             style="fill:none;stroke:#000000;stroke-width:3;stroke-linecap:round;stroke-linejoin:round;stroke-miterlimit:10;stroke-dasharray:none;stroke-opacity:1"
             id="path112288" />
        </g>
        <g
           id="g112290"
           transform="scale(0.24)">
          <path
             d="m 610,1474 63,-88 65,-86 68,-84 71,-81 74,-79 76,-77 79,-73 81,-72 83,-68 86,-66 88,-62 90,-60"
             style="fill:none;stroke:#000000;stroke-width:3;stroke-linecap:round;stroke-linejoin:round;stroke-miterlimit:10;stroke-dasharray:none;stroke-opacity:1"
             id="path112292" />
        </g>
        <g
           id="g112294"
           transform="matrix(0.24,0,0,0.24,244.56,417.6)">
          <path
             d="m -424.7068,236.2628 c -87.5466,-157.37396 -80.8942,-350.2569 17.287,-501.2252"
             style="fill:none;stroke:#000000;stroke-width:3;stroke-linecap:round;stroke-linejoin:round;stroke-miterlimit:10;stroke-dasharray:none;stroke-opacity:1"
             id="path112296" />
        </g>
        <g
           id="g112298"
           transform="scale(0.24)">
          <path
             d="M 1258,2947 1118,2758 981,2566 848,2372 719,2175 593,1976"
             style="fill:none;stroke:#000000;stroke-width:3;stroke-linecap:round;stroke-linejoin:round;stroke-miterlimit:10;stroke-dasharray:none;stroke-opacity:1"
             id="path112300" />
        </g>
        <g
           id="g112302"
           transform="matrix(0.24,0,0,0.24,329.28,687.36)">
          <path
             d="M 113.2646,83.977 C 66.88535,146.5313 -21.42271,159.6438 -83.977,113.2646 -95.46788,104.745 -105.5954,94.52637 -114.0118,82.95969"
             style="fill:none;stroke:#000000;stroke-width:3;stroke-linecap:round;stroke-linejoin:round;stroke-miterlimit:10;stroke-dasharray:none;stroke-opacity:1"
             id="path112304" />
        </g>
        <g
           id="g112306"
           transform="scale(0.24)">
          <path
             d="m 1486,2948 56,-86 59,-84 61,-83 65,-80 67,-78"
             style="fill:none;stroke:#000000;stroke-width:3;stroke-linecap:round;stroke-linejoin:round;stroke-miterlimit:10;stroke-dasharray:none;stroke-opacity:1"
             id="path112308" />
        </g>
        <g
           id="g112310"
           transform="scale(0.24)">
          <path
             d="m 2110,2056 -26,59 -28,58 -31,57 -33,55 -35,54 -38,52 -39,51 -42,49 -44,47"
             style="fill:none;stroke:#000000;stroke-width:3;stroke-linecap:round;stroke-linejoin:bevel;stroke-miterlimit:10;stroke-dasharray:none;stroke-opacity:1"
             id="path112312" />
        </g>
        <g
           id="g112314"
           transform="scale(0.24)">
          <path
             d="m 2110,2056 -836,-286 115,-17"
             style="fill:none;stroke:#000000;stroke-width:3;stroke-linecap:round;stroke-linejoin:round;stroke-miterlimit:10;stroke-dasharray:none;stroke-opacity:1"
             id="path112316" />
        </g>
        <g
           id="g112318"
           transform="matrix(0.24,0,0,0.24,152.88,413.52)">
          <path
             d="M 17,0 C 17,9.388841 9.388841,17 0,17 -9.388841,17 -17,9.388841 -17,0 c 0,-9.388841 7.611159,-17 17,-17 9.388841,0 17,7.611159 17,17 z"
             style="fill:none;stroke:#000000;stroke-width:3;stroke-linecap:round;stroke-linejoin:round;stroke-miterlimit:10;stroke-dasharray:none;stroke-opacity:1"
             id="path112320" />
        </g>
      </g>
    </g>
  </g>
</svg>
