<?xml version="1.0" encoding="UTF-8" standalone="no"?>
<!-- Created with Inkscape (http://www.inkscape.org/) -->

<svg
   version="1.1"
   id="svg88190"
   width="793.70117"
   height="1122.5197"
   viewBox="0 0 793.70118 1122.5197"
   sodipodi:docname="BraPatternallsizes.pdf"
   inkscape:version="1.2.2 (b0a84865, 2022-12-01)"
   xmlns:inkscape="http://www.inkscape.org/namespaces/inkscape"
   xmlns:sodipodi="http://sodipodi.sourceforge.net/DTD/sodipodi-0.dtd"
   xmlns="http://www.w3.org/2000/svg"
   xmlns:svg="http://www.w3.org/2000/svg">
  <defs
     id="defs88194">
    <clipPath
       clipPathUnits="userSpaceOnUse"
       id="clipPath111614">
      <path
         d="M 0,0 H 595.2 V 841.68 H 0 Z"
         id="path111612" />
    </clipPath>
    <clipPath
       clipPathUnits="userSpaceOnUse"
       id="clipPath111668">
      <path
         d="M 0,0 H 595.2 V 841.68 H 0 Z"
         id="path111666" />
    </clipPath>
  </defs>
  <sodipodi:namedview
     id="namedview88192"
     pagecolor="#ffffff"
     bordercolor="#000000"
     borderopacity="0.25"
     inkscape:showpageshadow="2"
     inkscape:pageopacity="0.0"
     inkscape:pagecheckerboard="0"
     inkscape:deskcolor="#d1d1d1"
     showgrid="false"
     inkscape:zoom="0.58529044"
     inkscape:cx="7276.7291"
     inkscape:cy="544.17427"
     inkscape:window-width="1459"
     inkscape:window-height="877"
     inkscape:window-x="1080"
     inkscape:window-y="67"
     inkscape:window-maximized="0"
     inkscape:current-layer="g105752" />
  <g
     id="g111580"
     inkscape:groupmode="layer"
     inkscape:label="Page 19"
     transform="matrix(1.3333333,0,0,-1.3333333,-1.7779897e-4,1122.5197)">
    <g
       id="g111608">
      <g
         id="g111610"
         clip-path="url(#clipPath111614)">
        <g
           id="g111616"
           transform="matrix(0.24,0,0,0.24,117.84,368.16)">
          <path
             d="M 17,0 C 17,9.388841 9.388841,17 0,17 -9.388841,17 -17,9.388841 -17,0 c 0,-9.388841 7.611159,-17 17,-17 9.388841,0 17,7.611159 17,17 z"
             style="fill:none;stroke:#000000;stroke-width:3;stroke-linecap:round;stroke-linejoin:round;stroke-miterlimit:10;stroke-dasharray:none;stroke-opacity:1"
             id="path111618" />
        </g>
        <g
           id="g111620"
           transform="matrix(0.24,0,0,0.24,241.92,417.36)">
          <path
             d="M 17,0 C 17,9.388841 9.388841,17 0,17 -9.388841,17 -17,9.388841 -17,0 c 0,-9.388841 7.611159,-17 17,-17 9.388841,0 17,7.611159 17,17 z"
             style="fill:none;stroke:#000000;stroke-width:3;stroke-linecap:round;stroke-linejoin:round;stroke-miterlimit:10;stroke-dasharray:none;stroke-opacity:1"
             id="path111622" />
        </g>
        <g
           id="g111624"
           transform="matrix(0.24,0,0,0.24,118.8,506.16)">
          <path
             d="M 17,0 C 17,9.388841 9.388841,17 0,17 -9.388841,17 -17,9.388841 -17,0 c 0,-9.388841 7.611159,-17 17,-17 9.388841,0 17,7.611159 17,17 z"
             style="fill:none;stroke:#000000;stroke-width:3;stroke-linecap:round;stroke-linejoin:round;stroke-miterlimit:10;stroke-dasharray:none;stroke-opacity:1"
             id="path111626" />
        </g>
        <g
           id="g111628"
           transform="matrix(0.24,0,0,0.24,245.28,459.12)">
          <path
             d="M 17,0 C 17,9.388841 9.388841,17 0,17 -9.388841,17 -17,9.388841 -17,0 c 0,-9.388841 7.611159,-17 17,-17 9.388841,0 17,7.611159 17,17 z"
             style="fill:none;stroke:#000000;stroke-width:3;stroke-linecap:round;stroke-linejoin:round;stroke-miterlimit:10;stroke-dasharray:none;stroke-opacity:1"
             id="path111630" />
        </g>
        <g
           id="g111632"
           transform="matrix(0.24,0,0,0.24,206.88,156.48)">
          <path
             d="M 17,0 C 17,9.388841 9.388841,17 0,17 -9.388841,17 -17,9.388841 -17,0 c 0,-9.388841 7.611159,-17 17,-17 9.388841,0 17,7.611159 17,17 z"
             style="fill:none;stroke:#000000;stroke-width:3;stroke-linecap:round;stroke-linejoin:round;stroke-miterlimit:10;stroke-dasharray:none;stroke-opacity:1"
             id="path111634" />
        </g>
        <g
           id="g111636"
           transform="matrix(0.24,0,0,0.24,189.84,597.84)">
          <path
             d="M 17,0 C 17,9.388841 9.388841,17 0,17 -9.388841,17 -17,9.388841 -17,0 c 0,-9.388841 7.611159,-17 17,-17 9.388841,0 17,7.611159 17,17 z"
             style="fill:none;stroke:#000000;stroke-width:3;stroke-linecap:round;stroke-linejoin:round;stroke-miterlimit:10;stroke-dasharray:none;stroke-opacity:1"
             id="path111638" />
        </g>
        <g
           id="g111640"
           transform="matrix(0.24,0,0,0.24,265.92,693.84)">
          <path
             d="M 17,0 C 17,9.388841 9.388841,17 0,17 -9.388841,17 -17,9.388841 -17,0 c 0,-9.388841 7.611159,-17 17,-17 9.388841,0 17,7.611159 17,17 z"
             style="fill:none;stroke:#000000;stroke-width:3;stroke-linecap:round;stroke-linejoin:round;stroke-miterlimit:10;stroke-dasharray:none;stroke-opacity:1"
             id="path111642" />
        </g>
        <g
           id="g111644"
           transform="matrix(0.24,0,0,0.24,162.72,270)">
          <path
             d="M 17,0 C 17,9.388841 9.388841,17 0,17 -9.388841,17 -17,9.388841 -17,0 c 0,-9.388841 7.611159,-17 17,-17 9.388841,0 17,7.611159 17,17 z"
             style="fill:none;stroke:#000000;stroke-width:3;stroke-linecap:round;stroke-linejoin:round;stroke-miterlimit:10;stroke-dasharray:none;stroke-opacity:1"
             id="path111646" />
        </g>
      </g>
    </g>
    <g
       id="g111662">
      <g
         id="g111664"
         clip-path="url(#clipPath111668)">
        <g
           id="g111670"
           transform="matrix(0.24,0,0,0.24,241.92,417.36)">
          <path
             d="M 81.8458,13.79363 C 74.22779,58.99582 31.40856,89.46382 -13.79363,81.8458 -16.47645,81.39366 -19.13542,80.80989 -21.7609,80.09659"
             style="fill:none;stroke:#000000;stroke-width:3;stroke-linecap:round;stroke-linejoin:round;stroke-miterlimit:10;stroke-dasharray:none;stroke-opacity:1"
             id="path111672" />
        </g>
        <g
           id="g111674"
           transform="scale(0.24)">
          <path
             d="M 986,1820 461,1613"
             style="fill:none;stroke:#000000;stroke-width:3;stroke-linecap:round;stroke-linejoin:round;stroke-miterlimit:10;stroke-dasharray:none;stroke-opacity:1"
             id="path111676" />
        </g>
        <g
           id="g111678"
           transform="matrix(0.24,0,0,0.24,117.84,368.16)">
          <path
             d="M -29.75471,77.48327 C -71.59854,61.41463 -93.12531,15.02616 -78.38096,-27.30247"
             style="fill:none;stroke:#000000;stroke-width:3;stroke-linecap:round;stroke-linejoin:round;stroke-miterlimit:10;stroke-dasharray:none;stroke-opacity:1"
             id="path111680" />
        </g>
        <g
           id="g111682"
           transform="scale(0.24)">
          <path
             d="m 412,1507 67,-175 71,-173 75,-171"
             style="fill:none;stroke:#000000;stroke-width:3;stroke-linecap:round;stroke-linejoin:round;stroke-miterlimit:10;stroke-dasharray:none;stroke-opacity:1"
             id="path111684" />
        </g>
        <g
           id="g111686"
           transform="scale(0.24)">
          <path
             d="m 751,647 -27,87 -29,86 -33,84 -37,84"
             style="fill:none;stroke:#000000;stroke-width:3;stroke-linecap:round;stroke-linejoin:round;stroke-miterlimit:10;stroke-dasharray:none;stroke-opacity:1"
             id="path111688" />
        </g>
        <g
           id="g111690"
           transform="matrix(0.24,0,0,0.24,210,164.88)">
          <path
             d="m -123.6928,-40.00105 c 22.0919,-68.31365 95.38019,-105.78375 163.69385,-83.69175 10.66886,3.4502 20.84651,8.2662 30.27952,14.3281"
             style="fill:none;stroke:#000000;stroke-width:3;stroke-linecap:round;stroke-linejoin:round;stroke-miterlimit:10;stroke-dasharray:none;stroke-opacity:1"
             id="path111692" />
        </g>
        <g
           id="g111694"
           transform="scale(0.24)">
          <path
             d="m 945,578 90,60 88,62 86,66 83,68 81,72 79,73 76,77 74,79 71,81 68,84 65,86 63,88"
             style="fill:none;stroke:#000000;stroke-width:3;stroke-linecap:round;stroke-linejoin:round;stroke-miterlimit:10;stroke-dasharray:none;stroke-opacity:1"
             id="path111696" />
        </g>
        <g
           id="g111698"
           transform="matrix(0.24,0,0,0.24,350.4,417.6)">
          <path
             d="m 407.4198,-264.9625 c 98.1811,150.9684 104.8336,343.85132 17.287,501.2253"
             style="fill:none;stroke:#000000;stroke-width:3;stroke-linecap:round;stroke-linejoin:round;stroke-miterlimit:10;stroke-dasharray:none;stroke-opacity:1"
             id="path111700" />
        </g>
        <g
           id="g111702"
           transform="scale(0.24)">
          <path
             d="m 1886,1976 -126,199 -129,197 -133,194 -137,192 -140,189"
             style="fill:none;stroke:#000000;stroke-width:3;stroke-linecap:round;stroke-linejoin:round;stroke-miterlimit:10;stroke-dasharray:none;stroke-opacity:1"
             id="path111704" />
        </g>
        <g
           id="g111706"
           transform="matrix(0.24,0,0,0.24,265.68,687.36)">
          <path
             d="M 114.0118,82.95969 C 68.19442,145.9267 -19.99272,159.8292 -82.95969,114.0118 -94.52638,105.5954 -104.745,95.46788 -113.2646,83.977"
             style="fill:none;stroke:#000000;stroke-width:3;stroke-linecap:round;stroke-linejoin:round;stroke-miterlimit:10;stroke-dasharray:none;stroke-opacity:1"
             id="path111708" />
        </g>
        <g
           id="g111710"
           transform="scale(0.24)">
          <path
             d="m 685,2537 67,78 65,80 61,83 59,84 56,86"
             style="fill:none;stroke:#000000;stroke-width:3;stroke-linecap:round;stroke-linejoin:round;stroke-miterlimit:10;stroke-dasharray:none;stroke-opacity:1"
             id="path111712" />
        </g>
        <g
           id="g111714"
           transform="scale(0.24)">
          <path
             d="m 685,2537 -56,-60 -53,-64 -49,-67 -45,-69 -41,-72 -38,-73 -34,-76 836,-286 -115,-17"
             style="fill:none;stroke:#000000;stroke-width:3;stroke-linecap:round;stroke-linejoin:round;stroke-miterlimit:10;stroke-dasharray:none;stroke-opacity:1"
             id="path111716" />
        </g>
        <g
           id="g111718"
           transform="matrix(0.24,0,0,0.24,442.08,413.52)">
          <path
             d="M 17,0 C 17,9.388841 9.388841,17 0,17 -9.388841,17 -17,9.388841 -17,0 c 0,-9.388841 7.611159,-17 17,-17 9.388841,0 17,7.611159 17,17 z"
             style="fill:none;stroke:#000000;stroke-width:3;stroke-linecap:round;stroke-linejoin:round;stroke-miterlimit:10;stroke-dasharray:none;stroke-opacity:1"
             id="path111720" />
        </g>
        <g
           id="g111722"
           transform="scale(0.24)">
          <path
             d="M 0,0 V 3506"
             style="fill:none;stroke:#000000;stroke-width:3;stroke-linecap:round;stroke-linejoin:round;stroke-miterlimit:10;stroke-dasharray:none;stroke-opacity:1"
             id="path111724" />
        </g>
      </g>
    </g>
  </g>
</svg>
